G04 EAGLE Gerber RS-274X export*
G75*
%MOMM*%
%FSLAX34Y34*%
%LPD*%
%INBottom Copper*%
%IPPOS*%
%AMOC8*
5,1,8,0,0,1.08239X$1,22.5*%
G01*
%ADD10R,1.500000X1.300000*%
%ADD11R,1.300000X1.500000*%
%ADD12R,1.900000X0.900000*%
%ADD13R,1.900000X3.200000*%
%ADD14R,1.800000X1.600000*%
%ADD15C,1.879600*%
%ADD16R,0.635000X1.270000*%
%ADD17C,0.406400*%
%ADD18C,0.858000*%
%ADD19C,0.203200*%
%ADD20C,0.254000*%

G36*
X436082Y2009D02*
X436082Y2009D01*
X436140Y2007D01*
X436222Y2029D01*
X436306Y2041D01*
X436359Y2064D01*
X436415Y2079D01*
X436488Y2122D01*
X436565Y2157D01*
X436610Y2195D01*
X436660Y2224D01*
X436718Y2286D01*
X436782Y2340D01*
X436814Y2389D01*
X436854Y2432D01*
X436893Y2507D01*
X436940Y2577D01*
X436957Y2633D01*
X436984Y2685D01*
X436995Y2753D01*
X437025Y2848D01*
X437028Y2948D01*
X437039Y3016D01*
X437039Y183014D01*
X437031Y183072D01*
X437033Y183130D01*
X437011Y183212D01*
X436999Y183296D01*
X436976Y183349D01*
X436961Y183405D01*
X436918Y183478D01*
X436883Y183555D01*
X436845Y183600D01*
X436816Y183650D01*
X436754Y183708D01*
X436700Y183772D01*
X436651Y183804D01*
X436608Y183844D01*
X436533Y183883D01*
X436463Y183930D01*
X436407Y183947D01*
X436355Y183974D01*
X436287Y183985D01*
X436192Y184015D01*
X436092Y184018D01*
X436024Y184029D01*
X3016Y184029D01*
X2958Y184021D01*
X2900Y184023D01*
X2818Y184001D01*
X2734Y183989D01*
X2681Y183966D01*
X2625Y183951D01*
X2552Y183908D01*
X2475Y183873D01*
X2430Y183835D01*
X2380Y183806D01*
X2322Y183744D01*
X2258Y183690D01*
X2226Y183641D01*
X2186Y183598D01*
X2147Y183523D01*
X2100Y183453D01*
X2083Y183397D01*
X2056Y183345D01*
X2045Y183277D01*
X2015Y183182D01*
X2012Y183082D01*
X2001Y183014D01*
X2001Y3016D01*
X2009Y2958D01*
X2007Y2900D01*
X2029Y2818D01*
X2041Y2734D01*
X2064Y2681D01*
X2079Y2625D01*
X2122Y2552D01*
X2157Y2475D01*
X2195Y2430D01*
X2224Y2380D01*
X2286Y2322D01*
X2340Y2258D01*
X2389Y2226D01*
X2432Y2186D01*
X2507Y2147D01*
X2577Y2100D01*
X2633Y2083D01*
X2685Y2056D01*
X2753Y2045D01*
X2848Y2015D01*
X2948Y2012D01*
X3016Y2001D01*
X436024Y2001D01*
X436082Y2009D01*
G37*
%LPC*%
G36*
X15607Y57657D02*
X15607Y57657D01*
X11593Y59320D01*
X8520Y62393D01*
X6857Y66407D01*
X6857Y70753D01*
X8520Y74767D01*
X11593Y77840D01*
X15607Y79503D01*
X19953Y79503D01*
X22972Y78252D01*
X22974Y78251D01*
X22975Y78251D01*
X23110Y78217D01*
X23248Y78181D01*
X23249Y78181D01*
X23251Y78181D01*
X23391Y78185D01*
X23532Y78189D01*
X23533Y78190D01*
X23535Y78190D01*
X23668Y78233D01*
X23803Y78276D01*
X23804Y78277D01*
X23805Y78277D01*
X23818Y78286D01*
X24039Y78434D01*
X24058Y78457D01*
X24079Y78472D01*
X33992Y88385D01*
X34044Y88455D01*
X34104Y88519D01*
X34130Y88568D01*
X34163Y88612D01*
X34194Y88694D01*
X34234Y88772D01*
X34242Y88819D01*
X34264Y88878D01*
X34276Y89026D01*
X34289Y89103D01*
X34289Y114108D01*
X40832Y120651D01*
X116614Y120651D01*
X116672Y120659D01*
X116730Y120657D01*
X116812Y120679D01*
X116896Y120691D01*
X116949Y120714D01*
X117005Y120729D01*
X117078Y120772D01*
X117155Y120807D01*
X117200Y120845D01*
X117250Y120874D01*
X117308Y120936D01*
X117372Y120990D01*
X117404Y121039D01*
X117444Y121082D01*
X117483Y121157D01*
X117530Y121227D01*
X117547Y121283D01*
X117574Y121335D01*
X117585Y121403D01*
X117615Y121498D01*
X117618Y121598D01*
X117629Y121666D01*
X117629Y122009D01*
X118669Y124519D01*
X120591Y126441D01*
X123101Y127481D01*
X125819Y127481D01*
X128329Y126441D01*
X130251Y124519D01*
X131291Y122009D01*
X131291Y121184D01*
X131295Y121155D01*
X131292Y121126D01*
X131315Y121015D01*
X131331Y120903D01*
X131343Y120876D01*
X131348Y120847D01*
X131400Y120747D01*
X131447Y120643D01*
X131466Y120621D01*
X131479Y120595D01*
X131557Y120513D01*
X131630Y120426D01*
X131655Y120410D01*
X131675Y120389D01*
X131773Y120331D01*
X131867Y120269D01*
X131895Y120260D01*
X131920Y120245D01*
X132030Y120217D01*
X132138Y120183D01*
X132168Y120182D01*
X132196Y120175D01*
X132309Y120178D01*
X132422Y120176D01*
X132451Y120183D01*
X132480Y120184D01*
X132588Y120219D01*
X132697Y120247D01*
X132723Y120262D01*
X132751Y120271D01*
X132814Y120317D01*
X132942Y120393D01*
X132985Y120438D01*
X133024Y120466D01*
X146732Y134175D01*
X147830Y134175D01*
X147888Y134183D01*
X147946Y134181D01*
X148028Y134203D01*
X148112Y134215D01*
X148165Y134238D01*
X148221Y134253D01*
X148294Y134296D01*
X148371Y134331D01*
X148416Y134369D01*
X148466Y134398D01*
X148524Y134460D01*
X148588Y134514D01*
X148620Y134563D01*
X148660Y134606D01*
X148699Y134681D01*
X148746Y134751D01*
X148763Y134807D01*
X148790Y134859D01*
X148801Y134927D01*
X148831Y135022D01*
X148834Y135122D01*
X148845Y135190D01*
X148845Y139512D01*
X149738Y140405D01*
X158653Y140405D01*
X158738Y140417D01*
X158824Y140419D01*
X158878Y140437D01*
X158935Y140445D01*
X159013Y140480D01*
X159095Y140506D01*
X159142Y140538D01*
X159194Y140561D01*
X159260Y140616D01*
X159331Y140664D01*
X159368Y140708D01*
X159411Y140744D01*
X159459Y140816D01*
X159514Y140882D01*
X159537Y140934D01*
X159569Y140981D01*
X159595Y141063D01*
X159629Y141142D01*
X159637Y141198D01*
X159654Y141252D01*
X159657Y141338D01*
X159668Y141423D01*
X159660Y141479D01*
X159662Y141536D01*
X159640Y141619D01*
X159628Y141705D01*
X159604Y141756D01*
X159590Y141811D01*
X159546Y141885D01*
X159511Y141964D01*
X159474Y142007D01*
X159445Y142056D01*
X159382Y142115D01*
X159326Y142180D01*
X159284Y142206D01*
X159237Y142250D01*
X159108Y142316D01*
X159042Y142358D01*
X158522Y142573D01*
X156600Y144495D01*
X156310Y145197D01*
X156309Y145198D01*
X156309Y145199D01*
X156239Y145316D01*
X156165Y145441D01*
X156164Y145443D01*
X156163Y145444D01*
X156062Y145539D01*
X155959Y145637D01*
X155957Y145637D01*
X155956Y145638D01*
X155830Y145703D01*
X155706Y145767D01*
X155704Y145767D01*
X155703Y145768D01*
X155688Y145770D01*
X155427Y145822D01*
X155396Y145819D01*
X155372Y145823D01*
X80918Y145823D01*
X80889Y145819D01*
X80860Y145822D01*
X80749Y145799D01*
X80636Y145783D01*
X80610Y145771D01*
X80581Y145766D01*
X80480Y145713D01*
X80377Y145667D01*
X80355Y145648D01*
X80329Y145635D01*
X80246Y145557D01*
X80160Y145484D01*
X80144Y145459D01*
X80122Y145439D01*
X80065Y145341D01*
X80002Y145247D01*
X79994Y145219D01*
X79979Y145194D01*
X79951Y145084D01*
X79917Y144976D01*
X79916Y144946D01*
X79909Y144918D01*
X79912Y144805D01*
X79909Y144692D01*
X79917Y144663D01*
X79918Y144634D01*
X79953Y144526D01*
X79981Y144417D01*
X79996Y144391D01*
X80005Y144363D01*
X80051Y144299D01*
X80126Y144172D01*
X80172Y144129D01*
X80200Y144090D01*
X80721Y143569D01*
X81761Y141059D01*
X81761Y138341D01*
X81396Y137460D01*
X81395Y137458D01*
X81394Y137457D01*
X81361Y137324D01*
X81325Y137185D01*
X81325Y137183D01*
X81324Y137181D01*
X81329Y137036D01*
X81333Y136900D01*
X81333Y136899D01*
X81333Y136897D01*
X81378Y136760D01*
X81419Y136630D01*
X81420Y136628D01*
X81421Y136627D01*
X81430Y136614D01*
X81578Y136393D01*
X81601Y136374D01*
X81616Y136353D01*
X83483Y134486D01*
X83507Y134468D01*
X83526Y134446D01*
X83620Y134383D01*
X83710Y134315D01*
X83738Y134305D01*
X83762Y134288D01*
X83870Y134254D01*
X83976Y134214D01*
X84005Y134211D01*
X84033Y134203D01*
X84147Y134200D01*
X84259Y134190D01*
X84288Y134196D01*
X84317Y134195D01*
X84427Y134224D01*
X84538Y134246D01*
X84564Y134260D01*
X84592Y134267D01*
X84690Y134325D01*
X84790Y134377D01*
X84812Y134397D01*
X84837Y134412D01*
X84914Y134495D01*
X84996Y134573D01*
X85011Y134598D01*
X85031Y134620D01*
X85083Y134721D01*
X85140Y134818D01*
X85147Y134847D01*
X85161Y134873D01*
X85174Y134950D01*
X85210Y135094D01*
X85208Y135156D01*
X85216Y135204D01*
X85216Y137792D01*
X86109Y138685D01*
X101851Y138685D01*
X102848Y137688D01*
X102939Y137619D01*
X103027Y137545D01*
X103053Y137533D01*
X103075Y137517D01*
X103182Y137476D01*
X103287Y137429D01*
X103315Y137425D01*
X103341Y137415D01*
X103455Y137406D01*
X103569Y137390D01*
X103596Y137394D01*
X103624Y137392D01*
X103736Y137414D01*
X103850Y137431D01*
X103875Y137442D01*
X103903Y137448D01*
X104005Y137501D01*
X104109Y137548D01*
X104130Y137566D01*
X104155Y137579D01*
X104238Y137658D01*
X104326Y137732D01*
X104339Y137753D01*
X104361Y137775D01*
X104496Y138004D01*
X104504Y138017D01*
X104699Y138489D01*
X106621Y140411D01*
X109131Y141451D01*
X111849Y141451D01*
X114359Y140411D01*
X116281Y138489D01*
X117321Y135979D01*
X117321Y133261D01*
X116281Y130751D01*
X114359Y128829D01*
X111849Y127789D01*
X109131Y127789D01*
X108159Y128192D01*
X108129Y128200D01*
X108102Y128214D01*
X108024Y128227D01*
X107884Y128263D01*
X107819Y128261D01*
X107771Y128269D01*
X103759Y128269D01*
X103701Y128261D01*
X103643Y128263D01*
X103561Y128241D01*
X103477Y128229D01*
X103424Y128206D01*
X103368Y128191D01*
X103295Y128148D01*
X103218Y128113D01*
X103173Y128075D01*
X103123Y128046D01*
X103065Y127984D01*
X103001Y127930D01*
X102969Y127881D01*
X102929Y127838D01*
X102890Y127763D01*
X102843Y127693D01*
X102826Y127637D01*
X102799Y127585D01*
X102788Y127517D01*
X102758Y127422D01*
X102755Y127322D01*
X102744Y127254D01*
X102744Y123828D01*
X101851Y122935D01*
X86109Y122935D01*
X85216Y123828D01*
X85216Y127254D01*
X85208Y127312D01*
X85210Y127370D01*
X85188Y127452D01*
X85176Y127536D01*
X85153Y127589D01*
X85138Y127645D01*
X85095Y127718D01*
X85060Y127795D01*
X85022Y127840D01*
X84993Y127890D01*
X84931Y127948D01*
X84877Y128012D01*
X84828Y128044D01*
X84785Y128084D01*
X84710Y128123D01*
X84640Y128170D01*
X84584Y128187D01*
X84532Y128214D01*
X84464Y128225D01*
X84369Y128255D01*
X84269Y128258D01*
X84201Y128269D01*
X82514Y128269D01*
X77917Y132865D01*
X77916Y132866D01*
X77915Y132868D01*
X77797Y132956D01*
X77690Y133036D01*
X77689Y133037D01*
X77687Y133038D01*
X77554Y133088D01*
X77424Y133138D01*
X77423Y133138D01*
X77421Y133138D01*
X77277Y133150D01*
X77141Y133161D01*
X77140Y133161D01*
X77138Y133161D01*
X77122Y133157D01*
X76862Y133105D01*
X76835Y133091D01*
X76811Y133086D01*
X76289Y132869D01*
X73571Y132869D01*
X71061Y133909D01*
X69139Y135831D01*
X68099Y138341D01*
X68099Y141059D01*
X69139Y143569D01*
X69660Y144090D01*
X69678Y144114D01*
X69700Y144133D01*
X69763Y144227D01*
X69831Y144317D01*
X69841Y144345D01*
X69858Y144369D01*
X69892Y144477D01*
X69932Y144583D01*
X69935Y144612D01*
X69943Y144640D01*
X69946Y144754D01*
X69956Y144866D01*
X69950Y144895D01*
X69951Y144924D01*
X69922Y145034D01*
X69900Y145145D01*
X69886Y145171D01*
X69879Y145199D01*
X69821Y145297D01*
X69769Y145397D01*
X69749Y145419D01*
X69734Y145444D01*
X69651Y145521D01*
X69573Y145603D01*
X69548Y145618D01*
X69526Y145638D01*
X69425Y145690D01*
X69328Y145747D01*
X69299Y145754D01*
X69273Y145768D01*
X69196Y145781D01*
X69052Y145817D01*
X68990Y145815D01*
X68942Y145823D01*
X43157Y145823D01*
X43070Y145811D01*
X42983Y145808D01*
X42930Y145791D01*
X42875Y145783D01*
X42796Y145748D01*
X42712Y145721D01*
X42673Y145693D01*
X42616Y145667D01*
X42503Y145571D01*
X42439Y145526D01*
X25478Y128565D01*
X25443Y128518D01*
X25400Y128478D01*
X25358Y128405D01*
X25307Y128338D01*
X25286Y128283D01*
X25257Y128233D01*
X25236Y128151D01*
X25206Y128072D01*
X25201Y128014D01*
X25187Y127957D01*
X25189Y127873D01*
X25182Y127789D01*
X25194Y127731D01*
X25196Y127673D01*
X25222Y127593D01*
X25238Y127510D01*
X25265Y127458D01*
X25283Y127402D01*
X25323Y127346D01*
X25369Y127258D01*
X25438Y127185D01*
X25478Y127129D01*
X27040Y125567D01*
X28703Y121553D01*
X28703Y117207D01*
X27040Y113193D01*
X23967Y110120D01*
X19953Y108457D01*
X15607Y108457D01*
X11593Y110120D01*
X8520Y113193D01*
X6857Y117207D01*
X6857Y121553D01*
X8520Y125567D01*
X11593Y128640D01*
X15607Y130303D01*
X19609Y130303D01*
X19696Y130315D01*
X19783Y130318D01*
X19836Y130335D01*
X19891Y130343D01*
X19970Y130378D01*
X20054Y130405D01*
X20093Y130433D01*
X20150Y130459D01*
X20263Y130555D01*
X20327Y130600D01*
X22543Y132816D01*
X22595Y132885D01*
X22654Y132947D01*
X22680Y132998D01*
X22714Y133043D01*
X22744Y133124D01*
X22784Y133200D01*
X22795Y133256D01*
X22815Y133309D01*
X22822Y133395D01*
X22839Y133479D01*
X22834Y133536D01*
X22839Y133592D01*
X22822Y133676D01*
X22814Y133762D01*
X22794Y133815D01*
X22783Y133871D01*
X22743Y133947D01*
X22712Y134027D01*
X22678Y134073D01*
X22652Y134123D01*
X22593Y134185D01*
X22541Y134254D01*
X22495Y134288D01*
X22456Y134329D01*
X22382Y134373D01*
X22313Y134424D01*
X22260Y134444D01*
X22211Y134473D01*
X22127Y134494D01*
X22047Y134525D01*
X21990Y134529D01*
X21935Y134543D01*
X21849Y134540D01*
X21764Y134547D01*
X21715Y134536D01*
X21651Y134534D01*
X21513Y134490D01*
X21436Y134472D01*
X19953Y133857D01*
X15607Y133857D01*
X11593Y135520D01*
X8520Y138593D01*
X6857Y142607D01*
X6857Y146953D01*
X8520Y150967D01*
X11593Y154040D01*
X15607Y155703D01*
X19953Y155703D01*
X23967Y154040D01*
X27040Y150967D01*
X28703Y146953D01*
X28703Y142607D01*
X28088Y141124D01*
X28067Y141040D01*
X28036Y140960D01*
X28031Y140903D01*
X28017Y140848D01*
X28020Y140762D01*
X28013Y140677D01*
X28024Y140621D01*
X28025Y140564D01*
X28052Y140482D01*
X28068Y140398D01*
X28095Y140347D01*
X28112Y140293D01*
X28160Y140222D01*
X28199Y140146D01*
X28239Y140104D01*
X28270Y140057D01*
X28336Y140002D01*
X28395Y139940D01*
X28444Y139911D01*
X28488Y139874D01*
X28566Y139839D01*
X28640Y139796D01*
X28696Y139782D01*
X28748Y139759D01*
X28833Y139747D01*
X28916Y139726D01*
X28973Y139728D01*
X29029Y139720D01*
X29114Y139732D01*
X29200Y139735D01*
X29254Y139752D01*
X29311Y139760D01*
X29389Y139796D01*
X29471Y139822D01*
X29511Y139851D01*
X29570Y139877D01*
X29680Y139972D01*
X29744Y140017D01*
X40632Y150905D01*
X155372Y150905D01*
X155373Y150905D01*
X155375Y150905D01*
X155514Y150925D01*
X155653Y150945D01*
X155655Y150945D01*
X155656Y150945D01*
X155784Y151003D01*
X155913Y151061D01*
X155914Y151062D01*
X155915Y151062D01*
X156020Y151152D01*
X156130Y151244D01*
X156131Y151246D01*
X156132Y151247D01*
X156139Y151259D01*
X156287Y151481D01*
X156297Y151510D01*
X156310Y151531D01*
X156614Y152265D01*
X156642Y152377D01*
X156677Y152486D01*
X156678Y152514D01*
X156685Y152541D01*
X156681Y152655D01*
X156684Y152770D01*
X156677Y152797D01*
X156677Y152825D01*
X156642Y152934D01*
X156613Y153045D01*
X156598Y153069D01*
X156590Y153096D01*
X156526Y153191D01*
X156467Y153290D01*
X156447Y153309D01*
X156432Y153332D01*
X156344Y153406D01*
X156260Y153484D01*
X156235Y153497D01*
X156214Y153515D01*
X156109Y153561D01*
X156007Y153614D01*
X155982Y153618D01*
X155954Y153630D01*
X155691Y153667D01*
X155676Y153669D01*
X132298Y153669D01*
X127321Y158646D01*
X127320Y158647D01*
X127319Y158648D01*
X127205Y158733D01*
X127094Y158817D01*
X127092Y158818D01*
X127091Y158818D01*
X126959Y158868D01*
X126828Y158918D01*
X126826Y158918D01*
X126825Y158919D01*
X126686Y158930D01*
X126545Y158942D01*
X126543Y158941D01*
X126542Y158942D01*
X126527Y158938D01*
X126266Y158886D01*
X126239Y158872D01*
X126214Y158866D01*
X124093Y157987D01*
X119747Y157987D01*
X115733Y159650D01*
X112660Y162723D01*
X110997Y166737D01*
X110997Y171083D01*
X112660Y175097D01*
X115733Y178170D01*
X119747Y179833D01*
X124093Y179833D01*
X128107Y178170D01*
X131180Y175097D01*
X132843Y171083D01*
X132843Y166737D01*
X131220Y162820D01*
X131220Y162818D01*
X131219Y162817D01*
X131185Y162682D01*
X131149Y162544D01*
X131149Y162543D01*
X131149Y162541D01*
X131153Y162401D01*
X131157Y162260D01*
X131158Y162259D01*
X131158Y162257D01*
X131201Y162124D01*
X131244Y161989D01*
X131245Y161988D01*
X131245Y161986D01*
X131254Y161974D01*
X131382Y161782D01*
X131387Y161774D01*
X131389Y161773D01*
X131402Y161753D01*
X131425Y161733D01*
X131440Y161713D01*
X134105Y159048D01*
X134175Y158996D01*
X134239Y158936D01*
X134288Y158910D01*
X134332Y158877D01*
X134414Y158846D01*
X134492Y158806D01*
X134539Y158798D01*
X134598Y158776D01*
X134746Y158764D01*
X134823Y158751D01*
X139581Y158751D01*
X139610Y158755D01*
X139639Y158752D01*
X139751Y158775D01*
X139863Y158791D01*
X139889Y158803D01*
X139918Y158808D01*
X140019Y158861D01*
X140122Y158907D01*
X140144Y158926D01*
X140171Y158939D01*
X140253Y159017D01*
X140339Y159090D01*
X140355Y159115D01*
X140377Y159135D01*
X140434Y159233D01*
X140497Y159327D01*
X140506Y159355D01*
X140520Y159380D01*
X140548Y159490D01*
X140582Y159598D01*
X140583Y159628D01*
X140590Y159656D01*
X140587Y159769D01*
X140590Y159882D01*
X140582Y159911D01*
X140581Y159940D01*
X140546Y160048D01*
X140518Y160157D01*
X140503Y160183D01*
X140494Y160211D01*
X140448Y160274D01*
X140373Y160402D01*
X140327Y160445D01*
X140299Y160484D01*
X138060Y162723D01*
X136397Y166737D01*
X136397Y171083D01*
X138060Y175097D01*
X141133Y178170D01*
X145147Y179833D01*
X149493Y179833D01*
X153507Y178170D01*
X156580Y175097D01*
X158243Y171083D01*
X158243Y166737D01*
X156580Y162723D01*
X154341Y160484D01*
X154323Y160460D01*
X154301Y160441D01*
X154238Y160347D01*
X154170Y160257D01*
X154160Y160229D01*
X154143Y160205D01*
X154109Y160097D01*
X154069Y159991D01*
X154066Y159962D01*
X154058Y159934D01*
X154055Y159820D01*
X154045Y159708D01*
X154051Y159679D01*
X154050Y159650D01*
X154079Y159540D01*
X154101Y159429D01*
X154115Y159403D01*
X154122Y159375D01*
X154180Y159277D01*
X154232Y159177D01*
X154252Y159155D01*
X154267Y159130D01*
X154350Y159053D01*
X154428Y158971D01*
X154453Y158956D01*
X154475Y158936D01*
X154575Y158884D01*
X154673Y158827D01*
X154702Y158820D01*
X154728Y158806D01*
X154805Y158793D01*
X154949Y158757D01*
X155011Y158759D01*
X155059Y158751D01*
X164981Y158751D01*
X165010Y158755D01*
X165039Y158752D01*
X165151Y158775D01*
X165263Y158791D01*
X165289Y158803D01*
X165318Y158808D01*
X165419Y158861D01*
X165522Y158907D01*
X165544Y158926D01*
X165571Y158939D01*
X165653Y159017D01*
X165739Y159090D01*
X165755Y159115D01*
X165777Y159135D01*
X165834Y159233D01*
X165897Y159327D01*
X165906Y159355D01*
X165920Y159380D01*
X165948Y159490D01*
X165982Y159598D01*
X165983Y159628D01*
X165990Y159656D01*
X165987Y159769D01*
X165990Y159882D01*
X165982Y159911D01*
X165981Y159940D01*
X165946Y160048D01*
X165918Y160157D01*
X165903Y160183D01*
X165894Y160211D01*
X165848Y160274D01*
X165773Y160402D01*
X165727Y160445D01*
X165699Y160484D01*
X163460Y162723D01*
X161797Y166737D01*
X161797Y171083D01*
X163460Y175097D01*
X166533Y178170D01*
X170547Y179833D01*
X174893Y179833D01*
X178907Y178170D01*
X181980Y175097D01*
X183643Y171083D01*
X183643Y166737D01*
X181980Y162723D01*
X179741Y160484D01*
X179723Y160460D01*
X179701Y160441D01*
X179638Y160347D01*
X179570Y160257D01*
X179560Y160229D01*
X179543Y160205D01*
X179509Y160097D01*
X179469Y159991D01*
X179466Y159962D01*
X179458Y159934D01*
X179455Y159820D01*
X179445Y159708D01*
X179451Y159679D01*
X179450Y159650D01*
X179479Y159540D01*
X179501Y159429D01*
X179515Y159403D01*
X179522Y159375D01*
X179580Y159277D01*
X179632Y159177D01*
X179652Y159155D01*
X179667Y159130D01*
X179750Y159053D01*
X179828Y158971D01*
X179853Y158956D01*
X179875Y158936D01*
X179975Y158884D01*
X180073Y158827D01*
X180102Y158820D01*
X180128Y158806D01*
X180205Y158793D01*
X180349Y158757D01*
X180411Y158759D01*
X180459Y158751D01*
X190381Y158751D01*
X190410Y158755D01*
X190439Y158752D01*
X190551Y158775D01*
X190663Y158791D01*
X190689Y158803D01*
X190718Y158808D01*
X190819Y158861D01*
X190922Y158907D01*
X190944Y158926D01*
X190971Y158939D01*
X191053Y159017D01*
X191139Y159090D01*
X191155Y159115D01*
X191177Y159135D01*
X191234Y159233D01*
X191297Y159327D01*
X191306Y159355D01*
X191320Y159380D01*
X191348Y159490D01*
X191382Y159598D01*
X191383Y159628D01*
X191390Y159656D01*
X191387Y159769D01*
X191390Y159882D01*
X191382Y159911D01*
X191381Y159940D01*
X191346Y160048D01*
X191318Y160157D01*
X191303Y160183D01*
X191294Y160211D01*
X191248Y160274D01*
X191173Y160402D01*
X191127Y160445D01*
X191099Y160484D01*
X188860Y162723D01*
X187197Y166737D01*
X187197Y171083D01*
X188860Y175097D01*
X191933Y178170D01*
X195947Y179833D01*
X200293Y179833D01*
X204307Y178170D01*
X207380Y175097D01*
X209043Y171083D01*
X209043Y166737D01*
X207380Y162723D01*
X204307Y159650D01*
X201444Y158464D01*
X201345Y158406D01*
X201243Y158353D01*
X201223Y158334D01*
X201199Y158320D01*
X201120Y158236D01*
X201037Y158157D01*
X201023Y158133D01*
X201004Y158113D01*
X200952Y158011D01*
X200893Y157912D01*
X200887Y157885D01*
X200874Y157860D01*
X200852Y157747D01*
X200823Y157636D01*
X200824Y157609D01*
X200819Y157581D01*
X200829Y157467D01*
X200832Y157352D01*
X200841Y157326D01*
X200843Y157298D01*
X200885Y157191D01*
X200920Y157082D01*
X200934Y157061D01*
X200945Y157033D01*
X201106Y156820D01*
X201115Y156808D01*
X222251Y135672D01*
X222251Y81949D01*
X222251Y81948D01*
X222251Y81946D01*
X222272Y81803D01*
X222291Y81668D01*
X222291Y81667D01*
X222291Y81665D01*
X222351Y81533D01*
X222407Y81409D01*
X222408Y81407D01*
X222409Y81406D01*
X222500Y81299D01*
X222590Y81192D01*
X222592Y81191D01*
X222593Y81189D01*
X222605Y81182D01*
X222827Y81034D01*
X222856Y81025D01*
X222877Y81012D01*
X223579Y80721D01*
X225501Y78799D01*
X226541Y76289D01*
X226541Y73571D01*
X225501Y71061D01*
X223579Y69139D01*
X221069Y68099D01*
X218351Y68099D01*
X215841Y69139D01*
X213919Y71061D01*
X212879Y73571D01*
X212879Y76289D01*
X213919Y78799D01*
X215841Y80721D01*
X216543Y81012D01*
X216544Y81012D01*
X216545Y81013D01*
X216662Y81082D01*
X216787Y81156D01*
X216789Y81157D01*
X216790Y81158D01*
X216883Y81257D01*
X216983Y81363D01*
X216983Y81364D01*
X216984Y81365D01*
X217048Y81490D01*
X217113Y81615D01*
X217113Y81617D01*
X217114Y81618D01*
X217116Y81633D01*
X217168Y81894D01*
X217165Y81925D01*
X217169Y81949D01*
X217169Y133147D01*
X217157Y133234D01*
X217154Y133321D01*
X217137Y133374D01*
X217129Y133429D01*
X217094Y133508D01*
X217067Y133592D01*
X217039Y133631D01*
X217013Y133688D01*
X216917Y133801D01*
X216872Y133865D01*
X197365Y153372D01*
X197295Y153424D01*
X197231Y153484D01*
X197182Y153510D01*
X197138Y153543D01*
X197056Y153574D01*
X196978Y153614D01*
X196931Y153622D01*
X196872Y153644D01*
X196724Y153656D01*
X196647Y153669D01*
X169107Y153669D01*
X168993Y153653D01*
X168879Y153643D01*
X168853Y153633D01*
X168825Y153629D01*
X168720Y153582D01*
X168613Y153541D01*
X168591Y153525D01*
X168566Y153513D01*
X168478Y153439D01*
X168387Y153370D01*
X168370Y153347D01*
X168349Y153330D01*
X168285Y153234D01*
X168216Y153142D01*
X168207Y153116D01*
X168191Y153093D01*
X168156Y152983D01*
X168116Y152876D01*
X168114Y152848D01*
X168105Y152822D01*
X168102Y152707D01*
X168093Y152593D01*
X168099Y152568D01*
X168098Y152538D01*
X168165Y152281D01*
X168169Y152265D01*
X169222Y149723D01*
X169222Y147005D01*
X168182Y144495D01*
X166261Y142573D01*
X164534Y141858D01*
X164435Y141800D01*
X164333Y141747D01*
X164313Y141728D01*
X164289Y141713D01*
X164210Y141630D01*
X164127Y141551D01*
X164113Y141527D01*
X164094Y141507D01*
X164041Y141405D01*
X163983Y141306D01*
X163976Y141279D01*
X163963Y141254D01*
X163941Y141141D01*
X163913Y141030D01*
X163914Y141002D01*
X163908Y140975D01*
X163918Y140861D01*
X163922Y140746D01*
X163931Y140719D01*
X163933Y140692D01*
X163974Y140585D01*
X164009Y140475D01*
X164024Y140455D01*
X164035Y140426D01*
X164196Y140214D01*
X164204Y140202D01*
X164206Y140200D01*
X164207Y140200D01*
X164895Y139512D01*
X164895Y134936D01*
X164902Y134888D01*
X164901Y134882D01*
X164903Y134877D01*
X164901Y134820D01*
X164923Y134738D01*
X164935Y134654D01*
X164958Y134601D01*
X164973Y134545D01*
X165016Y134472D01*
X165051Y134395D01*
X165089Y134350D01*
X165118Y134300D01*
X165180Y134242D01*
X165234Y134178D01*
X165283Y134146D01*
X165326Y134106D01*
X165401Y134067D01*
X165471Y134020D01*
X165527Y134003D01*
X165579Y133976D01*
X165647Y133965D01*
X165742Y133935D01*
X165842Y133932D01*
X165910Y133921D01*
X166830Y133921D01*
X166888Y133929D01*
X166946Y133927D01*
X167028Y133949D01*
X167112Y133961D01*
X167165Y133984D01*
X167221Y133999D01*
X167294Y134042D01*
X167371Y134077D01*
X167416Y134115D01*
X167466Y134144D01*
X167524Y134206D01*
X167588Y134260D01*
X167620Y134309D01*
X167660Y134352D01*
X167699Y134427D01*
X167746Y134497D01*
X167763Y134553D01*
X167790Y134605D01*
X167801Y134673D01*
X167831Y134768D01*
X167834Y134868D01*
X167845Y134936D01*
X167845Y139512D01*
X168738Y140405D01*
X183002Y140405D01*
X183895Y139512D01*
X183895Y134936D01*
X183902Y134888D01*
X183901Y134882D01*
X183903Y134877D01*
X183901Y134820D01*
X183923Y134738D01*
X183935Y134654D01*
X183958Y134601D01*
X183973Y134545D01*
X184016Y134472D01*
X184051Y134395D01*
X184089Y134350D01*
X184118Y134300D01*
X184180Y134242D01*
X184234Y134178D01*
X184283Y134146D01*
X184326Y134106D01*
X184401Y134067D01*
X184471Y134020D01*
X184527Y134003D01*
X184579Y133976D01*
X184647Y133965D01*
X184742Y133935D01*
X184842Y133932D01*
X184910Y133921D01*
X190620Y133921D01*
X190678Y133929D01*
X190736Y133927D01*
X190818Y133949D01*
X190902Y133961D01*
X190955Y133984D01*
X191011Y133999D01*
X191084Y134042D01*
X191161Y134077D01*
X191206Y134115D01*
X191256Y134144D01*
X191314Y134206D01*
X191378Y134260D01*
X191410Y134309D01*
X191450Y134352D01*
X191489Y134427D01*
X191536Y134497D01*
X191553Y134553D01*
X191580Y134605D01*
X191591Y134673D01*
X191603Y134709D01*
X192528Y135635D01*
X208792Y135635D01*
X209685Y134742D01*
X209685Y120478D01*
X208760Y119553D01*
X208705Y119545D01*
X208696Y119541D01*
X208686Y119540D01*
X208566Y119483D01*
X208445Y119429D01*
X208438Y119423D01*
X208429Y119419D01*
X208329Y119331D01*
X208228Y119246D01*
X208223Y119237D01*
X208216Y119231D01*
X208144Y119120D01*
X208071Y119009D01*
X208068Y118999D01*
X208063Y118991D01*
X208025Y118865D01*
X207985Y118738D01*
X207985Y118728D01*
X207982Y118719D01*
X207981Y118586D01*
X207978Y118454D01*
X207980Y118444D01*
X207980Y118434D01*
X208016Y118306D01*
X208049Y118179D01*
X208054Y118170D01*
X208057Y118161D01*
X208127Y118047D01*
X208195Y117934D01*
X208202Y117927D01*
X208207Y117919D01*
X208306Y117830D01*
X208402Y117740D01*
X208411Y117735D01*
X208418Y117729D01*
X208470Y117705D01*
X208655Y117610D01*
X208691Y117604D01*
X208723Y117589D01*
X209141Y117478D01*
X209720Y117143D01*
X210193Y116670D01*
X210528Y116091D01*
X210701Y115444D01*
X210701Y110641D01*
X201676Y110641D01*
X201618Y110633D01*
X201560Y110634D01*
X201478Y110613D01*
X201395Y110601D01*
X201341Y110577D01*
X201285Y110563D01*
X201212Y110520D01*
X201135Y110485D01*
X201091Y110447D01*
X201040Y110417D01*
X200983Y110356D01*
X200918Y110301D01*
X200886Y110253D01*
X200846Y110210D01*
X200807Y110135D01*
X200761Y110065D01*
X200743Y110009D01*
X200716Y109957D01*
X200705Y109889D01*
X200675Y109794D01*
X200672Y109694D01*
X200661Y109626D01*
X200661Y108609D01*
X200659Y108609D01*
X200659Y109626D01*
X200651Y109682D01*
X200652Y109734D01*
X200652Y109742D01*
X200631Y109824D01*
X200619Y109907D01*
X200595Y109961D01*
X200581Y110017D01*
X200538Y110090D01*
X200503Y110167D01*
X200465Y110211D01*
X200435Y110262D01*
X200374Y110319D01*
X200319Y110384D01*
X200271Y110416D01*
X200228Y110456D01*
X200153Y110495D01*
X200083Y110541D01*
X200027Y110559D01*
X199975Y110586D01*
X199907Y110597D01*
X199812Y110627D01*
X199712Y110630D01*
X199644Y110641D01*
X190619Y110641D01*
X190619Y115444D01*
X190792Y116091D01*
X191127Y116670D01*
X191600Y117143D01*
X192179Y117478D01*
X192597Y117589D01*
X192606Y117593D01*
X192615Y117595D01*
X192736Y117649D01*
X192858Y117701D01*
X192866Y117707D01*
X192875Y117711D01*
X192976Y117796D01*
X193079Y117880D01*
X193084Y117888D01*
X193092Y117895D01*
X193165Y118005D01*
X193241Y118114D01*
X193244Y118123D01*
X193249Y118131D01*
X193289Y118258D01*
X193332Y118383D01*
X193332Y118393D01*
X193335Y118402D01*
X193338Y118535D01*
X193344Y118667D01*
X193342Y118677D01*
X193342Y118686D01*
X193309Y118815D01*
X193278Y118943D01*
X193273Y118952D01*
X193271Y118961D01*
X193203Y119075D01*
X193137Y119191D01*
X193130Y119197D01*
X193125Y119206D01*
X193028Y119297D01*
X192934Y119389D01*
X192925Y119394D01*
X192918Y119400D01*
X192799Y119461D01*
X192683Y119523D01*
X192674Y119525D01*
X192665Y119530D01*
X192609Y119539D01*
X192565Y119549D01*
X191635Y120478D01*
X191635Y127824D01*
X191627Y127882D01*
X191629Y127940D01*
X191607Y128022D01*
X191595Y128106D01*
X191572Y128159D01*
X191557Y128215D01*
X191514Y128288D01*
X191479Y128365D01*
X191441Y128410D01*
X191412Y128460D01*
X191350Y128518D01*
X191296Y128582D01*
X191247Y128614D01*
X191204Y128654D01*
X191129Y128693D01*
X191059Y128740D01*
X191003Y128757D01*
X190951Y128784D01*
X190883Y128795D01*
X190788Y128825D01*
X190688Y128828D01*
X190620Y128839D01*
X184910Y128839D01*
X184852Y128831D01*
X184794Y128833D01*
X184712Y128811D01*
X184628Y128799D01*
X184575Y128776D01*
X184519Y128761D01*
X184446Y128718D01*
X184369Y128683D01*
X184324Y128645D01*
X184274Y128616D01*
X184216Y128554D01*
X184152Y128500D01*
X184120Y128451D01*
X184080Y128408D01*
X184041Y128333D01*
X183994Y128263D01*
X183977Y128207D01*
X183950Y128155D01*
X183939Y128087D01*
X183909Y127992D01*
X183906Y127892D01*
X183895Y127824D01*
X183895Y123248D01*
X183002Y122355D01*
X168738Y122355D01*
X167845Y123248D01*
X167845Y127824D01*
X167837Y127882D01*
X167839Y127940D01*
X167817Y128022D01*
X167805Y128106D01*
X167782Y128159D01*
X167767Y128215D01*
X167724Y128288D01*
X167689Y128365D01*
X167651Y128410D01*
X167622Y128460D01*
X167560Y128518D01*
X167506Y128582D01*
X167457Y128614D01*
X167414Y128654D01*
X167339Y128693D01*
X167269Y128740D01*
X167213Y128757D01*
X167161Y128784D01*
X167093Y128795D01*
X166998Y128825D01*
X166898Y128828D01*
X166830Y128839D01*
X165910Y128839D01*
X165852Y128831D01*
X165794Y128833D01*
X165712Y128811D01*
X165628Y128799D01*
X165575Y128776D01*
X165519Y128761D01*
X165446Y128718D01*
X165369Y128683D01*
X165324Y128645D01*
X165274Y128616D01*
X165216Y128554D01*
X165152Y128500D01*
X165120Y128451D01*
X165080Y128408D01*
X165041Y128333D01*
X164994Y128263D01*
X164977Y128207D01*
X164950Y128155D01*
X164939Y128087D01*
X164909Y127992D01*
X164906Y127892D01*
X164895Y127824D01*
X164895Y123248D01*
X164002Y122355D01*
X149738Y122355D01*
X148845Y123248D01*
X148845Y125932D01*
X148841Y125961D01*
X148844Y125990D01*
X148821Y126101D01*
X148805Y126213D01*
X148793Y126240D01*
X148788Y126269D01*
X148736Y126369D01*
X148689Y126473D01*
X148670Y126495D01*
X148657Y126521D01*
X148579Y126603D01*
X148506Y126690D01*
X148481Y126706D01*
X148461Y126727D01*
X148363Y126785D01*
X148269Y126847D01*
X148241Y126856D01*
X148216Y126871D01*
X148106Y126899D01*
X147998Y126933D01*
X147968Y126934D01*
X147940Y126941D01*
X147827Y126938D01*
X147714Y126940D01*
X147685Y126933D01*
X147656Y126932D01*
X147548Y126897D01*
X147439Y126869D01*
X147413Y126854D01*
X147385Y126845D01*
X147322Y126799D01*
X147194Y126723D01*
X147151Y126678D01*
X147112Y126650D01*
X131362Y110900D01*
X129428Y108965D01*
X119606Y108965D01*
X119548Y108957D01*
X119490Y108959D01*
X119408Y108937D01*
X119324Y108925D01*
X119271Y108902D01*
X119215Y108887D01*
X119142Y108844D01*
X119065Y108809D01*
X119020Y108771D01*
X118970Y108742D01*
X118912Y108680D01*
X118848Y108626D01*
X118816Y108577D01*
X118776Y108534D01*
X118737Y108459D01*
X118690Y108389D01*
X118673Y108333D01*
X118646Y108281D01*
X118635Y108213D01*
X118605Y108118D01*
X118602Y108018D01*
X118591Y107950D01*
X118591Y107861D01*
X117551Y105351D01*
X115629Y103429D01*
X114927Y103138D01*
X114926Y103138D01*
X114925Y103137D01*
X114808Y103068D01*
X114683Y102994D01*
X114681Y102993D01*
X114680Y102992D01*
X114584Y102890D01*
X114487Y102787D01*
X114487Y102786D01*
X114486Y102785D01*
X114421Y102658D01*
X114357Y102535D01*
X114357Y102533D01*
X114356Y102532D01*
X114354Y102517D01*
X114302Y102256D01*
X114305Y102225D01*
X114301Y102201D01*
X114301Y92027D01*
X114301Y92026D01*
X114301Y92024D01*
X114321Y91884D01*
X114341Y91746D01*
X114341Y91745D01*
X114341Y91743D01*
X114398Y91617D01*
X114457Y91487D01*
X114458Y91485D01*
X114459Y91484D01*
X114550Y91377D01*
X114640Y91270D01*
X114642Y91269D01*
X114643Y91267D01*
X114656Y91259D01*
X114877Y91112D01*
X114906Y91103D01*
X114927Y91090D01*
X115431Y90881D01*
X117166Y89146D01*
X117190Y89128D01*
X117209Y89106D01*
X117303Y89043D01*
X117393Y88975D01*
X117421Y88965D01*
X117445Y88948D01*
X117553Y88914D01*
X117659Y88874D01*
X117688Y88871D01*
X117716Y88863D01*
X117830Y88860D01*
X117942Y88850D01*
X117971Y88856D01*
X118000Y88855D01*
X118110Y88884D01*
X118221Y88906D01*
X118247Y88920D01*
X118275Y88927D01*
X118373Y88985D01*
X118473Y89037D01*
X118495Y89057D01*
X118520Y89072D01*
X118597Y89155D01*
X118679Y89233D01*
X118694Y89258D01*
X118714Y89280D01*
X118766Y89381D01*
X118823Y89478D01*
X118830Y89507D01*
X118844Y89533D01*
X118857Y89610D01*
X118893Y89754D01*
X118891Y89816D01*
X118899Y89864D01*
X118899Y91529D01*
X119939Y94039D01*
X121861Y95961D01*
X124371Y97001D01*
X127089Y97001D01*
X127791Y96710D01*
X127792Y96710D01*
X127793Y96709D01*
X127927Y96675D01*
X128066Y96639D01*
X128067Y96639D01*
X128069Y96639D01*
X128210Y96643D01*
X128350Y96647D01*
X128352Y96648D01*
X128353Y96648D01*
X128486Y96691D01*
X128621Y96734D01*
X128622Y96735D01*
X128624Y96735D01*
X128636Y96744D01*
X128857Y96892D01*
X128877Y96916D01*
X128897Y96930D01*
X141888Y109921D01*
X147830Y109921D01*
X147888Y109929D01*
X147946Y109927D01*
X148028Y109949D01*
X148112Y109961D01*
X148165Y109984D01*
X148221Y109999D01*
X148294Y110042D01*
X148371Y110077D01*
X148416Y110115D01*
X148466Y110144D01*
X148524Y110206D01*
X148588Y110260D01*
X148620Y110309D01*
X148660Y110352D01*
X148699Y110427D01*
X148746Y110497D01*
X148763Y110553D01*
X148790Y110605D01*
X148801Y110673D01*
X148831Y110768D01*
X148834Y110868D01*
X148845Y110936D01*
X148845Y115512D01*
X149738Y116405D01*
X164002Y116405D01*
X164927Y115480D01*
X164935Y115425D01*
X164939Y115416D01*
X164940Y115406D01*
X164962Y115359D01*
X164973Y115317D01*
X165012Y115252D01*
X165051Y115165D01*
X165057Y115158D01*
X165061Y115149D01*
X165098Y115107D01*
X165118Y115073D01*
X165170Y115025D01*
X165234Y114948D01*
X165243Y114943D01*
X165249Y114936D01*
X165298Y114904D01*
X165326Y114878D01*
X165385Y114848D01*
X165471Y114791D01*
X165481Y114788D01*
X165489Y114783D01*
X165547Y114765D01*
X165579Y114749D01*
X165630Y114740D01*
X165742Y114705D01*
X165752Y114705D01*
X165761Y114702D01*
X165863Y114701D01*
X165910Y114693D01*
X165911Y114693D01*
X165954Y114700D01*
X166026Y114698D01*
X166036Y114700D01*
X166046Y114700D01*
X166135Y114725D01*
X166192Y114733D01*
X166233Y114752D01*
X166301Y114769D01*
X166310Y114774D01*
X166319Y114777D01*
X166395Y114824D01*
X166452Y114850D01*
X166488Y114880D01*
X166546Y114915D01*
X166553Y114922D01*
X166561Y114927D01*
X166618Y114991D01*
X166669Y115033D01*
X166697Y115076D01*
X166740Y115122D01*
X166745Y115131D01*
X166751Y115138D01*
X166775Y115190D01*
X166782Y115203D01*
X166826Y115270D01*
X166843Y115323D01*
X166870Y115375D01*
X166876Y115411D01*
X166891Y115443D01*
X167002Y115861D01*
X167337Y116440D01*
X167810Y116913D01*
X168389Y117248D01*
X169036Y117421D01*
X173839Y117421D01*
X173839Y108396D01*
X173847Y108338D01*
X173845Y108280D01*
X173867Y108198D01*
X173879Y108115D01*
X173903Y108061D01*
X173917Y108005D01*
X173960Y107932D01*
X173995Y107855D01*
X174033Y107811D01*
X174063Y107760D01*
X174124Y107703D01*
X174179Y107638D01*
X174227Y107606D01*
X174270Y107566D01*
X174345Y107527D01*
X174415Y107481D01*
X174471Y107463D01*
X174523Y107436D01*
X174591Y107425D01*
X174686Y107395D01*
X174786Y107392D01*
X174854Y107381D01*
X175871Y107381D01*
X175871Y107379D01*
X174854Y107379D01*
X174796Y107371D01*
X174738Y107372D01*
X174656Y107351D01*
X174573Y107339D01*
X174519Y107315D01*
X174463Y107301D01*
X174390Y107258D01*
X174313Y107223D01*
X174268Y107185D01*
X174218Y107155D01*
X174160Y107094D01*
X174096Y107039D01*
X174064Y106991D01*
X174024Y106948D01*
X173985Y106873D01*
X173939Y106803D01*
X173921Y106747D01*
X173894Y106695D01*
X173883Y106627D01*
X173853Y106532D01*
X173850Y106432D01*
X173839Y106364D01*
X173839Y97339D01*
X169036Y97339D01*
X168389Y97512D01*
X167810Y97847D01*
X167337Y98320D01*
X167002Y98899D01*
X166891Y99317D01*
X166887Y99326D01*
X166885Y99335D01*
X166831Y99456D01*
X166779Y99578D01*
X166773Y99586D01*
X166769Y99595D01*
X166684Y99696D01*
X166600Y99799D01*
X166592Y99804D01*
X166585Y99812D01*
X166475Y99885D01*
X166366Y99961D01*
X166357Y99964D01*
X166349Y99969D01*
X166222Y100009D01*
X166097Y100052D01*
X166087Y100052D01*
X166078Y100055D01*
X165945Y100058D01*
X165813Y100064D01*
X165803Y100062D01*
X165794Y100062D01*
X165665Y100029D01*
X165537Y99998D01*
X165528Y99993D01*
X165519Y99991D01*
X165405Y99923D01*
X165289Y99857D01*
X165283Y99850D01*
X165274Y99845D01*
X165183Y99748D01*
X165091Y99654D01*
X165086Y99645D01*
X165080Y99638D01*
X165019Y99519D01*
X164957Y99403D01*
X164955Y99394D01*
X164950Y99385D01*
X164941Y99329D01*
X164931Y99285D01*
X164002Y98355D01*
X149738Y98355D01*
X148845Y99248D01*
X148845Y103824D01*
X148837Y103882D01*
X148839Y103940D01*
X148817Y104022D01*
X148805Y104106D01*
X148782Y104159D01*
X148767Y104215D01*
X148724Y104288D01*
X148689Y104365D01*
X148651Y104410D01*
X148622Y104460D01*
X148560Y104518D01*
X148506Y104582D01*
X148457Y104614D01*
X148414Y104654D01*
X148339Y104693D01*
X148269Y104740D01*
X148213Y104757D01*
X148161Y104784D01*
X148093Y104795D01*
X147998Y104825D01*
X147898Y104828D01*
X147830Y104839D01*
X144413Y104839D01*
X144326Y104827D01*
X144239Y104824D01*
X144186Y104807D01*
X144131Y104799D01*
X144052Y104764D01*
X143968Y104737D01*
X143929Y104709D01*
X143872Y104683D01*
X143759Y104587D01*
X143695Y104542D01*
X132490Y93337D01*
X132489Y93336D01*
X132488Y93335D01*
X132403Y93221D01*
X132319Y93110D01*
X132319Y93108D01*
X132318Y93107D01*
X132268Y92975D01*
X132218Y92844D01*
X132218Y92843D01*
X132217Y92841D01*
X132206Y92697D01*
X132194Y92561D01*
X132195Y92559D01*
X132195Y92558D01*
X132198Y92542D01*
X132250Y92282D01*
X132264Y92255D01*
X132270Y92231D01*
X132561Y91529D01*
X132561Y88811D01*
X131521Y86301D01*
X129599Y84379D01*
X127089Y83339D01*
X124371Y83339D01*
X121861Y84379D01*
X120126Y86114D01*
X120102Y86132D01*
X120083Y86154D01*
X119989Y86217D01*
X119899Y86285D01*
X119871Y86295D01*
X119847Y86312D01*
X119739Y86346D01*
X119633Y86386D01*
X119604Y86389D01*
X119576Y86397D01*
X119462Y86400D01*
X119350Y86410D01*
X119321Y86404D01*
X119292Y86405D01*
X119182Y86376D01*
X119071Y86354D01*
X119045Y86340D01*
X119017Y86333D01*
X118919Y86275D01*
X118819Y86223D01*
X118797Y86203D01*
X118772Y86188D01*
X118695Y86105D01*
X118613Y86027D01*
X118598Y86002D01*
X118578Y85980D01*
X118526Y85879D01*
X118469Y85782D01*
X118462Y85753D01*
X118448Y85727D01*
X118435Y85650D01*
X118399Y85506D01*
X118401Y85444D01*
X118393Y85396D01*
X118393Y83731D01*
X117353Y81221D01*
X115431Y79299D01*
X112921Y78259D01*
X110203Y78259D01*
X107693Y79299D01*
X105754Y81238D01*
X105730Y81256D01*
X105711Y81278D01*
X105617Y81341D01*
X105527Y81409D01*
X105499Y81419D01*
X105475Y81436D01*
X105367Y81470D01*
X105261Y81510D01*
X105232Y81513D01*
X105204Y81521D01*
X105090Y81524D01*
X105034Y81529D01*
X105091Y81614D01*
X105159Y81706D01*
X105169Y81732D01*
X105185Y81755D01*
X105219Y81865D01*
X105260Y81972D01*
X105262Y82000D01*
X105270Y82026D01*
X105273Y82141D01*
X105283Y82255D01*
X105277Y82280D01*
X105278Y82310D01*
X105211Y82567D01*
X105207Y82583D01*
X104731Y83731D01*
X104731Y84226D01*
X104723Y84284D01*
X104725Y84342D01*
X104703Y84424D01*
X104691Y84507D01*
X104668Y84561D01*
X104653Y84617D01*
X104610Y84690D01*
X104575Y84767D01*
X104537Y84811D01*
X104508Y84862D01*
X104446Y84919D01*
X104392Y84984D01*
X104343Y85016D01*
X104300Y85056D01*
X104225Y85095D01*
X104155Y85141D01*
X104099Y85159D01*
X104047Y85186D01*
X103979Y85197D01*
X103884Y85227D01*
X103784Y85230D01*
X103716Y85241D01*
X94996Y85241D01*
X94938Y85233D01*
X94880Y85234D01*
X94798Y85213D01*
X94715Y85201D01*
X94661Y85177D01*
X94605Y85163D01*
X94532Y85120D01*
X94455Y85085D01*
X94411Y85047D01*
X94360Y85017D01*
X94303Y84956D01*
X94238Y84901D01*
X94206Y84853D01*
X94166Y84810D01*
X94127Y84735D01*
X94081Y84665D01*
X94063Y84609D01*
X94036Y84557D01*
X94025Y84489D01*
X93995Y84394D01*
X93992Y84294D01*
X93981Y84226D01*
X93981Y83209D01*
X93979Y83209D01*
X93979Y84226D01*
X93971Y84284D01*
X93972Y84342D01*
X93951Y84424D01*
X93939Y84507D01*
X93915Y84561D01*
X93901Y84617D01*
X93858Y84690D01*
X93823Y84767D01*
X93785Y84811D01*
X93755Y84862D01*
X93694Y84919D01*
X93639Y84984D01*
X93591Y85016D01*
X93548Y85056D01*
X93473Y85095D01*
X93403Y85141D01*
X93347Y85159D01*
X93295Y85186D01*
X93227Y85197D01*
X93132Y85227D01*
X93032Y85230D01*
X92964Y85241D01*
X83939Y85241D01*
X83939Y90044D01*
X84112Y90691D01*
X84447Y91270D01*
X84920Y91743D01*
X85499Y92078D01*
X85916Y92189D01*
X85926Y92193D01*
X85935Y92195D01*
X86056Y92249D01*
X86178Y92301D01*
X86186Y92307D01*
X86195Y92311D01*
X86295Y92396D01*
X86399Y92480D01*
X86404Y92488D01*
X86412Y92495D01*
X86485Y92605D01*
X86561Y92714D01*
X86564Y92723D01*
X86569Y92731D01*
X86609Y92858D01*
X86652Y92983D01*
X86652Y92993D01*
X86655Y93002D01*
X86658Y93135D01*
X86664Y93267D01*
X86662Y93277D01*
X86662Y93286D01*
X86629Y93413D01*
X86598Y93543D01*
X86593Y93552D01*
X86590Y93561D01*
X86523Y93675D01*
X86457Y93791D01*
X86450Y93797D01*
X86445Y93806D01*
X86349Y93896D01*
X86254Y93989D01*
X86245Y93994D01*
X86238Y94000D01*
X86120Y94061D01*
X86003Y94123D01*
X85994Y94125D01*
X85985Y94130D01*
X85929Y94139D01*
X85885Y94148D01*
X84955Y95078D01*
X84955Y99088D01*
X84947Y99146D01*
X84949Y99204D01*
X84927Y99286D01*
X84915Y99370D01*
X84892Y99423D01*
X84877Y99479D01*
X84834Y99552D01*
X84799Y99629D01*
X84761Y99674D01*
X84732Y99724D01*
X84670Y99782D01*
X84616Y99846D01*
X84567Y99878D01*
X84524Y99918D01*
X84449Y99957D01*
X84379Y100004D01*
X84323Y100021D01*
X84271Y100048D01*
X84203Y100059D01*
X84108Y100089D01*
X84008Y100092D01*
X83940Y100103D01*
X78573Y100103D01*
X78528Y100156D01*
X78483Y100220D01*
X76469Y102234D01*
X76468Y102235D01*
X76467Y102236D01*
X76391Y102293D01*
X76356Y102326D01*
X76328Y102340D01*
X76242Y102405D01*
X76240Y102405D01*
X76239Y102406D01*
X76110Y102455D01*
X75976Y102506D01*
X75974Y102506D01*
X75973Y102507D01*
X75829Y102518D01*
X75693Y102530D01*
X75691Y102529D01*
X75690Y102529D01*
X75674Y102526D01*
X75414Y102474D01*
X75387Y102460D01*
X75362Y102454D01*
X74661Y102163D01*
X71943Y102163D01*
X69433Y103203D01*
X67511Y105125D01*
X66471Y107635D01*
X66471Y110353D01*
X67511Y112863D01*
X68484Y113836D01*
X68502Y113860D01*
X68524Y113879D01*
X68587Y113973D01*
X68655Y114063D01*
X68665Y114091D01*
X68682Y114115D01*
X68716Y114223D01*
X68756Y114329D01*
X68759Y114358D01*
X68767Y114386D01*
X68770Y114500D01*
X68780Y114612D01*
X68774Y114641D01*
X68775Y114670D01*
X68746Y114780D01*
X68724Y114891D01*
X68710Y114917D01*
X68703Y114945D01*
X68645Y115043D01*
X68593Y115143D01*
X68573Y115165D01*
X68558Y115190D01*
X68475Y115267D01*
X68397Y115349D01*
X68372Y115364D01*
X68350Y115384D01*
X68249Y115436D01*
X68152Y115493D01*
X68123Y115500D01*
X68097Y115514D01*
X68020Y115527D01*
X67876Y115563D01*
X67814Y115561D01*
X67766Y115569D01*
X43358Y115569D01*
X43271Y115557D01*
X43184Y115554D01*
X43131Y115537D01*
X43076Y115529D01*
X42996Y115494D01*
X42913Y115467D01*
X42874Y115439D01*
X42817Y115413D01*
X42704Y115317D01*
X42640Y115272D01*
X39668Y112300D01*
X39616Y112230D01*
X39556Y112166D01*
X39530Y112117D01*
X39497Y112073D01*
X39466Y111991D01*
X39426Y111913D01*
X39418Y111866D01*
X39396Y111807D01*
X39384Y111660D01*
X39371Y111582D01*
X39371Y86578D01*
X27672Y74879D01*
X27671Y74878D01*
X27670Y74877D01*
X27582Y74759D01*
X27501Y74652D01*
X27501Y74650D01*
X27500Y74649D01*
X27450Y74517D01*
X27400Y74386D01*
X27400Y74384D01*
X27399Y74383D01*
X27388Y74238D01*
X27376Y74103D01*
X27377Y74101D01*
X27376Y74100D01*
X27380Y74084D01*
X27432Y73824D01*
X27446Y73797D01*
X27452Y73772D01*
X28703Y70753D01*
X28703Y66407D01*
X27040Y62393D01*
X23967Y59320D01*
X19953Y57657D01*
X15607Y57657D01*
G37*
%LPD*%
%LPC*%
G36*
X322947Y5587D02*
X322947Y5587D01*
X318933Y7250D01*
X315860Y10323D01*
X314197Y14337D01*
X314197Y18683D01*
X315860Y22697D01*
X318933Y25770D01*
X322947Y27433D01*
X327293Y27433D01*
X328599Y26891D01*
X328711Y26863D01*
X328820Y26828D01*
X328848Y26827D01*
X328875Y26820D01*
X328989Y26824D01*
X329104Y26821D01*
X329131Y26828D01*
X329159Y26829D01*
X329268Y26864D01*
X329379Y26893D01*
X329403Y26907D01*
X329430Y26915D01*
X329525Y26979D01*
X329624Y27038D01*
X329643Y27058D01*
X329666Y27074D01*
X329740Y27161D01*
X329818Y27245D01*
X329831Y27270D01*
X329849Y27291D01*
X329895Y27396D01*
X329948Y27498D01*
X329952Y27523D01*
X329964Y27551D01*
X330001Y27815D01*
X330003Y27829D01*
X330003Y37736D01*
X329991Y37823D01*
X329988Y37910D01*
X329971Y37963D01*
X329963Y38018D01*
X329928Y38097D01*
X329901Y38181D01*
X329873Y38220D01*
X329847Y38277D01*
X329751Y38390D01*
X329706Y38454D01*
X327754Y40406D01*
X327684Y40458D01*
X327620Y40518D01*
X327571Y40544D01*
X327527Y40577D01*
X327445Y40608D01*
X327367Y40648D01*
X327320Y40656D01*
X327261Y40678D01*
X327113Y40690D01*
X327036Y40703D01*
X316057Y40703D01*
X313676Y43084D01*
X298452Y58308D01*
X298382Y58360D01*
X298318Y58420D01*
X298269Y58446D01*
X298225Y58479D01*
X298143Y58510D01*
X298065Y58550D01*
X298018Y58558D01*
X297959Y58580D01*
X297812Y58592D01*
X297734Y58605D01*
X291446Y58605D01*
X291359Y58593D01*
X291272Y58590D01*
X291219Y58573D01*
X291164Y58565D01*
X291084Y58530D01*
X291001Y58503D01*
X290962Y58475D01*
X290905Y58449D01*
X290792Y58353D01*
X290728Y58308D01*
X281332Y48912D01*
X281280Y48842D01*
X281220Y48778D01*
X281194Y48729D01*
X281161Y48685D01*
X281130Y48603D01*
X281090Y48525D01*
X281082Y48478D01*
X281060Y48419D01*
X281048Y48272D01*
X281035Y48194D01*
X281035Y34488D01*
X280142Y33595D01*
X260878Y33595D01*
X259985Y34488D01*
X259985Y51752D01*
X260878Y52645D01*
X274584Y52645D01*
X274671Y52657D01*
X274758Y52660D01*
X274811Y52677D01*
X274866Y52685D01*
X274946Y52720D01*
X275029Y52747D01*
X275068Y52775D01*
X275125Y52801D01*
X275238Y52897D01*
X275302Y52942D01*
X281393Y59033D01*
X281405Y59048D01*
X281420Y59061D01*
X281490Y59162D01*
X281564Y59260D01*
X281571Y59278D01*
X281582Y59294D01*
X281621Y59411D01*
X281665Y59526D01*
X281667Y59545D01*
X281673Y59564D01*
X281678Y59686D01*
X281689Y59809D01*
X281685Y59828D01*
X281686Y59848D01*
X281657Y59967D01*
X281633Y60088D01*
X281624Y60105D01*
X281619Y60124D01*
X281558Y60231D01*
X281502Y60340D01*
X281488Y60354D01*
X281479Y60371D01*
X281391Y60457D01*
X281306Y60546D01*
X281289Y60556D01*
X281275Y60570D01*
X281167Y60628D01*
X281061Y60690D01*
X281042Y60695D01*
X281024Y60704D01*
X280904Y60730D01*
X280785Y60760D01*
X280766Y60759D01*
X280746Y60763D01*
X280673Y60756D01*
X280501Y60751D01*
X280452Y60735D01*
X280412Y60731D01*
X279844Y60579D01*
X272541Y60579D01*
X272541Y69089D01*
X282051Y69089D01*
X282051Y62786D01*
X281899Y62218D01*
X281896Y62198D01*
X281889Y62180D01*
X281879Y62058D01*
X281864Y61936D01*
X281867Y61916D01*
X281866Y61897D01*
X281890Y61776D01*
X281909Y61655D01*
X281918Y61637D01*
X281922Y61618D01*
X281978Y61509D01*
X282031Y61398D01*
X282044Y61383D01*
X282053Y61366D01*
X282137Y61277D01*
X282218Y61184D01*
X282235Y61174D01*
X282248Y61160D01*
X282355Y61097D01*
X282458Y61031D01*
X282477Y61026D01*
X282494Y61016D01*
X282612Y60986D01*
X282731Y60951D01*
X282750Y60951D01*
X282769Y60946D01*
X282892Y60950D01*
X283015Y60949D01*
X283034Y60954D01*
X283053Y60955D01*
X283170Y60993D01*
X283289Y61026D01*
X283305Y61036D01*
X283324Y61042D01*
X283384Y61085D01*
X283530Y61176D01*
X283564Y61214D01*
X283597Y61237D01*
X285838Y63478D01*
X285890Y63548D01*
X285950Y63612D01*
X285976Y63661D01*
X286009Y63705D01*
X286040Y63787D01*
X286080Y63865D01*
X286088Y63912D01*
X286110Y63971D01*
X286122Y64118D01*
X286135Y64196D01*
X286135Y69762D01*
X287028Y70655D01*
X307292Y70655D01*
X308185Y69762D01*
X308185Y59197D01*
X308180Y59177D01*
X308182Y59093D01*
X308175Y59009D01*
X308187Y58951D01*
X308189Y58893D01*
X308215Y58813D01*
X308231Y58730D01*
X308258Y58678D01*
X308276Y58622D01*
X308316Y58566D01*
X308362Y58478D01*
X308431Y58405D01*
X308471Y58349D01*
X318706Y48114D01*
X318776Y48062D01*
X318840Y48002D01*
X318889Y47976D01*
X318933Y47943D01*
X319015Y47912D01*
X319093Y47872D01*
X319140Y47864D01*
X319199Y47842D01*
X319346Y47830D01*
X319424Y47817D01*
X320363Y47817D01*
X320448Y47829D01*
X320534Y47831D01*
X320588Y47849D01*
X320644Y47857D01*
X320723Y47892D01*
X320805Y47918D01*
X320852Y47950D01*
X320904Y47973D01*
X320969Y48028D01*
X321041Y48076D01*
X321077Y48120D01*
X321121Y48156D01*
X321168Y48228D01*
X321224Y48294D01*
X321247Y48346D01*
X321278Y48393D01*
X321304Y48475D01*
X321339Y48554D01*
X321347Y48610D01*
X321364Y48664D01*
X321366Y48750D01*
X321378Y48835D01*
X321370Y48891D01*
X321371Y48948D01*
X321350Y49031D01*
X321337Y49117D01*
X321314Y49168D01*
X321300Y49223D01*
X321256Y49297D01*
X321220Y49376D01*
X321183Y49419D01*
X321154Y49468D01*
X321092Y49527D01*
X321036Y49592D01*
X320994Y49618D01*
X320947Y49662D01*
X320818Y49728D01*
X320751Y49770D01*
X319981Y50089D01*
X318059Y52011D01*
X317019Y54521D01*
X317019Y57239D01*
X318059Y59749D01*
X319996Y61686D01*
X320048Y61756D01*
X320108Y61820D01*
X320134Y61869D01*
X320167Y61913D01*
X320198Y61995D01*
X320238Y62073D01*
X320246Y62120D01*
X320268Y62179D01*
X320280Y62327D01*
X320293Y62404D01*
X320293Y93156D01*
X320281Y93243D01*
X320278Y93330D01*
X320261Y93383D01*
X320253Y93438D01*
X320218Y93518D01*
X320191Y93601D01*
X320163Y93640D01*
X320137Y93697D01*
X320041Y93810D01*
X319996Y93874D01*
X308996Y104874D01*
X308949Y104909D01*
X308909Y104952D01*
X308836Y104994D01*
X308769Y105045D01*
X308714Y105066D01*
X308664Y105095D01*
X308582Y105116D01*
X308503Y105146D01*
X308445Y105151D01*
X308388Y105165D01*
X308304Y105163D01*
X308220Y105170D01*
X308163Y105158D01*
X308104Y105156D01*
X308024Y105130D01*
X307941Y105114D01*
X307889Y105087D01*
X307834Y105069D01*
X307777Y105029D01*
X307689Y104983D01*
X307616Y104914D01*
X307560Y104874D01*
X307292Y104605D01*
X287028Y104605D01*
X286135Y105498D01*
X286135Y115762D01*
X287028Y116655D01*
X292608Y116655D01*
X292666Y116663D01*
X292724Y116661D01*
X292806Y116683D01*
X292890Y116695D01*
X292943Y116718D01*
X292999Y116733D01*
X293072Y116776D01*
X293149Y116811D01*
X293194Y116849D01*
X293244Y116878D01*
X293302Y116940D01*
X293366Y116994D01*
X293398Y117043D01*
X293438Y117086D01*
X293477Y117161D01*
X293524Y117231D01*
X293541Y117287D01*
X293568Y117339D01*
X293579Y117407D01*
X293609Y117502D01*
X293612Y117602D01*
X293623Y117670D01*
X293623Y122566D01*
X293611Y122653D01*
X293608Y122740D01*
X293591Y122793D01*
X293583Y122848D01*
X293548Y122928D01*
X293521Y123011D01*
X293493Y123050D01*
X293467Y123107D01*
X293371Y123220D01*
X293326Y123284D01*
X282768Y133842D01*
X282744Y133860D01*
X282725Y133882D01*
X282631Y133945D01*
X282541Y134013D01*
X282513Y134023D01*
X282489Y134040D01*
X282381Y134074D01*
X282275Y134114D01*
X282246Y134117D01*
X282218Y134126D01*
X282104Y134128D01*
X281992Y134138D01*
X281963Y134132D01*
X281934Y134133D01*
X281824Y134104D01*
X281713Y134082D01*
X281687Y134068D01*
X281659Y134061D01*
X281561Y134003D01*
X281461Y133951D01*
X281439Y133931D01*
X281414Y133916D01*
X281337Y133833D01*
X281255Y133755D01*
X281240Y133730D01*
X281220Y133708D01*
X281168Y133608D01*
X281111Y133510D01*
X281104Y133481D01*
X281090Y133455D01*
X281077Y133378D01*
X281041Y133234D01*
X281043Y133172D01*
X281035Y133124D01*
X281035Y129858D01*
X280142Y128965D01*
X260878Y128965D01*
X259985Y129858D01*
X259985Y147122D01*
X260878Y148015D01*
X280142Y148015D01*
X281035Y147122D01*
X281035Y142342D01*
X281043Y142284D01*
X281041Y142226D01*
X281063Y142144D01*
X281075Y142060D01*
X281098Y142007D01*
X281113Y141951D01*
X281156Y141878D01*
X281191Y141801D01*
X281229Y141756D01*
X281258Y141706D01*
X281320Y141648D01*
X281374Y141584D01*
X281423Y141552D01*
X281466Y141512D01*
X281541Y141473D01*
X281611Y141426D01*
X281667Y141409D01*
X281719Y141382D01*
X281787Y141371D01*
X281882Y141341D01*
X281982Y141338D01*
X282050Y141327D01*
X285343Y141327D01*
X300737Y125933D01*
X300737Y117670D01*
X300745Y117612D01*
X300743Y117554D01*
X300765Y117472D01*
X300777Y117388D01*
X300800Y117335D01*
X300815Y117279D01*
X300858Y117206D01*
X300893Y117129D01*
X300931Y117084D01*
X300960Y117034D01*
X301022Y116976D01*
X301076Y116912D01*
X301125Y116880D01*
X301168Y116840D01*
X301243Y116801D01*
X301313Y116754D01*
X301369Y116737D01*
X301421Y116710D01*
X301489Y116699D01*
X301584Y116669D01*
X301684Y116666D01*
X301752Y116655D01*
X303931Y116655D01*
X304018Y116667D01*
X304105Y116670D01*
X304158Y116687D01*
X304213Y116695D01*
X304292Y116730D01*
X304376Y116757D01*
X304415Y116785D01*
X304472Y116811D01*
X304585Y116907D01*
X304649Y116952D01*
X324342Y136645D01*
X324394Y136715D01*
X324454Y136779D01*
X324480Y136828D01*
X324513Y136872D01*
X324544Y136954D01*
X324584Y137032D01*
X324592Y137079D01*
X324614Y137138D01*
X324619Y137200D01*
X325679Y139759D01*
X327601Y141681D01*
X330111Y142721D01*
X332829Y142721D01*
X335339Y141681D01*
X337261Y139759D01*
X338301Y137249D01*
X338301Y134531D01*
X337261Y132021D01*
X335339Y130099D01*
X332829Y129059D01*
X330111Y129059D01*
X327601Y130099D01*
X327009Y130690D01*
X326963Y130726D01*
X326922Y130768D01*
X326850Y130811D01*
X326782Y130861D01*
X326728Y130882D01*
X326677Y130912D01*
X326596Y130933D01*
X326517Y130963D01*
X326458Y130967D01*
X326402Y130982D01*
X326317Y130979D01*
X326233Y130986D01*
X326176Y130975D01*
X326117Y130973D01*
X326037Y130947D01*
X325955Y130930D01*
X325903Y130903D01*
X325847Y130885D01*
X325791Y130845D01*
X325702Y130799D01*
X325630Y130730D01*
X325574Y130690D01*
X310124Y115241D01*
X310089Y115195D01*
X310047Y115154D01*
X310004Y115081D01*
X309954Y115014D01*
X309933Y114959D01*
X309903Y114909D01*
X309882Y114827D01*
X309852Y114748D01*
X309847Y114690D01*
X309833Y114634D01*
X309836Y114549D01*
X309829Y114465D01*
X309840Y114408D01*
X309842Y114349D01*
X309868Y114269D01*
X309885Y114186D01*
X309912Y114135D01*
X309930Y114079D01*
X309970Y114023D01*
X310016Y113934D01*
X310084Y113862D01*
X310124Y113806D01*
X312124Y111806D01*
X325026Y98904D01*
X327407Y96523D01*
X327407Y62404D01*
X327419Y62317D01*
X327422Y62230D01*
X327439Y62177D01*
X327447Y62122D01*
X327482Y62043D01*
X327509Y61959D01*
X327537Y61920D01*
X327563Y61863D01*
X327659Y61750D01*
X327704Y61686D01*
X329641Y59749D01*
X330681Y57239D01*
X330681Y54521D01*
X329588Y51884D01*
X329581Y51856D01*
X329568Y51830D01*
X329546Y51719D01*
X329518Y51609D01*
X329518Y51580D01*
X329513Y51551D01*
X329522Y51438D01*
X329526Y51325D01*
X329535Y51297D01*
X329537Y51268D01*
X329578Y51162D01*
X329612Y51054D01*
X329629Y51030D01*
X329639Y51002D01*
X329708Y50912D01*
X329771Y50818D01*
X329793Y50799D01*
X329811Y50776D01*
X329902Y50708D01*
X329988Y50635D01*
X330015Y50623D01*
X330039Y50606D01*
X330145Y50566D01*
X330248Y50520D01*
X330277Y50516D01*
X330304Y50505D01*
X330417Y50496D01*
X330530Y50481D01*
X330559Y50485D01*
X330588Y50482D01*
X330664Y50500D01*
X330811Y50521D01*
X330868Y50547D01*
X330915Y50558D01*
X332201Y51091D01*
X334919Y51091D01*
X337429Y50051D01*
X339351Y48129D01*
X340391Y45619D01*
X340391Y42901D01*
X339351Y40391D01*
X337414Y38454D01*
X337362Y38384D01*
X337302Y38320D01*
X337276Y38271D01*
X337243Y38227D01*
X337212Y38145D01*
X337172Y38067D01*
X337164Y38020D01*
X337142Y37961D01*
X337130Y37813D01*
X337117Y37736D01*
X337117Y23477D01*
X335433Y21793D01*
X335432Y21792D01*
X335431Y21791D01*
X335346Y21677D01*
X335262Y21566D01*
X335261Y21564D01*
X335260Y21563D01*
X335211Y21433D01*
X335161Y21300D01*
X335161Y21298D01*
X335160Y21297D01*
X335149Y21153D01*
X335137Y21017D01*
X335137Y21015D01*
X335137Y21014D01*
X335141Y20998D01*
X335193Y20738D01*
X335207Y20711D01*
X335213Y20686D01*
X336043Y18683D01*
X336043Y14337D01*
X334380Y10323D01*
X331307Y7250D01*
X327293Y5587D01*
X322947Y5587D01*
G37*
%LPD*%
%LPC*%
G36*
X170547Y5587D02*
X170547Y5587D01*
X166533Y7250D01*
X163460Y10323D01*
X161797Y14337D01*
X161797Y18683D01*
X163048Y21702D01*
X163048Y21704D01*
X163049Y21705D01*
X163083Y21840D01*
X163119Y21978D01*
X163119Y21979D01*
X163119Y21981D01*
X163115Y22119D01*
X163111Y22262D01*
X163110Y22263D01*
X163110Y22265D01*
X163070Y22391D01*
X163024Y22533D01*
X163023Y22534D01*
X163023Y22535D01*
X163014Y22548D01*
X162866Y22769D01*
X162842Y22789D01*
X162828Y22809D01*
X156209Y29428D01*
X156209Y63282D01*
X164048Y71121D01*
X189027Y71121D01*
X189114Y71133D01*
X189201Y71136D01*
X189254Y71153D01*
X189309Y71161D01*
X189388Y71196D01*
X189472Y71223D01*
X189511Y71251D01*
X189568Y71277D01*
X189681Y71373D01*
X189745Y71418D01*
X191360Y73033D01*
X191361Y73034D01*
X191362Y73035D01*
X191451Y73154D01*
X191531Y73260D01*
X191531Y73262D01*
X191532Y73263D01*
X191583Y73397D01*
X191632Y73526D01*
X191632Y73527D01*
X191633Y73529D01*
X191644Y73673D01*
X191656Y73809D01*
X191655Y73811D01*
X191655Y73812D01*
X191652Y73828D01*
X191600Y74088D01*
X191586Y74115D01*
X191580Y74139D01*
X191289Y74841D01*
X191289Y77559D01*
X192329Y80069D01*
X194251Y81991D01*
X196761Y83031D01*
X199479Y83031D01*
X201989Y81991D01*
X203911Y80069D01*
X204951Y77559D01*
X204951Y74841D01*
X203911Y72331D01*
X201989Y70409D01*
X199479Y69369D01*
X196761Y69369D01*
X196059Y69660D01*
X196058Y69660D01*
X196057Y69661D01*
X195923Y69695D01*
X195784Y69731D01*
X195783Y69731D01*
X195781Y69731D01*
X195640Y69727D01*
X195500Y69723D01*
X195498Y69722D01*
X195497Y69722D01*
X195364Y69679D01*
X195229Y69636D01*
X195228Y69635D01*
X195226Y69635D01*
X195214Y69626D01*
X194993Y69478D01*
X194973Y69454D01*
X194953Y69440D01*
X193338Y67825D01*
X192224Y66711D01*
X192189Y66664D01*
X192146Y66624D01*
X192104Y66551D01*
X192053Y66484D01*
X192032Y66429D01*
X192003Y66379D01*
X191982Y66297D01*
X191952Y66218D01*
X191947Y66160D01*
X191933Y66103D01*
X191935Y66019D01*
X191928Y65935D01*
X191940Y65877D01*
X191942Y65819D01*
X191968Y65739D01*
X191984Y65656D01*
X192011Y65604D01*
X192029Y65548D01*
X192069Y65492D01*
X192115Y65404D01*
X192170Y65346D01*
X192182Y65326D01*
X192200Y65309D01*
X192224Y65275D01*
X194166Y63333D01*
X195206Y60823D01*
X195206Y58105D01*
X195020Y57657D01*
X195020Y57656D01*
X195019Y57655D01*
X194985Y57520D01*
X194949Y57382D01*
X194949Y57381D01*
X194949Y57379D01*
X194953Y57238D01*
X194958Y57098D01*
X194958Y57097D01*
X194958Y57095D01*
X195001Y56961D01*
X195044Y56827D01*
X195045Y56826D01*
X195046Y56824D01*
X195054Y56812D01*
X195175Y56632D01*
X195175Y53220D01*
X195183Y53162D01*
X195181Y53104D01*
X195203Y53022D01*
X195215Y52938D01*
X195238Y52885D01*
X195253Y52829D01*
X195296Y52756D01*
X195331Y52679D01*
X195369Y52634D01*
X195398Y52584D01*
X195460Y52526D01*
X195514Y52462D01*
X195563Y52430D01*
X195606Y52390D01*
X195681Y52351D01*
X195751Y52304D01*
X195807Y52287D01*
X195859Y52260D01*
X195927Y52249D01*
X196022Y52219D01*
X196122Y52216D01*
X196190Y52205D01*
X199384Y52205D01*
X199413Y52209D01*
X199442Y52206D01*
X199553Y52229D01*
X199628Y52239D01*
X199642Y52208D01*
X199668Y52126D01*
X199697Y52086D01*
X199724Y52027D01*
X199818Y51917D01*
X199863Y51853D01*
X200405Y51312D01*
X200405Y35048D01*
X199512Y34155D01*
X185248Y34155D01*
X184323Y35080D01*
X184315Y35135D01*
X184311Y35144D01*
X184310Y35154D01*
X184253Y35274D01*
X184199Y35395D01*
X184193Y35402D01*
X184189Y35411D01*
X184101Y35511D01*
X184016Y35612D01*
X184007Y35617D01*
X184001Y35625D01*
X183889Y35696D01*
X183779Y35769D01*
X183770Y35772D01*
X183761Y35778D01*
X183634Y35815D01*
X183508Y35855D01*
X183498Y35855D01*
X183489Y35858D01*
X183356Y35859D01*
X183224Y35862D01*
X183214Y35860D01*
X183204Y35860D01*
X183076Y35824D01*
X182949Y35791D01*
X182940Y35786D01*
X182931Y35783D01*
X182818Y35713D01*
X182704Y35645D01*
X182697Y35638D01*
X182689Y35633D01*
X182601Y35535D01*
X182510Y35438D01*
X182505Y35429D01*
X182499Y35422D01*
X182475Y35371D01*
X182380Y35185D01*
X182374Y35149D01*
X182359Y35117D01*
X182248Y34699D01*
X181913Y34120D01*
X181440Y33647D01*
X180861Y33312D01*
X180214Y33139D01*
X175411Y33139D01*
X175411Y42164D01*
X175403Y42222D01*
X175404Y42280D01*
X175383Y42362D01*
X175371Y42445D01*
X175347Y42499D01*
X175333Y42555D01*
X175290Y42628D01*
X175255Y42705D01*
X175217Y42749D01*
X175187Y42800D01*
X175126Y42857D01*
X175071Y42922D01*
X175023Y42954D01*
X174980Y42994D01*
X174905Y43033D01*
X174835Y43079D01*
X174779Y43097D01*
X174727Y43124D01*
X174659Y43135D01*
X174564Y43165D01*
X174464Y43168D01*
X174396Y43179D01*
X173379Y43179D01*
X173379Y43181D01*
X174396Y43181D01*
X174454Y43189D01*
X174512Y43188D01*
X174594Y43209D01*
X174677Y43221D01*
X174731Y43245D01*
X174787Y43259D01*
X174860Y43302D01*
X174937Y43337D01*
X174981Y43375D01*
X175032Y43405D01*
X175089Y43466D01*
X175154Y43521D01*
X175186Y43569D01*
X175226Y43612D01*
X175265Y43687D01*
X175311Y43757D01*
X175329Y43813D01*
X175356Y43865D01*
X175367Y43933D01*
X175397Y44028D01*
X175400Y44128D01*
X175411Y44196D01*
X175411Y53221D01*
X180214Y53221D01*
X180861Y53048D01*
X181440Y52713D01*
X181913Y52240D01*
X182248Y51661D01*
X182359Y51243D01*
X182363Y51234D01*
X182365Y51225D01*
X182419Y51104D01*
X182471Y50982D01*
X182477Y50974D01*
X182481Y50965D01*
X182567Y50864D01*
X182650Y50761D01*
X182658Y50756D01*
X182665Y50748D01*
X182775Y50675D01*
X182884Y50599D01*
X182893Y50596D01*
X182901Y50591D01*
X183027Y50551D01*
X183153Y50508D01*
X183163Y50508D01*
X183172Y50505D01*
X183305Y50502D01*
X183437Y50496D01*
X183446Y50498D01*
X183456Y50498D01*
X183585Y50531D01*
X183713Y50562D01*
X183722Y50567D01*
X183731Y50569D01*
X183845Y50637D01*
X183961Y50703D01*
X183967Y50710D01*
X183976Y50715D01*
X184066Y50811D01*
X184159Y50906D01*
X184164Y50915D01*
X184170Y50922D01*
X184231Y51040D01*
X184293Y51157D01*
X184295Y51166D01*
X184300Y51175D01*
X184309Y51231D01*
X184318Y51275D01*
X184995Y51951D01*
X185064Y52043D01*
X185138Y52131D01*
X185149Y52156D01*
X185166Y52178D01*
X185207Y52285D01*
X185253Y52391D01*
X185257Y52418D01*
X185267Y52444D01*
X185277Y52558D01*
X185292Y52672D01*
X185288Y52700D01*
X185291Y52727D01*
X185268Y52840D01*
X185252Y52954D01*
X185240Y52979D01*
X185235Y53006D01*
X185182Y53108D01*
X185134Y53213D01*
X185116Y53234D01*
X185104Y53258D01*
X185024Y53342D01*
X184950Y53429D01*
X184929Y53442D01*
X184908Y53464D01*
X184678Y53599D01*
X184665Y53607D01*
X184506Y53673D01*
X182584Y55595D01*
X181544Y58105D01*
X181544Y60823D01*
X182584Y63333D01*
X183557Y64306D01*
X183575Y64330D01*
X183597Y64349D01*
X183660Y64443D01*
X183728Y64533D01*
X183738Y64561D01*
X183755Y64585D01*
X183789Y64693D01*
X183829Y64799D01*
X183832Y64828D01*
X183840Y64856D01*
X183843Y64970D01*
X183853Y65082D01*
X183847Y65111D01*
X183848Y65140D01*
X183819Y65250D01*
X183797Y65361D01*
X183783Y65387D01*
X183776Y65415D01*
X183718Y65513D01*
X183666Y65613D01*
X183646Y65635D01*
X183631Y65660D01*
X183548Y65737D01*
X183470Y65819D01*
X183445Y65834D01*
X183423Y65854D01*
X183322Y65906D01*
X183225Y65963D01*
X183196Y65970D01*
X183170Y65984D01*
X183093Y65997D01*
X182949Y66033D01*
X182887Y66031D01*
X182839Y66039D01*
X166573Y66039D01*
X166486Y66027D01*
X166399Y66024D01*
X166346Y66007D01*
X166291Y65999D01*
X166212Y65964D01*
X166128Y65937D01*
X166089Y65909D01*
X166032Y65883D01*
X165919Y65787D01*
X165855Y65742D01*
X161588Y61475D01*
X161536Y61405D01*
X161476Y61341D01*
X161450Y61292D01*
X161417Y61248D01*
X161386Y61166D01*
X161346Y61088D01*
X161338Y61041D01*
X161316Y60982D01*
X161304Y60834D01*
X161291Y60757D01*
X161291Y31953D01*
X161303Y31866D01*
X161306Y31779D01*
X161323Y31726D01*
X161331Y31671D01*
X161366Y31592D01*
X161393Y31508D01*
X161421Y31469D01*
X161447Y31412D01*
X161543Y31299D01*
X161588Y31235D01*
X166421Y26402D01*
X166422Y26401D01*
X166423Y26400D01*
X166539Y26314D01*
X166648Y26231D01*
X166650Y26231D01*
X166651Y26230D01*
X166785Y26179D01*
X166914Y26130D01*
X166916Y26130D01*
X166917Y26129D01*
X167062Y26118D01*
X167197Y26106D01*
X167199Y26107D01*
X167200Y26106D01*
X167216Y26110D01*
X167476Y26162D01*
X167503Y26176D01*
X167528Y26182D01*
X170547Y27433D01*
X174893Y27433D01*
X178907Y25770D01*
X181980Y22697D01*
X183643Y18683D01*
X183643Y14337D01*
X181980Y10323D01*
X178907Y7250D01*
X174893Y5587D01*
X170547Y5587D01*
G37*
%LPD*%
%LPC*%
G36*
X246747Y5587D02*
X246747Y5587D01*
X242733Y7250D01*
X239660Y10323D01*
X237997Y14337D01*
X237997Y18683D01*
X239660Y22697D01*
X242733Y25770D01*
X243062Y25906D01*
X243136Y25950D01*
X243214Y25985D01*
X243257Y26022D01*
X243306Y26051D01*
X243365Y26113D01*
X243431Y26169D01*
X243463Y26216D01*
X243502Y26257D01*
X243541Y26334D01*
X243589Y26405D01*
X243606Y26459D01*
X243632Y26510D01*
X243648Y26594D01*
X243674Y26676D01*
X243676Y26733D01*
X243687Y26789D01*
X243679Y26874D01*
X243682Y26960D01*
X243667Y27015D01*
X243662Y27072D01*
X243632Y27152D01*
X243610Y27235D01*
X243581Y27284D01*
X243560Y27337D01*
X243508Y27406D01*
X243465Y27480D01*
X243423Y27519D01*
X243389Y27564D01*
X243320Y27616D01*
X243257Y27674D01*
X243207Y27700D01*
X243161Y27734D01*
X243081Y27765D01*
X243004Y27804D01*
X242955Y27812D01*
X242895Y27835D01*
X242750Y27846D01*
X242673Y27859D01*
X237328Y27859D01*
X210381Y54805D01*
X210335Y54841D01*
X210294Y54883D01*
X210222Y54926D01*
X210154Y54976D01*
X210099Y54997D01*
X210049Y55027D01*
X209967Y55048D01*
X209889Y55078D01*
X209830Y55082D01*
X209774Y55097D01*
X209689Y55094D01*
X209605Y55101D01*
X209548Y55090D01*
X209489Y55088D01*
X209409Y55062D01*
X209326Y55045D01*
X209275Y55018D01*
X209219Y55000D01*
X209163Y54960D01*
X209074Y54914D01*
X209002Y54846D01*
X208946Y54805D01*
X207959Y53819D01*
X205449Y52779D01*
X202731Y52779D01*
X200970Y53509D01*
X200886Y53530D01*
X200806Y53561D01*
X200749Y53566D01*
X200694Y53580D01*
X200608Y53577D01*
X200523Y53585D01*
X200467Y53573D01*
X200410Y53572D01*
X200337Y53549D01*
X200321Y53611D01*
X200306Y53637D01*
X200297Y53665D01*
X200251Y53728D01*
X200176Y53856D01*
X200130Y53899D01*
X200102Y53938D01*
X198299Y55741D01*
X197259Y58251D01*
X197259Y60969D01*
X198299Y63479D01*
X200221Y65401D01*
X202731Y66441D01*
X205449Y66441D01*
X207959Y65401D01*
X209881Y63479D01*
X210501Y61981D01*
X210517Y61954D01*
X210527Y61925D01*
X210572Y61861D01*
X210646Y61736D01*
X210693Y61692D01*
X210722Y61652D01*
X212008Y60365D01*
X239135Y33238D01*
X239205Y33186D01*
X239269Y33126D01*
X239318Y33100D01*
X239362Y33067D01*
X239444Y33036D01*
X239522Y32996D01*
X239569Y32988D01*
X239628Y32966D01*
X239776Y32954D01*
X239853Y32941D01*
X257672Y32941D01*
X259458Y31155D01*
X265770Y24843D01*
X265817Y24808D01*
X265857Y24765D01*
X265930Y24723D01*
X265997Y24672D01*
X266052Y24651D01*
X266102Y24622D01*
X266184Y24601D01*
X266263Y24571D01*
X266321Y24566D01*
X266378Y24552D01*
X266462Y24554D01*
X266546Y24547D01*
X266604Y24559D01*
X266662Y24561D01*
X266742Y24587D01*
X266825Y24603D01*
X266877Y24630D01*
X266933Y24648D01*
X266989Y24688D01*
X267077Y24734D01*
X267150Y24803D01*
X267206Y24843D01*
X268133Y25770D01*
X272147Y27433D01*
X276493Y27433D01*
X280507Y25770D01*
X283580Y22697D01*
X285243Y18683D01*
X285243Y14337D01*
X283580Y10323D01*
X280507Y7250D01*
X276493Y5587D01*
X272147Y5587D01*
X268133Y7250D01*
X265060Y10323D01*
X263397Y14337D01*
X263397Y18683D01*
X263532Y19008D01*
X263533Y19010D01*
X263533Y19011D01*
X263567Y19144D01*
X263603Y19284D01*
X263603Y19285D01*
X263603Y19287D01*
X263599Y19426D01*
X263595Y19568D01*
X263594Y19569D01*
X263594Y19571D01*
X263553Y19699D01*
X263508Y19839D01*
X263507Y19840D01*
X263507Y19841D01*
X263498Y19854D01*
X263350Y20075D01*
X263327Y20094D01*
X263312Y20115D01*
X259986Y23441D01*
X259917Y23492D01*
X259855Y23552D01*
X259804Y23578D01*
X259759Y23612D01*
X259678Y23642D01*
X259602Y23682D01*
X259546Y23693D01*
X259493Y23713D01*
X259407Y23720D01*
X259323Y23737D01*
X259266Y23732D01*
X259210Y23737D01*
X259126Y23720D01*
X259040Y23712D01*
X258987Y23692D01*
X258931Y23681D01*
X258855Y23641D01*
X258775Y23610D01*
X258729Y23576D01*
X258679Y23550D01*
X258616Y23491D01*
X258548Y23439D01*
X258514Y23393D01*
X258473Y23354D01*
X258429Y23280D01*
X258378Y23211D01*
X258358Y23158D01*
X258329Y23109D01*
X258308Y23025D01*
X258277Y22945D01*
X258273Y22888D01*
X258259Y22833D01*
X258262Y22747D01*
X258255Y22662D01*
X258266Y22613D01*
X258268Y22549D01*
X258312Y22411D01*
X258330Y22335D01*
X259843Y18683D01*
X259843Y14337D01*
X258180Y10323D01*
X255107Y7250D01*
X251093Y5587D01*
X246747Y5587D01*
G37*
%LPD*%
%LPC*%
G36*
X15607Y32257D02*
X15607Y32257D01*
X11593Y33920D01*
X8520Y36993D01*
X6857Y41007D01*
X6857Y45353D01*
X8520Y49367D01*
X11593Y52440D01*
X15607Y54103D01*
X19953Y54103D01*
X23967Y52440D01*
X27040Y49367D01*
X28185Y46601D01*
X28186Y46600D01*
X28187Y46599D01*
X28258Y46478D01*
X28330Y46357D01*
X28331Y46356D01*
X28332Y46354D01*
X28436Y46257D01*
X28537Y46161D01*
X28538Y46161D01*
X28539Y46160D01*
X28665Y46095D01*
X28789Y46031D01*
X28791Y46031D01*
X28792Y46030D01*
X28807Y46028D01*
X29068Y45976D01*
X29099Y45979D01*
X29123Y45975D01*
X83940Y45975D01*
X83998Y45983D01*
X84056Y45981D01*
X84138Y46003D01*
X84222Y46015D01*
X84275Y46038D01*
X84331Y46053D01*
X84404Y46096D01*
X84481Y46131D01*
X84526Y46169D01*
X84576Y46198D01*
X84634Y46260D01*
X84698Y46314D01*
X84730Y46363D01*
X84770Y46406D01*
X84809Y46481D01*
X84856Y46551D01*
X84873Y46607D01*
X84900Y46659D01*
X84911Y46727D01*
X84941Y46822D01*
X84944Y46922D01*
X84955Y46990D01*
X84955Y49702D01*
X85848Y50595D01*
X102112Y50595D01*
X103005Y49702D01*
X103005Y35438D01*
X102112Y34545D01*
X85848Y34545D01*
X84955Y35438D01*
X84955Y39370D01*
X84947Y39428D01*
X84949Y39486D01*
X84927Y39568D01*
X84915Y39652D01*
X84892Y39705D01*
X84877Y39761D01*
X84834Y39834D01*
X84799Y39911D01*
X84761Y39956D01*
X84732Y40006D01*
X84670Y40064D01*
X84616Y40128D01*
X84567Y40160D01*
X84524Y40200D01*
X84449Y40239D01*
X84379Y40286D01*
X84323Y40303D01*
X84271Y40330D01*
X84203Y40341D01*
X84108Y40371D01*
X84008Y40374D01*
X83940Y40385D01*
X29123Y40385D01*
X29122Y40385D01*
X29120Y40385D01*
X28980Y40365D01*
X28842Y40345D01*
X28840Y40345D01*
X28839Y40345D01*
X28713Y40288D01*
X28583Y40229D01*
X28581Y40228D01*
X28580Y40227D01*
X28468Y40133D01*
X28366Y40046D01*
X28365Y40044D01*
X28363Y40043D01*
X28355Y40030D01*
X28208Y39809D01*
X28199Y39780D01*
X28185Y39759D01*
X27040Y36993D01*
X23967Y33920D01*
X19953Y32257D01*
X15607Y32257D01*
G37*
%LPD*%
%LPC*%
G36*
X332651Y145569D02*
X332651Y145569D01*
X330141Y146609D01*
X328219Y148531D01*
X327179Y151041D01*
X327179Y153759D01*
X327988Y155712D01*
X328001Y155762D01*
X328023Y155810D01*
X328037Y155900D01*
X328059Y155987D01*
X328058Y156039D01*
X328065Y156091D01*
X328054Y156181D01*
X328051Y156271D01*
X328035Y156321D01*
X328028Y156373D01*
X327992Y156456D01*
X327964Y156542D01*
X327935Y156585D01*
X327914Y156633D01*
X327856Y156703D01*
X327806Y156778D01*
X327766Y156812D01*
X327733Y156852D01*
X327658Y156903D01*
X327589Y156961D01*
X327541Y156982D01*
X327497Y157012D01*
X327411Y157040D01*
X327329Y157077D01*
X327277Y157084D01*
X327227Y157100D01*
X327155Y157101D01*
X327151Y157101D01*
X327151Y166879D01*
X336886Y166879D01*
X336765Y166114D01*
X336184Y164327D01*
X335331Y162653D01*
X334226Y161133D01*
X334058Y160964D01*
X334040Y160940D01*
X334018Y160921D01*
X333955Y160827D01*
X333887Y160737D01*
X333876Y160709D01*
X333860Y160685D01*
X333826Y160577D01*
X333786Y160471D01*
X333783Y160442D01*
X333774Y160414D01*
X333771Y160301D01*
X333762Y160188D01*
X333768Y160159D01*
X333767Y160130D01*
X333796Y160020D01*
X333818Y159909D01*
X333832Y159883D01*
X333839Y159855D01*
X333897Y159758D01*
X333949Y159657D01*
X333969Y159635D01*
X333984Y159610D01*
X334067Y159533D01*
X334145Y159451D01*
X334170Y159436D01*
X334191Y159416D01*
X334292Y159364D01*
X334390Y159307D01*
X334418Y159300D01*
X334445Y159286D01*
X334522Y159273D01*
X334665Y159237D01*
X334728Y159239D01*
X334776Y159231D01*
X335557Y159231D01*
X335644Y159243D01*
X335731Y159246D01*
X335784Y159263D01*
X335839Y159271D01*
X335918Y159306D01*
X336002Y159333D01*
X336041Y159361D01*
X336098Y159387D01*
X336211Y159483D01*
X336275Y159528D01*
X343118Y166371D01*
X370080Y166371D01*
X370138Y166379D01*
X370196Y166377D01*
X370278Y166399D01*
X370362Y166411D01*
X370415Y166434D01*
X370471Y166449D01*
X370544Y166492D01*
X370621Y166527D01*
X370666Y166565D01*
X370716Y166594D01*
X370774Y166656D01*
X370838Y166710D01*
X370870Y166759D01*
X370910Y166802D01*
X370949Y166877D01*
X370996Y166947D01*
X371013Y167003D01*
X371040Y167055D01*
X371051Y167123D01*
X371081Y167218D01*
X371084Y167318D01*
X371095Y167386D01*
X371095Y171962D01*
X371988Y172855D01*
X386252Y172855D01*
X387177Y171930D01*
X387185Y171875D01*
X387189Y171866D01*
X387190Y171856D01*
X387247Y171736D01*
X387301Y171615D01*
X387307Y171608D01*
X387311Y171599D01*
X387399Y171499D01*
X387484Y171398D01*
X387493Y171393D01*
X387499Y171386D01*
X387610Y171314D01*
X387721Y171241D01*
X387731Y171238D01*
X387739Y171233D01*
X387865Y171195D01*
X387992Y171155D01*
X388002Y171155D01*
X388011Y171152D01*
X388144Y171151D01*
X388276Y171148D01*
X388286Y171150D01*
X388296Y171150D01*
X388424Y171186D01*
X388551Y171219D01*
X388560Y171224D01*
X388569Y171227D01*
X388683Y171297D01*
X388796Y171365D01*
X388803Y171372D01*
X388811Y171377D01*
X388900Y171475D01*
X388990Y171572D01*
X388995Y171581D01*
X389001Y171588D01*
X389025Y171640D01*
X389120Y171825D01*
X389126Y171861D01*
X389141Y171893D01*
X389252Y172311D01*
X389587Y172890D01*
X390060Y173363D01*
X390639Y173698D01*
X391286Y173871D01*
X396089Y173871D01*
X396089Y164846D01*
X396097Y164788D01*
X396095Y164730D01*
X396117Y164648D01*
X396129Y164565D01*
X396153Y164511D01*
X396167Y164455D01*
X396210Y164382D01*
X396245Y164305D01*
X396283Y164261D01*
X396313Y164210D01*
X396374Y164153D01*
X396429Y164088D01*
X396477Y164056D01*
X396520Y164016D01*
X396595Y163977D01*
X396665Y163931D01*
X396721Y163913D01*
X396773Y163886D01*
X396841Y163875D01*
X396936Y163845D01*
X397036Y163842D01*
X397104Y163831D01*
X398121Y163831D01*
X398121Y163829D01*
X397104Y163829D01*
X397046Y163821D01*
X396988Y163822D01*
X396906Y163801D01*
X396823Y163789D01*
X396769Y163765D01*
X396713Y163751D01*
X396640Y163708D01*
X396563Y163673D01*
X396518Y163635D01*
X396468Y163605D01*
X396410Y163544D01*
X396346Y163489D01*
X396314Y163441D01*
X396274Y163398D01*
X396235Y163323D01*
X396189Y163253D01*
X396171Y163197D01*
X396144Y163145D01*
X396133Y163077D01*
X396103Y162982D01*
X396100Y162882D01*
X396089Y162814D01*
X396089Y153789D01*
X391286Y153789D01*
X390639Y153962D01*
X390060Y154297D01*
X389587Y154770D01*
X389252Y155349D01*
X389141Y155767D01*
X389137Y155776D01*
X389135Y155785D01*
X389081Y155906D01*
X389029Y156028D01*
X389023Y156036D01*
X389019Y156045D01*
X388934Y156146D01*
X388850Y156249D01*
X388842Y156254D01*
X388835Y156262D01*
X388725Y156335D01*
X388616Y156411D01*
X388607Y156414D01*
X388599Y156419D01*
X388472Y156459D01*
X388347Y156502D01*
X388337Y156502D01*
X388328Y156505D01*
X388195Y156508D01*
X388063Y156514D01*
X388053Y156512D01*
X388044Y156512D01*
X387915Y156479D01*
X387787Y156448D01*
X387778Y156443D01*
X387769Y156441D01*
X387655Y156373D01*
X387539Y156307D01*
X387533Y156300D01*
X387524Y156295D01*
X387433Y156198D01*
X387341Y156104D01*
X387336Y156095D01*
X387330Y156088D01*
X387269Y155969D01*
X387207Y155853D01*
X387205Y155844D01*
X387200Y155835D01*
X387191Y155779D01*
X387181Y155735D01*
X386252Y154805D01*
X371988Y154805D01*
X371095Y155698D01*
X371095Y160274D01*
X371087Y160332D01*
X371089Y160390D01*
X371067Y160472D01*
X371055Y160556D01*
X371032Y160609D01*
X371017Y160665D01*
X370974Y160738D01*
X370939Y160815D01*
X370901Y160860D01*
X370872Y160910D01*
X370810Y160968D01*
X370756Y161032D01*
X370707Y161064D01*
X370664Y161104D01*
X370589Y161143D01*
X370519Y161190D01*
X370463Y161207D01*
X370411Y161234D01*
X370343Y161245D01*
X370248Y161275D01*
X370148Y161278D01*
X370080Y161289D01*
X345643Y161289D01*
X345556Y161277D01*
X345469Y161274D01*
X345416Y161257D01*
X345361Y161249D01*
X345282Y161214D01*
X345198Y161187D01*
X345159Y161159D01*
X345102Y161133D01*
X344989Y161037D01*
X344925Y160992D01*
X340398Y156465D01*
X340397Y156464D01*
X340396Y156463D01*
X340314Y156353D01*
X340227Y156238D01*
X340227Y156236D01*
X340226Y156235D01*
X340176Y156103D01*
X340126Y155972D01*
X340126Y155971D01*
X340125Y155969D01*
X340114Y155825D01*
X340102Y155689D01*
X340103Y155687D01*
X340103Y155686D01*
X340106Y155670D01*
X340158Y155410D01*
X340172Y155383D01*
X340178Y155359D01*
X340841Y153759D01*
X340841Y151041D01*
X339801Y148531D01*
X337879Y146609D01*
X335369Y145569D01*
X332651Y145569D01*
G37*
%LPD*%
%LPC*%
G36*
X85848Y53545D02*
X85848Y53545D01*
X84955Y54438D01*
X84955Y60960D01*
X84947Y61018D01*
X84949Y61076D01*
X84927Y61158D01*
X84915Y61242D01*
X84892Y61295D01*
X84877Y61351D01*
X84834Y61424D01*
X84799Y61501D01*
X84761Y61546D01*
X84732Y61596D01*
X84670Y61654D01*
X84616Y61718D01*
X84567Y61750D01*
X84524Y61790D01*
X84449Y61829D01*
X84379Y61876D01*
X84323Y61893D01*
X84271Y61920D01*
X84203Y61931D01*
X84108Y61961D01*
X84008Y61964D01*
X83940Y61975D01*
X71232Y61975D01*
X61975Y71232D01*
X61975Y84978D01*
X63910Y86912D01*
X66795Y89797D01*
X66796Y89798D01*
X66797Y89799D01*
X66876Y89905D01*
X66966Y90024D01*
X66966Y90026D01*
X66967Y90027D01*
X67014Y90151D01*
X67067Y90290D01*
X67067Y90291D01*
X67067Y90293D01*
X67079Y90437D01*
X67090Y90573D01*
X67090Y90575D01*
X67090Y90576D01*
X67087Y90592D01*
X67034Y90852D01*
X67020Y90879D01*
X67015Y90903D01*
X66829Y91351D01*
X66829Y94069D01*
X67869Y96579D01*
X69791Y98501D01*
X72301Y99541D01*
X75019Y99541D01*
X77376Y98564D01*
X77459Y98543D01*
X77540Y98512D01*
X77551Y98511D01*
X77586Y98452D01*
X77632Y98409D01*
X77660Y98370D01*
X79451Y96579D01*
X80491Y94069D01*
X80491Y91351D01*
X79451Y88841D01*
X77529Y86919D01*
X75019Y85879D01*
X72301Y85879D01*
X71853Y86065D01*
X71852Y86065D01*
X71851Y86066D01*
X71716Y86100D01*
X71578Y86136D01*
X71577Y86136D01*
X71575Y86136D01*
X71434Y86132D01*
X71294Y86128D01*
X71292Y86127D01*
X71291Y86127D01*
X71158Y86084D01*
X71023Y86041D01*
X71022Y86040D01*
X71020Y86040D01*
X71008Y86031D01*
X70787Y85883D01*
X70767Y85859D01*
X70747Y85845D01*
X67862Y82960D01*
X67810Y82890D01*
X67750Y82826D01*
X67724Y82777D01*
X67691Y82733D01*
X67660Y82651D01*
X67620Y82573D01*
X67612Y82525D01*
X67590Y82467D01*
X67583Y82388D01*
X67579Y82373D01*
X67577Y82316D01*
X67565Y82242D01*
X67565Y73968D01*
X67577Y73882D01*
X67580Y73794D01*
X67597Y73741D01*
X67605Y73687D01*
X67640Y73607D01*
X67667Y73524D01*
X67695Y73484D01*
X67721Y73427D01*
X67817Y73314D01*
X67862Y73250D01*
X73250Y67862D01*
X73320Y67810D01*
X73384Y67750D01*
X73433Y67724D01*
X73477Y67691D01*
X73559Y67660D01*
X73637Y67620D01*
X73685Y67612D01*
X73743Y67590D01*
X73891Y67578D01*
X73968Y67565D01*
X83940Y67565D01*
X83998Y67573D01*
X84056Y67571D01*
X84138Y67593D01*
X84222Y67605D01*
X84275Y67628D01*
X84331Y67643D01*
X84404Y67686D01*
X84481Y67721D01*
X84526Y67759D01*
X84576Y67788D01*
X84634Y67850D01*
X84698Y67904D01*
X84730Y67953D01*
X84770Y67996D01*
X84809Y68071D01*
X84856Y68141D01*
X84873Y68197D01*
X84900Y68249D01*
X84911Y68317D01*
X84941Y68412D01*
X84944Y68512D01*
X84955Y68580D01*
X84955Y68702D01*
X85848Y69595D01*
X102112Y69595D01*
X103005Y68702D01*
X103005Y54438D01*
X102112Y53545D01*
X85848Y53545D01*
G37*
%LPD*%
%LPC*%
G36*
X151348Y78739D02*
X151348Y78739D01*
X149562Y80525D01*
X146677Y83410D01*
X146676Y83411D01*
X146675Y83412D01*
X146561Y83497D01*
X146450Y83581D01*
X146448Y83581D01*
X146447Y83582D01*
X146315Y83632D01*
X146184Y83682D01*
X146183Y83682D01*
X146181Y83683D01*
X146037Y83694D01*
X145901Y83706D01*
X145899Y83705D01*
X145898Y83705D01*
X145882Y83702D01*
X145622Y83650D01*
X145595Y83636D01*
X145571Y83630D01*
X144869Y83339D01*
X142151Y83339D01*
X139641Y84379D01*
X137719Y86301D01*
X136679Y88811D01*
X136679Y91529D01*
X137719Y94039D01*
X139641Y95961D01*
X142151Y97001D01*
X144869Y97001D01*
X147379Y95961D01*
X149301Y94039D01*
X150341Y91529D01*
X150341Y88811D01*
X150050Y88109D01*
X150050Y88108D01*
X150049Y88107D01*
X150014Y87970D01*
X149979Y87834D01*
X149979Y87833D01*
X149979Y87831D01*
X149983Y87686D01*
X149987Y87550D01*
X149988Y87548D01*
X149988Y87547D01*
X150031Y87414D01*
X150074Y87279D01*
X150075Y87278D01*
X150075Y87276D01*
X150084Y87264D01*
X150232Y87043D01*
X150256Y87023D01*
X150270Y87003D01*
X153155Y84118D01*
X153225Y84066D01*
X153289Y84006D01*
X153338Y83980D01*
X153382Y83947D01*
X153464Y83916D01*
X153542Y83876D01*
X153589Y83868D01*
X153648Y83846D01*
X153796Y83834D01*
X153873Y83821D01*
X177036Y83821D01*
X177123Y83833D01*
X177210Y83836D01*
X177263Y83853D01*
X177318Y83861D01*
X177397Y83896D01*
X177481Y83923D01*
X177520Y83951D01*
X177577Y83977D01*
X177690Y84073D01*
X177754Y84118D01*
X180919Y87283D01*
X180920Y87285D01*
X180922Y87286D01*
X181006Y87398D01*
X181090Y87511D01*
X181091Y87512D01*
X181092Y87513D01*
X181141Y87645D01*
X181192Y87776D01*
X181192Y87778D01*
X181192Y87779D01*
X181203Y87918D01*
X181215Y88060D01*
X181215Y88061D01*
X181215Y88063D01*
X181211Y88079D01*
X181159Y88338D01*
X181145Y88366D01*
X181140Y88390D01*
X180849Y89092D01*
X180849Y91809D01*
X181889Y94320D01*
X183175Y95606D01*
X183193Y95630D01*
X183215Y95649D01*
X183278Y95743D01*
X183346Y95833D01*
X183356Y95861D01*
X183373Y95885D01*
X183407Y95993D01*
X183447Y96099D01*
X183450Y96128D01*
X183458Y96156D01*
X183461Y96270D01*
X183471Y96382D01*
X183465Y96411D01*
X183466Y96440D01*
X183437Y96550D01*
X183415Y96661D01*
X183401Y96687D01*
X183394Y96715D01*
X183336Y96813D01*
X183284Y96913D01*
X183264Y96935D01*
X183249Y96960D01*
X183166Y97037D01*
X183088Y97119D01*
X183063Y97134D01*
X183041Y97154D01*
X182941Y97206D01*
X182843Y97263D01*
X182814Y97270D01*
X182788Y97284D01*
X182711Y97297D01*
X182567Y97333D01*
X182505Y97331D01*
X182457Y97339D01*
X177901Y97339D01*
X177901Y105349D01*
X184911Y105349D01*
X184911Y99546D01*
X184738Y98899D01*
X184507Y98501D01*
X184472Y98412D01*
X184428Y98327D01*
X184419Y98281D01*
X184401Y98237D01*
X184391Y98142D01*
X184373Y98048D01*
X184377Y98001D01*
X184372Y97954D01*
X184389Y97860D01*
X184397Y97765D01*
X184414Y97721D01*
X184423Y97675D01*
X184465Y97589D01*
X184499Y97500D01*
X184528Y97462D01*
X184549Y97420D01*
X184613Y97349D01*
X184671Y97273D01*
X184709Y97245D01*
X184741Y97210D01*
X184822Y97160D01*
X184899Y97103D01*
X184943Y97086D01*
X184983Y97062D01*
X185075Y97036D01*
X185165Y97002D01*
X185212Y96999D01*
X185257Y96986D01*
X185353Y96987D01*
X185448Y96980D01*
X185489Y96989D01*
X185542Y96990D01*
X185702Y97038D01*
X185775Y97055D01*
X186321Y97281D01*
X189038Y97281D01*
X191549Y96241D01*
X193470Y94320D01*
X194510Y91809D01*
X194510Y89092D01*
X193470Y86581D01*
X191549Y84660D01*
X189038Y83620D01*
X186321Y83620D01*
X185619Y83910D01*
X185617Y83911D01*
X185616Y83912D01*
X185483Y83945D01*
X185344Y83981D01*
X185342Y83981D01*
X185341Y83982D01*
X185200Y83977D01*
X185060Y83973D01*
X185058Y83973D01*
X185056Y83973D01*
X184923Y83930D01*
X184789Y83887D01*
X184787Y83886D01*
X184786Y83885D01*
X184774Y83877D01*
X184553Y83728D01*
X184533Y83705D01*
X184513Y83690D01*
X181347Y80525D01*
X179562Y78739D01*
X151348Y78739D01*
G37*
%LPD*%
%LPC*%
G36*
X68947Y5587D02*
X68947Y5587D01*
X64933Y7250D01*
X61860Y10323D01*
X60197Y14337D01*
X60197Y18683D01*
X61860Y22697D01*
X64933Y25770D01*
X68947Y27433D01*
X73293Y27433D01*
X77307Y25770D01*
X80380Y22697D01*
X82043Y18683D01*
X82043Y14337D01*
X80380Y10323D01*
X77307Y7250D01*
X73293Y5587D01*
X68947Y5587D01*
G37*
%LPD*%
%LPC*%
G36*
X221347Y157987D02*
X221347Y157987D01*
X217333Y159650D01*
X214260Y162723D01*
X212597Y166737D01*
X212597Y171083D01*
X214260Y175097D01*
X217333Y178170D01*
X221347Y179833D01*
X225693Y179833D01*
X229707Y178170D01*
X232780Y175097D01*
X234443Y171083D01*
X234443Y166737D01*
X232780Y162723D01*
X229707Y159650D01*
X225693Y157987D01*
X221347Y157987D01*
G37*
%LPD*%
%LPC*%
G36*
X272147Y157987D02*
X272147Y157987D01*
X268133Y159650D01*
X265060Y162723D01*
X263397Y166737D01*
X263397Y171083D01*
X265060Y175097D01*
X268133Y178170D01*
X272147Y179833D01*
X276493Y179833D01*
X280507Y178170D01*
X283580Y175097D01*
X285243Y171083D01*
X285243Y166737D01*
X283580Y162723D01*
X280507Y159650D01*
X276493Y157987D01*
X272147Y157987D01*
G37*
%LPD*%
%LPC*%
G36*
X94347Y157987D02*
X94347Y157987D01*
X90333Y159650D01*
X87260Y162723D01*
X85597Y166737D01*
X85597Y171083D01*
X87260Y175097D01*
X90333Y178170D01*
X94347Y179833D01*
X98693Y179833D01*
X102707Y178170D01*
X105780Y175097D01*
X107443Y171083D01*
X107443Y166737D01*
X105780Y162723D01*
X102707Y159650D01*
X98693Y157987D01*
X94347Y157987D01*
G37*
%LPD*%
%LPC*%
G36*
X68947Y157987D02*
X68947Y157987D01*
X64933Y159650D01*
X61860Y162723D01*
X60197Y166737D01*
X60197Y171083D01*
X61860Y175097D01*
X64933Y178170D01*
X68947Y179833D01*
X73293Y179833D01*
X77307Y178170D01*
X80380Y175097D01*
X82043Y171083D01*
X82043Y166737D01*
X80380Y162723D01*
X77307Y159650D01*
X73293Y157987D01*
X68947Y157987D01*
G37*
%LPD*%
%LPC*%
G36*
X43547Y157987D02*
X43547Y157987D01*
X39533Y159650D01*
X36460Y162723D01*
X34797Y166737D01*
X34797Y171083D01*
X36460Y175097D01*
X39533Y178170D01*
X43547Y179833D01*
X47893Y179833D01*
X51907Y178170D01*
X54980Y175097D01*
X56643Y171083D01*
X56643Y166737D01*
X54980Y162723D01*
X51907Y159650D01*
X47893Y157987D01*
X43547Y157987D01*
G37*
%LPD*%
%LPC*%
G36*
X246747Y157987D02*
X246747Y157987D01*
X242733Y159650D01*
X239660Y162723D01*
X237997Y166737D01*
X237997Y171083D01*
X239660Y175097D01*
X242733Y178170D01*
X246747Y179833D01*
X251093Y179833D01*
X255107Y178170D01*
X258180Y175097D01*
X259843Y171083D01*
X259843Y166737D01*
X258180Y162723D01*
X255107Y159650D01*
X251093Y157987D01*
X246747Y157987D01*
G37*
%LPD*%
%LPC*%
G36*
X94347Y5587D02*
X94347Y5587D01*
X90333Y7250D01*
X87260Y10323D01*
X85597Y14337D01*
X85597Y18683D01*
X87260Y22697D01*
X90333Y25770D01*
X94347Y27433D01*
X98693Y27433D01*
X102707Y25770D01*
X105780Y22697D01*
X107443Y18683D01*
X107443Y14337D01*
X105780Y10323D01*
X102707Y7250D01*
X98693Y5587D01*
X94347Y5587D01*
G37*
%LPD*%
%LPC*%
G36*
X119747Y5587D02*
X119747Y5587D01*
X115733Y7250D01*
X112660Y10323D01*
X110997Y14337D01*
X110997Y18683D01*
X112660Y22697D01*
X115733Y25770D01*
X119747Y27433D01*
X124093Y27433D01*
X128107Y25770D01*
X131180Y22697D01*
X132843Y18683D01*
X132843Y14337D01*
X131180Y10323D01*
X128107Y7250D01*
X124093Y5587D01*
X119747Y5587D01*
G37*
%LPD*%
%LPC*%
G36*
X221347Y5587D02*
X221347Y5587D01*
X217333Y7250D01*
X214260Y10323D01*
X212597Y14337D01*
X212597Y18683D01*
X214260Y22697D01*
X217333Y25770D01*
X221347Y27433D01*
X225693Y27433D01*
X229707Y25770D01*
X232780Y22697D01*
X234443Y18683D01*
X234443Y14337D01*
X232780Y10323D01*
X229707Y7250D01*
X225693Y5587D01*
X221347Y5587D01*
G37*
%LPD*%
%LPC*%
G36*
X297547Y5587D02*
X297547Y5587D01*
X293533Y7250D01*
X290460Y10323D01*
X288797Y14337D01*
X288797Y18683D01*
X290460Y22697D01*
X293533Y25770D01*
X297547Y27433D01*
X301893Y27433D01*
X305907Y25770D01*
X308980Y22697D01*
X310643Y18683D01*
X310643Y14337D01*
X308980Y10323D01*
X305907Y7250D01*
X301893Y5587D01*
X297547Y5587D01*
G37*
%LPD*%
%LPC*%
G36*
X145147Y5587D02*
X145147Y5587D01*
X141133Y7250D01*
X138060Y10323D01*
X136397Y14337D01*
X136397Y18683D01*
X138060Y22697D01*
X141133Y25770D01*
X145147Y27433D01*
X149493Y27433D01*
X153507Y25770D01*
X156580Y22697D01*
X158243Y18683D01*
X158243Y14337D01*
X156580Y10323D01*
X153507Y7250D01*
X149493Y5587D01*
X145147Y5587D01*
G37*
%LPD*%
%LPC*%
G36*
X43547Y5587D02*
X43547Y5587D01*
X39533Y7250D01*
X36460Y10323D01*
X34797Y14337D01*
X34797Y18683D01*
X36460Y22697D01*
X39533Y25770D01*
X43547Y27433D01*
X47893Y27433D01*
X51907Y25770D01*
X54980Y22697D01*
X56643Y18683D01*
X56643Y14337D01*
X54980Y10323D01*
X51907Y7250D01*
X47893Y5587D01*
X43547Y5587D01*
G37*
%LPD*%
%LPC*%
G36*
X378117Y103129D02*
X378117Y103129D01*
X375728Y104119D01*
X373899Y105948D01*
X373048Y108002D01*
X372909Y108337D01*
X372909Y110923D01*
X373048Y111258D01*
X373899Y113312D01*
X375728Y115141D01*
X378117Y116131D01*
X380703Y116131D01*
X383092Y115141D01*
X384921Y113312D01*
X385911Y110923D01*
X385911Y108337D01*
X384921Y105948D01*
X383092Y104119D01*
X380703Y103129D01*
X378117Y103129D01*
G37*
%LPD*%
%LPC*%
G36*
X378117Y59129D02*
X378117Y59129D01*
X375728Y60119D01*
X373899Y61948D01*
X373048Y64002D01*
X372909Y64337D01*
X372909Y66923D01*
X373048Y67258D01*
X373899Y69312D01*
X375728Y71141D01*
X378117Y72131D01*
X380703Y72131D01*
X383092Y71141D01*
X384921Y69312D01*
X385911Y66923D01*
X385911Y64337D01*
X384921Y61948D01*
X383092Y60119D01*
X380703Y59129D01*
X378117Y59129D01*
G37*
%LPD*%
%LPC*%
G36*
X272541Y73151D02*
X272541Y73151D01*
X272541Y81661D01*
X279844Y81661D01*
X280491Y81488D01*
X281070Y81153D01*
X281543Y80680D01*
X281878Y80101D01*
X282051Y79454D01*
X282051Y73151D01*
X272541Y73151D01*
G37*
%LPD*%
%LPC*%
G36*
X272541Y112521D02*
X272541Y112521D01*
X272541Y121031D01*
X279844Y121031D01*
X280491Y120858D01*
X281070Y120523D01*
X281543Y120050D01*
X281878Y119471D01*
X282051Y118824D01*
X282051Y112521D01*
X272541Y112521D01*
G37*
%LPD*%
%LPC*%
G36*
X272541Y108459D02*
X272541Y108459D01*
X282051Y108459D01*
X282051Y102156D01*
X281878Y101509D01*
X281543Y100930D01*
X281070Y100457D01*
X280491Y100122D01*
X279844Y99949D01*
X272541Y99949D01*
X272541Y108459D01*
G37*
%LPD*%
%LPC*%
G36*
X258969Y73151D02*
X258969Y73151D01*
X258969Y79454D01*
X259142Y80101D01*
X259477Y80680D01*
X259950Y81153D01*
X260529Y81488D01*
X261176Y81661D01*
X268479Y81661D01*
X268479Y73151D01*
X258969Y73151D01*
G37*
%LPD*%
%LPC*%
G36*
X258969Y112521D02*
X258969Y112521D01*
X258969Y118824D01*
X259142Y119471D01*
X259477Y120050D01*
X259950Y120523D01*
X260529Y120858D01*
X261176Y121031D01*
X268479Y121031D01*
X268479Y112521D01*
X258969Y112521D01*
G37*
%LPD*%
%LPC*%
G36*
X261176Y60579D02*
X261176Y60579D01*
X260529Y60752D01*
X259950Y61087D01*
X259477Y61560D01*
X259142Y62139D01*
X258969Y62786D01*
X258969Y69089D01*
X268479Y69089D01*
X268479Y60579D01*
X261176Y60579D01*
G37*
%LPD*%
%LPC*%
G36*
X261176Y99949D02*
X261176Y99949D01*
X260529Y100122D01*
X259950Y100457D01*
X259477Y100930D01*
X259142Y101509D01*
X258969Y102156D01*
X258969Y108459D01*
X268479Y108459D01*
X268479Y99949D01*
X261176Y99949D01*
G37*
%LPD*%
%LPC*%
G36*
X301751Y170941D02*
X301751Y170941D01*
X301751Y180676D01*
X302516Y180555D01*
X304303Y179974D01*
X305977Y179121D01*
X307498Y178016D01*
X308826Y176688D01*
X309931Y175167D01*
X310784Y173493D01*
X311365Y171706D01*
X311417Y171374D01*
X311454Y171254D01*
X311487Y171133D01*
X311496Y171119D01*
X311501Y171102D01*
X311569Y170997D01*
X311603Y170941D01*
X301751Y170941D01*
G37*
%LPD*%
%LPC*%
G36*
X301751Y166879D02*
X301751Y166879D01*
X311607Y166879D01*
X311598Y166866D01*
X311524Y166764D01*
X311519Y166749D01*
X311508Y166734D01*
X311420Y166464D01*
X311420Y166455D01*
X311417Y166446D01*
X311365Y166114D01*
X310784Y164327D01*
X309931Y162653D01*
X308826Y161132D01*
X307498Y159804D01*
X305977Y158699D01*
X304303Y157846D01*
X302516Y157265D01*
X301751Y157144D01*
X301751Y166879D01*
G37*
%LPD*%
%LPC*%
G36*
X313233Y170941D02*
X313233Y170941D01*
X313242Y170955D01*
X313316Y171056D01*
X313321Y171070D01*
X313331Y171086D01*
X313420Y171356D01*
X313420Y171365D01*
X313423Y171374D01*
X313475Y171706D01*
X314056Y173493D01*
X314909Y175167D01*
X316014Y176688D01*
X317342Y178016D01*
X318863Y179121D01*
X320537Y179974D01*
X322324Y180555D01*
X323089Y180676D01*
X323089Y170941D01*
X313233Y170941D01*
G37*
%LPD*%
%LPC*%
G36*
X322324Y157265D02*
X322324Y157265D01*
X320537Y157846D01*
X318863Y158699D01*
X317342Y159804D01*
X316014Y161132D01*
X314909Y162653D01*
X314056Y164327D01*
X313475Y166114D01*
X313423Y166446D01*
X313386Y166566D01*
X313353Y166687D01*
X313344Y166701D01*
X313339Y166718D01*
X313270Y166823D01*
X313237Y166879D01*
X323089Y166879D01*
X323089Y157144D01*
X322324Y157265D01*
G37*
%LPD*%
%LPC*%
G36*
X327151Y170941D02*
X327151Y170941D01*
X327151Y180676D01*
X327916Y180555D01*
X329703Y179974D01*
X331377Y179121D01*
X332898Y178016D01*
X334226Y176688D01*
X335331Y175167D01*
X336184Y173493D01*
X336765Y171706D01*
X336886Y170941D01*
X327151Y170941D01*
G37*
%LPD*%
%LPC*%
G36*
X200151Y18541D02*
X200151Y18541D01*
X200151Y28276D01*
X200916Y28155D01*
X202703Y27574D01*
X204377Y26721D01*
X205898Y25616D01*
X207226Y24288D01*
X208331Y22767D01*
X209184Y21093D01*
X209765Y19306D01*
X209886Y18541D01*
X200151Y18541D01*
G37*
%LPD*%
%LPC*%
G36*
X19811Y96011D02*
X19811Y96011D01*
X19811Y105746D01*
X20576Y105625D01*
X22363Y105044D01*
X24037Y104191D01*
X25558Y103086D01*
X26886Y101758D01*
X27991Y100237D01*
X28844Y98563D01*
X29425Y96776D01*
X29546Y96011D01*
X19811Y96011D01*
G37*
%LPD*%
%LPC*%
G36*
X287954Y170941D02*
X287954Y170941D01*
X288075Y171706D01*
X288656Y173493D01*
X289509Y175167D01*
X290614Y176688D01*
X291942Y178016D01*
X293463Y179121D01*
X295137Y179974D01*
X296924Y180555D01*
X297689Y180676D01*
X297689Y170941D01*
X287954Y170941D01*
G37*
%LPD*%
%LPC*%
G36*
X186354Y18541D02*
X186354Y18541D01*
X186475Y19306D01*
X187056Y21093D01*
X187909Y22767D01*
X189014Y24288D01*
X190342Y25616D01*
X191863Y26721D01*
X193537Y27574D01*
X195324Y28155D01*
X196089Y28276D01*
X196089Y18541D01*
X186354Y18541D01*
G37*
%LPD*%
%LPC*%
G36*
X19811Y91949D02*
X19811Y91949D01*
X29546Y91949D01*
X29425Y91184D01*
X28844Y89397D01*
X27991Y87723D01*
X26886Y86202D01*
X25558Y84874D01*
X24037Y83769D01*
X22363Y82916D01*
X20576Y82335D01*
X19811Y82214D01*
X19811Y91949D01*
G37*
%LPD*%
%LPC*%
G36*
X200151Y14479D02*
X200151Y14479D01*
X209886Y14479D01*
X209765Y13714D01*
X209184Y11927D01*
X208331Y10253D01*
X207226Y8732D01*
X205898Y7404D01*
X204377Y6299D01*
X202703Y5446D01*
X200916Y4865D01*
X200151Y4744D01*
X200151Y14479D01*
G37*
%LPD*%
%LPC*%
G36*
X6014Y96011D02*
X6014Y96011D01*
X6135Y96776D01*
X6716Y98563D01*
X7569Y100237D01*
X8674Y101758D01*
X10002Y103086D01*
X11523Y104191D01*
X13197Y105044D01*
X14984Y105625D01*
X15749Y105746D01*
X15749Y96011D01*
X6014Y96011D01*
G37*
%LPD*%
%LPC*%
G36*
X14984Y82335D02*
X14984Y82335D01*
X13197Y82916D01*
X11523Y83769D01*
X10002Y84874D01*
X8674Y86202D01*
X7569Y87723D01*
X6716Y89397D01*
X6135Y91184D01*
X6014Y91949D01*
X15749Y91949D01*
X15749Y82214D01*
X14984Y82335D01*
G37*
%LPD*%
%LPC*%
G36*
X296924Y157265D02*
X296924Y157265D01*
X295137Y157846D01*
X293463Y158699D01*
X291942Y159804D01*
X290614Y161132D01*
X289509Y162653D01*
X288656Y164327D01*
X288075Y166114D01*
X287954Y166879D01*
X297689Y166879D01*
X297689Y157144D01*
X296924Y157265D01*
G37*
%LPD*%
%LPC*%
G36*
X195324Y4865D02*
X195324Y4865D01*
X193537Y5446D01*
X191863Y6299D01*
X190342Y7404D01*
X189014Y8732D01*
X187909Y10253D01*
X187056Y11927D01*
X186475Y13714D01*
X186354Y14479D01*
X196089Y14479D01*
X196089Y4744D01*
X195324Y4865D01*
G37*
%LPD*%
%LPC*%
G36*
X96011Y74169D02*
X96011Y74169D01*
X96011Y81179D01*
X104269Y81179D01*
X104270Y81179D01*
X104241Y81151D01*
X104226Y81126D01*
X104206Y81104D01*
X104154Y81003D01*
X104097Y80906D01*
X104090Y80877D01*
X104076Y80851D01*
X104063Y80774D01*
X104027Y80630D01*
X104029Y80568D01*
X104021Y80520D01*
X104021Y76376D01*
X103848Y75729D01*
X103513Y75150D01*
X103040Y74677D01*
X102461Y74342D01*
X101814Y74169D01*
X96011Y74169D01*
G37*
%LPD*%
%LPC*%
G36*
X177901Y109411D02*
X177901Y109411D01*
X177901Y117421D01*
X182704Y117421D01*
X183351Y117248D01*
X183930Y116913D01*
X184403Y116440D01*
X184738Y115861D01*
X184911Y115214D01*
X184911Y109411D01*
X177901Y109411D01*
G37*
%LPD*%
%LPC*%
G36*
X400151Y165861D02*
X400151Y165861D01*
X400151Y173871D01*
X404954Y173871D01*
X405601Y173698D01*
X406180Y173363D01*
X406653Y172890D01*
X406988Y172311D01*
X407161Y171664D01*
X407161Y165861D01*
X400151Y165861D01*
G37*
%LPD*%
%LPC*%
G36*
X400151Y153789D02*
X400151Y153789D01*
X400151Y161799D01*
X407161Y161799D01*
X407161Y155996D01*
X406988Y155349D01*
X406653Y154770D01*
X406180Y154297D01*
X405601Y153962D01*
X404954Y153789D01*
X400151Y153789D01*
G37*
%LPD*%
%LPC*%
G36*
X202691Y99569D02*
X202691Y99569D01*
X202691Y106579D01*
X210701Y106579D01*
X210701Y101776D01*
X210528Y101129D01*
X210193Y100550D01*
X209720Y100077D01*
X209141Y99742D01*
X208494Y99569D01*
X202691Y99569D01*
G37*
%LPD*%
%LPC*%
G36*
X164339Y45211D02*
X164339Y45211D01*
X164339Y51014D01*
X164512Y51661D01*
X164847Y52240D01*
X165320Y52713D01*
X165899Y53048D01*
X166546Y53221D01*
X171349Y53221D01*
X171349Y45211D01*
X164339Y45211D01*
G37*
%LPD*%
%LPC*%
G36*
X166546Y33139D02*
X166546Y33139D01*
X165899Y33312D01*
X165320Y33647D01*
X164847Y34120D01*
X164512Y34699D01*
X164339Y35346D01*
X164339Y41149D01*
X171349Y41149D01*
X171349Y33139D01*
X166546Y33139D01*
G37*
%LPD*%
%LPC*%
G36*
X86146Y74169D02*
X86146Y74169D01*
X85499Y74342D01*
X84920Y74677D01*
X84447Y75150D01*
X84112Y75729D01*
X83939Y76376D01*
X83939Y81179D01*
X91949Y81179D01*
X91949Y74169D01*
X86146Y74169D01*
G37*
%LPD*%
%LPC*%
G36*
X192826Y99569D02*
X192826Y99569D01*
X192179Y99742D01*
X191600Y100077D01*
X191127Y100550D01*
X190792Y101129D01*
X190619Y101776D01*
X190619Y106579D01*
X198629Y106579D01*
X198629Y99569D01*
X192826Y99569D01*
G37*
%LPD*%
%LPC*%
G36*
X299191Y89661D02*
X299191Y89661D01*
X299191Y94671D01*
X306994Y94671D01*
X307641Y94498D01*
X308220Y94163D01*
X308693Y93690D01*
X309028Y93111D01*
X309201Y92464D01*
X309201Y89661D01*
X299191Y89661D01*
G37*
%LPD*%
%LPC*%
G36*
X285119Y89661D02*
X285119Y89661D01*
X285119Y92464D01*
X285292Y93111D01*
X285627Y93690D01*
X286100Y94163D01*
X286679Y94498D01*
X287326Y94671D01*
X295129Y94671D01*
X295129Y89661D01*
X285119Y89661D01*
G37*
%LPD*%
%LPC*%
G36*
X299191Y80589D02*
X299191Y80589D01*
X299191Y85599D01*
X309201Y85599D01*
X309201Y82796D01*
X309028Y82149D01*
X308693Y81570D01*
X308220Y81097D01*
X307641Y80762D01*
X306994Y80589D01*
X299191Y80589D01*
G37*
%LPD*%
%LPC*%
G36*
X287326Y80589D02*
X287326Y80589D01*
X286679Y80762D01*
X286100Y81097D01*
X285627Y81570D01*
X285292Y82149D01*
X285119Y82796D01*
X285119Y85599D01*
X295129Y85599D01*
X295129Y80589D01*
X287326Y80589D01*
G37*
%LPD*%
%LPC*%
G36*
X17779Y93979D02*
X17779Y93979D01*
X17779Y93981D01*
X17781Y93981D01*
X17781Y93979D01*
X17779Y93979D01*
G37*
%LPD*%
%LPC*%
G36*
X299719Y168909D02*
X299719Y168909D01*
X299719Y168911D01*
X299721Y168911D01*
X299721Y168909D01*
X299719Y168909D01*
G37*
%LPD*%
%LPC*%
G36*
X325119Y168909D02*
X325119Y168909D01*
X325119Y168911D01*
X325121Y168911D01*
X325121Y168909D01*
X325119Y168909D01*
G37*
%LPD*%
%LPC*%
G36*
X198119Y16509D02*
X198119Y16509D01*
X198119Y16511D01*
X198121Y16511D01*
X198121Y16509D01*
X198119Y16509D01*
G37*
%LPD*%
%LPC*%
G36*
X297159Y87629D02*
X297159Y87629D01*
X297159Y87631D01*
X297161Y87631D01*
X297161Y87629D01*
X297159Y87629D01*
G37*
%LPD*%
%LPC*%
G36*
X270509Y110489D02*
X270509Y110489D01*
X270509Y110491D01*
X270511Y110491D01*
X270511Y110489D01*
X270509Y110489D01*
G37*
%LPD*%
%LPC*%
G36*
X270509Y71119D02*
X270509Y71119D01*
X270509Y71121D01*
X270511Y71121D01*
X270511Y71119D01*
X270509Y71119D01*
G37*
%LPD*%
D10*
X93980Y61570D03*
X93980Y42570D03*
D11*
X192380Y43180D03*
X173380Y43180D03*
D12*
X297160Y64630D03*
X297160Y87630D03*
X297160Y110630D03*
D13*
X358160Y87630D03*
D14*
X270510Y138490D03*
X270510Y110490D03*
X270510Y43120D03*
X270510Y71120D03*
D15*
X17780Y144780D03*
X17780Y119380D03*
X17780Y93980D03*
X17780Y68580D03*
X17780Y43180D03*
X45720Y168910D03*
X71120Y168910D03*
X96520Y168910D03*
X121920Y168910D03*
X147320Y168910D03*
X172720Y168910D03*
X198120Y168910D03*
X223520Y168910D03*
X248920Y168910D03*
X274320Y168910D03*
X274320Y16510D03*
X248920Y16510D03*
X223520Y16510D03*
X198120Y16510D03*
X172720Y16510D03*
X147320Y16510D03*
X121920Y16510D03*
X96520Y16510D03*
X71120Y16510D03*
X45720Y16510D03*
X299720Y16510D03*
X325120Y16510D03*
X299720Y168910D03*
X325120Y168910D03*
D16*
X89916Y130810D03*
X98044Y130810D03*
D10*
X200660Y127610D03*
X200660Y108610D03*
D11*
X175870Y131380D03*
X175870Y107380D03*
X156870Y107380D03*
X156870Y131380D03*
D10*
X93980Y83210D03*
X93980Y102210D03*
D11*
X398120Y163830D03*
X379120Y163830D03*
D17*
X384490Y87630D02*
X358160Y87630D01*
D18*
X384490Y87630D03*
X313370Y87630D03*
D17*
X300650Y88900D02*
X297160Y87630D01*
X298450Y88900D02*
X300650Y88900D01*
X298450Y87630D02*
X313370Y87630D01*
D18*
X73660Y78740D03*
D17*
X294178Y87630D02*
X297160Y87630D01*
X294178Y87630D02*
X272730Y109078D01*
D18*
X219809Y62230D03*
X401320Y87630D03*
X383540Y135890D03*
X401320Y113030D03*
X414020Y100330D03*
X426720Y87630D03*
X426720Y113030D03*
X426720Y62230D03*
X414020Y74930D03*
X401320Y62230D03*
X383540Y40640D03*
D17*
X401320Y118110D02*
X383540Y135890D01*
X401320Y118110D02*
X401320Y113030D01*
X401320Y58420D02*
X383540Y40640D01*
X401320Y58420D02*
X401320Y62230D01*
X401320Y87630D02*
X384490Y87630D01*
X401320Y113030D02*
X414020Y100330D01*
X426720Y113030D01*
X414020Y100330D02*
X426720Y87630D01*
X414020Y100330D02*
X401320Y87630D01*
X414020Y74930D01*
X426720Y87630D01*
X414020Y74930D02*
X426720Y62230D01*
X414020Y74930D02*
X401320Y62230D01*
D19*
X199430Y107380D02*
X175870Y107380D01*
X199430Y107380D02*
X200660Y108610D01*
D17*
X217337Y62230D02*
X219809Y62230D01*
X217337Y62230D02*
X208308Y71259D01*
X208308Y100962D02*
X200660Y108610D01*
X208308Y100962D02*
X208308Y71259D01*
D18*
X160020Y90170D03*
D19*
X175870Y106020D01*
X175870Y107380D01*
D20*
X199430Y107380D02*
X199430Y90210D01*
X185166Y75946D01*
D19*
X93980Y83210D02*
X92710Y83210D01*
X92050Y82550D02*
X81280Y82550D01*
X77470Y78740D02*
X73660Y78740D01*
X77470Y78740D02*
X81280Y82550D01*
X92050Y82550D02*
X92710Y83210D01*
D17*
X398120Y150470D02*
X398120Y163830D01*
X398120Y150470D02*
X383540Y135890D01*
X334010Y177800D02*
X325120Y168910D01*
X334010Y177800D02*
X395580Y177800D01*
X398120Y175260D02*
X398120Y163830D01*
X398120Y175260D02*
X395580Y177800D01*
D18*
X166596Y58528D03*
D20*
X173380Y51744D01*
X173380Y43180D01*
X95860Y83210D02*
X93980Y83210D01*
X95860Y83210D02*
X103124Y75946D01*
X185166Y75946D01*
D17*
X293370Y76200D02*
X298450Y81280D01*
X298450Y87630D01*
X298450Y88900D01*
X299720Y168910D02*
X325120Y168910D01*
D18*
X35240Y128270D03*
D17*
X270510Y71120D02*
X275590Y76200D01*
X293370Y76200D01*
X272730Y108270D02*
X270510Y110490D01*
X272730Y109078D02*
X272730Y108270D01*
X270510Y71120D02*
X261620Y62230D01*
X219809Y62230D01*
D18*
X333560Y44260D03*
D17*
X333560Y24950D01*
X325120Y16510D01*
X317530Y44260D02*
X297160Y64630D01*
X317530Y44260D02*
X333560Y44260D01*
X292020Y64630D02*
X270510Y43120D01*
X292020Y64630D02*
X297160Y64630D01*
D18*
X111760Y109220D03*
X323850Y55880D03*
D17*
X323850Y95050D02*
X308270Y110630D01*
X323850Y95050D02*
X323850Y55880D01*
X297180Y110630D02*
X297180Y124460D01*
X297180Y110630D02*
X297160Y110630D01*
X297180Y124460D02*
X283870Y137770D01*
D20*
X156870Y131380D02*
X147890Y131380D01*
X128270Y111760D01*
X114300Y111760D02*
X111760Y109220D01*
X114300Y111760D02*
X128270Y111760D01*
D19*
X156870Y131380D02*
X175870Y131380D01*
X196890Y131380D01*
X200660Y127610D01*
X111760Y109220D02*
X111760Y85288D01*
X111562Y85090D01*
D18*
X111562Y85090D03*
D19*
X327180Y135890D02*
X331470Y135890D01*
X327180Y135890D02*
X301920Y110630D01*
X297160Y110630D01*
D18*
X331470Y135890D03*
D17*
X308270Y110630D02*
X297160Y110630D01*
D18*
X188375Y59464D03*
D20*
X192380Y55459D01*
X93980Y42570D02*
X93370Y43180D01*
X17780Y43180D01*
X192380Y43180D02*
X192380Y55459D01*
D17*
X271230Y137770D02*
X270510Y138490D01*
X271230Y137770D02*
X283870Y137770D01*
D19*
X219710Y134620D02*
X219710Y74930D01*
D18*
X219710Y74930D03*
D19*
X219710Y134620D02*
X198120Y156210D01*
X133350Y156210D01*
X121920Y167640D01*
X121920Y168910D01*
D18*
X124460Y120650D03*
D19*
X41885Y118110D02*
X36830Y113055D01*
X36830Y87630D01*
X17780Y68580D01*
X121920Y118110D02*
X124460Y120650D01*
X121920Y118110D02*
X41885Y118110D01*
D18*
X162391Y148364D03*
D19*
X41684Y148364D01*
X17780Y124460D01*
X17780Y119380D01*
X142940Y107380D02*
X156870Y107380D01*
D18*
X125730Y90170D03*
D19*
X142940Y107380D01*
D18*
X73660Y92710D03*
D20*
X64770Y83820D01*
X64770Y72390D02*
X72390Y64770D01*
X90780Y64770D02*
X93980Y61570D01*
X90780Y64770D02*
X72390Y64770D01*
X64770Y72390D02*
X64770Y83820D01*
D18*
X187680Y90450D03*
D19*
X178509Y81280D01*
X152400Y81280D02*
X143510Y90170D01*
X152400Y81280D02*
X178509Y81280D01*
D18*
X143510Y90170D03*
D19*
X158750Y30480D02*
X172720Y16510D01*
X158750Y30480D02*
X158750Y62230D01*
X165100Y68580D01*
D18*
X198120Y76200D03*
D19*
X190500Y68580D01*
X165100Y68580D01*
D18*
X204090Y59610D03*
D19*
X270510Y16510D02*
X274320Y16510D01*
X270510Y16510D02*
X256620Y30400D01*
X238380Y30400D01*
X209170Y59610D01*
X204090Y59610D01*
X106680Y130810D02*
X98044Y130810D01*
X106680Y130810D02*
X110490Y134620D01*
D18*
X110490Y134620D03*
D19*
X93546Y102644D02*
X93980Y102210D01*
X93546Y102644D02*
X79652Y102644D01*
X73302Y108994D01*
D18*
X73302Y108994D03*
X74930Y139700D03*
D19*
X74930Y139446D02*
X83566Y130810D01*
X74930Y139446D02*
X74930Y139700D01*
X83566Y130810D02*
X89916Y130810D01*
D18*
X334010Y152400D03*
D19*
X334010Y153670D02*
X344170Y163830D01*
X334010Y153670D02*
X334010Y152400D01*
X344170Y163830D02*
X379120Y163830D01*
M02*
