G04 EAGLE Gerber RS-274X export*
G75*
%MOMM*%
%FSLAX34Y34*%
%LPD*%
%INTop Copper*%
%IPPOS*%
%AMOC8*
5,1,8,0,0,1.08239X$1,22.5*%
G01*
%ADD10R,1.600000X2.300000*%
%ADD11R,1.200000X1.200000*%
%ADD12R,1.300000X1.500000*%
%ADD13R,2.500000X0.500000*%
%ADD14R,2.500000X2.000000*%
%ADD15R,0.400000X1.499997*%
%ADD16R,0.635000X1.270000*%
%ADD17C,1.879600*%
%ADD18R,0.400000X1.000000*%
%ADD19R,2.300000X1.600000*%
%ADD20C,0.406400*%
%ADD21C,0.858000*%
%ADD22C,0.203200*%
%ADD23C,0.254000*%

G36*
X435026Y2003D02*
X435026Y2003D01*
X435044Y2001D01*
X435226Y2022D01*
X435409Y2041D01*
X435426Y2046D01*
X435443Y2048D01*
X435618Y2105D01*
X435794Y2159D01*
X435809Y2167D01*
X435826Y2173D01*
X435986Y2263D01*
X436148Y2351D01*
X436161Y2362D01*
X436177Y2371D01*
X436316Y2491D01*
X436457Y2608D01*
X436468Y2622D01*
X436482Y2634D01*
X436594Y2779D01*
X436709Y2922D01*
X436717Y2938D01*
X436728Y2952D01*
X436810Y3117D01*
X436895Y3279D01*
X436900Y3296D01*
X436908Y3312D01*
X436955Y3491D01*
X437006Y3666D01*
X437008Y3684D01*
X437012Y3701D01*
X437039Y4032D01*
X437039Y154189D01*
X437038Y154198D01*
X437039Y154207D01*
X437018Y154399D01*
X436999Y154590D01*
X436997Y154598D01*
X436996Y154607D01*
X436939Y154787D01*
X436881Y154975D01*
X436877Y154983D01*
X436874Y154991D01*
X436781Y155159D01*
X436689Y155329D01*
X436684Y155335D01*
X436679Y155343D01*
X436554Y155491D01*
X436432Y155638D01*
X436425Y155643D01*
X436419Y155650D01*
X436267Y155770D01*
X436118Y155890D01*
X436110Y155894D01*
X436103Y155900D01*
X435931Y155987D01*
X435761Y156076D01*
X435752Y156078D01*
X435744Y156082D01*
X435558Y156134D01*
X435374Y156187D01*
X435365Y156188D01*
X435356Y156190D01*
X435164Y156204D01*
X434972Y156220D01*
X434964Y156219D01*
X434955Y156220D01*
X434762Y156195D01*
X434573Y156173D01*
X434564Y156170D01*
X434555Y156169D01*
X434372Y156108D01*
X434190Y156048D01*
X434182Y156044D01*
X434174Y156041D01*
X434008Y155946D01*
X433839Y155850D01*
X433832Y155845D01*
X433825Y155840D01*
X433572Y155625D01*
X432252Y154305D01*
X411220Y154305D01*
X411193Y154303D01*
X411166Y154305D01*
X410993Y154283D01*
X410819Y154265D01*
X410794Y154258D01*
X410767Y154254D01*
X410601Y154199D01*
X410434Y154147D01*
X410411Y154134D01*
X410385Y154126D01*
X410234Y154039D01*
X410080Y153955D01*
X410060Y153938D01*
X410036Y153925D01*
X409783Y153710D01*
X405476Y149403D01*
X403695Y147622D01*
X403690Y147615D01*
X403683Y147610D01*
X403563Y147460D01*
X403440Y147311D01*
X403436Y147303D01*
X403431Y147296D01*
X403342Y147126D01*
X403252Y146955D01*
X403249Y146946D01*
X403245Y146939D01*
X403192Y146754D01*
X403137Y146569D01*
X403136Y146560D01*
X403134Y146552D01*
X403118Y146361D01*
X403101Y146168D01*
X403102Y146159D01*
X403101Y146150D01*
X403123Y145961D01*
X403144Y145768D01*
X403147Y145759D01*
X403148Y145751D01*
X403207Y145569D01*
X403265Y145384D01*
X403270Y145376D01*
X403273Y145368D01*
X403367Y145201D01*
X403460Y145032D01*
X403466Y145025D01*
X403470Y145017D01*
X403596Y144872D01*
X403721Y144725D01*
X403728Y144719D01*
X403734Y144712D01*
X403884Y144596D01*
X404037Y144475D01*
X404045Y144471D01*
X404052Y144466D01*
X404223Y144380D01*
X404396Y144293D01*
X404404Y144290D01*
X404412Y144286D01*
X404598Y144236D01*
X404783Y144185D01*
X404792Y144184D01*
X404801Y144182D01*
X405132Y144155D01*
X422542Y144155D01*
X423435Y143262D01*
X423435Y121998D01*
X422542Y121105D01*
X396278Y121105D01*
X395385Y121998D01*
X395385Y143262D01*
X395975Y143852D01*
X395981Y143859D01*
X395988Y143864D01*
X396108Y144014D01*
X396230Y144163D01*
X396235Y144171D01*
X396240Y144178D01*
X396328Y144346D01*
X396419Y144519D01*
X396422Y144528D01*
X396426Y144535D01*
X396479Y144720D01*
X396534Y144905D01*
X396535Y144914D01*
X396537Y144922D01*
X396553Y145113D01*
X396570Y145306D01*
X396569Y145315D01*
X396570Y145324D01*
X396548Y145513D01*
X396527Y145706D01*
X396524Y145715D01*
X396523Y145723D01*
X396464Y145905D01*
X396405Y146090D01*
X396401Y146098D01*
X396398Y146106D01*
X396304Y146273D01*
X396211Y146442D01*
X396205Y146449D01*
X396200Y146457D01*
X396075Y146602D01*
X395950Y146749D01*
X395943Y146755D01*
X395937Y146762D01*
X395787Y146878D01*
X395634Y146999D01*
X395626Y147003D01*
X395619Y147008D01*
X395448Y147093D01*
X395275Y147181D01*
X395267Y147184D01*
X395259Y147188D01*
X395073Y147237D01*
X394887Y147289D01*
X394878Y147290D01*
X394870Y147292D01*
X394539Y147319D01*
X369281Y147319D01*
X369272Y147318D01*
X369263Y147319D01*
X369071Y147298D01*
X368880Y147279D01*
X368872Y147277D01*
X368863Y147276D01*
X368681Y147218D01*
X368495Y147161D01*
X368487Y147157D01*
X368479Y147154D01*
X368311Y147061D01*
X368141Y146969D01*
X368135Y146964D01*
X368127Y146959D01*
X367979Y146834D01*
X367832Y146712D01*
X367827Y146705D01*
X367820Y146699D01*
X367700Y146548D01*
X367580Y146398D01*
X367576Y146390D01*
X367570Y146383D01*
X367483Y146212D01*
X367394Y146041D01*
X367392Y146032D01*
X367388Y146024D01*
X367336Y145839D01*
X367283Y145654D01*
X367282Y145645D01*
X367280Y145636D01*
X367266Y145444D01*
X367250Y145252D01*
X367251Y145244D01*
X367250Y145235D01*
X367275Y145042D01*
X367297Y144853D01*
X367300Y144844D01*
X367301Y144835D01*
X367362Y144652D01*
X367422Y144470D01*
X367426Y144462D01*
X367429Y144454D01*
X367525Y144286D01*
X367620Y144119D01*
X367625Y144112D01*
X367630Y144105D01*
X367845Y143852D01*
X368435Y143262D01*
X368435Y121998D01*
X367542Y121105D01*
X341278Y121105D01*
X340385Y121998D01*
X340385Y130241D01*
X340384Y130250D01*
X340385Y130259D01*
X340365Y130448D01*
X340345Y130642D01*
X340343Y130650D01*
X340342Y130659D01*
X340284Y130842D01*
X340227Y131027D01*
X340223Y131035D01*
X340220Y131043D01*
X340127Y131212D01*
X340035Y131381D01*
X340030Y131388D01*
X340025Y131396D01*
X339900Y131543D01*
X339778Y131690D01*
X339771Y131696D01*
X339765Y131703D01*
X339613Y131822D01*
X339464Y131942D01*
X339456Y131947D01*
X339449Y131952D01*
X339277Y132040D01*
X339107Y132128D01*
X339098Y132130D01*
X339090Y132134D01*
X338904Y132186D01*
X338720Y132239D01*
X338711Y132240D01*
X338702Y132242D01*
X338510Y132257D01*
X338318Y132272D01*
X338310Y132271D01*
X338301Y132272D01*
X338108Y132248D01*
X337919Y132225D01*
X337910Y132223D01*
X337901Y132221D01*
X337718Y132160D01*
X337536Y132100D01*
X337528Y132096D01*
X337520Y132093D01*
X337354Y131998D01*
X337185Y131903D01*
X337178Y131897D01*
X337171Y131892D01*
X336918Y131678D01*
X335339Y130099D01*
X334645Y129811D01*
X332829Y129059D01*
X330111Y129059D01*
X327601Y130099D01*
X325679Y132021D01*
X324639Y134531D01*
X324639Y137249D01*
X325679Y139759D01*
X327232Y141312D01*
X327237Y141319D01*
X327244Y141324D01*
X327364Y141474D01*
X327487Y141623D01*
X327491Y141631D01*
X327496Y141638D01*
X327585Y141808D01*
X327675Y141979D01*
X327678Y141988D01*
X327682Y141995D01*
X327735Y142180D01*
X327790Y142365D01*
X327791Y142374D01*
X327793Y142382D01*
X327809Y142573D01*
X327826Y142766D01*
X327826Y142775D01*
X327826Y142784D01*
X327804Y142973D01*
X327783Y143166D01*
X327780Y143175D01*
X327779Y143183D01*
X327720Y143365D01*
X327662Y143550D01*
X327657Y143558D01*
X327654Y143566D01*
X327560Y143733D01*
X327467Y143902D01*
X327461Y143909D01*
X327457Y143917D01*
X327331Y144062D01*
X327206Y144209D01*
X327199Y144215D01*
X327193Y144222D01*
X327043Y144338D01*
X326890Y144459D01*
X326882Y144463D01*
X326875Y144468D01*
X326704Y144554D01*
X326531Y144641D01*
X326523Y144644D01*
X326515Y144648D01*
X326329Y144698D01*
X326144Y144749D01*
X326135Y144750D01*
X326126Y144752D01*
X325795Y144779D01*
X283841Y144779D01*
X283814Y144777D01*
X283787Y144779D01*
X283613Y144757D01*
X283440Y144739D01*
X283414Y144732D01*
X283388Y144728D01*
X283222Y144673D01*
X283055Y144621D01*
X283031Y144608D01*
X283006Y144600D01*
X282854Y144513D01*
X282701Y144429D01*
X282681Y144412D01*
X282657Y144399D01*
X282404Y144184D01*
X255059Y116839D01*
X247015Y116839D01*
X246997Y116837D01*
X246979Y116839D01*
X246797Y116818D01*
X246614Y116799D01*
X246597Y116794D01*
X246580Y116792D01*
X246405Y116735D01*
X246229Y116681D01*
X246214Y116673D01*
X246197Y116667D01*
X246037Y116577D01*
X245875Y116489D01*
X245862Y116478D01*
X245846Y116469D01*
X245707Y116349D01*
X245566Y116232D01*
X245555Y116218D01*
X245541Y116206D01*
X245429Y116061D01*
X245314Y115918D01*
X245306Y115902D01*
X245295Y115888D01*
X245213Y115723D01*
X245128Y115561D01*
X245123Y115544D01*
X245115Y115528D01*
X245068Y115349D01*
X245017Y115174D01*
X245015Y115156D01*
X245011Y115139D01*
X244984Y114808D01*
X244984Y113792D01*
X244986Y113774D01*
X244984Y113756D01*
X245005Y113574D01*
X245024Y113391D01*
X245029Y113374D01*
X245031Y113357D01*
X245088Y113182D01*
X245142Y113006D01*
X245150Y112991D01*
X245156Y112974D01*
X245246Y112814D01*
X245334Y112652D01*
X245345Y112639D01*
X245354Y112623D01*
X245474Y112484D01*
X245591Y112343D01*
X245605Y112332D01*
X245617Y112318D01*
X245762Y112206D01*
X245905Y112091D01*
X245921Y112083D01*
X245935Y112072D01*
X246100Y111990D01*
X246262Y111905D01*
X246279Y111900D01*
X246295Y111892D01*
X246474Y111845D01*
X246649Y111794D01*
X246667Y111792D01*
X246684Y111788D01*
X247015Y111761D01*
X249986Y111761D01*
X266128Y95620D01*
X266148Y95603D01*
X266166Y95582D01*
X266304Y95475D01*
X266439Y95365D01*
X266463Y95352D01*
X266484Y95336D01*
X266641Y95258D01*
X266795Y95176D01*
X266820Y95168D01*
X266844Y95156D01*
X267014Y95111D01*
X267181Y95061D01*
X267207Y95059D01*
X267233Y95052D01*
X267564Y95025D01*
X294328Y95025D01*
X306231Y83122D01*
X306231Y77267D01*
X306233Y77240D01*
X306231Y77214D01*
X306253Y77039D01*
X306271Y76866D01*
X306278Y76841D01*
X306282Y76814D01*
X306337Y76648D01*
X306389Y76481D01*
X306402Y76458D01*
X306410Y76432D01*
X306497Y76281D01*
X306581Y76127D01*
X306598Y76107D01*
X306611Y76084D01*
X306826Y75831D01*
X307254Y75403D01*
X307267Y75391D01*
X307279Y75378D01*
X307423Y75264D01*
X307565Y75148D01*
X307581Y75139D01*
X307595Y75128D01*
X307759Y75045D01*
X307921Y74959D01*
X307938Y74954D01*
X307954Y74946D01*
X308131Y74896D01*
X308307Y74844D01*
X308325Y74842D01*
X308342Y74838D01*
X308525Y74824D01*
X308708Y74808D01*
X308726Y74810D01*
X308743Y74808D01*
X308925Y74831D01*
X309108Y74851D01*
X309125Y74857D01*
X309143Y74859D01*
X309316Y74917D01*
X309492Y74973D01*
X309508Y74981D01*
X309524Y74987D01*
X309684Y75079D01*
X309844Y75167D01*
X309858Y75179D01*
X309873Y75188D01*
X310126Y75403D01*
X311058Y76335D01*
X316322Y76335D01*
X317215Y75442D01*
X317215Y72898D01*
X317217Y72880D01*
X317215Y72862D01*
X317236Y72680D01*
X317255Y72497D01*
X317260Y72480D01*
X317262Y72463D01*
X317319Y72288D01*
X317373Y72112D01*
X317381Y72097D01*
X317387Y72080D01*
X317477Y71920D01*
X317565Y71758D01*
X317576Y71745D01*
X317585Y71729D01*
X317705Y71590D01*
X317822Y71449D01*
X317836Y71438D01*
X317848Y71424D01*
X317993Y71312D01*
X318136Y71197D01*
X318152Y71189D01*
X318166Y71178D01*
X318331Y71096D01*
X318493Y71011D01*
X318510Y71006D01*
X318526Y70998D01*
X318705Y70951D01*
X318880Y70900D01*
X318898Y70898D01*
X318915Y70894D01*
X319246Y70867D01*
X322783Y70867D01*
X327407Y66243D01*
X327407Y64611D01*
X327408Y64602D01*
X327407Y64593D01*
X327428Y64401D01*
X327447Y64210D01*
X327449Y64201D01*
X327450Y64193D01*
X327508Y64010D01*
X327565Y63825D01*
X327569Y63817D01*
X327572Y63809D01*
X327665Y63640D01*
X327757Y63471D01*
X327762Y63464D01*
X327767Y63456D01*
X327892Y63308D01*
X328014Y63162D01*
X328021Y63156D01*
X328027Y63149D01*
X328179Y63029D01*
X328328Y62909D01*
X328336Y62905D01*
X328343Y62900D01*
X328515Y62812D01*
X328685Y62724D01*
X328694Y62721D01*
X328702Y62717D01*
X328888Y62666D01*
X329072Y62613D01*
X329081Y62612D01*
X329090Y62609D01*
X329282Y62595D01*
X329474Y62580D01*
X329482Y62581D01*
X329491Y62580D01*
X329684Y62604D01*
X329873Y62627D01*
X329882Y62629D01*
X329891Y62630D01*
X330074Y62692D01*
X330256Y62751D01*
X330264Y62756D01*
X330272Y62759D01*
X330438Y62854D01*
X330607Y62949D01*
X330614Y62955D01*
X330621Y62960D01*
X330874Y63174D01*
X332681Y64981D01*
X332682Y64982D01*
X339790Y72090D01*
X339807Y72111D01*
X339828Y72128D01*
X339935Y72266D01*
X340045Y72402D01*
X340058Y72425D01*
X340074Y72447D01*
X340152Y72604D01*
X340234Y72758D01*
X340242Y72783D01*
X340254Y72807D01*
X340299Y72977D01*
X340349Y73143D01*
X340351Y73170D01*
X340358Y73196D01*
X340385Y73527D01*
X340385Y75322D01*
X340396Y75465D01*
X340412Y75648D01*
X340410Y75666D01*
X340412Y75685D01*
X340389Y75865D01*
X340385Y75897D01*
X340385Y76428D01*
X340383Y76454D01*
X340385Y76481D01*
X340363Y76655D01*
X340345Y76828D01*
X340338Y76854D01*
X340334Y76880D01*
X340279Y77046D01*
X340227Y77213D01*
X340214Y77237D01*
X340206Y77262D01*
X340119Y77414D01*
X340035Y77567D01*
X340018Y77588D01*
X340005Y77611D01*
X339790Y77864D01*
X317945Y99710D01*
X317924Y99727D01*
X317907Y99747D01*
X317769Y99854D01*
X317633Y99965D01*
X317610Y99977D01*
X317588Y99994D01*
X317432Y100072D01*
X317278Y100153D01*
X317252Y100161D01*
X317228Y100173D01*
X317059Y100218D01*
X316892Y100268D01*
X316865Y100270D01*
X316839Y100277D01*
X316508Y100305D01*
X312634Y100305D01*
X305245Y107693D01*
X305225Y107710D01*
X305207Y107730D01*
X305069Y107837D01*
X304934Y107948D01*
X304910Y107960D01*
X304889Y107977D01*
X304732Y108055D01*
X304578Y108136D01*
X304553Y108144D01*
X304528Y108156D01*
X304359Y108202D01*
X304192Y108251D01*
X304166Y108254D01*
X304140Y108261D01*
X303809Y108288D01*
X301058Y108288D01*
X300626Y108720D01*
X300562Y108772D01*
X300505Y108832D01*
X300407Y108900D01*
X300314Y108975D01*
X300242Y109014D01*
X300174Y109061D01*
X300064Y109108D01*
X299959Y109164D01*
X299880Y109188D01*
X299804Y109220D01*
X299687Y109245D01*
X299573Y109279D01*
X299491Y109286D01*
X299410Y109303D01*
X299291Y109304D01*
X299172Y109315D01*
X299090Y109306D01*
X299008Y109307D01*
X298890Y109285D01*
X298771Y109272D01*
X298693Y109247D01*
X298612Y109232D01*
X298502Y109186D01*
X298388Y109150D01*
X298315Y109110D01*
X298239Y109079D01*
X298140Y109013D01*
X298035Y108956D01*
X297972Y108902D01*
X297904Y108857D01*
X297819Y108772D01*
X297728Y108695D01*
X297677Y108631D01*
X297619Y108572D01*
X297532Y108447D01*
X297479Y108379D01*
X297460Y108343D01*
X297430Y108300D01*
X297403Y108252D01*
X296930Y107779D01*
X296351Y107445D01*
X295705Y107272D01*
X295401Y107272D01*
X295401Y117312D01*
X295401Y117313D01*
X295401Y127353D01*
X295705Y127353D01*
X296351Y127180D01*
X296930Y126845D01*
X297403Y126372D01*
X297430Y126325D01*
X297478Y126258D01*
X297518Y126187D01*
X297595Y126095D01*
X297665Y125998D01*
X297726Y125942D01*
X297779Y125880D01*
X297872Y125805D01*
X297960Y125724D01*
X298030Y125681D01*
X298095Y125630D01*
X298201Y125576D01*
X298303Y125513D01*
X298380Y125485D01*
X298453Y125448D01*
X298569Y125416D01*
X298681Y125374D01*
X298762Y125362D01*
X298841Y125340D01*
X298961Y125331D01*
X299079Y125313D01*
X299161Y125316D01*
X299243Y125310D01*
X299362Y125325D01*
X299481Y125331D01*
X299561Y125350D01*
X299642Y125361D01*
X299756Y125399D01*
X299872Y125428D01*
X299946Y125463D01*
X300024Y125489D01*
X300128Y125549D01*
X300236Y125600D01*
X300302Y125649D01*
X300373Y125690D01*
X300489Y125789D01*
X300559Y125840D01*
X300586Y125870D01*
X300626Y125905D01*
X301058Y126337D01*
X306322Y126337D01*
X307254Y125405D01*
X307267Y125394D01*
X307279Y125380D01*
X307424Y125266D01*
X307565Y125150D01*
X307581Y125142D01*
X307595Y125131D01*
X307759Y125047D01*
X307921Y124961D01*
X307938Y124956D01*
X307954Y124948D01*
X308131Y124899D01*
X308307Y124847D01*
X308325Y124845D01*
X308342Y124840D01*
X308525Y124827D01*
X308708Y124810D01*
X308726Y124812D01*
X308743Y124811D01*
X308925Y124834D01*
X309108Y124854D01*
X309125Y124859D01*
X309143Y124861D01*
X309316Y124919D01*
X309492Y124975D01*
X309508Y124984D01*
X309524Y124989D01*
X309683Y125081D01*
X309844Y125170D01*
X309858Y125181D01*
X309873Y125190D01*
X310126Y125405D01*
X311058Y126337D01*
X316322Y126337D01*
X317215Y125444D01*
X317215Y121766D01*
X317217Y121748D01*
X317215Y121730D01*
X317236Y121548D01*
X317255Y121365D01*
X317260Y121348D01*
X317262Y121330D01*
X317319Y121156D01*
X317373Y120980D01*
X317381Y120964D01*
X317387Y120947D01*
X317477Y120787D01*
X317565Y120626D01*
X317576Y120612D01*
X317585Y120597D01*
X317705Y120458D01*
X317822Y120317D01*
X317836Y120306D01*
X317848Y120292D01*
X317994Y120179D01*
X318136Y120064D01*
X318152Y120056D01*
X318166Y120045D01*
X318331Y119963D01*
X318493Y119879D01*
X318510Y119874D01*
X318526Y119866D01*
X318705Y119818D01*
X318870Y119771D01*
X327783Y110857D01*
X327783Y105468D01*
X327786Y105441D01*
X327784Y105414D01*
X327806Y105240D01*
X327823Y105067D01*
X327831Y105042D01*
X327834Y105015D01*
X327890Y104849D01*
X327941Y104682D01*
X327954Y104659D01*
X327963Y104633D01*
X328050Y104482D01*
X328133Y104328D01*
X328150Y104308D01*
X328164Y104284D01*
X328378Y104031D01*
X336918Y95492D01*
X336925Y95486D01*
X336930Y95479D01*
X337081Y95358D01*
X337229Y95237D01*
X337237Y95233D01*
X337244Y95227D01*
X337414Y95139D01*
X337585Y95048D01*
X337594Y95046D01*
X337601Y95042D01*
X337786Y94988D01*
X337971Y94933D01*
X337980Y94933D01*
X337988Y94930D01*
X338180Y94915D01*
X338372Y94897D01*
X338381Y94898D01*
X338390Y94897D01*
X338579Y94919D01*
X338772Y94940D01*
X338781Y94943D01*
X338789Y94944D01*
X338971Y95004D01*
X339156Y95062D01*
X339164Y95066D01*
X339172Y95069D01*
X339341Y95164D01*
X339508Y95257D01*
X339515Y95263D01*
X339523Y95267D01*
X339669Y95393D01*
X339815Y95517D01*
X339821Y95524D01*
X339828Y95530D01*
X339945Y95682D01*
X340065Y95833D01*
X340069Y95841D01*
X340074Y95848D01*
X340160Y96020D01*
X340247Y96192D01*
X340250Y96201D01*
X340254Y96209D01*
X340304Y96395D01*
X340355Y96580D01*
X340356Y96589D01*
X340358Y96598D01*
X340385Y96928D01*
X340385Y98220D01*
X340383Y98247D01*
X340385Y98274D01*
X340363Y98447D01*
X340345Y98621D01*
X340338Y98646D01*
X340334Y98673D01*
X340279Y98839D01*
X340227Y99006D01*
X340214Y99029D01*
X340206Y99055D01*
X340119Y99206D01*
X340035Y99360D01*
X340018Y99380D01*
X340005Y99404D01*
X339905Y99522D01*
X339542Y100149D01*
X339369Y100795D01*
X339369Y101599D01*
X354410Y101599D01*
X369451Y101599D01*
X369451Y100795D01*
X369278Y100149D01*
X368909Y99510D01*
X368885Y99480D01*
X368775Y99345D01*
X368762Y99321D01*
X368746Y99300D01*
X368668Y99143D01*
X368586Y98989D01*
X368578Y98964D01*
X368566Y98940D01*
X368521Y98770D01*
X368471Y98603D01*
X368469Y98577D01*
X368462Y98551D01*
X368435Y98220D01*
X368435Y91938D01*
X368424Y91795D01*
X368408Y91612D01*
X368410Y91594D01*
X368408Y91575D01*
X368431Y91395D01*
X368435Y91363D01*
X368435Y83937D01*
X368424Y83795D01*
X368408Y83613D01*
X368410Y83595D01*
X368408Y83577D01*
X368431Y83394D01*
X368435Y83363D01*
X368435Y75937D01*
X368424Y75795D01*
X368408Y75613D01*
X368410Y75595D01*
X368408Y75577D01*
X368431Y75394D01*
X368435Y75363D01*
X368435Y68498D01*
X367542Y67605D01*
X346207Y67605D01*
X346180Y67603D01*
X346153Y67605D01*
X345979Y67583D01*
X345806Y67565D01*
X345780Y67558D01*
X345754Y67554D01*
X345588Y67499D01*
X345421Y67447D01*
X345397Y67434D01*
X345372Y67426D01*
X345221Y67339D01*
X345067Y67255D01*
X345047Y67238D01*
X345023Y67225D01*
X344770Y67010D01*
X337712Y59952D01*
X337695Y59931D01*
X337674Y59914D01*
X337567Y59776D01*
X337457Y59640D01*
X337444Y59617D01*
X337428Y59595D01*
X337350Y59438D01*
X337268Y59284D01*
X337260Y59259D01*
X337248Y59235D01*
X337203Y59065D01*
X337153Y58899D01*
X337151Y58872D01*
X337144Y58846D01*
X337117Y58515D01*
X337117Y54897D01*
X337118Y54888D01*
X337117Y54879D01*
X337138Y54687D01*
X337157Y54496D01*
X337159Y54488D01*
X337160Y54479D01*
X337218Y54297D01*
X337275Y54111D01*
X337279Y54103D01*
X337282Y54095D01*
X337375Y53927D01*
X337467Y53757D01*
X337472Y53751D01*
X337477Y53743D01*
X337602Y53595D01*
X337724Y53448D01*
X337731Y53443D01*
X337737Y53436D01*
X337888Y53316D01*
X338038Y53196D01*
X338046Y53192D01*
X338053Y53186D01*
X338224Y53099D01*
X338395Y53010D01*
X338404Y53008D01*
X338412Y53004D01*
X338598Y52952D01*
X338782Y52899D01*
X338791Y52898D01*
X338800Y52896D01*
X338992Y52882D01*
X339184Y52866D01*
X339192Y52867D01*
X339201Y52866D01*
X339394Y52891D01*
X339583Y52913D01*
X339592Y52916D01*
X339601Y52917D01*
X339784Y52978D01*
X339966Y53038D01*
X339974Y53042D01*
X339982Y53045D01*
X340148Y53140D01*
X340317Y53236D01*
X340324Y53241D01*
X340331Y53246D01*
X340584Y53461D01*
X341278Y54155D01*
X367542Y54155D01*
X368435Y53262D01*
X368435Y31998D01*
X367542Y31105D01*
X340971Y31105D01*
X340962Y31104D01*
X340953Y31105D01*
X340760Y31084D01*
X340570Y31065D01*
X340562Y31063D01*
X340553Y31062D01*
X340369Y31004D01*
X340185Y30947D01*
X340177Y30943D01*
X340169Y30940D01*
X340001Y30848D01*
X339831Y30755D01*
X339824Y30750D01*
X339817Y30745D01*
X339670Y30621D01*
X339522Y30498D01*
X339517Y30491D01*
X339510Y30485D01*
X339390Y30333D01*
X339270Y30184D01*
X339266Y30176D01*
X339260Y30169D01*
X339172Y29996D01*
X339084Y29827D01*
X339082Y29818D01*
X339078Y29810D01*
X339026Y29624D01*
X338973Y29440D01*
X338972Y29431D01*
X338970Y29422D01*
X338956Y29229D01*
X338940Y29038D01*
X338941Y29030D01*
X338940Y29021D01*
X338965Y28828D01*
X338987Y28639D01*
X338990Y28630D01*
X338991Y28621D01*
X339052Y28438D01*
X339112Y28256D01*
X339116Y28248D01*
X339119Y28240D01*
X339215Y28073D01*
X339310Y27905D01*
X339315Y27898D01*
X339320Y27891D01*
X339535Y27638D01*
X347953Y19220D01*
X347973Y19203D01*
X347991Y19182D01*
X348129Y19075D01*
X348264Y18965D01*
X348288Y18952D01*
X348309Y18936D01*
X348466Y18858D01*
X348620Y18776D01*
X348645Y18768D01*
X348669Y18756D01*
X348839Y18711D01*
X349006Y18661D01*
X349032Y18659D01*
X349058Y18652D01*
X349389Y18625D01*
X352454Y18625D01*
X352472Y18627D01*
X352490Y18625D01*
X352672Y18646D01*
X352855Y18665D01*
X352872Y18670D01*
X352889Y18672D01*
X353064Y18729D01*
X353240Y18783D01*
X353255Y18791D01*
X353272Y18797D01*
X353432Y18887D01*
X353594Y18975D01*
X353607Y18986D01*
X353623Y18995D01*
X353762Y19115D01*
X353903Y19232D01*
X353914Y19246D01*
X353928Y19258D01*
X354040Y19403D01*
X354155Y19546D01*
X354163Y19562D01*
X354174Y19576D01*
X354256Y19741D01*
X354341Y19903D01*
X354346Y19920D01*
X354354Y19936D01*
X354401Y20115D01*
X354452Y20290D01*
X354454Y20308D01*
X354458Y20325D01*
X354485Y20656D01*
X354485Y23962D01*
X355378Y24855D01*
X369642Y24855D01*
X370574Y23923D01*
X370588Y23911D01*
X370599Y23898D01*
X370743Y23784D01*
X370885Y23668D01*
X370901Y23659D01*
X370915Y23648D01*
X371079Y23565D01*
X371241Y23479D01*
X371258Y23474D01*
X371274Y23466D01*
X371451Y23416D01*
X371627Y23364D01*
X371645Y23363D01*
X371662Y23358D01*
X371845Y23344D01*
X372028Y23328D01*
X372046Y23330D01*
X372063Y23328D01*
X372245Y23351D01*
X372428Y23371D01*
X372445Y23377D01*
X372463Y23379D01*
X372637Y23437D01*
X372812Y23493D01*
X372828Y23501D01*
X372844Y23507D01*
X373003Y23599D01*
X373164Y23687D01*
X373178Y23699D01*
X373193Y23708D01*
X373446Y23923D01*
X374378Y24855D01*
X388642Y24855D01*
X389535Y23962D01*
X389535Y20656D01*
X389537Y20638D01*
X389535Y20620D01*
X389556Y20438D01*
X389575Y20255D01*
X389580Y20238D01*
X389582Y20221D01*
X389639Y20046D01*
X389693Y19870D01*
X389701Y19855D01*
X389707Y19838D01*
X389797Y19678D01*
X389885Y19516D01*
X389896Y19503D01*
X389905Y19487D01*
X390025Y19348D01*
X390142Y19207D01*
X390156Y19196D01*
X390168Y19182D01*
X390313Y19070D01*
X390456Y18955D01*
X390472Y18947D01*
X390486Y18936D01*
X390651Y18854D01*
X390813Y18769D01*
X390830Y18764D01*
X390846Y18756D01*
X391025Y18709D01*
X391200Y18658D01*
X391218Y18656D01*
X391235Y18652D01*
X391566Y18625D01*
X393654Y18625D01*
X393672Y18627D01*
X393690Y18625D01*
X393872Y18646D01*
X394055Y18665D01*
X394072Y18670D01*
X394089Y18672D01*
X394264Y18729D01*
X394440Y18783D01*
X394455Y18791D01*
X394472Y18797D01*
X394632Y18887D01*
X394794Y18975D01*
X394807Y18986D01*
X394823Y18995D01*
X394962Y19115D01*
X395103Y19232D01*
X395114Y19246D01*
X395128Y19258D01*
X395240Y19403D01*
X395355Y19546D01*
X395363Y19562D01*
X395374Y19576D01*
X395456Y19741D01*
X395541Y19903D01*
X395546Y19920D01*
X395554Y19936D01*
X395601Y20115D01*
X395652Y20290D01*
X395654Y20308D01*
X395658Y20325D01*
X395685Y20656D01*
X395685Y21872D01*
X396578Y22765D01*
X409842Y22765D01*
X410735Y21872D01*
X410735Y8608D01*
X409842Y7715D01*
X396578Y7715D01*
X395685Y8608D01*
X395685Y11004D01*
X395683Y11022D01*
X395685Y11040D01*
X395664Y11222D01*
X395645Y11405D01*
X395640Y11422D01*
X395638Y11439D01*
X395581Y11614D01*
X395527Y11790D01*
X395519Y11805D01*
X395513Y11822D01*
X395423Y11982D01*
X395335Y12144D01*
X395324Y12157D01*
X395315Y12173D01*
X395195Y12312D01*
X395078Y12453D01*
X395064Y12464D01*
X395052Y12478D01*
X394907Y12590D01*
X394764Y12705D01*
X394748Y12713D01*
X394734Y12724D01*
X394569Y12806D01*
X394407Y12891D01*
X394390Y12896D01*
X394374Y12904D01*
X394195Y12951D01*
X394020Y13002D01*
X394002Y13004D01*
X393985Y13008D01*
X393654Y13035D01*
X391566Y13035D01*
X391548Y13033D01*
X391530Y13035D01*
X391348Y13014D01*
X391165Y12995D01*
X391148Y12990D01*
X391131Y12988D01*
X390956Y12931D01*
X390780Y12877D01*
X390765Y12869D01*
X390748Y12863D01*
X390588Y12773D01*
X390426Y12685D01*
X390413Y12674D01*
X390397Y12665D01*
X390258Y12545D01*
X390117Y12428D01*
X390106Y12414D01*
X390092Y12402D01*
X389980Y12257D01*
X389865Y12114D01*
X389857Y12098D01*
X389846Y12084D01*
X389764Y11919D01*
X389679Y11757D01*
X389674Y11740D01*
X389666Y11724D01*
X389619Y11545D01*
X389568Y11370D01*
X389566Y11352D01*
X389562Y11335D01*
X389535Y11004D01*
X389535Y7698D01*
X388642Y6805D01*
X374378Y6805D01*
X373446Y7737D01*
X373433Y7749D01*
X373421Y7762D01*
X373276Y7877D01*
X373135Y7992D01*
X373119Y8001D01*
X373105Y8012D01*
X372941Y8095D01*
X372779Y8181D01*
X372762Y8186D01*
X372746Y8194D01*
X372569Y8244D01*
X372393Y8296D01*
X372375Y8297D01*
X372358Y8302D01*
X372175Y8316D01*
X371992Y8332D01*
X371974Y8330D01*
X371957Y8332D01*
X371775Y8309D01*
X371592Y8289D01*
X371575Y8283D01*
X371557Y8281D01*
X371384Y8223D01*
X371208Y8167D01*
X371192Y8159D01*
X371176Y8153D01*
X371017Y8062D01*
X370856Y7973D01*
X370842Y7961D01*
X370827Y7952D01*
X370574Y7737D01*
X369642Y6805D01*
X355378Y6805D01*
X354485Y7698D01*
X354485Y11004D01*
X354483Y11022D01*
X354485Y11040D01*
X354464Y11222D01*
X354445Y11405D01*
X354440Y11422D01*
X354438Y11439D01*
X354381Y11614D01*
X354327Y11790D01*
X354319Y11805D01*
X354313Y11822D01*
X354223Y11982D01*
X354135Y12144D01*
X354124Y12157D01*
X354115Y12173D01*
X353995Y12312D01*
X353878Y12453D01*
X353864Y12464D01*
X353852Y12478D01*
X353707Y12590D01*
X353564Y12705D01*
X353548Y12713D01*
X353534Y12724D01*
X353369Y12806D01*
X353207Y12891D01*
X353190Y12896D01*
X353174Y12904D01*
X352995Y12951D01*
X352820Y13002D01*
X352802Y13004D01*
X352785Y13008D01*
X352454Y13035D01*
X346232Y13035D01*
X339510Y19757D01*
X339503Y19763D01*
X339498Y19770D01*
X339348Y19890D01*
X339199Y20012D01*
X339191Y20017D01*
X339184Y20022D01*
X339014Y20111D01*
X338843Y20201D01*
X338834Y20204D01*
X338827Y20208D01*
X338642Y20261D01*
X338457Y20316D01*
X338448Y20317D01*
X338440Y20319D01*
X338248Y20335D01*
X338056Y20352D01*
X338047Y20351D01*
X338038Y20352D01*
X337849Y20330D01*
X337656Y20309D01*
X337647Y20306D01*
X337639Y20305D01*
X337457Y20246D01*
X337272Y20187D01*
X337264Y20183D01*
X337256Y20180D01*
X337087Y20085D01*
X336920Y19993D01*
X336913Y19987D01*
X336905Y19982D01*
X336759Y19856D01*
X336613Y19732D01*
X336607Y19725D01*
X336600Y19719D01*
X336483Y19568D01*
X336363Y19416D01*
X336359Y19408D01*
X336354Y19401D01*
X336268Y19229D01*
X336181Y19057D01*
X336178Y19049D01*
X336174Y19041D01*
X336124Y18854D01*
X336073Y18669D01*
X336072Y18660D01*
X336070Y18652D01*
X336043Y18321D01*
X336043Y14337D01*
X334380Y10323D01*
X331307Y7250D01*
X328068Y5909D01*
X328065Y5907D01*
X328060Y5905D01*
X327888Y5812D01*
X327714Y5718D01*
X327710Y5716D01*
X327706Y5713D01*
X327557Y5589D01*
X327403Y5462D01*
X327400Y5459D01*
X327397Y5456D01*
X327272Y5300D01*
X327149Y5149D01*
X327147Y5145D01*
X327145Y5142D01*
X327055Y4969D01*
X326962Y4793D01*
X326961Y4789D01*
X326959Y4785D01*
X326905Y4596D01*
X326849Y4406D01*
X326849Y4402D01*
X326848Y4398D01*
X326831Y4200D01*
X326815Y4005D01*
X326815Y4001D01*
X326815Y3996D01*
X326838Y3798D01*
X326860Y3605D01*
X326861Y3601D01*
X326862Y3597D01*
X326922Y3411D01*
X326983Y3222D01*
X326985Y3218D01*
X326987Y3214D01*
X327084Y3041D01*
X327179Y2870D01*
X327182Y2867D01*
X327184Y2863D01*
X327313Y2714D01*
X327441Y2565D01*
X327445Y2562D01*
X327448Y2558D01*
X327602Y2438D01*
X327758Y2316D01*
X327762Y2314D01*
X327766Y2312D01*
X327944Y2223D01*
X328118Y2136D01*
X328122Y2134D01*
X328126Y2132D01*
X328318Y2081D01*
X328506Y2029D01*
X328511Y2029D01*
X328515Y2028D01*
X328846Y2001D01*
X435008Y2001D01*
X435026Y2003D01*
G37*
G36*
X41999Y2001D02*
X41999Y2001D01*
X42003Y2001D01*
X42197Y2021D01*
X42395Y2041D01*
X42399Y2042D01*
X42404Y2042D01*
X42589Y2100D01*
X42780Y2159D01*
X42784Y2161D01*
X42788Y2162D01*
X42960Y2256D01*
X43134Y2351D01*
X43137Y2353D01*
X43141Y2356D01*
X43292Y2483D01*
X43443Y2608D01*
X43446Y2612D01*
X43449Y2615D01*
X43573Y2769D01*
X43695Y2922D01*
X43697Y2926D01*
X43700Y2929D01*
X43790Y3104D01*
X43881Y3279D01*
X43882Y3284D01*
X43884Y3288D01*
X43937Y3475D01*
X43992Y3666D01*
X43993Y3671D01*
X43994Y3675D01*
X44009Y3868D01*
X44025Y4068D01*
X44025Y4072D01*
X44025Y4076D01*
X44002Y4267D01*
X43978Y4467D01*
X43977Y4472D01*
X43976Y4476D01*
X43915Y4661D01*
X43853Y4850D01*
X43851Y4854D01*
X43850Y4858D01*
X43752Y5030D01*
X43656Y5201D01*
X43653Y5204D01*
X43650Y5208D01*
X43519Y5359D01*
X43392Y5505D01*
X43389Y5508D01*
X43386Y5512D01*
X43229Y5632D01*
X43074Y5752D01*
X43070Y5754D01*
X43067Y5757D01*
X42772Y5909D01*
X39533Y7250D01*
X36460Y10323D01*
X34797Y14337D01*
X34797Y18683D01*
X36460Y22697D01*
X39533Y25770D01*
X43547Y27433D01*
X47893Y27433D01*
X51907Y25770D01*
X52116Y25561D01*
X52129Y25550D01*
X52141Y25537D01*
X52286Y25422D01*
X52427Y25306D01*
X52443Y25298D01*
X52457Y25287D01*
X52621Y25204D01*
X52783Y25118D01*
X52800Y25113D01*
X52816Y25105D01*
X52992Y25055D01*
X53169Y25003D01*
X53187Y25001D01*
X53204Y24997D01*
X53387Y24983D01*
X53570Y24967D01*
X53587Y24968D01*
X53605Y24967D01*
X53788Y24990D01*
X53970Y25010D01*
X53987Y25015D01*
X54005Y25018D01*
X54179Y25076D01*
X54354Y25131D01*
X54369Y25140D01*
X54386Y25146D01*
X54546Y25238D01*
X54706Y25326D01*
X54720Y25338D01*
X54735Y25347D01*
X54988Y25561D01*
X68638Y39211D01*
X95638Y39211D01*
X95665Y39213D01*
X95692Y39211D01*
X95865Y39233D01*
X96039Y39251D01*
X96064Y39258D01*
X96091Y39262D01*
X96257Y39317D01*
X96424Y39369D01*
X96447Y39382D01*
X96473Y39390D01*
X96624Y39477D01*
X96778Y39561D01*
X96798Y39578D01*
X96822Y39591D01*
X97075Y39806D01*
X117256Y59987D01*
X117273Y60008D01*
X117294Y60026D01*
X117401Y60164D01*
X117511Y60299D01*
X117524Y60323D01*
X117540Y60344D01*
X117618Y60501D01*
X117700Y60655D01*
X117708Y60680D01*
X117720Y60704D01*
X117765Y60874D01*
X117815Y61041D01*
X117817Y61067D01*
X117824Y61093D01*
X117851Y61424D01*
X117851Y68583D01*
X117849Y68610D01*
X117851Y68636D01*
X117829Y68810D01*
X117811Y68984D01*
X117803Y69009D01*
X117800Y69036D01*
X117745Y69201D01*
X117693Y69369D01*
X117680Y69392D01*
X117672Y69418D01*
X117585Y69569D01*
X117501Y69723D01*
X117484Y69743D01*
X117471Y69766D01*
X117256Y70019D01*
X116867Y70408D01*
X116867Y81672D01*
X117256Y82061D01*
X117273Y82081D01*
X117294Y82099D01*
X117400Y82236D01*
X117511Y82372D01*
X117524Y82396D01*
X117540Y82417D01*
X117618Y82573D01*
X117700Y82728D01*
X117708Y82753D01*
X117720Y82777D01*
X117765Y82947D01*
X117815Y83114D01*
X117817Y83140D01*
X117824Y83166D01*
X117851Y83497D01*
X117851Y84712D01*
X118833Y85694D01*
X118847Y85712D01*
X118864Y85726D01*
X118975Y85867D01*
X119088Y86006D01*
X119099Y86025D01*
X119112Y86043D01*
X119193Y86203D01*
X119277Y86361D01*
X119283Y86383D01*
X119293Y86403D01*
X119340Y86575D01*
X119392Y86747D01*
X119394Y86770D01*
X119400Y86791D01*
X119412Y86970D01*
X119428Y87148D01*
X119426Y87171D01*
X119427Y87193D01*
X119404Y87371D01*
X119385Y87549D01*
X119378Y87570D01*
X119375Y87592D01*
X119273Y87908D01*
X118899Y88811D01*
X118899Y91529D01*
X119803Y93711D01*
X119807Y93724D01*
X119813Y93735D01*
X119865Y93915D01*
X119920Y94096D01*
X119921Y94109D01*
X119925Y94122D01*
X119940Y94310D01*
X119958Y94497D01*
X119956Y94510D01*
X119957Y94524D01*
X119936Y94710D01*
X119916Y94897D01*
X119912Y94910D01*
X119910Y94923D01*
X119852Y95102D01*
X119796Y95282D01*
X119790Y95293D01*
X119786Y95306D01*
X119693Y95470D01*
X119603Y95635D01*
X119594Y95645D01*
X119588Y95657D01*
X119465Y95799D01*
X119344Y95943D01*
X119333Y95951D01*
X119325Y95962D01*
X119177Y96076D01*
X119029Y96194D01*
X119017Y96200D01*
X119006Y96208D01*
X118838Y96292D01*
X118671Y96378D01*
X118658Y96382D01*
X118646Y96388D01*
X118463Y96437D01*
X118283Y96488D01*
X118270Y96489D01*
X118257Y96492D01*
X117926Y96519D01*
X92928Y96519D01*
X86359Y103088D01*
X86359Y110424D01*
X86357Y110442D01*
X86359Y110460D01*
X86338Y110642D01*
X86319Y110825D01*
X86314Y110842D01*
X86312Y110859D01*
X86255Y111034D01*
X86201Y111210D01*
X86193Y111225D01*
X86187Y111242D01*
X86097Y111402D01*
X86009Y111564D01*
X85998Y111577D01*
X85989Y111593D01*
X85869Y111732D01*
X85752Y111873D01*
X85738Y111884D01*
X85726Y111898D01*
X85581Y112010D01*
X85438Y112125D01*
X85422Y112133D01*
X85408Y112144D01*
X85243Y112226D01*
X85081Y112311D01*
X85064Y112316D01*
X85048Y112324D01*
X84869Y112371D01*
X84694Y112422D01*
X84676Y112424D01*
X84659Y112428D01*
X84328Y112455D01*
X80268Y112455D01*
X79375Y113348D01*
X79375Y125810D01*
X79374Y125823D01*
X79375Y125837D01*
X79354Y126023D01*
X79335Y126211D01*
X79331Y126223D01*
X79330Y126237D01*
X79272Y126416D01*
X79217Y126595D01*
X79211Y126607D01*
X79207Y126620D01*
X79115Y126785D01*
X79025Y126949D01*
X79017Y126960D01*
X79010Y126971D01*
X78888Y127114D01*
X78768Y127259D01*
X78757Y127267D01*
X78749Y127277D01*
X78601Y127393D01*
X78454Y127511D01*
X78442Y127517D01*
X78432Y127525D01*
X78263Y127610D01*
X78097Y127697D01*
X78084Y127700D01*
X78072Y127706D01*
X77891Y127756D01*
X77710Y127808D01*
X77696Y127809D01*
X77683Y127813D01*
X77495Y127826D01*
X77308Y127841D01*
X77295Y127839D01*
X77282Y127840D01*
X77094Y127816D01*
X76909Y127794D01*
X76896Y127790D01*
X76883Y127788D01*
X76567Y127687D01*
X73749Y126519D01*
X71031Y126519D01*
X68521Y127559D01*
X66599Y129481D01*
X65559Y131991D01*
X65559Y134709D01*
X65590Y134783D01*
X65597Y134805D01*
X65607Y134825D01*
X65655Y134997D01*
X65707Y135169D01*
X65709Y135191D01*
X65715Y135212D01*
X65728Y135392D01*
X65745Y135570D01*
X65742Y135592D01*
X65744Y135614D01*
X65722Y135792D01*
X65703Y135970D01*
X65696Y135991D01*
X65694Y136013D01*
X65637Y136183D01*
X65583Y136354D01*
X65573Y136374D01*
X65565Y136395D01*
X65476Y136551D01*
X65390Y136708D01*
X65376Y136725D01*
X65365Y136744D01*
X65150Y136997D01*
X44755Y157392D01*
X44734Y157409D01*
X44716Y157430D01*
X44578Y157537D01*
X44443Y157647D01*
X44419Y157660D01*
X44398Y157676D01*
X44241Y157754D01*
X44087Y157836D01*
X44062Y157844D01*
X44038Y157856D01*
X43868Y157901D01*
X43701Y157951D01*
X43675Y157953D01*
X43649Y157960D01*
X43604Y157964D01*
X39533Y159650D01*
X36460Y162723D01*
X34797Y166737D01*
X34797Y171083D01*
X36460Y175097D01*
X39533Y178170D01*
X41241Y178877D01*
X41241Y178878D01*
X43547Y179833D01*
X47893Y179833D01*
X51907Y178170D01*
X54980Y175097D01*
X56543Y171323D01*
X56548Y171315D01*
X56550Y171306D01*
X56642Y171138D01*
X56734Y170968D01*
X56739Y170961D01*
X56744Y170953D01*
X56867Y170807D01*
X56990Y170657D01*
X56997Y170652D01*
X57003Y170645D01*
X57153Y170525D01*
X57303Y170404D01*
X57311Y170399D01*
X57317Y170394D01*
X57489Y170306D01*
X57659Y170217D01*
X57668Y170214D01*
X57676Y170210D01*
X57860Y170158D01*
X58046Y170103D01*
X58054Y170103D01*
X58063Y170100D01*
X58254Y170085D01*
X58447Y170069D01*
X58456Y170070D01*
X58464Y170069D01*
X58655Y170092D01*
X58847Y170114D01*
X58855Y170117D01*
X58864Y170118D01*
X59047Y170178D01*
X59230Y170237D01*
X59238Y170241D01*
X59246Y170244D01*
X59414Y170340D01*
X59582Y170433D01*
X59588Y170439D01*
X59596Y170444D01*
X59741Y170570D01*
X59887Y170695D01*
X59893Y170702D01*
X59900Y170708D01*
X60017Y170860D01*
X60136Y171012D01*
X60140Y171020D01*
X60145Y171027D01*
X60297Y171323D01*
X61860Y175097D01*
X64933Y178170D01*
X66641Y178877D01*
X66641Y178878D01*
X68947Y179833D01*
X73293Y179833D01*
X77307Y178170D01*
X80380Y175097D01*
X81943Y171323D01*
X81948Y171315D01*
X81950Y171306D01*
X82042Y171138D01*
X82134Y170968D01*
X82139Y170961D01*
X82144Y170953D01*
X82267Y170807D01*
X82390Y170657D01*
X82397Y170652D01*
X82403Y170645D01*
X82553Y170525D01*
X82703Y170404D01*
X82711Y170399D01*
X82717Y170394D01*
X82889Y170306D01*
X83059Y170217D01*
X83068Y170214D01*
X83076Y170210D01*
X83260Y170158D01*
X83446Y170103D01*
X83454Y170103D01*
X83463Y170100D01*
X83654Y170085D01*
X83847Y170069D01*
X83856Y170070D01*
X83864Y170069D01*
X84055Y170092D01*
X84247Y170114D01*
X84255Y170117D01*
X84264Y170118D01*
X84447Y170178D01*
X84630Y170237D01*
X84638Y170241D01*
X84646Y170244D01*
X84814Y170340D01*
X84982Y170433D01*
X84988Y170439D01*
X84996Y170444D01*
X85141Y170570D01*
X85287Y170695D01*
X85293Y170702D01*
X85300Y170708D01*
X85417Y170860D01*
X85536Y171012D01*
X85540Y171020D01*
X85545Y171027D01*
X85697Y171323D01*
X87260Y175097D01*
X90333Y178170D01*
X92041Y178877D01*
X92041Y178878D01*
X94347Y179833D01*
X98693Y179833D01*
X102707Y178170D01*
X105780Y175097D01*
X107343Y171323D01*
X107348Y171315D01*
X107350Y171306D01*
X107442Y171138D01*
X107534Y170968D01*
X107539Y170961D01*
X107544Y170953D01*
X107667Y170807D01*
X107790Y170657D01*
X107797Y170652D01*
X107803Y170645D01*
X107953Y170525D01*
X108103Y170404D01*
X108111Y170399D01*
X108117Y170394D01*
X108289Y170306D01*
X108459Y170217D01*
X108468Y170214D01*
X108476Y170210D01*
X108660Y170158D01*
X108846Y170103D01*
X108854Y170103D01*
X108863Y170100D01*
X109054Y170085D01*
X109247Y170069D01*
X109256Y170070D01*
X109264Y170069D01*
X109455Y170092D01*
X109647Y170114D01*
X109655Y170117D01*
X109664Y170118D01*
X109847Y170178D01*
X110030Y170237D01*
X110038Y170241D01*
X110046Y170244D01*
X110214Y170340D01*
X110382Y170433D01*
X110388Y170439D01*
X110396Y170444D01*
X110541Y170570D01*
X110687Y170695D01*
X110693Y170702D01*
X110700Y170708D01*
X110817Y170860D01*
X110936Y171012D01*
X110940Y171020D01*
X110945Y171027D01*
X111097Y171323D01*
X112660Y175097D01*
X115733Y178170D01*
X117441Y178877D01*
X117441Y178878D01*
X119747Y179833D01*
X124093Y179833D01*
X128107Y178170D01*
X131180Y175097D01*
X132743Y171323D01*
X132748Y171315D01*
X132750Y171306D01*
X132842Y171138D01*
X132934Y170968D01*
X132939Y170961D01*
X132944Y170953D01*
X133067Y170807D01*
X133190Y170657D01*
X133197Y170652D01*
X133203Y170645D01*
X133353Y170525D01*
X133503Y170404D01*
X133511Y170399D01*
X133517Y170394D01*
X133689Y170306D01*
X133859Y170217D01*
X133868Y170214D01*
X133876Y170210D01*
X134060Y170158D01*
X134246Y170103D01*
X134254Y170103D01*
X134263Y170100D01*
X134454Y170085D01*
X134647Y170069D01*
X134656Y170070D01*
X134664Y170069D01*
X134855Y170092D01*
X135047Y170114D01*
X135055Y170117D01*
X135064Y170118D01*
X135247Y170178D01*
X135430Y170237D01*
X135438Y170241D01*
X135446Y170244D01*
X135614Y170340D01*
X135782Y170433D01*
X135788Y170439D01*
X135796Y170444D01*
X135941Y170570D01*
X136087Y170695D01*
X136093Y170702D01*
X136100Y170708D01*
X136217Y170860D01*
X136336Y171012D01*
X136340Y171020D01*
X136345Y171027D01*
X136497Y171323D01*
X138060Y175097D01*
X141133Y178170D01*
X142841Y178877D01*
X142841Y178878D01*
X145147Y179833D01*
X149493Y179833D01*
X153507Y178170D01*
X156580Y175097D01*
X158143Y171323D01*
X158148Y171315D01*
X158150Y171306D01*
X158242Y171138D01*
X158334Y170968D01*
X158339Y170961D01*
X158344Y170953D01*
X158467Y170807D01*
X158590Y170657D01*
X158597Y170652D01*
X158603Y170645D01*
X158753Y170525D01*
X158903Y170404D01*
X158911Y170399D01*
X158917Y170394D01*
X159089Y170306D01*
X159259Y170217D01*
X159268Y170214D01*
X159276Y170210D01*
X159460Y170158D01*
X159646Y170103D01*
X159654Y170103D01*
X159663Y170100D01*
X159854Y170085D01*
X160047Y170069D01*
X160056Y170070D01*
X160064Y170069D01*
X160255Y170092D01*
X160447Y170114D01*
X160455Y170117D01*
X160464Y170118D01*
X160647Y170178D01*
X160830Y170237D01*
X160838Y170241D01*
X160846Y170244D01*
X161014Y170340D01*
X161182Y170433D01*
X161188Y170439D01*
X161196Y170444D01*
X161341Y170570D01*
X161487Y170695D01*
X161493Y170702D01*
X161500Y170708D01*
X161617Y170860D01*
X161736Y171012D01*
X161740Y171020D01*
X161745Y171027D01*
X161897Y171323D01*
X163460Y175097D01*
X166533Y178170D01*
X168241Y178877D01*
X168241Y178878D01*
X170547Y179833D01*
X174893Y179833D01*
X178907Y178170D01*
X181980Y175097D01*
X183543Y171323D01*
X183548Y171315D01*
X183550Y171306D01*
X183642Y171138D01*
X183734Y170968D01*
X183739Y170961D01*
X183744Y170953D01*
X183867Y170807D01*
X183990Y170657D01*
X183997Y170652D01*
X184003Y170645D01*
X184153Y170525D01*
X184303Y170404D01*
X184311Y170399D01*
X184317Y170394D01*
X184489Y170306D01*
X184659Y170217D01*
X184668Y170214D01*
X184676Y170210D01*
X184860Y170158D01*
X185046Y170103D01*
X185054Y170103D01*
X185063Y170100D01*
X185254Y170085D01*
X185447Y170069D01*
X185456Y170070D01*
X185464Y170069D01*
X185655Y170092D01*
X185847Y170114D01*
X185855Y170117D01*
X185864Y170118D01*
X186047Y170178D01*
X186230Y170237D01*
X186238Y170241D01*
X186246Y170244D01*
X186414Y170340D01*
X186582Y170433D01*
X186588Y170439D01*
X186596Y170444D01*
X186741Y170570D01*
X186887Y170695D01*
X186893Y170702D01*
X186900Y170708D01*
X187017Y170860D01*
X187136Y171012D01*
X187140Y171020D01*
X187145Y171027D01*
X187297Y171323D01*
X188860Y175097D01*
X191933Y178170D01*
X193641Y178877D01*
X193641Y178878D01*
X195947Y179833D01*
X200293Y179833D01*
X204307Y178170D01*
X207380Y175097D01*
X208943Y171323D01*
X208948Y171315D01*
X208950Y171306D01*
X209042Y171138D01*
X209134Y170968D01*
X209139Y170961D01*
X209144Y170953D01*
X209267Y170807D01*
X209390Y170657D01*
X209397Y170652D01*
X209403Y170645D01*
X209553Y170525D01*
X209703Y170404D01*
X209711Y170399D01*
X209717Y170394D01*
X209889Y170306D01*
X210059Y170217D01*
X210068Y170214D01*
X210076Y170210D01*
X210260Y170158D01*
X210446Y170103D01*
X210454Y170103D01*
X210463Y170100D01*
X210654Y170085D01*
X210847Y170069D01*
X210856Y170070D01*
X210864Y170069D01*
X211055Y170092D01*
X211247Y170114D01*
X211255Y170117D01*
X211264Y170118D01*
X211447Y170178D01*
X211630Y170237D01*
X211638Y170241D01*
X211646Y170244D01*
X211814Y170340D01*
X211982Y170433D01*
X211988Y170439D01*
X211996Y170444D01*
X212141Y170570D01*
X212287Y170695D01*
X212293Y170702D01*
X212300Y170708D01*
X212417Y170860D01*
X212536Y171012D01*
X212540Y171020D01*
X212545Y171027D01*
X212697Y171323D01*
X214260Y175097D01*
X217333Y178170D01*
X219041Y178877D01*
X219041Y178878D01*
X221347Y179833D01*
X225693Y179833D01*
X229707Y178170D01*
X232780Y175097D01*
X234343Y171323D01*
X234348Y171315D01*
X234350Y171306D01*
X234442Y171138D01*
X234534Y170968D01*
X234539Y170961D01*
X234544Y170953D01*
X234667Y170807D01*
X234790Y170657D01*
X234797Y170652D01*
X234803Y170645D01*
X234953Y170525D01*
X235103Y170404D01*
X235111Y170399D01*
X235117Y170394D01*
X235289Y170306D01*
X235459Y170217D01*
X235468Y170214D01*
X235476Y170210D01*
X235660Y170158D01*
X235846Y170103D01*
X235854Y170103D01*
X235863Y170100D01*
X236054Y170085D01*
X236247Y170069D01*
X236256Y170070D01*
X236264Y170069D01*
X236455Y170092D01*
X236647Y170114D01*
X236655Y170117D01*
X236664Y170118D01*
X236847Y170178D01*
X237030Y170237D01*
X237038Y170241D01*
X237046Y170244D01*
X237214Y170340D01*
X237382Y170433D01*
X237388Y170439D01*
X237396Y170444D01*
X237541Y170570D01*
X237687Y170695D01*
X237693Y170702D01*
X237700Y170708D01*
X237817Y170860D01*
X237936Y171012D01*
X237940Y171020D01*
X237945Y171027D01*
X238097Y171323D01*
X239660Y175097D01*
X242733Y178170D01*
X244441Y178877D01*
X244441Y178878D01*
X246747Y179833D01*
X251093Y179833D01*
X255107Y178170D01*
X258180Y175097D01*
X259743Y171323D01*
X259748Y171315D01*
X259750Y171306D01*
X259842Y171138D01*
X259934Y170968D01*
X259939Y170961D01*
X259944Y170953D01*
X260067Y170807D01*
X260190Y170657D01*
X260197Y170652D01*
X260203Y170645D01*
X260353Y170525D01*
X260503Y170404D01*
X260511Y170399D01*
X260517Y170394D01*
X260689Y170306D01*
X260859Y170217D01*
X260868Y170214D01*
X260876Y170210D01*
X261060Y170158D01*
X261246Y170103D01*
X261254Y170103D01*
X261263Y170100D01*
X261454Y170085D01*
X261647Y170069D01*
X261656Y170070D01*
X261664Y170069D01*
X261855Y170092D01*
X262047Y170114D01*
X262055Y170117D01*
X262064Y170118D01*
X262247Y170178D01*
X262430Y170237D01*
X262438Y170241D01*
X262446Y170244D01*
X262614Y170340D01*
X262782Y170433D01*
X262788Y170439D01*
X262796Y170444D01*
X262941Y170570D01*
X263087Y170695D01*
X263093Y170702D01*
X263100Y170708D01*
X263217Y170860D01*
X263336Y171012D01*
X263340Y171020D01*
X263345Y171027D01*
X263497Y171323D01*
X265060Y175097D01*
X268133Y178170D01*
X269841Y178877D01*
X269841Y178878D01*
X272147Y179833D01*
X276493Y179833D01*
X280507Y178170D01*
X283580Y175097D01*
X284610Y172611D01*
X284652Y172533D01*
X284685Y172450D01*
X284747Y172356D01*
X284800Y172256D01*
X284856Y172188D01*
X284905Y172113D01*
X284984Y172033D01*
X285056Y171946D01*
X285125Y171890D01*
X285188Y171827D01*
X285281Y171763D01*
X285369Y171692D01*
X285447Y171651D01*
X285521Y171601D01*
X285625Y171558D01*
X285725Y171505D01*
X285811Y171480D01*
X285893Y171446D01*
X286003Y171424D01*
X286112Y171392D01*
X286200Y171384D01*
X286287Y171367D01*
X286401Y171367D01*
X286513Y171357D01*
X286601Y171367D01*
X286690Y171367D01*
X286801Y171390D01*
X286913Y171403D01*
X286998Y171430D01*
X287085Y171447D01*
X287189Y171491D01*
X287296Y171526D01*
X287374Y171569D01*
X287456Y171603D01*
X287549Y171667D01*
X287648Y171722D01*
X287715Y171780D01*
X287789Y171830D01*
X287868Y171910D01*
X287954Y171984D01*
X288008Y172054D01*
X288071Y172117D01*
X288132Y172212D01*
X288202Y172301D01*
X288242Y172380D01*
X288290Y172455D01*
X288345Y172585D01*
X288383Y172661D01*
X288395Y172705D01*
X288418Y172761D01*
X288656Y173493D01*
X289509Y175167D01*
X290614Y176688D01*
X291942Y178016D01*
X293463Y179121D01*
X295137Y179974D01*
X295421Y180066D01*
X295498Y180100D01*
X295579Y180125D01*
X295682Y180181D01*
X295789Y180228D01*
X295859Y180276D01*
X295933Y180317D01*
X296023Y180392D01*
X296119Y180459D01*
X296177Y180520D01*
X296242Y180574D01*
X296315Y180666D01*
X296396Y180751D01*
X296441Y180822D01*
X296494Y180888D01*
X296548Y180992D01*
X296611Y181092D01*
X296641Y181170D01*
X296680Y181245D01*
X296712Y181358D01*
X296754Y181468D01*
X296768Y181551D01*
X296791Y181632D01*
X296801Y181749D01*
X296820Y181865D01*
X296817Y181949D01*
X296824Y182034D01*
X296810Y182150D01*
X296806Y182267D01*
X296787Y182350D01*
X296777Y182433D01*
X296741Y182545D01*
X296714Y182659D01*
X296678Y182736D01*
X296652Y182816D01*
X296595Y182919D01*
X296546Y183025D01*
X296496Y183093D01*
X296454Y183167D01*
X296378Y183256D01*
X296309Y183351D01*
X296246Y183408D01*
X296191Y183472D01*
X296098Y183543D01*
X296012Y183623D01*
X295940Y183667D01*
X295873Y183718D01*
X295768Y183771D01*
X295668Y183831D01*
X295588Y183860D01*
X295513Y183898D01*
X295399Y183928D01*
X295289Y183968D01*
X295205Y183980D01*
X295124Y184002D01*
X294975Y184014D01*
X294891Y184027D01*
X294848Y184025D01*
X294793Y184029D01*
X4032Y184029D01*
X4014Y184027D01*
X3996Y184029D01*
X3814Y184008D01*
X3631Y183989D01*
X3614Y183984D01*
X3597Y183982D01*
X3422Y183925D01*
X3246Y183871D01*
X3231Y183863D01*
X3214Y183857D01*
X3054Y183767D01*
X2892Y183679D01*
X2879Y183668D01*
X2863Y183659D01*
X2724Y183539D01*
X2583Y183422D01*
X2572Y183408D01*
X2558Y183396D01*
X2446Y183251D01*
X2331Y183108D01*
X2323Y183092D01*
X2312Y183078D01*
X2230Y182913D01*
X2145Y182751D01*
X2140Y182734D01*
X2132Y182718D01*
X2085Y182539D01*
X2034Y182364D01*
X2032Y182346D01*
X2028Y182329D01*
X2001Y181998D01*
X2001Y109181D01*
X2005Y109139D01*
X2002Y109096D01*
X2025Y108939D01*
X2041Y108780D01*
X2053Y108740D01*
X2059Y108698D01*
X2112Y108547D01*
X2159Y108395D01*
X2179Y108358D01*
X2193Y108318D01*
X2275Y108181D01*
X2351Y108041D01*
X2378Y108009D01*
X2399Y107972D01*
X2506Y107854D01*
X2608Y107732D01*
X2641Y107705D01*
X2670Y107674D01*
X2798Y107579D01*
X2922Y107480D01*
X2960Y107460D01*
X2994Y107435D01*
X3138Y107367D01*
X3279Y107294D01*
X3320Y107282D01*
X3358Y107264D01*
X3513Y107227D01*
X3666Y107183D01*
X3708Y107179D01*
X3749Y107169D01*
X3909Y107163D01*
X4068Y107150D01*
X4109Y107155D01*
X4152Y107153D01*
X4309Y107178D01*
X4467Y107197D01*
X4507Y107210D01*
X4549Y107216D01*
X4699Y107272D01*
X4850Y107322D01*
X4887Y107342D01*
X4927Y107357D01*
X5062Y107441D01*
X5201Y107519D01*
X5233Y107547D01*
X5269Y107569D01*
X5385Y107678D01*
X5505Y107783D01*
X5531Y107816D01*
X5562Y107845D01*
X5655Y107975D01*
X5752Y108101D01*
X5771Y108139D01*
X5796Y108173D01*
X5860Y108318D01*
X5932Y108461D01*
X5943Y108502D01*
X5960Y108541D01*
X6025Y108808D01*
X6036Y108850D01*
X6037Y108857D01*
X6038Y108863D01*
X6135Y109476D01*
X6716Y111263D01*
X7569Y112937D01*
X8674Y114458D01*
X10002Y115786D01*
X11523Y116891D01*
X13197Y117744D01*
X13929Y117982D01*
X14011Y118018D01*
X14095Y118044D01*
X14194Y118098D01*
X14298Y118144D01*
X14371Y118195D01*
X14448Y118237D01*
X14535Y118310D01*
X14627Y118375D01*
X14689Y118439D01*
X14757Y118496D01*
X14827Y118585D01*
X14905Y118667D01*
X14952Y118742D01*
X15008Y118811D01*
X15059Y118912D01*
X15119Y119007D01*
X15151Y119090D01*
X15191Y119169D01*
X15222Y119278D01*
X15262Y119384D01*
X15277Y119472D01*
X15301Y119557D01*
X15310Y119669D01*
X15328Y119781D01*
X15325Y119870D01*
X15332Y119958D01*
X15319Y120070D01*
X15315Y120183D01*
X15294Y120270D01*
X15284Y120358D01*
X15248Y120465D01*
X15222Y120575D01*
X15185Y120656D01*
X15157Y120740D01*
X15101Y120838D01*
X15054Y120941D01*
X15002Y121013D01*
X14958Y121090D01*
X14883Y121175D01*
X14817Y121266D01*
X14752Y121326D01*
X14693Y121393D01*
X14604Y121462D01*
X14520Y121539D01*
X14444Y121585D01*
X14374Y121639D01*
X14248Y121703D01*
X14176Y121747D01*
X14133Y121763D01*
X14079Y121790D01*
X11593Y122820D01*
X8520Y125893D01*
X6857Y129907D01*
X6857Y134253D01*
X8520Y138267D01*
X11593Y141340D01*
X15607Y143003D01*
X19953Y143003D01*
X23967Y141340D01*
X27040Y138267D01*
X28703Y134253D01*
X28703Y129907D01*
X27040Y125893D01*
X23967Y122820D01*
X21481Y121790D01*
X21403Y121748D01*
X21320Y121715D01*
X21226Y121654D01*
X21126Y121600D01*
X21058Y121544D01*
X20984Y121495D01*
X20903Y121416D01*
X20816Y121344D01*
X20760Y121275D01*
X20697Y121213D01*
X20633Y121119D01*
X20562Y121031D01*
X20521Y120953D01*
X20471Y120879D01*
X20428Y120775D01*
X20375Y120675D01*
X20350Y120590D01*
X20316Y120508D01*
X20294Y120397D01*
X20262Y120288D01*
X20254Y120200D01*
X20237Y120113D01*
X20237Y120000D01*
X20227Y119887D01*
X20237Y119799D01*
X20237Y119710D01*
X20260Y119599D01*
X20273Y119487D01*
X20300Y119402D01*
X20317Y119316D01*
X20361Y119211D01*
X20396Y119104D01*
X20439Y119026D01*
X20473Y118944D01*
X20537Y118851D01*
X20592Y118752D01*
X20650Y118685D01*
X20700Y118611D01*
X20780Y118532D01*
X20854Y118446D01*
X20924Y118392D01*
X20987Y118330D01*
X21082Y118268D01*
X21171Y118198D01*
X21250Y118158D01*
X21325Y118110D01*
X21455Y118055D01*
X21531Y118017D01*
X21575Y118005D01*
X21631Y117982D01*
X22363Y117744D01*
X24037Y116891D01*
X25558Y115786D01*
X26886Y114458D01*
X27991Y112937D01*
X28844Y111263D01*
X29425Y109476D01*
X29465Y109219D01*
X18288Y109219D01*
X18270Y109217D01*
X18253Y109219D01*
X18070Y109198D01*
X17888Y109179D01*
X17871Y109174D01*
X17853Y109172D01*
X17678Y109115D01*
X17503Y109061D01*
X17487Y109053D01*
X17470Y109047D01*
X17310Y108957D01*
X17149Y108869D01*
X17135Y108858D01*
X17119Y108849D01*
X16980Y108729D01*
X16839Y108612D01*
X16828Y108598D01*
X16815Y108586D01*
X16702Y108441D01*
X16587Y108298D01*
X16579Y108282D01*
X16568Y108268D01*
X16486Y108103D01*
X16402Y107941D01*
X16397Y107924D01*
X16389Y107908D01*
X16341Y107729D01*
X16290Y107554D01*
X16289Y107536D01*
X16284Y107519D01*
X16257Y107188D01*
X16257Y106172D01*
X16259Y106154D01*
X16257Y106136D01*
X16279Y105954D01*
X16297Y105771D01*
X16302Y105754D01*
X16304Y105737D01*
X16361Y105562D01*
X16415Y105386D01*
X16423Y105371D01*
X16429Y105354D01*
X16519Y105194D01*
X16607Y105032D01*
X16618Y105019D01*
X16627Y105003D01*
X16747Y104864D01*
X16865Y104723D01*
X16878Y104712D01*
X16890Y104698D01*
X17035Y104586D01*
X17178Y104471D01*
X17194Y104463D01*
X17208Y104452D01*
X17373Y104370D01*
X17536Y104285D01*
X17553Y104280D01*
X17569Y104272D01*
X17747Y104224D01*
X17922Y104174D01*
X17940Y104172D01*
X17957Y104168D01*
X18288Y104141D01*
X29465Y104141D01*
X29425Y103884D01*
X28844Y102097D01*
X27991Y100423D01*
X26886Y98902D01*
X25558Y97574D01*
X24037Y96469D01*
X22363Y95616D01*
X21631Y95378D01*
X21549Y95342D01*
X21465Y95316D01*
X21366Y95262D01*
X21262Y95216D01*
X21189Y95165D01*
X21112Y95123D01*
X21025Y95050D01*
X20933Y94985D01*
X20871Y94921D01*
X20803Y94864D01*
X20733Y94775D01*
X20655Y94693D01*
X20608Y94618D01*
X20552Y94549D01*
X20501Y94448D01*
X20441Y94353D01*
X20409Y94269D01*
X20369Y94191D01*
X20338Y94082D01*
X20298Y93976D01*
X20283Y93888D01*
X20259Y93803D01*
X20250Y93691D01*
X20232Y93579D01*
X20235Y93490D01*
X20228Y93402D01*
X20241Y93290D01*
X20245Y93177D01*
X20266Y93090D01*
X20276Y93002D01*
X20312Y92895D01*
X20338Y92785D01*
X20375Y92704D01*
X20403Y92620D01*
X20459Y92522D01*
X20506Y92419D01*
X20558Y92347D01*
X20602Y92270D01*
X20677Y92185D01*
X20743Y92094D01*
X20808Y92034D01*
X20867Y91967D01*
X20956Y91898D01*
X21040Y91821D01*
X21116Y91775D01*
X21186Y91721D01*
X21312Y91657D01*
X21384Y91613D01*
X21427Y91597D01*
X21481Y91570D01*
X23967Y90540D01*
X27040Y87467D01*
X28703Y83453D01*
X28703Y79107D01*
X27040Y75093D01*
X23967Y72020D01*
X20193Y70457D01*
X20185Y70452D01*
X20176Y70450D01*
X20008Y70358D01*
X19838Y70266D01*
X19831Y70261D01*
X19823Y70256D01*
X19677Y70133D01*
X19527Y70010D01*
X19522Y70003D01*
X19515Y69997D01*
X19395Y69847D01*
X19274Y69697D01*
X19269Y69689D01*
X19264Y69683D01*
X19176Y69511D01*
X19087Y69341D01*
X19084Y69332D01*
X19080Y69324D01*
X19027Y69139D01*
X18973Y68954D01*
X18973Y68946D01*
X18970Y68937D01*
X18955Y68746D01*
X18939Y68553D01*
X18940Y68544D01*
X18939Y68536D01*
X18963Y68343D01*
X18984Y68153D01*
X18987Y68145D01*
X18988Y68136D01*
X19049Y67951D01*
X19107Y67770D01*
X19111Y67762D01*
X19114Y67754D01*
X19210Y67586D01*
X19304Y67418D01*
X19309Y67412D01*
X19314Y67404D01*
X19440Y67259D01*
X19565Y67113D01*
X19572Y67107D01*
X19578Y67100D01*
X19731Y66983D01*
X19882Y66864D01*
X19890Y66860D01*
X19897Y66855D01*
X20193Y66703D01*
X23967Y65140D01*
X27040Y62067D01*
X28703Y58053D01*
X28703Y53707D01*
X27040Y49693D01*
X23967Y46620D01*
X19953Y44957D01*
X15607Y44957D01*
X11593Y46620D01*
X8520Y49693D01*
X6857Y53707D01*
X6857Y58053D01*
X8520Y62067D01*
X11593Y65140D01*
X15367Y66703D01*
X15375Y66708D01*
X15384Y66710D01*
X15553Y66803D01*
X15722Y66894D01*
X15729Y66899D01*
X15737Y66904D01*
X15885Y67028D01*
X16033Y67150D01*
X16038Y67157D01*
X16045Y67163D01*
X16165Y67314D01*
X16286Y67463D01*
X16291Y67470D01*
X16296Y67478D01*
X16383Y67648D01*
X16473Y67819D01*
X16476Y67828D01*
X16480Y67836D01*
X16532Y68018D01*
X16587Y68206D01*
X16587Y68215D01*
X16590Y68223D01*
X16605Y68414D01*
X16621Y68607D01*
X16620Y68616D01*
X16621Y68624D01*
X16598Y68815D01*
X16576Y69007D01*
X16573Y69015D01*
X16572Y69024D01*
X16512Y69205D01*
X16453Y69390D01*
X16448Y69398D01*
X16446Y69406D01*
X16351Y69572D01*
X16256Y69742D01*
X16251Y69748D01*
X16246Y69756D01*
X16119Y69902D01*
X15995Y70047D01*
X15988Y70053D01*
X15982Y70060D01*
X15829Y70177D01*
X15678Y70296D01*
X15670Y70300D01*
X15663Y70305D01*
X15367Y70457D01*
X11593Y72020D01*
X8520Y75093D01*
X6857Y79107D01*
X6857Y83453D01*
X8520Y87467D01*
X11593Y90540D01*
X13992Y91534D01*
X14079Y91570D01*
X14157Y91612D01*
X14240Y91645D01*
X14334Y91707D01*
X14434Y91760D01*
X14502Y91816D01*
X14577Y91865D01*
X14657Y91944D01*
X14744Y92016D01*
X14800Y92085D01*
X14863Y92148D01*
X14927Y92241D01*
X14998Y92329D01*
X15039Y92407D01*
X15089Y92481D01*
X15132Y92585D01*
X15185Y92685D01*
X15210Y92771D01*
X15244Y92853D01*
X15266Y92963D01*
X15298Y93072D01*
X15306Y93160D01*
X15323Y93247D01*
X15323Y93361D01*
X15333Y93473D01*
X15323Y93561D01*
X15323Y93650D01*
X15300Y93761D01*
X15287Y93873D01*
X15260Y93958D01*
X15243Y94045D01*
X15199Y94149D01*
X15164Y94256D01*
X15121Y94334D01*
X15087Y94416D01*
X15023Y94509D01*
X14968Y94608D01*
X14910Y94675D01*
X14860Y94749D01*
X14780Y94828D01*
X14706Y94914D01*
X14636Y94968D01*
X14573Y95031D01*
X14478Y95092D01*
X14389Y95162D01*
X14310Y95202D01*
X14235Y95250D01*
X14105Y95305D01*
X14029Y95343D01*
X13985Y95355D01*
X13929Y95378D01*
X13197Y95616D01*
X11523Y96469D01*
X10002Y97574D01*
X8674Y98902D01*
X7569Y100423D01*
X6716Y102097D01*
X6135Y103884D01*
X6038Y104497D01*
X6028Y104538D01*
X6023Y104580D01*
X5977Y104732D01*
X5936Y104886D01*
X5918Y104924D01*
X5905Y104965D01*
X5829Y105105D01*
X5759Y105248D01*
X5734Y105282D01*
X5713Y105319D01*
X5611Y105441D01*
X5515Y105568D01*
X5483Y105596D01*
X5456Y105628D01*
X5331Y105728D01*
X5212Y105833D01*
X5175Y105854D01*
X5142Y105880D01*
X5001Y105954D01*
X4862Y106033D01*
X4822Y106047D01*
X4785Y106066D01*
X4632Y106110D01*
X4480Y106160D01*
X4438Y106166D01*
X4398Y106177D01*
X4239Y106190D01*
X4081Y106210D01*
X4039Y106207D01*
X3996Y106210D01*
X3838Y106192D01*
X3679Y106180D01*
X3639Y106168D01*
X3597Y106163D01*
X3445Y106114D01*
X3292Y106071D01*
X3254Y106052D01*
X3214Y106038D01*
X3075Y105960D01*
X2933Y105888D01*
X2900Y105861D01*
X2863Y105841D01*
X2743Y105736D01*
X2618Y105637D01*
X2590Y105605D01*
X2558Y105577D01*
X2461Y105452D01*
X2358Y105330D01*
X2338Y105293D01*
X2312Y105259D01*
X2241Y105117D01*
X2164Y104977D01*
X2151Y104937D01*
X2132Y104899D01*
X2091Y104745D01*
X2043Y104593D01*
X2039Y104551D01*
X2028Y104510D01*
X2005Y104236D01*
X2001Y104192D01*
X2001Y104186D01*
X2001Y104179D01*
X2001Y4032D01*
X2003Y4014D01*
X2001Y3996D01*
X2022Y3814D01*
X2041Y3631D01*
X2046Y3614D01*
X2048Y3597D01*
X2105Y3422D01*
X2159Y3246D01*
X2167Y3231D01*
X2173Y3214D01*
X2263Y3054D01*
X2351Y2892D01*
X2362Y2879D01*
X2371Y2863D01*
X2491Y2724D01*
X2608Y2583D01*
X2622Y2572D01*
X2634Y2558D01*
X2779Y2446D01*
X2922Y2331D01*
X2938Y2323D01*
X2952Y2312D01*
X3117Y2230D01*
X3279Y2145D01*
X3296Y2140D01*
X3312Y2132D01*
X3491Y2085D01*
X3666Y2034D01*
X3684Y2032D01*
X3701Y2028D01*
X4032Y2001D01*
X41994Y2001D01*
X41999Y2001D01*
G37*
G36*
X252140Y121923D02*
X252140Y121923D01*
X252166Y121921D01*
X252340Y121943D01*
X252514Y121961D01*
X252539Y121968D01*
X252566Y121972D01*
X252731Y122027D01*
X252898Y122079D01*
X252922Y122092D01*
X252947Y122100D01*
X253099Y122187D01*
X253253Y122271D01*
X253273Y122288D01*
X253296Y122301D01*
X253549Y122516D01*
X280894Y149861D01*
X325148Y149861D01*
X325166Y149863D01*
X325184Y149861D01*
X325366Y149882D01*
X325549Y149901D01*
X325566Y149906D01*
X325583Y149908D01*
X325758Y149965D01*
X325934Y150019D01*
X325949Y150027D01*
X325966Y150033D01*
X326126Y150123D01*
X326288Y150211D01*
X326301Y150222D01*
X326317Y150231D01*
X326456Y150351D01*
X326597Y150468D01*
X326608Y150482D01*
X326622Y150494D01*
X326734Y150639D01*
X326849Y150782D01*
X326857Y150798D01*
X326868Y150812D01*
X326950Y150977D01*
X327035Y151139D01*
X327040Y151156D01*
X327048Y151172D01*
X327095Y151351D01*
X327146Y151526D01*
X327148Y151544D01*
X327152Y151561D01*
X327179Y151892D01*
X327179Y153759D01*
X327505Y154544D01*
X327514Y154574D01*
X327528Y154602D01*
X327572Y154767D01*
X327621Y154930D01*
X327624Y154961D01*
X327632Y154991D01*
X327659Y155322D01*
X327659Y166371D01*
X336805Y166371D01*
X336765Y166114D01*
X336325Y164760D01*
X336298Y164637D01*
X336262Y164515D01*
X336255Y164440D01*
X336239Y164367D01*
X336237Y164240D01*
X336225Y164114D01*
X336233Y164039D01*
X336232Y163964D01*
X336255Y163840D01*
X336269Y163714D01*
X336291Y163642D01*
X336305Y163568D01*
X336352Y163451D01*
X336390Y163330D01*
X336427Y163264D01*
X336455Y163194D01*
X336524Y163089D01*
X336585Y162978D01*
X336634Y162921D01*
X336675Y162857D01*
X336764Y162767D01*
X336846Y162671D01*
X336905Y162624D01*
X336958Y162571D01*
X337062Y162500D01*
X337161Y162421D01*
X337229Y162387D01*
X337291Y162345D01*
X337408Y162296D01*
X337520Y162239D01*
X337593Y162219D01*
X337663Y162190D01*
X337787Y162165D01*
X337908Y162131D01*
X337984Y162126D01*
X338058Y162111D01*
X338184Y162111D01*
X338310Y162102D01*
X338385Y162111D01*
X338460Y162111D01*
X338584Y162136D01*
X338709Y162152D01*
X338781Y162176D01*
X338855Y162191D01*
X338971Y162240D01*
X339091Y162280D01*
X339156Y162318D01*
X339226Y162347D01*
X339330Y162418D01*
X339440Y162481D01*
X339507Y162538D01*
X339559Y162573D01*
X339610Y162626D01*
X339693Y162696D01*
X343500Y166503D01*
X343517Y166524D01*
X343538Y166542D01*
X343644Y166679D01*
X343755Y166815D01*
X343768Y166839D01*
X343784Y166860D01*
X343862Y167016D01*
X343944Y167171D01*
X343952Y167196D01*
X343964Y167220D01*
X344009Y167389D01*
X344059Y167557D01*
X344061Y167583D01*
X344068Y167609D01*
X344095Y167940D01*
X344095Y172462D01*
X344988Y173355D01*
X369252Y173355D01*
X370145Y172462D01*
X370145Y154432D01*
X370147Y154414D01*
X370145Y154396D01*
X370167Y154213D01*
X370185Y154031D01*
X370190Y154014D01*
X370192Y153997D01*
X370249Y153822D01*
X370303Y153646D01*
X370311Y153631D01*
X370317Y153614D01*
X370407Y153453D01*
X370495Y153292D01*
X370506Y153279D01*
X370515Y153263D01*
X370635Y153124D01*
X370752Y152983D01*
X370766Y152972D01*
X370778Y152958D01*
X370923Y152846D01*
X371066Y152731D01*
X371082Y152723D01*
X371096Y152712D01*
X371261Y152630D01*
X371423Y152545D01*
X371440Y152540D01*
X371456Y152532D01*
X371635Y152485D01*
X371810Y152434D01*
X371828Y152432D01*
X371845Y152428D01*
X372176Y152401D01*
X400446Y152401D01*
X400473Y152403D01*
X400500Y152401D01*
X400673Y152423D01*
X400847Y152441D01*
X400872Y152448D01*
X400899Y152452D01*
X401065Y152507D01*
X401232Y152559D01*
X401255Y152572D01*
X401281Y152580D01*
X401432Y152667D01*
X401586Y152751D01*
X401606Y152768D01*
X401630Y152781D01*
X401883Y152996D01*
X406500Y157613D01*
X406517Y157634D01*
X406538Y157652D01*
X406645Y157790D01*
X406755Y157925D01*
X406768Y157949D01*
X406784Y157970D01*
X406862Y158127D01*
X406944Y158281D01*
X406952Y158306D01*
X406964Y158330D01*
X407009Y158500D01*
X407059Y158667D01*
X407061Y158693D01*
X407068Y158719D01*
X407095Y159050D01*
X407095Y172462D01*
X407988Y173355D01*
X432252Y173355D01*
X433572Y172035D01*
X433579Y172029D01*
X433584Y172022D01*
X433734Y171902D01*
X433883Y171780D01*
X433891Y171775D01*
X433898Y171770D01*
X434068Y171681D01*
X434239Y171591D01*
X434248Y171588D01*
X434255Y171584D01*
X434440Y171531D01*
X434625Y171476D01*
X434634Y171475D01*
X434642Y171473D01*
X434833Y171457D01*
X435026Y171440D01*
X435035Y171441D01*
X435044Y171440D01*
X435233Y171462D01*
X435426Y171483D01*
X435435Y171486D01*
X435443Y171487D01*
X435625Y171546D01*
X435810Y171605D01*
X435818Y171609D01*
X435826Y171612D01*
X435993Y171706D01*
X436162Y171799D01*
X436169Y171805D01*
X436177Y171810D01*
X436322Y171935D01*
X436469Y172060D01*
X436475Y172067D01*
X436482Y172073D01*
X436598Y172223D01*
X436719Y172376D01*
X436723Y172384D01*
X436728Y172391D01*
X436813Y172561D01*
X436901Y172735D01*
X436904Y172743D01*
X436908Y172751D01*
X436957Y172936D01*
X437009Y173123D01*
X437010Y173132D01*
X437012Y173140D01*
X437039Y173471D01*
X437039Y181998D01*
X437037Y182016D01*
X437039Y182034D01*
X437018Y182216D01*
X436999Y182399D01*
X436994Y182416D01*
X436992Y182433D01*
X436935Y182608D01*
X436881Y182784D01*
X436873Y182799D01*
X436867Y182816D01*
X436777Y182976D01*
X436689Y183138D01*
X436678Y183151D01*
X436669Y183167D01*
X436549Y183306D01*
X436432Y183447D01*
X436418Y183458D01*
X436406Y183472D01*
X436261Y183584D01*
X436118Y183699D01*
X436102Y183707D01*
X436088Y183718D01*
X435923Y183800D01*
X435761Y183885D01*
X435744Y183890D01*
X435728Y183898D01*
X435549Y183945D01*
X435374Y183996D01*
X435356Y183998D01*
X435339Y184002D01*
X435008Y184029D01*
X330047Y184029D01*
X329963Y184021D01*
X329879Y184022D01*
X329763Y184001D01*
X329646Y183989D01*
X329566Y183965D01*
X329483Y183949D01*
X329374Y183906D01*
X329261Y183871D01*
X329187Y183831D01*
X329109Y183800D01*
X329011Y183735D01*
X328907Y183679D01*
X328843Y183626D01*
X328772Y183579D01*
X328688Y183497D01*
X328598Y183422D01*
X328545Y183356D01*
X328485Y183297D01*
X328419Y183199D01*
X328346Y183108D01*
X328307Y183033D01*
X328260Y182963D01*
X328214Y182855D01*
X328160Y182751D01*
X328137Y182670D01*
X328104Y182592D01*
X328081Y182477D01*
X328049Y182364D01*
X328042Y182280D01*
X328025Y182197D01*
X328026Y182079D01*
X328016Y181962D01*
X328026Y181879D01*
X328026Y181794D01*
X328049Y181679D01*
X328063Y181563D01*
X328089Y181482D01*
X328106Y181400D01*
X328151Y181291D01*
X328188Y181180D01*
X328229Y181106D01*
X328262Y181029D01*
X328328Y180931D01*
X328386Y180829D01*
X328441Y180765D01*
X328488Y180696D01*
X328572Y180613D01*
X328649Y180525D01*
X328715Y180473D01*
X328776Y180414D01*
X328874Y180350D01*
X328967Y180278D01*
X329042Y180240D01*
X329113Y180194D01*
X329250Y180137D01*
X329327Y180098D01*
X329368Y180087D01*
X329419Y180066D01*
X329703Y179974D01*
X331377Y179121D01*
X332898Y178016D01*
X334226Y176688D01*
X335331Y175167D01*
X336184Y173493D01*
X336765Y171706D01*
X336805Y171449D01*
X325628Y171449D01*
X325610Y171447D01*
X325593Y171449D01*
X325410Y171428D01*
X325228Y171409D01*
X325211Y171404D01*
X325193Y171402D01*
X325115Y171377D01*
X324978Y171416D01*
X324960Y171418D01*
X324943Y171422D01*
X324612Y171449D01*
X300228Y171449D01*
X300210Y171447D01*
X300193Y171449D01*
X300010Y171428D01*
X299828Y171409D01*
X299811Y171404D01*
X299793Y171402D01*
X299618Y171345D01*
X299443Y171291D01*
X299427Y171283D01*
X299410Y171277D01*
X299250Y171187D01*
X299089Y171099D01*
X299075Y171088D01*
X299059Y171079D01*
X298920Y170959D01*
X298779Y170842D01*
X298768Y170828D01*
X298755Y170816D01*
X298642Y170671D01*
X298527Y170528D01*
X298519Y170512D01*
X298508Y170498D01*
X298426Y170333D01*
X298386Y170257D01*
X298234Y170171D01*
X298072Y170083D01*
X298059Y170072D01*
X298043Y170063D01*
X297904Y169943D01*
X297763Y169825D01*
X297752Y169812D01*
X297738Y169800D01*
X297626Y169655D01*
X297511Y169512D01*
X297503Y169496D01*
X297492Y169482D01*
X297409Y169316D01*
X297325Y169154D01*
X297320Y169137D01*
X297312Y169121D01*
X297264Y168943D01*
X297214Y168768D01*
X297212Y168750D01*
X297208Y168733D01*
X297181Y168402D01*
X297181Y157225D01*
X296924Y157265D01*
X295137Y157846D01*
X293463Y158699D01*
X291942Y159804D01*
X290614Y161132D01*
X289509Y162653D01*
X288656Y164327D01*
X288418Y165059D01*
X288382Y165141D01*
X288356Y165225D01*
X288302Y165324D01*
X288256Y165428D01*
X288205Y165501D01*
X288163Y165578D01*
X288090Y165665D01*
X288025Y165757D01*
X287961Y165819D01*
X287904Y165887D01*
X287815Y165957D01*
X287733Y166035D01*
X287658Y166082D01*
X287589Y166138D01*
X287488Y166189D01*
X287393Y166249D01*
X287310Y166281D01*
X287231Y166321D01*
X287122Y166352D01*
X287016Y166392D01*
X286929Y166407D01*
X286843Y166431D01*
X286731Y166440D01*
X286619Y166458D01*
X286530Y166455D01*
X286442Y166462D01*
X286330Y166449D01*
X286217Y166445D01*
X286130Y166424D01*
X286042Y166414D01*
X285935Y166378D01*
X285825Y166352D01*
X285744Y166315D01*
X285660Y166287D01*
X285562Y166231D01*
X285459Y166184D01*
X285387Y166132D01*
X285310Y166088D01*
X285225Y166014D01*
X285134Y165947D01*
X285074Y165881D01*
X285007Y165823D01*
X284938Y165734D01*
X284861Y165650D01*
X284815Y165574D01*
X284761Y165504D01*
X284697Y165378D01*
X284653Y165306D01*
X284637Y165263D01*
X284610Y165209D01*
X283580Y162723D01*
X280507Y159650D01*
X276493Y157987D01*
X272147Y157987D01*
X269755Y158978D01*
X269733Y158985D01*
X269714Y158995D01*
X269541Y159043D01*
X269369Y159095D01*
X269347Y159097D01*
X269326Y159103D01*
X269146Y159116D01*
X268969Y159133D01*
X268947Y159131D01*
X268924Y159132D01*
X268746Y159110D01*
X268568Y159091D01*
X268547Y159085D01*
X268525Y159082D01*
X268355Y159025D01*
X268184Y158971D01*
X268164Y158961D01*
X268143Y158954D01*
X267988Y158864D01*
X267831Y158778D01*
X267813Y158764D01*
X267794Y158753D01*
X267541Y158538D01*
X243462Y134459D01*
X228114Y134459D01*
X228105Y134458D01*
X228096Y134459D01*
X227904Y134438D01*
X227713Y134419D01*
X227705Y134417D01*
X227696Y134416D01*
X227513Y134358D01*
X227328Y134301D01*
X227320Y134297D01*
X227312Y134294D01*
X227143Y134201D01*
X226974Y134109D01*
X226967Y134104D01*
X226959Y134099D01*
X226812Y133974D01*
X226665Y133852D01*
X226659Y133845D01*
X226652Y133839D01*
X226532Y133687D01*
X226413Y133538D01*
X226408Y133530D01*
X226403Y133523D01*
X226315Y133350D01*
X226227Y133181D01*
X226225Y133172D01*
X226221Y133164D01*
X226169Y132979D01*
X226116Y132794D01*
X226115Y132785D01*
X226113Y132776D01*
X226098Y132584D01*
X226083Y132392D01*
X226084Y132384D01*
X226083Y132375D01*
X226107Y132184D01*
X226130Y131993D01*
X226132Y131984D01*
X226134Y131975D01*
X226195Y131794D01*
X226255Y131610D01*
X226259Y131602D01*
X226262Y131594D01*
X226358Y131426D01*
X226452Y131259D01*
X226458Y131252D01*
X226463Y131245D01*
X226677Y130992D01*
X227672Y129997D01*
X229819Y127850D01*
X229840Y127833D01*
X229858Y127812D01*
X229996Y127705D01*
X230131Y127595D01*
X230155Y127582D01*
X230176Y127566D01*
X230333Y127488D01*
X230487Y127406D01*
X230512Y127398D01*
X230536Y127386D01*
X230706Y127341D01*
X230873Y127291D01*
X230899Y127289D01*
X230925Y127282D01*
X231256Y127255D01*
X244091Y127255D01*
X244984Y126362D01*
X244984Y123952D01*
X244986Y123934D01*
X244984Y123916D01*
X245005Y123734D01*
X245024Y123551D01*
X245029Y123534D01*
X245031Y123517D01*
X245088Y123342D01*
X245142Y123166D01*
X245150Y123151D01*
X245156Y123134D01*
X245246Y122974D01*
X245334Y122812D01*
X245345Y122799D01*
X245354Y122783D01*
X245474Y122644D01*
X245591Y122503D01*
X245605Y122492D01*
X245617Y122478D01*
X245762Y122366D01*
X245905Y122251D01*
X245921Y122243D01*
X245935Y122232D01*
X246100Y122150D01*
X246262Y122065D01*
X246279Y122060D01*
X246295Y122052D01*
X246474Y122005D01*
X246649Y121954D01*
X246667Y121952D01*
X246684Y121948D01*
X247015Y121921D01*
X252113Y121921D01*
X252140Y121923D01*
G37*
G36*
X198646Y14989D02*
X198646Y14989D01*
X198664Y14987D01*
X198846Y15009D01*
X199029Y15027D01*
X199046Y15032D01*
X199063Y15034D01*
X199238Y15091D01*
X199414Y15145D01*
X199429Y15153D01*
X199446Y15159D01*
X199606Y15249D01*
X199768Y15337D01*
X199781Y15348D01*
X199797Y15357D01*
X199936Y15477D01*
X200077Y15595D01*
X200088Y15608D01*
X200102Y15620D01*
X200214Y15765D01*
X200329Y15908D01*
X200337Y15924D01*
X200348Y15938D01*
X200430Y16103D01*
X200515Y16266D01*
X200520Y16283D01*
X200528Y16299D01*
X200575Y16477D01*
X200626Y16652D01*
X200628Y16670D01*
X200632Y16687D01*
X200659Y17018D01*
X200659Y28985D01*
X200746Y29059D01*
X200766Y29085D01*
X200791Y29107D01*
X200891Y29242D01*
X200995Y29375D01*
X201011Y29404D01*
X201030Y29431D01*
X201101Y29583D01*
X201178Y29734D01*
X201187Y29766D01*
X201201Y29796D01*
X201241Y29959D01*
X201286Y30121D01*
X201288Y30155D01*
X201296Y30187D01*
X201303Y30354D01*
X201315Y30523D01*
X201311Y30556D01*
X201312Y30589D01*
X201286Y30755D01*
X201265Y30922D01*
X201254Y30954D01*
X201249Y30987D01*
X201190Y31145D01*
X201137Y31304D01*
X201120Y31333D01*
X201108Y31364D01*
X201020Y31507D01*
X200936Y31653D01*
X200911Y31681D01*
X200896Y31706D01*
X200837Y31769D01*
X200721Y31906D01*
X166163Y66464D01*
X166162Y66464D01*
X164581Y68046D01*
X164511Y68103D01*
X164447Y68168D01*
X164355Y68230D01*
X164270Y68301D01*
X164189Y68343D01*
X164114Y68394D01*
X164012Y68437D01*
X163914Y68489D01*
X163827Y68515D01*
X163743Y68550D01*
X163634Y68572D01*
X163528Y68604D01*
X163437Y68612D01*
X163348Y68630D01*
X163238Y68630D01*
X163127Y68640D01*
X163037Y68631D01*
X162946Y68631D01*
X162810Y68606D01*
X162727Y68597D01*
X162681Y68583D01*
X162619Y68571D01*
X162351Y68499D01*
X162047Y68499D01*
X162047Y76040D01*
X162047Y83581D01*
X162351Y83581D01*
X162997Y83408D01*
X163581Y83070D01*
X163588Y83062D01*
X163726Y82955D01*
X163861Y82845D01*
X163885Y82832D01*
X163906Y82816D01*
X164063Y82738D01*
X164217Y82656D01*
X164242Y82648D01*
X164266Y82636D01*
X164436Y82591D01*
X164603Y82541D01*
X164629Y82539D01*
X164655Y82532D01*
X164986Y82505D01*
X167636Y82505D01*
X167654Y82507D01*
X167672Y82505D01*
X167854Y82526D01*
X168037Y82545D01*
X168054Y82550D01*
X168071Y82552D01*
X168246Y82609D01*
X168422Y82663D01*
X168437Y82671D01*
X168454Y82677D01*
X168614Y82767D01*
X168776Y82855D01*
X168789Y82866D01*
X168805Y82875D01*
X168944Y82995D01*
X169085Y83112D01*
X169096Y83126D01*
X169110Y83138D01*
X169222Y83283D01*
X169337Y83426D01*
X169345Y83442D01*
X169356Y83456D01*
X169438Y83621D01*
X169523Y83783D01*
X169528Y83800D01*
X169536Y83816D01*
X169583Y83995D01*
X169634Y84170D01*
X169636Y84188D01*
X169640Y84205D01*
X169667Y84536D01*
X169667Y88647D01*
X169665Y88673D01*
X169667Y88700D01*
X169645Y88874D01*
X169627Y89047D01*
X169620Y89073D01*
X169616Y89099D01*
X169561Y89265D01*
X169509Y89432D01*
X169496Y89456D01*
X169488Y89481D01*
X169401Y89633D01*
X169317Y89786D01*
X169300Y89807D01*
X169287Y89830D01*
X169072Y90083D01*
X158627Y100528D01*
X158606Y100545D01*
X158589Y100566D01*
X158451Y100673D01*
X158315Y100783D01*
X158292Y100796D01*
X158271Y100812D01*
X158114Y100890D01*
X157960Y100972D01*
X157934Y100980D01*
X157910Y100992D01*
X157741Y101037D01*
X157574Y101087D01*
X157547Y101089D01*
X157521Y101096D01*
X157191Y101123D01*
X137748Y101123D01*
X137739Y101122D01*
X137730Y101123D01*
X137538Y101102D01*
X137347Y101083D01*
X137339Y101081D01*
X137330Y101080D01*
X137147Y101022D01*
X136962Y100965D01*
X136954Y100961D01*
X136946Y100958D01*
X136777Y100865D01*
X136608Y100773D01*
X136601Y100768D01*
X136593Y100763D01*
X136446Y100638D01*
X136299Y100516D01*
X136293Y100509D01*
X136286Y100503D01*
X136166Y100351D01*
X136047Y100202D01*
X136042Y100194D01*
X136037Y100187D01*
X135949Y100014D01*
X135861Y99845D01*
X135859Y99836D01*
X135855Y99828D01*
X135803Y99643D01*
X135750Y99458D01*
X135749Y99449D01*
X135747Y99440D01*
X135732Y99248D01*
X135717Y99056D01*
X135718Y99048D01*
X135717Y99039D01*
X135742Y98845D01*
X135764Y98657D01*
X135766Y98648D01*
X135768Y98639D01*
X135829Y98457D01*
X135889Y98274D01*
X135893Y98266D01*
X135896Y98258D01*
X135992Y98090D01*
X136086Y97923D01*
X136092Y97916D01*
X136097Y97909D01*
X136311Y97656D01*
X136670Y97297D01*
X136719Y97143D01*
X136775Y96963D01*
X136781Y96951D01*
X136785Y96938D01*
X136877Y96774D01*
X136967Y96609D01*
X136975Y96598D01*
X136982Y96587D01*
X137104Y96443D01*
X137224Y96299D01*
X137235Y96291D01*
X137243Y96281D01*
X137392Y96164D01*
X137538Y96047D01*
X137550Y96041D01*
X137560Y96033D01*
X137730Y95948D01*
X137895Y95862D01*
X137908Y95858D01*
X137920Y95852D01*
X138103Y95802D01*
X138282Y95750D01*
X138296Y95749D01*
X138309Y95746D01*
X138497Y95733D01*
X138684Y95717D01*
X138697Y95719D01*
X138710Y95718D01*
X138898Y95742D01*
X139083Y95764D01*
X139096Y95768D01*
X139109Y95770D01*
X139425Y95872D01*
X142151Y97001D01*
X144869Y97001D01*
X147379Y95961D01*
X149301Y94039D01*
X150341Y91529D01*
X150341Y88811D01*
X149503Y86790D01*
X149494Y86760D01*
X149480Y86732D01*
X149436Y86567D01*
X149387Y86404D01*
X149384Y86373D01*
X149376Y86343D01*
X149349Y86012D01*
X149349Y84596D01*
X149351Y84578D01*
X149349Y84560D01*
X149370Y84378D01*
X149389Y84195D01*
X149394Y84178D01*
X149396Y84161D01*
X149453Y83986D01*
X149507Y83810D01*
X149515Y83795D01*
X149521Y83778D01*
X149612Y83617D01*
X149699Y83456D01*
X149710Y83443D01*
X149719Y83427D01*
X149839Y83288D01*
X149956Y83147D01*
X149970Y83136D01*
X149982Y83122D01*
X150127Y83010D01*
X150270Y82895D01*
X150286Y82887D01*
X150300Y82876D01*
X150465Y82794D01*
X150627Y82709D01*
X150644Y82704D01*
X150660Y82696D01*
X150839Y82649D01*
X151014Y82598D01*
X151032Y82596D01*
X151049Y82592D01*
X151380Y82565D01*
X155106Y82565D01*
X155133Y82567D01*
X155160Y82565D01*
X155333Y82587D01*
X155507Y82605D01*
X155532Y82612D01*
X155559Y82616D01*
X155725Y82671D01*
X155892Y82723D01*
X155915Y82736D01*
X155941Y82744D01*
X156092Y82831D01*
X156246Y82915D01*
X156266Y82932D01*
X156290Y82945D01*
X156408Y83045D01*
X157035Y83408D01*
X157681Y83581D01*
X157985Y83581D01*
X157985Y76040D01*
X157985Y68499D01*
X157984Y68499D01*
X157966Y68497D01*
X157948Y68499D01*
X157766Y68478D01*
X157583Y68459D01*
X157566Y68454D01*
X157549Y68452D01*
X157374Y68395D01*
X157198Y68341D01*
X157183Y68333D01*
X157166Y68327D01*
X157006Y68237D01*
X156844Y68149D01*
X156831Y68138D01*
X156815Y68129D01*
X156676Y68009D01*
X156535Y67892D01*
X156524Y67878D01*
X156510Y67866D01*
X156398Y67721D01*
X156283Y67578D01*
X156275Y67562D01*
X156264Y67548D01*
X156181Y67382D01*
X156097Y67221D01*
X156092Y67204D01*
X156084Y67188D01*
X156037Y67009D01*
X155986Y66834D01*
X155984Y66816D01*
X155980Y66799D01*
X155953Y66468D01*
X155953Y59657D01*
X155955Y59635D01*
X155953Y59613D01*
X155975Y59436D01*
X155993Y59257D01*
X155999Y59235D01*
X156002Y59213D01*
X156058Y59043D01*
X156111Y58872D01*
X156121Y58852D01*
X156128Y58831D01*
X156217Y58675D01*
X156303Y58518D01*
X156317Y58501D01*
X156328Y58481D01*
X156446Y58346D01*
X156560Y58209D01*
X156578Y58195D01*
X156592Y58178D01*
X156734Y58068D01*
X156874Y57956D01*
X156894Y57946D01*
X156912Y57932D01*
X157207Y57781D01*
X160079Y56591D01*
X162001Y54669D01*
X163041Y52159D01*
X163041Y49441D01*
X162001Y46931D01*
X160079Y45009D01*
X160005Y44978D01*
X159985Y44968D01*
X159964Y44961D01*
X159808Y44873D01*
X159650Y44788D01*
X159633Y44774D01*
X159613Y44763D01*
X159477Y44646D01*
X159339Y44532D01*
X159325Y44514D01*
X159308Y44500D01*
X159199Y44359D01*
X159086Y44219D01*
X159075Y44199D01*
X159062Y44182D01*
X158982Y44021D01*
X158899Y43863D01*
X158892Y43841D01*
X158882Y43821D01*
X158836Y43648D01*
X158786Y43476D01*
X158784Y43454D01*
X158778Y43432D01*
X158751Y43102D01*
X158751Y34914D01*
X158753Y34887D01*
X158751Y34860D01*
X158773Y34687D01*
X158791Y34513D01*
X158798Y34488D01*
X158802Y34461D01*
X158857Y34296D01*
X158909Y34128D01*
X158922Y34105D01*
X158930Y34079D01*
X159017Y33928D01*
X159101Y33774D01*
X159118Y33754D01*
X159131Y33730D01*
X159346Y33477D01*
X165941Y26882D01*
X165958Y26868D01*
X165973Y26851D01*
X166114Y26741D01*
X166253Y26627D01*
X166272Y26617D01*
X166290Y26603D01*
X166450Y26522D01*
X166608Y26438D01*
X166630Y26432D01*
X166650Y26422D01*
X166822Y26375D01*
X166994Y26324D01*
X167016Y26322D01*
X167038Y26316D01*
X167217Y26303D01*
X167395Y26287D01*
X167417Y26290D01*
X167440Y26288D01*
X167617Y26311D01*
X167795Y26331D01*
X167817Y26337D01*
X167839Y26340D01*
X168155Y26442D01*
X170547Y27433D01*
X174893Y27433D01*
X178907Y25770D01*
X181980Y22697D01*
X183010Y20211D01*
X183052Y20133D01*
X183085Y20050D01*
X183147Y19956D01*
X183200Y19856D01*
X183256Y19788D01*
X183305Y19713D01*
X183384Y19633D01*
X183456Y19546D01*
X183525Y19490D01*
X183588Y19427D01*
X183681Y19363D01*
X183769Y19292D01*
X183847Y19251D01*
X183921Y19201D01*
X184025Y19158D01*
X184125Y19105D01*
X184211Y19080D01*
X184293Y19046D01*
X184403Y19024D01*
X184512Y18992D01*
X184600Y18984D01*
X184687Y18967D01*
X184801Y18967D01*
X184913Y18957D01*
X185001Y18967D01*
X185090Y18967D01*
X185201Y18990D01*
X185313Y19003D01*
X185398Y19030D01*
X185485Y19047D01*
X185589Y19091D01*
X185696Y19126D01*
X185774Y19169D01*
X185856Y19203D01*
X185949Y19267D01*
X186048Y19322D01*
X186115Y19380D01*
X186189Y19430D01*
X186268Y19510D01*
X186354Y19584D01*
X186408Y19654D01*
X186471Y19717D01*
X186532Y19812D01*
X186602Y19901D01*
X186642Y19980D01*
X186690Y20055D01*
X186745Y20185D01*
X186783Y20261D01*
X186795Y20305D01*
X186818Y20361D01*
X187056Y21093D01*
X187909Y22767D01*
X189014Y24288D01*
X190342Y25616D01*
X191863Y26721D01*
X193537Y27574D01*
X195324Y28155D01*
X195581Y28195D01*
X195581Y17018D01*
X195582Y17000D01*
X195581Y16983D01*
X195602Y16800D01*
X195621Y16618D01*
X195626Y16601D01*
X195628Y16583D01*
X195685Y16408D01*
X195739Y16233D01*
X195747Y16217D01*
X195753Y16200D01*
X195843Y16040D01*
X195930Y15879D01*
X195942Y15865D01*
X195951Y15849D01*
X196071Y15710D01*
X196188Y15569D01*
X196202Y15558D01*
X196214Y15545D01*
X196359Y15432D01*
X196502Y15317D01*
X196518Y15309D01*
X196532Y15298D01*
X196697Y15216D01*
X196859Y15132D01*
X196876Y15127D01*
X196892Y15119D01*
X197071Y15071D01*
X197246Y15020D01*
X197264Y15019D01*
X197281Y15014D01*
X197612Y14987D01*
X198628Y14987D01*
X198646Y14989D01*
G37*
G36*
X225326Y40563D02*
X225326Y40563D01*
X225344Y40561D01*
X225526Y40582D01*
X225709Y40601D01*
X225726Y40606D01*
X225743Y40608D01*
X225918Y40665D01*
X226094Y40719D01*
X226109Y40727D01*
X226126Y40733D01*
X226286Y40823D01*
X226448Y40911D01*
X226461Y40922D01*
X226477Y40931D01*
X226616Y41051D01*
X226757Y41168D01*
X226768Y41182D01*
X226782Y41194D01*
X226894Y41339D01*
X227009Y41482D01*
X227017Y41498D01*
X227028Y41512D01*
X227110Y41677D01*
X227195Y41839D01*
X227200Y41856D01*
X227208Y41872D01*
X227255Y42051D01*
X227306Y42226D01*
X227308Y42244D01*
X227312Y42261D01*
X227339Y42592D01*
X227339Y45261D01*
X234912Y45261D01*
X234930Y45262D01*
X234947Y45261D01*
X235130Y45282D01*
X235312Y45301D01*
X235329Y45306D01*
X235347Y45308D01*
X235522Y45365D01*
X235697Y45419D01*
X235713Y45427D01*
X235730Y45433D01*
X235879Y45517D01*
X235933Y45490D01*
X236096Y45405D01*
X236113Y45400D01*
X236129Y45392D01*
X236307Y45344D01*
X236482Y45294D01*
X236500Y45292D01*
X236517Y45288D01*
X236848Y45261D01*
X244421Y45261D01*
X244421Y42592D01*
X244423Y42574D01*
X244421Y42556D01*
X244442Y42374D01*
X244461Y42191D01*
X244466Y42174D01*
X244468Y42157D01*
X244525Y41982D01*
X244579Y41806D01*
X244587Y41791D01*
X244593Y41774D01*
X244683Y41614D01*
X244771Y41452D01*
X244782Y41439D01*
X244791Y41423D01*
X244911Y41284D01*
X245028Y41143D01*
X245042Y41132D01*
X245054Y41118D01*
X245199Y41006D01*
X245342Y40891D01*
X245358Y40883D01*
X245372Y40872D01*
X245537Y40790D01*
X245699Y40705D01*
X245716Y40700D01*
X245732Y40692D01*
X245911Y40645D01*
X246086Y40594D01*
X246104Y40592D01*
X246121Y40588D01*
X246452Y40561D01*
X247324Y40561D01*
X247342Y40563D01*
X247360Y40561D01*
X247542Y40582D01*
X247725Y40601D01*
X247742Y40606D01*
X247759Y40608D01*
X247934Y40665D01*
X248110Y40719D01*
X248125Y40727D01*
X248142Y40733D01*
X248302Y40823D01*
X248464Y40911D01*
X248477Y40922D01*
X248493Y40931D01*
X248632Y41051D01*
X248773Y41168D01*
X248784Y41182D01*
X248798Y41194D01*
X248910Y41339D01*
X249025Y41482D01*
X249033Y41498D01*
X249044Y41512D01*
X249126Y41677D01*
X249211Y41839D01*
X249216Y41856D01*
X249224Y41872D01*
X249271Y42051D01*
X249322Y42226D01*
X249324Y42244D01*
X249328Y42261D01*
X249355Y42592D01*
X249355Y54897D01*
X249452Y55019D01*
X249567Y55160D01*
X249576Y55176D01*
X249587Y55190D01*
X249671Y55355D01*
X249756Y55516D01*
X249761Y55533D01*
X249769Y55549D01*
X249819Y55726D01*
X249871Y55902D01*
X249872Y55920D01*
X249877Y55937D01*
X249891Y56120D01*
X249907Y56303D01*
X249905Y56320D01*
X249907Y56338D01*
X249884Y56520D01*
X249864Y56703D01*
X249858Y56720D01*
X249856Y56738D01*
X249798Y56912D01*
X249742Y57087D01*
X249734Y57102D01*
X249728Y57119D01*
X249636Y57279D01*
X249548Y57439D01*
X249536Y57453D01*
X249527Y57468D01*
X249312Y57721D01*
X247816Y59217D01*
X247803Y59229D01*
X247791Y59242D01*
X247647Y59356D01*
X247505Y59472D01*
X247489Y59481D01*
X247475Y59492D01*
X247312Y59575D01*
X247149Y59661D01*
X247132Y59666D01*
X247116Y59674D01*
X246940Y59723D01*
X246763Y59776D01*
X246745Y59777D01*
X246728Y59782D01*
X246546Y59796D01*
X246362Y59812D01*
X246345Y59810D01*
X246327Y59812D01*
X246145Y59789D01*
X245962Y59769D01*
X245945Y59763D01*
X245927Y59761D01*
X245754Y59703D01*
X245578Y59647D01*
X245562Y59639D01*
X245546Y59633D01*
X245387Y59542D01*
X245226Y59453D01*
X245212Y59441D01*
X245197Y59432D01*
X244944Y59217D01*
X244149Y58423D01*
X244051Y58303D01*
X243947Y58187D01*
X243923Y58147D01*
X243894Y58111D01*
X243821Y57974D01*
X243742Y57841D01*
X243727Y57797D01*
X243705Y57755D01*
X243661Y57607D01*
X243610Y57460D01*
X243604Y57414D01*
X243590Y57370D01*
X243576Y57215D01*
X243555Y57061D01*
X243558Y57015D01*
X243554Y56969D01*
X243571Y56814D01*
X243580Y56660D01*
X243592Y56615D01*
X243597Y56568D01*
X243644Y56421D01*
X243684Y56271D01*
X243707Y56223D01*
X243719Y56184D01*
X243761Y56109D01*
X243826Y55971D01*
X244248Y55241D01*
X244421Y54595D01*
X244421Y51259D01*
X236848Y51259D01*
X236830Y51257D01*
X236813Y51259D01*
X236630Y51238D01*
X236448Y51219D01*
X236431Y51214D01*
X236413Y51212D01*
X236238Y51155D01*
X236063Y51101D01*
X236047Y51093D01*
X236030Y51087D01*
X235881Y51003D01*
X235827Y51030D01*
X235664Y51115D01*
X235647Y51120D01*
X235631Y51128D01*
X235453Y51175D01*
X235278Y51226D01*
X235260Y51228D01*
X235243Y51232D01*
X234912Y51259D01*
X227339Y51259D01*
X227339Y54595D01*
X227512Y55241D01*
X227847Y55820D01*
X228344Y56317D01*
X228426Y56387D01*
X228523Y56456D01*
X228579Y56516D01*
X228642Y56570D01*
X228716Y56663D01*
X228797Y56751D01*
X228840Y56821D01*
X228891Y56886D01*
X228945Y56992D01*
X229008Y57094D01*
X229036Y57171D01*
X229074Y57245D01*
X229106Y57360D01*
X229147Y57472D01*
X229160Y57553D01*
X229182Y57633D01*
X229190Y57752D01*
X229209Y57870D01*
X229205Y57952D01*
X229211Y58034D01*
X229196Y58153D01*
X229191Y58272D01*
X229171Y58352D01*
X229161Y58434D01*
X229123Y58547D01*
X229094Y58663D01*
X229059Y58737D01*
X229032Y58815D01*
X228973Y58919D01*
X228922Y59027D01*
X228872Y59093D01*
X228855Y59123D01*
X228855Y70781D01*
X228854Y70790D01*
X228855Y70799D01*
X228834Y70991D01*
X228815Y71182D01*
X228813Y71190D01*
X228812Y71199D01*
X228754Y71382D01*
X228697Y71567D01*
X228693Y71575D01*
X228690Y71583D01*
X228597Y71752D01*
X228505Y71921D01*
X228500Y71928D01*
X228495Y71936D01*
X228370Y72083D01*
X228248Y72230D01*
X228241Y72236D01*
X228235Y72243D01*
X228083Y72362D01*
X227934Y72482D01*
X227926Y72487D01*
X227919Y72492D01*
X227747Y72580D01*
X227577Y72668D01*
X227568Y72670D01*
X227560Y72674D01*
X227374Y72726D01*
X227190Y72779D01*
X227181Y72780D01*
X227172Y72782D01*
X226980Y72797D01*
X226788Y72812D01*
X226780Y72811D01*
X226771Y72812D01*
X226578Y72788D01*
X226389Y72765D01*
X226380Y72763D01*
X226371Y72761D01*
X226188Y72700D01*
X226006Y72640D01*
X225998Y72636D01*
X225990Y72633D01*
X225824Y72538D01*
X225655Y72443D01*
X225648Y72437D01*
X225641Y72432D01*
X225388Y72218D01*
X223579Y70409D01*
X221069Y69369D01*
X218351Y69369D01*
X215841Y70409D01*
X213919Y72331D01*
X212879Y74841D01*
X212879Y77559D01*
X213919Y80069D01*
X215841Y81991D01*
X218351Y83031D01*
X219312Y83031D01*
X219339Y83033D01*
X219366Y83031D01*
X219539Y83053D01*
X219713Y83071D01*
X219738Y83078D01*
X219765Y83082D01*
X219930Y83137D01*
X220098Y83189D01*
X220121Y83202D01*
X220147Y83210D01*
X220298Y83297D01*
X220452Y83381D01*
X220472Y83398D01*
X220496Y83411D01*
X220749Y83626D01*
X226861Y89738D01*
X226878Y89759D01*
X226899Y89777D01*
X227006Y89915D01*
X227116Y90050D01*
X227129Y90074D01*
X227145Y90095D01*
X227223Y90251D01*
X227305Y90406D01*
X227313Y90431D01*
X227325Y90455D01*
X227370Y90625D01*
X227420Y90792D01*
X227422Y90818D01*
X227429Y90844D01*
X227456Y91175D01*
X227456Y98506D01*
X227519Y98627D01*
X227610Y98799D01*
X227613Y98807D01*
X227617Y98815D01*
X227670Y99000D01*
X227725Y99185D01*
X227726Y99194D01*
X227728Y99202D01*
X227744Y99394D01*
X227761Y99586D01*
X227760Y99595D01*
X227761Y99604D01*
X227739Y99794D01*
X227718Y99986D01*
X227715Y99994D01*
X227714Y100003D01*
X227654Y100187D01*
X227596Y100370D01*
X227592Y100378D01*
X227589Y100386D01*
X227495Y100554D01*
X227402Y100722D01*
X227396Y100729D01*
X227391Y100737D01*
X227266Y100882D01*
X227141Y101029D01*
X227134Y101035D01*
X227128Y101042D01*
X226977Y101159D01*
X226825Y101279D01*
X226817Y101283D01*
X226810Y101288D01*
X226638Y101374D01*
X226466Y101461D01*
X226458Y101464D01*
X226450Y101468D01*
X226263Y101518D01*
X226078Y101569D01*
X226070Y101570D01*
X226061Y101572D01*
X225730Y101599D01*
X218048Y101599D01*
X218021Y101597D01*
X217994Y101599D01*
X217821Y101577D01*
X217647Y101559D01*
X217622Y101552D01*
X217595Y101548D01*
X217429Y101493D01*
X217262Y101441D01*
X217239Y101428D01*
X217213Y101420D01*
X217062Y101333D01*
X216908Y101249D01*
X216888Y101232D01*
X216864Y101219D01*
X216611Y101004D01*
X212559Y96952D01*
X212542Y96931D01*
X212521Y96913D01*
X212414Y96775D01*
X212304Y96640D01*
X212291Y96616D01*
X212275Y96595D01*
X212197Y96438D01*
X212115Y96284D01*
X212107Y96259D01*
X212095Y96235D01*
X212050Y96065D01*
X212000Y95898D01*
X211998Y95872D01*
X211991Y95846D01*
X211964Y95515D01*
X211964Y84458D01*
X211071Y83565D01*
X205319Y83565D01*
X205310Y83564D01*
X205301Y83565D01*
X205110Y83544D01*
X204918Y83525D01*
X204910Y83523D01*
X204901Y83522D01*
X204717Y83464D01*
X204533Y83407D01*
X204525Y83403D01*
X204517Y83400D01*
X204349Y83308D01*
X204179Y83215D01*
X204172Y83210D01*
X204164Y83205D01*
X204018Y83081D01*
X203870Y82958D01*
X203864Y82951D01*
X203857Y82945D01*
X203738Y82794D01*
X203618Y82644D01*
X203613Y82636D01*
X203608Y82629D01*
X203520Y82456D01*
X203432Y82287D01*
X203430Y82278D01*
X203425Y82270D01*
X203374Y82084D01*
X203321Y81900D01*
X203320Y81891D01*
X203318Y81882D01*
X203303Y81690D01*
X203288Y81498D01*
X203289Y81490D01*
X203288Y81481D01*
X203312Y81288D01*
X203335Y81099D01*
X203337Y81090D01*
X203339Y81081D01*
X203400Y80898D01*
X203460Y80716D01*
X203464Y80708D01*
X203467Y80699D01*
X203563Y80533D01*
X203657Y80365D01*
X203663Y80358D01*
X203668Y80351D01*
X203882Y80098D01*
X203911Y80069D01*
X204951Y77559D01*
X204951Y74841D01*
X203911Y72331D01*
X201989Y70409D01*
X199392Y69333D01*
X199380Y69327D01*
X199367Y69323D01*
X199203Y69232D01*
X199037Y69143D01*
X199026Y69134D01*
X199015Y69128D01*
X198872Y69007D01*
X198727Y68887D01*
X198718Y68876D01*
X198708Y68868D01*
X198591Y68720D01*
X198473Y68574D01*
X198467Y68562D01*
X198458Y68552D01*
X198373Y68383D01*
X198286Y68218D01*
X198282Y68205D01*
X198276Y68193D01*
X198225Y68011D01*
X198173Y67831D01*
X198172Y67818D01*
X198168Y67805D01*
X198154Y67616D01*
X198138Y67430D01*
X198140Y67417D01*
X198139Y67403D01*
X198162Y67215D01*
X198183Y67030D01*
X198187Y67017D01*
X198189Y67004D01*
X198249Y66825D01*
X198306Y66647D01*
X198313Y66635D01*
X198317Y66622D01*
X198411Y66459D01*
X198503Y66295D01*
X198511Y66285D01*
X198518Y66273D01*
X198733Y66020D01*
X223597Y41156D01*
X223618Y41139D01*
X223636Y41118D01*
X223774Y41011D01*
X223909Y40901D01*
X223933Y40888D01*
X223954Y40872D01*
X224111Y40794D01*
X224265Y40712D01*
X224290Y40704D01*
X224314Y40692D01*
X224484Y40647D01*
X224651Y40597D01*
X224677Y40595D01*
X224703Y40588D01*
X225034Y40561D01*
X225308Y40561D01*
X225326Y40563D01*
G37*
%LPC*%
G36*
X49897Y44957D02*
X49897Y44957D01*
X45883Y46620D01*
X42810Y49693D01*
X41147Y53707D01*
X41147Y58053D01*
X42810Y62067D01*
X45883Y65140D01*
X49657Y66703D01*
X49665Y66708D01*
X49674Y66710D01*
X49842Y66802D01*
X50012Y66894D01*
X50019Y66899D01*
X50027Y66904D01*
X50173Y67027D01*
X50323Y67150D01*
X50328Y67157D01*
X50335Y67163D01*
X50454Y67312D01*
X50576Y67463D01*
X50581Y67471D01*
X50586Y67477D01*
X50674Y67649D01*
X50763Y67819D01*
X50766Y67828D01*
X50770Y67836D01*
X50822Y68020D01*
X50877Y68206D01*
X50877Y68214D01*
X50880Y68223D01*
X50895Y68414D01*
X50911Y68607D01*
X50910Y68616D01*
X50911Y68624D01*
X50888Y68815D01*
X50866Y69007D01*
X50863Y69015D01*
X50862Y69024D01*
X50802Y69207D01*
X50743Y69390D01*
X50739Y69398D01*
X50736Y69406D01*
X50640Y69574D01*
X50547Y69742D01*
X50541Y69748D01*
X50536Y69756D01*
X50410Y69901D01*
X50285Y70047D01*
X50278Y70053D01*
X50272Y70060D01*
X50120Y70177D01*
X49968Y70296D01*
X49960Y70300D01*
X49953Y70305D01*
X49657Y70457D01*
X45883Y72020D01*
X42810Y75093D01*
X41147Y79107D01*
X41147Y83453D01*
X42810Y87467D01*
X45883Y90540D01*
X48369Y91570D01*
X48447Y91612D01*
X48530Y91645D01*
X48624Y91706D01*
X48724Y91760D01*
X48792Y91816D01*
X48866Y91865D01*
X48947Y91944D01*
X49034Y92016D01*
X49090Y92085D01*
X49153Y92147D01*
X49217Y92241D01*
X49288Y92329D01*
X49329Y92407D01*
X49379Y92481D01*
X49422Y92585D01*
X49475Y92685D01*
X49500Y92770D01*
X49534Y92852D01*
X49556Y92963D01*
X49588Y93072D01*
X49596Y93160D01*
X49613Y93247D01*
X49613Y93360D01*
X49623Y93473D01*
X49613Y93561D01*
X49613Y93650D01*
X49590Y93761D01*
X49577Y93873D01*
X49550Y93958D01*
X49533Y94044D01*
X49489Y94149D01*
X49454Y94256D01*
X49411Y94334D01*
X49377Y94416D01*
X49313Y94509D01*
X49258Y94608D01*
X49200Y94675D01*
X49150Y94749D01*
X49070Y94828D01*
X48996Y94914D01*
X48926Y94968D01*
X48863Y95030D01*
X48768Y95092D01*
X48679Y95162D01*
X48600Y95202D01*
X48525Y95250D01*
X48395Y95305D01*
X48319Y95343D01*
X48275Y95355D01*
X48219Y95378D01*
X47487Y95616D01*
X45813Y96469D01*
X44292Y97574D01*
X42964Y98902D01*
X41859Y100423D01*
X41006Y102097D01*
X40425Y103884D01*
X40385Y104141D01*
X51562Y104141D01*
X51580Y104142D01*
X51597Y104141D01*
X51780Y104162D01*
X51962Y104181D01*
X51979Y104186D01*
X51997Y104188D01*
X52075Y104213D01*
X52212Y104174D01*
X52230Y104172D01*
X52247Y104168D01*
X52578Y104141D01*
X63755Y104141D01*
X63715Y103884D01*
X63134Y102097D01*
X62281Y100423D01*
X61176Y98902D01*
X59848Y97574D01*
X58327Y96469D01*
X56653Y95616D01*
X55921Y95378D01*
X55839Y95342D01*
X55755Y95316D01*
X55656Y95262D01*
X55552Y95216D01*
X55479Y95165D01*
X55402Y95123D01*
X55315Y95050D01*
X55223Y94985D01*
X55161Y94921D01*
X55093Y94864D01*
X55023Y94775D01*
X54945Y94693D01*
X54898Y94618D01*
X54842Y94549D01*
X54791Y94448D01*
X54731Y94353D01*
X54699Y94269D01*
X54659Y94191D01*
X54628Y94082D01*
X54588Y93976D01*
X54573Y93888D01*
X54549Y93803D01*
X54540Y93691D01*
X54522Y93579D01*
X54525Y93490D01*
X54518Y93402D01*
X54531Y93290D01*
X54535Y93177D01*
X54556Y93090D01*
X54566Y93002D01*
X54602Y92895D01*
X54628Y92785D01*
X54665Y92704D01*
X54693Y92620D01*
X54749Y92522D01*
X54796Y92419D01*
X54848Y92347D01*
X54892Y92270D01*
X54967Y92185D01*
X55033Y92094D01*
X55098Y92034D01*
X55157Y91967D01*
X55246Y91898D01*
X55330Y91821D01*
X55406Y91775D01*
X55476Y91721D01*
X55602Y91657D01*
X55674Y91613D01*
X55717Y91597D01*
X55771Y91570D01*
X58257Y90540D01*
X61330Y87467D01*
X62993Y83453D01*
X62993Y79107D01*
X61330Y75093D01*
X58257Y72020D01*
X54483Y70457D01*
X54475Y70452D01*
X54466Y70450D01*
X54297Y70357D01*
X54128Y70266D01*
X54121Y70261D01*
X54113Y70256D01*
X53965Y70132D01*
X53817Y70010D01*
X53812Y70003D01*
X53805Y69997D01*
X53685Y69847D01*
X53564Y69697D01*
X53559Y69689D01*
X53554Y69682D01*
X53467Y69513D01*
X53376Y69341D01*
X53374Y69332D01*
X53370Y69324D01*
X53318Y69140D01*
X53263Y68954D01*
X53263Y68945D01*
X53260Y68937D01*
X53245Y68746D01*
X53229Y68553D01*
X53230Y68544D01*
X53229Y68536D01*
X53252Y68345D01*
X53274Y68153D01*
X53277Y68145D01*
X53278Y68136D01*
X53338Y67953D01*
X53397Y67770D01*
X53402Y67762D01*
X53404Y67754D01*
X53500Y67586D01*
X53593Y67418D01*
X53599Y67412D01*
X53604Y67404D01*
X53732Y67256D01*
X53855Y67113D01*
X53862Y67107D01*
X53868Y67100D01*
X54020Y66983D01*
X54172Y66864D01*
X54180Y66860D01*
X54187Y66855D01*
X54483Y66703D01*
X58257Y65140D01*
X61330Y62067D01*
X62993Y58053D01*
X62993Y53707D01*
X61330Y49693D01*
X58257Y46620D01*
X54243Y44957D01*
X49897Y44957D01*
G37*
%LPD*%
%LPC*%
G36*
X396278Y31105D02*
X396278Y31105D01*
X395385Y31998D01*
X395385Y53262D01*
X396278Y54155D01*
X422542Y54155D01*
X423435Y53262D01*
X423435Y31998D01*
X422542Y31105D01*
X396278Y31105D01*
G37*
%LPD*%
%LPC*%
G36*
X291035Y107272D02*
X291035Y107272D01*
X290389Y107445D01*
X289810Y107779D01*
X289248Y108341D01*
X289234Y108353D01*
X289223Y108366D01*
X289079Y108480D01*
X288936Y108596D01*
X288921Y108605D01*
X288907Y108616D01*
X288744Y108699D01*
X288581Y108785D01*
X288563Y108790D01*
X288548Y108798D01*
X288372Y108847D01*
X288195Y108900D01*
X288177Y108902D01*
X288160Y108906D01*
X287977Y108920D01*
X287794Y108936D01*
X287776Y108934D01*
X287758Y108936D01*
X287576Y108913D01*
X287394Y108893D01*
X287376Y108887D01*
X287359Y108885D01*
X287185Y108827D01*
X287010Y108771D01*
X286994Y108763D01*
X286977Y108757D01*
X286817Y108665D01*
X286657Y108577D01*
X286644Y108565D01*
X286628Y108556D01*
X286375Y108341D01*
X286322Y108288D01*
X281058Y108288D01*
X280126Y109220D01*
X280113Y109231D01*
X280101Y109245D01*
X279956Y109359D01*
X279815Y109475D01*
X279799Y109483D01*
X279785Y109494D01*
X279621Y109578D01*
X279459Y109664D01*
X279442Y109669D01*
X279426Y109677D01*
X279249Y109726D01*
X279073Y109778D01*
X279056Y109780D01*
X279038Y109785D01*
X278855Y109798D01*
X278672Y109815D01*
X278655Y109813D01*
X278637Y109814D01*
X278455Y109791D01*
X278272Y109771D01*
X278255Y109766D01*
X278237Y109764D01*
X278064Y109705D01*
X277888Y109650D01*
X277873Y109641D01*
X277856Y109635D01*
X277697Y109544D01*
X277536Y109455D01*
X277522Y109443D01*
X277507Y109435D01*
X277254Y109220D01*
X276322Y108288D01*
X271058Y108288D01*
X270165Y109181D01*
X270165Y125444D01*
X271058Y126337D01*
X276322Y126337D01*
X277254Y125405D01*
X277268Y125394D01*
X277279Y125380D01*
X277423Y125266D01*
X277565Y125150D01*
X277581Y125142D01*
X277595Y125131D01*
X277759Y125047D01*
X277921Y124961D01*
X277938Y124956D01*
X277954Y124948D01*
X278131Y124899D01*
X278307Y124847D01*
X278325Y124845D01*
X278342Y124840D01*
X278525Y124827D01*
X278708Y124810D01*
X278726Y124812D01*
X278743Y124811D01*
X278926Y124834D01*
X279108Y124854D01*
X279125Y124859D01*
X279143Y124861D01*
X279317Y124920D01*
X279492Y124975D01*
X279508Y124984D01*
X279525Y124989D01*
X279683Y125081D01*
X279844Y125170D01*
X279858Y125181D01*
X279873Y125190D01*
X280126Y125405D01*
X281058Y126337D01*
X286322Y126337D01*
X286375Y126283D01*
X286389Y126272D01*
X286401Y126259D01*
X286545Y126145D01*
X286687Y126028D01*
X286703Y126020D01*
X286717Y126009D01*
X286880Y125926D01*
X287042Y125840D01*
X287060Y125835D01*
X287076Y125827D01*
X287252Y125778D01*
X287428Y125725D01*
X287446Y125723D01*
X287463Y125719D01*
X287646Y125705D01*
X287829Y125689D01*
X287847Y125691D01*
X287865Y125689D01*
X288047Y125712D01*
X288230Y125732D01*
X288247Y125737D01*
X288264Y125740D01*
X288438Y125798D01*
X288613Y125853D01*
X288629Y125862D01*
X288646Y125868D01*
X288806Y125960D01*
X288966Y126048D01*
X288979Y126060D01*
X288995Y126069D01*
X289248Y126283D01*
X289810Y126846D01*
X290389Y127180D01*
X291035Y127353D01*
X291339Y127353D01*
X291339Y117313D01*
X291339Y117312D01*
X291339Y107272D01*
X291035Y107272D01*
G37*
%LPD*%
%LPC*%
G36*
X378117Y103129D02*
X378117Y103129D01*
X375728Y104119D01*
X373899Y105948D01*
X373359Y107252D01*
X373357Y107256D01*
X373355Y107260D01*
X373263Y107430D01*
X373168Y107607D01*
X373166Y107611D01*
X373163Y107614D01*
X373040Y107763D01*
X372912Y107917D01*
X372909Y107920D01*
X372906Y107924D01*
X372858Y107962D01*
X372863Y108000D01*
X372882Y108070D01*
X372896Y108240D01*
X372908Y108326D01*
X372906Y108359D01*
X372909Y108401D01*
X372909Y110923D01*
X373899Y113312D01*
X375728Y115141D01*
X377581Y115909D01*
X378117Y116131D01*
X380703Y116131D01*
X383092Y115141D01*
X384921Y113312D01*
X385911Y110923D01*
X385911Y108337D01*
X384921Y105948D01*
X383092Y104119D01*
X380703Y103129D01*
X378117Y103129D01*
G37*
%LPD*%
%LPC*%
G36*
X378117Y59129D02*
X378117Y59129D01*
X375728Y60119D01*
X373899Y61948D01*
X372909Y64337D01*
X372909Y66923D01*
X373899Y69312D01*
X375728Y71141D01*
X375921Y71221D01*
X378117Y72131D01*
X380703Y72131D01*
X383092Y71141D01*
X384921Y69312D01*
X385911Y66923D01*
X385911Y64337D01*
X384921Y61948D01*
X383092Y60119D01*
X380703Y59129D01*
X378117Y59129D01*
G37*
%LPD*%
%LPC*%
G36*
X322324Y157265D02*
X322324Y157265D01*
X320537Y157846D01*
X318863Y158699D01*
X317342Y159804D01*
X316014Y161132D01*
X314909Y162653D01*
X314230Y163986D01*
X314202Y164029D01*
X314181Y164076D01*
X314094Y164198D01*
X314012Y164325D01*
X313977Y164361D01*
X313947Y164403D01*
X313837Y164506D01*
X313732Y164614D01*
X313690Y164643D01*
X313653Y164678D01*
X313525Y164757D01*
X313401Y164842D01*
X313354Y164863D01*
X313310Y164889D01*
X313169Y164942D01*
X313031Y165001D01*
X312981Y165011D01*
X312933Y165029D01*
X312784Y165053D01*
X312637Y165083D01*
X312586Y165084D01*
X312535Y165092D01*
X312384Y165085D01*
X312234Y165086D01*
X312184Y165077D01*
X312133Y165075D01*
X311986Y165038D01*
X311839Y165010D01*
X311792Y164991D01*
X311742Y164978D01*
X311606Y164914D01*
X311466Y164857D01*
X311424Y164829D01*
X311377Y164807D01*
X311257Y164717D01*
X311131Y164634D01*
X311095Y164597D01*
X311054Y164567D01*
X310953Y164456D01*
X310847Y164349D01*
X310819Y164306D01*
X310784Y164268D01*
X310663Y164072D01*
X310624Y164013D01*
X310619Y164000D01*
X310610Y163986D01*
X309931Y162653D01*
X308826Y161132D01*
X307498Y159804D01*
X305977Y158699D01*
X304303Y157846D01*
X302516Y157265D01*
X302259Y157225D01*
X302259Y166371D01*
X322581Y166371D01*
X322581Y157225D01*
X322324Y157265D01*
G37*
%LPD*%
%LPC*%
G36*
X92899Y66479D02*
X92899Y66479D01*
X92899Y76521D01*
X97235Y76521D01*
X97881Y76348D01*
X98460Y76013D01*
X98933Y75540D01*
X99268Y74961D01*
X99441Y74315D01*
X99441Y66479D01*
X92899Y66479D01*
G37*
%LPD*%
%LPC*%
G36*
X92899Y48439D02*
X92899Y48439D01*
X92899Y58481D01*
X99441Y58481D01*
X99441Y50645D01*
X99268Y49999D01*
X98933Y49420D01*
X98460Y48947D01*
X97881Y48612D01*
X97235Y48439D01*
X92899Y48439D01*
G37*
%LPD*%
%LPC*%
G36*
X78359Y66479D02*
X78359Y66479D01*
X78359Y74315D01*
X78532Y74961D01*
X78867Y75540D01*
X79340Y76013D01*
X79919Y76348D01*
X80565Y76521D01*
X84901Y76521D01*
X84901Y66479D01*
X78359Y66479D01*
G37*
%LPD*%
%LPC*%
G36*
X80565Y48439D02*
X80565Y48439D01*
X79919Y48612D01*
X79340Y48947D01*
X78867Y49420D01*
X78532Y49999D01*
X78359Y50645D01*
X78359Y58481D01*
X84901Y58481D01*
X84901Y48439D01*
X80565Y48439D01*
G37*
%LPD*%
%LPC*%
G36*
X54609Y109219D02*
X54609Y109219D01*
X54609Y118365D01*
X54866Y118325D01*
X56653Y117744D01*
X58327Y116891D01*
X59848Y115786D01*
X61176Y114458D01*
X62281Y112937D01*
X63134Y111263D01*
X63715Y109476D01*
X63755Y109219D01*
X54609Y109219D01*
G37*
%LPD*%
%LPC*%
G36*
X40385Y109219D02*
X40385Y109219D01*
X40425Y109476D01*
X41006Y111263D01*
X41859Y112937D01*
X42964Y114458D01*
X44292Y115786D01*
X45813Y116891D01*
X47487Y117744D01*
X49274Y118325D01*
X49531Y118365D01*
X49531Y109219D01*
X40385Y109219D01*
G37*
%LPD*%
%LPC*%
G36*
X356441Y105661D02*
X356441Y105661D01*
X356441Y108671D01*
X367245Y108671D01*
X367891Y108498D01*
X368470Y108163D01*
X368943Y107690D01*
X369119Y107386D01*
X369162Y107326D01*
X369197Y107262D01*
X369279Y107163D01*
X369354Y107059D01*
X369407Y107009D01*
X369454Y106952D01*
X369506Y106911D01*
X369479Y106814D01*
X369479Y106810D01*
X369478Y106806D01*
X369451Y106475D01*
X369451Y105661D01*
X356441Y105661D01*
G37*
%LPD*%
%LPC*%
G36*
X339369Y105661D02*
X339369Y105661D01*
X339369Y106465D01*
X339542Y107111D01*
X339877Y107690D01*
X340350Y108163D01*
X340929Y108498D01*
X341575Y108671D01*
X352379Y108671D01*
X352379Y105661D01*
X339369Y105661D01*
G37*
%LPD*%
%LPC*%
G36*
X427209Y18239D02*
X427209Y18239D01*
X427209Y23781D01*
X430545Y23781D01*
X431191Y23608D01*
X431770Y23273D01*
X432243Y22800D01*
X432578Y22221D01*
X432751Y21575D01*
X432751Y18239D01*
X427209Y18239D01*
G37*
%LPD*%
%LPC*%
G36*
X415669Y18239D02*
X415669Y18239D01*
X415669Y21575D01*
X415842Y22221D01*
X416177Y22800D01*
X416650Y23273D01*
X417229Y23608D01*
X417875Y23781D01*
X421211Y23781D01*
X421211Y18239D01*
X415669Y18239D01*
G37*
%LPD*%
%LPC*%
G36*
X427209Y6699D02*
X427209Y6699D01*
X427209Y12241D01*
X432751Y12241D01*
X432751Y8905D01*
X432578Y8259D01*
X432243Y7680D01*
X431770Y7207D01*
X431191Y6872D01*
X430545Y6699D01*
X427209Y6699D01*
G37*
%LPD*%
%LPC*%
G36*
X417875Y6699D02*
X417875Y6699D01*
X417229Y6872D01*
X416650Y7207D01*
X416177Y7680D01*
X415842Y8259D01*
X415669Y8905D01*
X415669Y12241D01*
X421211Y12241D01*
X421211Y6699D01*
X417875Y6699D01*
G37*
%LPD*%
D10*
X88900Y62480D03*
X88900Y125480D03*
D11*
X424210Y15240D03*
X403210Y15240D03*
D12*
X381510Y15830D03*
X362510Y15830D03*
D13*
X354410Y87630D03*
X354410Y79630D03*
X354410Y103630D03*
X354410Y95630D03*
D14*
X409410Y132630D03*
X409410Y42630D03*
X354410Y132630D03*
X354410Y42630D03*
D13*
X354410Y71630D03*
D15*
X313690Y117312D03*
X293370Y117312D03*
X303690Y117312D03*
X283690Y117312D03*
X273690Y117312D03*
X273690Y67310D03*
X283690Y67310D03*
X293370Y67310D03*
X303690Y67310D03*
X313690Y67310D03*
D16*
X207264Y119380D03*
X199136Y119380D03*
X207264Y91440D03*
X199136Y91440D03*
D17*
X45720Y168910D03*
X71120Y168910D03*
X96520Y168910D03*
X121920Y168910D03*
X147320Y168910D03*
X172720Y168910D03*
X198120Y168910D03*
X223520Y168910D03*
X248920Y168910D03*
X274320Y168910D03*
X274320Y16510D03*
X248920Y16510D03*
X223520Y16510D03*
X198120Y16510D03*
X172720Y16510D03*
X147320Y16510D03*
X121920Y16510D03*
X96520Y16510D03*
X71120Y16510D03*
X45720Y16510D03*
X299720Y16510D03*
X325120Y16510D03*
X299720Y168910D03*
X325120Y168910D03*
D11*
X235880Y48260D03*
X256880Y48260D03*
D12*
X255880Y67310D03*
X236880Y67310D03*
D16*
X232156Y91440D03*
X240284Y91440D03*
D18*
X179828Y76040D03*
X173224Y76040D03*
X166620Y75980D03*
X160016Y76040D03*
X153412Y76040D03*
X146808Y76040D03*
X140204Y76040D03*
X133600Y76040D03*
X126996Y76040D03*
X120392Y76040D03*
X120392Y134460D03*
X126996Y134460D03*
X133600Y134460D03*
X140204Y134460D03*
X146808Y134460D03*
X153412Y134460D03*
X160016Y134460D03*
X166620Y134520D03*
X173224Y134460D03*
X179828Y134460D03*
D16*
X232156Y119380D03*
X240284Y119380D03*
D19*
X357120Y163830D03*
X420120Y163830D03*
D17*
X52070Y55880D03*
X52070Y81280D03*
X52070Y106680D03*
X17780Y132080D03*
X17780Y106680D03*
X17780Y81280D03*
X17780Y55880D03*
D20*
X345630Y103630D02*
X354410Y103630D01*
X345630Y103630D02*
X318180Y131080D01*
D21*
X384490Y87630D03*
D20*
X384490Y89944D01*
X370407Y104027D01*
X358617Y104027D01*
X354410Y103630D01*
D21*
X313370Y87630D03*
D20*
X318180Y131080D02*
X299350Y131080D01*
X414020Y87630D02*
X434340Y67310D01*
X414020Y87630D02*
X401320Y87630D01*
D21*
X219809Y62230D03*
X401320Y87630D03*
X383540Y135890D03*
X401320Y113030D03*
X414020Y100330D03*
X426720Y87630D03*
X426720Y113030D03*
X426720Y62230D03*
X414020Y74930D03*
X401320Y62230D03*
X383540Y40640D03*
D22*
X235880Y48260D02*
X232070Y48260D01*
X219809Y60521D02*
X219809Y62230D01*
X219809Y60521D02*
X232070Y48260D01*
D20*
X424210Y15240D02*
X434340Y25370D01*
X434340Y67310D01*
X160016Y76040D02*
X160016Y90166D01*
D22*
X160020Y90170D01*
D21*
X160020Y90170D03*
D20*
X160016Y76040D02*
X160016Y65108D01*
X166596Y58528D01*
D21*
X166596Y58528D03*
D20*
X166596Y48034D02*
X198120Y16510D01*
X166596Y48034D02*
X166596Y58528D01*
D22*
X88900Y62480D02*
X88138Y63242D01*
D20*
X61333Y106680D02*
X52070Y106680D01*
X88138Y79875D02*
X88138Y63242D01*
X88138Y79875D02*
X61333Y106680D01*
X52070Y106680D02*
X17780Y106680D01*
D21*
X107950Y71120D03*
D20*
X96016Y71120D01*
X88138Y63242D01*
X293370Y117312D02*
X293370Y125100D01*
X299350Y131080D01*
X293370Y117312D02*
X293370Y107630D01*
X313370Y87630D01*
D22*
X127011Y154940D02*
X110490Y154940D01*
X96520Y168910D01*
X134076Y147875D02*
X134076Y134936D01*
X133600Y134460D01*
X134076Y147875D02*
X127011Y154940D01*
X166620Y69600D02*
X219710Y16510D01*
X166620Y69600D02*
X166620Y75980D01*
X219710Y16510D02*
X223520Y16510D01*
X140204Y34794D02*
X121920Y16510D01*
X140204Y34794D02*
X140204Y76040D01*
D23*
X402620Y15830D02*
X403210Y15240D01*
X402620Y15830D02*
X381510Y15830D01*
D22*
X325243Y103574D02*
X325243Y109805D01*
X325243Y103574D02*
X341187Y87630D01*
X354410Y87630D01*
X325243Y109805D02*
X319124Y115924D01*
X318667Y116380D02*
X317854Y117194D01*
X318667Y116380D02*
X319124Y115924D01*
X317854Y117194D02*
X313809Y117194D01*
X313690Y117312D01*
X313686Y102845D02*
X318402Y102845D01*
X341618Y79630D01*
X354410Y79630D01*
X303690Y112841D02*
X303690Y117312D01*
X303690Y112841D02*
X313686Y102845D01*
X214630Y119380D02*
X207264Y119380D01*
X293276Y92484D02*
X303690Y82070D01*
X224790Y109220D02*
X214630Y119380D01*
X265670Y92484D02*
X293276Y92484D01*
X265670Y92484D02*
X248934Y109220D01*
X224790Y109220D01*
X303690Y82070D02*
X303690Y67310D01*
X293370Y67310D02*
X293370Y77072D01*
X284054Y86388D01*
X263957Y86388D01*
X246205Y104140D01*
X216154Y104140D01*
X207264Y95250D01*
X207264Y91440D01*
D20*
X333560Y60830D02*
X333560Y44260D01*
X344360Y71630D02*
X354410Y71630D01*
X344360Y71630D02*
X333560Y60830D01*
D21*
X333560Y44260D03*
D20*
X242570Y16510D02*
X228600Y30480D01*
X214630Y30480D01*
X242570Y16510D02*
X248920Y16510D01*
D21*
X111760Y109220D03*
X323850Y55880D03*
D23*
X323850Y39370D01*
X347390Y15830D02*
X362510Y15830D01*
X347390Y15830D02*
X323850Y39370D01*
D20*
X323850Y55880D02*
X322580Y55880D01*
X173224Y70616D02*
X173224Y76040D01*
X116300Y104680D02*
X111760Y109220D01*
X173224Y90961D02*
X173224Y76040D01*
X173224Y90961D02*
X159505Y104680D01*
X116300Y104680D01*
D21*
X331470Y135890D03*
D22*
X331303Y136057D02*
X345106Y149860D01*
X331303Y136057D02*
X331470Y135890D01*
X416310Y163830D02*
X420120Y163830D01*
X416310Y163830D02*
X402340Y149860D01*
X345106Y149860D01*
D20*
X184376Y59464D02*
X173224Y70616D01*
X184376Y59464D02*
X188375Y59464D01*
D21*
X188375Y59464D03*
D20*
X188375Y56735D02*
X214630Y30480D01*
X188375Y56735D02*
X188375Y59464D01*
X299720Y33020D02*
X299720Y16510D01*
X299720Y33020D02*
X322580Y55880D01*
X313690Y60241D02*
X313690Y67310D01*
X313690Y60241D02*
X307163Y53714D01*
X289897Y53714D01*
X283690Y59921D01*
X283690Y67310D01*
X321310Y67310D02*
X323850Y64770D01*
X321310Y67310D02*
X313690Y67310D01*
X323850Y64770D02*
X323850Y55880D01*
D22*
X140204Y150626D02*
X121920Y168910D01*
D21*
X219710Y76200D03*
D22*
X219710Y78994D02*
X232156Y91440D01*
X219710Y78994D02*
X219710Y76200D01*
X140204Y134460D02*
X140204Y150626D01*
X146808Y168398D02*
X147320Y168910D01*
X146808Y168398D02*
X146808Y134460D01*
X167640Y168910D02*
X172720Y168910D01*
X167640Y168910D02*
X153412Y154682D01*
X153412Y134460D01*
X153412Y124202D01*
X149860Y120650D01*
X124460Y120650D01*
D21*
X124460Y120650D03*
D22*
X169729Y155702D02*
X182745Y155702D01*
X195953Y168910D02*
X198120Y168910D01*
X195953Y168910D02*
X182745Y155702D01*
X160016Y145989D02*
X160016Y134460D01*
X160016Y145989D02*
X162391Y148364D01*
D21*
X162391Y148364D03*
D22*
X169729Y155702D01*
X204104Y149494D02*
X223520Y168910D01*
X204104Y149494D02*
X175887Y149494D01*
X166620Y140227D01*
X166620Y134520D01*
X223852Y143842D02*
X248920Y168910D01*
X223852Y143842D02*
X176899Y143842D01*
X173224Y140167D02*
X173224Y134460D01*
X173224Y140167D02*
X176899Y143842D01*
X242410Y137000D02*
X274320Y168910D01*
X182368Y137000D02*
X179828Y134460D01*
X182368Y137000D02*
X242410Y137000D01*
X69690Y36670D02*
X49530Y16510D01*
X45720Y16510D01*
X120392Y59530D02*
X120392Y76040D01*
X120392Y59530D02*
X97532Y36670D01*
X69690Y36670D01*
D21*
X125730Y90170D03*
D22*
X125730Y88998D01*
X120392Y83660D01*
X120392Y76040D01*
X99060Y30480D02*
X85090Y30480D01*
X71120Y16510D01*
X126996Y58416D02*
X126996Y76040D01*
X126996Y58416D02*
X99060Y30480D01*
X96520Y19050D02*
X133600Y56130D01*
X96520Y19050D02*
X96520Y16510D01*
X133600Y76040D02*
X134076Y76516D01*
X134076Y96298D01*
X131314Y99060D01*
X133600Y76040D02*
X133600Y56130D01*
X88900Y104140D02*
X88900Y125480D01*
X93980Y99060D02*
X131314Y99060D01*
X93980Y99060D02*
X88900Y104140D01*
X88900Y125480D02*
X105160Y125480D01*
X105410Y125730D01*
D21*
X105410Y125730D03*
D22*
X146808Y76040D02*
X146808Y17022D01*
X147320Y16510D01*
X186690Y105664D02*
X199136Y118110D01*
X186690Y91440D02*
X187680Y90450D01*
D21*
X187680Y90450D03*
X143510Y90170D03*
D22*
X146808Y84930D02*
X146808Y76040D01*
X146808Y84930D02*
X143510Y88228D01*
X143510Y90170D01*
X186690Y91440D02*
X186690Y105664D01*
X199136Y118110D02*
X199136Y119380D01*
D21*
X198120Y76200D03*
D22*
X199136Y77216D01*
X199136Y91440D01*
X153412Y76040D02*
X153412Y53598D01*
X156210Y50800D01*
D21*
X156210Y50800D03*
D22*
X156210Y33020D01*
X172720Y16510D01*
X269240Y16510D02*
X274320Y16510D01*
X269240Y16510D02*
X247730Y38020D01*
X223140Y38020D01*
X186390Y74770D01*
X181098Y74770D01*
X179828Y76040D01*
X232156Y119380D02*
X232156Y121920D01*
X224536Y129540D01*
X192369Y129540D01*
X179828Y116999D02*
X179828Y76040D01*
X179828Y116999D02*
X192369Y129540D01*
X255880Y67310D02*
X257150Y66040D01*
X257150Y48234D01*
X256880Y48260D01*
X240284Y70714D02*
X240284Y91440D01*
X240284Y70714D02*
X236880Y67310D01*
X72390Y133350D02*
X45720Y160020D01*
X45720Y168910D01*
X120392Y142080D02*
X120392Y134460D01*
X120392Y142080D02*
X119122Y143350D01*
D21*
X72390Y133350D03*
D22*
X82390Y143350D01*
X119122Y143350D01*
X77097Y168910D02*
X71120Y168910D01*
X77097Y168910D02*
X97417Y148590D01*
X126992Y134464D02*
X126996Y134460D01*
X126992Y134464D02*
X126992Y144788D01*
X123190Y148590D02*
X97417Y148590D01*
X123190Y148590D02*
X126992Y144788D01*
X344420Y163830D02*
X357120Y163830D01*
X344420Y163830D02*
X334010Y153420D01*
X334010Y152400D01*
D21*
X334010Y152400D03*
D22*
X328930Y147320D01*
X281947Y147320D01*
X254007Y119380D01*
X240284Y119380D01*
M02*
