M48
;GenerationSoftware,Autodesk,EAGLE,9.6.1*%
;CreationDate,2025-01-28T14:40:47Z*%
FMAT,2
ICI,OFF
METRIC,TZ,000.000
T3C0.350
T2C0.900
T1C1.016
%
G90
M71
T1
X32512Y1651
X17272Y16891
X4572Y16891
X7112Y16891
X9652Y16891
X12192Y16891
X14732Y16891
X19812Y16891
X22352Y16891
X24892Y16891
X27432Y16891
X27432Y1651
X24892Y1651
X22352Y1651
X19812Y1651
X17272Y1651
X14732Y1651
X12192Y1651
X9652Y1651
X7112Y1651
X4572Y1651
X29972Y1651
X29972Y16891
X32512Y16891
X1778Y13208
X1778Y10668
X1778Y8128
X1778Y5588
X2032Y16891
X2032Y1651
T2
X37941Y6563
X37941Y10963
T3
X5207Y13208
X42672Y11303
X38449Y8763
X31337Y8763
X21981Y6223
X40132Y8763
X38354Y13589
X40132Y11303
X41402Y10033
X33401Y15240
X42672Y8763
X42672Y6223
X41402Y7493
X40132Y6223
X38354Y4064
X16002Y9017
X16660Y5853
X5969Y4318
X5080Y8001
X33356Y4426
X11176Y10922
X32385Y5588
X33147Y13589
X18838Y5946
X6096Y10160
X16239Y14836
X21971Y7620
X12446Y12065
X12573Y9017
X6096Y11938
X18768Y9045
X14351Y9017
X19812Y7620
X15621Y5080
M30