M48
;GenerationSoftware,Autodesk,EAGLE,9.6.1*%
;CreationDate,2024-09-24T17:16:18Z*%
FMAT,2
ICI,OFF
METRIC,TZ,000.000
T3C0.350
T2C0.900
T1C1.016
%
G90
M71
T1
X5207Y9398
X5207Y6858
X32512Y16891
X29972Y16891
X32512Y1651
X29972Y1651
X4572Y1651
X9652Y1651
X7112Y1651
X12192Y1651
X14732Y1651
X17272Y1651
X19812Y1651
X22352Y1651
X24892Y1651
X27432Y1651
X27432Y16891
X24892Y16891
X22352Y16891
X19812Y16891
X17272Y16891
X14732Y16891
X12192Y16891
X7112Y16891
X9652Y16891
X4572Y16891
X1778Y4318
X1778Y6858
X1778Y9398
X1778Y11938
X1778Y14478
X5207Y11938
T2
X37941Y10963
X37941Y6563
T3
X7239Y13335
X20409Y5961
X19812Y7620
X14351Y9017
X18768Y9045
X12573Y9017
X10541Y12573
X16239Y14836
X12446Y12065
X21971Y7493
X18838Y5946
X33147Y13589
X32385Y5588
X11176Y10922
X33356Y4426
X16660Y5853
X16002Y9017
X38354Y4064
X40132Y6223
X41402Y7493
X42672Y6223
X42672Y8763
X42672Y11303
X41402Y10033
X40132Y11303
X38354Y13589
X40132Y8763
X21981Y6223
X31337Y8763
X38449Y8763
X33401Y15240
M30