G04 EAGLE Gerber RS-274X export*
G75*
%MOMM*%
%FSLAX34Y34*%
%LPD*%
%INSilkscreen Bottom*%
%IPPOS*%
%AMOC8*
5,1,8,0,0,1.08239X$1,22.5*%
G01*
%ADD10C,0.076200*%
%ADD11C,0.203200*%
%ADD12C,0.200000*%
%ADD13C,0.152400*%
%ADD14C,0.050800*%
%ADD15C,0.100000*%


D10*
X54907Y37973D02*
X54907Y45339D01*
X52861Y45339D01*
X52772Y45337D01*
X52683Y45331D01*
X52594Y45321D01*
X52506Y45308D01*
X52418Y45291D01*
X52331Y45269D01*
X52246Y45244D01*
X52161Y45216D01*
X52078Y45183D01*
X51996Y45147D01*
X51916Y45108D01*
X51838Y45065D01*
X51762Y45019D01*
X51687Y44969D01*
X51615Y44916D01*
X51546Y44860D01*
X51479Y44801D01*
X51414Y44740D01*
X51353Y44675D01*
X51294Y44608D01*
X51238Y44539D01*
X51185Y44467D01*
X51135Y44392D01*
X51089Y44316D01*
X51046Y44238D01*
X51007Y44158D01*
X50971Y44076D01*
X50938Y43993D01*
X50910Y43908D01*
X50885Y43823D01*
X50863Y43736D01*
X50846Y43648D01*
X50833Y43560D01*
X50823Y43471D01*
X50817Y43382D01*
X50815Y43293D01*
X50817Y43204D01*
X50823Y43115D01*
X50833Y43026D01*
X50846Y42938D01*
X50863Y42850D01*
X50885Y42763D01*
X50910Y42678D01*
X50938Y42593D01*
X50971Y42510D01*
X51007Y42428D01*
X51046Y42348D01*
X51089Y42270D01*
X51135Y42194D01*
X51185Y42119D01*
X51238Y42047D01*
X51294Y41978D01*
X51353Y41911D01*
X51414Y41846D01*
X51479Y41785D01*
X51546Y41726D01*
X51615Y41670D01*
X51687Y41617D01*
X51762Y41567D01*
X51838Y41521D01*
X51916Y41478D01*
X51996Y41439D01*
X52078Y41403D01*
X52161Y41370D01*
X52246Y41342D01*
X52331Y41317D01*
X52418Y41295D01*
X52506Y41278D01*
X52594Y41265D01*
X52683Y41255D01*
X52772Y41249D01*
X52861Y41247D01*
X54907Y41247D01*
X52452Y41247D02*
X50815Y37973D01*
X45432Y37973D02*
X45354Y37975D01*
X45276Y37980D01*
X45199Y37990D01*
X45122Y38003D01*
X45046Y38019D01*
X44971Y38039D01*
X44897Y38063D01*
X44824Y38090D01*
X44752Y38121D01*
X44682Y38155D01*
X44614Y38192D01*
X44547Y38233D01*
X44482Y38277D01*
X44420Y38323D01*
X44360Y38373D01*
X44302Y38425D01*
X44247Y38480D01*
X44195Y38538D01*
X44145Y38598D01*
X44099Y38660D01*
X44055Y38725D01*
X44014Y38791D01*
X43977Y38860D01*
X43943Y38930D01*
X43912Y39002D01*
X43885Y39075D01*
X43861Y39149D01*
X43841Y39224D01*
X43825Y39300D01*
X43812Y39377D01*
X43802Y39454D01*
X43797Y39532D01*
X43795Y39610D01*
X45432Y37973D02*
X45546Y37975D01*
X45659Y37980D01*
X45773Y37990D01*
X45886Y38003D01*
X45998Y38020D01*
X46110Y38040D01*
X46221Y38064D01*
X46332Y38092D01*
X46441Y38123D01*
X46549Y38158D01*
X46656Y38197D01*
X46762Y38239D01*
X46866Y38284D01*
X46969Y38333D01*
X47070Y38386D01*
X47169Y38441D01*
X47267Y38500D01*
X47362Y38562D01*
X47455Y38627D01*
X47547Y38695D01*
X47635Y38766D01*
X47722Y38840D01*
X47806Y38917D01*
X47887Y38996D01*
X47682Y43702D02*
X47680Y43780D01*
X47675Y43858D01*
X47665Y43935D01*
X47652Y44012D01*
X47636Y44088D01*
X47616Y44163D01*
X47592Y44237D01*
X47565Y44310D01*
X47534Y44382D01*
X47500Y44452D01*
X47463Y44521D01*
X47422Y44587D01*
X47378Y44652D01*
X47332Y44714D01*
X47282Y44774D01*
X47230Y44832D01*
X47175Y44887D01*
X47117Y44939D01*
X47057Y44989D01*
X46995Y45035D01*
X46930Y45079D01*
X46864Y45120D01*
X46795Y45157D01*
X46725Y45191D01*
X46653Y45222D01*
X46580Y45249D01*
X46506Y45273D01*
X46431Y45293D01*
X46355Y45309D01*
X46278Y45322D01*
X46201Y45332D01*
X46123Y45337D01*
X46045Y45339D01*
X45935Y45337D01*
X45826Y45331D01*
X45716Y45321D01*
X45608Y45308D01*
X45499Y45290D01*
X45392Y45269D01*
X45285Y45243D01*
X45179Y45214D01*
X45074Y45182D01*
X44971Y45145D01*
X44869Y45105D01*
X44768Y45061D01*
X44669Y45013D01*
X44572Y44963D01*
X44477Y44908D01*
X44384Y44850D01*
X44293Y44789D01*
X44204Y44725D01*
X46864Y42269D02*
X46931Y42311D01*
X46996Y42355D01*
X47058Y42403D01*
X47118Y42453D01*
X47176Y42506D01*
X47231Y42562D01*
X47283Y42621D01*
X47333Y42681D01*
X47380Y42745D01*
X47423Y42810D01*
X47464Y42877D01*
X47501Y42946D01*
X47535Y43017D01*
X47566Y43089D01*
X47593Y43163D01*
X47617Y43237D01*
X47637Y43313D01*
X47653Y43390D01*
X47666Y43467D01*
X47676Y43545D01*
X47681Y43624D01*
X47683Y43702D01*
X44613Y41042D02*
X44547Y41001D01*
X44482Y40956D01*
X44420Y40909D01*
X44360Y40858D01*
X44302Y40805D01*
X44247Y40749D01*
X44194Y40691D01*
X44145Y40630D01*
X44098Y40567D01*
X44055Y40502D01*
X44014Y40435D01*
X43977Y40366D01*
X43943Y40295D01*
X43912Y40223D01*
X43885Y40149D01*
X43861Y40074D01*
X43841Y39999D01*
X43825Y39922D01*
X43812Y39845D01*
X43802Y39767D01*
X43797Y39688D01*
X43795Y39610D01*
X44613Y41042D02*
X46864Y42270D01*
X39257Y45339D02*
X39257Y37973D01*
X41303Y45339D02*
X37211Y45339D01*
X55429Y114173D02*
X55351Y114175D01*
X55273Y114180D01*
X55196Y114190D01*
X55119Y114203D01*
X55043Y114219D01*
X54968Y114239D01*
X54894Y114263D01*
X54821Y114290D01*
X54749Y114321D01*
X54679Y114355D01*
X54611Y114392D01*
X54544Y114433D01*
X54479Y114477D01*
X54417Y114523D01*
X54357Y114573D01*
X54299Y114625D01*
X54244Y114680D01*
X54192Y114738D01*
X54142Y114798D01*
X54096Y114860D01*
X54052Y114925D01*
X54011Y114991D01*
X53974Y115060D01*
X53940Y115130D01*
X53909Y115202D01*
X53882Y115275D01*
X53858Y115349D01*
X53838Y115424D01*
X53822Y115500D01*
X53809Y115577D01*
X53799Y115654D01*
X53794Y115732D01*
X53792Y115810D01*
X55429Y114173D02*
X55543Y114175D01*
X55656Y114180D01*
X55770Y114190D01*
X55883Y114203D01*
X55995Y114220D01*
X56107Y114240D01*
X56218Y114264D01*
X56329Y114292D01*
X56438Y114323D01*
X56546Y114358D01*
X56653Y114397D01*
X56759Y114439D01*
X56863Y114484D01*
X56966Y114533D01*
X57067Y114586D01*
X57166Y114641D01*
X57264Y114700D01*
X57359Y114762D01*
X57452Y114827D01*
X57544Y114895D01*
X57632Y114966D01*
X57719Y115040D01*
X57803Y115117D01*
X57884Y115196D01*
X57680Y119902D02*
X57678Y119980D01*
X57673Y120058D01*
X57663Y120135D01*
X57650Y120212D01*
X57634Y120288D01*
X57614Y120363D01*
X57590Y120437D01*
X57563Y120510D01*
X57532Y120582D01*
X57498Y120652D01*
X57461Y120721D01*
X57420Y120787D01*
X57376Y120852D01*
X57330Y120914D01*
X57280Y120974D01*
X57228Y121032D01*
X57173Y121087D01*
X57115Y121139D01*
X57055Y121189D01*
X56993Y121235D01*
X56928Y121279D01*
X56862Y121320D01*
X56793Y121357D01*
X56723Y121391D01*
X56651Y121422D01*
X56578Y121449D01*
X56504Y121473D01*
X56429Y121493D01*
X56353Y121509D01*
X56276Y121522D01*
X56199Y121532D01*
X56121Y121537D01*
X56043Y121539D01*
X55933Y121537D01*
X55824Y121531D01*
X55714Y121521D01*
X55606Y121508D01*
X55497Y121490D01*
X55390Y121469D01*
X55283Y121443D01*
X55177Y121414D01*
X55072Y121382D01*
X54969Y121345D01*
X54867Y121305D01*
X54766Y121261D01*
X54667Y121213D01*
X54570Y121163D01*
X54475Y121108D01*
X54382Y121050D01*
X54291Y120989D01*
X54202Y120925D01*
X56861Y118469D02*
X56928Y118511D01*
X56993Y118555D01*
X57055Y118603D01*
X57115Y118653D01*
X57173Y118706D01*
X57228Y118762D01*
X57280Y118821D01*
X57330Y118881D01*
X57377Y118945D01*
X57420Y119010D01*
X57461Y119077D01*
X57498Y119146D01*
X57532Y119217D01*
X57563Y119289D01*
X57590Y119363D01*
X57614Y119437D01*
X57634Y119513D01*
X57650Y119590D01*
X57663Y119667D01*
X57673Y119745D01*
X57678Y119824D01*
X57680Y119902D01*
X54611Y117242D02*
X54545Y117201D01*
X54480Y117156D01*
X54418Y117109D01*
X54358Y117058D01*
X54300Y117005D01*
X54245Y116949D01*
X54192Y116891D01*
X54143Y116830D01*
X54096Y116767D01*
X54053Y116702D01*
X54012Y116635D01*
X53975Y116566D01*
X53941Y116495D01*
X53910Y116423D01*
X53883Y116349D01*
X53859Y116274D01*
X53839Y116199D01*
X53823Y116122D01*
X53810Y116045D01*
X53800Y115967D01*
X53795Y115888D01*
X53793Y115810D01*
X54611Y117242D02*
X56861Y118470D01*
X51065Y121539D02*
X49428Y114173D01*
X47792Y119084D01*
X46155Y114173D01*
X44518Y121539D01*
X41303Y121539D02*
X41303Y114173D01*
X41303Y121539D02*
X39257Y121539D01*
X39168Y121537D01*
X39079Y121531D01*
X38990Y121521D01*
X38902Y121508D01*
X38814Y121491D01*
X38727Y121469D01*
X38642Y121444D01*
X38557Y121416D01*
X38474Y121383D01*
X38392Y121347D01*
X38312Y121308D01*
X38234Y121265D01*
X38158Y121219D01*
X38083Y121169D01*
X38011Y121116D01*
X37942Y121060D01*
X37875Y121001D01*
X37810Y120940D01*
X37749Y120875D01*
X37690Y120808D01*
X37634Y120739D01*
X37581Y120667D01*
X37531Y120592D01*
X37485Y120516D01*
X37442Y120438D01*
X37403Y120358D01*
X37367Y120276D01*
X37334Y120193D01*
X37306Y120108D01*
X37281Y120023D01*
X37259Y119936D01*
X37242Y119848D01*
X37229Y119760D01*
X37219Y119671D01*
X37213Y119582D01*
X37211Y119493D01*
X37211Y116219D01*
X37213Y116130D01*
X37219Y116041D01*
X37229Y115952D01*
X37242Y115864D01*
X37259Y115776D01*
X37281Y115689D01*
X37306Y115604D01*
X37334Y115519D01*
X37367Y115436D01*
X37403Y115354D01*
X37442Y115274D01*
X37485Y115196D01*
X37531Y115120D01*
X37581Y115045D01*
X37634Y114973D01*
X37690Y114904D01*
X37749Y114837D01*
X37810Y114772D01*
X37875Y114711D01*
X37942Y114652D01*
X38011Y114596D01*
X38083Y114543D01*
X38158Y114493D01*
X38234Y114447D01*
X38312Y114404D01*
X38392Y114365D01*
X38474Y114329D01*
X38557Y114296D01*
X38642Y114268D01*
X38727Y114243D01*
X38814Y114221D01*
X38902Y114204D01*
X38990Y114191D01*
X39079Y114181D01*
X39168Y114175D01*
X39257Y114173D01*
X41303Y114173D01*
X53888Y139573D02*
X55934Y139573D01*
X53888Y139573D02*
X53799Y139575D01*
X53710Y139581D01*
X53621Y139591D01*
X53533Y139604D01*
X53445Y139621D01*
X53358Y139643D01*
X53273Y139668D01*
X53188Y139696D01*
X53105Y139729D01*
X53023Y139765D01*
X52943Y139804D01*
X52865Y139847D01*
X52789Y139893D01*
X52714Y139943D01*
X52642Y139996D01*
X52573Y140052D01*
X52506Y140111D01*
X52441Y140172D01*
X52380Y140237D01*
X52321Y140304D01*
X52265Y140373D01*
X52212Y140445D01*
X52162Y140520D01*
X52116Y140596D01*
X52073Y140674D01*
X52034Y140754D01*
X51998Y140836D01*
X51965Y140919D01*
X51937Y141004D01*
X51912Y141089D01*
X51890Y141176D01*
X51873Y141264D01*
X51860Y141352D01*
X51850Y141441D01*
X51844Y141530D01*
X51842Y141619D01*
X51844Y141708D01*
X51850Y141797D01*
X51860Y141886D01*
X51873Y141974D01*
X51890Y142062D01*
X51912Y142149D01*
X51937Y142234D01*
X51965Y142319D01*
X51998Y142402D01*
X52034Y142484D01*
X52073Y142564D01*
X52116Y142642D01*
X52162Y142718D01*
X52212Y142793D01*
X52265Y142865D01*
X52321Y142934D01*
X52380Y143001D01*
X52441Y143066D01*
X52506Y143127D01*
X52573Y143186D01*
X52642Y143242D01*
X52714Y143295D01*
X52789Y143345D01*
X52865Y143391D01*
X52943Y143434D01*
X53023Y143473D01*
X53105Y143509D01*
X53188Y143542D01*
X53273Y143570D01*
X53358Y143595D01*
X53445Y143617D01*
X53533Y143634D01*
X53621Y143647D01*
X53710Y143657D01*
X53799Y143663D01*
X53888Y143665D01*
X53478Y146939D02*
X55934Y146939D01*
X53478Y146939D02*
X53399Y146937D01*
X53320Y146931D01*
X53241Y146922D01*
X53163Y146909D01*
X53086Y146891D01*
X53010Y146871D01*
X52935Y146846D01*
X52861Y146818D01*
X52788Y146787D01*
X52717Y146751D01*
X52648Y146713D01*
X52581Y146671D01*
X52516Y146626D01*
X52453Y146578D01*
X52392Y146527D01*
X52335Y146473D01*
X52279Y146417D01*
X52227Y146358D01*
X52177Y146296D01*
X52131Y146232D01*
X52087Y146166D01*
X52047Y146098D01*
X52011Y146028D01*
X51977Y145956D01*
X51947Y145882D01*
X51921Y145808D01*
X51898Y145732D01*
X51880Y145655D01*
X51864Y145578D01*
X51853Y145499D01*
X51845Y145421D01*
X51841Y145342D01*
X51841Y145262D01*
X51845Y145183D01*
X51853Y145105D01*
X51864Y145026D01*
X51880Y144949D01*
X51898Y144872D01*
X51921Y144796D01*
X51947Y144722D01*
X51977Y144648D01*
X52011Y144576D01*
X52047Y144506D01*
X52087Y144438D01*
X52131Y144372D01*
X52177Y144308D01*
X52227Y144246D01*
X52279Y144187D01*
X52335Y144131D01*
X52392Y144077D01*
X52453Y144026D01*
X52516Y143978D01*
X52581Y143933D01*
X52648Y143891D01*
X52717Y143853D01*
X52788Y143817D01*
X52861Y143786D01*
X52935Y143758D01*
X53010Y143733D01*
X53086Y143713D01*
X53163Y143695D01*
X53241Y143682D01*
X53320Y143673D01*
X53399Y143667D01*
X53478Y143665D01*
X55115Y143665D01*
X49028Y146939D02*
X46572Y139573D01*
X44117Y146939D01*
X41303Y139573D02*
X39257Y139573D01*
X39168Y139575D01*
X39079Y139581D01*
X38990Y139591D01*
X38902Y139604D01*
X38814Y139621D01*
X38727Y139643D01*
X38642Y139668D01*
X38557Y139696D01*
X38474Y139729D01*
X38392Y139765D01*
X38312Y139804D01*
X38234Y139847D01*
X38158Y139893D01*
X38083Y139943D01*
X38011Y139996D01*
X37942Y140052D01*
X37875Y140111D01*
X37810Y140172D01*
X37749Y140237D01*
X37690Y140304D01*
X37634Y140373D01*
X37581Y140445D01*
X37531Y140520D01*
X37485Y140596D01*
X37442Y140674D01*
X37403Y140754D01*
X37367Y140836D01*
X37334Y140919D01*
X37306Y141004D01*
X37281Y141089D01*
X37259Y141176D01*
X37242Y141264D01*
X37229Y141352D01*
X37219Y141441D01*
X37213Y141530D01*
X37211Y141619D01*
X37213Y141708D01*
X37219Y141797D01*
X37229Y141886D01*
X37242Y141974D01*
X37259Y142062D01*
X37281Y142149D01*
X37306Y142234D01*
X37334Y142319D01*
X37367Y142402D01*
X37403Y142484D01*
X37442Y142564D01*
X37485Y142642D01*
X37531Y142718D01*
X37581Y142793D01*
X37634Y142865D01*
X37690Y142934D01*
X37749Y143001D01*
X37810Y143066D01*
X37875Y143127D01*
X37942Y143186D01*
X38011Y143242D01*
X38083Y143295D01*
X38158Y143345D01*
X38234Y143391D01*
X38312Y143434D01*
X38392Y143473D01*
X38474Y143509D01*
X38557Y143542D01*
X38642Y143570D01*
X38727Y143595D01*
X38814Y143617D01*
X38902Y143634D01*
X38990Y143647D01*
X39079Y143657D01*
X39168Y143663D01*
X39257Y143665D01*
X38848Y146939D02*
X41303Y146939D01*
X38848Y146939D02*
X38769Y146937D01*
X38690Y146931D01*
X38611Y146922D01*
X38533Y146909D01*
X38456Y146891D01*
X38380Y146871D01*
X38305Y146846D01*
X38231Y146818D01*
X38158Y146787D01*
X38087Y146751D01*
X38018Y146713D01*
X37951Y146671D01*
X37886Y146626D01*
X37823Y146578D01*
X37762Y146527D01*
X37705Y146473D01*
X37649Y146417D01*
X37597Y146358D01*
X37547Y146296D01*
X37501Y146232D01*
X37457Y146166D01*
X37417Y146098D01*
X37381Y146028D01*
X37347Y145956D01*
X37317Y145882D01*
X37291Y145808D01*
X37268Y145732D01*
X37250Y145655D01*
X37234Y145578D01*
X37223Y145499D01*
X37215Y145421D01*
X37211Y145342D01*
X37211Y145262D01*
X37215Y145183D01*
X37223Y145105D01*
X37234Y145026D01*
X37250Y144949D01*
X37268Y144872D01*
X37291Y144796D01*
X37317Y144722D01*
X37347Y144648D01*
X37381Y144576D01*
X37417Y144506D01*
X37457Y144438D01*
X37501Y144372D01*
X37547Y144308D01*
X37597Y144246D01*
X37649Y144187D01*
X37705Y144131D01*
X37762Y144077D01*
X37823Y144026D01*
X37886Y143978D01*
X37951Y143933D01*
X38018Y143891D01*
X38087Y143853D01*
X38158Y143817D01*
X38231Y143786D01*
X38305Y143758D01*
X38380Y143733D01*
X38456Y143713D01*
X38533Y143695D01*
X38611Y143682D01*
X38690Y143673D01*
X38769Y143667D01*
X38848Y143665D01*
X40485Y143665D01*
X52817Y92865D02*
X54044Y92865D01*
X52817Y92865D02*
X52817Y88773D01*
X55272Y88773D01*
X55350Y88775D01*
X55428Y88780D01*
X55505Y88790D01*
X55582Y88803D01*
X55658Y88819D01*
X55733Y88839D01*
X55807Y88863D01*
X55880Y88890D01*
X55952Y88921D01*
X56022Y88955D01*
X56091Y88992D01*
X56157Y89033D01*
X56222Y89077D01*
X56284Y89123D01*
X56344Y89173D01*
X56402Y89225D01*
X56457Y89280D01*
X56509Y89338D01*
X56559Y89398D01*
X56605Y89460D01*
X56649Y89525D01*
X56690Y89592D01*
X56727Y89660D01*
X56761Y89730D01*
X56792Y89802D01*
X56819Y89875D01*
X56843Y89949D01*
X56863Y90024D01*
X56879Y90100D01*
X56892Y90177D01*
X56902Y90254D01*
X56907Y90332D01*
X56909Y90410D01*
X56909Y94502D01*
X56907Y94580D01*
X56902Y94658D01*
X56892Y94735D01*
X56879Y94812D01*
X56863Y94888D01*
X56843Y94963D01*
X56819Y95037D01*
X56792Y95110D01*
X56761Y95182D01*
X56727Y95252D01*
X56690Y95321D01*
X56649Y95387D01*
X56605Y95452D01*
X56559Y95514D01*
X56509Y95574D01*
X56457Y95632D01*
X56402Y95687D01*
X56344Y95739D01*
X56284Y95789D01*
X56222Y95835D01*
X56157Y95879D01*
X56091Y95920D01*
X56022Y95957D01*
X55952Y95991D01*
X55880Y96022D01*
X55807Y96049D01*
X55733Y96073D01*
X55658Y96093D01*
X55582Y96109D01*
X55505Y96122D01*
X55428Y96132D01*
X55350Y96137D01*
X55272Y96139D01*
X52817Y96139D01*
X49106Y96139D02*
X49106Y88773D01*
X45014Y88773D02*
X49106Y96139D01*
X45014Y96139D02*
X45014Y88773D01*
X41303Y88773D02*
X41303Y96139D01*
X39257Y96139D01*
X39168Y96137D01*
X39079Y96131D01*
X38990Y96121D01*
X38902Y96108D01*
X38814Y96091D01*
X38727Y96069D01*
X38642Y96044D01*
X38557Y96016D01*
X38474Y95983D01*
X38392Y95947D01*
X38312Y95908D01*
X38234Y95865D01*
X38158Y95819D01*
X38083Y95769D01*
X38011Y95716D01*
X37942Y95660D01*
X37875Y95601D01*
X37810Y95540D01*
X37749Y95475D01*
X37690Y95408D01*
X37634Y95339D01*
X37581Y95267D01*
X37531Y95192D01*
X37485Y95116D01*
X37442Y95038D01*
X37403Y94958D01*
X37367Y94876D01*
X37334Y94793D01*
X37306Y94708D01*
X37281Y94623D01*
X37259Y94536D01*
X37242Y94448D01*
X37229Y94360D01*
X37219Y94271D01*
X37213Y94182D01*
X37211Y94093D01*
X37211Y90819D01*
X37213Y90730D01*
X37219Y90641D01*
X37229Y90552D01*
X37242Y90464D01*
X37259Y90376D01*
X37281Y90289D01*
X37306Y90204D01*
X37334Y90119D01*
X37367Y90036D01*
X37403Y89954D01*
X37442Y89874D01*
X37485Y89796D01*
X37531Y89720D01*
X37581Y89645D01*
X37634Y89573D01*
X37690Y89504D01*
X37749Y89437D01*
X37810Y89372D01*
X37875Y89311D01*
X37942Y89252D01*
X38011Y89196D01*
X38083Y89143D01*
X38158Y89093D01*
X38234Y89047D01*
X38312Y89004D01*
X38392Y88965D01*
X38474Y88929D01*
X38557Y88896D01*
X38642Y88868D01*
X38727Y88843D01*
X38814Y88821D01*
X38902Y88804D01*
X38990Y88791D01*
X39079Y88781D01*
X39168Y88775D01*
X39257Y88773D01*
X41303Y88773D01*
X52707Y66280D02*
X52709Y66202D01*
X52714Y66124D01*
X52724Y66047D01*
X52737Y65970D01*
X52753Y65894D01*
X52773Y65819D01*
X52797Y65745D01*
X52824Y65672D01*
X52855Y65600D01*
X52889Y65530D01*
X52926Y65461D01*
X52967Y65395D01*
X53011Y65330D01*
X53057Y65268D01*
X53107Y65208D01*
X53159Y65150D01*
X53214Y65095D01*
X53272Y65043D01*
X53332Y64993D01*
X53394Y64947D01*
X53459Y64903D01*
X53526Y64862D01*
X53594Y64825D01*
X53664Y64791D01*
X53736Y64760D01*
X53809Y64733D01*
X53883Y64709D01*
X53958Y64689D01*
X54034Y64673D01*
X54111Y64660D01*
X54188Y64650D01*
X54266Y64645D01*
X54344Y64643D01*
X54458Y64645D01*
X54571Y64650D01*
X54685Y64660D01*
X54798Y64673D01*
X54910Y64690D01*
X55022Y64710D01*
X55133Y64734D01*
X55244Y64762D01*
X55353Y64793D01*
X55461Y64828D01*
X55568Y64867D01*
X55674Y64909D01*
X55778Y64954D01*
X55881Y65003D01*
X55982Y65056D01*
X56081Y65111D01*
X56179Y65170D01*
X56274Y65232D01*
X56367Y65297D01*
X56459Y65365D01*
X56547Y65436D01*
X56634Y65510D01*
X56718Y65587D01*
X56799Y65666D01*
X56594Y70372D02*
X56592Y70450D01*
X56587Y70528D01*
X56577Y70605D01*
X56564Y70682D01*
X56548Y70758D01*
X56528Y70833D01*
X56504Y70907D01*
X56477Y70980D01*
X56446Y71052D01*
X56412Y71122D01*
X56375Y71191D01*
X56334Y71257D01*
X56290Y71322D01*
X56244Y71384D01*
X56194Y71444D01*
X56142Y71502D01*
X56087Y71557D01*
X56029Y71609D01*
X55969Y71659D01*
X55907Y71705D01*
X55842Y71749D01*
X55776Y71790D01*
X55707Y71827D01*
X55637Y71861D01*
X55565Y71892D01*
X55492Y71919D01*
X55418Y71943D01*
X55343Y71963D01*
X55267Y71979D01*
X55190Y71992D01*
X55113Y72002D01*
X55035Y72007D01*
X54957Y72009D01*
X54847Y72007D01*
X54738Y72001D01*
X54628Y71991D01*
X54520Y71978D01*
X54411Y71960D01*
X54304Y71939D01*
X54197Y71913D01*
X54091Y71884D01*
X53986Y71852D01*
X53883Y71815D01*
X53781Y71775D01*
X53680Y71731D01*
X53581Y71683D01*
X53484Y71633D01*
X53389Y71578D01*
X53296Y71520D01*
X53205Y71459D01*
X53116Y71395D01*
X55776Y68939D02*
X55843Y68981D01*
X55908Y69025D01*
X55970Y69073D01*
X56030Y69123D01*
X56088Y69176D01*
X56143Y69232D01*
X56195Y69291D01*
X56245Y69351D01*
X56292Y69415D01*
X56335Y69480D01*
X56376Y69547D01*
X56413Y69616D01*
X56447Y69687D01*
X56478Y69759D01*
X56505Y69833D01*
X56529Y69907D01*
X56549Y69983D01*
X56565Y70060D01*
X56578Y70137D01*
X56588Y70215D01*
X56593Y70294D01*
X56595Y70372D01*
X53525Y67712D02*
X53459Y67671D01*
X53394Y67626D01*
X53332Y67579D01*
X53272Y67528D01*
X53214Y67475D01*
X53159Y67419D01*
X53106Y67361D01*
X53057Y67300D01*
X53010Y67237D01*
X52967Y67172D01*
X52926Y67105D01*
X52889Y67036D01*
X52855Y66965D01*
X52824Y66893D01*
X52797Y66819D01*
X52773Y66744D01*
X52753Y66669D01*
X52737Y66592D01*
X52724Y66515D01*
X52714Y66437D01*
X52709Y66358D01*
X52707Y66280D01*
X53525Y67712D02*
X55776Y68940D01*
X49980Y72009D02*
X48343Y64643D01*
X46706Y69554D01*
X45069Y64643D01*
X43432Y72009D01*
X38848Y64643D02*
X37211Y64643D01*
X38848Y64643D02*
X38926Y64645D01*
X39004Y64650D01*
X39081Y64660D01*
X39158Y64673D01*
X39234Y64689D01*
X39309Y64709D01*
X39383Y64733D01*
X39456Y64760D01*
X39528Y64791D01*
X39598Y64825D01*
X39667Y64862D01*
X39733Y64903D01*
X39798Y64947D01*
X39860Y64993D01*
X39920Y65043D01*
X39978Y65095D01*
X40033Y65150D01*
X40085Y65208D01*
X40135Y65268D01*
X40181Y65330D01*
X40225Y65395D01*
X40266Y65462D01*
X40303Y65530D01*
X40337Y65600D01*
X40368Y65672D01*
X40395Y65745D01*
X40419Y65819D01*
X40439Y65894D01*
X40455Y65970D01*
X40468Y66047D01*
X40478Y66124D01*
X40483Y66202D01*
X40485Y66280D01*
X40485Y70372D01*
X40483Y70450D01*
X40478Y70528D01*
X40468Y70605D01*
X40455Y70682D01*
X40439Y70758D01*
X40419Y70833D01*
X40395Y70907D01*
X40368Y70980D01*
X40337Y71052D01*
X40303Y71122D01*
X40266Y71191D01*
X40225Y71257D01*
X40181Y71322D01*
X40135Y71384D01*
X40085Y71444D01*
X40033Y71502D01*
X39978Y71557D01*
X39920Y71609D01*
X39860Y71659D01*
X39798Y71705D01*
X39733Y71749D01*
X39667Y71790D01*
X39598Y71827D01*
X39528Y71861D01*
X39456Y71892D01*
X39383Y71919D01*
X39309Y71943D01*
X39234Y71963D01*
X39158Y71979D01*
X39081Y71992D01*
X39004Y72002D01*
X38926Y72007D01*
X38848Y72009D01*
X37211Y72009D01*
D11*
X24130Y157480D02*
X11430Y157480D01*
X24130Y157480D02*
X30480Y151130D01*
X30480Y138430D01*
X24130Y132080D01*
X30480Y125730D01*
X30480Y113030D01*
X24130Y106680D01*
X30480Y100330D01*
X30480Y87630D01*
X24130Y81280D01*
X30480Y74930D01*
X30480Y62230D01*
X24130Y55880D01*
X30480Y49530D01*
X30480Y36830D01*
X24130Y30480D01*
X11430Y30480D01*
X5080Y36830D01*
X5080Y49530D01*
X11430Y55880D01*
X5080Y62230D01*
X5080Y74930D01*
X11430Y81280D01*
X5080Y87630D01*
X5080Y100330D01*
X11430Y106680D01*
X5080Y113030D01*
X5080Y125730D01*
X11430Y132080D01*
X5080Y138430D01*
X5080Y151130D01*
X11430Y157480D01*
D10*
X427609Y30099D02*
X427609Y22733D01*
X427609Y30099D02*
X425563Y30099D01*
X425474Y30097D01*
X425385Y30091D01*
X425296Y30081D01*
X425208Y30068D01*
X425120Y30051D01*
X425033Y30029D01*
X424948Y30004D01*
X424863Y29976D01*
X424780Y29943D01*
X424698Y29907D01*
X424618Y29868D01*
X424540Y29825D01*
X424464Y29779D01*
X424389Y29729D01*
X424317Y29676D01*
X424248Y29620D01*
X424181Y29561D01*
X424116Y29500D01*
X424055Y29435D01*
X423996Y29368D01*
X423940Y29299D01*
X423887Y29227D01*
X423837Y29152D01*
X423791Y29076D01*
X423748Y28998D01*
X423709Y28918D01*
X423673Y28836D01*
X423640Y28753D01*
X423612Y28668D01*
X423587Y28583D01*
X423565Y28496D01*
X423548Y28408D01*
X423535Y28320D01*
X423525Y28231D01*
X423519Y28142D01*
X423517Y28053D01*
X423519Y27964D01*
X423525Y27875D01*
X423535Y27786D01*
X423548Y27698D01*
X423565Y27610D01*
X423587Y27523D01*
X423612Y27438D01*
X423640Y27353D01*
X423673Y27270D01*
X423709Y27188D01*
X423748Y27108D01*
X423791Y27030D01*
X423837Y26954D01*
X423887Y26879D01*
X423940Y26807D01*
X423996Y26738D01*
X424055Y26671D01*
X424116Y26606D01*
X424181Y26545D01*
X424248Y26486D01*
X424317Y26430D01*
X424389Y26377D01*
X424464Y26327D01*
X424540Y26281D01*
X424618Y26238D01*
X424698Y26199D01*
X424780Y26163D01*
X424863Y26130D01*
X424948Y26102D01*
X425033Y26077D01*
X425120Y26055D01*
X425208Y26038D01*
X425296Y26025D01*
X425385Y26015D01*
X425474Y26009D01*
X425563Y26007D01*
X427609Y26007D01*
X421065Y30099D02*
X418609Y26621D01*
X416154Y30099D01*
X418609Y26621D02*
X418609Y22733D01*
X412979Y26825D02*
X410933Y26825D01*
X410844Y26823D01*
X410755Y26817D01*
X410666Y26807D01*
X410578Y26794D01*
X410490Y26777D01*
X410403Y26755D01*
X410318Y26730D01*
X410233Y26702D01*
X410150Y26669D01*
X410068Y26633D01*
X409988Y26594D01*
X409910Y26551D01*
X409834Y26505D01*
X409759Y26455D01*
X409687Y26402D01*
X409618Y26346D01*
X409551Y26287D01*
X409486Y26226D01*
X409425Y26161D01*
X409366Y26094D01*
X409310Y26025D01*
X409257Y25953D01*
X409207Y25878D01*
X409161Y25802D01*
X409118Y25724D01*
X409079Y25644D01*
X409043Y25562D01*
X409010Y25479D01*
X408982Y25394D01*
X408957Y25309D01*
X408935Y25222D01*
X408918Y25134D01*
X408905Y25046D01*
X408895Y24957D01*
X408889Y24868D01*
X408887Y24779D01*
X408889Y24690D01*
X408895Y24601D01*
X408905Y24512D01*
X408918Y24424D01*
X408935Y24336D01*
X408957Y24249D01*
X408982Y24164D01*
X409010Y24079D01*
X409043Y23996D01*
X409079Y23914D01*
X409118Y23834D01*
X409161Y23756D01*
X409207Y23680D01*
X409257Y23605D01*
X409310Y23533D01*
X409366Y23464D01*
X409425Y23397D01*
X409486Y23332D01*
X409551Y23271D01*
X409618Y23212D01*
X409687Y23156D01*
X409759Y23103D01*
X409834Y23053D01*
X409910Y23007D01*
X409988Y22964D01*
X410068Y22925D01*
X410150Y22889D01*
X410233Y22856D01*
X410318Y22828D01*
X410403Y22803D01*
X410490Y22781D01*
X410578Y22764D01*
X410666Y22751D01*
X410755Y22741D01*
X410844Y22735D01*
X410933Y22733D01*
X412979Y22733D01*
X412979Y30099D01*
X410933Y30099D01*
X410854Y30097D01*
X410775Y30091D01*
X410696Y30082D01*
X410618Y30069D01*
X410541Y30051D01*
X410465Y30031D01*
X410390Y30006D01*
X410316Y29978D01*
X410243Y29947D01*
X410172Y29911D01*
X410103Y29873D01*
X410036Y29831D01*
X409971Y29786D01*
X409908Y29738D01*
X409847Y29687D01*
X409790Y29633D01*
X409734Y29577D01*
X409682Y29518D01*
X409632Y29456D01*
X409586Y29392D01*
X409542Y29326D01*
X409502Y29258D01*
X409466Y29188D01*
X409432Y29116D01*
X409402Y29042D01*
X409376Y28968D01*
X409353Y28892D01*
X409335Y28815D01*
X409319Y28738D01*
X409308Y28659D01*
X409300Y28581D01*
X409296Y28502D01*
X409296Y28422D01*
X409300Y28343D01*
X409308Y28265D01*
X409319Y28186D01*
X409335Y28109D01*
X409353Y28032D01*
X409376Y27956D01*
X409402Y27882D01*
X409432Y27808D01*
X409466Y27736D01*
X409502Y27666D01*
X409542Y27598D01*
X409586Y27532D01*
X409632Y27468D01*
X409682Y27406D01*
X409734Y27347D01*
X409790Y27291D01*
X409847Y27237D01*
X409908Y27186D01*
X409971Y27138D01*
X410036Y27093D01*
X410103Y27051D01*
X410172Y27013D01*
X410243Y26977D01*
X410316Y26946D01*
X410390Y26918D01*
X410465Y26893D01*
X410541Y26873D01*
X410618Y26855D01*
X410696Y26842D01*
X410775Y26833D01*
X410854Y26827D01*
X410933Y26825D01*
X405781Y24779D02*
X405781Y30099D01*
X405781Y24779D02*
X405779Y24690D01*
X405773Y24601D01*
X405763Y24512D01*
X405750Y24424D01*
X405733Y24336D01*
X405711Y24249D01*
X405686Y24164D01*
X405658Y24079D01*
X405625Y23996D01*
X405589Y23914D01*
X405550Y23834D01*
X405507Y23756D01*
X405461Y23680D01*
X405411Y23605D01*
X405358Y23533D01*
X405302Y23464D01*
X405243Y23397D01*
X405182Y23332D01*
X405117Y23271D01*
X405050Y23212D01*
X404981Y23156D01*
X404909Y23103D01*
X404834Y23053D01*
X404758Y23007D01*
X404680Y22964D01*
X404600Y22925D01*
X404518Y22889D01*
X404435Y22856D01*
X404350Y22828D01*
X404265Y22803D01*
X404178Y22781D01*
X404090Y22764D01*
X404002Y22751D01*
X403913Y22741D01*
X403824Y22735D01*
X403735Y22733D01*
X403646Y22735D01*
X403557Y22741D01*
X403468Y22751D01*
X403380Y22764D01*
X403292Y22781D01*
X403205Y22803D01*
X403120Y22828D01*
X403035Y22856D01*
X402952Y22889D01*
X402870Y22925D01*
X402790Y22964D01*
X402712Y23007D01*
X402636Y23053D01*
X402561Y23103D01*
X402489Y23156D01*
X402420Y23212D01*
X402353Y23271D01*
X402288Y23332D01*
X402227Y23397D01*
X402168Y23464D01*
X402112Y23533D01*
X402059Y23605D01*
X402009Y23680D01*
X401963Y23756D01*
X401920Y23834D01*
X401881Y23914D01*
X401845Y23996D01*
X401812Y24079D01*
X401784Y24164D01*
X401759Y24249D01*
X401737Y24336D01*
X401720Y24424D01*
X401707Y24512D01*
X401697Y24601D01*
X401691Y24690D01*
X401689Y24779D01*
X401689Y30099D01*
X395114Y26825D02*
X393886Y26825D01*
X393886Y22733D01*
X396341Y22733D01*
X396419Y22735D01*
X396497Y22740D01*
X396574Y22750D01*
X396651Y22763D01*
X396727Y22779D01*
X396802Y22799D01*
X396876Y22823D01*
X396949Y22850D01*
X397021Y22881D01*
X397091Y22915D01*
X397160Y22952D01*
X397226Y22993D01*
X397291Y23037D01*
X397353Y23083D01*
X397413Y23133D01*
X397471Y23185D01*
X397526Y23240D01*
X397578Y23298D01*
X397628Y23358D01*
X397674Y23420D01*
X397718Y23485D01*
X397759Y23552D01*
X397796Y23620D01*
X397830Y23690D01*
X397861Y23762D01*
X397888Y23835D01*
X397912Y23909D01*
X397932Y23984D01*
X397948Y24060D01*
X397961Y24137D01*
X397971Y24214D01*
X397976Y24292D01*
X397978Y24370D01*
X397978Y28462D01*
X397976Y28540D01*
X397971Y28618D01*
X397961Y28695D01*
X397948Y28772D01*
X397932Y28848D01*
X397912Y28923D01*
X397888Y28997D01*
X397861Y29070D01*
X397830Y29142D01*
X397796Y29212D01*
X397759Y29281D01*
X397718Y29347D01*
X397674Y29412D01*
X397628Y29474D01*
X397578Y29534D01*
X397526Y29592D01*
X397471Y29647D01*
X397413Y29699D01*
X397353Y29749D01*
X397291Y29795D01*
X397226Y29839D01*
X397160Y29880D01*
X397091Y29917D01*
X397021Y29951D01*
X396949Y29982D01*
X396876Y30009D01*
X396802Y30033D01*
X396727Y30053D01*
X396651Y30069D01*
X396574Y30082D01*
X396497Y30092D01*
X396419Y30097D01*
X396341Y30099D01*
X393886Y30099D01*
X390419Y22733D02*
X388373Y22733D01*
X388284Y22735D01*
X388195Y22741D01*
X388106Y22751D01*
X388018Y22764D01*
X387930Y22781D01*
X387843Y22803D01*
X387758Y22828D01*
X387673Y22856D01*
X387590Y22889D01*
X387508Y22925D01*
X387428Y22964D01*
X387350Y23007D01*
X387274Y23053D01*
X387199Y23103D01*
X387127Y23156D01*
X387058Y23212D01*
X386991Y23271D01*
X386926Y23332D01*
X386865Y23397D01*
X386806Y23464D01*
X386750Y23533D01*
X386697Y23605D01*
X386647Y23680D01*
X386601Y23756D01*
X386558Y23834D01*
X386519Y23914D01*
X386483Y23996D01*
X386450Y24079D01*
X386422Y24164D01*
X386397Y24249D01*
X386375Y24336D01*
X386358Y24424D01*
X386345Y24512D01*
X386335Y24601D01*
X386329Y24690D01*
X386327Y24779D01*
X386329Y24868D01*
X386335Y24957D01*
X386345Y25046D01*
X386358Y25134D01*
X386375Y25222D01*
X386397Y25309D01*
X386422Y25394D01*
X386450Y25479D01*
X386483Y25562D01*
X386519Y25644D01*
X386558Y25724D01*
X386601Y25802D01*
X386647Y25878D01*
X386697Y25953D01*
X386750Y26025D01*
X386806Y26094D01*
X386865Y26161D01*
X386926Y26226D01*
X386991Y26287D01*
X387058Y26346D01*
X387127Y26402D01*
X387199Y26455D01*
X387274Y26505D01*
X387350Y26551D01*
X387428Y26594D01*
X387508Y26633D01*
X387590Y26669D01*
X387673Y26702D01*
X387758Y26730D01*
X387843Y26755D01*
X387930Y26777D01*
X388018Y26794D01*
X388106Y26807D01*
X388195Y26817D01*
X388284Y26823D01*
X388373Y26825D01*
X387964Y30099D02*
X390419Y30099D01*
X387964Y30099D02*
X387885Y30097D01*
X387806Y30091D01*
X387727Y30082D01*
X387649Y30069D01*
X387572Y30051D01*
X387496Y30031D01*
X387421Y30006D01*
X387347Y29978D01*
X387274Y29947D01*
X387203Y29911D01*
X387134Y29873D01*
X387067Y29831D01*
X387002Y29786D01*
X386939Y29738D01*
X386878Y29687D01*
X386821Y29633D01*
X386765Y29577D01*
X386713Y29518D01*
X386663Y29456D01*
X386617Y29392D01*
X386573Y29326D01*
X386533Y29258D01*
X386497Y29188D01*
X386463Y29116D01*
X386433Y29042D01*
X386407Y28968D01*
X386384Y28892D01*
X386366Y28815D01*
X386350Y28738D01*
X386339Y28659D01*
X386331Y28581D01*
X386327Y28502D01*
X386327Y28422D01*
X386331Y28343D01*
X386339Y28265D01*
X386350Y28186D01*
X386366Y28109D01*
X386384Y28032D01*
X386407Y27956D01*
X386433Y27882D01*
X386463Y27808D01*
X386497Y27736D01*
X386533Y27666D01*
X386573Y27598D01*
X386617Y27532D01*
X386663Y27468D01*
X386713Y27406D01*
X386765Y27347D01*
X386821Y27291D01*
X386878Y27237D01*
X386939Y27186D01*
X387002Y27138D01*
X387067Y27093D01*
X387134Y27051D01*
X387203Y27013D01*
X387274Y26977D01*
X387347Y26946D01*
X387421Y26918D01*
X387496Y26893D01*
X387572Y26873D01*
X387649Y26855D01*
X387727Y26842D01*
X387806Y26833D01*
X387885Y26827D01*
X387964Y26825D01*
X389601Y26825D01*
X380853Y30100D02*
X380768Y30098D01*
X380683Y30092D01*
X380599Y30082D01*
X380515Y30069D01*
X380431Y30051D01*
X380349Y30030D01*
X380268Y30005D01*
X380188Y29976D01*
X380109Y29943D01*
X380032Y29907D01*
X379957Y29867D01*
X379883Y29824D01*
X379812Y29778D01*
X379743Y29728D01*
X379676Y29675D01*
X379612Y29619D01*
X379551Y29560D01*
X379492Y29499D01*
X379436Y29435D01*
X379383Y29368D01*
X379333Y29299D01*
X379287Y29228D01*
X379244Y29154D01*
X379204Y29079D01*
X379168Y29002D01*
X379135Y28923D01*
X379106Y28843D01*
X379081Y28762D01*
X379060Y28680D01*
X379042Y28596D01*
X379029Y28512D01*
X379019Y28428D01*
X379013Y28343D01*
X379011Y28258D01*
X380853Y30099D02*
X380949Y30097D01*
X381045Y30091D01*
X381140Y30081D01*
X381235Y30068D01*
X381330Y30050D01*
X381423Y30029D01*
X381516Y30004D01*
X381607Y29975D01*
X381698Y29943D01*
X381787Y29907D01*
X381874Y29867D01*
X381960Y29824D01*
X382044Y29778D01*
X382126Y29728D01*
X382206Y29674D01*
X382283Y29618D01*
X382358Y29558D01*
X382431Y29496D01*
X382501Y29430D01*
X382569Y29362D01*
X382634Y29291D01*
X382695Y29218D01*
X382754Y29142D01*
X382810Y29063D01*
X382862Y28983D01*
X382911Y28900D01*
X382957Y28816D01*
X382999Y28730D01*
X383037Y28642D01*
X383072Y28553D01*
X383104Y28462D01*
X379626Y26826D02*
X379566Y26885D01*
X379509Y26947D01*
X379454Y27011D01*
X379403Y27078D01*
X379354Y27147D01*
X379308Y27217D01*
X379265Y27290D01*
X379225Y27364D01*
X379189Y27440D01*
X379156Y27518D01*
X379126Y27597D01*
X379099Y27677D01*
X379076Y27758D01*
X379057Y27840D01*
X379041Y27922D01*
X379028Y28006D01*
X379019Y28090D01*
X379014Y28174D01*
X379012Y28258D01*
X379626Y26825D02*
X383104Y22733D01*
X379012Y22733D01*
X375710Y25598D02*
X370800Y25598D01*
X367498Y22733D02*
X365452Y22733D01*
X365363Y22735D01*
X365274Y22741D01*
X365185Y22751D01*
X365097Y22764D01*
X365009Y22781D01*
X364922Y22803D01*
X364837Y22828D01*
X364752Y22856D01*
X364669Y22889D01*
X364587Y22925D01*
X364507Y22964D01*
X364429Y23007D01*
X364353Y23053D01*
X364278Y23103D01*
X364206Y23156D01*
X364137Y23212D01*
X364070Y23271D01*
X364005Y23332D01*
X363944Y23397D01*
X363885Y23464D01*
X363829Y23533D01*
X363776Y23605D01*
X363726Y23680D01*
X363680Y23756D01*
X363637Y23834D01*
X363598Y23914D01*
X363562Y23996D01*
X363529Y24079D01*
X363501Y24164D01*
X363476Y24249D01*
X363454Y24336D01*
X363437Y24424D01*
X363424Y24512D01*
X363414Y24601D01*
X363408Y24690D01*
X363406Y24779D01*
X363408Y24868D01*
X363414Y24957D01*
X363424Y25046D01*
X363437Y25134D01*
X363454Y25222D01*
X363476Y25309D01*
X363501Y25394D01*
X363529Y25479D01*
X363562Y25562D01*
X363598Y25644D01*
X363637Y25724D01*
X363680Y25802D01*
X363726Y25878D01*
X363776Y25953D01*
X363829Y26025D01*
X363885Y26094D01*
X363944Y26161D01*
X364005Y26226D01*
X364070Y26287D01*
X364137Y26346D01*
X364206Y26402D01*
X364278Y26455D01*
X364353Y26505D01*
X364429Y26551D01*
X364507Y26594D01*
X364587Y26633D01*
X364669Y26669D01*
X364752Y26702D01*
X364837Y26730D01*
X364922Y26755D01*
X365009Y26777D01*
X365097Y26794D01*
X365185Y26807D01*
X365274Y26817D01*
X365363Y26823D01*
X365452Y26825D01*
X365043Y30099D02*
X367498Y30099D01*
X365043Y30099D02*
X364964Y30097D01*
X364885Y30091D01*
X364806Y30082D01*
X364728Y30069D01*
X364651Y30051D01*
X364575Y30031D01*
X364500Y30006D01*
X364426Y29978D01*
X364353Y29947D01*
X364282Y29911D01*
X364213Y29873D01*
X364146Y29831D01*
X364081Y29786D01*
X364018Y29738D01*
X363957Y29687D01*
X363900Y29633D01*
X363844Y29577D01*
X363792Y29518D01*
X363742Y29456D01*
X363696Y29392D01*
X363652Y29326D01*
X363612Y29258D01*
X363576Y29188D01*
X363542Y29116D01*
X363512Y29042D01*
X363486Y28968D01*
X363463Y28892D01*
X363445Y28815D01*
X363429Y28738D01*
X363418Y28659D01*
X363410Y28581D01*
X363406Y28502D01*
X363406Y28422D01*
X363410Y28343D01*
X363418Y28265D01*
X363429Y28186D01*
X363445Y28109D01*
X363463Y28032D01*
X363486Y27956D01*
X363512Y27882D01*
X363542Y27808D01*
X363576Y27736D01*
X363612Y27666D01*
X363652Y27598D01*
X363696Y27532D01*
X363742Y27468D01*
X363792Y27406D01*
X363844Y27347D01*
X363900Y27291D01*
X363957Y27237D01*
X364018Y27186D01*
X364081Y27138D01*
X364146Y27093D01*
X364213Y27051D01*
X364282Y27013D01*
X364353Y26977D01*
X364426Y26946D01*
X364500Y26918D01*
X364575Y26893D01*
X364651Y26873D01*
X364728Y26855D01*
X364806Y26842D01*
X364885Y26833D01*
X364964Y26827D01*
X365043Y26825D01*
X366680Y26825D01*
X360183Y26416D02*
X360181Y26569D01*
X360175Y26722D01*
X360166Y26874D01*
X360152Y27027D01*
X360135Y27179D01*
X360114Y27330D01*
X360089Y27481D01*
X360060Y27631D01*
X360028Y27781D01*
X359991Y27929D01*
X359951Y28077D01*
X359908Y28224D01*
X359860Y28369D01*
X359809Y28513D01*
X359755Y28656D01*
X359696Y28798D01*
X359635Y28937D01*
X359569Y29076D01*
X359543Y29146D01*
X359513Y29215D01*
X359481Y29283D01*
X359444Y29349D01*
X359405Y29413D01*
X359362Y29475D01*
X359317Y29534D01*
X359268Y29592D01*
X359217Y29646D01*
X359163Y29699D01*
X359106Y29748D01*
X359047Y29795D01*
X358986Y29838D01*
X358923Y29879D01*
X358858Y29916D01*
X358791Y29951D01*
X358722Y29981D01*
X358652Y30009D01*
X358581Y30032D01*
X358509Y30053D01*
X358436Y30069D01*
X358362Y30082D01*
X358287Y30092D01*
X358212Y30097D01*
X358137Y30099D01*
X358062Y30097D01*
X357987Y30092D01*
X357912Y30082D01*
X357838Y30069D01*
X357765Y30053D01*
X357693Y30032D01*
X357622Y30009D01*
X357552Y29981D01*
X357483Y29951D01*
X357416Y29916D01*
X357351Y29879D01*
X357288Y29838D01*
X357227Y29795D01*
X357168Y29748D01*
X357111Y29699D01*
X357057Y29646D01*
X357006Y29592D01*
X356958Y29534D01*
X356912Y29475D01*
X356869Y29413D01*
X356830Y29349D01*
X356794Y29283D01*
X356761Y29216D01*
X356731Y29146D01*
X356705Y29076D01*
X356640Y28938D01*
X356578Y28798D01*
X356520Y28656D01*
X356465Y28513D01*
X356414Y28369D01*
X356366Y28224D01*
X356323Y28077D01*
X356283Y27930D01*
X356246Y27781D01*
X356214Y27631D01*
X356185Y27481D01*
X356160Y27330D01*
X356139Y27179D01*
X356122Y27027D01*
X356108Y26874D01*
X356099Y26722D01*
X356093Y26569D01*
X356091Y26416D01*
X360184Y26416D02*
X360182Y26263D01*
X360176Y26110D01*
X360167Y25957D01*
X360153Y25805D01*
X360136Y25653D01*
X360115Y25502D01*
X360090Y25351D01*
X360061Y25200D01*
X360029Y25051D01*
X359992Y24902D01*
X359952Y24755D01*
X359909Y24608D01*
X359861Y24463D01*
X359810Y24318D01*
X359755Y24176D01*
X359697Y24034D01*
X359635Y23894D01*
X359570Y23756D01*
X359569Y23756D02*
X359543Y23686D01*
X359513Y23616D01*
X359481Y23549D01*
X359444Y23483D01*
X359405Y23419D01*
X359362Y23357D01*
X359316Y23298D01*
X359268Y23240D01*
X359217Y23186D01*
X359163Y23133D01*
X359106Y23084D01*
X359047Y23037D01*
X358986Y22994D01*
X358923Y22953D01*
X358858Y22916D01*
X358791Y22881D01*
X358722Y22851D01*
X358652Y22823D01*
X358581Y22800D01*
X358509Y22779D01*
X358436Y22763D01*
X358362Y22750D01*
X358287Y22740D01*
X358212Y22735D01*
X358137Y22733D01*
X356705Y23756D02*
X356640Y23894D01*
X356578Y24034D01*
X356520Y24176D01*
X356465Y24319D01*
X356414Y24463D01*
X356366Y24608D01*
X356323Y24755D01*
X356283Y24903D01*
X356246Y25051D01*
X356214Y25201D01*
X356185Y25351D01*
X356160Y25502D01*
X356139Y25653D01*
X356122Y25805D01*
X356108Y25958D01*
X356099Y26110D01*
X356093Y26263D01*
X356091Y26416D01*
X356705Y23756D02*
X356731Y23685D01*
X356761Y23616D01*
X356794Y23549D01*
X356830Y23483D01*
X356869Y23419D01*
X356912Y23357D01*
X356958Y23298D01*
X357006Y23240D01*
X357057Y23186D01*
X357111Y23133D01*
X357168Y23084D01*
X357227Y23037D01*
X357288Y22994D01*
X357351Y22953D01*
X357416Y22916D01*
X357483Y22881D01*
X357552Y22851D01*
X357622Y22823D01*
X357693Y22800D01*
X357765Y22779D01*
X357838Y22763D01*
X357912Y22750D01*
X357987Y22740D01*
X358062Y22735D01*
X358137Y22733D01*
X359774Y24370D02*
X356500Y28462D01*
X427609Y17907D02*
X427609Y10541D01*
X427609Y17907D02*
X425563Y17907D01*
X425474Y17905D01*
X425385Y17899D01*
X425296Y17889D01*
X425208Y17876D01*
X425120Y17859D01*
X425033Y17837D01*
X424948Y17812D01*
X424863Y17784D01*
X424780Y17751D01*
X424698Y17715D01*
X424618Y17676D01*
X424540Y17633D01*
X424464Y17587D01*
X424389Y17537D01*
X424317Y17484D01*
X424248Y17428D01*
X424181Y17369D01*
X424116Y17308D01*
X424055Y17243D01*
X423996Y17176D01*
X423940Y17107D01*
X423887Y17035D01*
X423837Y16960D01*
X423791Y16884D01*
X423748Y16806D01*
X423709Y16726D01*
X423673Y16644D01*
X423640Y16561D01*
X423612Y16476D01*
X423587Y16391D01*
X423565Y16304D01*
X423548Y16216D01*
X423535Y16128D01*
X423525Y16039D01*
X423519Y15950D01*
X423517Y15861D01*
X423519Y15772D01*
X423525Y15683D01*
X423535Y15594D01*
X423548Y15506D01*
X423565Y15418D01*
X423587Y15331D01*
X423612Y15246D01*
X423640Y15161D01*
X423673Y15078D01*
X423709Y14996D01*
X423748Y14916D01*
X423791Y14838D01*
X423837Y14762D01*
X423887Y14687D01*
X423940Y14615D01*
X423996Y14546D01*
X424055Y14479D01*
X424116Y14414D01*
X424181Y14353D01*
X424248Y14294D01*
X424317Y14238D01*
X424389Y14185D01*
X424464Y14135D01*
X424540Y14089D01*
X424618Y14046D01*
X424698Y14007D01*
X424780Y13971D01*
X424863Y13938D01*
X424948Y13910D01*
X425033Y13885D01*
X425120Y13863D01*
X425208Y13846D01*
X425296Y13833D01*
X425385Y13823D01*
X425474Y13817D01*
X425563Y13815D01*
X427609Y13815D01*
X425154Y13815D02*
X423517Y10541D01*
X419196Y10541D02*
X417150Y10541D01*
X419196Y10541D02*
X419265Y10543D01*
X419333Y10549D01*
X419402Y10558D01*
X419469Y10572D01*
X419536Y10589D01*
X419602Y10610D01*
X419666Y10634D01*
X419729Y10663D01*
X419790Y10694D01*
X419849Y10729D01*
X419907Y10767D01*
X419962Y10809D01*
X420014Y10853D01*
X420064Y10901D01*
X420112Y10951D01*
X420156Y11003D01*
X420198Y11058D01*
X420236Y11116D01*
X420271Y11175D01*
X420302Y11236D01*
X420331Y11299D01*
X420355Y11363D01*
X420376Y11429D01*
X420393Y11496D01*
X420407Y11563D01*
X420416Y11632D01*
X420422Y11700D01*
X420424Y11769D01*
X420423Y11769D02*
X420423Y13815D01*
X420424Y13815D02*
X420422Y13894D01*
X420416Y13973D01*
X420407Y14052D01*
X420394Y14130D01*
X420376Y14207D01*
X420356Y14283D01*
X420331Y14358D01*
X420303Y14432D01*
X420272Y14505D01*
X420236Y14576D01*
X420198Y14645D01*
X420156Y14712D01*
X420111Y14777D01*
X420063Y14840D01*
X420012Y14901D01*
X419958Y14958D01*
X419902Y15014D01*
X419843Y15066D01*
X419781Y15116D01*
X419717Y15162D01*
X419651Y15206D01*
X419583Y15246D01*
X419513Y15282D01*
X419441Y15316D01*
X419367Y15346D01*
X419293Y15372D01*
X419217Y15395D01*
X419140Y15413D01*
X419063Y15429D01*
X418984Y15440D01*
X418906Y15448D01*
X418827Y15452D01*
X418747Y15452D01*
X418668Y15448D01*
X418590Y15440D01*
X418511Y15429D01*
X418434Y15413D01*
X418357Y15395D01*
X418281Y15372D01*
X418207Y15346D01*
X418133Y15316D01*
X418061Y15282D01*
X417991Y15246D01*
X417923Y15206D01*
X417857Y15162D01*
X417793Y15116D01*
X417731Y15066D01*
X417672Y15014D01*
X417616Y14958D01*
X417562Y14901D01*
X417511Y14840D01*
X417463Y14777D01*
X417418Y14712D01*
X417376Y14645D01*
X417338Y14576D01*
X417302Y14505D01*
X417271Y14432D01*
X417243Y14358D01*
X417218Y14283D01*
X417198Y14207D01*
X417180Y14130D01*
X417167Y14052D01*
X417158Y13973D01*
X417152Y13894D01*
X417150Y13815D01*
X417150Y12996D01*
X420423Y12996D01*
X414327Y15452D02*
X412691Y10541D01*
X411054Y15452D01*
X408562Y10541D02*
X406107Y17907D01*
X403652Y10541D01*
X404265Y12383D02*
X407948Y12383D01*
D12*
X345160Y55130D02*
X310160Y55130D01*
X345160Y55130D02*
X345160Y120130D01*
X310160Y120130D01*
X310160Y55130D01*
X306660Y56630D02*
X287660Y56630D01*
D13*
X102616Y140970D02*
X85344Y140970D01*
X105156Y123190D02*
X105154Y123090D01*
X105148Y122991D01*
X105138Y122891D01*
X105125Y122793D01*
X105107Y122694D01*
X105086Y122597D01*
X105061Y122501D01*
X105032Y122405D01*
X104999Y122311D01*
X104963Y122218D01*
X104923Y122127D01*
X104879Y122037D01*
X104832Y121949D01*
X104782Y121863D01*
X104728Y121779D01*
X104671Y121697D01*
X104611Y121618D01*
X104547Y121540D01*
X104481Y121466D01*
X104412Y121394D01*
X104340Y121325D01*
X104266Y121259D01*
X104188Y121195D01*
X104109Y121135D01*
X104027Y121078D01*
X103943Y121024D01*
X103857Y120974D01*
X103769Y120927D01*
X103679Y120883D01*
X103588Y120843D01*
X103495Y120807D01*
X103401Y120774D01*
X103305Y120745D01*
X103209Y120720D01*
X103112Y120699D01*
X103013Y120681D01*
X102915Y120668D01*
X102815Y120658D01*
X102716Y120652D01*
X102616Y120650D01*
X85344Y120650D02*
X85244Y120652D01*
X85145Y120658D01*
X85045Y120668D01*
X84947Y120681D01*
X84848Y120699D01*
X84751Y120720D01*
X84655Y120745D01*
X84559Y120774D01*
X84465Y120807D01*
X84372Y120843D01*
X84281Y120883D01*
X84191Y120927D01*
X84103Y120974D01*
X84017Y121024D01*
X83933Y121078D01*
X83851Y121135D01*
X83772Y121195D01*
X83694Y121259D01*
X83620Y121325D01*
X83548Y121394D01*
X83479Y121466D01*
X83413Y121540D01*
X83349Y121618D01*
X83289Y121697D01*
X83232Y121779D01*
X83178Y121863D01*
X83128Y121949D01*
X83081Y122037D01*
X83037Y122127D01*
X82997Y122218D01*
X82961Y122311D01*
X82928Y122405D01*
X82899Y122501D01*
X82874Y122597D01*
X82853Y122694D01*
X82835Y122793D01*
X82822Y122891D01*
X82812Y122991D01*
X82806Y123090D01*
X82804Y123190D01*
X82804Y138430D02*
X82806Y138530D01*
X82812Y138629D01*
X82822Y138729D01*
X82835Y138827D01*
X82853Y138926D01*
X82874Y139023D01*
X82899Y139119D01*
X82928Y139215D01*
X82961Y139309D01*
X82997Y139402D01*
X83037Y139493D01*
X83081Y139583D01*
X83128Y139671D01*
X83178Y139757D01*
X83232Y139841D01*
X83289Y139923D01*
X83349Y140002D01*
X83413Y140080D01*
X83479Y140154D01*
X83548Y140226D01*
X83620Y140295D01*
X83694Y140361D01*
X83772Y140425D01*
X83851Y140485D01*
X83933Y140542D01*
X84017Y140596D01*
X84103Y140646D01*
X84191Y140693D01*
X84281Y140737D01*
X84372Y140777D01*
X84465Y140813D01*
X84559Y140846D01*
X84655Y140875D01*
X84751Y140900D01*
X84848Y140921D01*
X84947Y140939D01*
X85045Y140952D01*
X85145Y140962D01*
X85244Y140968D01*
X85344Y140970D01*
X102616Y140970D02*
X102716Y140968D01*
X102815Y140962D01*
X102915Y140952D01*
X103013Y140939D01*
X103112Y140921D01*
X103209Y140900D01*
X103305Y140875D01*
X103401Y140846D01*
X103495Y140813D01*
X103588Y140777D01*
X103679Y140737D01*
X103769Y140693D01*
X103857Y140646D01*
X103943Y140596D01*
X104027Y140542D01*
X104109Y140485D01*
X104188Y140425D01*
X104266Y140361D01*
X104340Y140295D01*
X104412Y140226D01*
X104481Y140154D01*
X104547Y140080D01*
X104611Y140002D01*
X104671Y139923D01*
X104728Y139841D01*
X104782Y139757D01*
X104832Y139671D01*
X104879Y139583D01*
X104923Y139493D01*
X104963Y139402D01*
X104999Y139309D01*
X105032Y139215D01*
X105061Y139119D01*
X105086Y139023D01*
X105107Y138926D01*
X105125Y138827D01*
X105138Y138729D01*
X105148Y138629D01*
X105154Y138530D01*
X105156Y138430D01*
X105156Y123190D01*
X82804Y123190D02*
X82804Y138430D01*
X85344Y120650D02*
X102616Y120650D01*
D14*
X79502Y122365D02*
X75156Y122365D01*
X75086Y122363D01*
X75017Y122357D01*
X74948Y122347D01*
X74880Y122334D01*
X74812Y122316D01*
X74746Y122295D01*
X74681Y122270D01*
X74617Y122242D01*
X74555Y122210D01*
X74495Y122175D01*
X74437Y122136D01*
X74382Y122094D01*
X74328Y122049D01*
X74278Y122001D01*
X74230Y121951D01*
X74185Y121897D01*
X74143Y121842D01*
X74104Y121784D01*
X74069Y121724D01*
X74037Y121662D01*
X74009Y121598D01*
X73984Y121533D01*
X73963Y121467D01*
X73945Y121399D01*
X73932Y121331D01*
X73922Y121262D01*
X73916Y121193D01*
X73914Y121123D01*
X73914Y120502D01*
X73914Y125173D02*
X79502Y125173D01*
X79502Y126725D01*
X79500Y126802D01*
X79494Y126880D01*
X79485Y126956D01*
X79471Y127033D01*
X79454Y127108D01*
X79433Y127182D01*
X79408Y127256D01*
X79380Y127328D01*
X79348Y127398D01*
X79313Y127467D01*
X79274Y127534D01*
X79232Y127599D01*
X79187Y127662D01*
X79139Y127723D01*
X79088Y127781D01*
X79034Y127836D01*
X78977Y127889D01*
X78918Y127938D01*
X78856Y127985D01*
X78792Y128029D01*
X78726Y128069D01*
X78658Y128106D01*
X78588Y128140D01*
X78517Y128170D01*
X78444Y128196D01*
X78370Y128219D01*
X78295Y128238D01*
X78220Y128253D01*
X78143Y128265D01*
X78066Y128273D01*
X77989Y128277D01*
X77911Y128277D01*
X77834Y128273D01*
X77757Y128265D01*
X77680Y128253D01*
X77605Y128238D01*
X77530Y128219D01*
X77456Y128196D01*
X77383Y128170D01*
X77312Y128140D01*
X77242Y128106D01*
X77174Y128069D01*
X77108Y128029D01*
X77044Y127985D01*
X76982Y127938D01*
X76923Y127889D01*
X76866Y127836D01*
X76812Y127781D01*
X76761Y127723D01*
X76713Y127662D01*
X76668Y127599D01*
X76626Y127534D01*
X76587Y127467D01*
X76552Y127398D01*
X76520Y127328D01*
X76492Y127256D01*
X76467Y127182D01*
X76446Y127108D01*
X76429Y127033D01*
X76415Y126956D01*
X76406Y126880D01*
X76400Y126802D01*
X76398Y126725D01*
X76398Y125173D01*
X73914Y130393D02*
X73914Y131946D01*
X73916Y132023D01*
X73922Y132101D01*
X73931Y132177D01*
X73945Y132254D01*
X73962Y132329D01*
X73983Y132403D01*
X74008Y132477D01*
X74036Y132549D01*
X74068Y132619D01*
X74103Y132688D01*
X74142Y132755D01*
X74184Y132820D01*
X74229Y132883D01*
X74277Y132944D01*
X74328Y133002D01*
X74382Y133057D01*
X74439Y133110D01*
X74498Y133159D01*
X74560Y133206D01*
X74624Y133250D01*
X74690Y133290D01*
X74758Y133327D01*
X74828Y133361D01*
X74899Y133391D01*
X74972Y133417D01*
X75046Y133440D01*
X75121Y133459D01*
X75196Y133474D01*
X75273Y133486D01*
X75350Y133494D01*
X75427Y133498D01*
X75505Y133498D01*
X75582Y133494D01*
X75659Y133486D01*
X75736Y133474D01*
X75811Y133459D01*
X75886Y133440D01*
X75960Y133417D01*
X76033Y133391D01*
X76104Y133361D01*
X76174Y133327D01*
X76242Y133290D01*
X76308Y133250D01*
X76372Y133206D01*
X76434Y133159D01*
X76493Y133110D01*
X76550Y133057D01*
X76604Y133002D01*
X76655Y132944D01*
X76703Y132883D01*
X76748Y132820D01*
X76790Y132755D01*
X76829Y132688D01*
X76864Y132619D01*
X76896Y132549D01*
X76924Y132477D01*
X76949Y132403D01*
X76970Y132329D01*
X76987Y132254D01*
X77001Y132177D01*
X77010Y132101D01*
X77016Y132023D01*
X77018Y131946D01*
X79502Y132256D02*
X79502Y130393D01*
X79502Y132256D02*
X79500Y132326D01*
X79494Y132395D01*
X79484Y132464D01*
X79471Y132532D01*
X79453Y132600D01*
X79432Y132666D01*
X79407Y132731D01*
X79379Y132795D01*
X79347Y132857D01*
X79312Y132917D01*
X79273Y132975D01*
X79231Y133030D01*
X79186Y133084D01*
X79138Y133134D01*
X79088Y133182D01*
X79034Y133227D01*
X78979Y133269D01*
X78921Y133308D01*
X78861Y133343D01*
X78799Y133375D01*
X78735Y133403D01*
X78670Y133428D01*
X78604Y133449D01*
X78536Y133467D01*
X78468Y133480D01*
X78399Y133490D01*
X78330Y133496D01*
X78260Y133498D01*
X78190Y133496D01*
X78121Y133490D01*
X78052Y133480D01*
X77984Y133467D01*
X77916Y133449D01*
X77850Y133428D01*
X77785Y133403D01*
X77721Y133375D01*
X77659Y133343D01*
X77599Y133308D01*
X77541Y133269D01*
X77486Y133227D01*
X77432Y133182D01*
X77382Y133134D01*
X77334Y133084D01*
X77289Y133030D01*
X77247Y132975D01*
X77208Y132917D01*
X77173Y132857D01*
X77141Y132795D01*
X77113Y132731D01*
X77088Y132666D01*
X77067Y132600D01*
X77049Y132532D01*
X77036Y132464D01*
X77026Y132395D01*
X77020Y132326D01*
X77018Y132256D01*
X77018Y131014D01*
D15*
X178870Y123380D02*
X178870Y115380D01*
X153870Y115380D02*
X153870Y123380D01*
X164370Y103380D02*
X168370Y103380D01*
X168370Y135380D02*
X164370Y135380D01*
D12*
X186370Y139380D02*
X186432Y139382D01*
X186493Y139388D01*
X186554Y139397D01*
X186614Y139410D01*
X186673Y139427D01*
X186731Y139448D01*
X186788Y139472D01*
X186843Y139499D01*
X186896Y139530D01*
X186948Y139564D01*
X186997Y139601D01*
X187044Y139641D01*
X187088Y139684D01*
X187129Y139729D01*
X187168Y139777D01*
X187204Y139828D01*
X187236Y139880D01*
X187265Y139934D01*
X187291Y139990D01*
X187313Y140048D01*
X187332Y140106D01*
X187347Y140166D01*
X187358Y140227D01*
X187366Y140288D01*
X187370Y140349D01*
X187370Y140411D01*
X187366Y140472D01*
X187358Y140533D01*
X187347Y140594D01*
X187332Y140654D01*
X187313Y140712D01*
X187291Y140770D01*
X187265Y140826D01*
X187236Y140880D01*
X187204Y140932D01*
X187168Y140983D01*
X187129Y141031D01*
X187088Y141076D01*
X187044Y141119D01*
X186997Y141159D01*
X186948Y141196D01*
X186896Y141230D01*
X186843Y141261D01*
X186788Y141288D01*
X186731Y141312D01*
X186673Y141333D01*
X186614Y141350D01*
X186554Y141363D01*
X186493Y141372D01*
X186432Y141378D01*
X186370Y141380D01*
X186308Y141378D01*
X186247Y141372D01*
X186186Y141363D01*
X186126Y141350D01*
X186067Y141333D01*
X186009Y141312D01*
X185952Y141288D01*
X185897Y141261D01*
X185844Y141230D01*
X185792Y141196D01*
X185743Y141159D01*
X185696Y141119D01*
X185652Y141076D01*
X185611Y141031D01*
X185572Y140983D01*
X185536Y140932D01*
X185504Y140880D01*
X185475Y140826D01*
X185449Y140770D01*
X185427Y140712D01*
X185408Y140654D01*
X185393Y140594D01*
X185382Y140533D01*
X185374Y140472D01*
X185370Y140411D01*
X185370Y140349D01*
X185374Y140288D01*
X185382Y140227D01*
X185393Y140166D01*
X185408Y140106D01*
X185427Y140048D01*
X185449Y139990D01*
X185475Y139934D01*
X185504Y139880D01*
X185536Y139828D01*
X185572Y139777D01*
X185611Y139729D01*
X185652Y139684D01*
X185696Y139641D01*
X185743Y139601D01*
X185792Y139564D01*
X185844Y139530D01*
X185897Y139499D01*
X185952Y139472D01*
X186009Y139448D01*
X186067Y139427D01*
X186126Y139410D01*
X186186Y139397D01*
X186247Y139388D01*
X186308Y139382D01*
X186370Y139380D01*
M02*
