G04 EAGLE Gerber RS-274X export*
G75*
%MOMM*%
%FSLAX34Y34*%
%LPD*%
%INSilkscreen Top*%
%IPPOS*%
%AMOC8*
5,1,8,0,0,1.08239X$1,22.5*%
G01*
%ADD10C,0.050800*%
%ADD11C,0.203200*%
%ADD12C,0.127000*%
%ADD13C,0.063400*%
%ADD14C,0.250000*%
%ADD15C,0.152400*%
%ADD16C,0.050000*%


D10*
X39624Y145034D02*
X39624Y150622D01*
X42108Y150622D01*
X42108Y148138D02*
X39624Y148138D01*
X44185Y146276D02*
X45427Y150622D01*
X44185Y146276D02*
X47289Y146276D01*
X46358Y147518D02*
X46358Y145034D01*
X65024Y148138D02*
X66576Y148138D01*
X66653Y148136D01*
X66731Y148130D01*
X66807Y148121D01*
X66884Y148107D01*
X66959Y148090D01*
X67033Y148069D01*
X67107Y148044D01*
X67179Y148016D01*
X67249Y147984D01*
X67318Y147949D01*
X67385Y147910D01*
X67450Y147868D01*
X67513Y147823D01*
X67574Y147775D01*
X67632Y147724D01*
X67687Y147670D01*
X67740Y147613D01*
X67789Y147554D01*
X67836Y147492D01*
X67880Y147428D01*
X67920Y147362D01*
X67957Y147294D01*
X67991Y147224D01*
X68021Y147153D01*
X68047Y147080D01*
X68070Y147006D01*
X68089Y146931D01*
X68104Y146856D01*
X68116Y146779D01*
X68124Y146702D01*
X68128Y146625D01*
X68128Y146547D01*
X68124Y146470D01*
X68116Y146393D01*
X68104Y146316D01*
X68089Y146241D01*
X68070Y146166D01*
X68047Y146092D01*
X68021Y146019D01*
X67991Y145948D01*
X67957Y145878D01*
X67920Y145810D01*
X67880Y145744D01*
X67836Y145680D01*
X67789Y145618D01*
X67740Y145559D01*
X67687Y145502D01*
X67632Y145448D01*
X67574Y145397D01*
X67513Y145349D01*
X67450Y145304D01*
X67385Y145262D01*
X67318Y145223D01*
X67249Y145188D01*
X67179Y145156D01*
X67107Y145128D01*
X67033Y145103D01*
X66959Y145082D01*
X66884Y145065D01*
X66807Y145051D01*
X66731Y145042D01*
X66653Y145036D01*
X66576Y145034D01*
X65024Y145034D01*
X65024Y150622D01*
X66576Y150622D01*
X66646Y150620D01*
X66715Y150614D01*
X66784Y150604D01*
X66852Y150591D01*
X66920Y150573D01*
X66986Y150552D01*
X67051Y150527D01*
X67115Y150499D01*
X67177Y150467D01*
X67237Y150432D01*
X67295Y150393D01*
X67350Y150351D01*
X67404Y150306D01*
X67454Y150258D01*
X67502Y150208D01*
X67547Y150154D01*
X67589Y150099D01*
X67628Y150041D01*
X67663Y149981D01*
X67695Y149919D01*
X67723Y149855D01*
X67748Y149790D01*
X67769Y149724D01*
X67787Y149656D01*
X67800Y149588D01*
X67810Y149519D01*
X67816Y149450D01*
X67818Y149380D01*
X67816Y149310D01*
X67810Y149241D01*
X67800Y149172D01*
X67787Y149104D01*
X67769Y149036D01*
X67748Y148970D01*
X67723Y148905D01*
X67695Y148841D01*
X67663Y148779D01*
X67628Y148719D01*
X67589Y148661D01*
X67547Y148606D01*
X67502Y148552D01*
X67454Y148502D01*
X67404Y148454D01*
X67350Y148409D01*
X67295Y148367D01*
X67237Y148328D01*
X67177Y148293D01*
X67115Y148261D01*
X67051Y148233D01*
X66986Y148208D01*
X66920Y148187D01*
X66852Y148169D01*
X66784Y148156D01*
X66715Y148146D01*
X66646Y148140D01*
X66576Y148138D01*
X70245Y150001D02*
X70245Y150622D01*
X73349Y150622D01*
X71797Y145034D01*
X90424Y148138D02*
X91976Y148138D01*
X92053Y148136D01*
X92131Y148130D01*
X92207Y148121D01*
X92284Y148107D01*
X92359Y148090D01*
X92433Y148069D01*
X92507Y148044D01*
X92579Y148016D01*
X92649Y147984D01*
X92718Y147949D01*
X92785Y147910D01*
X92850Y147868D01*
X92913Y147823D01*
X92974Y147775D01*
X93032Y147724D01*
X93087Y147670D01*
X93140Y147613D01*
X93189Y147554D01*
X93236Y147492D01*
X93280Y147428D01*
X93320Y147362D01*
X93357Y147294D01*
X93391Y147224D01*
X93421Y147153D01*
X93447Y147080D01*
X93470Y147006D01*
X93489Y146931D01*
X93504Y146856D01*
X93516Y146779D01*
X93524Y146702D01*
X93528Y146625D01*
X93528Y146547D01*
X93524Y146470D01*
X93516Y146393D01*
X93504Y146316D01*
X93489Y146241D01*
X93470Y146166D01*
X93447Y146092D01*
X93421Y146019D01*
X93391Y145948D01*
X93357Y145878D01*
X93320Y145810D01*
X93280Y145744D01*
X93236Y145680D01*
X93189Y145618D01*
X93140Y145559D01*
X93087Y145502D01*
X93032Y145448D01*
X92974Y145397D01*
X92913Y145349D01*
X92850Y145304D01*
X92785Y145262D01*
X92718Y145223D01*
X92649Y145188D01*
X92579Y145156D01*
X92507Y145128D01*
X92433Y145103D01*
X92359Y145082D01*
X92284Y145065D01*
X92207Y145051D01*
X92131Y145042D01*
X92053Y145036D01*
X91976Y145034D01*
X90424Y145034D01*
X90424Y150622D01*
X91976Y150622D01*
X92046Y150620D01*
X92115Y150614D01*
X92184Y150604D01*
X92252Y150591D01*
X92320Y150573D01*
X92386Y150552D01*
X92451Y150527D01*
X92515Y150499D01*
X92577Y150467D01*
X92637Y150432D01*
X92695Y150393D01*
X92750Y150351D01*
X92804Y150306D01*
X92854Y150258D01*
X92902Y150208D01*
X92947Y150154D01*
X92989Y150099D01*
X93028Y150041D01*
X93063Y149981D01*
X93095Y149919D01*
X93123Y149855D01*
X93148Y149790D01*
X93169Y149724D01*
X93187Y149656D01*
X93200Y149588D01*
X93210Y149519D01*
X93216Y149450D01*
X93218Y149380D01*
X93216Y149310D01*
X93210Y149241D01*
X93200Y149172D01*
X93187Y149104D01*
X93169Y149036D01*
X93148Y148970D01*
X93123Y148905D01*
X93095Y148841D01*
X93063Y148779D01*
X93028Y148719D01*
X92989Y148661D01*
X92947Y148606D01*
X92902Y148552D01*
X92854Y148502D01*
X92804Y148454D01*
X92750Y148409D01*
X92695Y148367D01*
X92637Y148328D01*
X92577Y148293D01*
X92515Y148261D01*
X92451Y148233D01*
X92386Y148208D01*
X92320Y148187D01*
X92252Y148169D01*
X92184Y148156D01*
X92115Y148146D01*
X92046Y148140D01*
X91976Y148138D01*
X95645Y148138D02*
X97507Y148138D01*
X97507Y148139D02*
X97577Y148137D01*
X97646Y148131D01*
X97715Y148121D01*
X97783Y148108D01*
X97851Y148090D01*
X97917Y148069D01*
X97982Y148044D01*
X98046Y148016D01*
X98108Y147984D01*
X98168Y147949D01*
X98226Y147910D01*
X98281Y147868D01*
X98335Y147823D01*
X98385Y147775D01*
X98433Y147725D01*
X98478Y147671D01*
X98520Y147616D01*
X98559Y147558D01*
X98594Y147498D01*
X98626Y147436D01*
X98654Y147372D01*
X98679Y147307D01*
X98700Y147241D01*
X98718Y147173D01*
X98731Y147105D01*
X98741Y147036D01*
X98747Y146967D01*
X98749Y146897D01*
X98749Y146586D01*
X98747Y146509D01*
X98741Y146431D01*
X98732Y146355D01*
X98718Y146278D01*
X98701Y146203D01*
X98680Y146129D01*
X98655Y146055D01*
X98627Y145983D01*
X98595Y145913D01*
X98560Y145844D01*
X98521Y145777D01*
X98479Y145712D01*
X98434Y145649D01*
X98386Y145588D01*
X98335Y145530D01*
X98281Y145475D01*
X98224Y145422D01*
X98165Y145373D01*
X98103Y145326D01*
X98039Y145282D01*
X97973Y145242D01*
X97905Y145205D01*
X97835Y145171D01*
X97764Y145141D01*
X97691Y145115D01*
X97617Y145092D01*
X97542Y145073D01*
X97467Y145058D01*
X97390Y145046D01*
X97313Y145038D01*
X97236Y145034D01*
X97158Y145034D01*
X97081Y145038D01*
X97004Y145046D01*
X96927Y145058D01*
X96852Y145073D01*
X96777Y145092D01*
X96703Y145115D01*
X96630Y145141D01*
X96559Y145171D01*
X96489Y145205D01*
X96421Y145242D01*
X96355Y145282D01*
X96291Y145326D01*
X96229Y145373D01*
X96170Y145422D01*
X96113Y145475D01*
X96059Y145530D01*
X96008Y145588D01*
X95960Y145649D01*
X95915Y145712D01*
X95873Y145777D01*
X95834Y145844D01*
X95799Y145913D01*
X95767Y145983D01*
X95739Y146055D01*
X95714Y146129D01*
X95693Y146203D01*
X95676Y146278D01*
X95662Y146355D01*
X95653Y146431D01*
X95647Y146509D01*
X95645Y146586D01*
X95645Y148138D01*
X95644Y148138D02*
X95646Y148236D01*
X95652Y148333D01*
X95661Y148430D01*
X95675Y148527D01*
X95692Y148623D01*
X95713Y148718D01*
X95737Y148812D01*
X95766Y148906D01*
X95798Y148998D01*
X95833Y149089D01*
X95872Y149178D01*
X95915Y149266D01*
X95961Y149352D01*
X96010Y149436D01*
X96063Y149518D01*
X96118Y149598D01*
X96177Y149676D01*
X96239Y149751D01*
X96304Y149824D01*
X96372Y149894D01*
X96442Y149962D01*
X96515Y150027D01*
X96590Y150089D01*
X96668Y150148D01*
X96748Y150203D01*
X96830Y150256D01*
X96914Y150305D01*
X97000Y150351D01*
X97088Y150394D01*
X97177Y150433D01*
X97268Y150468D01*
X97360Y150500D01*
X97454Y150529D01*
X97548Y150553D01*
X97643Y150574D01*
X97739Y150591D01*
X97836Y150605D01*
X97933Y150614D01*
X98030Y150620D01*
X98128Y150622D01*
X115824Y148138D02*
X117376Y148138D01*
X117453Y148136D01*
X117531Y148130D01*
X117607Y148121D01*
X117684Y148107D01*
X117759Y148090D01*
X117833Y148069D01*
X117907Y148044D01*
X117979Y148016D01*
X118049Y147984D01*
X118118Y147949D01*
X118185Y147910D01*
X118250Y147868D01*
X118313Y147823D01*
X118374Y147775D01*
X118432Y147724D01*
X118487Y147670D01*
X118540Y147613D01*
X118589Y147554D01*
X118636Y147492D01*
X118680Y147428D01*
X118720Y147362D01*
X118757Y147294D01*
X118791Y147224D01*
X118821Y147153D01*
X118847Y147080D01*
X118870Y147006D01*
X118889Y146931D01*
X118904Y146856D01*
X118916Y146779D01*
X118924Y146702D01*
X118928Y146625D01*
X118928Y146547D01*
X118924Y146470D01*
X118916Y146393D01*
X118904Y146316D01*
X118889Y146241D01*
X118870Y146166D01*
X118847Y146092D01*
X118821Y146019D01*
X118791Y145948D01*
X118757Y145878D01*
X118720Y145810D01*
X118680Y145744D01*
X118636Y145680D01*
X118589Y145618D01*
X118540Y145559D01*
X118487Y145502D01*
X118432Y145448D01*
X118374Y145397D01*
X118313Y145349D01*
X118250Y145304D01*
X118185Y145262D01*
X118118Y145223D01*
X118049Y145188D01*
X117979Y145156D01*
X117907Y145128D01*
X117833Y145103D01*
X117759Y145082D01*
X117684Y145065D01*
X117607Y145051D01*
X117531Y145042D01*
X117453Y145036D01*
X117376Y145034D01*
X115824Y145034D01*
X115824Y150622D01*
X117376Y150622D01*
X117446Y150620D01*
X117515Y150614D01*
X117584Y150604D01*
X117652Y150591D01*
X117720Y150573D01*
X117786Y150552D01*
X117851Y150527D01*
X117915Y150499D01*
X117977Y150467D01*
X118037Y150432D01*
X118095Y150393D01*
X118150Y150351D01*
X118204Y150306D01*
X118254Y150258D01*
X118302Y150208D01*
X118347Y150154D01*
X118389Y150099D01*
X118428Y150041D01*
X118463Y149981D01*
X118495Y149919D01*
X118523Y149855D01*
X118548Y149790D01*
X118569Y149724D01*
X118587Y149656D01*
X118600Y149588D01*
X118610Y149519D01*
X118616Y149450D01*
X118618Y149380D01*
X118616Y149310D01*
X118610Y149241D01*
X118600Y149172D01*
X118587Y149104D01*
X118569Y149036D01*
X118548Y148970D01*
X118523Y148905D01*
X118495Y148841D01*
X118463Y148779D01*
X118428Y148719D01*
X118389Y148661D01*
X118347Y148606D01*
X118302Y148552D01*
X118254Y148502D01*
X118204Y148454D01*
X118150Y148409D01*
X118095Y148367D01*
X118037Y148328D01*
X117977Y148293D01*
X117915Y148261D01*
X117851Y148233D01*
X117786Y148208D01*
X117720Y148187D01*
X117652Y148169D01*
X117584Y148156D01*
X117515Y148146D01*
X117446Y148140D01*
X117376Y148138D01*
X121045Y145034D02*
X122907Y145034D01*
X122977Y145036D01*
X123046Y145042D01*
X123115Y145052D01*
X123183Y145065D01*
X123251Y145083D01*
X123317Y145104D01*
X123382Y145129D01*
X123446Y145157D01*
X123508Y145189D01*
X123568Y145224D01*
X123626Y145263D01*
X123681Y145305D01*
X123735Y145350D01*
X123785Y145398D01*
X123833Y145448D01*
X123878Y145502D01*
X123920Y145557D01*
X123959Y145615D01*
X123994Y145675D01*
X124026Y145737D01*
X124054Y145801D01*
X124079Y145866D01*
X124100Y145932D01*
X124118Y146000D01*
X124131Y146068D01*
X124141Y146137D01*
X124147Y146206D01*
X124149Y146276D01*
X124149Y146897D01*
X124147Y146967D01*
X124141Y147036D01*
X124131Y147105D01*
X124118Y147173D01*
X124100Y147241D01*
X124079Y147307D01*
X124054Y147372D01*
X124026Y147436D01*
X123994Y147498D01*
X123959Y147558D01*
X123920Y147616D01*
X123878Y147671D01*
X123833Y147725D01*
X123785Y147775D01*
X123735Y147823D01*
X123681Y147868D01*
X123626Y147910D01*
X123568Y147949D01*
X123508Y147984D01*
X123446Y148016D01*
X123382Y148044D01*
X123317Y148069D01*
X123251Y148090D01*
X123183Y148108D01*
X123115Y148121D01*
X123046Y148131D01*
X122977Y148137D01*
X122907Y148139D01*
X122907Y148138D02*
X121045Y148138D01*
X121045Y150622D01*
X124149Y150622D01*
X141224Y148138D02*
X142776Y148138D01*
X142853Y148136D01*
X142931Y148130D01*
X143007Y148121D01*
X143084Y148107D01*
X143159Y148090D01*
X143233Y148069D01*
X143307Y148044D01*
X143379Y148016D01*
X143449Y147984D01*
X143518Y147949D01*
X143585Y147910D01*
X143650Y147868D01*
X143713Y147823D01*
X143774Y147775D01*
X143832Y147724D01*
X143887Y147670D01*
X143940Y147613D01*
X143989Y147554D01*
X144036Y147492D01*
X144080Y147428D01*
X144120Y147362D01*
X144157Y147294D01*
X144191Y147224D01*
X144221Y147153D01*
X144247Y147080D01*
X144270Y147006D01*
X144289Y146931D01*
X144304Y146856D01*
X144316Y146779D01*
X144324Y146702D01*
X144328Y146625D01*
X144328Y146547D01*
X144324Y146470D01*
X144316Y146393D01*
X144304Y146316D01*
X144289Y146241D01*
X144270Y146166D01*
X144247Y146092D01*
X144221Y146019D01*
X144191Y145948D01*
X144157Y145878D01*
X144120Y145810D01*
X144080Y145744D01*
X144036Y145680D01*
X143989Y145618D01*
X143940Y145559D01*
X143887Y145502D01*
X143832Y145448D01*
X143774Y145397D01*
X143713Y145349D01*
X143650Y145304D01*
X143585Y145262D01*
X143518Y145223D01*
X143449Y145188D01*
X143379Y145156D01*
X143307Y145128D01*
X143233Y145103D01*
X143159Y145082D01*
X143084Y145065D01*
X143007Y145051D01*
X142931Y145042D01*
X142853Y145036D01*
X142776Y145034D01*
X141224Y145034D01*
X141224Y150622D01*
X142776Y150622D01*
X142846Y150620D01*
X142915Y150614D01*
X142984Y150604D01*
X143052Y150591D01*
X143120Y150573D01*
X143186Y150552D01*
X143251Y150527D01*
X143315Y150499D01*
X143377Y150467D01*
X143437Y150432D01*
X143495Y150393D01*
X143550Y150351D01*
X143604Y150306D01*
X143654Y150258D01*
X143702Y150208D01*
X143747Y150154D01*
X143789Y150099D01*
X143828Y150041D01*
X143863Y149981D01*
X143895Y149919D01*
X143923Y149855D01*
X143948Y149790D01*
X143969Y149724D01*
X143987Y149656D01*
X144000Y149588D01*
X144010Y149519D01*
X144016Y149450D01*
X144018Y149380D01*
X144016Y149310D01*
X144010Y149241D01*
X144000Y149172D01*
X143987Y149104D01*
X143969Y149036D01*
X143948Y148970D01*
X143923Y148905D01*
X143895Y148841D01*
X143863Y148779D01*
X143828Y148719D01*
X143789Y148661D01*
X143747Y148606D01*
X143702Y148552D01*
X143654Y148502D01*
X143604Y148454D01*
X143550Y148409D01*
X143495Y148367D01*
X143437Y148328D01*
X143377Y148293D01*
X143315Y148261D01*
X143251Y148233D01*
X143186Y148208D01*
X143120Y148187D01*
X143052Y148169D01*
X142984Y148156D01*
X142915Y148146D01*
X142846Y148140D01*
X142776Y148138D01*
X146445Y146276D02*
X147686Y150622D01*
X146445Y146276D02*
X149549Y146276D01*
X148618Y147518D02*
X148618Y145034D01*
X167894Y145034D02*
X169757Y150622D01*
X171619Y145034D01*
X171154Y146431D02*
X168360Y146431D01*
X173691Y149380D02*
X175243Y150622D01*
X175243Y145034D01*
X173691Y145034D02*
X176795Y145034D01*
X179177Y146276D02*
X180419Y150622D01*
X179177Y146276D02*
X182282Y146276D01*
X181350Y147518D02*
X181350Y145034D01*
X193294Y145034D02*
X195157Y150622D01*
X197019Y145034D01*
X196554Y146431D02*
X193760Y146431D01*
X199091Y149380D02*
X200643Y150622D01*
X200643Y145034D01*
X199091Y145034D02*
X202195Y145034D01*
X204577Y145034D02*
X206129Y145034D01*
X206206Y145036D01*
X206284Y145042D01*
X206360Y145051D01*
X206437Y145065D01*
X206512Y145082D01*
X206586Y145103D01*
X206660Y145128D01*
X206732Y145156D01*
X206802Y145188D01*
X206871Y145223D01*
X206938Y145262D01*
X207003Y145304D01*
X207066Y145349D01*
X207127Y145397D01*
X207185Y145448D01*
X207240Y145502D01*
X207293Y145559D01*
X207342Y145618D01*
X207389Y145680D01*
X207433Y145744D01*
X207473Y145810D01*
X207510Y145878D01*
X207544Y145948D01*
X207574Y146019D01*
X207600Y146092D01*
X207623Y146166D01*
X207642Y146241D01*
X207657Y146316D01*
X207669Y146393D01*
X207677Y146470D01*
X207681Y146547D01*
X207681Y146625D01*
X207677Y146702D01*
X207669Y146779D01*
X207657Y146856D01*
X207642Y146931D01*
X207623Y147006D01*
X207600Y147080D01*
X207574Y147153D01*
X207544Y147224D01*
X207510Y147294D01*
X207473Y147362D01*
X207433Y147428D01*
X207389Y147492D01*
X207342Y147554D01*
X207293Y147613D01*
X207240Y147670D01*
X207185Y147724D01*
X207127Y147775D01*
X207066Y147823D01*
X207003Y147868D01*
X206938Y147910D01*
X206871Y147949D01*
X206802Y147984D01*
X206732Y148016D01*
X206660Y148044D01*
X206586Y148069D01*
X206512Y148090D01*
X206437Y148107D01*
X206360Y148121D01*
X206284Y148130D01*
X206206Y148136D01*
X206129Y148138D01*
X206440Y150622D02*
X204577Y150622D01*
X206440Y150622D02*
X206510Y150620D01*
X206579Y150614D01*
X206648Y150604D01*
X206716Y150591D01*
X206784Y150573D01*
X206850Y150552D01*
X206915Y150527D01*
X206979Y150499D01*
X207041Y150467D01*
X207101Y150432D01*
X207159Y150393D01*
X207214Y150351D01*
X207268Y150306D01*
X207318Y150258D01*
X207366Y150208D01*
X207411Y150154D01*
X207453Y150099D01*
X207492Y150041D01*
X207527Y149981D01*
X207559Y149919D01*
X207587Y149855D01*
X207612Y149790D01*
X207633Y149724D01*
X207651Y149656D01*
X207664Y149588D01*
X207674Y149519D01*
X207680Y149450D01*
X207682Y149380D01*
X207680Y149310D01*
X207674Y149241D01*
X207664Y149172D01*
X207651Y149104D01*
X207633Y149036D01*
X207612Y148970D01*
X207587Y148905D01*
X207559Y148841D01*
X207527Y148779D01*
X207492Y148719D01*
X207453Y148661D01*
X207411Y148606D01*
X207366Y148552D01*
X207318Y148502D01*
X207268Y148454D01*
X207214Y148409D01*
X207159Y148367D01*
X207101Y148328D01*
X207041Y148293D01*
X206979Y148261D01*
X206915Y148233D01*
X206850Y148208D01*
X206784Y148187D01*
X206716Y148169D01*
X206648Y148156D01*
X206579Y148146D01*
X206510Y148140D01*
X206440Y148138D01*
X205198Y148138D01*
X218694Y145034D02*
X220557Y150622D01*
X222419Y145034D01*
X221954Y146431D02*
X219160Y146431D01*
X224491Y149380D02*
X226043Y150622D01*
X226043Y145034D01*
X224491Y145034D02*
X227595Y145034D01*
X229977Y149380D02*
X231529Y150622D01*
X231529Y145034D01*
X229977Y145034D02*
X233082Y145034D01*
X242824Y145034D02*
X244687Y150622D01*
X246549Y145034D01*
X246084Y146431D02*
X243290Y146431D01*
X248621Y149380D02*
X250173Y150622D01*
X250173Y145034D01*
X248621Y145034D02*
X251725Y145034D01*
X254107Y147828D02*
X254109Y147959D01*
X254114Y148089D01*
X254124Y148219D01*
X254137Y148349D01*
X254153Y148479D01*
X254173Y148608D01*
X254197Y148736D01*
X254225Y148863D01*
X254256Y148990D01*
X254291Y149116D01*
X254329Y149241D01*
X254371Y149365D01*
X254416Y149487D01*
X254465Y149608D01*
X254517Y149728D01*
X254573Y149846D01*
X254572Y149846D02*
X254595Y149906D01*
X254621Y149966D01*
X254650Y150023D01*
X254683Y150079D01*
X254719Y150133D01*
X254757Y150185D01*
X254799Y150235D01*
X254843Y150282D01*
X254890Y150327D01*
X254940Y150369D01*
X254991Y150408D01*
X255045Y150444D01*
X255101Y150477D01*
X255158Y150507D01*
X255217Y150534D01*
X255278Y150557D01*
X255339Y150577D01*
X255402Y150593D01*
X255466Y150606D01*
X255530Y150615D01*
X255594Y150620D01*
X255659Y150622D01*
X255724Y150620D01*
X255788Y150615D01*
X255852Y150606D01*
X255916Y150593D01*
X255979Y150577D01*
X256040Y150557D01*
X256101Y150534D01*
X256160Y150507D01*
X256217Y150477D01*
X256273Y150444D01*
X256327Y150408D01*
X256378Y150369D01*
X256428Y150327D01*
X256475Y150282D01*
X256519Y150235D01*
X256561Y150185D01*
X256599Y150133D01*
X256635Y150079D01*
X256668Y150023D01*
X256697Y149966D01*
X256723Y149906D01*
X256746Y149846D01*
X256802Y149728D01*
X256854Y149608D01*
X256903Y149487D01*
X256948Y149365D01*
X256990Y149241D01*
X257028Y149116D01*
X257063Y148990D01*
X257094Y148864D01*
X257122Y148736D01*
X257146Y148608D01*
X257166Y148479D01*
X257182Y148349D01*
X257195Y148219D01*
X257205Y148089D01*
X257210Y147959D01*
X257212Y147828D01*
X254107Y147828D02*
X254109Y147697D01*
X254114Y147567D01*
X254124Y147437D01*
X254137Y147307D01*
X254153Y147177D01*
X254173Y147048D01*
X254197Y146920D01*
X254225Y146793D01*
X254256Y146666D01*
X254291Y146540D01*
X254329Y146415D01*
X254371Y146291D01*
X254416Y146169D01*
X254465Y146048D01*
X254517Y145928D01*
X254573Y145810D01*
X254572Y145810D02*
X254595Y145750D01*
X254621Y145690D01*
X254650Y145633D01*
X254683Y145577D01*
X254719Y145523D01*
X254757Y145471D01*
X254799Y145421D01*
X254843Y145374D01*
X254890Y145329D01*
X254940Y145287D01*
X254991Y145248D01*
X255045Y145212D01*
X255101Y145179D01*
X255158Y145149D01*
X255217Y145122D01*
X255278Y145099D01*
X255339Y145079D01*
X255402Y145063D01*
X255466Y145050D01*
X255530Y145041D01*
X255594Y145036D01*
X255659Y145034D01*
X256746Y145810D02*
X256802Y145928D01*
X256854Y146048D01*
X256903Y146169D01*
X256948Y146291D01*
X256990Y146415D01*
X257028Y146540D01*
X257063Y146666D01*
X257094Y146792D01*
X257122Y146920D01*
X257146Y147048D01*
X257166Y147177D01*
X257182Y147307D01*
X257195Y147437D01*
X257205Y147567D01*
X257210Y147697D01*
X257212Y147828D01*
X256746Y145810D02*
X256723Y145750D01*
X256697Y145690D01*
X256668Y145633D01*
X256635Y145577D01*
X256599Y145523D01*
X256561Y145471D01*
X256519Y145421D01*
X256475Y145374D01*
X256428Y145329D01*
X256378Y145287D01*
X256327Y145248D01*
X256273Y145212D01*
X256217Y145179D01*
X256160Y145149D01*
X256101Y145122D01*
X256040Y145099D01*
X255979Y145079D01*
X255916Y145063D01*
X255852Y145050D01*
X255788Y145041D01*
X255724Y145036D01*
X255659Y145034D01*
X254418Y146276D02*
X256901Y149380D01*
X268224Y145034D02*
X270087Y150622D01*
X271949Y145034D01*
X271484Y146431D02*
X268690Y146431D01*
X275263Y147518D02*
X277125Y147518D01*
X275263Y147517D02*
X275193Y147519D01*
X275124Y147525D01*
X275055Y147535D01*
X274987Y147548D01*
X274919Y147566D01*
X274853Y147587D01*
X274788Y147612D01*
X274724Y147640D01*
X274662Y147672D01*
X274602Y147707D01*
X274544Y147746D01*
X274489Y147788D01*
X274435Y147833D01*
X274385Y147881D01*
X274337Y147931D01*
X274292Y147985D01*
X274250Y148040D01*
X274211Y148098D01*
X274176Y148158D01*
X274144Y148220D01*
X274116Y148284D01*
X274091Y148349D01*
X274070Y148415D01*
X274052Y148483D01*
X274039Y148551D01*
X274029Y148620D01*
X274023Y148689D01*
X274021Y148759D01*
X274021Y149070D01*
X274023Y149147D01*
X274029Y149225D01*
X274038Y149301D01*
X274052Y149378D01*
X274069Y149453D01*
X274090Y149527D01*
X274115Y149601D01*
X274143Y149673D01*
X274175Y149743D01*
X274210Y149812D01*
X274249Y149879D01*
X274291Y149944D01*
X274336Y150007D01*
X274384Y150068D01*
X274435Y150126D01*
X274489Y150181D01*
X274546Y150234D01*
X274605Y150283D01*
X274667Y150330D01*
X274731Y150374D01*
X274797Y150414D01*
X274865Y150451D01*
X274935Y150485D01*
X275006Y150515D01*
X275079Y150541D01*
X275153Y150564D01*
X275228Y150583D01*
X275303Y150598D01*
X275380Y150610D01*
X275457Y150618D01*
X275534Y150622D01*
X275612Y150622D01*
X275689Y150618D01*
X275766Y150610D01*
X275843Y150598D01*
X275918Y150583D01*
X275993Y150564D01*
X276067Y150541D01*
X276140Y150515D01*
X276211Y150485D01*
X276281Y150451D01*
X276349Y150414D01*
X276415Y150374D01*
X276479Y150330D01*
X276541Y150283D01*
X276600Y150234D01*
X276657Y150181D01*
X276711Y150126D01*
X276762Y150068D01*
X276810Y150007D01*
X276855Y149944D01*
X276897Y149879D01*
X276936Y149812D01*
X276971Y149743D01*
X277003Y149673D01*
X277031Y149601D01*
X277056Y149527D01*
X277077Y149453D01*
X277094Y149378D01*
X277108Y149301D01*
X277117Y149225D01*
X277123Y149147D01*
X277125Y149070D01*
X277125Y147518D01*
X277126Y147518D02*
X277124Y147420D01*
X277118Y147323D01*
X277109Y147226D01*
X277095Y147129D01*
X277078Y147033D01*
X277057Y146938D01*
X277033Y146844D01*
X277004Y146750D01*
X276972Y146658D01*
X276937Y146567D01*
X276898Y146478D01*
X276855Y146390D01*
X276809Y146304D01*
X276760Y146220D01*
X276707Y146138D01*
X276652Y146058D01*
X276593Y145980D01*
X276531Y145905D01*
X276466Y145832D01*
X276398Y145762D01*
X276328Y145694D01*
X276255Y145629D01*
X276180Y145567D01*
X276102Y145508D01*
X276022Y145453D01*
X275940Y145400D01*
X275856Y145351D01*
X275770Y145305D01*
X275682Y145262D01*
X275593Y145223D01*
X275502Y145188D01*
X275410Y145156D01*
X275316Y145127D01*
X275222Y145103D01*
X275127Y145082D01*
X275031Y145065D01*
X274934Y145051D01*
X274837Y145042D01*
X274739Y145036D01*
X274642Y145034D01*
X272627Y38862D02*
X270764Y33274D01*
X274489Y33274D02*
X272627Y38862D01*
X274024Y34671D02*
X271230Y34671D01*
X276561Y34826D02*
X276563Y34903D01*
X276569Y34981D01*
X276578Y35057D01*
X276592Y35134D01*
X276609Y35209D01*
X276630Y35283D01*
X276655Y35357D01*
X276683Y35429D01*
X276715Y35499D01*
X276750Y35568D01*
X276789Y35635D01*
X276831Y35700D01*
X276876Y35763D01*
X276924Y35824D01*
X276975Y35882D01*
X277029Y35937D01*
X277086Y35990D01*
X277145Y36039D01*
X277207Y36086D01*
X277271Y36130D01*
X277337Y36170D01*
X277405Y36207D01*
X277475Y36241D01*
X277546Y36271D01*
X277619Y36297D01*
X277693Y36320D01*
X277768Y36339D01*
X277843Y36354D01*
X277920Y36366D01*
X277997Y36374D01*
X278074Y36378D01*
X278152Y36378D01*
X278229Y36374D01*
X278306Y36366D01*
X278383Y36354D01*
X278458Y36339D01*
X278533Y36320D01*
X278607Y36297D01*
X278680Y36271D01*
X278751Y36241D01*
X278821Y36207D01*
X278889Y36170D01*
X278955Y36130D01*
X279019Y36086D01*
X279081Y36039D01*
X279140Y35990D01*
X279197Y35937D01*
X279251Y35882D01*
X279302Y35824D01*
X279350Y35763D01*
X279395Y35700D01*
X279437Y35635D01*
X279476Y35568D01*
X279511Y35499D01*
X279543Y35429D01*
X279571Y35357D01*
X279596Y35283D01*
X279617Y35209D01*
X279634Y35134D01*
X279648Y35057D01*
X279657Y34981D01*
X279663Y34903D01*
X279665Y34826D01*
X279663Y34749D01*
X279657Y34671D01*
X279648Y34595D01*
X279634Y34518D01*
X279617Y34443D01*
X279596Y34369D01*
X279571Y34295D01*
X279543Y34223D01*
X279511Y34153D01*
X279476Y34084D01*
X279437Y34017D01*
X279395Y33952D01*
X279350Y33889D01*
X279302Y33828D01*
X279251Y33770D01*
X279197Y33715D01*
X279140Y33662D01*
X279081Y33613D01*
X279019Y33566D01*
X278955Y33522D01*
X278889Y33482D01*
X278821Y33445D01*
X278751Y33411D01*
X278680Y33381D01*
X278607Y33355D01*
X278533Y33332D01*
X278458Y33313D01*
X278383Y33298D01*
X278306Y33286D01*
X278229Y33278D01*
X278152Y33274D01*
X278074Y33274D01*
X277997Y33278D01*
X277920Y33286D01*
X277843Y33298D01*
X277768Y33313D01*
X277693Y33332D01*
X277619Y33355D01*
X277546Y33381D01*
X277475Y33411D01*
X277405Y33445D01*
X277337Y33482D01*
X277271Y33522D01*
X277207Y33566D01*
X277145Y33613D01*
X277086Y33662D01*
X277029Y33715D01*
X276975Y33770D01*
X276924Y33828D01*
X276876Y33889D01*
X276831Y33952D01*
X276789Y34017D01*
X276750Y34084D01*
X276715Y34153D01*
X276683Y34223D01*
X276655Y34295D01*
X276630Y34369D01*
X276609Y34443D01*
X276592Y34518D01*
X276578Y34595D01*
X276569Y34671D01*
X276563Y34749D01*
X276561Y34826D01*
X276871Y37620D02*
X276873Y37690D01*
X276879Y37759D01*
X276889Y37828D01*
X276902Y37896D01*
X276920Y37964D01*
X276941Y38030D01*
X276966Y38095D01*
X276994Y38159D01*
X277026Y38221D01*
X277061Y38281D01*
X277100Y38339D01*
X277142Y38394D01*
X277187Y38448D01*
X277235Y38498D01*
X277285Y38546D01*
X277339Y38591D01*
X277394Y38633D01*
X277452Y38672D01*
X277512Y38707D01*
X277574Y38739D01*
X277638Y38767D01*
X277703Y38792D01*
X277769Y38813D01*
X277837Y38831D01*
X277905Y38844D01*
X277974Y38854D01*
X278043Y38860D01*
X278113Y38862D01*
X278183Y38860D01*
X278252Y38854D01*
X278321Y38844D01*
X278389Y38831D01*
X278457Y38813D01*
X278523Y38792D01*
X278588Y38767D01*
X278652Y38739D01*
X278714Y38707D01*
X278774Y38672D01*
X278832Y38633D01*
X278887Y38591D01*
X278941Y38546D01*
X278991Y38498D01*
X279039Y38448D01*
X279084Y38394D01*
X279126Y38339D01*
X279165Y38281D01*
X279200Y38221D01*
X279232Y38159D01*
X279260Y38095D01*
X279285Y38030D01*
X279306Y37964D01*
X279324Y37896D01*
X279337Y37828D01*
X279347Y37759D01*
X279353Y37690D01*
X279355Y37620D01*
X279353Y37550D01*
X279347Y37481D01*
X279337Y37412D01*
X279324Y37344D01*
X279306Y37276D01*
X279285Y37210D01*
X279260Y37145D01*
X279232Y37081D01*
X279200Y37019D01*
X279165Y36959D01*
X279126Y36901D01*
X279084Y36846D01*
X279039Y36792D01*
X278991Y36742D01*
X278941Y36694D01*
X278887Y36649D01*
X278832Y36607D01*
X278774Y36568D01*
X278714Y36533D01*
X278652Y36501D01*
X278588Y36473D01*
X278523Y36448D01*
X278457Y36427D01*
X278389Y36409D01*
X278321Y36396D01*
X278252Y36386D01*
X278183Y36380D01*
X278113Y36378D01*
X278043Y36380D01*
X277974Y36386D01*
X277905Y36396D01*
X277837Y36409D01*
X277769Y36427D01*
X277703Y36448D01*
X277638Y36473D01*
X277574Y36501D01*
X277512Y36533D01*
X277452Y36568D01*
X277394Y36607D01*
X277339Y36649D01*
X277285Y36694D01*
X277235Y36742D01*
X277187Y36792D01*
X277142Y36846D01*
X277100Y36901D01*
X277061Y36959D01*
X277026Y37019D01*
X276994Y37081D01*
X276966Y37145D01*
X276941Y37210D01*
X276920Y37276D01*
X276902Y37344D01*
X276889Y37412D01*
X276879Y37481D01*
X276873Y37550D01*
X276871Y37620D01*
X241836Y33274D02*
X240284Y33274D01*
X241836Y33274D02*
X241913Y33276D01*
X241991Y33282D01*
X242067Y33291D01*
X242144Y33305D01*
X242219Y33322D01*
X242293Y33343D01*
X242367Y33368D01*
X242439Y33396D01*
X242509Y33428D01*
X242578Y33463D01*
X242645Y33502D01*
X242710Y33544D01*
X242773Y33589D01*
X242834Y33637D01*
X242892Y33688D01*
X242947Y33742D01*
X243000Y33799D01*
X243049Y33858D01*
X243096Y33920D01*
X243140Y33984D01*
X243180Y34050D01*
X243217Y34118D01*
X243251Y34188D01*
X243281Y34259D01*
X243307Y34332D01*
X243330Y34406D01*
X243349Y34481D01*
X243364Y34556D01*
X243376Y34633D01*
X243384Y34710D01*
X243388Y34787D01*
X243388Y34865D01*
X243384Y34942D01*
X243376Y35019D01*
X243364Y35096D01*
X243349Y35171D01*
X243330Y35246D01*
X243307Y35320D01*
X243281Y35393D01*
X243251Y35464D01*
X243217Y35534D01*
X243180Y35602D01*
X243140Y35668D01*
X243096Y35732D01*
X243049Y35794D01*
X243000Y35853D01*
X242947Y35910D01*
X242892Y35964D01*
X242834Y36015D01*
X242773Y36063D01*
X242710Y36108D01*
X242645Y36150D01*
X242578Y36189D01*
X242509Y36224D01*
X242439Y36256D01*
X242367Y36284D01*
X242293Y36309D01*
X242219Y36330D01*
X242144Y36347D01*
X242067Y36361D01*
X241991Y36370D01*
X241913Y36376D01*
X241836Y36378D01*
X242147Y38862D02*
X240284Y38862D01*
X242147Y38862D02*
X242217Y38860D01*
X242286Y38854D01*
X242355Y38844D01*
X242423Y38831D01*
X242491Y38813D01*
X242557Y38792D01*
X242622Y38767D01*
X242686Y38739D01*
X242748Y38707D01*
X242808Y38672D01*
X242866Y38633D01*
X242921Y38591D01*
X242975Y38546D01*
X243025Y38498D01*
X243073Y38448D01*
X243118Y38394D01*
X243160Y38339D01*
X243199Y38281D01*
X243234Y38221D01*
X243266Y38159D01*
X243294Y38095D01*
X243319Y38030D01*
X243340Y37964D01*
X243358Y37896D01*
X243371Y37828D01*
X243381Y37759D01*
X243387Y37690D01*
X243389Y37620D01*
X243387Y37550D01*
X243381Y37481D01*
X243371Y37412D01*
X243358Y37344D01*
X243340Y37276D01*
X243319Y37210D01*
X243294Y37145D01*
X243266Y37081D01*
X243234Y37019D01*
X243199Y36959D01*
X243160Y36901D01*
X243118Y36846D01*
X243073Y36792D01*
X243025Y36742D01*
X242975Y36694D01*
X242921Y36649D01*
X242866Y36607D01*
X242808Y36568D01*
X242748Y36533D01*
X242686Y36501D01*
X242622Y36473D01*
X242557Y36448D01*
X242491Y36427D01*
X242423Y36409D01*
X242355Y36396D01*
X242286Y36386D01*
X242217Y36380D01*
X242147Y36378D01*
X240905Y36378D01*
X245460Y38862D02*
X247323Y33274D01*
X249185Y38862D01*
X251257Y33274D02*
X252809Y33274D01*
X252886Y33276D01*
X252964Y33282D01*
X253040Y33291D01*
X253117Y33305D01*
X253192Y33322D01*
X253266Y33343D01*
X253340Y33368D01*
X253412Y33396D01*
X253482Y33428D01*
X253551Y33463D01*
X253618Y33502D01*
X253683Y33544D01*
X253746Y33589D01*
X253807Y33637D01*
X253865Y33688D01*
X253920Y33742D01*
X253973Y33799D01*
X254022Y33858D01*
X254069Y33920D01*
X254113Y33984D01*
X254153Y34050D01*
X254190Y34118D01*
X254224Y34188D01*
X254254Y34259D01*
X254280Y34332D01*
X254303Y34406D01*
X254322Y34481D01*
X254337Y34556D01*
X254349Y34633D01*
X254357Y34710D01*
X254361Y34787D01*
X254361Y34865D01*
X254357Y34942D01*
X254349Y35019D01*
X254337Y35096D01*
X254322Y35171D01*
X254303Y35246D01*
X254280Y35320D01*
X254254Y35393D01*
X254224Y35464D01*
X254190Y35534D01*
X254153Y35602D01*
X254113Y35668D01*
X254069Y35732D01*
X254022Y35794D01*
X253973Y35853D01*
X253920Y35910D01*
X253865Y35964D01*
X253807Y36015D01*
X253746Y36063D01*
X253683Y36108D01*
X253618Y36150D01*
X253551Y36189D01*
X253482Y36224D01*
X253412Y36256D01*
X253340Y36284D01*
X253266Y36309D01*
X253192Y36330D01*
X253117Y36347D01*
X253040Y36361D01*
X252964Y36370D01*
X252886Y36376D01*
X252809Y36378D01*
X253119Y38862D02*
X251257Y38862D01*
X253119Y38862D02*
X253189Y38860D01*
X253258Y38854D01*
X253327Y38844D01*
X253395Y38831D01*
X253463Y38813D01*
X253529Y38792D01*
X253594Y38767D01*
X253658Y38739D01*
X253720Y38707D01*
X253780Y38672D01*
X253838Y38633D01*
X253893Y38591D01*
X253947Y38546D01*
X253997Y38498D01*
X254045Y38448D01*
X254090Y38394D01*
X254132Y38339D01*
X254171Y38281D01*
X254206Y38221D01*
X254238Y38159D01*
X254266Y38095D01*
X254291Y38030D01*
X254312Y37964D01*
X254330Y37896D01*
X254343Y37828D01*
X254353Y37759D01*
X254359Y37690D01*
X254361Y37620D01*
X254359Y37550D01*
X254353Y37481D01*
X254343Y37412D01*
X254330Y37344D01*
X254312Y37276D01*
X254291Y37210D01*
X254266Y37145D01*
X254238Y37081D01*
X254206Y37019D01*
X254171Y36959D01*
X254132Y36901D01*
X254090Y36846D01*
X254045Y36792D01*
X253997Y36742D01*
X253947Y36694D01*
X253893Y36649D01*
X253838Y36607D01*
X253780Y36568D01*
X253720Y36533D01*
X253658Y36501D01*
X253594Y36473D01*
X253529Y36448D01*
X253463Y36427D01*
X253395Y36409D01*
X253327Y36396D01*
X253258Y36386D01*
X253189Y36380D01*
X253119Y36378D01*
X251878Y36378D01*
X220246Y36378D02*
X218694Y36378D01*
X220246Y36378D02*
X220323Y36376D01*
X220401Y36370D01*
X220477Y36361D01*
X220554Y36347D01*
X220629Y36330D01*
X220703Y36309D01*
X220777Y36284D01*
X220849Y36256D01*
X220919Y36224D01*
X220988Y36189D01*
X221055Y36150D01*
X221120Y36108D01*
X221183Y36063D01*
X221244Y36015D01*
X221302Y35964D01*
X221357Y35910D01*
X221410Y35853D01*
X221459Y35794D01*
X221506Y35732D01*
X221550Y35668D01*
X221590Y35602D01*
X221627Y35534D01*
X221661Y35464D01*
X221691Y35393D01*
X221717Y35320D01*
X221740Y35246D01*
X221759Y35171D01*
X221774Y35096D01*
X221786Y35019D01*
X221794Y34942D01*
X221798Y34865D01*
X221798Y34787D01*
X221794Y34710D01*
X221786Y34633D01*
X221774Y34556D01*
X221759Y34481D01*
X221740Y34406D01*
X221717Y34332D01*
X221691Y34259D01*
X221661Y34188D01*
X221627Y34118D01*
X221590Y34050D01*
X221550Y33984D01*
X221506Y33920D01*
X221459Y33858D01*
X221410Y33799D01*
X221357Y33742D01*
X221302Y33688D01*
X221244Y33637D01*
X221183Y33589D01*
X221120Y33544D01*
X221055Y33502D01*
X220988Y33463D01*
X220919Y33428D01*
X220849Y33396D01*
X220777Y33368D01*
X220703Y33343D01*
X220629Y33322D01*
X220554Y33305D01*
X220477Y33291D01*
X220401Y33282D01*
X220323Y33276D01*
X220246Y33274D01*
X218694Y33274D01*
X218694Y38862D01*
X220246Y38862D01*
X220316Y38860D01*
X220385Y38854D01*
X220454Y38844D01*
X220522Y38831D01*
X220590Y38813D01*
X220656Y38792D01*
X220721Y38767D01*
X220785Y38739D01*
X220847Y38707D01*
X220907Y38672D01*
X220965Y38633D01*
X221020Y38591D01*
X221074Y38546D01*
X221124Y38498D01*
X221172Y38448D01*
X221217Y38394D01*
X221259Y38339D01*
X221298Y38281D01*
X221333Y38221D01*
X221365Y38159D01*
X221393Y38095D01*
X221418Y38030D01*
X221439Y37964D01*
X221457Y37896D01*
X221470Y37828D01*
X221480Y37759D01*
X221486Y37690D01*
X221488Y37620D01*
X221486Y37550D01*
X221480Y37481D01*
X221470Y37412D01*
X221457Y37344D01*
X221439Y37276D01*
X221418Y37210D01*
X221393Y37145D01*
X221365Y37081D01*
X221333Y37019D01*
X221298Y36959D01*
X221259Y36901D01*
X221217Y36846D01*
X221172Y36792D01*
X221124Y36742D01*
X221074Y36694D01*
X221020Y36649D01*
X220965Y36607D01*
X220907Y36568D01*
X220847Y36533D01*
X220785Y36501D01*
X220721Y36473D01*
X220656Y36448D01*
X220590Y36427D01*
X220522Y36409D01*
X220454Y36396D01*
X220385Y36386D01*
X220316Y36380D01*
X220246Y36378D01*
X225622Y38862D02*
X225695Y38860D01*
X225768Y38854D01*
X225841Y38845D01*
X225912Y38831D01*
X225984Y38814D01*
X226054Y38794D01*
X226123Y38769D01*
X226190Y38741D01*
X226256Y38710D01*
X226321Y38675D01*
X226383Y38637D01*
X226443Y38595D01*
X226501Y38551D01*
X226557Y38503D01*
X226610Y38453D01*
X226660Y38400D01*
X226708Y38344D01*
X226752Y38286D01*
X226794Y38226D01*
X226832Y38164D01*
X226867Y38099D01*
X226898Y38033D01*
X226926Y37966D01*
X226951Y37897D01*
X226971Y37827D01*
X226988Y37755D01*
X227002Y37684D01*
X227011Y37611D01*
X227017Y37538D01*
X227019Y37465D01*
X225622Y38862D02*
X225538Y38860D01*
X225455Y38854D01*
X225372Y38845D01*
X225290Y38831D01*
X225208Y38814D01*
X225127Y38792D01*
X225047Y38767D01*
X224969Y38739D01*
X224891Y38707D01*
X224816Y38671D01*
X224742Y38632D01*
X224670Y38589D01*
X224600Y38543D01*
X224533Y38494D01*
X224467Y38441D01*
X224405Y38386D01*
X224345Y38328D01*
X224287Y38267D01*
X224233Y38204D01*
X224181Y38138D01*
X224133Y38070D01*
X224088Y37999D01*
X224046Y37927D01*
X224008Y37852D01*
X223973Y37776D01*
X223942Y37699D01*
X223914Y37620D01*
X226553Y36379D02*
X226607Y36432D01*
X226658Y36489D01*
X226706Y36548D01*
X226751Y36609D01*
X226792Y36672D01*
X226831Y36738D01*
X226866Y36805D01*
X226898Y36874D01*
X226926Y36945D01*
X226950Y37016D01*
X226971Y37089D01*
X226988Y37163D01*
X227002Y37238D01*
X227011Y37313D01*
X227017Y37389D01*
X227019Y37465D01*
X226553Y36378D02*
X223915Y33274D01*
X227019Y33274D01*
X192588Y36378D02*
X191657Y36378D01*
X192588Y36378D02*
X192588Y33274D01*
X190726Y33274D01*
X190656Y33276D01*
X190587Y33282D01*
X190518Y33292D01*
X190450Y33305D01*
X190382Y33323D01*
X190316Y33344D01*
X190251Y33369D01*
X190187Y33397D01*
X190125Y33429D01*
X190065Y33464D01*
X190007Y33503D01*
X189952Y33545D01*
X189898Y33590D01*
X189848Y33638D01*
X189800Y33688D01*
X189755Y33742D01*
X189713Y33797D01*
X189674Y33855D01*
X189639Y33915D01*
X189607Y33977D01*
X189579Y34041D01*
X189554Y34106D01*
X189533Y34172D01*
X189515Y34240D01*
X189502Y34308D01*
X189492Y34377D01*
X189486Y34446D01*
X189484Y34516D01*
X189484Y37620D01*
X189486Y37690D01*
X189492Y37759D01*
X189502Y37828D01*
X189515Y37896D01*
X189533Y37964D01*
X189554Y38030D01*
X189579Y38095D01*
X189607Y38159D01*
X189639Y38221D01*
X189674Y38281D01*
X189713Y38339D01*
X189755Y38394D01*
X189800Y38448D01*
X189848Y38498D01*
X189898Y38546D01*
X189952Y38591D01*
X190007Y38633D01*
X190065Y38672D01*
X190125Y38707D01*
X190187Y38739D01*
X190251Y38767D01*
X190316Y38792D01*
X190382Y38813D01*
X190450Y38831D01*
X190518Y38844D01*
X190587Y38854D01*
X190656Y38860D01*
X190726Y38862D01*
X192588Y38862D01*
X195336Y38862D02*
X195336Y33274D01*
X198441Y33274D02*
X195336Y38862D01*
X198441Y38862D02*
X198441Y33274D01*
X201188Y33274D02*
X201188Y38862D01*
X202740Y38862D01*
X202816Y38860D01*
X202892Y38855D01*
X202968Y38845D01*
X203043Y38832D01*
X203117Y38815D01*
X203191Y38795D01*
X203263Y38771D01*
X203334Y38744D01*
X203404Y38713D01*
X203472Y38679D01*
X203538Y38641D01*
X203602Y38600D01*
X203665Y38557D01*
X203725Y38510D01*
X203782Y38460D01*
X203837Y38407D01*
X203890Y38352D01*
X203940Y38295D01*
X203987Y38235D01*
X204030Y38172D01*
X204071Y38108D01*
X204109Y38042D01*
X204143Y37974D01*
X204174Y37904D01*
X204201Y37833D01*
X204225Y37760D01*
X204245Y37687D01*
X204262Y37613D01*
X204275Y37538D01*
X204285Y37462D01*
X204290Y37386D01*
X204292Y37310D01*
X204293Y37310D02*
X204293Y34826D01*
X204292Y34826D02*
X204290Y34747D01*
X204284Y34669D01*
X204274Y34591D01*
X204260Y34514D01*
X204242Y34437D01*
X204221Y34361D01*
X204195Y34287D01*
X204166Y34214D01*
X204133Y34143D01*
X204097Y34073D01*
X204057Y34005D01*
X204014Y33939D01*
X203967Y33876D01*
X203918Y33815D01*
X203865Y33757D01*
X203809Y33701D01*
X203751Y33648D01*
X203690Y33599D01*
X203627Y33552D01*
X203561Y33509D01*
X203493Y33469D01*
X203424Y33433D01*
X203352Y33400D01*
X203279Y33371D01*
X203205Y33345D01*
X203129Y33324D01*
X203052Y33306D01*
X202975Y33292D01*
X202897Y33282D01*
X202819Y33276D01*
X202740Y33274D01*
X201188Y33274D01*
X169757Y38862D02*
X167894Y33274D01*
X171619Y33274D02*
X169757Y38862D01*
X171154Y34671D02*
X168360Y34671D01*
X173691Y33274D02*
X175243Y33274D01*
X175320Y33276D01*
X175398Y33282D01*
X175474Y33291D01*
X175551Y33305D01*
X175626Y33322D01*
X175700Y33343D01*
X175774Y33368D01*
X175846Y33396D01*
X175916Y33428D01*
X175985Y33463D01*
X176052Y33502D01*
X176117Y33544D01*
X176180Y33589D01*
X176241Y33637D01*
X176299Y33688D01*
X176354Y33742D01*
X176407Y33799D01*
X176456Y33858D01*
X176503Y33920D01*
X176547Y33984D01*
X176587Y34050D01*
X176624Y34118D01*
X176658Y34188D01*
X176688Y34259D01*
X176714Y34332D01*
X176737Y34406D01*
X176756Y34481D01*
X176771Y34556D01*
X176783Y34633D01*
X176791Y34710D01*
X176795Y34787D01*
X176795Y34865D01*
X176791Y34942D01*
X176783Y35019D01*
X176771Y35096D01*
X176756Y35171D01*
X176737Y35246D01*
X176714Y35320D01*
X176688Y35393D01*
X176658Y35464D01*
X176624Y35534D01*
X176587Y35602D01*
X176547Y35668D01*
X176503Y35732D01*
X176456Y35794D01*
X176407Y35853D01*
X176354Y35910D01*
X176299Y35964D01*
X176241Y36015D01*
X176180Y36063D01*
X176117Y36108D01*
X176052Y36150D01*
X175985Y36189D01*
X175916Y36224D01*
X175846Y36256D01*
X175774Y36284D01*
X175700Y36309D01*
X175626Y36330D01*
X175551Y36347D01*
X175474Y36361D01*
X175398Y36370D01*
X175320Y36376D01*
X175243Y36378D01*
X175553Y38862D02*
X173691Y38862D01*
X175553Y38862D02*
X175623Y38860D01*
X175692Y38854D01*
X175761Y38844D01*
X175829Y38831D01*
X175897Y38813D01*
X175963Y38792D01*
X176028Y38767D01*
X176092Y38739D01*
X176154Y38707D01*
X176214Y38672D01*
X176272Y38633D01*
X176327Y38591D01*
X176381Y38546D01*
X176431Y38498D01*
X176479Y38448D01*
X176524Y38394D01*
X176566Y38339D01*
X176605Y38281D01*
X176640Y38221D01*
X176672Y38159D01*
X176700Y38095D01*
X176725Y38030D01*
X176746Y37964D01*
X176764Y37896D01*
X176777Y37828D01*
X176787Y37759D01*
X176793Y37690D01*
X176795Y37620D01*
X176793Y37550D01*
X176787Y37481D01*
X176777Y37412D01*
X176764Y37344D01*
X176746Y37276D01*
X176725Y37210D01*
X176700Y37145D01*
X176672Y37081D01*
X176640Y37019D01*
X176605Y36959D01*
X176566Y36901D01*
X176524Y36846D01*
X176479Y36792D01*
X176431Y36742D01*
X176381Y36694D01*
X176327Y36649D01*
X176272Y36607D01*
X176214Y36568D01*
X176154Y36533D01*
X176092Y36501D01*
X176028Y36473D01*
X175963Y36448D01*
X175897Y36427D01*
X175829Y36409D01*
X175761Y36396D01*
X175692Y36386D01*
X175623Y36380D01*
X175553Y36378D01*
X174312Y36378D01*
X143087Y38862D02*
X141224Y33274D01*
X144949Y33274D02*
X143087Y38862D01*
X144484Y34671D02*
X141690Y34671D01*
X148728Y38862D02*
X148801Y38860D01*
X148874Y38854D01*
X148947Y38845D01*
X149018Y38831D01*
X149090Y38814D01*
X149160Y38794D01*
X149229Y38769D01*
X149296Y38741D01*
X149362Y38710D01*
X149427Y38675D01*
X149489Y38637D01*
X149549Y38595D01*
X149607Y38551D01*
X149663Y38503D01*
X149716Y38453D01*
X149766Y38400D01*
X149814Y38344D01*
X149858Y38286D01*
X149900Y38226D01*
X149938Y38164D01*
X149973Y38099D01*
X150004Y38033D01*
X150032Y37966D01*
X150057Y37897D01*
X150077Y37827D01*
X150094Y37755D01*
X150108Y37684D01*
X150117Y37611D01*
X150123Y37538D01*
X150125Y37465D01*
X148728Y38862D02*
X148644Y38860D01*
X148561Y38854D01*
X148478Y38845D01*
X148396Y38831D01*
X148314Y38814D01*
X148233Y38792D01*
X148153Y38767D01*
X148075Y38739D01*
X147997Y38707D01*
X147922Y38671D01*
X147848Y38632D01*
X147776Y38589D01*
X147706Y38543D01*
X147639Y38494D01*
X147573Y38441D01*
X147511Y38386D01*
X147451Y38328D01*
X147393Y38267D01*
X147339Y38204D01*
X147287Y38138D01*
X147239Y38070D01*
X147194Y37999D01*
X147152Y37927D01*
X147114Y37852D01*
X147079Y37776D01*
X147048Y37699D01*
X147020Y37620D01*
X149659Y36379D02*
X149713Y36432D01*
X149764Y36489D01*
X149812Y36548D01*
X149857Y36609D01*
X149898Y36672D01*
X149937Y36738D01*
X149972Y36805D01*
X150004Y36874D01*
X150032Y36945D01*
X150056Y37016D01*
X150077Y37089D01*
X150094Y37163D01*
X150108Y37238D01*
X150117Y37313D01*
X150123Y37389D01*
X150125Y37465D01*
X149660Y36378D02*
X147021Y33274D01*
X150125Y33274D01*
X114554Y33274D02*
X114554Y38862D01*
X117038Y38862D01*
X117038Y36378D02*
X114554Y36378D01*
X119115Y33274D02*
X120667Y33274D01*
X120744Y33276D01*
X120822Y33282D01*
X120898Y33291D01*
X120975Y33305D01*
X121050Y33322D01*
X121124Y33343D01*
X121198Y33368D01*
X121270Y33396D01*
X121340Y33428D01*
X121409Y33463D01*
X121476Y33502D01*
X121541Y33544D01*
X121604Y33589D01*
X121665Y33637D01*
X121723Y33688D01*
X121778Y33742D01*
X121831Y33799D01*
X121880Y33858D01*
X121927Y33920D01*
X121971Y33984D01*
X122011Y34050D01*
X122048Y34118D01*
X122082Y34188D01*
X122112Y34259D01*
X122138Y34332D01*
X122161Y34406D01*
X122180Y34481D01*
X122195Y34556D01*
X122207Y34633D01*
X122215Y34710D01*
X122219Y34787D01*
X122219Y34865D01*
X122215Y34942D01*
X122207Y35019D01*
X122195Y35096D01*
X122180Y35171D01*
X122161Y35246D01*
X122138Y35320D01*
X122112Y35393D01*
X122082Y35464D01*
X122048Y35534D01*
X122011Y35602D01*
X121971Y35668D01*
X121927Y35732D01*
X121880Y35794D01*
X121831Y35853D01*
X121778Y35910D01*
X121723Y35964D01*
X121665Y36015D01*
X121604Y36063D01*
X121541Y36108D01*
X121476Y36150D01*
X121409Y36189D01*
X121340Y36224D01*
X121270Y36256D01*
X121198Y36284D01*
X121124Y36309D01*
X121050Y36330D01*
X120975Y36347D01*
X120898Y36361D01*
X120822Y36370D01*
X120744Y36376D01*
X120667Y36378D01*
X120978Y38862D02*
X119115Y38862D01*
X120978Y38862D02*
X121048Y38860D01*
X121117Y38854D01*
X121186Y38844D01*
X121254Y38831D01*
X121322Y38813D01*
X121388Y38792D01*
X121453Y38767D01*
X121517Y38739D01*
X121579Y38707D01*
X121639Y38672D01*
X121697Y38633D01*
X121752Y38591D01*
X121806Y38546D01*
X121856Y38498D01*
X121904Y38448D01*
X121949Y38394D01*
X121991Y38339D01*
X122030Y38281D01*
X122065Y38221D01*
X122097Y38159D01*
X122125Y38095D01*
X122150Y38030D01*
X122171Y37964D01*
X122189Y37896D01*
X122202Y37828D01*
X122212Y37759D01*
X122218Y37690D01*
X122220Y37620D01*
X122218Y37550D01*
X122212Y37481D01*
X122202Y37412D01*
X122189Y37344D01*
X122171Y37276D01*
X122150Y37210D01*
X122125Y37145D01*
X122097Y37081D01*
X122065Y37019D01*
X122030Y36959D01*
X121991Y36901D01*
X121949Y36846D01*
X121904Y36792D01*
X121856Y36742D01*
X121806Y36694D01*
X121752Y36649D01*
X121697Y36607D01*
X121639Y36568D01*
X121579Y36533D01*
X121517Y36501D01*
X121453Y36473D01*
X121388Y36448D01*
X121322Y36427D01*
X121254Y36409D01*
X121186Y36396D01*
X121117Y36386D01*
X121048Y36380D01*
X120978Y36378D01*
X119736Y36378D01*
X90424Y38862D02*
X90424Y33274D01*
X90424Y38862D02*
X92908Y38862D01*
X92908Y36378D02*
X90424Y36378D01*
X96692Y38862D02*
X96765Y38860D01*
X96838Y38854D01*
X96911Y38845D01*
X96982Y38831D01*
X97054Y38814D01*
X97124Y38794D01*
X97193Y38769D01*
X97260Y38741D01*
X97326Y38710D01*
X97391Y38675D01*
X97453Y38637D01*
X97513Y38595D01*
X97571Y38551D01*
X97627Y38503D01*
X97680Y38453D01*
X97730Y38400D01*
X97778Y38344D01*
X97822Y38286D01*
X97864Y38226D01*
X97902Y38164D01*
X97937Y38099D01*
X97968Y38033D01*
X97996Y37966D01*
X98021Y37897D01*
X98041Y37827D01*
X98058Y37755D01*
X98072Y37684D01*
X98081Y37611D01*
X98087Y37538D01*
X98089Y37465D01*
X96692Y38862D02*
X96608Y38860D01*
X96525Y38854D01*
X96442Y38845D01*
X96360Y38831D01*
X96278Y38814D01*
X96197Y38792D01*
X96117Y38767D01*
X96039Y38739D01*
X95961Y38707D01*
X95886Y38671D01*
X95812Y38632D01*
X95740Y38589D01*
X95670Y38543D01*
X95603Y38494D01*
X95537Y38441D01*
X95475Y38386D01*
X95415Y38328D01*
X95357Y38267D01*
X95303Y38204D01*
X95251Y38138D01*
X95203Y38070D01*
X95158Y37999D01*
X95116Y37927D01*
X95078Y37852D01*
X95043Y37776D01*
X95012Y37699D01*
X94984Y37620D01*
X97623Y36379D02*
X97677Y36432D01*
X97728Y36489D01*
X97776Y36548D01*
X97821Y36609D01*
X97862Y36672D01*
X97901Y36738D01*
X97936Y36805D01*
X97968Y36874D01*
X97996Y36945D01*
X98020Y37016D01*
X98041Y37089D01*
X98058Y37163D01*
X98072Y37238D01*
X98081Y37313D01*
X98087Y37389D01*
X98089Y37465D01*
X97624Y36378D02*
X94985Y33274D01*
X98089Y33274D01*
X65024Y33274D02*
X65024Y38862D01*
X67508Y38862D01*
X67508Y36378D02*
X65024Y36378D01*
X69585Y37620D02*
X71137Y38862D01*
X71137Y33274D01*
X69585Y33274D02*
X72689Y33274D01*
X39624Y33274D02*
X39624Y38862D01*
X42108Y38862D01*
X42108Y36378D02*
X39624Y36378D01*
X44185Y36068D02*
X44187Y36199D01*
X44192Y36329D01*
X44202Y36459D01*
X44215Y36589D01*
X44231Y36719D01*
X44251Y36848D01*
X44275Y36976D01*
X44303Y37103D01*
X44334Y37230D01*
X44369Y37356D01*
X44407Y37481D01*
X44449Y37605D01*
X44494Y37727D01*
X44543Y37848D01*
X44595Y37968D01*
X44651Y38086D01*
X44650Y38086D02*
X44673Y38146D01*
X44699Y38206D01*
X44728Y38263D01*
X44761Y38319D01*
X44797Y38373D01*
X44835Y38425D01*
X44877Y38475D01*
X44921Y38522D01*
X44968Y38567D01*
X45018Y38609D01*
X45069Y38648D01*
X45123Y38684D01*
X45179Y38717D01*
X45236Y38747D01*
X45295Y38774D01*
X45356Y38797D01*
X45417Y38817D01*
X45480Y38833D01*
X45544Y38846D01*
X45608Y38855D01*
X45672Y38860D01*
X45737Y38862D01*
X45802Y38860D01*
X45866Y38855D01*
X45930Y38846D01*
X45994Y38833D01*
X46057Y38817D01*
X46118Y38797D01*
X46179Y38774D01*
X46238Y38747D01*
X46295Y38717D01*
X46351Y38684D01*
X46405Y38648D01*
X46456Y38609D01*
X46506Y38567D01*
X46553Y38522D01*
X46597Y38475D01*
X46639Y38425D01*
X46677Y38373D01*
X46713Y38319D01*
X46746Y38263D01*
X46775Y38206D01*
X46801Y38146D01*
X46824Y38086D01*
X46880Y37968D01*
X46932Y37848D01*
X46981Y37727D01*
X47026Y37605D01*
X47068Y37481D01*
X47106Y37356D01*
X47141Y37230D01*
X47172Y37104D01*
X47200Y36976D01*
X47224Y36848D01*
X47244Y36719D01*
X47260Y36589D01*
X47273Y36459D01*
X47283Y36329D01*
X47288Y36199D01*
X47290Y36068D01*
X44185Y36068D02*
X44187Y35937D01*
X44192Y35807D01*
X44202Y35677D01*
X44215Y35547D01*
X44231Y35417D01*
X44251Y35288D01*
X44275Y35160D01*
X44303Y35033D01*
X44334Y34906D01*
X44369Y34780D01*
X44407Y34655D01*
X44449Y34531D01*
X44494Y34409D01*
X44543Y34288D01*
X44595Y34168D01*
X44651Y34050D01*
X44650Y34050D02*
X44673Y33990D01*
X44699Y33930D01*
X44728Y33873D01*
X44761Y33817D01*
X44797Y33763D01*
X44835Y33711D01*
X44877Y33661D01*
X44921Y33614D01*
X44968Y33569D01*
X45018Y33527D01*
X45069Y33488D01*
X45123Y33452D01*
X45179Y33419D01*
X45236Y33389D01*
X45295Y33362D01*
X45356Y33339D01*
X45417Y33319D01*
X45480Y33303D01*
X45544Y33290D01*
X45608Y33281D01*
X45672Y33276D01*
X45737Y33274D01*
X46823Y34050D02*
X46879Y34168D01*
X46931Y34288D01*
X46980Y34409D01*
X47025Y34531D01*
X47067Y34655D01*
X47105Y34780D01*
X47140Y34906D01*
X47171Y35032D01*
X47199Y35160D01*
X47223Y35288D01*
X47243Y35417D01*
X47259Y35547D01*
X47272Y35677D01*
X47282Y35807D01*
X47287Y35937D01*
X47289Y36068D01*
X46824Y34050D02*
X46801Y33990D01*
X46775Y33930D01*
X46746Y33873D01*
X46713Y33817D01*
X46677Y33763D01*
X46639Y33711D01*
X46597Y33661D01*
X46553Y33614D01*
X46506Y33569D01*
X46456Y33527D01*
X46405Y33488D01*
X46351Y33452D01*
X46295Y33419D01*
X46238Y33389D01*
X46179Y33362D01*
X46118Y33339D01*
X46057Y33319D01*
X45994Y33303D01*
X45930Y33290D01*
X45866Y33281D01*
X45802Y33276D01*
X45737Y33274D01*
X44495Y34516D02*
X46979Y37620D01*
X291084Y33274D02*
X292636Y33274D01*
X292713Y33276D01*
X292791Y33282D01*
X292867Y33291D01*
X292944Y33305D01*
X293019Y33322D01*
X293093Y33343D01*
X293167Y33368D01*
X293239Y33396D01*
X293309Y33428D01*
X293378Y33463D01*
X293445Y33502D01*
X293510Y33544D01*
X293573Y33589D01*
X293634Y33637D01*
X293692Y33688D01*
X293747Y33742D01*
X293800Y33799D01*
X293849Y33858D01*
X293896Y33920D01*
X293940Y33984D01*
X293980Y34050D01*
X294017Y34118D01*
X294051Y34188D01*
X294081Y34259D01*
X294107Y34332D01*
X294130Y34406D01*
X294149Y34481D01*
X294164Y34556D01*
X294176Y34633D01*
X294184Y34710D01*
X294188Y34787D01*
X294188Y34865D01*
X294184Y34942D01*
X294176Y35019D01*
X294164Y35096D01*
X294149Y35171D01*
X294130Y35246D01*
X294107Y35320D01*
X294081Y35393D01*
X294051Y35464D01*
X294017Y35534D01*
X293980Y35602D01*
X293940Y35668D01*
X293896Y35732D01*
X293849Y35794D01*
X293800Y35853D01*
X293747Y35910D01*
X293692Y35964D01*
X293634Y36015D01*
X293573Y36063D01*
X293510Y36108D01*
X293445Y36150D01*
X293378Y36189D01*
X293309Y36224D01*
X293239Y36256D01*
X293167Y36284D01*
X293093Y36309D01*
X293019Y36330D01*
X292944Y36347D01*
X292867Y36361D01*
X292791Y36370D01*
X292713Y36376D01*
X292636Y36378D01*
X292947Y38862D02*
X291084Y38862D01*
X292947Y38862D02*
X293017Y38860D01*
X293086Y38854D01*
X293155Y38844D01*
X293223Y38831D01*
X293291Y38813D01*
X293357Y38792D01*
X293422Y38767D01*
X293486Y38739D01*
X293548Y38707D01*
X293608Y38672D01*
X293666Y38633D01*
X293721Y38591D01*
X293775Y38546D01*
X293825Y38498D01*
X293873Y38448D01*
X293918Y38394D01*
X293960Y38339D01*
X293999Y38281D01*
X294034Y38221D01*
X294066Y38159D01*
X294094Y38095D01*
X294119Y38030D01*
X294140Y37964D01*
X294158Y37896D01*
X294171Y37828D01*
X294181Y37759D01*
X294187Y37690D01*
X294189Y37620D01*
X294187Y37550D01*
X294181Y37481D01*
X294171Y37412D01*
X294158Y37344D01*
X294140Y37276D01*
X294119Y37210D01*
X294094Y37145D01*
X294066Y37081D01*
X294034Y37019D01*
X293999Y36959D01*
X293960Y36901D01*
X293918Y36846D01*
X293873Y36792D01*
X293825Y36742D01*
X293775Y36694D01*
X293721Y36649D01*
X293666Y36607D01*
X293608Y36568D01*
X293548Y36533D01*
X293486Y36501D01*
X293422Y36473D01*
X293357Y36448D01*
X293291Y36427D01*
X293223Y36409D01*
X293155Y36396D01*
X293086Y36386D01*
X293017Y36380D01*
X292947Y36378D01*
X291705Y36378D01*
X296260Y38862D02*
X298123Y33274D01*
X299985Y38862D01*
X302057Y33274D02*
X303609Y33274D01*
X303686Y33276D01*
X303764Y33282D01*
X303840Y33291D01*
X303917Y33305D01*
X303992Y33322D01*
X304066Y33343D01*
X304140Y33368D01*
X304212Y33396D01*
X304282Y33428D01*
X304351Y33463D01*
X304418Y33502D01*
X304483Y33544D01*
X304546Y33589D01*
X304607Y33637D01*
X304665Y33688D01*
X304720Y33742D01*
X304773Y33799D01*
X304822Y33858D01*
X304869Y33920D01*
X304913Y33984D01*
X304953Y34050D01*
X304990Y34118D01*
X305024Y34188D01*
X305054Y34259D01*
X305080Y34332D01*
X305103Y34406D01*
X305122Y34481D01*
X305137Y34556D01*
X305149Y34633D01*
X305157Y34710D01*
X305161Y34787D01*
X305161Y34865D01*
X305157Y34942D01*
X305149Y35019D01*
X305137Y35096D01*
X305122Y35171D01*
X305103Y35246D01*
X305080Y35320D01*
X305054Y35393D01*
X305024Y35464D01*
X304990Y35534D01*
X304953Y35602D01*
X304913Y35668D01*
X304869Y35732D01*
X304822Y35794D01*
X304773Y35853D01*
X304720Y35910D01*
X304665Y35964D01*
X304607Y36015D01*
X304546Y36063D01*
X304483Y36108D01*
X304418Y36150D01*
X304351Y36189D01*
X304282Y36224D01*
X304212Y36256D01*
X304140Y36284D01*
X304066Y36309D01*
X303992Y36330D01*
X303917Y36347D01*
X303840Y36361D01*
X303764Y36370D01*
X303686Y36376D01*
X303609Y36378D01*
X303919Y38862D02*
X302057Y38862D01*
X303919Y38862D02*
X303989Y38860D01*
X304058Y38854D01*
X304127Y38844D01*
X304195Y38831D01*
X304263Y38813D01*
X304329Y38792D01*
X304394Y38767D01*
X304458Y38739D01*
X304520Y38707D01*
X304580Y38672D01*
X304638Y38633D01*
X304693Y38591D01*
X304747Y38546D01*
X304797Y38498D01*
X304845Y38448D01*
X304890Y38394D01*
X304932Y38339D01*
X304971Y38281D01*
X305006Y38221D01*
X305038Y38159D01*
X305066Y38095D01*
X305091Y38030D01*
X305112Y37964D01*
X305130Y37896D01*
X305143Y37828D01*
X305153Y37759D01*
X305159Y37690D01*
X305161Y37620D01*
X305159Y37550D01*
X305153Y37481D01*
X305143Y37412D01*
X305130Y37344D01*
X305112Y37276D01*
X305091Y37210D01*
X305066Y37145D01*
X305038Y37081D01*
X305006Y37019D01*
X304971Y36959D01*
X304932Y36901D01*
X304890Y36846D01*
X304845Y36792D01*
X304797Y36742D01*
X304747Y36694D01*
X304693Y36649D01*
X304638Y36607D01*
X304580Y36568D01*
X304520Y36533D01*
X304458Y36501D01*
X304394Y36473D01*
X304329Y36448D01*
X304263Y36427D01*
X304195Y36409D01*
X304127Y36396D01*
X304058Y36386D01*
X303989Y36380D01*
X303919Y36378D01*
X302678Y36378D01*
X315214Y38862D02*
X317077Y33274D01*
X318939Y38862D01*
X321277Y36378D02*
X322829Y36378D01*
X322906Y36376D01*
X322984Y36370D01*
X323060Y36361D01*
X323137Y36347D01*
X323212Y36330D01*
X323286Y36309D01*
X323360Y36284D01*
X323432Y36256D01*
X323502Y36224D01*
X323571Y36189D01*
X323638Y36150D01*
X323703Y36108D01*
X323766Y36063D01*
X323827Y36015D01*
X323885Y35964D01*
X323940Y35910D01*
X323993Y35853D01*
X324042Y35794D01*
X324089Y35732D01*
X324133Y35668D01*
X324173Y35602D01*
X324210Y35534D01*
X324244Y35464D01*
X324274Y35393D01*
X324300Y35320D01*
X324323Y35246D01*
X324342Y35171D01*
X324357Y35096D01*
X324369Y35019D01*
X324377Y34942D01*
X324381Y34865D01*
X324381Y34787D01*
X324377Y34710D01*
X324369Y34633D01*
X324357Y34556D01*
X324342Y34481D01*
X324323Y34406D01*
X324300Y34332D01*
X324274Y34259D01*
X324244Y34188D01*
X324210Y34118D01*
X324173Y34050D01*
X324133Y33984D01*
X324089Y33920D01*
X324042Y33858D01*
X323993Y33799D01*
X323940Y33742D01*
X323885Y33688D01*
X323827Y33637D01*
X323766Y33589D01*
X323703Y33544D01*
X323638Y33502D01*
X323571Y33463D01*
X323502Y33428D01*
X323432Y33396D01*
X323360Y33368D01*
X323286Y33343D01*
X323212Y33322D01*
X323137Y33305D01*
X323060Y33291D01*
X322984Y33282D01*
X322906Y33276D01*
X322829Y33274D01*
X321277Y33274D01*
X321277Y38862D01*
X322829Y38862D01*
X322899Y38860D01*
X322968Y38854D01*
X323037Y38844D01*
X323105Y38831D01*
X323173Y38813D01*
X323239Y38792D01*
X323304Y38767D01*
X323368Y38739D01*
X323430Y38707D01*
X323490Y38672D01*
X323548Y38633D01*
X323603Y38591D01*
X323657Y38546D01*
X323707Y38498D01*
X323755Y38448D01*
X323800Y38394D01*
X323842Y38339D01*
X323881Y38281D01*
X323916Y38221D01*
X323948Y38159D01*
X323976Y38095D01*
X324001Y38030D01*
X324022Y37964D01*
X324040Y37896D01*
X324053Y37828D01*
X324063Y37759D01*
X324069Y37690D01*
X324071Y37620D01*
X324069Y37550D01*
X324063Y37481D01*
X324053Y37412D01*
X324040Y37344D01*
X324022Y37276D01*
X324001Y37210D01*
X323976Y37145D01*
X323948Y37081D01*
X323916Y37019D01*
X323881Y36959D01*
X323842Y36901D01*
X323800Y36846D01*
X323755Y36792D01*
X323707Y36742D01*
X323657Y36694D01*
X323603Y36649D01*
X323548Y36607D01*
X323490Y36568D01*
X323430Y36533D01*
X323368Y36501D01*
X323304Y36473D01*
X323239Y36448D01*
X323173Y36427D01*
X323105Y36409D01*
X323037Y36396D01*
X322968Y36386D01*
X322899Y36380D01*
X322829Y36378D01*
X326680Y34826D02*
X326680Y38862D01*
X326680Y34826D02*
X326682Y34749D01*
X326688Y34671D01*
X326697Y34595D01*
X326711Y34518D01*
X326728Y34443D01*
X326749Y34369D01*
X326774Y34295D01*
X326802Y34223D01*
X326834Y34153D01*
X326869Y34084D01*
X326908Y34017D01*
X326950Y33952D01*
X326995Y33889D01*
X327043Y33828D01*
X327094Y33770D01*
X327148Y33715D01*
X327205Y33662D01*
X327264Y33613D01*
X327326Y33566D01*
X327390Y33522D01*
X327456Y33482D01*
X327524Y33445D01*
X327594Y33411D01*
X327665Y33381D01*
X327738Y33355D01*
X327812Y33332D01*
X327887Y33313D01*
X327962Y33298D01*
X328039Y33286D01*
X328116Y33278D01*
X328193Y33274D01*
X328271Y33274D01*
X328348Y33278D01*
X328425Y33286D01*
X328502Y33298D01*
X328577Y33313D01*
X328652Y33332D01*
X328726Y33355D01*
X328799Y33381D01*
X328870Y33411D01*
X328940Y33445D01*
X329008Y33482D01*
X329074Y33522D01*
X329138Y33566D01*
X329200Y33613D01*
X329259Y33662D01*
X329316Y33715D01*
X329370Y33770D01*
X329421Y33828D01*
X329469Y33889D01*
X329514Y33952D01*
X329556Y34017D01*
X329595Y34084D01*
X329630Y34153D01*
X329662Y34223D01*
X329690Y34295D01*
X329715Y34369D01*
X329736Y34443D01*
X329753Y34518D01*
X329767Y34595D01*
X329776Y34671D01*
X329782Y34749D01*
X329784Y34826D01*
X329784Y38862D01*
X335271Y34516D02*
X335269Y34446D01*
X335263Y34377D01*
X335253Y34308D01*
X335240Y34240D01*
X335222Y34172D01*
X335201Y34106D01*
X335176Y34041D01*
X335148Y33977D01*
X335116Y33915D01*
X335081Y33855D01*
X335042Y33797D01*
X335000Y33742D01*
X334955Y33688D01*
X334907Y33638D01*
X334857Y33590D01*
X334803Y33545D01*
X334748Y33503D01*
X334690Y33464D01*
X334630Y33429D01*
X334568Y33397D01*
X334504Y33369D01*
X334439Y33344D01*
X334373Y33323D01*
X334305Y33305D01*
X334237Y33292D01*
X334168Y33282D01*
X334099Y33276D01*
X334029Y33274D01*
X333930Y33276D01*
X333832Y33281D01*
X333734Y33291D01*
X333636Y33304D01*
X333539Y33320D01*
X333442Y33340D01*
X333347Y33364D01*
X333252Y33392D01*
X333158Y33423D01*
X333066Y33457D01*
X332975Y33495D01*
X332885Y33536D01*
X332797Y33581D01*
X332711Y33629D01*
X332627Y33680D01*
X332545Y33734D01*
X332464Y33792D01*
X332386Y33852D01*
X332311Y33915D01*
X332237Y33981D01*
X332167Y34050D01*
X332321Y37620D02*
X332323Y37690D01*
X332329Y37759D01*
X332339Y37828D01*
X332352Y37896D01*
X332370Y37964D01*
X332391Y38030D01*
X332416Y38095D01*
X332444Y38159D01*
X332476Y38221D01*
X332511Y38281D01*
X332550Y38339D01*
X332592Y38394D01*
X332637Y38448D01*
X332685Y38498D01*
X332735Y38546D01*
X332789Y38591D01*
X332844Y38633D01*
X332902Y38672D01*
X332962Y38707D01*
X333024Y38739D01*
X333088Y38767D01*
X333153Y38792D01*
X333219Y38813D01*
X333287Y38831D01*
X333355Y38844D01*
X333424Y38854D01*
X333493Y38860D01*
X333563Y38862D01*
X333657Y38860D01*
X333750Y38854D01*
X333843Y38845D01*
X333936Y38832D01*
X334028Y38815D01*
X334119Y38795D01*
X334210Y38770D01*
X334299Y38743D01*
X334387Y38711D01*
X334474Y38676D01*
X334560Y38638D01*
X334643Y38596D01*
X334725Y38551D01*
X334806Y38503D01*
X334884Y38451D01*
X334960Y38396D01*
X332943Y36534D02*
X332884Y36570D01*
X332828Y36610D01*
X332774Y36653D01*
X332722Y36698D01*
X332673Y36747D01*
X332627Y36798D01*
X332584Y36851D01*
X332543Y36907D01*
X332506Y36965D01*
X332471Y37025D01*
X332441Y37086D01*
X332413Y37149D01*
X332389Y37214D01*
X332369Y37280D01*
X332352Y37347D01*
X332339Y37414D01*
X332330Y37482D01*
X332324Y37551D01*
X332322Y37620D01*
X334650Y35602D02*
X334709Y35566D01*
X334765Y35526D01*
X334819Y35483D01*
X334871Y35438D01*
X334920Y35389D01*
X334966Y35338D01*
X335009Y35285D01*
X335050Y35229D01*
X335087Y35171D01*
X335122Y35111D01*
X335152Y35050D01*
X335180Y34987D01*
X335204Y34922D01*
X335224Y34856D01*
X335241Y34789D01*
X335254Y34722D01*
X335263Y34654D01*
X335269Y34585D01*
X335271Y34516D01*
X334650Y35602D02*
X332943Y36534D01*
X102174Y53894D02*
X102174Y59482D01*
X103726Y59482D01*
X103803Y59480D01*
X103881Y59474D01*
X103957Y59465D01*
X104034Y59451D01*
X104109Y59434D01*
X104183Y59413D01*
X104257Y59388D01*
X104329Y59360D01*
X104399Y59328D01*
X104468Y59293D01*
X104535Y59254D01*
X104600Y59212D01*
X104663Y59167D01*
X104724Y59119D01*
X104782Y59068D01*
X104837Y59014D01*
X104890Y58957D01*
X104939Y58898D01*
X104986Y58836D01*
X105030Y58772D01*
X105070Y58706D01*
X105107Y58638D01*
X105141Y58568D01*
X105171Y58497D01*
X105197Y58424D01*
X105220Y58350D01*
X105239Y58275D01*
X105254Y58200D01*
X105266Y58123D01*
X105274Y58046D01*
X105278Y57969D01*
X105278Y57891D01*
X105274Y57814D01*
X105266Y57737D01*
X105254Y57660D01*
X105239Y57585D01*
X105220Y57510D01*
X105197Y57436D01*
X105171Y57363D01*
X105141Y57292D01*
X105107Y57222D01*
X105070Y57154D01*
X105030Y57088D01*
X104986Y57024D01*
X104939Y56962D01*
X104890Y56903D01*
X104837Y56846D01*
X104782Y56792D01*
X104724Y56741D01*
X104663Y56693D01*
X104600Y56648D01*
X104535Y56606D01*
X104468Y56567D01*
X104399Y56532D01*
X104329Y56500D01*
X104257Y56472D01*
X104183Y56447D01*
X104109Y56426D01*
X104034Y56409D01*
X103957Y56395D01*
X103881Y56386D01*
X103803Y56380D01*
X103726Y56378D01*
X102174Y56378D01*
X104037Y56378D02*
X105278Y53894D01*
X107818Y53894D02*
X110302Y53894D01*
X107818Y53894D02*
X107818Y59482D01*
X110302Y59482D01*
X109681Y56998D02*
X107818Y56998D01*
X114059Y53894D02*
X114129Y53896D01*
X114198Y53902D01*
X114267Y53912D01*
X114335Y53925D01*
X114403Y53943D01*
X114469Y53964D01*
X114534Y53989D01*
X114598Y54017D01*
X114660Y54049D01*
X114720Y54084D01*
X114778Y54123D01*
X114833Y54165D01*
X114887Y54210D01*
X114937Y54258D01*
X114985Y54308D01*
X115030Y54362D01*
X115072Y54417D01*
X115111Y54475D01*
X115146Y54535D01*
X115178Y54597D01*
X115206Y54661D01*
X115231Y54726D01*
X115252Y54792D01*
X115270Y54860D01*
X115283Y54928D01*
X115293Y54997D01*
X115299Y55066D01*
X115301Y55136D01*
X114059Y53894D02*
X113960Y53896D01*
X113862Y53901D01*
X113764Y53911D01*
X113666Y53924D01*
X113569Y53940D01*
X113472Y53960D01*
X113377Y53984D01*
X113282Y54012D01*
X113188Y54043D01*
X113096Y54077D01*
X113005Y54115D01*
X112915Y54156D01*
X112827Y54201D01*
X112741Y54249D01*
X112657Y54300D01*
X112575Y54354D01*
X112494Y54412D01*
X112416Y54472D01*
X112341Y54535D01*
X112267Y54601D01*
X112197Y54670D01*
X112351Y58240D02*
X112353Y58310D01*
X112359Y58379D01*
X112369Y58448D01*
X112382Y58516D01*
X112400Y58584D01*
X112421Y58650D01*
X112446Y58715D01*
X112474Y58779D01*
X112506Y58841D01*
X112541Y58901D01*
X112580Y58959D01*
X112622Y59014D01*
X112667Y59068D01*
X112715Y59118D01*
X112765Y59166D01*
X112819Y59211D01*
X112874Y59253D01*
X112932Y59292D01*
X112992Y59327D01*
X113054Y59359D01*
X113118Y59387D01*
X113183Y59412D01*
X113249Y59433D01*
X113317Y59451D01*
X113385Y59464D01*
X113454Y59474D01*
X113523Y59480D01*
X113593Y59482D01*
X113687Y59480D01*
X113780Y59474D01*
X113873Y59465D01*
X113966Y59452D01*
X114058Y59435D01*
X114149Y59415D01*
X114240Y59390D01*
X114329Y59363D01*
X114417Y59331D01*
X114504Y59296D01*
X114590Y59258D01*
X114673Y59216D01*
X114755Y59171D01*
X114836Y59123D01*
X114914Y59071D01*
X114990Y59016D01*
X112973Y57154D02*
X112914Y57190D01*
X112858Y57230D01*
X112804Y57273D01*
X112752Y57318D01*
X112703Y57367D01*
X112657Y57418D01*
X112614Y57471D01*
X112573Y57527D01*
X112536Y57585D01*
X112501Y57645D01*
X112471Y57706D01*
X112443Y57769D01*
X112419Y57834D01*
X112399Y57900D01*
X112382Y57967D01*
X112369Y58034D01*
X112360Y58102D01*
X112354Y58171D01*
X112352Y58240D01*
X114679Y56222D02*
X114738Y56186D01*
X114794Y56146D01*
X114848Y56103D01*
X114900Y56058D01*
X114949Y56009D01*
X114995Y55958D01*
X115038Y55905D01*
X115079Y55849D01*
X115116Y55791D01*
X115151Y55731D01*
X115181Y55670D01*
X115209Y55607D01*
X115233Y55542D01*
X115253Y55476D01*
X115270Y55409D01*
X115283Y55342D01*
X115292Y55274D01*
X115298Y55205D01*
X115300Y55136D01*
X114680Y56222D02*
X112972Y57154D01*
X117694Y53894D02*
X120177Y53894D01*
X117694Y53894D02*
X117694Y59482D01*
X120177Y59482D01*
X119556Y56998D02*
X117694Y56998D01*
X123441Y59482D02*
X123441Y53894D01*
X121889Y59482D02*
X124993Y59482D01*
D11*
X312420Y22860D02*
X312420Y10160D01*
D10*
X308098Y148378D02*
X307167Y148378D01*
X308098Y148378D02*
X308098Y145274D01*
X306236Y145274D01*
X306166Y145276D01*
X306097Y145282D01*
X306028Y145292D01*
X305960Y145305D01*
X305892Y145323D01*
X305826Y145344D01*
X305761Y145369D01*
X305697Y145397D01*
X305635Y145429D01*
X305575Y145464D01*
X305517Y145503D01*
X305462Y145545D01*
X305408Y145590D01*
X305358Y145638D01*
X305310Y145688D01*
X305265Y145742D01*
X305223Y145797D01*
X305184Y145855D01*
X305149Y145915D01*
X305117Y145977D01*
X305089Y146041D01*
X305064Y146106D01*
X305043Y146172D01*
X305025Y146240D01*
X305012Y146308D01*
X305002Y146377D01*
X304996Y146446D01*
X304994Y146516D01*
X304994Y149620D01*
X304996Y149690D01*
X305002Y149759D01*
X305012Y149828D01*
X305025Y149896D01*
X305043Y149964D01*
X305064Y150030D01*
X305089Y150095D01*
X305117Y150159D01*
X305149Y150221D01*
X305184Y150281D01*
X305223Y150339D01*
X305265Y150394D01*
X305310Y150448D01*
X305358Y150498D01*
X305408Y150546D01*
X305462Y150591D01*
X305517Y150633D01*
X305575Y150672D01*
X305635Y150707D01*
X305697Y150739D01*
X305761Y150767D01*
X305826Y150792D01*
X305892Y150813D01*
X305960Y150831D01*
X306028Y150844D01*
X306097Y150854D01*
X306166Y150860D01*
X306236Y150862D01*
X308098Y150862D01*
X310846Y150862D02*
X310846Y145274D01*
X313951Y145274D02*
X310846Y150862D01*
X313951Y150862D02*
X313951Y145274D01*
X316698Y145274D02*
X316698Y150862D01*
X318250Y150862D01*
X318326Y150860D01*
X318402Y150855D01*
X318478Y150845D01*
X318553Y150832D01*
X318627Y150815D01*
X318701Y150795D01*
X318773Y150771D01*
X318844Y150744D01*
X318914Y150713D01*
X318982Y150679D01*
X319048Y150641D01*
X319112Y150600D01*
X319175Y150557D01*
X319235Y150510D01*
X319292Y150460D01*
X319347Y150407D01*
X319400Y150352D01*
X319450Y150295D01*
X319497Y150235D01*
X319540Y150172D01*
X319581Y150108D01*
X319619Y150042D01*
X319653Y149974D01*
X319684Y149904D01*
X319711Y149833D01*
X319735Y149760D01*
X319755Y149687D01*
X319772Y149613D01*
X319785Y149538D01*
X319795Y149462D01*
X319800Y149386D01*
X319802Y149310D01*
X319803Y149310D02*
X319803Y146826D01*
X319802Y146826D02*
X319800Y146747D01*
X319794Y146669D01*
X319784Y146591D01*
X319770Y146514D01*
X319752Y146437D01*
X319731Y146361D01*
X319705Y146287D01*
X319676Y146214D01*
X319643Y146143D01*
X319607Y146073D01*
X319567Y146005D01*
X319524Y145939D01*
X319477Y145876D01*
X319428Y145815D01*
X319375Y145757D01*
X319319Y145701D01*
X319261Y145648D01*
X319200Y145599D01*
X319137Y145552D01*
X319071Y145509D01*
X319003Y145469D01*
X318934Y145433D01*
X318862Y145400D01*
X318789Y145371D01*
X318715Y145345D01*
X318639Y145324D01*
X318562Y145306D01*
X318485Y145292D01*
X318407Y145282D01*
X318329Y145276D01*
X318250Y145274D01*
X316698Y145274D01*
X429706Y131074D02*
X429706Y129804D01*
X429706Y131074D02*
X429708Y131144D01*
X429714Y131214D01*
X429723Y131283D01*
X429737Y131352D01*
X429754Y131420D01*
X429775Y131486D01*
X429799Y131552D01*
X429827Y131616D01*
X429859Y131678D01*
X429894Y131739D01*
X429932Y131798D01*
X429974Y131854D01*
X430018Y131908D01*
X430066Y131960D01*
X430116Y132008D01*
X430169Y132054D01*
X430224Y132097D01*
X430281Y132137D01*
X430341Y132174D01*
X430403Y132207D01*
X430466Y132237D01*
X430531Y132263D01*
X430597Y132286D01*
X430664Y132305D01*
X430733Y132320D01*
X430802Y132332D01*
X430871Y132340D01*
X430941Y132344D01*
X431011Y132344D01*
X431081Y132340D01*
X431150Y132332D01*
X431219Y132320D01*
X431288Y132305D01*
X431355Y132286D01*
X431421Y132263D01*
X431486Y132237D01*
X431549Y132207D01*
X431611Y132174D01*
X431671Y132137D01*
X431728Y132097D01*
X431783Y132054D01*
X431836Y132008D01*
X431886Y131960D01*
X431934Y131908D01*
X431978Y131854D01*
X432020Y131798D01*
X432058Y131739D01*
X432093Y131678D01*
X432125Y131616D01*
X432153Y131552D01*
X432177Y131486D01*
X432198Y131420D01*
X432215Y131352D01*
X432229Y131283D01*
X432238Y131214D01*
X432244Y131144D01*
X432246Y131074D01*
X432246Y129804D01*
X427674Y129804D01*
X427674Y131074D01*
X427676Y131137D01*
X427682Y131199D01*
X427691Y131261D01*
X427705Y131322D01*
X427722Y131382D01*
X427743Y131441D01*
X427767Y131499D01*
X427795Y131555D01*
X427826Y131609D01*
X427861Y131661D01*
X427898Y131711D01*
X427939Y131758D01*
X427983Y131803D01*
X428029Y131846D01*
X428078Y131885D01*
X428129Y131921D01*
X428182Y131954D01*
X428237Y131983D01*
X428294Y132010D01*
X428352Y132032D01*
X428412Y132051D01*
X428473Y132066D01*
X428534Y132078D01*
X428596Y132086D01*
X428659Y132090D01*
X428721Y132090D01*
X428784Y132086D01*
X428846Y132078D01*
X428907Y132066D01*
X428968Y132051D01*
X429028Y132032D01*
X429086Y132010D01*
X429143Y131983D01*
X429198Y131954D01*
X429251Y131921D01*
X429302Y131885D01*
X429351Y131846D01*
X429397Y131803D01*
X429441Y131758D01*
X429482Y131711D01*
X429519Y131661D01*
X429554Y131609D01*
X429585Y131555D01*
X429613Y131499D01*
X429637Y131441D01*
X429658Y131382D01*
X429675Y131322D01*
X429689Y131261D01*
X429698Y131199D01*
X429704Y131137D01*
X429706Y131074D01*
X427674Y135113D02*
X432246Y135113D01*
X427674Y133843D02*
X427674Y136383D01*
X427674Y138262D02*
X432246Y138262D01*
X432246Y140802D02*
X427674Y138262D01*
X427674Y140802D02*
X432246Y140802D01*
X431865Y142910D02*
X431611Y142910D01*
X431611Y143164D01*
X431865Y143164D01*
X431865Y142910D01*
X429833Y142910D02*
X429579Y142910D01*
X429579Y143164D01*
X429833Y143164D01*
X429833Y142910D01*
X432246Y144866D02*
X427674Y146390D01*
X432246Y147914D01*
X431103Y147533D02*
X431103Y145247D01*
X430976Y149692D02*
X430906Y149694D01*
X430836Y149700D01*
X430767Y149709D01*
X430698Y149723D01*
X430630Y149740D01*
X430564Y149761D01*
X430498Y149785D01*
X430434Y149813D01*
X430372Y149845D01*
X430311Y149880D01*
X430252Y149918D01*
X430196Y149960D01*
X430142Y150004D01*
X430090Y150052D01*
X430042Y150102D01*
X429996Y150155D01*
X429953Y150210D01*
X429913Y150267D01*
X429876Y150327D01*
X429843Y150389D01*
X429813Y150452D01*
X429787Y150517D01*
X429764Y150583D01*
X429745Y150650D01*
X429730Y150719D01*
X429718Y150788D01*
X429710Y150857D01*
X429706Y150927D01*
X429706Y150997D01*
X429710Y151067D01*
X429718Y151136D01*
X429730Y151205D01*
X429745Y151274D01*
X429764Y151341D01*
X429787Y151407D01*
X429813Y151472D01*
X429843Y151535D01*
X429876Y151597D01*
X429913Y151657D01*
X429953Y151714D01*
X429996Y151769D01*
X430042Y151822D01*
X430090Y151872D01*
X430142Y151920D01*
X430196Y151964D01*
X430252Y152006D01*
X430311Y152044D01*
X430372Y152079D01*
X430434Y152111D01*
X430498Y152139D01*
X430564Y152163D01*
X430630Y152184D01*
X430698Y152201D01*
X430767Y152215D01*
X430836Y152224D01*
X430906Y152230D01*
X430976Y152232D01*
X431046Y152230D01*
X431116Y152224D01*
X431185Y152215D01*
X431254Y152201D01*
X431322Y152184D01*
X431388Y152163D01*
X431454Y152139D01*
X431518Y152111D01*
X431580Y152079D01*
X431641Y152044D01*
X431700Y152006D01*
X431756Y151964D01*
X431810Y151920D01*
X431862Y151872D01*
X431910Y151822D01*
X431956Y151769D01*
X431999Y151714D01*
X432039Y151657D01*
X432076Y151597D01*
X432109Y151535D01*
X432139Y151472D01*
X432165Y151407D01*
X432188Y151341D01*
X432207Y151274D01*
X432222Y151205D01*
X432234Y151136D01*
X432242Y151067D01*
X432246Y150997D01*
X432246Y150927D01*
X432242Y150857D01*
X432234Y150788D01*
X432222Y150719D01*
X432207Y150650D01*
X432188Y150583D01*
X432165Y150517D01*
X432139Y150452D01*
X432109Y150389D01*
X432076Y150327D01*
X432039Y150267D01*
X431999Y150210D01*
X431956Y150155D01*
X431910Y150102D01*
X431862Y150052D01*
X431810Y150004D01*
X431756Y149960D01*
X431700Y149918D01*
X431641Y149880D01*
X431580Y149845D01*
X431518Y149813D01*
X431454Y149785D01*
X431388Y149761D01*
X431322Y149740D01*
X431254Y149723D01*
X431185Y149709D01*
X431116Y149700D01*
X431046Y149694D01*
X430976Y149692D01*
X428690Y149946D02*
X428627Y149948D01*
X428565Y149954D01*
X428503Y149963D01*
X428442Y149977D01*
X428382Y149994D01*
X428323Y150015D01*
X428265Y150039D01*
X428209Y150067D01*
X428155Y150098D01*
X428103Y150133D01*
X428053Y150170D01*
X428006Y150211D01*
X427961Y150255D01*
X427918Y150301D01*
X427879Y150350D01*
X427843Y150401D01*
X427810Y150454D01*
X427781Y150509D01*
X427754Y150566D01*
X427732Y150624D01*
X427713Y150684D01*
X427698Y150745D01*
X427686Y150806D01*
X427678Y150868D01*
X427674Y150931D01*
X427674Y150993D01*
X427678Y151056D01*
X427686Y151118D01*
X427698Y151179D01*
X427713Y151240D01*
X427732Y151300D01*
X427754Y151358D01*
X427781Y151415D01*
X427810Y151470D01*
X427843Y151523D01*
X427879Y151574D01*
X427918Y151623D01*
X427961Y151669D01*
X428006Y151713D01*
X428053Y151754D01*
X428103Y151791D01*
X428155Y151826D01*
X428209Y151857D01*
X428265Y151885D01*
X428323Y151909D01*
X428382Y151930D01*
X428442Y151947D01*
X428503Y151961D01*
X428565Y151970D01*
X428627Y151976D01*
X428690Y151978D01*
X428753Y151976D01*
X428815Y151970D01*
X428877Y151961D01*
X428938Y151947D01*
X428998Y151930D01*
X429057Y151909D01*
X429115Y151885D01*
X429171Y151857D01*
X429225Y151826D01*
X429277Y151791D01*
X429327Y151754D01*
X429374Y151713D01*
X429419Y151669D01*
X429462Y151623D01*
X429501Y151574D01*
X429537Y151523D01*
X429570Y151470D01*
X429599Y151415D01*
X429626Y151358D01*
X429648Y151300D01*
X429667Y151240D01*
X429682Y151179D01*
X429694Y151118D01*
X429702Y151056D01*
X429706Y150993D01*
X429706Y150931D01*
X429702Y150868D01*
X429694Y150806D01*
X429682Y150745D01*
X429667Y150684D01*
X429648Y150624D01*
X429626Y150566D01*
X429599Y150509D01*
X429570Y150454D01*
X429537Y150401D01*
X429501Y150350D01*
X429462Y150301D01*
X429419Y150255D01*
X429374Y150211D01*
X429327Y150170D01*
X429277Y150133D01*
X429225Y150098D01*
X429171Y150067D01*
X429115Y150039D01*
X429057Y150015D01*
X428998Y149994D01*
X428938Y149977D01*
X428877Y149963D01*
X428815Y149954D01*
X428753Y149948D01*
X428690Y149946D01*
X72164Y49107D02*
X67818Y49107D01*
X72164Y49107D02*
X72234Y49105D01*
X72303Y49099D01*
X72372Y49089D01*
X72440Y49076D01*
X72508Y49058D01*
X72574Y49037D01*
X72639Y49012D01*
X72703Y48984D01*
X72765Y48952D01*
X72825Y48917D01*
X72883Y48878D01*
X72938Y48836D01*
X72992Y48791D01*
X73042Y48743D01*
X73090Y48693D01*
X73135Y48639D01*
X73177Y48584D01*
X73216Y48526D01*
X73251Y48466D01*
X73283Y48404D01*
X73311Y48340D01*
X73336Y48275D01*
X73357Y48209D01*
X73375Y48141D01*
X73388Y48073D01*
X73398Y48004D01*
X73404Y47935D01*
X73406Y47865D01*
X73406Y47244D01*
X73406Y51915D02*
X67818Y51915D01*
X67818Y53467D01*
X67820Y53544D01*
X67826Y53622D01*
X67835Y53698D01*
X67849Y53775D01*
X67866Y53850D01*
X67887Y53924D01*
X67912Y53998D01*
X67940Y54070D01*
X67972Y54140D01*
X68007Y54209D01*
X68046Y54276D01*
X68088Y54341D01*
X68133Y54404D01*
X68181Y54465D01*
X68232Y54523D01*
X68286Y54578D01*
X68343Y54631D01*
X68402Y54680D01*
X68464Y54727D01*
X68528Y54771D01*
X68594Y54811D01*
X68662Y54848D01*
X68732Y54882D01*
X68803Y54912D01*
X68876Y54938D01*
X68950Y54961D01*
X69025Y54980D01*
X69100Y54995D01*
X69177Y55007D01*
X69254Y55015D01*
X69331Y55019D01*
X69409Y55019D01*
X69486Y55015D01*
X69563Y55007D01*
X69640Y54995D01*
X69715Y54980D01*
X69790Y54961D01*
X69864Y54938D01*
X69937Y54912D01*
X70008Y54882D01*
X70078Y54848D01*
X70146Y54811D01*
X70212Y54771D01*
X70276Y54727D01*
X70338Y54680D01*
X70397Y54631D01*
X70454Y54578D01*
X70508Y54523D01*
X70559Y54465D01*
X70607Y54404D01*
X70652Y54341D01*
X70694Y54276D01*
X70733Y54209D01*
X70768Y54140D01*
X70800Y54070D01*
X70828Y53998D01*
X70853Y53924D01*
X70874Y53850D01*
X70891Y53775D01*
X70905Y53698D01*
X70914Y53622D01*
X70920Y53544D01*
X70922Y53467D01*
X70922Y51915D01*
X73406Y57135D02*
X73406Y58687D01*
X73404Y58764D01*
X73398Y58842D01*
X73389Y58918D01*
X73375Y58995D01*
X73358Y59070D01*
X73337Y59144D01*
X73312Y59218D01*
X73284Y59290D01*
X73252Y59360D01*
X73217Y59429D01*
X73178Y59496D01*
X73136Y59561D01*
X73091Y59624D01*
X73043Y59685D01*
X72992Y59743D01*
X72938Y59798D01*
X72881Y59851D01*
X72822Y59900D01*
X72760Y59947D01*
X72696Y59991D01*
X72630Y60031D01*
X72562Y60068D01*
X72492Y60102D01*
X72421Y60132D01*
X72348Y60158D01*
X72274Y60181D01*
X72199Y60200D01*
X72124Y60215D01*
X72047Y60227D01*
X71970Y60235D01*
X71893Y60239D01*
X71815Y60239D01*
X71738Y60235D01*
X71661Y60227D01*
X71584Y60215D01*
X71509Y60200D01*
X71434Y60181D01*
X71360Y60158D01*
X71287Y60132D01*
X71216Y60102D01*
X71146Y60068D01*
X71078Y60031D01*
X71012Y59991D01*
X70948Y59947D01*
X70886Y59900D01*
X70827Y59851D01*
X70770Y59798D01*
X70716Y59743D01*
X70665Y59685D01*
X70617Y59624D01*
X70572Y59561D01*
X70530Y59496D01*
X70491Y59429D01*
X70456Y59360D01*
X70424Y59290D01*
X70396Y59218D01*
X70371Y59144D01*
X70350Y59070D01*
X70333Y58995D01*
X70319Y58918D01*
X70310Y58842D01*
X70304Y58764D01*
X70302Y58687D01*
X67818Y58998D02*
X67818Y57135D01*
X67818Y58998D02*
X67820Y59068D01*
X67826Y59137D01*
X67836Y59206D01*
X67849Y59274D01*
X67867Y59342D01*
X67888Y59408D01*
X67913Y59473D01*
X67941Y59537D01*
X67973Y59599D01*
X68008Y59659D01*
X68047Y59717D01*
X68089Y59772D01*
X68134Y59826D01*
X68182Y59876D01*
X68232Y59924D01*
X68286Y59969D01*
X68341Y60011D01*
X68399Y60050D01*
X68459Y60085D01*
X68521Y60117D01*
X68585Y60145D01*
X68650Y60170D01*
X68716Y60191D01*
X68784Y60209D01*
X68852Y60222D01*
X68921Y60232D01*
X68990Y60238D01*
X69060Y60240D01*
X69130Y60238D01*
X69199Y60232D01*
X69268Y60222D01*
X69336Y60209D01*
X69404Y60191D01*
X69470Y60170D01*
X69535Y60145D01*
X69599Y60117D01*
X69661Y60085D01*
X69721Y60050D01*
X69779Y60011D01*
X69834Y59969D01*
X69888Y59924D01*
X69938Y59876D01*
X69986Y59826D01*
X70031Y59772D01*
X70073Y59717D01*
X70112Y59659D01*
X70147Y59599D01*
X70179Y59537D01*
X70207Y59473D01*
X70232Y59408D01*
X70253Y59342D01*
X70271Y59274D01*
X70284Y59206D01*
X70294Y59137D01*
X70300Y59068D01*
X70302Y58998D01*
X70302Y57756D01*
X265684Y50546D02*
X265684Y45974D01*
X267716Y45974D01*
X269646Y45974D02*
X271678Y45974D01*
X269646Y45974D02*
X269646Y50546D01*
X271678Y50546D01*
X271170Y48514D02*
X269646Y48514D01*
X273599Y50546D02*
X273599Y45974D01*
X273599Y50546D02*
X274869Y50546D01*
X274938Y50544D01*
X275006Y50539D01*
X275074Y50529D01*
X275142Y50516D01*
X275209Y50500D01*
X275275Y50480D01*
X275339Y50456D01*
X275402Y50429D01*
X275464Y50398D01*
X275524Y50364D01*
X275582Y50327D01*
X275638Y50287D01*
X275691Y50244D01*
X275742Y50198D01*
X275791Y50149D01*
X275837Y50098D01*
X275880Y50045D01*
X275920Y49989D01*
X275957Y49931D01*
X275991Y49871D01*
X276022Y49809D01*
X276049Y49746D01*
X276073Y49682D01*
X276093Y49616D01*
X276109Y49549D01*
X276122Y49481D01*
X276132Y49413D01*
X276137Y49345D01*
X276139Y49276D01*
X276139Y47244D01*
X276137Y47175D01*
X276132Y47107D01*
X276122Y47039D01*
X276109Y46971D01*
X276093Y46904D01*
X276073Y46838D01*
X276049Y46774D01*
X276022Y46711D01*
X275991Y46649D01*
X275957Y46589D01*
X275920Y46531D01*
X275880Y46475D01*
X275837Y46422D01*
X275791Y46371D01*
X275742Y46322D01*
X275691Y46276D01*
X275638Y46233D01*
X275582Y46193D01*
X275524Y46156D01*
X275464Y46122D01*
X275402Y46091D01*
X275339Y46064D01*
X275275Y46040D01*
X275209Y46020D01*
X275142Y46004D01*
X275074Y45991D01*
X275006Y45981D01*
X274938Y45976D01*
X274869Y45974D01*
X273599Y45974D01*
X278247Y46355D02*
X278247Y46609D01*
X278501Y46609D01*
X278501Y46355D01*
X278247Y46355D01*
X278247Y48387D02*
X278247Y48641D01*
X278501Y48641D01*
X278501Y48387D01*
X278247Y48387D01*
X280685Y48514D02*
X281955Y48514D01*
X282025Y48512D01*
X282095Y48506D01*
X282164Y48497D01*
X282233Y48483D01*
X282301Y48466D01*
X282367Y48445D01*
X282433Y48421D01*
X282497Y48393D01*
X282559Y48361D01*
X282620Y48326D01*
X282679Y48288D01*
X282735Y48246D01*
X282789Y48202D01*
X282841Y48154D01*
X282889Y48104D01*
X282935Y48051D01*
X282978Y47996D01*
X283018Y47939D01*
X283055Y47879D01*
X283088Y47817D01*
X283118Y47754D01*
X283144Y47689D01*
X283167Y47623D01*
X283186Y47556D01*
X283201Y47487D01*
X283213Y47418D01*
X283221Y47349D01*
X283225Y47279D01*
X283225Y47209D01*
X283221Y47139D01*
X283213Y47070D01*
X283201Y47001D01*
X283186Y46932D01*
X283167Y46865D01*
X283144Y46799D01*
X283118Y46734D01*
X283088Y46671D01*
X283055Y46609D01*
X283018Y46549D01*
X282978Y46492D01*
X282935Y46437D01*
X282889Y46384D01*
X282841Y46334D01*
X282789Y46286D01*
X282735Y46242D01*
X282679Y46200D01*
X282620Y46162D01*
X282559Y46127D01*
X282497Y46095D01*
X282433Y46067D01*
X282367Y46043D01*
X282301Y46022D01*
X282233Y46005D01*
X282164Y45991D01*
X282095Y45982D01*
X282025Y45976D01*
X281955Y45974D01*
X280685Y45974D01*
X280685Y50546D01*
X281955Y50546D01*
X282018Y50544D01*
X282080Y50538D01*
X282142Y50529D01*
X282203Y50515D01*
X282263Y50498D01*
X282322Y50477D01*
X282380Y50453D01*
X282436Y50425D01*
X282490Y50394D01*
X282542Y50359D01*
X282592Y50322D01*
X282639Y50281D01*
X282684Y50237D01*
X282727Y50191D01*
X282766Y50142D01*
X282802Y50091D01*
X282835Y50038D01*
X282864Y49983D01*
X282891Y49926D01*
X282913Y49868D01*
X282932Y49808D01*
X282947Y49747D01*
X282959Y49686D01*
X282967Y49624D01*
X282971Y49561D01*
X282971Y49499D01*
X282967Y49436D01*
X282959Y49374D01*
X282947Y49313D01*
X282932Y49252D01*
X282913Y49192D01*
X282891Y49134D01*
X282864Y49077D01*
X282835Y49022D01*
X282802Y48969D01*
X282766Y48918D01*
X282727Y48869D01*
X282684Y48823D01*
X282639Y48779D01*
X282592Y48738D01*
X282542Y48701D01*
X282490Y48666D01*
X282436Y48635D01*
X282380Y48607D01*
X282322Y48583D01*
X282263Y48562D01*
X282203Y48545D01*
X282142Y48531D01*
X282080Y48522D01*
X282018Y48516D01*
X281955Y48514D01*
X285028Y45974D02*
X286552Y45974D01*
X286613Y45976D01*
X286674Y45981D01*
X286735Y45991D01*
X286795Y46004D01*
X286854Y46020D01*
X286912Y46040D01*
X286969Y46064D01*
X287024Y46090D01*
X287078Y46121D01*
X287129Y46154D01*
X287179Y46190D01*
X287226Y46230D01*
X287270Y46272D01*
X287312Y46316D01*
X287352Y46363D01*
X287388Y46413D01*
X287421Y46464D01*
X287452Y46518D01*
X287478Y46573D01*
X287502Y46630D01*
X287522Y46688D01*
X287538Y46747D01*
X287551Y46807D01*
X287561Y46868D01*
X287566Y46929D01*
X287568Y46990D01*
X287568Y47498D01*
X287566Y47559D01*
X287561Y47620D01*
X287551Y47681D01*
X287538Y47741D01*
X287522Y47800D01*
X287502Y47858D01*
X287478Y47915D01*
X287452Y47970D01*
X287421Y48024D01*
X287388Y48075D01*
X287352Y48125D01*
X287312Y48172D01*
X287270Y48216D01*
X287226Y48258D01*
X287179Y48298D01*
X287129Y48334D01*
X287078Y48367D01*
X287024Y48398D01*
X286969Y48424D01*
X286912Y48448D01*
X286854Y48468D01*
X286795Y48484D01*
X286735Y48497D01*
X286674Y48507D01*
X286613Y48512D01*
X286552Y48514D01*
X285028Y48514D01*
X285028Y50546D01*
X287568Y50546D01*
X400058Y25084D02*
X401328Y25084D01*
X401398Y25086D01*
X401468Y25092D01*
X401537Y25101D01*
X401606Y25115D01*
X401674Y25132D01*
X401740Y25153D01*
X401806Y25177D01*
X401870Y25205D01*
X401932Y25237D01*
X401993Y25272D01*
X402052Y25310D01*
X402108Y25352D01*
X402162Y25396D01*
X402214Y25444D01*
X402262Y25494D01*
X402308Y25547D01*
X402351Y25602D01*
X402391Y25659D01*
X402428Y25719D01*
X402461Y25781D01*
X402491Y25844D01*
X402517Y25909D01*
X402540Y25975D01*
X402559Y26042D01*
X402574Y26111D01*
X402586Y26180D01*
X402594Y26249D01*
X402598Y26319D01*
X402598Y26389D01*
X402594Y26459D01*
X402586Y26528D01*
X402574Y26597D01*
X402559Y26666D01*
X402540Y26733D01*
X402517Y26799D01*
X402491Y26864D01*
X402461Y26927D01*
X402428Y26989D01*
X402391Y27049D01*
X402351Y27106D01*
X402308Y27161D01*
X402262Y27214D01*
X402214Y27264D01*
X402162Y27312D01*
X402108Y27356D01*
X402052Y27398D01*
X401993Y27436D01*
X401932Y27471D01*
X401870Y27503D01*
X401806Y27531D01*
X401740Y27555D01*
X401674Y27576D01*
X401606Y27593D01*
X401537Y27607D01*
X401468Y27616D01*
X401398Y27622D01*
X401328Y27624D01*
X401582Y29656D02*
X400058Y29656D01*
X401582Y29656D02*
X401645Y29654D01*
X401707Y29648D01*
X401769Y29639D01*
X401830Y29625D01*
X401890Y29608D01*
X401949Y29587D01*
X402007Y29563D01*
X402063Y29535D01*
X402117Y29504D01*
X402169Y29469D01*
X402219Y29432D01*
X402266Y29391D01*
X402311Y29347D01*
X402354Y29301D01*
X402393Y29252D01*
X402429Y29201D01*
X402462Y29148D01*
X402491Y29093D01*
X402518Y29036D01*
X402540Y28978D01*
X402559Y28918D01*
X402574Y28857D01*
X402586Y28796D01*
X402594Y28734D01*
X402598Y28671D01*
X402598Y28609D01*
X402594Y28546D01*
X402586Y28484D01*
X402574Y28423D01*
X402559Y28362D01*
X402540Y28302D01*
X402518Y28244D01*
X402491Y28187D01*
X402462Y28132D01*
X402429Y28079D01*
X402393Y28028D01*
X402354Y27979D01*
X402311Y27933D01*
X402266Y27889D01*
X402219Y27848D01*
X402169Y27811D01*
X402117Y27776D01*
X402063Y27745D01*
X402007Y27717D01*
X401949Y27693D01*
X401890Y27672D01*
X401830Y27655D01*
X401769Y27641D01*
X401707Y27632D01*
X401645Y27626D01*
X401582Y27624D01*
X400566Y27624D01*
X404376Y29656D02*
X405900Y25084D01*
X407424Y29656D01*
X409202Y25084D02*
X410472Y25084D01*
X410542Y25086D01*
X410612Y25092D01*
X410681Y25101D01*
X410750Y25115D01*
X410818Y25132D01*
X410884Y25153D01*
X410950Y25177D01*
X411014Y25205D01*
X411076Y25237D01*
X411137Y25272D01*
X411196Y25310D01*
X411252Y25352D01*
X411306Y25396D01*
X411358Y25444D01*
X411406Y25494D01*
X411452Y25547D01*
X411495Y25602D01*
X411535Y25659D01*
X411572Y25719D01*
X411605Y25781D01*
X411635Y25844D01*
X411661Y25909D01*
X411684Y25975D01*
X411703Y26042D01*
X411718Y26111D01*
X411730Y26180D01*
X411738Y26249D01*
X411742Y26319D01*
X411742Y26389D01*
X411738Y26459D01*
X411730Y26528D01*
X411718Y26597D01*
X411703Y26666D01*
X411684Y26733D01*
X411661Y26799D01*
X411635Y26864D01*
X411605Y26927D01*
X411572Y26989D01*
X411535Y27049D01*
X411495Y27106D01*
X411452Y27161D01*
X411406Y27214D01*
X411358Y27264D01*
X411306Y27312D01*
X411252Y27356D01*
X411196Y27398D01*
X411137Y27436D01*
X411076Y27471D01*
X411014Y27503D01*
X410950Y27531D01*
X410884Y27555D01*
X410818Y27576D01*
X410750Y27593D01*
X410681Y27607D01*
X410612Y27616D01*
X410542Y27622D01*
X410472Y27624D01*
X410726Y29656D02*
X409202Y29656D01*
X410726Y29656D02*
X410789Y29654D01*
X410851Y29648D01*
X410913Y29639D01*
X410974Y29625D01*
X411034Y29608D01*
X411093Y29587D01*
X411151Y29563D01*
X411207Y29535D01*
X411261Y29504D01*
X411313Y29469D01*
X411363Y29432D01*
X411410Y29391D01*
X411455Y29347D01*
X411498Y29301D01*
X411537Y29252D01*
X411573Y29201D01*
X411606Y29148D01*
X411635Y29093D01*
X411662Y29036D01*
X411684Y28978D01*
X411703Y28918D01*
X411718Y28857D01*
X411730Y28796D01*
X411738Y28734D01*
X411742Y28671D01*
X411742Y28609D01*
X411738Y28546D01*
X411730Y28484D01*
X411718Y28423D01*
X411703Y28362D01*
X411684Y28302D01*
X411662Y28244D01*
X411635Y28187D01*
X411606Y28132D01*
X411573Y28079D01*
X411537Y28028D01*
X411498Y27979D01*
X411455Y27933D01*
X411410Y27889D01*
X411363Y27848D01*
X411313Y27811D01*
X411261Y27776D01*
X411207Y27745D01*
X411151Y27717D01*
X411093Y27693D01*
X411034Y27672D01*
X410974Y27655D01*
X410913Y27641D01*
X410851Y27632D01*
X410789Y27626D01*
X410726Y27624D01*
X409710Y27624D01*
X413698Y25719D02*
X413698Y25465D01*
X413698Y25719D02*
X413952Y25719D01*
X413952Y25465D01*
X413698Y25465D01*
X413698Y27497D02*
X413698Y27751D01*
X413952Y27751D01*
X413952Y27497D01*
X413698Y27497D01*
X416136Y29656D02*
X416136Y25084D01*
X416136Y29656D02*
X417406Y29656D01*
X417476Y29654D01*
X417546Y29648D01*
X417615Y29639D01*
X417684Y29625D01*
X417752Y29608D01*
X417818Y29587D01*
X417884Y29563D01*
X417948Y29535D01*
X418010Y29503D01*
X418071Y29468D01*
X418130Y29430D01*
X418186Y29388D01*
X418240Y29344D01*
X418292Y29296D01*
X418340Y29246D01*
X418386Y29193D01*
X418429Y29138D01*
X418469Y29081D01*
X418506Y29021D01*
X418539Y28959D01*
X418569Y28896D01*
X418595Y28831D01*
X418618Y28765D01*
X418637Y28698D01*
X418652Y28629D01*
X418664Y28560D01*
X418672Y28491D01*
X418676Y28421D01*
X418676Y28351D01*
X418672Y28281D01*
X418664Y28212D01*
X418652Y28143D01*
X418637Y28074D01*
X418618Y28007D01*
X418595Y27941D01*
X418569Y27876D01*
X418539Y27813D01*
X418506Y27751D01*
X418469Y27691D01*
X418429Y27634D01*
X418386Y27579D01*
X418340Y27526D01*
X418292Y27476D01*
X418240Y27428D01*
X418186Y27384D01*
X418130Y27342D01*
X418071Y27304D01*
X418010Y27269D01*
X417948Y27237D01*
X417884Y27209D01*
X417818Y27185D01*
X417752Y27164D01*
X417684Y27147D01*
X417615Y27133D01*
X417546Y27124D01*
X417476Y27118D01*
X417406Y27116D01*
X416136Y27116D01*
X420327Y29656D02*
X421343Y25084D01*
X422359Y28132D01*
X423375Y25084D01*
X424391Y29656D01*
X426456Y29656D02*
X426456Y25084D01*
X426456Y29656D02*
X427726Y29656D01*
X427796Y29654D01*
X427866Y29648D01*
X427935Y29639D01*
X428004Y29625D01*
X428072Y29608D01*
X428138Y29587D01*
X428204Y29563D01*
X428268Y29535D01*
X428330Y29503D01*
X428391Y29468D01*
X428450Y29430D01*
X428506Y29388D01*
X428560Y29344D01*
X428612Y29296D01*
X428660Y29246D01*
X428706Y29193D01*
X428749Y29138D01*
X428789Y29081D01*
X428826Y29021D01*
X428859Y28959D01*
X428889Y28896D01*
X428915Y28831D01*
X428938Y28765D01*
X428957Y28698D01*
X428972Y28629D01*
X428984Y28560D01*
X428992Y28491D01*
X428996Y28421D01*
X428996Y28351D01*
X428992Y28281D01*
X428984Y28212D01*
X428972Y28143D01*
X428957Y28074D01*
X428938Y28007D01*
X428915Y27941D01*
X428889Y27876D01*
X428859Y27813D01*
X428826Y27751D01*
X428789Y27691D01*
X428749Y27634D01*
X428706Y27579D01*
X428660Y27526D01*
X428612Y27476D01*
X428560Y27428D01*
X428506Y27384D01*
X428450Y27342D01*
X428391Y27304D01*
X428330Y27269D01*
X428268Y27237D01*
X428204Y27209D01*
X428138Y27185D01*
X428072Y27164D01*
X428004Y27147D01*
X427935Y27133D01*
X427866Y27124D01*
X427796Y27118D01*
X427726Y27116D01*
X426456Y27116D01*
X427980Y27116D02*
X428996Y25084D01*
D12*
X114300Y82550D02*
X114300Y85090D01*
X114300Y86360D01*
X114300Y87630D02*
X114300Y88900D01*
X120650Y82550D01*
X119380Y82550D01*
X114300Y87630D01*
X114300Y86360D01*
X118110Y82550D01*
X116840Y82550D01*
X115570Y83820D01*
X114300Y85090D01*
X115570Y83820D02*
X115570Y82550D01*
D11*
X73900Y63980D02*
X73802Y63982D01*
X73704Y63988D01*
X73606Y63997D01*
X73509Y64011D01*
X73412Y64028D01*
X73316Y64049D01*
X73221Y64074D01*
X73127Y64102D01*
X73035Y64135D01*
X72943Y64170D01*
X72853Y64210D01*
X72765Y64252D01*
X72678Y64299D01*
X72594Y64348D01*
X72511Y64401D01*
X72431Y64457D01*
X72352Y64517D01*
X72276Y64579D01*
X72203Y64644D01*
X72132Y64712D01*
X72064Y64783D01*
X71999Y64856D01*
X71937Y64932D01*
X71877Y65011D01*
X71821Y65091D01*
X71768Y65174D01*
X71719Y65258D01*
X71672Y65345D01*
X71630Y65433D01*
X71590Y65523D01*
X71555Y65615D01*
X71522Y65707D01*
X71494Y65801D01*
X71469Y65896D01*
X71448Y65992D01*
X71431Y66089D01*
X71417Y66186D01*
X71408Y66284D01*
X71402Y66382D01*
X71400Y66480D01*
X71400Y121480D01*
X71402Y121578D01*
X71408Y121676D01*
X71417Y121774D01*
X71431Y121871D01*
X71448Y121968D01*
X71469Y122064D01*
X71494Y122159D01*
X71522Y122253D01*
X71555Y122345D01*
X71590Y122437D01*
X71630Y122527D01*
X71672Y122615D01*
X71719Y122702D01*
X71768Y122786D01*
X71821Y122869D01*
X71877Y122949D01*
X71937Y123028D01*
X71999Y123104D01*
X72064Y123177D01*
X72132Y123248D01*
X72203Y123316D01*
X72276Y123381D01*
X72352Y123443D01*
X72431Y123503D01*
X72511Y123559D01*
X72594Y123612D01*
X72678Y123661D01*
X72765Y123708D01*
X72853Y123750D01*
X72943Y123790D01*
X73035Y123825D01*
X73127Y123858D01*
X73221Y123886D01*
X73316Y123911D01*
X73412Y123932D01*
X73509Y123949D01*
X73606Y123963D01*
X73704Y123972D01*
X73802Y123978D01*
X73900Y123980D01*
X103900Y123980D02*
X103998Y123978D01*
X104096Y123972D01*
X104194Y123963D01*
X104291Y123949D01*
X104388Y123932D01*
X104484Y123911D01*
X104579Y123886D01*
X104673Y123858D01*
X104765Y123825D01*
X104857Y123790D01*
X104947Y123750D01*
X105035Y123708D01*
X105122Y123661D01*
X105206Y123612D01*
X105289Y123559D01*
X105369Y123503D01*
X105448Y123443D01*
X105524Y123381D01*
X105597Y123316D01*
X105668Y123248D01*
X105736Y123177D01*
X105801Y123104D01*
X105863Y123028D01*
X105923Y122949D01*
X105979Y122869D01*
X106032Y122786D01*
X106081Y122702D01*
X106128Y122615D01*
X106170Y122527D01*
X106210Y122437D01*
X106245Y122345D01*
X106278Y122253D01*
X106306Y122159D01*
X106331Y122064D01*
X106352Y121968D01*
X106369Y121871D01*
X106383Y121774D01*
X106392Y121676D01*
X106398Y121578D01*
X106400Y121480D01*
X106400Y66480D01*
X106398Y66382D01*
X106392Y66284D01*
X106383Y66186D01*
X106369Y66089D01*
X106352Y65992D01*
X106331Y65896D01*
X106306Y65801D01*
X106278Y65707D01*
X106245Y65615D01*
X106210Y65523D01*
X106170Y65433D01*
X106128Y65345D01*
X106081Y65258D01*
X106032Y65174D01*
X105979Y65091D01*
X105923Y65011D01*
X105863Y64932D01*
X105801Y64856D01*
X105736Y64783D01*
X105668Y64712D01*
X105597Y64644D01*
X105524Y64579D01*
X105448Y64517D01*
X105369Y64457D01*
X105289Y64401D01*
X105206Y64348D01*
X105122Y64299D01*
X105035Y64252D01*
X104947Y64210D01*
X104857Y64170D01*
X104765Y64135D01*
X104673Y64102D01*
X104579Y64074D01*
X104484Y64049D01*
X104388Y64028D01*
X104291Y64011D01*
X104194Y63997D01*
X104096Y63988D01*
X103998Y63982D01*
X103900Y63980D01*
X99900Y63980D01*
X77900Y63980D02*
X73900Y63980D01*
X73900Y123980D02*
X77900Y123980D01*
X99900Y123980D02*
X103900Y123980D01*
X81400Y108980D02*
X81400Y78980D01*
X96400Y78980D02*
X96400Y108980D01*
X96400Y78980D02*
X81400Y78980D01*
X81400Y108980D02*
X96400Y108980D01*
D13*
X413710Y13740D02*
X415460Y15490D01*
X413710Y13740D02*
X412210Y15240D01*
X413960Y16990D01*
X415460Y15490D01*
D14*
X416460Y11240D03*
D11*
X392410Y49630D02*
X371410Y49630D01*
X346410Y56630D02*
X346410Y65630D01*
X346410Y109630D02*
X346410Y118630D01*
X371410Y125630D02*
X392410Y125630D01*
D12*
X318690Y108311D02*
X268690Y108311D01*
X268690Y76311D01*
X318690Y76311D01*
X318690Y108311D01*
X312690Y102311D02*
X312692Y102374D01*
X312698Y102436D01*
X312708Y102498D01*
X312721Y102560D01*
X312739Y102620D01*
X312760Y102679D01*
X312785Y102737D01*
X312814Y102793D01*
X312846Y102847D01*
X312881Y102899D01*
X312919Y102948D01*
X312961Y102996D01*
X313005Y103040D01*
X313053Y103082D01*
X313102Y103120D01*
X313154Y103155D01*
X313208Y103187D01*
X313264Y103216D01*
X313322Y103241D01*
X313381Y103262D01*
X313441Y103280D01*
X313503Y103293D01*
X313565Y103303D01*
X313627Y103309D01*
X313690Y103311D01*
X313753Y103309D01*
X313815Y103303D01*
X313877Y103293D01*
X313939Y103280D01*
X313999Y103262D01*
X314058Y103241D01*
X314116Y103216D01*
X314172Y103187D01*
X314226Y103155D01*
X314278Y103120D01*
X314327Y103082D01*
X314375Y103040D01*
X314419Y102996D01*
X314461Y102948D01*
X314499Y102899D01*
X314534Y102847D01*
X314566Y102793D01*
X314595Y102737D01*
X314620Y102679D01*
X314641Y102620D01*
X314659Y102560D01*
X314672Y102498D01*
X314682Y102436D01*
X314688Y102374D01*
X314690Y102311D01*
X314688Y102248D01*
X314682Y102186D01*
X314672Y102124D01*
X314659Y102062D01*
X314641Y102002D01*
X314620Y101943D01*
X314595Y101885D01*
X314566Y101829D01*
X314534Y101775D01*
X314499Y101723D01*
X314461Y101674D01*
X314419Y101626D01*
X314375Y101582D01*
X314327Y101540D01*
X314278Y101502D01*
X314226Y101467D01*
X314172Y101435D01*
X314116Y101406D01*
X314058Y101381D01*
X313999Y101360D01*
X313939Y101342D01*
X313877Y101329D01*
X313815Y101319D01*
X313753Y101313D01*
X313690Y101311D01*
X313627Y101313D01*
X313565Y101319D01*
X313503Y101329D01*
X313441Y101342D01*
X313381Y101360D01*
X313322Y101381D01*
X313264Y101406D01*
X313208Y101435D01*
X313154Y101467D01*
X313102Y101502D01*
X313053Y101540D01*
X313005Y101582D01*
X312961Y101626D01*
X312919Y101674D01*
X312881Y101723D01*
X312846Y101775D01*
X312814Y101829D01*
X312785Y101885D01*
X312760Y101943D01*
X312739Y102002D01*
X312721Y102062D01*
X312708Y102124D01*
X312698Y102186D01*
X312692Y102248D01*
X312690Y102311D01*
D15*
X211836Y129540D02*
X194564Y129540D01*
X192024Y111760D02*
X192026Y111660D01*
X192032Y111561D01*
X192042Y111461D01*
X192055Y111363D01*
X192073Y111264D01*
X192094Y111167D01*
X192119Y111071D01*
X192148Y110975D01*
X192181Y110881D01*
X192217Y110788D01*
X192257Y110697D01*
X192301Y110607D01*
X192348Y110519D01*
X192398Y110433D01*
X192452Y110349D01*
X192509Y110267D01*
X192569Y110188D01*
X192633Y110110D01*
X192699Y110036D01*
X192768Y109964D01*
X192840Y109895D01*
X192914Y109829D01*
X192992Y109765D01*
X193071Y109705D01*
X193153Y109648D01*
X193237Y109594D01*
X193323Y109544D01*
X193411Y109497D01*
X193501Y109453D01*
X193592Y109413D01*
X193685Y109377D01*
X193779Y109344D01*
X193875Y109315D01*
X193971Y109290D01*
X194068Y109269D01*
X194167Y109251D01*
X194265Y109238D01*
X194365Y109228D01*
X194464Y109222D01*
X194564Y109220D01*
X211836Y109220D02*
X211936Y109222D01*
X212035Y109228D01*
X212135Y109238D01*
X212233Y109251D01*
X212332Y109269D01*
X212429Y109290D01*
X212525Y109315D01*
X212621Y109344D01*
X212715Y109377D01*
X212808Y109413D01*
X212899Y109453D01*
X212989Y109497D01*
X213077Y109544D01*
X213163Y109594D01*
X213247Y109648D01*
X213329Y109705D01*
X213408Y109765D01*
X213486Y109829D01*
X213560Y109895D01*
X213632Y109964D01*
X213701Y110036D01*
X213767Y110110D01*
X213831Y110188D01*
X213891Y110267D01*
X213948Y110349D01*
X214002Y110433D01*
X214052Y110519D01*
X214099Y110607D01*
X214143Y110697D01*
X214183Y110788D01*
X214219Y110881D01*
X214252Y110975D01*
X214281Y111071D01*
X214306Y111167D01*
X214327Y111264D01*
X214345Y111363D01*
X214358Y111461D01*
X214368Y111561D01*
X214374Y111660D01*
X214376Y111760D01*
X214376Y127000D02*
X214374Y127100D01*
X214368Y127199D01*
X214358Y127299D01*
X214345Y127397D01*
X214327Y127496D01*
X214306Y127593D01*
X214281Y127689D01*
X214252Y127785D01*
X214219Y127879D01*
X214183Y127972D01*
X214143Y128063D01*
X214099Y128153D01*
X214052Y128241D01*
X214002Y128327D01*
X213948Y128411D01*
X213891Y128493D01*
X213831Y128572D01*
X213767Y128650D01*
X213701Y128724D01*
X213632Y128796D01*
X213560Y128865D01*
X213486Y128931D01*
X213408Y128995D01*
X213329Y129055D01*
X213247Y129112D01*
X213163Y129166D01*
X213077Y129216D01*
X212989Y129263D01*
X212899Y129307D01*
X212808Y129347D01*
X212715Y129383D01*
X212621Y129416D01*
X212525Y129445D01*
X212429Y129470D01*
X212332Y129491D01*
X212233Y129509D01*
X212135Y129522D01*
X212035Y129532D01*
X211936Y129538D01*
X211836Y129540D01*
X194564Y129540D02*
X194464Y129538D01*
X194365Y129532D01*
X194265Y129522D01*
X194167Y129509D01*
X194068Y129491D01*
X193971Y129470D01*
X193875Y129445D01*
X193779Y129416D01*
X193685Y129383D01*
X193592Y129347D01*
X193501Y129307D01*
X193411Y129263D01*
X193323Y129216D01*
X193237Y129166D01*
X193153Y129112D01*
X193071Y129055D01*
X192992Y128995D01*
X192914Y128931D01*
X192840Y128865D01*
X192768Y128796D01*
X192699Y128724D01*
X192633Y128650D01*
X192569Y128572D01*
X192509Y128493D01*
X192452Y128411D01*
X192398Y128327D01*
X192348Y128241D01*
X192301Y128153D01*
X192257Y128063D01*
X192217Y127972D01*
X192181Y127879D01*
X192148Y127785D01*
X192119Y127689D01*
X192094Y127593D01*
X192073Y127496D01*
X192055Y127397D01*
X192042Y127299D01*
X192032Y127199D01*
X192026Y127100D01*
X192024Y127000D01*
X192024Y111760D01*
X214376Y111760D02*
X214376Y127000D01*
X211836Y109220D02*
X194564Y109220D01*
D10*
X217424Y114745D02*
X221770Y114745D01*
X221840Y114743D01*
X221909Y114737D01*
X221978Y114727D01*
X222046Y114714D01*
X222114Y114696D01*
X222180Y114675D01*
X222245Y114650D01*
X222309Y114622D01*
X222371Y114590D01*
X222431Y114555D01*
X222489Y114516D01*
X222544Y114474D01*
X222598Y114429D01*
X222648Y114381D01*
X222696Y114331D01*
X222741Y114277D01*
X222783Y114222D01*
X222822Y114164D01*
X222857Y114104D01*
X222889Y114042D01*
X222917Y113978D01*
X222942Y113913D01*
X222963Y113847D01*
X222981Y113779D01*
X222994Y113711D01*
X223004Y113642D01*
X223010Y113573D01*
X223012Y113503D01*
X223012Y112882D01*
X223012Y117553D02*
X217424Y117553D01*
X217424Y119105D01*
X217426Y119182D01*
X217432Y119260D01*
X217441Y119336D01*
X217455Y119413D01*
X217472Y119488D01*
X217493Y119562D01*
X217518Y119636D01*
X217546Y119708D01*
X217578Y119778D01*
X217613Y119847D01*
X217652Y119914D01*
X217694Y119979D01*
X217739Y120042D01*
X217787Y120103D01*
X217838Y120161D01*
X217892Y120216D01*
X217949Y120269D01*
X218008Y120318D01*
X218070Y120365D01*
X218134Y120409D01*
X218200Y120449D01*
X218268Y120486D01*
X218338Y120520D01*
X218409Y120550D01*
X218482Y120576D01*
X218556Y120599D01*
X218631Y120618D01*
X218706Y120633D01*
X218783Y120645D01*
X218860Y120653D01*
X218937Y120657D01*
X219015Y120657D01*
X219092Y120653D01*
X219169Y120645D01*
X219246Y120633D01*
X219321Y120618D01*
X219396Y120599D01*
X219470Y120576D01*
X219543Y120550D01*
X219614Y120520D01*
X219684Y120486D01*
X219752Y120449D01*
X219818Y120409D01*
X219882Y120365D01*
X219944Y120318D01*
X220003Y120269D01*
X220060Y120216D01*
X220114Y120161D01*
X220165Y120103D01*
X220213Y120042D01*
X220258Y119979D01*
X220300Y119914D01*
X220339Y119847D01*
X220374Y119778D01*
X220406Y119708D01*
X220434Y119636D01*
X220459Y119562D01*
X220480Y119488D01*
X220497Y119413D01*
X220511Y119336D01*
X220520Y119260D01*
X220526Y119182D01*
X220528Y119105D01*
X220528Y117553D01*
X218666Y122773D02*
X217424Y124326D01*
X223012Y124326D01*
X223012Y125878D02*
X223012Y122773D01*
D15*
X211836Y101600D02*
X194564Y101600D01*
X192024Y83820D02*
X192026Y83720D01*
X192032Y83621D01*
X192042Y83521D01*
X192055Y83423D01*
X192073Y83324D01*
X192094Y83227D01*
X192119Y83131D01*
X192148Y83035D01*
X192181Y82941D01*
X192217Y82848D01*
X192257Y82757D01*
X192301Y82667D01*
X192348Y82579D01*
X192398Y82493D01*
X192452Y82409D01*
X192509Y82327D01*
X192569Y82248D01*
X192633Y82170D01*
X192699Y82096D01*
X192768Y82024D01*
X192840Y81955D01*
X192914Y81889D01*
X192992Y81825D01*
X193071Y81765D01*
X193153Y81708D01*
X193237Y81654D01*
X193323Y81604D01*
X193411Y81557D01*
X193501Y81513D01*
X193592Y81473D01*
X193685Y81437D01*
X193779Y81404D01*
X193875Y81375D01*
X193971Y81350D01*
X194068Y81329D01*
X194167Y81311D01*
X194265Y81298D01*
X194365Y81288D01*
X194464Y81282D01*
X194564Y81280D01*
X211836Y81280D02*
X211936Y81282D01*
X212035Y81288D01*
X212135Y81298D01*
X212233Y81311D01*
X212332Y81329D01*
X212429Y81350D01*
X212525Y81375D01*
X212621Y81404D01*
X212715Y81437D01*
X212808Y81473D01*
X212899Y81513D01*
X212989Y81557D01*
X213077Y81604D01*
X213163Y81654D01*
X213247Y81708D01*
X213329Y81765D01*
X213408Y81825D01*
X213486Y81889D01*
X213560Y81955D01*
X213632Y82024D01*
X213701Y82096D01*
X213767Y82170D01*
X213831Y82248D01*
X213891Y82327D01*
X213948Y82409D01*
X214002Y82493D01*
X214052Y82579D01*
X214099Y82667D01*
X214143Y82757D01*
X214183Y82848D01*
X214219Y82941D01*
X214252Y83035D01*
X214281Y83131D01*
X214306Y83227D01*
X214327Y83324D01*
X214345Y83423D01*
X214358Y83521D01*
X214368Y83621D01*
X214374Y83720D01*
X214376Y83820D01*
X214376Y99060D02*
X214374Y99160D01*
X214368Y99259D01*
X214358Y99359D01*
X214345Y99457D01*
X214327Y99556D01*
X214306Y99653D01*
X214281Y99749D01*
X214252Y99845D01*
X214219Y99939D01*
X214183Y100032D01*
X214143Y100123D01*
X214099Y100213D01*
X214052Y100301D01*
X214002Y100387D01*
X213948Y100471D01*
X213891Y100553D01*
X213831Y100632D01*
X213767Y100710D01*
X213701Y100784D01*
X213632Y100856D01*
X213560Y100925D01*
X213486Y100991D01*
X213408Y101055D01*
X213329Y101115D01*
X213247Y101172D01*
X213163Y101226D01*
X213077Y101276D01*
X212989Y101323D01*
X212899Y101367D01*
X212808Y101407D01*
X212715Y101443D01*
X212621Y101476D01*
X212525Y101505D01*
X212429Y101530D01*
X212332Y101551D01*
X212233Y101569D01*
X212135Y101582D01*
X212035Y101592D01*
X211936Y101598D01*
X211836Y101600D01*
X194564Y101600D02*
X194464Y101598D01*
X194365Y101592D01*
X194265Y101582D01*
X194167Y101569D01*
X194068Y101551D01*
X193971Y101530D01*
X193875Y101505D01*
X193779Y101476D01*
X193685Y101443D01*
X193592Y101407D01*
X193501Y101367D01*
X193411Y101323D01*
X193323Y101276D01*
X193237Y101226D01*
X193153Y101172D01*
X193071Y101115D01*
X192992Y101055D01*
X192914Y100991D01*
X192840Y100925D01*
X192768Y100856D01*
X192699Y100784D01*
X192633Y100710D01*
X192569Y100632D01*
X192509Y100553D01*
X192452Y100471D01*
X192398Y100387D01*
X192348Y100301D01*
X192301Y100213D01*
X192257Y100123D01*
X192217Y100032D01*
X192181Y99939D01*
X192148Y99845D01*
X192119Y99749D01*
X192094Y99653D01*
X192073Y99556D01*
X192055Y99457D01*
X192042Y99359D01*
X192032Y99259D01*
X192026Y99160D01*
X192024Y99060D01*
X192024Y83820D01*
X214376Y83820D02*
X214376Y99060D01*
X211836Y81280D02*
X194564Y81280D01*
D10*
X217424Y86805D02*
X221770Y86805D01*
X221840Y86803D01*
X221909Y86797D01*
X221978Y86787D01*
X222046Y86774D01*
X222114Y86756D01*
X222180Y86735D01*
X222245Y86710D01*
X222309Y86682D01*
X222371Y86650D01*
X222431Y86615D01*
X222489Y86576D01*
X222544Y86534D01*
X222598Y86489D01*
X222648Y86441D01*
X222696Y86391D01*
X222741Y86337D01*
X222783Y86282D01*
X222822Y86224D01*
X222857Y86164D01*
X222889Y86102D01*
X222917Y86038D01*
X222942Y85973D01*
X222963Y85907D01*
X222981Y85839D01*
X222994Y85771D01*
X223004Y85702D01*
X223010Y85633D01*
X223012Y85563D01*
X223012Y84942D01*
X223012Y89613D02*
X217424Y89613D01*
X217424Y91165D01*
X217426Y91242D01*
X217432Y91320D01*
X217441Y91396D01*
X217455Y91473D01*
X217472Y91548D01*
X217493Y91622D01*
X217518Y91696D01*
X217546Y91768D01*
X217578Y91838D01*
X217613Y91907D01*
X217652Y91974D01*
X217694Y92039D01*
X217739Y92102D01*
X217787Y92163D01*
X217838Y92221D01*
X217892Y92276D01*
X217949Y92329D01*
X218008Y92378D01*
X218070Y92425D01*
X218134Y92469D01*
X218200Y92509D01*
X218268Y92546D01*
X218338Y92580D01*
X218409Y92610D01*
X218482Y92636D01*
X218556Y92659D01*
X218631Y92678D01*
X218706Y92693D01*
X218783Y92705D01*
X218860Y92713D01*
X218937Y92717D01*
X219015Y92717D01*
X219092Y92713D01*
X219169Y92705D01*
X219246Y92693D01*
X219321Y92678D01*
X219396Y92659D01*
X219470Y92636D01*
X219543Y92610D01*
X219614Y92580D01*
X219684Y92546D01*
X219752Y92509D01*
X219818Y92469D01*
X219882Y92425D01*
X219944Y92378D01*
X220003Y92329D01*
X220060Y92276D01*
X220114Y92221D01*
X220165Y92163D01*
X220213Y92102D01*
X220258Y92039D01*
X220300Y91974D01*
X220339Y91907D01*
X220374Y91838D01*
X220406Y91768D01*
X220434Y91696D01*
X220459Y91622D01*
X220480Y91548D01*
X220497Y91473D01*
X220511Y91396D01*
X220520Y91320D01*
X220526Y91242D01*
X220528Y91165D01*
X220528Y89613D01*
X217424Y96541D02*
X217426Y96614D01*
X217432Y96687D01*
X217441Y96760D01*
X217455Y96831D01*
X217472Y96903D01*
X217492Y96973D01*
X217517Y97042D01*
X217545Y97109D01*
X217576Y97175D01*
X217611Y97240D01*
X217649Y97302D01*
X217691Y97362D01*
X217735Y97420D01*
X217783Y97476D01*
X217833Y97529D01*
X217886Y97579D01*
X217942Y97627D01*
X218000Y97671D01*
X218060Y97713D01*
X218123Y97751D01*
X218187Y97786D01*
X218253Y97817D01*
X218320Y97845D01*
X218389Y97870D01*
X218459Y97890D01*
X218531Y97907D01*
X218602Y97921D01*
X218675Y97930D01*
X218748Y97936D01*
X218821Y97938D01*
X217424Y96541D02*
X217426Y96457D01*
X217432Y96374D01*
X217441Y96291D01*
X217455Y96208D01*
X217472Y96127D01*
X217494Y96046D01*
X217519Y95966D01*
X217547Y95888D01*
X217579Y95810D01*
X217615Y95735D01*
X217654Y95661D01*
X217697Y95589D01*
X217743Y95519D01*
X217792Y95452D01*
X217845Y95386D01*
X217900Y95324D01*
X217958Y95264D01*
X218019Y95206D01*
X218082Y95152D01*
X218148Y95100D01*
X218216Y95052D01*
X218287Y95007D01*
X218359Y94965D01*
X218434Y94927D01*
X218510Y94892D01*
X218587Y94861D01*
X218666Y94833D01*
X219907Y97471D02*
X219854Y97525D01*
X219797Y97576D01*
X219738Y97624D01*
X219677Y97669D01*
X219614Y97710D01*
X219548Y97749D01*
X219481Y97784D01*
X219412Y97816D01*
X219341Y97844D01*
X219270Y97868D01*
X219197Y97889D01*
X219123Y97906D01*
X219048Y97920D01*
X218973Y97929D01*
X218897Y97935D01*
X218821Y97937D01*
X219908Y97472D02*
X223012Y94833D01*
X223012Y97938D01*
D11*
X204470Y181610D02*
X191770Y181610D01*
X204470Y181610D02*
X210820Y175260D01*
X210820Y162560D02*
X204470Y156210D01*
X166370Y181610D02*
X160020Y175260D01*
X166370Y181610D02*
X179070Y181610D01*
X185420Y175260D01*
X185420Y162560D02*
X179070Y156210D01*
X166370Y156210D01*
X160020Y162560D01*
X185420Y175260D02*
X191770Y181610D01*
X185420Y162560D02*
X191770Y156210D01*
X204470Y156210D01*
X128270Y181610D02*
X115570Y181610D01*
X128270Y181610D02*
X134620Y175260D01*
X134620Y162560D02*
X128270Y156210D01*
X134620Y175260D02*
X140970Y181610D01*
X153670Y181610D01*
X160020Y175260D01*
X160020Y162560D02*
X153670Y156210D01*
X140970Y156210D01*
X134620Y162560D01*
X90170Y181610D02*
X83820Y175260D01*
X90170Y181610D02*
X102870Y181610D01*
X109220Y175260D01*
X109220Y162560D02*
X102870Y156210D01*
X90170Y156210D01*
X83820Y162560D01*
X109220Y175260D02*
X115570Y181610D01*
X109220Y162560D02*
X115570Y156210D01*
X128270Y156210D01*
X52070Y181610D02*
X39370Y181610D01*
X52070Y181610D02*
X58420Y175260D01*
X58420Y162560D02*
X52070Y156210D01*
X58420Y175260D02*
X64770Y181610D01*
X77470Y181610D01*
X83820Y175260D01*
X83820Y162560D02*
X77470Y156210D01*
X64770Y156210D01*
X58420Y162560D01*
X33020Y162560D02*
X33020Y175260D01*
X39370Y181610D01*
X33020Y162560D02*
X39370Y156210D01*
X52070Y156210D01*
X217170Y181610D02*
X229870Y181610D01*
X236220Y175260D01*
X236220Y162560D02*
X229870Y156210D01*
X210820Y175260D02*
X217170Y181610D01*
X210820Y162560D02*
X217170Y156210D01*
X229870Y156210D01*
X242570Y181610D02*
X255270Y181610D01*
X261620Y175260D01*
X261620Y162560D02*
X255270Y156210D01*
X236220Y175260D02*
X242570Y181610D01*
X236220Y162560D02*
X242570Y156210D01*
X255270Y156210D01*
X267970Y181610D02*
X280670Y181610D01*
X287020Y175260D01*
X287020Y162560D01*
X280670Y156210D01*
X261620Y175260D02*
X267970Y181610D01*
X261620Y162560D02*
X267970Y156210D01*
X280670Y156210D01*
X128270Y3810D02*
X115570Y3810D01*
X109220Y10160D01*
X109220Y22860D02*
X115570Y29210D01*
X153670Y3810D02*
X160020Y10160D01*
X153670Y3810D02*
X140970Y3810D01*
X134620Y10160D01*
X134620Y22860D02*
X140970Y29210D01*
X153670Y29210D01*
X160020Y22860D01*
X134620Y10160D02*
X128270Y3810D01*
X134620Y22860D02*
X128270Y29210D01*
X115570Y29210D01*
X191770Y3810D02*
X204470Y3810D01*
X191770Y3810D02*
X185420Y10160D01*
X185420Y22860D02*
X191770Y29210D01*
X185420Y10160D02*
X179070Y3810D01*
X166370Y3810D01*
X160020Y10160D01*
X160020Y22860D02*
X166370Y29210D01*
X179070Y29210D01*
X185420Y22860D01*
X229870Y3810D02*
X236220Y10160D01*
X229870Y3810D02*
X217170Y3810D01*
X210820Y10160D01*
X210820Y22860D02*
X217170Y29210D01*
X229870Y29210D01*
X236220Y22860D01*
X210820Y10160D02*
X204470Y3810D01*
X210820Y22860D02*
X204470Y29210D01*
X191770Y29210D01*
X267970Y3810D02*
X280670Y3810D01*
X267970Y3810D02*
X261620Y10160D01*
X261620Y22860D02*
X267970Y29210D01*
X261620Y10160D02*
X255270Y3810D01*
X242570Y3810D01*
X236220Y10160D01*
X236220Y22860D02*
X242570Y29210D01*
X255270Y29210D01*
X261620Y22860D01*
X287020Y22860D02*
X287020Y10160D01*
X280670Y3810D01*
X287020Y22860D02*
X280670Y29210D01*
X267970Y29210D01*
X102870Y3810D02*
X90170Y3810D01*
X83820Y10160D01*
X83820Y22860D02*
X90170Y29210D01*
X109220Y10160D02*
X102870Y3810D01*
X109220Y22860D02*
X102870Y29210D01*
X90170Y29210D01*
X77470Y3810D02*
X64770Y3810D01*
X58420Y10160D01*
X58420Y22860D02*
X64770Y29210D01*
X83820Y10160D02*
X77470Y3810D01*
X83820Y22860D02*
X77470Y29210D01*
X64770Y29210D01*
X52070Y3810D02*
X39370Y3810D01*
X33020Y10160D01*
X33020Y22860D01*
X39370Y29210D01*
X58420Y10160D02*
X52070Y3810D01*
X58420Y22860D02*
X52070Y29210D01*
X39370Y29210D01*
X293370Y29210D02*
X306070Y29210D01*
X312420Y22860D01*
X312420Y10160D02*
X306070Y3810D01*
X312420Y22860D02*
X318770Y29210D01*
X331470Y29210D01*
X337820Y22860D01*
X337820Y10160D02*
X331470Y3810D01*
X318770Y3810D01*
X312420Y10160D01*
X287020Y10160D02*
X287020Y22860D01*
X293370Y29210D01*
X287020Y10160D02*
X293370Y3810D01*
X306070Y3810D01*
X337820Y10160D02*
X337820Y22860D01*
X306070Y181610D02*
X293370Y181610D01*
X306070Y181610D02*
X312420Y175260D01*
X312420Y162560D02*
X306070Y156210D01*
X312420Y175260D02*
X318770Y181610D01*
X331470Y181610D01*
X337820Y175260D01*
X337820Y162560D02*
X331470Y156210D01*
X318770Y156210D01*
X312420Y162560D01*
X287020Y162560D02*
X287020Y175260D01*
X293370Y181610D01*
X287020Y162560D02*
X293370Y156210D01*
X306070Y156210D01*
X337820Y162560D02*
X337820Y175260D01*
D13*
X246380Y49760D02*
X244630Y48010D01*
X246380Y49760D02*
X247880Y48260D01*
X246130Y46510D01*
X244630Y48010D01*
D14*
X243630Y52260D03*
D15*
X244856Y81280D02*
X227584Y81280D01*
X247396Y99060D02*
X247394Y99160D01*
X247388Y99259D01*
X247378Y99359D01*
X247365Y99457D01*
X247347Y99556D01*
X247326Y99653D01*
X247301Y99749D01*
X247272Y99845D01*
X247239Y99939D01*
X247203Y100032D01*
X247163Y100123D01*
X247119Y100213D01*
X247072Y100301D01*
X247022Y100387D01*
X246968Y100471D01*
X246911Y100553D01*
X246851Y100632D01*
X246787Y100710D01*
X246721Y100784D01*
X246652Y100856D01*
X246580Y100925D01*
X246506Y100991D01*
X246428Y101055D01*
X246349Y101115D01*
X246267Y101172D01*
X246183Y101226D01*
X246097Y101276D01*
X246009Y101323D01*
X245919Y101367D01*
X245828Y101407D01*
X245735Y101443D01*
X245641Y101476D01*
X245545Y101505D01*
X245449Y101530D01*
X245352Y101551D01*
X245253Y101569D01*
X245155Y101582D01*
X245055Y101592D01*
X244956Y101598D01*
X244856Y101600D01*
X227584Y101600D02*
X227484Y101598D01*
X227385Y101592D01*
X227285Y101582D01*
X227187Y101569D01*
X227088Y101551D01*
X226991Y101530D01*
X226895Y101505D01*
X226799Y101476D01*
X226705Y101443D01*
X226612Y101407D01*
X226521Y101367D01*
X226431Y101323D01*
X226343Y101276D01*
X226257Y101226D01*
X226173Y101172D01*
X226091Y101115D01*
X226012Y101055D01*
X225934Y100991D01*
X225860Y100925D01*
X225788Y100856D01*
X225719Y100784D01*
X225653Y100710D01*
X225589Y100632D01*
X225529Y100553D01*
X225472Y100471D01*
X225418Y100387D01*
X225368Y100301D01*
X225321Y100213D01*
X225277Y100123D01*
X225237Y100032D01*
X225201Y99939D01*
X225168Y99845D01*
X225139Y99749D01*
X225114Y99653D01*
X225093Y99556D01*
X225075Y99457D01*
X225062Y99359D01*
X225052Y99259D01*
X225046Y99160D01*
X225044Y99060D01*
X225044Y83820D02*
X225046Y83720D01*
X225052Y83621D01*
X225062Y83521D01*
X225075Y83423D01*
X225093Y83324D01*
X225114Y83227D01*
X225139Y83131D01*
X225168Y83035D01*
X225201Y82941D01*
X225237Y82848D01*
X225277Y82757D01*
X225321Y82667D01*
X225368Y82579D01*
X225418Y82493D01*
X225472Y82409D01*
X225529Y82327D01*
X225589Y82248D01*
X225653Y82170D01*
X225719Y82096D01*
X225788Y82024D01*
X225860Y81955D01*
X225934Y81889D01*
X226012Y81825D01*
X226091Y81765D01*
X226173Y81708D01*
X226257Y81654D01*
X226343Y81604D01*
X226431Y81557D01*
X226521Y81513D01*
X226612Y81473D01*
X226705Y81437D01*
X226799Y81404D01*
X226895Y81375D01*
X226991Y81350D01*
X227088Y81329D01*
X227187Y81311D01*
X227285Y81298D01*
X227385Y81288D01*
X227484Y81282D01*
X227584Y81280D01*
X244856Y81280D02*
X244956Y81282D01*
X245055Y81288D01*
X245155Y81298D01*
X245253Y81311D01*
X245352Y81329D01*
X245449Y81350D01*
X245545Y81375D01*
X245641Y81404D01*
X245735Y81437D01*
X245828Y81473D01*
X245919Y81513D01*
X246009Y81557D01*
X246097Y81604D01*
X246183Y81654D01*
X246267Y81708D01*
X246349Y81765D01*
X246428Y81825D01*
X246506Y81889D01*
X246580Y81955D01*
X246652Y82024D01*
X246721Y82096D01*
X246787Y82170D01*
X246851Y82248D01*
X246911Y82327D01*
X246968Y82409D01*
X247022Y82493D01*
X247072Y82579D01*
X247119Y82667D01*
X247163Y82757D01*
X247203Y82848D01*
X247239Y82941D01*
X247272Y83035D01*
X247301Y83131D01*
X247326Y83227D01*
X247347Y83324D01*
X247365Y83423D01*
X247378Y83521D01*
X247388Y83621D01*
X247394Y83720D01*
X247396Y83820D01*
X247396Y99060D01*
X225044Y99060D02*
X225044Y83820D01*
X227584Y101600D02*
X244856Y101600D01*
D10*
X250444Y88075D02*
X254790Y88075D01*
X254860Y88073D01*
X254929Y88067D01*
X254998Y88057D01*
X255066Y88044D01*
X255134Y88026D01*
X255200Y88005D01*
X255265Y87980D01*
X255329Y87952D01*
X255391Y87920D01*
X255451Y87885D01*
X255509Y87846D01*
X255564Y87804D01*
X255618Y87759D01*
X255668Y87711D01*
X255716Y87661D01*
X255761Y87607D01*
X255803Y87552D01*
X255842Y87494D01*
X255877Y87434D01*
X255909Y87372D01*
X255937Y87308D01*
X255962Y87243D01*
X255983Y87177D01*
X256001Y87109D01*
X256014Y87041D01*
X256024Y86972D01*
X256030Y86903D01*
X256032Y86833D01*
X256032Y86212D01*
X256032Y90883D02*
X250444Y90883D01*
X250444Y92435D01*
X250446Y92512D01*
X250452Y92590D01*
X250461Y92666D01*
X250475Y92743D01*
X250492Y92818D01*
X250513Y92892D01*
X250538Y92966D01*
X250566Y93038D01*
X250598Y93108D01*
X250633Y93177D01*
X250672Y93244D01*
X250714Y93309D01*
X250759Y93372D01*
X250807Y93433D01*
X250858Y93491D01*
X250912Y93546D01*
X250969Y93599D01*
X251028Y93648D01*
X251090Y93695D01*
X251154Y93739D01*
X251220Y93779D01*
X251288Y93816D01*
X251358Y93850D01*
X251429Y93880D01*
X251502Y93906D01*
X251576Y93929D01*
X251651Y93948D01*
X251726Y93963D01*
X251803Y93975D01*
X251880Y93983D01*
X251957Y93987D01*
X252035Y93987D01*
X252112Y93983D01*
X252189Y93975D01*
X252266Y93963D01*
X252341Y93948D01*
X252416Y93929D01*
X252490Y93906D01*
X252563Y93880D01*
X252634Y93850D01*
X252704Y93816D01*
X252772Y93779D01*
X252838Y93739D01*
X252902Y93695D01*
X252964Y93648D01*
X253023Y93599D01*
X253080Y93546D01*
X253134Y93491D01*
X253185Y93433D01*
X253233Y93372D01*
X253278Y93309D01*
X253320Y93244D01*
X253359Y93177D01*
X253394Y93108D01*
X253426Y93038D01*
X253454Y92966D01*
X253479Y92892D01*
X253500Y92818D01*
X253517Y92743D01*
X253531Y92666D01*
X253540Y92590D01*
X253546Y92512D01*
X253548Y92435D01*
X253548Y90883D01*
X254790Y96103D02*
X250444Y97345D01*
X254790Y96103D02*
X254790Y99208D01*
X253548Y98276D02*
X256032Y98276D01*
D12*
X114412Y82488D02*
X114412Y128012D01*
X185807Y128012D01*
X185807Y82488D01*
X114412Y82488D01*
D16*
X117998Y88250D02*
X118000Y88325D01*
X118006Y88399D01*
X118016Y88473D01*
X118029Y88546D01*
X118047Y88619D01*
X118068Y88690D01*
X118093Y88761D01*
X118122Y88830D01*
X118155Y88897D01*
X118191Y88962D01*
X118230Y89026D01*
X118272Y89087D01*
X118318Y89146D01*
X118367Y89203D01*
X118419Y89256D01*
X118473Y89307D01*
X118530Y89356D01*
X118590Y89400D01*
X118652Y89442D01*
X118716Y89481D01*
X118782Y89516D01*
X118849Y89547D01*
X118919Y89575D01*
X118989Y89599D01*
X119061Y89620D01*
X119134Y89636D01*
X119207Y89649D01*
X119282Y89658D01*
X119356Y89663D01*
X119431Y89664D01*
X119505Y89661D01*
X119580Y89654D01*
X119653Y89643D01*
X119727Y89629D01*
X119799Y89610D01*
X119870Y89588D01*
X119940Y89562D01*
X120009Y89532D01*
X120075Y89499D01*
X120140Y89462D01*
X120203Y89422D01*
X120264Y89378D01*
X120322Y89332D01*
X120378Y89282D01*
X120431Y89230D01*
X120482Y89175D01*
X120529Y89117D01*
X120573Y89057D01*
X120614Y88994D01*
X120652Y88930D01*
X120686Y88864D01*
X120717Y88795D01*
X120744Y88726D01*
X120767Y88655D01*
X120786Y88583D01*
X120802Y88510D01*
X120814Y88436D01*
X120822Y88362D01*
X120826Y88287D01*
X120826Y88213D01*
X120822Y88138D01*
X120814Y88064D01*
X120802Y87990D01*
X120786Y87917D01*
X120767Y87845D01*
X120744Y87774D01*
X120717Y87705D01*
X120686Y87636D01*
X120652Y87570D01*
X120614Y87506D01*
X120573Y87443D01*
X120529Y87383D01*
X120482Y87325D01*
X120431Y87270D01*
X120378Y87218D01*
X120322Y87168D01*
X120264Y87122D01*
X120203Y87078D01*
X120140Y87038D01*
X120075Y87001D01*
X120009Y86968D01*
X119940Y86938D01*
X119870Y86912D01*
X119799Y86890D01*
X119727Y86871D01*
X119653Y86857D01*
X119580Y86846D01*
X119505Y86839D01*
X119431Y86836D01*
X119356Y86837D01*
X119282Y86842D01*
X119207Y86851D01*
X119134Y86864D01*
X119061Y86880D01*
X118989Y86901D01*
X118919Y86925D01*
X118849Y86953D01*
X118782Y86984D01*
X118716Y87019D01*
X118652Y87058D01*
X118590Y87100D01*
X118530Y87144D01*
X118473Y87193D01*
X118419Y87244D01*
X118367Y87297D01*
X118318Y87354D01*
X118272Y87413D01*
X118230Y87474D01*
X118191Y87538D01*
X118155Y87603D01*
X118122Y87670D01*
X118093Y87739D01*
X118068Y87810D01*
X118047Y87881D01*
X118029Y87954D01*
X118016Y88027D01*
X118006Y88101D01*
X118000Y88175D01*
X117998Y88250D01*
D15*
X227584Y109220D02*
X244856Y109220D01*
X247396Y127000D02*
X247394Y127100D01*
X247388Y127199D01*
X247378Y127299D01*
X247365Y127397D01*
X247347Y127496D01*
X247326Y127593D01*
X247301Y127689D01*
X247272Y127785D01*
X247239Y127879D01*
X247203Y127972D01*
X247163Y128063D01*
X247119Y128153D01*
X247072Y128241D01*
X247022Y128327D01*
X246968Y128411D01*
X246911Y128493D01*
X246851Y128572D01*
X246787Y128650D01*
X246721Y128724D01*
X246652Y128796D01*
X246580Y128865D01*
X246506Y128931D01*
X246428Y128995D01*
X246349Y129055D01*
X246267Y129112D01*
X246183Y129166D01*
X246097Y129216D01*
X246009Y129263D01*
X245919Y129307D01*
X245828Y129347D01*
X245735Y129383D01*
X245641Y129416D01*
X245545Y129445D01*
X245449Y129470D01*
X245352Y129491D01*
X245253Y129509D01*
X245155Y129522D01*
X245055Y129532D01*
X244956Y129538D01*
X244856Y129540D01*
X227584Y129540D02*
X227484Y129538D01*
X227385Y129532D01*
X227285Y129522D01*
X227187Y129509D01*
X227088Y129491D01*
X226991Y129470D01*
X226895Y129445D01*
X226799Y129416D01*
X226705Y129383D01*
X226612Y129347D01*
X226521Y129307D01*
X226431Y129263D01*
X226343Y129216D01*
X226257Y129166D01*
X226173Y129112D01*
X226091Y129055D01*
X226012Y128995D01*
X225934Y128931D01*
X225860Y128865D01*
X225788Y128796D01*
X225719Y128724D01*
X225653Y128650D01*
X225589Y128572D01*
X225529Y128493D01*
X225472Y128411D01*
X225418Y128327D01*
X225368Y128241D01*
X225321Y128153D01*
X225277Y128063D01*
X225237Y127972D01*
X225201Y127879D01*
X225168Y127785D01*
X225139Y127689D01*
X225114Y127593D01*
X225093Y127496D01*
X225075Y127397D01*
X225062Y127299D01*
X225052Y127199D01*
X225046Y127100D01*
X225044Y127000D01*
X225044Y111760D02*
X225046Y111660D01*
X225052Y111561D01*
X225062Y111461D01*
X225075Y111363D01*
X225093Y111264D01*
X225114Y111167D01*
X225139Y111071D01*
X225168Y110975D01*
X225201Y110881D01*
X225237Y110788D01*
X225277Y110697D01*
X225321Y110607D01*
X225368Y110519D01*
X225418Y110433D01*
X225472Y110349D01*
X225529Y110267D01*
X225589Y110188D01*
X225653Y110110D01*
X225719Y110036D01*
X225788Y109964D01*
X225860Y109895D01*
X225934Y109829D01*
X226012Y109765D01*
X226091Y109705D01*
X226173Y109648D01*
X226257Y109594D01*
X226343Y109544D01*
X226431Y109497D01*
X226521Y109453D01*
X226612Y109413D01*
X226705Y109377D01*
X226799Y109344D01*
X226895Y109315D01*
X226991Y109290D01*
X227088Y109269D01*
X227187Y109251D01*
X227285Y109238D01*
X227385Y109228D01*
X227484Y109222D01*
X227584Y109220D01*
X244856Y109220D02*
X244956Y109222D01*
X245055Y109228D01*
X245155Y109238D01*
X245253Y109251D01*
X245352Y109269D01*
X245449Y109290D01*
X245545Y109315D01*
X245641Y109344D01*
X245735Y109377D01*
X245828Y109413D01*
X245919Y109453D01*
X246009Y109497D01*
X246097Y109544D01*
X246183Y109594D01*
X246267Y109648D01*
X246349Y109705D01*
X246428Y109765D01*
X246506Y109829D01*
X246580Y109895D01*
X246652Y109964D01*
X246721Y110036D01*
X246787Y110110D01*
X246851Y110188D01*
X246911Y110267D01*
X246968Y110349D01*
X247022Y110433D01*
X247072Y110519D01*
X247119Y110607D01*
X247163Y110697D01*
X247203Y110788D01*
X247239Y110881D01*
X247272Y110975D01*
X247301Y111071D01*
X247326Y111167D01*
X247347Y111264D01*
X247365Y111363D01*
X247378Y111461D01*
X247388Y111561D01*
X247394Y111660D01*
X247396Y111760D01*
X247396Y127000D01*
X225044Y127000D02*
X225044Y111760D01*
X227584Y129540D02*
X244856Y129540D01*
D10*
X250444Y114745D02*
X254790Y114745D01*
X254860Y114743D01*
X254929Y114737D01*
X254998Y114727D01*
X255066Y114714D01*
X255134Y114696D01*
X255200Y114675D01*
X255265Y114650D01*
X255329Y114622D01*
X255391Y114590D01*
X255451Y114555D01*
X255509Y114516D01*
X255564Y114474D01*
X255618Y114429D01*
X255668Y114381D01*
X255716Y114331D01*
X255761Y114277D01*
X255803Y114222D01*
X255842Y114164D01*
X255877Y114104D01*
X255909Y114042D01*
X255937Y113978D01*
X255962Y113913D01*
X255983Y113847D01*
X256001Y113779D01*
X256014Y113711D01*
X256024Y113642D01*
X256030Y113573D01*
X256032Y113503D01*
X256032Y112882D01*
X256032Y117553D02*
X250444Y117553D01*
X250444Y119105D01*
X250446Y119182D01*
X250452Y119260D01*
X250461Y119336D01*
X250475Y119413D01*
X250492Y119488D01*
X250513Y119562D01*
X250538Y119636D01*
X250566Y119708D01*
X250598Y119778D01*
X250633Y119847D01*
X250672Y119914D01*
X250714Y119979D01*
X250759Y120042D01*
X250807Y120103D01*
X250858Y120161D01*
X250912Y120216D01*
X250969Y120269D01*
X251028Y120318D01*
X251090Y120365D01*
X251154Y120409D01*
X251220Y120449D01*
X251288Y120486D01*
X251358Y120520D01*
X251429Y120550D01*
X251502Y120576D01*
X251576Y120599D01*
X251651Y120618D01*
X251726Y120633D01*
X251803Y120645D01*
X251880Y120653D01*
X251957Y120657D01*
X252035Y120657D01*
X252112Y120653D01*
X252189Y120645D01*
X252266Y120633D01*
X252341Y120618D01*
X252416Y120599D01*
X252490Y120576D01*
X252563Y120550D01*
X252634Y120520D01*
X252704Y120486D01*
X252772Y120449D01*
X252838Y120409D01*
X252902Y120365D01*
X252964Y120318D01*
X253023Y120269D01*
X253080Y120216D01*
X253134Y120161D01*
X253185Y120103D01*
X253233Y120042D01*
X253278Y119979D01*
X253320Y119914D01*
X253359Y119847D01*
X253394Y119778D01*
X253426Y119708D01*
X253454Y119636D01*
X253479Y119562D01*
X253500Y119488D01*
X253517Y119413D01*
X253531Y119336D01*
X253540Y119260D01*
X253546Y119182D01*
X253548Y119105D01*
X253548Y117553D01*
X256032Y122773D02*
X256032Y124636D01*
X256030Y124706D01*
X256024Y124775D01*
X256014Y124844D01*
X256001Y124912D01*
X255983Y124980D01*
X255962Y125046D01*
X255937Y125111D01*
X255909Y125175D01*
X255877Y125237D01*
X255842Y125297D01*
X255803Y125355D01*
X255761Y125410D01*
X255716Y125464D01*
X255668Y125514D01*
X255618Y125562D01*
X255564Y125607D01*
X255509Y125649D01*
X255451Y125688D01*
X255391Y125723D01*
X255329Y125755D01*
X255265Y125783D01*
X255200Y125808D01*
X255134Y125829D01*
X255066Y125847D01*
X254998Y125860D01*
X254929Y125870D01*
X254860Y125876D01*
X254790Y125878D01*
X254169Y125878D01*
X254099Y125876D01*
X254030Y125870D01*
X253961Y125860D01*
X253893Y125847D01*
X253825Y125829D01*
X253759Y125808D01*
X253694Y125783D01*
X253630Y125755D01*
X253568Y125723D01*
X253508Y125688D01*
X253450Y125649D01*
X253395Y125607D01*
X253341Y125562D01*
X253291Y125514D01*
X253243Y125464D01*
X253198Y125410D01*
X253156Y125355D01*
X253117Y125297D01*
X253082Y125237D01*
X253050Y125175D01*
X253022Y125111D01*
X252997Y125046D01*
X252976Y124980D01*
X252958Y124912D01*
X252945Y124844D01*
X252935Y124775D01*
X252929Y124706D01*
X252927Y124636D01*
X252928Y124636D02*
X252928Y122773D01*
X250444Y122773D01*
X250444Y125878D01*
D11*
X358620Y178830D02*
X358622Y178928D01*
X358628Y179026D01*
X358637Y179124D01*
X358651Y179221D01*
X358668Y179318D01*
X358689Y179414D01*
X358714Y179509D01*
X358742Y179603D01*
X358775Y179695D01*
X358810Y179787D01*
X358850Y179877D01*
X358892Y179965D01*
X358939Y180052D01*
X358988Y180136D01*
X359041Y180219D01*
X359097Y180299D01*
X359157Y180378D01*
X359219Y180454D01*
X359284Y180527D01*
X359352Y180598D01*
X359423Y180666D01*
X359496Y180731D01*
X359572Y180793D01*
X359651Y180853D01*
X359731Y180909D01*
X359814Y180962D01*
X359898Y181011D01*
X359985Y181058D01*
X360073Y181100D01*
X360163Y181140D01*
X360255Y181175D01*
X360347Y181208D01*
X360441Y181236D01*
X360536Y181261D01*
X360632Y181282D01*
X360729Y181299D01*
X360826Y181313D01*
X360924Y181322D01*
X361022Y181328D01*
X361120Y181330D01*
X416120Y181330D01*
X416218Y181328D01*
X416316Y181322D01*
X416414Y181313D01*
X416511Y181299D01*
X416608Y181282D01*
X416704Y181261D01*
X416799Y181236D01*
X416893Y181208D01*
X416985Y181175D01*
X417077Y181140D01*
X417167Y181100D01*
X417255Y181058D01*
X417342Y181011D01*
X417426Y180962D01*
X417509Y180909D01*
X417589Y180853D01*
X417668Y180793D01*
X417744Y180731D01*
X417817Y180666D01*
X417888Y180598D01*
X417956Y180527D01*
X418021Y180454D01*
X418083Y180378D01*
X418143Y180299D01*
X418199Y180219D01*
X418252Y180136D01*
X418301Y180052D01*
X418348Y179965D01*
X418390Y179877D01*
X418430Y179787D01*
X418465Y179695D01*
X418498Y179603D01*
X418526Y179509D01*
X418551Y179414D01*
X418572Y179318D01*
X418589Y179221D01*
X418603Y179124D01*
X418612Y179026D01*
X418618Y178928D01*
X418620Y178830D01*
X418620Y148830D02*
X418618Y148732D01*
X418612Y148634D01*
X418603Y148536D01*
X418589Y148439D01*
X418572Y148342D01*
X418551Y148246D01*
X418526Y148151D01*
X418498Y148057D01*
X418465Y147965D01*
X418430Y147873D01*
X418390Y147783D01*
X418348Y147695D01*
X418301Y147608D01*
X418252Y147524D01*
X418199Y147441D01*
X418143Y147361D01*
X418083Y147282D01*
X418021Y147206D01*
X417956Y147133D01*
X417888Y147062D01*
X417817Y146994D01*
X417744Y146929D01*
X417668Y146867D01*
X417589Y146807D01*
X417509Y146751D01*
X417426Y146698D01*
X417342Y146649D01*
X417255Y146602D01*
X417167Y146560D01*
X417077Y146520D01*
X416985Y146485D01*
X416893Y146452D01*
X416799Y146424D01*
X416704Y146399D01*
X416608Y146378D01*
X416511Y146361D01*
X416414Y146347D01*
X416316Y146338D01*
X416218Y146332D01*
X416120Y146330D01*
X361120Y146330D01*
X361022Y146332D01*
X360924Y146338D01*
X360826Y146347D01*
X360729Y146361D01*
X360632Y146378D01*
X360536Y146399D01*
X360441Y146424D01*
X360347Y146452D01*
X360255Y146485D01*
X360163Y146520D01*
X360073Y146560D01*
X359985Y146602D01*
X359898Y146649D01*
X359814Y146698D01*
X359731Y146751D01*
X359651Y146807D01*
X359572Y146867D01*
X359496Y146929D01*
X359423Y146994D01*
X359352Y147062D01*
X359284Y147133D01*
X359219Y147206D01*
X359157Y147282D01*
X359097Y147361D01*
X359041Y147441D01*
X358988Y147524D01*
X358939Y147608D01*
X358892Y147695D01*
X358850Y147783D01*
X358810Y147873D01*
X358775Y147965D01*
X358742Y148057D01*
X358714Y148151D01*
X358689Y148246D01*
X358668Y148342D01*
X358651Y148439D01*
X358637Y148536D01*
X358628Y148634D01*
X358622Y148732D01*
X358620Y148830D01*
X358620Y152830D01*
X358620Y174830D02*
X358620Y178830D01*
X418620Y178830D02*
X418620Y174830D01*
X418620Y152830D02*
X418620Y148830D01*
X403620Y171330D02*
X373620Y171330D01*
X373620Y156330D02*
X403620Y156330D01*
X373620Y156330D02*
X373620Y171330D01*
X403620Y171330D02*
X403620Y156330D01*
X45720Y93980D02*
X39370Y100330D01*
X39370Y113030D01*
X45720Y119380D01*
X58420Y119380D02*
X64770Y113030D01*
X64770Y100330D01*
X58420Y93980D01*
X39370Y62230D02*
X39370Y49530D01*
X39370Y62230D02*
X45720Y68580D01*
X58420Y68580D02*
X64770Y62230D01*
X45720Y68580D02*
X39370Y74930D01*
X39370Y87630D01*
X45720Y93980D01*
X58420Y93980D02*
X64770Y87630D01*
X64770Y74930D01*
X58420Y68580D01*
X58420Y43180D02*
X45720Y43180D01*
X39370Y49530D01*
X58420Y43180D02*
X64770Y49530D01*
X64770Y62230D01*
X58420Y119380D02*
X45720Y119380D01*
X30480Y62230D02*
X30480Y49530D01*
X24130Y43180D01*
X11430Y43180D02*
X5080Y49530D01*
X30480Y87630D02*
X24130Y93980D01*
X30480Y87630D02*
X30480Y74930D01*
X24130Y68580D01*
X11430Y68580D02*
X5080Y74930D01*
X5080Y87630D01*
X11430Y93980D01*
X24130Y68580D02*
X30480Y62230D01*
X11430Y68580D02*
X5080Y62230D01*
X5080Y49530D01*
X30480Y125730D02*
X30480Y138430D01*
X30480Y125730D02*
X24130Y119380D01*
X11430Y119380D02*
X5080Y125730D01*
X24130Y119380D02*
X30480Y113030D01*
X30480Y100330D01*
X24130Y93980D01*
X11430Y93980D02*
X5080Y100330D01*
X5080Y113030D01*
X11430Y119380D01*
X11430Y144780D02*
X24130Y144780D01*
X30480Y138430D01*
X11430Y144780D02*
X5080Y138430D01*
X5080Y125730D01*
X11430Y43180D02*
X24130Y43180D01*
M02*
