G04 EAGLE Gerber RS-274X export*
G75*
%MOMM*%
%FSLAX34Y34*%
%LPD*%
%INSilkscreen Bottom*%
%IPPOS*%
%AMOC8*
5,1,8,0,0,1.08239X$1,22.5*%
G01*
%ADD10C,0.050800*%
%ADD11C,0.203200*%
%ADD12C,0.076200*%
%ADD13C,0.200000*%
%ADD14C,0.100000*%


D10*
X35786Y115119D02*
X35716Y115117D01*
X35647Y115111D01*
X35578Y115101D01*
X35510Y115088D01*
X35442Y115070D01*
X35376Y115049D01*
X35311Y115024D01*
X35247Y114996D01*
X35185Y114964D01*
X35125Y114929D01*
X35067Y114890D01*
X35012Y114848D01*
X34958Y114803D01*
X34908Y114755D01*
X34860Y114705D01*
X34815Y114651D01*
X34773Y114596D01*
X34734Y114538D01*
X34699Y114478D01*
X34667Y114416D01*
X34639Y114352D01*
X34614Y114287D01*
X34593Y114221D01*
X34575Y114153D01*
X34562Y114085D01*
X34552Y114016D01*
X34546Y113947D01*
X34544Y113877D01*
X34546Y113778D01*
X34551Y113680D01*
X34561Y113582D01*
X34574Y113484D01*
X34590Y113387D01*
X34610Y113290D01*
X34634Y113195D01*
X34662Y113100D01*
X34693Y113006D01*
X34727Y112914D01*
X34765Y112823D01*
X34806Y112733D01*
X34851Y112645D01*
X34899Y112559D01*
X34950Y112475D01*
X35004Y112393D01*
X35062Y112312D01*
X35122Y112234D01*
X35185Y112159D01*
X35251Y112085D01*
X35320Y112015D01*
X38890Y112169D02*
X38960Y112171D01*
X39029Y112177D01*
X39098Y112187D01*
X39166Y112200D01*
X39234Y112218D01*
X39300Y112239D01*
X39365Y112264D01*
X39429Y112292D01*
X39491Y112324D01*
X39551Y112359D01*
X39609Y112398D01*
X39664Y112440D01*
X39718Y112485D01*
X39768Y112533D01*
X39816Y112583D01*
X39861Y112637D01*
X39903Y112692D01*
X39942Y112750D01*
X39977Y112810D01*
X40009Y112872D01*
X40037Y112936D01*
X40062Y113001D01*
X40083Y113067D01*
X40101Y113135D01*
X40114Y113203D01*
X40124Y113272D01*
X40130Y113341D01*
X40132Y113411D01*
X40130Y113505D01*
X40124Y113598D01*
X40115Y113691D01*
X40102Y113784D01*
X40085Y113876D01*
X40065Y113967D01*
X40040Y114058D01*
X40013Y114147D01*
X39981Y114235D01*
X39946Y114322D01*
X39908Y114408D01*
X39866Y114491D01*
X39821Y114573D01*
X39773Y114654D01*
X39721Y114732D01*
X39666Y114808D01*
X37804Y112790D02*
X37840Y112731D01*
X37880Y112675D01*
X37923Y112621D01*
X37968Y112569D01*
X38017Y112520D01*
X38068Y112474D01*
X38121Y112431D01*
X38177Y112390D01*
X38235Y112353D01*
X38295Y112318D01*
X38356Y112288D01*
X38419Y112260D01*
X38484Y112236D01*
X38550Y112216D01*
X38617Y112199D01*
X38684Y112186D01*
X38752Y112177D01*
X38821Y112171D01*
X38890Y112169D01*
X36872Y114497D02*
X36836Y114556D01*
X36796Y114612D01*
X36753Y114666D01*
X36708Y114718D01*
X36659Y114767D01*
X36608Y114813D01*
X36555Y114856D01*
X36499Y114897D01*
X36441Y114934D01*
X36381Y114969D01*
X36320Y114999D01*
X36257Y115027D01*
X36192Y115051D01*
X36126Y115071D01*
X36059Y115088D01*
X35992Y115101D01*
X35924Y115110D01*
X35855Y115116D01*
X35786Y115118D01*
X36872Y114498D02*
X37804Y112790D01*
X40132Y117118D02*
X34544Y118359D01*
X38269Y119601D01*
X34544Y120843D01*
X40132Y122085D01*
X40132Y124450D02*
X34544Y124450D01*
X40132Y124450D02*
X40132Y126002D01*
X40130Y126078D01*
X40125Y126154D01*
X40115Y126230D01*
X40102Y126305D01*
X40085Y126379D01*
X40065Y126453D01*
X40041Y126525D01*
X40014Y126596D01*
X39983Y126666D01*
X39949Y126734D01*
X39911Y126800D01*
X39870Y126864D01*
X39827Y126927D01*
X39780Y126987D01*
X39730Y127044D01*
X39677Y127099D01*
X39622Y127152D01*
X39565Y127202D01*
X39505Y127249D01*
X39442Y127292D01*
X39378Y127333D01*
X39312Y127371D01*
X39244Y127405D01*
X39174Y127436D01*
X39103Y127463D01*
X39030Y127487D01*
X38957Y127507D01*
X38883Y127524D01*
X38808Y127537D01*
X38732Y127547D01*
X38656Y127552D01*
X38580Y127554D01*
X36096Y127554D01*
X36017Y127552D01*
X35939Y127546D01*
X35861Y127536D01*
X35784Y127522D01*
X35707Y127504D01*
X35631Y127483D01*
X35557Y127457D01*
X35484Y127428D01*
X35413Y127395D01*
X35343Y127359D01*
X35275Y127319D01*
X35209Y127276D01*
X35146Y127229D01*
X35085Y127180D01*
X35027Y127127D01*
X34971Y127071D01*
X34918Y127013D01*
X34869Y126952D01*
X34822Y126889D01*
X34779Y126823D01*
X34739Y126755D01*
X34703Y126686D01*
X34670Y126614D01*
X34641Y126541D01*
X34615Y126467D01*
X34594Y126391D01*
X34576Y126314D01*
X34562Y126237D01*
X34552Y126159D01*
X34546Y126081D01*
X34544Y126002D01*
X34544Y124450D01*
X34544Y138684D02*
X40132Y138684D01*
X34544Y141788D01*
X40132Y141788D01*
X34544Y145579D02*
X34544Y146821D01*
X34544Y145579D02*
X34546Y145509D01*
X34552Y145440D01*
X34562Y145371D01*
X34575Y145303D01*
X34593Y145235D01*
X34614Y145169D01*
X34639Y145104D01*
X34667Y145040D01*
X34699Y144978D01*
X34734Y144918D01*
X34773Y144860D01*
X34815Y144805D01*
X34860Y144751D01*
X34908Y144701D01*
X34958Y144653D01*
X35012Y144608D01*
X35067Y144566D01*
X35125Y144527D01*
X35185Y144492D01*
X35247Y144460D01*
X35311Y144432D01*
X35376Y144407D01*
X35442Y144386D01*
X35510Y144368D01*
X35578Y144355D01*
X35647Y144345D01*
X35716Y144339D01*
X35786Y144337D01*
X38890Y144337D01*
X38960Y144339D01*
X39029Y144345D01*
X39098Y144355D01*
X39166Y144368D01*
X39234Y144386D01*
X39300Y144407D01*
X39365Y144432D01*
X39429Y144460D01*
X39491Y144492D01*
X39551Y144527D01*
X39609Y144566D01*
X39664Y144608D01*
X39718Y144653D01*
X39768Y144701D01*
X39816Y144751D01*
X39861Y144805D01*
X39903Y144860D01*
X39942Y144918D01*
X39977Y144978D01*
X40009Y145040D01*
X40037Y145104D01*
X40062Y145169D01*
X40083Y145235D01*
X40101Y145303D01*
X40114Y145371D01*
X40124Y145440D01*
X40130Y145509D01*
X40132Y145579D01*
X40132Y146821D01*
X37648Y89718D02*
X37648Y88787D01*
X37648Y89718D02*
X34544Y89718D01*
X34544Y87856D01*
X34546Y87786D01*
X34552Y87717D01*
X34562Y87648D01*
X34575Y87580D01*
X34593Y87512D01*
X34614Y87446D01*
X34639Y87381D01*
X34667Y87317D01*
X34699Y87255D01*
X34734Y87195D01*
X34773Y87137D01*
X34815Y87082D01*
X34860Y87028D01*
X34908Y86978D01*
X34958Y86930D01*
X35012Y86885D01*
X35067Y86843D01*
X35125Y86804D01*
X35185Y86769D01*
X35247Y86737D01*
X35311Y86709D01*
X35376Y86684D01*
X35442Y86663D01*
X35510Y86645D01*
X35578Y86632D01*
X35647Y86622D01*
X35716Y86616D01*
X35786Y86614D01*
X38890Y86614D01*
X38960Y86616D01*
X39029Y86622D01*
X39098Y86632D01*
X39166Y86645D01*
X39234Y86663D01*
X39300Y86684D01*
X39365Y86709D01*
X39429Y86737D01*
X39491Y86769D01*
X39551Y86804D01*
X39609Y86843D01*
X39664Y86885D01*
X39718Y86930D01*
X39768Y86978D01*
X39816Y87028D01*
X39861Y87082D01*
X39903Y87137D01*
X39942Y87195D01*
X39977Y87255D01*
X40009Y87317D01*
X40037Y87381D01*
X40062Y87446D01*
X40083Y87512D01*
X40101Y87580D01*
X40114Y87648D01*
X40124Y87717D01*
X40130Y87786D01*
X40132Y87856D01*
X40132Y89718D01*
X40132Y92466D02*
X34544Y92466D01*
X34544Y95571D02*
X40132Y92466D01*
X40132Y95571D02*
X34544Y95571D01*
X34544Y98318D02*
X40132Y98318D01*
X40132Y99870D01*
X40130Y99946D01*
X40125Y100022D01*
X40115Y100098D01*
X40102Y100173D01*
X40085Y100247D01*
X40065Y100321D01*
X40041Y100393D01*
X40014Y100464D01*
X39983Y100534D01*
X39949Y100602D01*
X39911Y100668D01*
X39870Y100732D01*
X39827Y100795D01*
X39780Y100855D01*
X39730Y100912D01*
X39677Y100967D01*
X39622Y101020D01*
X39565Y101070D01*
X39505Y101117D01*
X39442Y101160D01*
X39378Y101201D01*
X39312Y101239D01*
X39244Y101273D01*
X39174Y101304D01*
X39103Y101331D01*
X39030Y101355D01*
X38957Y101375D01*
X38883Y101392D01*
X38808Y101405D01*
X38732Y101415D01*
X38656Y101420D01*
X38580Y101422D01*
X38580Y101423D02*
X36096Y101423D01*
X36096Y101422D02*
X36017Y101420D01*
X35939Y101414D01*
X35861Y101404D01*
X35784Y101390D01*
X35707Y101372D01*
X35631Y101351D01*
X35557Y101325D01*
X35484Y101296D01*
X35413Y101263D01*
X35343Y101227D01*
X35275Y101187D01*
X35209Y101144D01*
X35146Y101097D01*
X35085Y101048D01*
X35027Y100995D01*
X34971Y100939D01*
X34918Y100881D01*
X34869Y100820D01*
X34822Y100757D01*
X34779Y100691D01*
X34739Y100623D01*
X34703Y100554D01*
X34670Y100482D01*
X34641Y100409D01*
X34615Y100335D01*
X34594Y100259D01*
X34576Y100182D01*
X34562Y100105D01*
X34552Y100027D01*
X34546Y99949D01*
X34544Y99870D01*
X34544Y98318D01*
X35786Y64319D02*
X35716Y64317D01*
X35647Y64311D01*
X35578Y64301D01*
X35510Y64288D01*
X35442Y64270D01*
X35376Y64249D01*
X35311Y64224D01*
X35247Y64196D01*
X35185Y64164D01*
X35125Y64129D01*
X35067Y64090D01*
X35012Y64048D01*
X34958Y64003D01*
X34908Y63955D01*
X34860Y63905D01*
X34815Y63851D01*
X34773Y63796D01*
X34734Y63738D01*
X34699Y63678D01*
X34667Y63616D01*
X34639Y63552D01*
X34614Y63487D01*
X34593Y63421D01*
X34575Y63353D01*
X34562Y63285D01*
X34552Y63216D01*
X34546Y63147D01*
X34544Y63077D01*
X34546Y62978D01*
X34551Y62880D01*
X34561Y62782D01*
X34574Y62684D01*
X34590Y62587D01*
X34610Y62490D01*
X34634Y62395D01*
X34662Y62300D01*
X34693Y62206D01*
X34727Y62114D01*
X34765Y62023D01*
X34806Y61933D01*
X34851Y61845D01*
X34899Y61759D01*
X34950Y61675D01*
X35004Y61593D01*
X35062Y61512D01*
X35122Y61434D01*
X35185Y61359D01*
X35251Y61285D01*
X35320Y61215D01*
X38890Y61369D02*
X38960Y61371D01*
X39029Y61377D01*
X39098Y61387D01*
X39166Y61400D01*
X39234Y61418D01*
X39300Y61439D01*
X39365Y61464D01*
X39429Y61492D01*
X39491Y61524D01*
X39551Y61559D01*
X39609Y61598D01*
X39664Y61640D01*
X39718Y61685D01*
X39768Y61733D01*
X39816Y61783D01*
X39861Y61837D01*
X39903Y61892D01*
X39942Y61950D01*
X39977Y62010D01*
X40009Y62072D01*
X40037Y62136D01*
X40062Y62201D01*
X40083Y62267D01*
X40101Y62335D01*
X40114Y62403D01*
X40124Y62472D01*
X40130Y62541D01*
X40132Y62611D01*
X40130Y62705D01*
X40124Y62798D01*
X40115Y62891D01*
X40102Y62984D01*
X40085Y63076D01*
X40065Y63167D01*
X40040Y63258D01*
X40013Y63347D01*
X39981Y63435D01*
X39946Y63522D01*
X39908Y63608D01*
X39866Y63691D01*
X39821Y63773D01*
X39773Y63854D01*
X39721Y63932D01*
X39666Y64008D01*
X37804Y61990D02*
X37840Y61931D01*
X37880Y61875D01*
X37923Y61821D01*
X37968Y61769D01*
X38017Y61720D01*
X38068Y61674D01*
X38121Y61631D01*
X38177Y61590D01*
X38235Y61553D01*
X38295Y61518D01*
X38356Y61488D01*
X38419Y61460D01*
X38484Y61436D01*
X38550Y61416D01*
X38617Y61399D01*
X38684Y61386D01*
X38752Y61377D01*
X38821Y61371D01*
X38890Y61369D01*
X36872Y63697D02*
X36836Y63756D01*
X36796Y63812D01*
X36753Y63866D01*
X36708Y63918D01*
X36659Y63967D01*
X36608Y64013D01*
X36555Y64056D01*
X36499Y64097D01*
X36441Y64134D01*
X36381Y64169D01*
X36320Y64199D01*
X36257Y64227D01*
X36192Y64251D01*
X36126Y64271D01*
X36059Y64288D01*
X35992Y64301D01*
X35924Y64310D01*
X35855Y64316D01*
X35786Y64318D01*
X36872Y63698D02*
X37804Y61990D01*
X40132Y66318D02*
X34544Y67559D01*
X38269Y68801D01*
X34544Y70043D01*
X40132Y71285D01*
X34544Y74692D02*
X34544Y75934D01*
X34544Y74692D02*
X34546Y74622D01*
X34552Y74553D01*
X34562Y74484D01*
X34575Y74416D01*
X34593Y74348D01*
X34614Y74282D01*
X34639Y74217D01*
X34667Y74153D01*
X34699Y74091D01*
X34734Y74031D01*
X34773Y73973D01*
X34815Y73918D01*
X34860Y73864D01*
X34908Y73814D01*
X34958Y73766D01*
X35012Y73721D01*
X35067Y73679D01*
X35125Y73640D01*
X35185Y73605D01*
X35247Y73573D01*
X35311Y73545D01*
X35376Y73520D01*
X35442Y73499D01*
X35510Y73481D01*
X35578Y73468D01*
X35647Y73458D01*
X35716Y73452D01*
X35786Y73450D01*
X35786Y73451D02*
X38890Y73451D01*
X38890Y73450D02*
X38960Y73452D01*
X39029Y73458D01*
X39098Y73468D01*
X39166Y73481D01*
X39234Y73499D01*
X39300Y73520D01*
X39365Y73545D01*
X39429Y73573D01*
X39491Y73605D01*
X39551Y73640D01*
X39609Y73679D01*
X39664Y73721D01*
X39718Y73766D01*
X39768Y73814D01*
X39816Y73864D01*
X39861Y73918D01*
X39903Y73973D01*
X39942Y74031D01*
X39977Y74091D01*
X40009Y74153D01*
X40037Y74217D01*
X40062Y74282D01*
X40083Y74348D01*
X40101Y74416D01*
X40114Y74484D01*
X40124Y74553D01*
X40130Y74622D01*
X40132Y74692D01*
X40132Y75934D01*
D11*
X24130Y157480D02*
X11430Y157480D01*
X24130Y157480D02*
X30480Y151130D01*
X30480Y138430D01*
X24130Y132080D01*
X30480Y125730D01*
X30480Y113030D01*
X24130Y106680D01*
X30480Y100330D01*
X30480Y87630D01*
X24130Y81280D01*
X30480Y74930D01*
X30480Y62230D01*
X24130Y55880D01*
X30480Y49530D01*
X30480Y36830D01*
X24130Y30480D01*
X11430Y30480D01*
X5080Y36830D01*
X5080Y49530D01*
X11430Y55880D01*
X5080Y62230D01*
X5080Y74930D01*
X11430Y81280D01*
X5080Y87630D01*
X5080Y100330D01*
X11430Y106680D01*
X5080Y113030D01*
X5080Y125730D01*
X11430Y132080D01*
X5080Y138430D01*
X5080Y151130D01*
X11430Y157480D01*
D12*
X427609Y30099D02*
X427609Y22733D01*
X427609Y30099D02*
X425563Y30099D01*
X425474Y30097D01*
X425385Y30091D01*
X425296Y30081D01*
X425208Y30068D01*
X425120Y30051D01*
X425033Y30029D01*
X424948Y30004D01*
X424863Y29976D01*
X424780Y29943D01*
X424698Y29907D01*
X424618Y29868D01*
X424540Y29825D01*
X424464Y29779D01*
X424389Y29729D01*
X424317Y29676D01*
X424248Y29620D01*
X424181Y29561D01*
X424116Y29500D01*
X424055Y29435D01*
X423996Y29368D01*
X423940Y29299D01*
X423887Y29227D01*
X423837Y29152D01*
X423791Y29076D01*
X423748Y28998D01*
X423709Y28918D01*
X423673Y28836D01*
X423640Y28753D01*
X423612Y28668D01*
X423587Y28583D01*
X423565Y28496D01*
X423548Y28408D01*
X423535Y28320D01*
X423525Y28231D01*
X423519Y28142D01*
X423517Y28053D01*
X423519Y27964D01*
X423525Y27875D01*
X423535Y27786D01*
X423548Y27698D01*
X423565Y27610D01*
X423587Y27523D01*
X423612Y27438D01*
X423640Y27353D01*
X423673Y27270D01*
X423709Y27188D01*
X423748Y27108D01*
X423791Y27030D01*
X423837Y26954D01*
X423887Y26879D01*
X423940Y26807D01*
X423996Y26738D01*
X424055Y26671D01*
X424116Y26606D01*
X424181Y26545D01*
X424248Y26486D01*
X424317Y26430D01*
X424389Y26377D01*
X424464Y26327D01*
X424540Y26281D01*
X424618Y26238D01*
X424698Y26199D01*
X424780Y26163D01*
X424863Y26130D01*
X424948Y26102D01*
X425033Y26077D01*
X425120Y26055D01*
X425208Y26038D01*
X425296Y26025D01*
X425385Y26015D01*
X425474Y26009D01*
X425563Y26007D01*
X427609Y26007D01*
X421065Y30099D02*
X418609Y26621D01*
X416154Y30099D01*
X418609Y26621D02*
X418609Y22733D01*
X412979Y26825D02*
X410933Y26825D01*
X410844Y26823D01*
X410755Y26817D01*
X410666Y26807D01*
X410578Y26794D01*
X410490Y26777D01*
X410403Y26755D01*
X410318Y26730D01*
X410233Y26702D01*
X410150Y26669D01*
X410068Y26633D01*
X409988Y26594D01*
X409910Y26551D01*
X409834Y26505D01*
X409759Y26455D01*
X409687Y26402D01*
X409618Y26346D01*
X409551Y26287D01*
X409486Y26226D01*
X409425Y26161D01*
X409366Y26094D01*
X409310Y26025D01*
X409257Y25953D01*
X409207Y25878D01*
X409161Y25802D01*
X409118Y25724D01*
X409079Y25644D01*
X409043Y25562D01*
X409010Y25479D01*
X408982Y25394D01*
X408957Y25309D01*
X408935Y25222D01*
X408918Y25134D01*
X408905Y25046D01*
X408895Y24957D01*
X408889Y24868D01*
X408887Y24779D01*
X408889Y24690D01*
X408895Y24601D01*
X408905Y24512D01*
X408918Y24424D01*
X408935Y24336D01*
X408957Y24249D01*
X408982Y24164D01*
X409010Y24079D01*
X409043Y23996D01*
X409079Y23914D01*
X409118Y23834D01*
X409161Y23756D01*
X409207Y23680D01*
X409257Y23605D01*
X409310Y23533D01*
X409366Y23464D01*
X409425Y23397D01*
X409486Y23332D01*
X409551Y23271D01*
X409618Y23212D01*
X409687Y23156D01*
X409759Y23103D01*
X409834Y23053D01*
X409910Y23007D01*
X409988Y22964D01*
X410068Y22925D01*
X410150Y22889D01*
X410233Y22856D01*
X410318Y22828D01*
X410403Y22803D01*
X410490Y22781D01*
X410578Y22764D01*
X410666Y22751D01*
X410755Y22741D01*
X410844Y22735D01*
X410933Y22733D01*
X412979Y22733D01*
X412979Y30099D01*
X410933Y30099D01*
X410854Y30097D01*
X410775Y30091D01*
X410696Y30082D01*
X410618Y30069D01*
X410541Y30051D01*
X410465Y30031D01*
X410390Y30006D01*
X410316Y29978D01*
X410243Y29947D01*
X410172Y29911D01*
X410103Y29873D01*
X410036Y29831D01*
X409971Y29786D01*
X409908Y29738D01*
X409847Y29687D01*
X409790Y29633D01*
X409734Y29577D01*
X409682Y29518D01*
X409632Y29456D01*
X409586Y29392D01*
X409542Y29326D01*
X409502Y29258D01*
X409466Y29188D01*
X409432Y29116D01*
X409402Y29042D01*
X409376Y28968D01*
X409353Y28892D01*
X409335Y28815D01*
X409319Y28738D01*
X409308Y28659D01*
X409300Y28581D01*
X409296Y28502D01*
X409296Y28422D01*
X409300Y28343D01*
X409308Y28265D01*
X409319Y28186D01*
X409335Y28109D01*
X409353Y28032D01*
X409376Y27956D01*
X409402Y27882D01*
X409432Y27808D01*
X409466Y27736D01*
X409502Y27666D01*
X409542Y27598D01*
X409586Y27532D01*
X409632Y27468D01*
X409682Y27406D01*
X409734Y27347D01*
X409790Y27291D01*
X409847Y27237D01*
X409908Y27186D01*
X409971Y27138D01*
X410036Y27093D01*
X410103Y27051D01*
X410172Y27013D01*
X410243Y26977D01*
X410316Y26946D01*
X410390Y26918D01*
X410465Y26893D01*
X410541Y26873D01*
X410618Y26855D01*
X410696Y26842D01*
X410775Y26833D01*
X410854Y26827D01*
X410933Y26825D01*
X405781Y24779D02*
X405781Y30099D01*
X405781Y24779D02*
X405779Y24690D01*
X405773Y24601D01*
X405763Y24512D01*
X405750Y24424D01*
X405733Y24336D01*
X405711Y24249D01*
X405686Y24164D01*
X405658Y24079D01*
X405625Y23996D01*
X405589Y23914D01*
X405550Y23834D01*
X405507Y23756D01*
X405461Y23680D01*
X405411Y23605D01*
X405358Y23533D01*
X405302Y23464D01*
X405243Y23397D01*
X405182Y23332D01*
X405117Y23271D01*
X405050Y23212D01*
X404981Y23156D01*
X404909Y23103D01*
X404834Y23053D01*
X404758Y23007D01*
X404680Y22964D01*
X404600Y22925D01*
X404518Y22889D01*
X404435Y22856D01*
X404350Y22828D01*
X404265Y22803D01*
X404178Y22781D01*
X404090Y22764D01*
X404002Y22751D01*
X403913Y22741D01*
X403824Y22735D01*
X403735Y22733D01*
X403646Y22735D01*
X403557Y22741D01*
X403468Y22751D01*
X403380Y22764D01*
X403292Y22781D01*
X403205Y22803D01*
X403120Y22828D01*
X403035Y22856D01*
X402952Y22889D01*
X402870Y22925D01*
X402790Y22964D01*
X402712Y23007D01*
X402636Y23053D01*
X402561Y23103D01*
X402489Y23156D01*
X402420Y23212D01*
X402353Y23271D01*
X402288Y23332D01*
X402227Y23397D01*
X402168Y23464D01*
X402112Y23533D01*
X402059Y23605D01*
X402009Y23680D01*
X401963Y23756D01*
X401920Y23834D01*
X401881Y23914D01*
X401845Y23996D01*
X401812Y24079D01*
X401784Y24164D01*
X401759Y24249D01*
X401737Y24336D01*
X401720Y24424D01*
X401707Y24512D01*
X401697Y24601D01*
X401691Y24690D01*
X401689Y24779D01*
X401689Y30099D01*
X395114Y26825D02*
X393886Y26825D01*
X393886Y22733D01*
X396341Y22733D01*
X396419Y22735D01*
X396497Y22740D01*
X396574Y22750D01*
X396651Y22763D01*
X396727Y22779D01*
X396802Y22799D01*
X396876Y22823D01*
X396949Y22850D01*
X397021Y22881D01*
X397091Y22915D01*
X397160Y22952D01*
X397226Y22993D01*
X397291Y23037D01*
X397353Y23083D01*
X397413Y23133D01*
X397471Y23185D01*
X397526Y23240D01*
X397578Y23298D01*
X397628Y23358D01*
X397674Y23420D01*
X397718Y23485D01*
X397759Y23552D01*
X397796Y23620D01*
X397830Y23690D01*
X397861Y23762D01*
X397888Y23835D01*
X397912Y23909D01*
X397932Y23984D01*
X397948Y24060D01*
X397961Y24137D01*
X397971Y24214D01*
X397976Y24292D01*
X397978Y24370D01*
X397978Y28462D01*
X397976Y28540D01*
X397971Y28618D01*
X397961Y28695D01*
X397948Y28772D01*
X397932Y28848D01*
X397912Y28923D01*
X397888Y28997D01*
X397861Y29070D01*
X397830Y29142D01*
X397796Y29212D01*
X397759Y29281D01*
X397718Y29347D01*
X397674Y29412D01*
X397628Y29474D01*
X397578Y29534D01*
X397526Y29592D01*
X397471Y29647D01*
X397413Y29699D01*
X397353Y29749D01*
X397291Y29795D01*
X397226Y29839D01*
X397160Y29880D01*
X397091Y29917D01*
X397021Y29951D01*
X396949Y29982D01*
X396876Y30009D01*
X396802Y30033D01*
X396727Y30053D01*
X396651Y30069D01*
X396574Y30082D01*
X396497Y30092D01*
X396419Y30097D01*
X396341Y30099D01*
X393886Y30099D01*
X390419Y22733D02*
X388373Y22733D01*
X388284Y22735D01*
X388195Y22741D01*
X388106Y22751D01*
X388018Y22764D01*
X387930Y22781D01*
X387843Y22803D01*
X387758Y22828D01*
X387673Y22856D01*
X387590Y22889D01*
X387508Y22925D01*
X387428Y22964D01*
X387350Y23007D01*
X387274Y23053D01*
X387199Y23103D01*
X387127Y23156D01*
X387058Y23212D01*
X386991Y23271D01*
X386926Y23332D01*
X386865Y23397D01*
X386806Y23464D01*
X386750Y23533D01*
X386697Y23605D01*
X386647Y23680D01*
X386601Y23756D01*
X386558Y23834D01*
X386519Y23914D01*
X386483Y23996D01*
X386450Y24079D01*
X386422Y24164D01*
X386397Y24249D01*
X386375Y24336D01*
X386358Y24424D01*
X386345Y24512D01*
X386335Y24601D01*
X386329Y24690D01*
X386327Y24779D01*
X386329Y24868D01*
X386335Y24957D01*
X386345Y25046D01*
X386358Y25134D01*
X386375Y25222D01*
X386397Y25309D01*
X386422Y25394D01*
X386450Y25479D01*
X386483Y25562D01*
X386519Y25644D01*
X386558Y25724D01*
X386601Y25802D01*
X386647Y25878D01*
X386697Y25953D01*
X386750Y26025D01*
X386806Y26094D01*
X386865Y26161D01*
X386926Y26226D01*
X386991Y26287D01*
X387058Y26346D01*
X387127Y26402D01*
X387199Y26455D01*
X387274Y26505D01*
X387350Y26551D01*
X387428Y26594D01*
X387508Y26633D01*
X387590Y26669D01*
X387673Y26702D01*
X387758Y26730D01*
X387843Y26755D01*
X387930Y26777D01*
X388018Y26794D01*
X388106Y26807D01*
X388195Y26817D01*
X388284Y26823D01*
X388373Y26825D01*
X387964Y30099D02*
X390419Y30099D01*
X387964Y30099D02*
X387885Y30097D01*
X387806Y30091D01*
X387727Y30082D01*
X387649Y30069D01*
X387572Y30051D01*
X387496Y30031D01*
X387421Y30006D01*
X387347Y29978D01*
X387274Y29947D01*
X387203Y29911D01*
X387134Y29873D01*
X387067Y29831D01*
X387002Y29786D01*
X386939Y29738D01*
X386878Y29687D01*
X386821Y29633D01*
X386765Y29577D01*
X386713Y29518D01*
X386663Y29456D01*
X386617Y29392D01*
X386573Y29326D01*
X386533Y29258D01*
X386497Y29188D01*
X386463Y29116D01*
X386433Y29042D01*
X386407Y28968D01*
X386384Y28892D01*
X386366Y28815D01*
X386350Y28738D01*
X386339Y28659D01*
X386331Y28581D01*
X386327Y28502D01*
X386327Y28422D01*
X386331Y28343D01*
X386339Y28265D01*
X386350Y28186D01*
X386366Y28109D01*
X386384Y28032D01*
X386407Y27956D01*
X386433Y27882D01*
X386463Y27808D01*
X386497Y27736D01*
X386533Y27666D01*
X386573Y27598D01*
X386617Y27532D01*
X386663Y27468D01*
X386713Y27406D01*
X386765Y27347D01*
X386821Y27291D01*
X386878Y27237D01*
X386939Y27186D01*
X387002Y27138D01*
X387067Y27093D01*
X387134Y27051D01*
X387203Y27013D01*
X387274Y26977D01*
X387347Y26946D01*
X387421Y26918D01*
X387496Y26893D01*
X387572Y26873D01*
X387649Y26855D01*
X387727Y26842D01*
X387806Y26833D01*
X387885Y26827D01*
X387964Y26825D01*
X389601Y26825D01*
X380853Y30100D02*
X380768Y30098D01*
X380683Y30092D01*
X380599Y30082D01*
X380515Y30069D01*
X380431Y30051D01*
X380349Y30030D01*
X380268Y30005D01*
X380188Y29976D01*
X380109Y29943D01*
X380032Y29907D01*
X379957Y29867D01*
X379883Y29824D01*
X379812Y29778D01*
X379743Y29728D01*
X379676Y29675D01*
X379612Y29619D01*
X379551Y29560D01*
X379492Y29499D01*
X379436Y29435D01*
X379383Y29368D01*
X379333Y29299D01*
X379287Y29228D01*
X379244Y29154D01*
X379204Y29079D01*
X379168Y29002D01*
X379135Y28923D01*
X379106Y28843D01*
X379081Y28762D01*
X379060Y28680D01*
X379042Y28596D01*
X379029Y28512D01*
X379019Y28428D01*
X379013Y28343D01*
X379011Y28258D01*
X380853Y30099D02*
X380949Y30097D01*
X381045Y30091D01*
X381140Y30081D01*
X381235Y30068D01*
X381330Y30050D01*
X381423Y30029D01*
X381516Y30004D01*
X381607Y29975D01*
X381698Y29943D01*
X381787Y29907D01*
X381874Y29867D01*
X381960Y29824D01*
X382044Y29778D01*
X382126Y29728D01*
X382206Y29674D01*
X382283Y29618D01*
X382358Y29558D01*
X382431Y29496D01*
X382501Y29430D01*
X382569Y29362D01*
X382634Y29291D01*
X382695Y29218D01*
X382754Y29142D01*
X382810Y29063D01*
X382862Y28983D01*
X382911Y28900D01*
X382957Y28816D01*
X382999Y28730D01*
X383037Y28642D01*
X383072Y28553D01*
X383104Y28462D01*
X379626Y26826D02*
X379566Y26885D01*
X379509Y26947D01*
X379454Y27011D01*
X379403Y27078D01*
X379354Y27147D01*
X379308Y27217D01*
X379265Y27290D01*
X379225Y27364D01*
X379189Y27440D01*
X379156Y27518D01*
X379126Y27597D01*
X379099Y27677D01*
X379076Y27758D01*
X379057Y27840D01*
X379041Y27922D01*
X379028Y28006D01*
X379019Y28090D01*
X379014Y28174D01*
X379012Y28258D01*
X379626Y26825D02*
X383104Y22733D01*
X379012Y22733D01*
X375710Y25598D02*
X370800Y25598D01*
X367498Y22733D02*
X365452Y22733D01*
X365363Y22735D01*
X365274Y22741D01*
X365185Y22751D01*
X365097Y22764D01*
X365009Y22781D01*
X364922Y22803D01*
X364837Y22828D01*
X364752Y22856D01*
X364669Y22889D01*
X364587Y22925D01*
X364507Y22964D01*
X364429Y23007D01*
X364353Y23053D01*
X364278Y23103D01*
X364206Y23156D01*
X364137Y23212D01*
X364070Y23271D01*
X364005Y23332D01*
X363944Y23397D01*
X363885Y23464D01*
X363829Y23533D01*
X363776Y23605D01*
X363726Y23680D01*
X363680Y23756D01*
X363637Y23834D01*
X363598Y23914D01*
X363562Y23996D01*
X363529Y24079D01*
X363501Y24164D01*
X363476Y24249D01*
X363454Y24336D01*
X363437Y24424D01*
X363424Y24512D01*
X363414Y24601D01*
X363408Y24690D01*
X363406Y24779D01*
X363408Y24868D01*
X363414Y24957D01*
X363424Y25046D01*
X363437Y25134D01*
X363454Y25222D01*
X363476Y25309D01*
X363501Y25394D01*
X363529Y25479D01*
X363562Y25562D01*
X363598Y25644D01*
X363637Y25724D01*
X363680Y25802D01*
X363726Y25878D01*
X363776Y25953D01*
X363829Y26025D01*
X363885Y26094D01*
X363944Y26161D01*
X364005Y26226D01*
X364070Y26287D01*
X364137Y26346D01*
X364206Y26402D01*
X364278Y26455D01*
X364353Y26505D01*
X364429Y26551D01*
X364507Y26594D01*
X364587Y26633D01*
X364669Y26669D01*
X364752Y26702D01*
X364837Y26730D01*
X364922Y26755D01*
X365009Y26777D01*
X365097Y26794D01*
X365185Y26807D01*
X365274Y26817D01*
X365363Y26823D01*
X365452Y26825D01*
X365043Y30099D02*
X367498Y30099D01*
X365043Y30099D02*
X364964Y30097D01*
X364885Y30091D01*
X364806Y30082D01*
X364728Y30069D01*
X364651Y30051D01*
X364575Y30031D01*
X364500Y30006D01*
X364426Y29978D01*
X364353Y29947D01*
X364282Y29911D01*
X364213Y29873D01*
X364146Y29831D01*
X364081Y29786D01*
X364018Y29738D01*
X363957Y29687D01*
X363900Y29633D01*
X363844Y29577D01*
X363792Y29518D01*
X363742Y29456D01*
X363696Y29392D01*
X363652Y29326D01*
X363612Y29258D01*
X363576Y29188D01*
X363542Y29116D01*
X363512Y29042D01*
X363486Y28968D01*
X363463Y28892D01*
X363445Y28815D01*
X363429Y28738D01*
X363418Y28659D01*
X363410Y28581D01*
X363406Y28502D01*
X363406Y28422D01*
X363410Y28343D01*
X363418Y28265D01*
X363429Y28186D01*
X363445Y28109D01*
X363463Y28032D01*
X363486Y27956D01*
X363512Y27882D01*
X363542Y27808D01*
X363576Y27736D01*
X363612Y27666D01*
X363652Y27598D01*
X363696Y27532D01*
X363742Y27468D01*
X363792Y27406D01*
X363844Y27347D01*
X363900Y27291D01*
X363957Y27237D01*
X364018Y27186D01*
X364081Y27138D01*
X364146Y27093D01*
X364213Y27051D01*
X364282Y27013D01*
X364353Y26977D01*
X364426Y26946D01*
X364500Y26918D01*
X364575Y26893D01*
X364651Y26873D01*
X364728Y26855D01*
X364806Y26842D01*
X364885Y26833D01*
X364964Y26827D01*
X365043Y26825D01*
X366680Y26825D01*
X360183Y26416D02*
X360181Y26569D01*
X360175Y26722D01*
X360166Y26874D01*
X360152Y27027D01*
X360135Y27179D01*
X360114Y27330D01*
X360089Y27481D01*
X360060Y27631D01*
X360028Y27781D01*
X359991Y27929D01*
X359951Y28077D01*
X359908Y28224D01*
X359860Y28369D01*
X359809Y28513D01*
X359755Y28656D01*
X359696Y28798D01*
X359635Y28937D01*
X359569Y29076D01*
X359543Y29146D01*
X359513Y29215D01*
X359481Y29283D01*
X359444Y29349D01*
X359405Y29413D01*
X359362Y29475D01*
X359317Y29534D01*
X359268Y29592D01*
X359217Y29646D01*
X359163Y29699D01*
X359106Y29748D01*
X359047Y29795D01*
X358986Y29838D01*
X358923Y29879D01*
X358858Y29916D01*
X358791Y29951D01*
X358722Y29981D01*
X358652Y30009D01*
X358581Y30032D01*
X358509Y30053D01*
X358436Y30069D01*
X358362Y30082D01*
X358287Y30092D01*
X358212Y30097D01*
X358137Y30099D01*
X358062Y30097D01*
X357987Y30092D01*
X357912Y30082D01*
X357838Y30069D01*
X357765Y30053D01*
X357693Y30032D01*
X357622Y30009D01*
X357552Y29981D01*
X357483Y29951D01*
X357416Y29916D01*
X357351Y29879D01*
X357288Y29838D01*
X357227Y29795D01*
X357168Y29748D01*
X357111Y29699D01*
X357057Y29646D01*
X357006Y29592D01*
X356958Y29534D01*
X356912Y29475D01*
X356869Y29413D01*
X356830Y29349D01*
X356794Y29283D01*
X356761Y29216D01*
X356731Y29146D01*
X356705Y29076D01*
X356640Y28938D01*
X356578Y28798D01*
X356520Y28656D01*
X356465Y28513D01*
X356414Y28369D01*
X356366Y28224D01*
X356323Y28077D01*
X356283Y27930D01*
X356246Y27781D01*
X356214Y27631D01*
X356185Y27481D01*
X356160Y27330D01*
X356139Y27179D01*
X356122Y27027D01*
X356108Y26874D01*
X356099Y26722D01*
X356093Y26569D01*
X356091Y26416D01*
X360184Y26416D02*
X360182Y26263D01*
X360176Y26110D01*
X360167Y25957D01*
X360153Y25805D01*
X360136Y25653D01*
X360115Y25502D01*
X360090Y25351D01*
X360061Y25200D01*
X360029Y25051D01*
X359992Y24902D01*
X359952Y24755D01*
X359909Y24608D01*
X359861Y24463D01*
X359810Y24318D01*
X359755Y24176D01*
X359697Y24034D01*
X359635Y23894D01*
X359570Y23756D01*
X359569Y23756D02*
X359543Y23686D01*
X359513Y23616D01*
X359481Y23549D01*
X359444Y23483D01*
X359405Y23419D01*
X359362Y23357D01*
X359316Y23298D01*
X359268Y23240D01*
X359217Y23186D01*
X359163Y23133D01*
X359106Y23084D01*
X359047Y23037D01*
X358986Y22994D01*
X358923Y22953D01*
X358858Y22916D01*
X358791Y22881D01*
X358722Y22851D01*
X358652Y22823D01*
X358581Y22800D01*
X358509Y22779D01*
X358436Y22763D01*
X358362Y22750D01*
X358287Y22740D01*
X358212Y22735D01*
X358137Y22733D01*
X356705Y23756D02*
X356640Y23894D01*
X356578Y24034D01*
X356520Y24176D01*
X356465Y24319D01*
X356414Y24463D01*
X356366Y24608D01*
X356323Y24755D01*
X356283Y24903D01*
X356246Y25051D01*
X356214Y25201D01*
X356185Y25351D01*
X356160Y25502D01*
X356139Y25653D01*
X356122Y25805D01*
X356108Y25958D01*
X356099Y26110D01*
X356093Y26263D01*
X356091Y26416D01*
X356705Y23756D02*
X356731Y23685D01*
X356761Y23616D01*
X356794Y23549D01*
X356830Y23483D01*
X356869Y23419D01*
X356912Y23357D01*
X356958Y23298D01*
X357006Y23240D01*
X357057Y23186D01*
X357111Y23133D01*
X357168Y23084D01*
X357227Y23037D01*
X357288Y22994D01*
X357351Y22953D01*
X357416Y22916D01*
X357483Y22881D01*
X357552Y22851D01*
X357622Y22823D01*
X357693Y22800D01*
X357765Y22779D01*
X357838Y22763D01*
X357912Y22750D01*
X357987Y22740D01*
X358062Y22735D01*
X358137Y22733D01*
X359774Y24370D02*
X356500Y28462D01*
X427609Y17907D02*
X427609Y10541D01*
X427609Y17907D02*
X425563Y17907D01*
X425474Y17905D01*
X425385Y17899D01*
X425296Y17889D01*
X425208Y17876D01*
X425120Y17859D01*
X425033Y17837D01*
X424948Y17812D01*
X424863Y17784D01*
X424780Y17751D01*
X424698Y17715D01*
X424618Y17676D01*
X424540Y17633D01*
X424464Y17587D01*
X424389Y17537D01*
X424317Y17484D01*
X424248Y17428D01*
X424181Y17369D01*
X424116Y17308D01*
X424055Y17243D01*
X423996Y17176D01*
X423940Y17107D01*
X423887Y17035D01*
X423837Y16960D01*
X423791Y16884D01*
X423748Y16806D01*
X423709Y16726D01*
X423673Y16644D01*
X423640Y16561D01*
X423612Y16476D01*
X423587Y16391D01*
X423565Y16304D01*
X423548Y16216D01*
X423535Y16128D01*
X423525Y16039D01*
X423519Y15950D01*
X423517Y15861D01*
X423519Y15772D01*
X423525Y15683D01*
X423535Y15594D01*
X423548Y15506D01*
X423565Y15418D01*
X423587Y15331D01*
X423612Y15246D01*
X423640Y15161D01*
X423673Y15078D01*
X423709Y14996D01*
X423748Y14916D01*
X423791Y14838D01*
X423837Y14762D01*
X423887Y14687D01*
X423940Y14615D01*
X423996Y14546D01*
X424055Y14479D01*
X424116Y14414D01*
X424181Y14353D01*
X424248Y14294D01*
X424317Y14238D01*
X424389Y14185D01*
X424464Y14135D01*
X424540Y14089D01*
X424618Y14046D01*
X424698Y14007D01*
X424780Y13971D01*
X424863Y13938D01*
X424948Y13910D01*
X425033Y13885D01*
X425120Y13863D01*
X425208Y13846D01*
X425296Y13833D01*
X425385Y13823D01*
X425474Y13817D01*
X425563Y13815D01*
X427609Y13815D01*
X425154Y13815D02*
X423517Y10541D01*
X419196Y10541D02*
X417150Y10541D01*
X419196Y10541D02*
X419265Y10543D01*
X419333Y10549D01*
X419402Y10558D01*
X419469Y10572D01*
X419536Y10589D01*
X419602Y10610D01*
X419666Y10634D01*
X419729Y10663D01*
X419790Y10694D01*
X419849Y10729D01*
X419907Y10767D01*
X419962Y10809D01*
X420014Y10853D01*
X420064Y10901D01*
X420112Y10951D01*
X420156Y11003D01*
X420198Y11058D01*
X420236Y11116D01*
X420271Y11175D01*
X420302Y11236D01*
X420331Y11299D01*
X420355Y11363D01*
X420376Y11429D01*
X420393Y11496D01*
X420407Y11563D01*
X420416Y11632D01*
X420422Y11700D01*
X420424Y11769D01*
X420423Y11769D02*
X420423Y13815D01*
X420424Y13815D02*
X420422Y13894D01*
X420416Y13973D01*
X420407Y14052D01*
X420394Y14130D01*
X420376Y14207D01*
X420356Y14283D01*
X420331Y14358D01*
X420303Y14432D01*
X420272Y14505D01*
X420236Y14576D01*
X420198Y14645D01*
X420156Y14712D01*
X420111Y14777D01*
X420063Y14840D01*
X420012Y14901D01*
X419958Y14958D01*
X419902Y15014D01*
X419843Y15066D01*
X419781Y15116D01*
X419717Y15162D01*
X419651Y15206D01*
X419583Y15246D01*
X419513Y15282D01*
X419441Y15316D01*
X419367Y15346D01*
X419293Y15372D01*
X419217Y15395D01*
X419140Y15413D01*
X419063Y15429D01*
X418984Y15440D01*
X418906Y15448D01*
X418827Y15452D01*
X418747Y15452D01*
X418668Y15448D01*
X418590Y15440D01*
X418511Y15429D01*
X418434Y15413D01*
X418357Y15395D01*
X418281Y15372D01*
X418207Y15346D01*
X418133Y15316D01*
X418061Y15282D01*
X417991Y15246D01*
X417923Y15206D01*
X417857Y15162D01*
X417793Y15116D01*
X417731Y15066D01*
X417672Y15014D01*
X417616Y14958D01*
X417562Y14901D01*
X417511Y14840D01*
X417463Y14777D01*
X417418Y14712D01*
X417376Y14645D01*
X417338Y14576D01*
X417302Y14505D01*
X417271Y14432D01*
X417243Y14358D01*
X417218Y14283D01*
X417198Y14207D01*
X417180Y14130D01*
X417167Y14052D01*
X417158Y13973D01*
X417152Y13894D01*
X417150Y13815D01*
X417150Y12996D01*
X420423Y12996D01*
X414327Y15452D02*
X412691Y10541D01*
X411054Y15452D01*
X408562Y10541D02*
X406107Y17907D01*
X403652Y10541D01*
X404265Y12383D02*
X407948Y12383D01*
D10*
X34544Y35814D02*
X34544Y37366D01*
X34546Y37443D01*
X34552Y37521D01*
X34561Y37597D01*
X34575Y37674D01*
X34592Y37749D01*
X34613Y37823D01*
X34638Y37897D01*
X34666Y37969D01*
X34698Y38039D01*
X34733Y38108D01*
X34772Y38175D01*
X34814Y38240D01*
X34859Y38303D01*
X34907Y38364D01*
X34958Y38422D01*
X35012Y38477D01*
X35069Y38530D01*
X35128Y38579D01*
X35190Y38626D01*
X35254Y38670D01*
X35320Y38710D01*
X35388Y38747D01*
X35458Y38781D01*
X35529Y38811D01*
X35602Y38837D01*
X35676Y38860D01*
X35751Y38879D01*
X35826Y38894D01*
X35903Y38906D01*
X35980Y38914D01*
X36057Y38918D01*
X36135Y38918D01*
X36212Y38914D01*
X36289Y38906D01*
X36366Y38894D01*
X36441Y38879D01*
X36516Y38860D01*
X36590Y38837D01*
X36663Y38811D01*
X36734Y38781D01*
X36804Y38747D01*
X36872Y38710D01*
X36938Y38670D01*
X37002Y38626D01*
X37064Y38579D01*
X37123Y38530D01*
X37180Y38477D01*
X37234Y38422D01*
X37285Y38364D01*
X37333Y38303D01*
X37378Y38240D01*
X37420Y38175D01*
X37459Y38108D01*
X37494Y38039D01*
X37526Y37969D01*
X37554Y37897D01*
X37579Y37823D01*
X37600Y37749D01*
X37617Y37674D01*
X37631Y37597D01*
X37640Y37521D01*
X37646Y37443D01*
X37648Y37366D01*
X40132Y37677D02*
X40132Y35814D01*
X40132Y37677D02*
X40130Y37747D01*
X40124Y37816D01*
X40114Y37885D01*
X40101Y37953D01*
X40083Y38021D01*
X40062Y38087D01*
X40037Y38152D01*
X40009Y38216D01*
X39977Y38278D01*
X39942Y38338D01*
X39903Y38396D01*
X39861Y38451D01*
X39816Y38505D01*
X39768Y38555D01*
X39718Y38603D01*
X39664Y38648D01*
X39609Y38690D01*
X39551Y38729D01*
X39491Y38764D01*
X39429Y38796D01*
X39365Y38824D01*
X39300Y38849D01*
X39234Y38870D01*
X39166Y38888D01*
X39098Y38901D01*
X39029Y38911D01*
X38960Y38917D01*
X38890Y38919D01*
X38820Y38917D01*
X38751Y38911D01*
X38682Y38901D01*
X38614Y38888D01*
X38546Y38870D01*
X38480Y38849D01*
X38415Y38824D01*
X38351Y38796D01*
X38289Y38764D01*
X38229Y38729D01*
X38171Y38690D01*
X38116Y38648D01*
X38062Y38603D01*
X38012Y38555D01*
X37964Y38505D01*
X37919Y38451D01*
X37877Y38396D01*
X37838Y38338D01*
X37803Y38278D01*
X37771Y38216D01*
X37743Y38152D01*
X37718Y38087D01*
X37697Y38021D01*
X37679Y37953D01*
X37666Y37885D01*
X37656Y37816D01*
X37650Y37747D01*
X37648Y37677D01*
X37648Y36435D01*
X40132Y40990D02*
X34544Y42853D01*
X40132Y44715D01*
X34544Y46787D02*
X34544Y48339D01*
X34546Y48416D01*
X34552Y48494D01*
X34561Y48570D01*
X34575Y48647D01*
X34592Y48722D01*
X34613Y48796D01*
X34638Y48870D01*
X34666Y48942D01*
X34698Y49012D01*
X34733Y49081D01*
X34772Y49148D01*
X34814Y49213D01*
X34859Y49276D01*
X34907Y49337D01*
X34958Y49395D01*
X35012Y49450D01*
X35069Y49503D01*
X35128Y49552D01*
X35190Y49599D01*
X35254Y49643D01*
X35320Y49683D01*
X35388Y49720D01*
X35458Y49754D01*
X35529Y49784D01*
X35602Y49810D01*
X35676Y49833D01*
X35751Y49852D01*
X35826Y49867D01*
X35903Y49879D01*
X35980Y49887D01*
X36057Y49891D01*
X36135Y49891D01*
X36212Y49887D01*
X36289Y49879D01*
X36366Y49867D01*
X36441Y49852D01*
X36516Y49833D01*
X36590Y49810D01*
X36663Y49784D01*
X36734Y49754D01*
X36804Y49720D01*
X36872Y49683D01*
X36938Y49643D01*
X37002Y49599D01*
X37064Y49552D01*
X37123Y49503D01*
X37180Y49450D01*
X37234Y49395D01*
X37285Y49337D01*
X37333Y49276D01*
X37378Y49213D01*
X37420Y49148D01*
X37459Y49081D01*
X37494Y49012D01*
X37526Y48942D01*
X37554Y48870D01*
X37579Y48796D01*
X37600Y48722D01*
X37617Y48647D01*
X37631Y48570D01*
X37640Y48494D01*
X37646Y48416D01*
X37648Y48339D01*
X40132Y48649D02*
X40132Y46787D01*
X40132Y48649D02*
X40130Y48719D01*
X40124Y48788D01*
X40114Y48857D01*
X40101Y48925D01*
X40083Y48993D01*
X40062Y49059D01*
X40037Y49124D01*
X40009Y49188D01*
X39977Y49250D01*
X39942Y49310D01*
X39903Y49368D01*
X39861Y49423D01*
X39816Y49477D01*
X39768Y49527D01*
X39718Y49575D01*
X39664Y49620D01*
X39609Y49662D01*
X39551Y49701D01*
X39491Y49736D01*
X39429Y49768D01*
X39365Y49796D01*
X39300Y49821D01*
X39234Y49842D01*
X39166Y49860D01*
X39098Y49873D01*
X39029Y49883D01*
X38960Y49889D01*
X38890Y49891D01*
X38820Y49889D01*
X38751Y49883D01*
X38682Y49873D01*
X38614Y49860D01*
X38546Y49842D01*
X38480Y49821D01*
X38415Y49796D01*
X38351Y49768D01*
X38289Y49736D01*
X38229Y49701D01*
X38171Y49662D01*
X38116Y49620D01*
X38062Y49575D01*
X38012Y49527D01*
X37964Y49477D01*
X37919Y49423D01*
X37877Y49368D01*
X37838Y49310D01*
X37803Y49250D01*
X37771Y49188D01*
X37743Y49124D01*
X37718Y49059D01*
X37697Y48993D01*
X37679Y48925D01*
X37666Y48857D01*
X37656Y48788D01*
X37650Y48719D01*
X37648Y48649D01*
X37648Y47408D01*
D11*
X49530Y106680D02*
X59690Y106680D01*
X66040Y100330D01*
X66040Y62230D01*
X59690Y55880D01*
X49530Y55880D01*
D10*
X70104Y75184D02*
X75692Y75184D01*
X75692Y76736D01*
X75690Y76813D01*
X75684Y76891D01*
X75675Y76967D01*
X75661Y77044D01*
X75644Y77119D01*
X75623Y77193D01*
X75598Y77267D01*
X75570Y77339D01*
X75538Y77409D01*
X75503Y77478D01*
X75464Y77545D01*
X75422Y77610D01*
X75377Y77673D01*
X75329Y77734D01*
X75278Y77792D01*
X75224Y77847D01*
X75167Y77900D01*
X75108Y77949D01*
X75046Y77996D01*
X74982Y78040D01*
X74916Y78080D01*
X74848Y78117D01*
X74778Y78151D01*
X74707Y78181D01*
X74634Y78207D01*
X74560Y78230D01*
X74485Y78249D01*
X74410Y78264D01*
X74333Y78276D01*
X74256Y78284D01*
X74179Y78288D01*
X74101Y78288D01*
X74024Y78284D01*
X73947Y78276D01*
X73870Y78264D01*
X73795Y78249D01*
X73720Y78230D01*
X73646Y78207D01*
X73573Y78181D01*
X73502Y78151D01*
X73432Y78117D01*
X73364Y78080D01*
X73298Y78040D01*
X73234Y77996D01*
X73172Y77949D01*
X73113Y77900D01*
X73056Y77847D01*
X73002Y77792D01*
X72951Y77734D01*
X72903Y77673D01*
X72858Y77610D01*
X72816Y77545D01*
X72777Y77478D01*
X72742Y77409D01*
X72710Y77339D01*
X72682Y77267D01*
X72657Y77193D01*
X72636Y77119D01*
X72619Y77044D01*
X72605Y76967D01*
X72596Y76891D01*
X72590Y76813D01*
X72588Y76736D01*
X72588Y75184D01*
X70104Y80623D02*
X75692Y80623D01*
X75692Y82176D01*
X75690Y82253D01*
X75684Y82331D01*
X75675Y82407D01*
X75661Y82484D01*
X75644Y82559D01*
X75623Y82633D01*
X75598Y82707D01*
X75570Y82779D01*
X75538Y82849D01*
X75503Y82918D01*
X75464Y82985D01*
X75422Y83050D01*
X75377Y83113D01*
X75329Y83174D01*
X75278Y83232D01*
X75224Y83287D01*
X75167Y83340D01*
X75108Y83389D01*
X75046Y83436D01*
X74982Y83480D01*
X74916Y83520D01*
X74848Y83557D01*
X74778Y83591D01*
X74707Y83621D01*
X74634Y83647D01*
X74560Y83670D01*
X74485Y83689D01*
X74410Y83704D01*
X74333Y83716D01*
X74256Y83724D01*
X74179Y83728D01*
X74101Y83728D01*
X74024Y83724D01*
X73947Y83716D01*
X73870Y83704D01*
X73795Y83689D01*
X73720Y83670D01*
X73646Y83647D01*
X73573Y83621D01*
X73502Y83591D01*
X73432Y83557D01*
X73364Y83520D01*
X73298Y83480D01*
X73234Y83436D01*
X73172Y83389D01*
X73113Y83340D01*
X73056Y83287D01*
X73002Y83232D01*
X72951Y83174D01*
X72903Y83113D01*
X72858Y83050D01*
X72816Y82985D01*
X72777Y82918D01*
X72742Y82849D01*
X72710Y82779D01*
X72682Y82707D01*
X72657Y82633D01*
X72636Y82559D01*
X72619Y82484D01*
X72605Y82407D01*
X72596Y82331D01*
X72590Y82253D01*
X72588Y82176D01*
X72588Y80623D01*
X72588Y82486D02*
X70104Y83728D01*
X73208Y88430D02*
X73208Y89361D01*
X70104Y89361D01*
X70104Y87498D01*
X70106Y87428D01*
X70112Y87359D01*
X70122Y87290D01*
X70135Y87222D01*
X70153Y87154D01*
X70174Y87088D01*
X70199Y87023D01*
X70227Y86959D01*
X70259Y86897D01*
X70294Y86837D01*
X70333Y86779D01*
X70375Y86724D01*
X70420Y86670D01*
X70468Y86620D01*
X70518Y86572D01*
X70572Y86527D01*
X70627Y86485D01*
X70685Y86446D01*
X70745Y86411D01*
X70807Y86379D01*
X70871Y86351D01*
X70936Y86326D01*
X71002Y86305D01*
X71070Y86287D01*
X71138Y86274D01*
X71207Y86264D01*
X71276Y86258D01*
X71346Y86256D01*
X71346Y86257D02*
X74450Y86257D01*
X74450Y86256D02*
X74520Y86258D01*
X74589Y86264D01*
X74658Y86274D01*
X74726Y86287D01*
X74794Y86305D01*
X74860Y86326D01*
X74925Y86351D01*
X74989Y86379D01*
X75051Y86411D01*
X75111Y86446D01*
X75169Y86485D01*
X75224Y86527D01*
X75278Y86572D01*
X75328Y86620D01*
X75376Y86670D01*
X75421Y86724D01*
X75463Y86779D01*
X75502Y86837D01*
X75537Y86897D01*
X75569Y86959D01*
X75597Y87023D01*
X75622Y87088D01*
X75643Y87154D01*
X75661Y87222D01*
X75674Y87290D01*
X75684Y87359D01*
X75690Y87428D01*
X75692Y87498D01*
X75692Y89361D01*
X181356Y32766D02*
X181356Y28194D01*
X181356Y32766D02*
X180086Y32766D01*
X180016Y32764D01*
X179946Y32758D01*
X179877Y32749D01*
X179808Y32735D01*
X179740Y32718D01*
X179674Y32697D01*
X179608Y32673D01*
X179544Y32645D01*
X179482Y32613D01*
X179421Y32578D01*
X179362Y32540D01*
X179306Y32498D01*
X179252Y32454D01*
X179200Y32406D01*
X179152Y32356D01*
X179106Y32303D01*
X179063Y32248D01*
X179023Y32191D01*
X178986Y32131D01*
X178953Y32069D01*
X178923Y32006D01*
X178897Y31941D01*
X178874Y31875D01*
X178855Y31808D01*
X178840Y31739D01*
X178828Y31670D01*
X178820Y31601D01*
X178816Y31531D01*
X178816Y31461D01*
X178820Y31391D01*
X178828Y31322D01*
X178840Y31253D01*
X178855Y31184D01*
X178874Y31117D01*
X178897Y31051D01*
X178923Y30986D01*
X178953Y30923D01*
X178986Y30861D01*
X179023Y30801D01*
X179063Y30744D01*
X179106Y30689D01*
X179152Y30636D01*
X179200Y30586D01*
X179252Y30538D01*
X179306Y30494D01*
X179362Y30452D01*
X179421Y30414D01*
X179482Y30379D01*
X179544Y30347D01*
X179608Y30319D01*
X179674Y30295D01*
X179740Y30274D01*
X179808Y30257D01*
X179877Y30243D01*
X179946Y30234D01*
X180016Y30228D01*
X180086Y30226D01*
X181356Y30226D01*
X179832Y30226D02*
X178816Y28194D01*
X177071Y28194D02*
X174023Y32766D01*
X177071Y32766D02*
X174023Y28194D01*
X172321Y28575D02*
X172321Y28829D01*
X172067Y28829D01*
X172067Y28575D01*
X172321Y28575D01*
X172321Y30607D02*
X172321Y30861D01*
X172067Y30861D01*
X172067Y30607D01*
X172321Y30607D01*
X170366Y28194D02*
X168842Y32766D01*
X167318Y28194D01*
X167699Y29337D02*
X169985Y29337D01*
X165540Y28194D02*
X164270Y28194D01*
X164200Y28196D01*
X164130Y28202D01*
X164061Y28211D01*
X163992Y28225D01*
X163924Y28242D01*
X163858Y28263D01*
X163792Y28287D01*
X163728Y28315D01*
X163666Y28347D01*
X163605Y28382D01*
X163546Y28420D01*
X163490Y28462D01*
X163436Y28506D01*
X163384Y28554D01*
X163336Y28604D01*
X163290Y28657D01*
X163247Y28712D01*
X163207Y28769D01*
X163170Y28829D01*
X163137Y28891D01*
X163107Y28954D01*
X163081Y29019D01*
X163058Y29085D01*
X163039Y29152D01*
X163024Y29221D01*
X163012Y29290D01*
X163004Y29359D01*
X163000Y29429D01*
X163000Y29499D01*
X163004Y29569D01*
X163012Y29638D01*
X163024Y29707D01*
X163039Y29776D01*
X163058Y29843D01*
X163081Y29909D01*
X163107Y29974D01*
X163137Y30037D01*
X163170Y30099D01*
X163207Y30159D01*
X163247Y30216D01*
X163290Y30271D01*
X163336Y30324D01*
X163384Y30374D01*
X163436Y30422D01*
X163490Y30466D01*
X163546Y30508D01*
X163605Y30546D01*
X163666Y30581D01*
X163728Y30613D01*
X163792Y30641D01*
X163858Y30665D01*
X163924Y30686D01*
X163992Y30703D01*
X164061Y30717D01*
X164130Y30726D01*
X164200Y30732D01*
X164270Y30734D01*
X164016Y32766D02*
X165540Y32766D01*
X164016Y32766D02*
X163953Y32764D01*
X163891Y32758D01*
X163829Y32749D01*
X163768Y32735D01*
X163708Y32718D01*
X163649Y32697D01*
X163591Y32673D01*
X163535Y32645D01*
X163481Y32614D01*
X163429Y32579D01*
X163379Y32542D01*
X163332Y32501D01*
X163287Y32457D01*
X163244Y32411D01*
X163205Y32362D01*
X163169Y32311D01*
X163136Y32258D01*
X163107Y32203D01*
X163080Y32146D01*
X163058Y32088D01*
X163039Y32028D01*
X163024Y31967D01*
X163012Y31906D01*
X163004Y31844D01*
X163000Y31781D01*
X163000Y31719D01*
X163004Y31656D01*
X163012Y31594D01*
X163024Y31533D01*
X163039Y31472D01*
X163058Y31412D01*
X163080Y31354D01*
X163107Y31297D01*
X163136Y31242D01*
X163169Y31189D01*
X163205Y31138D01*
X163244Y31089D01*
X163287Y31043D01*
X163332Y30999D01*
X163379Y30958D01*
X163429Y30921D01*
X163481Y30886D01*
X163535Y30855D01*
X163591Y30827D01*
X163649Y30803D01*
X163708Y30782D01*
X163768Y30765D01*
X163829Y30751D01*
X163891Y30742D01*
X163953Y30736D01*
X164016Y30734D01*
X165032Y30734D01*
X154686Y32766D02*
X154686Y28194D01*
X155956Y32766D02*
X153416Y32766D01*
X148895Y32766D02*
X151943Y28194D01*
X148895Y28194D02*
X151943Y32766D01*
X147193Y28829D02*
X147193Y28575D01*
X147193Y28829D02*
X146939Y28829D01*
X146939Y28575D01*
X147193Y28575D01*
X147193Y30607D02*
X147193Y30861D01*
X146939Y30861D01*
X146939Y30607D01*
X147193Y30607D01*
X145237Y28194D02*
X143713Y32766D01*
X142189Y28194D01*
X142570Y29337D02*
X144856Y29337D01*
X139014Y32766D02*
X138948Y32764D01*
X138881Y32758D01*
X138816Y32749D01*
X138750Y32735D01*
X138686Y32718D01*
X138623Y32697D01*
X138561Y32673D01*
X138501Y32644D01*
X138443Y32613D01*
X138386Y32578D01*
X138331Y32540D01*
X138279Y32499D01*
X138230Y32454D01*
X138183Y32407D01*
X138138Y32358D01*
X138097Y32306D01*
X138059Y32251D01*
X138024Y32195D01*
X137993Y32136D01*
X137964Y32076D01*
X137940Y32014D01*
X137919Y31951D01*
X137902Y31887D01*
X137888Y31821D01*
X137879Y31756D01*
X137873Y31689D01*
X137871Y31623D01*
X139014Y32766D02*
X139088Y32764D01*
X139161Y32759D01*
X139235Y32749D01*
X139307Y32736D01*
X139379Y32720D01*
X139450Y32700D01*
X139520Y32676D01*
X139589Y32649D01*
X139656Y32618D01*
X139722Y32584D01*
X139785Y32547D01*
X139847Y32507D01*
X139907Y32463D01*
X139964Y32417D01*
X140020Y32368D01*
X140072Y32316D01*
X140122Y32261D01*
X140169Y32204D01*
X140213Y32145D01*
X140254Y32084D01*
X140292Y32020D01*
X140327Y31955D01*
X140358Y31888D01*
X140386Y31820D01*
X140411Y31750D01*
X138252Y30734D02*
X138205Y30781D01*
X138161Y30830D01*
X138120Y30882D01*
X138081Y30936D01*
X138046Y30992D01*
X138013Y31050D01*
X137984Y31109D01*
X137958Y31170D01*
X137935Y31232D01*
X137915Y31296D01*
X137900Y31360D01*
X137887Y31425D01*
X137878Y31491D01*
X137873Y31557D01*
X137871Y31623D01*
X138252Y30734D02*
X140411Y28194D01*
X137871Y28194D01*
X202353Y150114D02*
X202283Y150116D01*
X202214Y150122D01*
X202145Y150132D01*
X202077Y150145D01*
X202009Y150163D01*
X201943Y150184D01*
X201878Y150209D01*
X201814Y150237D01*
X201752Y150269D01*
X201692Y150304D01*
X201634Y150343D01*
X201579Y150385D01*
X201525Y150430D01*
X201475Y150478D01*
X201427Y150528D01*
X201382Y150582D01*
X201340Y150637D01*
X201301Y150695D01*
X201266Y150755D01*
X201234Y150817D01*
X201206Y150881D01*
X201181Y150946D01*
X201160Y151012D01*
X201142Y151080D01*
X201129Y151148D01*
X201119Y151217D01*
X201113Y151286D01*
X201111Y151356D01*
X202353Y150114D02*
X202452Y150116D01*
X202550Y150121D01*
X202648Y150131D01*
X202746Y150144D01*
X202843Y150160D01*
X202940Y150180D01*
X203035Y150204D01*
X203130Y150232D01*
X203224Y150263D01*
X203316Y150297D01*
X203407Y150335D01*
X203497Y150376D01*
X203585Y150421D01*
X203671Y150469D01*
X203755Y150520D01*
X203837Y150574D01*
X203918Y150632D01*
X203996Y150692D01*
X204071Y150755D01*
X204145Y150821D01*
X204215Y150890D01*
X204061Y154460D02*
X204059Y154530D01*
X204053Y154599D01*
X204043Y154668D01*
X204030Y154736D01*
X204012Y154804D01*
X203991Y154870D01*
X203966Y154935D01*
X203938Y154999D01*
X203906Y155061D01*
X203871Y155121D01*
X203832Y155179D01*
X203790Y155234D01*
X203745Y155288D01*
X203697Y155338D01*
X203647Y155386D01*
X203593Y155431D01*
X203538Y155473D01*
X203480Y155512D01*
X203420Y155547D01*
X203358Y155579D01*
X203294Y155607D01*
X203229Y155632D01*
X203163Y155653D01*
X203095Y155671D01*
X203027Y155684D01*
X202958Y155694D01*
X202889Y155700D01*
X202819Y155702D01*
X202725Y155700D01*
X202632Y155694D01*
X202539Y155685D01*
X202446Y155672D01*
X202354Y155655D01*
X202263Y155635D01*
X202172Y155610D01*
X202083Y155583D01*
X201995Y155551D01*
X201908Y155516D01*
X201822Y155478D01*
X201739Y155436D01*
X201656Y155391D01*
X201576Y155343D01*
X201498Y155291D01*
X201422Y155236D01*
X203440Y153374D02*
X203499Y153410D01*
X203555Y153450D01*
X203609Y153493D01*
X203661Y153538D01*
X203710Y153587D01*
X203756Y153638D01*
X203799Y153691D01*
X203840Y153747D01*
X203877Y153805D01*
X203912Y153865D01*
X203942Y153926D01*
X203970Y153989D01*
X203994Y154054D01*
X204014Y154120D01*
X204031Y154187D01*
X204044Y154254D01*
X204053Y154322D01*
X204059Y154391D01*
X204061Y154460D01*
X201733Y152442D02*
X201674Y152406D01*
X201618Y152366D01*
X201564Y152323D01*
X201512Y152278D01*
X201463Y152229D01*
X201417Y152178D01*
X201374Y152125D01*
X201333Y152069D01*
X201296Y152011D01*
X201261Y151952D01*
X201231Y151890D01*
X201203Y151827D01*
X201179Y151762D01*
X201159Y151696D01*
X201142Y151629D01*
X201129Y151562D01*
X201120Y151494D01*
X201114Y151425D01*
X201112Y151356D01*
X201732Y152442D02*
X203440Y153374D01*
X199112Y155702D02*
X197871Y150114D01*
X196629Y153839D01*
X195387Y150114D01*
X194145Y155702D01*
X191780Y155702D02*
X191780Y150114D01*
X191780Y155702D02*
X190228Y155702D01*
X190152Y155700D01*
X190076Y155695D01*
X190000Y155685D01*
X189925Y155672D01*
X189851Y155655D01*
X189777Y155635D01*
X189705Y155611D01*
X189634Y155584D01*
X189564Y155553D01*
X189496Y155519D01*
X189430Y155481D01*
X189366Y155440D01*
X189303Y155397D01*
X189243Y155350D01*
X189186Y155300D01*
X189131Y155247D01*
X189078Y155192D01*
X189028Y155135D01*
X188981Y155075D01*
X188938Y155012D01*
X188897Y154948D01*
X188859Y154882D01*
X188825Y154814D01*
X188794Y154744D01*
X188767Y154673D01*
X188743Y154601D01*
X188723Y154527D01*
X188706Y154453D01*
X188693Y154378D01*
X188683Y154302D01*
X188678Y154226D01*
X188676Y154150D01*
X188676Y151666D01*
X188678Y151590D01*
X188683Y151514D01*
X188693Y151438D01*
X188706Y151363D01*
X188723Y151289D01*
X188743Y151215D01*
X188767Y151143D01*
X188794Y151072D01*
X188825Y151002D01*
X188859Y150934D01*
X188897Y150868D01*
X188938Y150804D01*
X188981Y150741D01*
X189028Y150681D01*
X189078Y150624D01*
X189131Y150569D01*
X189186Y150516D01*
X189243Y150466D01*
X189303Y150419D01*
X189366Y150376D01*
X189430Y150335D01*
X189496Y150297D01*
X189564Y150263D01*
X189634Y150232D01*
X189705Y150205D01*
X189777Y150181D01*
X189851Y150161D01*
X189925Y150144D01*
X190000Y150131D01*
X190076Y150121D01*
X190152Y150116D01*
X190228Y150114D01*
X191780Y150114D01*
X176953Y150114D02*
X176883Y150116D01*
X176814Y150122D01*
X176745Y150132D01*
X176677Y150145D01*
X176609Y150163D01*
X176543Y150184D01*
X176478Y150209D01*
X176414Y150237D01*
X176352Y150269D01*
X176292Y150304D01*
X176234Y150343D01*
X176179Y150385D01*
X176125Y150430D01*
X176075Y150478D01*
X176027Y150528D01*
X175982Y150582D01*
X175940Y150637D01*
X175901Y150695D01*
X175866Y150755D01*
X175834Y150817D01*
X175806Y150881D01*
X175781Y150946D01*
X175760Y151012D01*
X175742Y151080D01*
X175729Y151148D01*
X175719Y151217D01*
X175713Y151286D01*
X175711Y151356D01*
X176953Y150114D02*
X177052Y150116D01*
X177150Y150121D01*
X177248Y150131D01*
X177346Y150144D01*
X177443Y150160D01*
X177540Y150180D01*
X177635Y150204D01*
X177730Y150232D01*
X177824Y150263D01*
X177916Y150297D01*
X178007Y150335D01*
X178097Y150376D01*
X178185Y150421D01*
X178271Y150469D01*
X178355Y150520D01*
X178437Y150574D01*
X178518Y150632D01*
X178596Y150692D01*
X178671Y150755D01*
X178745Y150821D01*
X178815Y150890D01*
X178661Y154460D02*
X178659Y154530D01*
X178653Y154599D01*
X178643Y154668D01*
X178630Y154736D01*
X178612Y154804D01*
X178591Y154870D01*
X178566Y154935D01*
X178538Y154999D01*
X178506Y155061D01*
X178471Y155121D01*
X178432Y155179D01*
X178390Y155234D01*
X178345Y155288D01*
X178297Y155338D01*
X178247Y155386D01*
X178193Y155431D01*
X178138Y155473D01*
X178080Y155512D01*
X178020Y155547D01*
X177958Y155579D01*
X177894Y155607D01*
X177829Y155632D01*
X177763Y155653D01*
X177695Y155671D01*
X177627Y155684D01*
X177558Y155694D01*
X177489Y155700D01*
X177419Y155702D01*
X177325Y155700D01*
X177232Y155694D01*
X177139Y155685D01*
X177046Y155672D01*
X176954Y155655D01*
X176863Y155635D01*
X176772Y155610D01*
X176683Y155583D01*
X176595Y155551D01*
X176508Y155516D01*
X176422Y155478D01*
X176339Y155436D01*
X176256Y155391D01*
X176176Y155343D01*
X176098Y155291D01*
X176022Y155236D01*
X178040Y153374D02*
X178099Y153410D01*
X178155Y153450D01*
X178209Y153493D01*
X178261Y153538D01*
X178310Y153587D01*
X178356Y153638D01*
X178399Y153691D01*
X178440Y153747D01*
X178477Y153805D01*
X178512Y153865D01*
X178542Y153926D01*
X178570Y153989D01*
X178594Y154054D01*
X178614Y154120D01*
X178631Y154187D01*
X178644Y154254D01*
X178653Y154322D01*
X178659Y154391D01*
X178661Y154460D01*
X176333Y152442D02*
X176274Y152406D01*
X176218Y152366D01*
X176164Y152323D01*
X176112Y152278D01*
X176063Y152229D01*
X176017Y152178D01*
X175974Y152125D01*
X175933Y152069D01*
X175896Y152011D01*
X175861Y151952D01*
X175831Y151890D01*
X175803Y151827D01*
X175779Y151762D01*
X175759Y151696D01*
X175742Y151629D01*
X175729Y151562D01*
X175720Y151494D01*
X175714Y151425D01*
X175712Y151356D01*
X176332Y152442D02*
X178040Y153374D01*
X173712Y155702D02*
X172471Y150114D01*
X171229Y153839D01*
X169987Y150114D01*
X168745Y155702D01*
X165338Y150114D02*
X164096Y150114D01*
X165338Y150114D02*
X165408Y150116D01*
X165477Y150122D01*
X165546Y150132D01*
X165614Y150145D01*
X165682Y150163D01*
X165748Y150184D01*
X165813Y150209D01*
X165877Y150237D01*
X165939Y150269D01*
X165999Y150304D01*
X166057Y150343D01*
X166112Y150385D01*
X166166Y150430D01*
X166216Y150478D01*
X166264Y150528D01*
X166309Y150582D01*
X166351Y150637D01*
X166390Y150695D01*
X166425Y150755D01*
X166457Y150817D01*
X166485Y150881D01*
X166510Y150946D01*
X166531Y151012D01*
X166549Y151080D01*
X166562Y151148D01*
X166572Y151217D01*
X166578Y151286D01*
X166580Y151356D01*
X166579Y151356D02*
X166579Y154460D01*
X166580Y154460D02*
X166578Y154530D01*
X166572Y154599D01*
X166562Y154668D01*
X166549Y154736D01*
X166531Y154804D01*
X166510Y154870D01*
X166485Y154935D01*
X166457Y154999D01*
X166425Y155061D01*
X166390Y155121D01*
X166351Y155179D01*
X166309Y155234D01*
X166264Y155288D01*
X166216Y155338D01*
X166166Y155386D01*
X166112Y155431D01*
X166057Y155473D01*
X165999Y155512D01*
X165939Y155547D01*
X165877Y155579D01*
X165813Y155607D01*
X165748Y155632D01*
X165682Y155653D01*
X165614Y155671D01*
X165546Y155684D01*
X165477Y155694D01*
X165408Y155700D01*
X165338Y155702D01*
X164096Y155702D01*
D13*
X310160Y55130D02*
X345160Y55130D01*
X345160Y120130D01*
X310160Y120130D01*
X310160Y55130D01*
X306660Y56630D02*
X287660Y56630D01*
D14*
X178870Y115380D02*
X178870Y123380D01*
X153870Y123380D02*
X153870Y115380D01*
X164370Y103380D02*
X168370Y103380D01*
X168370Y135380D02*
X164370Y135380D01*
D13*
X186370Y139380D02*
X186432Y139382D01*
X186493Y139388D01*
X186554Y139397D01*
X186614Y139410D01*
X186673Y139427D01*
X186731Y139448D01*
X186788Y139472D01*
X186843Y139499D01*
X186896Y139530D01*
X186948Y139564D01*
X186997Y139601D01*
X187044Y139641D01*
X187088Y139684D01*
X187129Y139729D01*
X187168Y139777D01*
X187204Y139828D01*
X187236Y139880D01*
X187265Y139934D01*
X187291Y139990D01*
X187313Y140048D01*
X187332Y140106D01*
X187347Y140166D01*
X187358Y140227D01*
X187366Y140288D01*
X187370Y140349D01*
X187370Y140411D01*
X187366Y140472D01*
X187358Y140533D01*
X187347Y140594D01*
X187332Y140654D01*
X187313Y140712D01*
X187291Y140770D01*
X187265Y140826D01*
X187236Y140880D01*
X187204Y140932D01*
X187168Y140983D01*
X187129Y141031D01*
X187088Y141076D01*
X187044Y141119D01*
X186997Y141159D01*
X186948Y141196D01*
X186896Y141230D01*
X186843Y141261D01*
X186788Y141288D01*
X186731Y141312D01*
X186673Y141333D01*
X186614Y141350D01*
X186554Y141363D01*
X186493Y141372D01*
X186432Y141378D01*
X186370Y141380D01*
X186308Y141378D01*
X186247Y141372D01*
X186186Y141363D01*
X186126Y141350D01*
X186067Y141333D01*
X186009Y141312D01*
X185952Y141288D01*
X185897Y141261D01*
X185844Y141230D01*
X185792Y141196D01*
X185743Y141159D01*
X185696Y141119D01*
X185652Y141076D01*
X185611Y141031D01*
X185572Y140983D01*
X185536Y140932D01*
X185504Y140880D01*
X185475Y140826D01*
X185449Y140770D01*
X185427Y140712D01*
X185408Y140654D01*
X185393Y140594D01*
X185382Y140533D01*
X185374Y140472D01*
X185370Y140411D01*
X185370Y140349D01*
X185374Y140288D01*
X185382Y140227D01*
X185393Y140166D01*
X185408Y140106D01*
X185427Y140048D01*
X185449Y139990D01*
X185475Y139934D01*
X185504Y139880D01*
X185536Y139828D01*
X185572Y139777D01*
X185611Y139729D01*
X185652Y139684D01*
X185696Y139641D01*
X185743Y139601D01*
X185792Y139564D01*
X185844Y139530D01*
X185897Y139499D01*
X185952Y139472D01*
X186009Y139448D01*
X186067Y139427D01*
X186126Y139410D01*
X186186Y139397D01*
X186247Y139388D01*
X186308Y139382D01*
X186370Y139380D01*
M02*
