G04 EAGLE Gerber RS-274X export*
G75*
%MOMM*%
%FSLAX34Y34*%
%LPD*%
%INSilkscreen Top*%
%IPPOS*%
%AMOC8*
5,1,8,0,0,1.08239X$1,22.5*%
G01*
%ADD10C,0.050800*%
%ADD11C,0.203200*%
%ADD12C,0.063400*%
%ADD13C,0.250000*%
%ADD14C,0.152400*%
%ADD15C,0.127000*%
%ADD16C,0.050000*%


D10*
X39624Y145034D02*
X39624Y150622D01*
X42108Y150622D01*
X42108Y148138D02*
X39624Y148138D01*
X44185Y146276D02*
X45427Y150622D01*
X44185Y146276D02*
X47289Y146276D01*
X46358Y147518D02*
X46358Y145034D01*
X65024Y148138D02*
X66576Y148138D01*
X66653Y148136D01*
X66731Y148130D01*
X66807Y148121D01*
X66884Y148107D01*
X66959Y148090D01*
X67033Y148069D01*
X67107Y148044D01*
X67179Y148016D01*
X67249Y147984D01*
X67318Y147949D01*
X67385Y147910D01*
X67450Y147868D01*
X67513Y147823D01*
X67574Y147775D01*
X67632Y147724D01*
X67687Y147670D01*
X67740Y147613D01*
X67789Y147554D01*
X67836Y147492D01*
X67880Y147428D01*
X67920Y147362D01*
X67957Y147294D01*
X67991Y147224D01*
X68021Y147153D01*
X68047Y147080D01*
X68070Y147006D01*
X68089Y146931D01*
X68104Y146856D01*
X68116Y146779D01*
X68124Y146702D01*
X68128Y146625D01*
X68128Y146547D01*
X68124Y146470D01*
X68116Y146393D01*
X68104Y146316D01*
X68089Y146241D01*
X68070Y146166D01*
X68047Y146092D01*
X68021Y146019D01*
X67991Y145948D01*
X67957Y145878D01*
X67920Y145810D01*
X67880Y145744D01*
X67836Y145680D01*
X67789Y145618D01*
X67740Y145559D01*
X67687Y145502D01*
X67632Y145448D01*
X67574Y145397D01*
X67513Y145349D01*
X67450Y145304D01*
X67385Y145262D01*
X67318Y145223D01*
X67249Y145188D01*
X67179Y145156D01*
X67107Y145128D01*
X67033Y145103D01*
X66959Y145082D01*
X66884Y145065D01*
X66807Y145051D01*
X66731Y145042D01*
X66653Y145036D01*
X66576Y145034D01*
X65024Y145034D01*
X65024Y150622D01*
X66576Y150622D01*
X66646Y150620D01*
X66715Y150614D01*
X66784Y150604D01*
X66852Y150591D01*
X66920Y150573D01*
X66986Y150552D01*
X67051Y150527D01*
X67115Y150499D01*
X67177Y150467D01*
X67237Y150432D01*
X67295Y150393D01*
X67350Y150351D01*
X67404Y150306D01*
X67454Y150258D01*
X67502Y150208D01*
X67547Y150154D01*
X67589Y150099D01*
X67628Y150041D01*
X67663Y149981D01*
X67695Y149919D01*
X67723Y149855D01*
X67748Y149790D01*
X67769Y149724D01*
X67787Y149656D01*
X67800Y149588D01*
X67810Y149519D01*
X67816Y149450D01*
X67818Y149380D01*
X67816Y149310D01*
X67810Y149241D01*
X67800Y149172D01*
X67787Y149104D01*
X67769Y149036D01*
X67748Y148970D01*
X67723Y148905D01*
X67695Y148841D01*
X67663Y148779D01*
X67628Y148719D01*
X67589Y148661D01*
X67547Y148606D01*
X67502Y148552D01*
X67454Y148502D01*
X67404Y148454D01*
X67350Y148409D01*
X67295Y148367D01*
X67237Y148328D01*
X67177Y148293D01*
X67115Y148261D01*
X67051Y148233D01*
X66986Y148208D01*
X66920Y148187D01*
X66852Y148169D01*
X66784Y148156D01*
X66715Y148146D01*
X66646Y148140D01*
X66576Y148138D01*
X70245Y150001D02*
X70245Y150622D01*
X73349Y150622D01*
X71797Y145034D01*
X90424Y148138D02*
X91976Y148138D01*
X92053Y148136D01*
X92131Y148130D01*
X92207Y148121D01*
X92284Y148107D01*
X92359Y148090D01*
X92433Y148069D01*
X92507Y148044D01*
X92579Y148016D01*
X92649Y147984D01*
X92718Y147949D01*
X92785Y147910D01*
X92850Y147868D01*
X92913Y147823D01*
X92974Y147775D01*
X93032Y147724D01*
X93087Y147670D01*
X93140Y147613D01*
X93189Y147554D01*
X93236Y147492D01*
X93280Y147428D01*
X93320Y147362D01*
X93357Y147294D01*
X93391Y147224D01*
X93421Y147153D01*
X93447Y147080D01*
X93470Y147006D01*
X93489Y146931D01*
X93504Y146856D01*
X93516Y146779D01*
X93524Y146702D01*
X93528Y146625D01*
X93528Y146547D01*
X93524Y146470D01*
X93516Y146393D01*
X93504Y146316D01*
X93489Y146241D01*
X93470Y146166D01*
X93447Y146092D01*
X93421Y146019D01*
X93391Y145948D01*
X93357Y145878D01*
X93320Y145810D01*
X93280Y145744D01*
X93236Y145680D01*
X93189Y145618D01*
X93140Y145559D01*
X93087Y145502D01*
X93032Y145448D01*
X92974Y145397D01*
X92913Y145349D01*
X92850Y145304D01*
X92785Y145262D01*
X92718Y145223D01*
X92649Y145188D01*
X92579Y145156D01*
X92507Y145128D01*
X92433Y145103D01*
X92359Y145082D01*
X92284Y145065D01*
X92207Y145051D01*
X92131Y145042D01*
X92053Y145036D01*
X91976Y145034D01*
X90424Y145034D01*
X90424Y150622D01*
X91976Y150622D01*
X92046Y150620D01*
X92115Y150614D01*
X92184Y150604D01*
X92252Y150591D01*
X92320Y150573D01*
X92386Y150552D01*
X92451Y150527D01*
X92515Y150499D01*
X92577Y150467D01*
X92637Y150432D01*
X92695Y150393D01*
X92750Y150351D01*
X92804Y150306D01*
X92854Y150258D01*
X92902Y150208D01*
X92947Y150154D01*
X92989Y150099D01*
X93028Y150041D01*
X93063Y149981D01*
X93095Y149919D01*
X93123Y149855D01*
X93148Y149790D01*
X93169Y149724D01*
X93187Y149656D01*
X93200Y149588D01*
X93210Y149519D01*
X93216Y149450D01*
X93218Y149380D01*
X93216Y149310D01*
X93210Y149241D01*
X93200Y149172D01*
X93187Y149104D01*
X93169Y149036D01*
X93148Y148970D01*
X93123Y148905D01*
X93095Y148841D01*
X93063Y148779D01*
X93028Y148719D01*
X92989Y148661D01*
X92947Y148606D01*
X92902Y148552D01*
X92854Y148502D01*
X92804Y148454D01*
X92750Y148409D01*
X92695Y148367D01*
X92637Y148328D01*
X92577Y148293D01*
X92515Y148261D01*
X92451Y148233D01*
X92386Y148208D01*
X92320Y148187D01*
X92252Y148169D01*
X92184Y148156D01*
X92115Y148146D01*
X92046Y148140D01*
X91976Y148138D01*
X95645Y148138D02*
X97507Y148138D01*
X97507Y148139D02*
X97577Y148137D01*
X97646Y148131D01*
X97715Y148121D01*
X97783Y148108D01*
X97851Y148090D01*
X97917Y148069D01*
X97982Y148044D01*
X98046Y148016D01*
X98108Y147984D01*
X98168Y147949D01*
X98226Y147910D01*
X98281Y147868D01*
X98335Y147823D01*
X98385Y147775D01*
X98433Y147725D01*
X98478Y147671D01*
X98520Y147616D01*
X98559Y147558D01*
X98594Y147498D01*
X98626Y147436D01*
X98654Y147372D01*
X98679Y147307D01*
X98700Y147241D01*
X98718Y147173D01*
X98731Y147105D01*
X98741Y147036D01*
X98747Y146967D01*
X98749Y146897D01*
X98749Y146586D01*
X98747Y146509D01*
X98741Y146431D01*
X98732Y146355D01*
X98718Y146278D01*
X98701Y146203D01*
X98680Y146129D01*
X98655Y146055D01*
X98627Y145983D01*
X98595Y145913D01*
X98560Y145844D01*
X98521Y145777D01*
X98479Y145712D01*
X98434Y145649D01*
X98386Y145588D01*
X98335Y145530D01*
X98281Y145475D01*
X98224Y145422D01*
X98165Y145373D01*
X98103Y145326D01*
X98039Y145282D01*
X97973Y145242D01*
X97905Y145205D01*
X97835Y145171D01*
X97764Y145141D01*
X97691Y145115D01*
X97617Y145092D01*
X97542Y145073D01*
X97467Y145058D01*
X97390Y145046D01*
X97313Y145038D01*
X97236Y145034D01*
X97158Y145034D01*
X97081Y145038D01*
X97004Y145046D01*
X96927Y145058D01*
X96852Y145073D01*
X96777Y145092D01*
X96703Y145115D01*
X96630Y145141D01*
X96559Y145171D01*
X96489Y145205D01*
X96421Y145242D01*
X96355Y145282D01*
X96291Y145326D01*
X96229Y145373D01*
X96170Y145422D01*
X96113Y145475D01*
X96059Y145530D01*
X96008Y145588D01*
X95960Y145649D01*
X95915Y145712D01*
X95873Y145777D01*
X95834Y145844D01*
X95799Y145913D01*
X95767Y145983D01*
X95739Y146055D01*
X95714Y146129D01*
X95693Y146203D01*
X95676Y146278D01*
X95662Y146355D01*
X95653Y146431D01*
X95647Y146509D01*
X95645Y146586D01*
X95645Y148138D01*
X95644Y148138D02*
X95646Y148236D01*
X95652Y148333D01*
X95661Y148430D01*
X95675Y148527D01*
X95692Y148623D01*
X95713Y148718D01*
X95737Y148812D01*
X95766Y148906D01*
X95798Y148998D01*
X95833Y149089D01*
X95872Y149178D01*
X95915Y149266D01*
X95961Y149352D01*
X96010Y149436D01*
X96063Y149518D01*
X96118Y149598D01*
X96177Y149676D01*
X96239Y149751D01*
X96304Y149824D01*
X96372Y149894D01*
X96442Y149962D01*
X96515Y150027D01*
X96590Y150089D01*
X96668Y150148D01*
X96748Y150203D01*
X96830Y150256D01*
X96914Y150305D01*
X97000Y150351D01*
X97088Y150394D01*
X97177Y150433D01*
X97268Y150468D01*
X97360Y150500D01*
X97454Y150529D01*
X97548Y150553D01*
X97643Y150574D01*
X97739Y150591D01*
X97836Y150605D01*
X97933Y150614D01*
X98030Y150620D01*
X98128Y150622D01*
X115824Y148138D02*
X117376Y148138D01*
X117453Y148136D01*
X117531Y148130D01*
X117607Y148121D01*
X117684Y148107D01*
X117759Y148090D01*
X117833Y148069D01*
X117907Y148044D01*
X117979Y148016D01*
X118049Y147984D01*
X118118Y147949D01*
X118185Y147910D01*
X118250Y147868D01*
X118313Y147823D01*
X118374Y147775D01*
X118432Y147724D01*
X118487Y147670D01*
X118540Y147613D01*
X118589Y147554D01*
X118636Y147492D01*
X118680Y147428D01*
X118720Y147362D01*
X118757Y147294D01*
X118791Y147224D01*
X118821Y147153D01*
X118847Y147080D01*
X118870Y147006D01*
X118889Y146931D01*
X118904Y146856D01*
X118916Y146779D01*
X118924Y146702D01*
X118928Y146625D01*
X118928Y146547D01*
X118924Y146470D01*
X118916Y146393D01*
X118904Y146316D01*
X118889Y146241D01*
X118870Y146166D01*
X118847Y146092D01*
X118821Y146019D01*
X118791Y145948D01*
X118757Y145878D01*
X118720Y145810D01*
X118680Y145744D01*
X118636Y145680D01*
X118589Y145618D01*
X118540Y145559D01*
X118487Y145502D01*
X118432Y145448D01*
X118374Y145397D01*
X118313Y145349D01*
X118250Y145304D01*
X118185Y145262D01*
X118118Y145223D01*
X118049Y145188D01*
X117979Y145156D01*
X117907Y145128D01*
X117833Y145103D01*
X117759Y145082D01*
X117684Y145065D01*
X117607Y145051D01*
X117531Y145042D01*
X117453Y145036D01*
X117376Y145034D01*
X115824Y145034D01*
X115824Y150622D01*
X117376Y150622D01*
X117446Y150620D01*
X117515Y150614D01*
X117584Y150604D01*
X117652Y150591D01*
X117720Y150573D01*
X117786Y150552D01*
X117851Y150527D01*
X117915Y150499D01*
X117977Y150467D01*
X118037Y150432D01*
X118095Y150393D01*
X118150Y150351D01*
X118204Y150306D01*
X118254Y150258D01*
X118302Y150208D01*
X118347Y150154D01*
X118389Y150099D01*
X118428Y150041D01*
X118463Y149981D01*
X118495Y149919D01*
X118523Y149855D01*
X118548Y149790D01*
X118569Y149724D01*
X118587Y149656D01*
X118600Y149588D01*
X118610Y149519D01*
X118616Y149450D01*
X118618Y149380D01*
X118616Y149310D01*
X118610Y149241D01*
X118600Y149172D01*
X118587Y149104D01*
X118569Y149036D01*
X118548Y148970D01*
X118523Y148905D01*
X118495Y148841D01*
X118463Y148779D01*
X118428Y148719D01*
X118389Y148661D01*
X118347Y148606D01*
X118302Y148552D01*
X118254Y148502D01*
X118204Y148454D01*
X118150Y148409D01*
X118095Y148367D01*
X118037Y148328D01*
X117977Y148293D01*
X117915Y148261D01*
X117851Y148233D01*
X117786Y148208D01*
X117720Y148187D01*
X117652Y148169D01*
X117584Y148156D01*
X117515Y148146D01*
X117446Y148140D01*
X117376Y148138D01*
X121045Y145034D02*
X122907Y145034D01*
X122977Y145036D01*
X123046Y145042D01*
X123115Y145052D01*
X123183Y145065D01*
X123251Y145083D01*
X123317Y145104D01*
X123382Y145129D01*
X123446Y145157D01*
X123508Y145189D01*
X123568Y145224D01*
X123626Y145263D01*
X123681Y145305D01*
X123735Y145350D01*
X123785Y145398D01*
X123833Y145448D01*
X123878Y145502D01*
X123920Y145557D01*
X123959Y145615D01*
X123994Y145675D01*
X124026Y145737D01*
X124054Y145801D01*
X124079Y145866D01*
X124100Y145932D01*
X124118Y146000D01*
X124131Y146068D01*
X124141Y146137D01*
X124147Y146206D01*
X124149Y146276D01*
X124149Y146897D01*
X124147Y146967D01*
X124141Y147036D01*
X124131Y147105D01*
X124118Y147173D01*
X124100Y147241D01*
X124079Y147307D01*
X124054Y147372D01*
X124026Y147436D01*
X123994Y147498D01*
X123959Y147558D01*
X123920Y147616D01*
X123878Y147671D01*
X123833Y147725D01*
X123785Y147775D01*
X123735Y147823D01*
X123681Y147868D01*
X123626Y147910D01*
X123568Y147949D01*
X123508Y147984D01*
X123446Y148016D01*
X123382Y148044D01*
X123317Y148069D01*
X123251Y148090D01*
X123183Y148108D01*
X123115Y148121D01*
X123046Y148131D01*
X122977Y148137D01*
X122907Y148139D01*
X122907Y148138D02*
X121045Y148138D01*
X121045Y150622D01*
X124149Y150622D01*
X141224Y148138D02*
X142776Y148138D01*
X142853Y148136D01*
X142931Y148130D01*
X143007Y148121D01*
X143084Y148107D01*
X143159Y148090D01*
X143233Y148069D01*
X143307Y148044D01*
X143379Y148016D01*
X143449Y147984D01*
X143518Y147949D01*
X143585Y147910D01*
X143650Y147868D01*
X143713Y147823D01*
X143774Y147775D01*
X143832Y147724D01*
X143887Y147670D01*
X143940Y147613D01*
X143989Y147554D01*
X144036Y147492D01*
X144080Y147428D01*
X144120Y147362D01*
X144157Y147294D01*
X144191Y147224D01*
X144221Y147153D01*
X144247Y147080D01*
X144270Y147006D01*
X144289Y146931D01*
X144304Y146856D01*
X144316Y146779D01*
X144324Y146702D01*
X144328Y146625D01*
X144328Y146547D01*
X144324Y146470D01*
X144316Y146393D01*
X144304Y146316D01*
X144289Y146241D01*
X144270Y146166D01*
X144247Y146092D01*
X144221Y146019D01*
X144191Y145948D01*
X144157Y145878D01*
X144120Y145810D01*
X144080Y145744D01*
X144036Y145680D01*
X143989Y145618D01*
X143940Y145559D01*
X143887Y145502D01*
X143832Y145448D01*
X143774Y145397D01*
X143713Y145349D01*
X143650Y145304D01*
X143585Y145262D01*
X143518Y145223D01*
X143449Y145188D01*
X143379Y145156D01*
X143307Y145128D01*
X143233Y145103D01*
X143159Y145082D01*
X143084Y145065D01*
X143007Y145051D01*
X142931Y145042D01*
X142853Y145036D01*
X142776Y145034D01*
X141224Y145034D01*
X141224Y150622D01*
X142776Y150622D01*
X142846Y150620D01*
X142915Y150614D01*
X142984Y150604D01*
X143052Y150591D01*
X143120Y150573D01*
X143186Y150552D01*
X143251Y150527D01*
X143315Y150499D01*
X143377Y150467D01*
X143437Y150432D01*
X143495Y150393D01*
X143550Y150351D01*
X143604Y150306D01*
X143654Y150258D01*
X143702Y150208D01*
X143747Y150154D01*
X143789Y150099D01*
X143828Y150041D01*
X143863Y149981D01*
X143895Y149919D01*
X143923Y149855D01*
X143948Y149790D01*
X143969Y149724D01*
X143987Y149656D01*
X144000Y149588D01*
X144010Y149519D01*
X144016Y149450D01*
X144018Y149380D01*
X144016Y149310D01*
X144010Y149241D01*
X144000Y149172D01*
X143987Y149104D01*
X143969Y149036D01*
X143948Y148970D01*
X143923Y148905D01*
X143895Y148841D01*
X143863Y148779D01*
X143828Y148719D01*
X143789Y148661D01*
X143747Y148606D01*
X143702Y148552D01*
X143654Y148502D01*
X143604Y148454D01*
X143550Y148409D01*
X143495Y148367D01*
X143437Y148328D01*
X143377Y148293D01*
X143315Y148261D01*
X143251Y148233D01*
X143186Y148208D01*
X143120Y148187D01*
X143052Y148169D01*
X142984Y148156D01*
X142915Y148146D01*
X142846Y148140D01*
X142776Y148138D01*
X146445Y146276D02*
X147686Y150622D01*
X146445Y146276D02*
X149549Y146276D01*
X148618Y147518D02*
X148618Y145034D01*
X167894Y145034D02*
X169757Y150622D01*
X171619Y145034D01*
X171154Y146431D02*
X168360Y146431D01*
X173691Y149380D02*
X175243Y150622D01*
X175243Y145034D01*
X173691Y145034D02*
X176795Y145034D01*
X179177Y146276D02*
X180419Y150622D01*
X179177Y146276D02*
X182282Y146276D01*
X181350Y147518D02*
X181350Y145034D01*
X193294Y145034D02*
X195157Y150622D01*
X197019Y145034D01*
X196554Y146431D02*
X193760Y146431D01*
X199091Y149380D02*
X200643Y150622D01*
X200643Y145034D01*
X199091Y145034D02*
X202195Y145034D01*
X204577Y145034D02*
X206129Y145034D01*
X206206Y145036D01*
X206284Y145042D01*
X206360Y145051D01*
X206437Y145065D01*
X206512Y145082D01*
X206586Y145103D01*
X206660Y145128D01*
X206732Y145156D01*
X206802Y145188D01*
X206871Y145223D01*
X206938Y145262D01*
X207003Y145304D01*
X207066Y145349D01*
X207127Y145397D01*
X207185Y145448D01*
X207240Y145502D01*
X207293Y145559D01*
X207342Y145618D01*
X207389Y145680D01*
X207433Y145744D01*
X207473Y145810D01*
X207510Y145878D01*
X207544Y145948D01*
X207574Y146019D01*
X207600Y146092D01*
X207623Y146166D01*
X207642Y146241D01*
X207657Y146316D01*
X207669Y146393D01*
X207677Y146470D01*
X207681Y146547D01*
X207681Y146625D01*
X207677Y146702D01*
X207669Y146779D01*
X207657Y146856D01*
X207642Y146931D01*
X207623Y147006D01*
X207600Y147080D01*
X207574Y147153D01*
X207544Y147224D01*
X207510Y147294D01*
X207473Y147362D01*
X207433Y147428D01*
X207389Y147492D01*
X207342Y147554D01*
X207293Y147613D01*
X207240Y147670D01*
X207185Y147724D01*
X207127Y147775D01*
X207066Y147823D01*
X207003Y147868D01*
X206938Y147910D01*
X206871Y147949D01*
X206802Y147984D01*
X206732Y148016D01*
X206660Y148044D01*
X206586Y148069D01*
X206512Y148090D01*
X206437Y148107D01*
X206360Y148121D01*
X206284Y148130D01*
X206206Y148136D01*
X206129Y148138D01*
X206440Y150622D02*
X204577Y150622D01*
X206440Y150622D02*
X206510Y150620D01*
X206579Y150614D01*
X206648Y150604D01*
X206716Y150591D01*
X206784Y150573D01*
X206850Y150552D01*
X206915Y150527D01*
X206979Y150499D01*
X207041Y150467D01*
X207101Y150432D01*
X207159Y150393D01*
X207214Y150351D01*
X207268Y150306D01*
X207318Y150258D01*
X207366Y150208D01*
X207411Y150154D01*
X207453Y150099D01*
X207492Y150041D01*
X207527Y149981D01*
X207559Y149919D01*
X207587Y149855D01*
X207612Y149790D01*
X207633Y149724D01*
X207651Y149656D01*
X207664Y149588D01*
X207674Y149519D01*
X207680Y149450D01*
X207682Y149380D01*
X207680Y149310D01*
X207674Y149241D01*
X207664Y149172D01*
X207651Y149104D01*
X207633Y149036D01*
X207612Y148970D01*
X207587Y148905D01*
X207559Y148841D01*
X207527Y148779D01*
X207492Y148719D01*
X207453Y148661D01*
X207411Y148606D01*
X207366Y148552D01*
X207318Y148502D01*
X207268Y148454D01*
X207214Y148409D01*
X207159Y148367D01*
X207101Y148328D01*
X207041Y148293D01*
X206979Y148261D01*
X206915Y148233D01*
X206850Y148208D01*
X206784Y148187D01*
X206716Y148169D01*
X206648Y148156D01*
X206579Y148146D01*
X206510Y148140D01*
X206440Y148138D01*
X205198Y148138D01*
X218694Y145034D02*
X220557Y150622D01*
X222419Y145034D01*
X221954Y146431D02*
X219160Y146431D01*
X224491Y149380D02*
X226043Y150622D01*
X226043Y145034D01*
X224491Y145034D02*
X227595Y145034D01*
X229977Y149380D02*
X231529Y150622D01*
X231529Y145034D01*
X229977Y145034D02*
X233082Y145034D01*
X242824Y145034D02*
X244687Y150622D01*
X246549Y145034D01*
X246084Y146431D02*
X243290Y146431D01*
X248621Y149380D02*
X250173Y150622D01*
X250173Y145034D01*
X248621Y145034D02*
X251725Y145034D01*
X254107Y147828D02*
X254109Y147959D01*
X254114Y148089D01*
X254124Y148219D01*
X254137Y148349D01*
X254153Y148479D01*
X254173Y148608D01*
X254197Y148736D01*
X254225Y148863D01*
X254256Y148990D01*
X254291Y149116D01*
X254329Y149241D01*
X254371Y149365D01*
X254416Y149487D01*
X254465Y149608D01*
X254517Y149728D01*
X254573Y149846D01*
X254572Y149846D02*
X254595Y149906D01*
X254621Y149966D01*
X254650Y150023D01*
X254683Y150079D01*
X254719Y150133D01*
X254757Y150185D01*
X254799Y150235D01*
X254843Y150282D01*
X254890Y150327D01*
X254940Y150369D01*
X254991Y150408D01*
X255045Y150444D01*
X255101Y150477D01*
X255158Y150507D01*
X255217Y150534D01*
X255278Y150557D01*
X255339Y150577D01*
X255402Y150593D01*
X255466Y150606D01*
X255530Y150615D01*
X255594Y150620D01*
X255659Y150622D01*
X255724Y150620D01*
X255788Y150615D01*
X255852Y150606D01*
X255916Y150593D01*
X255979Y150577D01*
X256040Y150557D01*
X256101Y150534D01*
X256160Y150507D01*
X256217Y150477D01*
X256273Y150444D01*
X256327Y150408D01*
X256378Y150369D01*
X256428Y150327D01*
X256475Y150282D01*
X256519Y150235D01*
X256561Y150185D01*
X256599Y150133D01*
X256635Y150079D01*
X256668Y150023D01*
X256697Y149966D01*
X256723Y149906D01*
X256746Y149846D01*
X256802Y149728D01*
X256854Y149608D01*
X256903Y149487D01*
X256948Y149365D01*
X256990Y149241D01*
X257028Y149116D01*
X257063Y148990D01*
X257094Y148864D01*
X257122Y148736D01*
X257146Y148608D01*
X257166Y148479D01*
X257182Y148349D01*
X257195Y148219D01*
X257205Y148089D01*
X257210Y147959D01*
X257212Y147828D01*
X254107Y147828D02*
X254109Y147697D01*
X254114Y147567D01*
X254124Y147437D01*
X254137Y147307D01*
X254153Y147177D01*
X254173Y147048D01*
X254197Y146920D01*
X254225Y146793D01*
X254256Y146666D01*
X254291Y146540D01*
X254329Y146415D01*
X254371Y146291D01*
X254416Y146169D01*
X254465Y146048D01*
X254517Y145928D01*
X254573Y145810D01*
X254572Y145810D02*
X254595Y145750D01*
X254621Y145690D01*
X254650Y145633D01*
X254683Y145577D01*
X254719Y145523D01*
X254757Y145471D01*
X254799Y145421D01*
X254843Y145374D01*
X254890Y145329D01*
X254940Y145287D01*
X254991Y145248D01*
X255045Y145212D01*
X255101Y145179D01*
X255158Y145149D01*
X255217Y145122D01*
X255278Y145099D01*
X255339Y145079D01*
X255402Y145063D01*
X255466Y145050D01*
X255530Y145041D01*
X255594Y145036D01*
X255659Y145034D01*
X256746Y145810D02*
X256802Y145928D01*
X256854Y146048D01*
X256903Y146169D01*
X256948Y146291D01*
X256990Y146415D01*
X257028Y146540D01*
X257063Y146666D01*
X257094Y146792D01*
X257122Y146920D01*
X257146Y147048D01*
X257166Y147177D01*
X257182Y147307D01*
X257195Y147437D01*
X257205Y147567D01*
X257210Y147697D01*
X257212Y147828D01*
X256746Y145810D02*
X256723Y145750D01*
X256697Y145690D01*
X256668Y145633D01*
X256635Y145577D01*
X256599Y145523D01*
X256561Y145471D01*
X256519Y145421D01*
X256475Y145374D01*
X256428Y145329D01*
X256378Y145287D01*
X256327Y145248D01*
X256273Y145212D01*
X256217Y145179D01*
X256160Y145149D01*
X256101Y145122D01*
X256040Y145099D01*
X255979Y145079D01*
X255916Y145063D01*
X255852Y145050D01*
X255788Y145041D01*
X255724Y145036D01*
X255659Y145034D01*
X254418Y146276D02*
X256901Y149380D01*
X268224Y145034D02*
X270087Y150622D01*
X271949Y145034D01*
X271484Y146431D02*
X268690Y146431D01*
X275263Y147518D02*
X277125Y147518D01*
X275263Y147517D02*
X275193Y147519D01*
X275124Y147525D01*
X275055Y147535D01*
X274987Y147548D01*
X274919Y147566D01*
X274853Y147587D01*
X274788Y147612D01*
X274724Y147640D01*
X274662Y147672D01*
X274602Y147707D01*
X274544Y147746D01*
X274489Y147788D01*
X274435Y147833D01*
X274385Y147881D01*
X274337Y147931D01*
X274292Y147985D01*
X274250Y148040D01*
X274211Y148098D01*
X274176Y148158D01*
X274144Y148220D01*
X274116Y148284D01*
X274091Y148349D01*
X274070Y148415D01*
X274052Y148483D01*
X274039Y148551D01*
X274029Y148620D01*
X274023Y148689D01*
X274021Y148759D01*
X274021Y149070D01*
X274023Y149147D01*
X274029Y149225D01*
X274038Y149301D01*
X274052Y149378D01*
X274069Y149453D01*
X274090Y149527D01*
X274115Y149601D01*
X274143Y149673D01*
X274175Y149743D01*
X274210Y149812D01*
X274249Y149879D01*
X274291Y149944D01*
X274336Y150007D01*
X274384Y150068D01*
X274435Y150126D01*
X274489Y150181D01*
X274546Y150234D01*
X274605Y150283D01*
X274667Y150330D01*
X274731Y150374D01*
X274797Y150414D01*
X274865Y150451D01*
X274935Y150485D01*
X275006Y150515D01*
X275079Y150541D01*
X275153Y150564D01*
X275228Y150583D01*
X275303Y150598D01*
X275380Y150610D01*
X275457Y150618D01*
X275534Y150622D01*
X275612Y150622D01*
X275689Y150618D01*
X275766Y150610D01*
X275843Y150598D01*
X275918Y150583D01*
X275993Y150564D01*
X276067Y150541D01*
X276140Y150515D01*
X276211Y150485D01*
X276281Y150451D01*
X276349Y150414D01*
X276415Y150374D01*
X276479Y150330D01*
X276541Y150283D01*
X276600Y150234D01*
X276657Y150181D01*
X276711Y150126D01*
X276762Y150068D01*
X276810Y150007D01*
X276855Y149944D01*
X276897Y149879D01*
X276936Y149812D01*
X276971Y149743D01*
X277003Y149673D01*
X277031Y149601D01*
X277056Y149527D01*
X277077Y149453D01*
X277094Y149378D01*
X277108Y149301D01*
X277117Y149225D01*
X277123Y149147D01*
X277125Y149070D01*
X277125Y147518D01*
X277126Y147518D02*
X277124Y147420D01*
X277118Y147323D01*
X277109Y147226D01*
X277095Y147129D01*
X277078Y147033D01*
X277057Y146938D01*
X277033Y146844D01*
X277004Y146750D01*
X276972Y146658D01*
X276937Y146567D01*
X276898Y146478D01*
X276855Y146390D01*
X276809Y146304D01*
X276760Y146220D01*
X276707Y146138D01*
X276652Y146058D01*
X276593Y145980D01*
X276531Y145905D01*
X276466Y145832D01*
X276398Y145762D01*
X276328Y145694D01*
X276255Y145629D01*
X276180Y145567D01*
X276102Y145508D01*
X276022Y145453D01*
X275940Y145400D01*
X275856Y145351D01*
X275770Y145305D01*
X275682Y145262D01*
X275593Y145223D01*
X275502Y145188D01*
X275410Y145156D01*
X275316Y145127D01*
X275222Y145103D01*
X275127Y145082D01*
X275031Y145065D01*
X274934Y145051D01*
X274837Y145042D01*
X274739Y145036D01*
X274642Y145034D01*
X272627Y38862D02*
X270764Y33274D01*
X274489Y33274D02*
X272627Y38862D01*
X274024Y34671D02*
X271230Y34671D01*
X276561Y34826D02*
X276563Y34903D01*
X276569Y34981D01*
X276578Y35057D01*
X276592Y35134D01*
X276609Y35209D01*
X276630Y35283D01*
X276655Y35357D01*
X276683Y35429D01*
X276715Y35499D01*
X276750Y35568D01*
X276789Y35635D01*
X276831Y35700D01*
X276876Y35763D01*
X276924Y35824D01*
X276975Y35882D01*
X277029Y35937D01*
X277086Y35990D01*
X277145Y36039D01*
X277207Y36086D01*
X277271Y36130D01*
X277337Y36170D01*
X277405Y36207D01*
X277475Y36241D01*
X277546Y36271D01*
X277619Y36297D01*
X277693Y36320D01*
X277768Y36339D01*
X277843Y36354D01*
X277920Y36366D01*
X277997Y36374D01*
X278074Y36378D01*
X278152Y36378D01*
X278229Y36374D01*
X278306Y36366D01*
X278383Y36354D01*
X278458Y36339D01*
X278533Y36320D01*
X278607Y36297D01*
X278680Y36271D01*
X278751Y36241D01*
X278821Y36207D01*
X278889Y36170D01*
X278955Y36130D01*
X279019Y36086D01*
X279081Y36039D01*
X279140Y35990D01*
X279197Y35937D01*
X279251Y35882D01*
X279302Y35824D01*
X279350Y35763D01*
X279395Y35700D01*
X279437Y35635D01*
X279476Y35568D01*
X279511Y35499D01*
X279543Y35429D01*
X279571Y35357D01*
X279596Y35283D01*
X279617Y35209D01*
X279634Y35134D01*
X279648Y35057D01*
X279657Y34981D01*
X279663Y34903D01*
X279665Y34826D01*
X279663Y34749D01*
X279657Y34671D01*
X279648Y34595D01*
X279634Y34518D01*
X279617Y34443D01*
X279596Y34369D01*
X279571Y34295D01*
X279543Y34223D01*
X279511Y34153D01*
X279476Y34084D01*
X279437Y34017D01*
X279395Y33952D01*
X279350Y33889D01*
X279302Y33828D01*
X279251Y33770D01*
X279197Y33715D01*
X279140Y33662D01*
X279081Y33613D01*
X279019Y33566D01*
X278955Y33522D01*
X278889Y33482D01*
X278821Y33445D01*
X278751Y33411D01*
X278680Y33381D01*
X278607Y33355D01*
X278533Y33332D01*
X278458Y33313D01*
X278383Y33298D01*
X278306Y33286D01*
X278229Y33278D01*
X278152Y33274D01*
X278074Y33274D01*
X277997Y33278D01*
X277920Y33286D01*
X277843Y33298D01*
X277768Y33313D01*
X277693Y33332D01*
X277619Y33355D01*
X277546Y33381D01*
X277475Y33411D01*
X277405Y33445D01*
X277337Y33482D01*
X277271Y33522D01*
X277207Y33566D01*
X277145Y33613D01*
X277086Y33662D01*
X277029Y33715D01*
X276975Y33770D01*
X276924Y33828D01*
X276876Y33889D01*
X276831Y33952D01*
X276789Y34017D01*
X276750Y34084D01*
X276715Y34153D01*
X276683Y34223D01*
X276655Y34295D01*
X276630Y34369D01*
X276609Y34443D01*
X276592Y34518D01*
X276578Y34595D01*
X276569Y34671D01*
X276563Y34749D01*
X276561Y34826D01*
X276871Y37620D02*
X276873Y37690D01*
X276879Y37759D01*
X276889Y37828D01*
X276902Y37896D01*
X276920Y37964D01*
X276941Y38030D01*
X276966Y38095D01*
X276994Y38159D01*
X277026Y38221D01*
X277061Y38281D01*
X277100Y38339D01*
X277142Y38394D01*
X277187Y38448D01*
X277235Y38498D01*
X277285Y38546D01*
X277339Y38591D01*
X277394Y38633D01*
X277452Y38672D01*
X277512Y38707D01*
X277574Y38739D01*
X277638Y38767D01*
X277703Y38792D01*
X277769Y38813D01*
X277837Y38831D01*
X277905Y38844D01*
X277974Y38854D01*
X278043Y38860D01*
X278113Y38862D01*
X278183Y38860D01*
X278252Y38854D01*
X278321Y38844D01*
X278389Y38831D01*
X278457Y38813D01*
X278523Y38792D01*
X278588Y38767D01*
X278652Y38739D01*
X278714Y38707D01*
X278774Y38672D01*
X278832Y38633D01*
X278887Y38591D01*
X278941Y38546D01*
X278991Y38498D01*
X279039Y38448D01*
X279084Y38394D01*
X279126Y38339D01*
X279165Y38281D01*
X279200Y38221D01*
X279232Y38159D01*
X279260Y38095D01*
X279285Y38030D01*
X279306Y37964D01*
X279324Y37896D01*
X279337Y37828D01*
X279347Y37759D01*
X279353Y37690D01*
X279355Y37620D01*
X279353Y37550D01*
X279347Y37481D01*
X279337Y37412D01*
X279324Y37344D01*
X279306Y37276D01*
X279285Y37210D01*
X279260Y37145D01*
X279232Y37081D01*
X279200Y37019D01*
X279165Y36959D01*
X279126Y36901D01*
X279084Y36846D01*
X279039Y36792D01*
X278991Y36742D01*
X278941Y36694D01*
X278887Y36649D01*
X278832Y36607D01*
X278774Y36568D01*
X278714Y36533D01*
X278652Y36501D01*
X278588Y36473D01*
X278523Y36448D01*
X278457Y36427D01*
X278389Y36409D01*
X278321Y36396D01*
X278252Y36386D01*
X278183Y36380D01*
X278113Y36378D01*
X278043Y36380D01*
X277974Y36386D01*
X277905Y36396D01*
X277837Y36409D01*
X277769Y36427D01*
X277703Y36448D01*
X277638Y36473D01*
X277574Y36501D01*
X277512Y36533D01*
X277452Y36568D01*
X277394Y36607D01*
X277339Y36649D01*
X277285Y36694D01*
X277235Y36742D01*
X277187Y36792D01*
X277142Y36846D01*
X277100Y36901D01*
X277061Y36959D01*
X277026Y37019D01*
X276994Y37081D01*
X276966Y37145D01*
X276941Y37210D01*
X276920Y37276D01*
X276902Y37344D01*
X276889Y37412D01*
X276879Y37481D01*
X276873Y37550D01*
X276871Y37620D01*
X241836Y33274D02*
X240284Y33274D01*
X241836Y33274D02*
X241913Y33276D01*
X241991Y33282D01*
X242067Y33291D01*
X242144Y33305D01*
X242219Y33322D01*
X242293Y33343D01*
X242367Y33368D01*
X242439Y33396D01*
X242509Y33428D01*
X242578Y33463D01*
X242645Y33502D01*
X242710Y33544D01*
X242773Y33589D01*
X242834Y33637D01*
X242892Y33688D01*
X242947Y33742D01*
X243000Y33799D01*
X243049Y33858D01*
X243096Y33920D01*
X243140Y33984D01*
X243180Y34050D01*
X243217Y34118D01*
X243251Y34188D01*
X243281Y34259D01*
X243307Y34332D01*
X243330Y34406D01*
X243349Y34481D01*
X243364Y34556D01*
X243376Y34633D01*
X243384Y34710D01*
X243388Y34787D01*
X243388Y34865D01*
X243384Y34942D01*
X243376Y35019D01*
X243364Y35096D01*
X243349Y35171D01*
X243330Y35246D01*
X243307Y35320D01*
X243281Y35393D01*
X243251Y35464D01*
X243217Y35534D01*
X243180Y35602D01*
X243140Y35668D01*
X243096Y35732D01*
X243049Y35794D01*
X243000Y35853D01*
X242947Y35910D01*
X242892Y35964D01*
X242834Y36015D01*
X242773Y36063D01*
X242710Y36108D01*
X242645Y36150D01*
X242578Y36189D01*
X242509Y36224D01*
X242439Y36256D01*
X242367Y36284D01*
X242293Y36309D01*
X242219Y36330D01*
X242144Y36347D01*
X242067Y36361D01*
X241991Y36370D01*
X241913Y36376D01*
X241836Y36378D01*
X242147Y38862D02*
X240284Y38862D01*
X242147Y38862D02*
X242217Y38860D01*
X242286Y38854D01*
X242355Y38844D01*
X242423Y38831D01*
X242491Y38813D01*
X242557Y38792D01*
X242622Y38767D01*
X242686Y38739D01*
X242748Y38707D01*
X242808Y38672D01*
X242866Y38633D01*
X242921Y38591D01*
X242975Y38546D01*
X243025Y38498D01*
X243073Y38448D01*
X243118Y38394D01*
X243160Y38339D01*
X243199Y38281D01*
X243234Y38221D01*
X243266Y38159D01*
X243294Y38095D01*
X243319Y38030D01*
X243340Y37964D01*
X243358Y37896D01*
X243371Y37828D01*
X243381Y37759D01*
X243387Y37690D01*
X243389Y37620D01*
X243387Y37550D01*
X243381Y37481D01*
X243371Y37412D01*
X243358Y37344D01*
X243340Y37276D01*
X243319Y37210D01*
X243294Y37145D01*
X243266Y37081D01*
X243234Y37019D01*
X243199Y36959D01*
X243160Y36901D01*
X243118Y36846D01*
X243073Y36792D01*
X243025Y36742D01*
X242975Y36694D01*
X242921Y36649D01*
X242866Y36607D01*
X242808Y36568D01*
X242748Y36533D01*
X242686Y36501D01*
X242622Y36473D01*
X242557Y36448D01*
X242491Y36427D01*
X242423Y36409D01*
X242355Y36396D01*
X242286Y36386D01*
X242217Y36380D01*
X242147Y36378D01*
X240905Y36378D01*
X245460Y38862D02*
X247323Y33274D01*
X249185Y38862D01*
X251257Y33274D02*
X252809Y33274D01*
X252886Y33276D01*
X252964Y33282D01*
X253040Y33291D01*
X253117Y33305D01*
X253192Y33322D01*
X253266Y33343D01*
X253340Y33368D01*
X253412Y33396D01*
X253482Y33428D01*
X253551Y33463D01*
X253618Y33502D01*
X253683Y33544D01*
X253746Y33589D01*
X253807Y33637D01*
X253865Y33688D01*
X253920Y33742D01*
X253973Y33799D01*
X254022Y33858D01*
X254069Y33920D01*
X254113Y33984D01*
X254153Y34050D01*
X254190Y34118D01*
X254224Y34188D01*
X254254Y34259D01*
X254280Y34332D01*
X254303Y34406D01*
X254322Y34481D01*
X254337Y34556D01*
X254349Y34633D01*
X254357Y34710D01*
X254361Y34787D01*
X254361Y34865D01*
X254357Y34942D01*
X254349Y35019D01*
X254337Y35096D01*
X254322Y35171D01*
X254303Y35246D01*
X254280Y35320D01*
X254254Y35393D01*
X254224Y35464D01*
X254190Y35534D01*
X254153Y35602D01*
X254113Y35668D01*
X254069Y35732D01*
X254022Y35794D01*
X253973Y35853D01*
X253920Y35910D01*
X253865Y35964D01*
X253807Y36015D01*
X253746Y36063D01*
X253683Y36108D01*
X253618Y36150D01*
X253551Y36189D01*
X253482Y36224D01*
X253412Y36256D01*
X253340Y36284D01*
X253266Y36309D01*
X253192Y36330D01*
X253117Y36347D01*
X253040Y36361D01*
X252964Y36370D01*
X252886Y36376D01*
X252809Y36378D01*
X253119Y38862D02*
X251257Y38862D01*
X253119Y38862D02*
X253189Y38860D01*
X253258Y38854D01*
X253327Y38844D01*
X253395Y38831D01*
X253463Y38813D01*
X253529Y38792D01*
X253594Y38767D01*
X253658Y38739D01*
X253720Y38707D01*
X253780Y38672D01*
X253838Y38633D01*
X253893Y38591D01*
X253947Y38546D01*
X253997Y38498D01*
X254045Y38448D01*
X254090Y38394D01*
X254132Y38339D01*
X254171Y38281D01*
X254206Y38221D01*
X254238Y38159D01*
X254266Y38095D01*
X254291Y38030D01*
X254312Y37964D01*
X254330Y37896D01*
X254343Y37828D01*
X254353Y37759D01*
X254359Y37690D01*
X254361Y37620D01*
X254359Y37550D01*
X254353Y37481D01*
X254343Y37412D01*
X254330Y37344D01*
X254312Y37276D01*
X254291Y37210D01*
X254266Y37145D01*
X254238Y37081D01*
X254206Y37019D01*
X254171Y36959D01*
X254132Y36901D01*
X254090Y36846D01*
X254045Y36792D01*
X253997Y36742D01*
X253947Y36694D01*
X253893Y36649D01*
X253838Y36607D01*
X253780Y36568D01*
X253720Y36533D01*
X253658Y36501D01*
X253594Y36473D01*
X253529Y36448D01*
X253463Y36427D01*
X253395Y36409D01*
X253327Y36396D01*
X253258Y36386D01*
X253189Y36380D01*
X253119Y36378D01*
X251878Y36378D01*
X220246Y36378D02*
X218694Y36378D01*
X220246Y36378D02*
X220323Y36376D01*
X220401Y36370D01*
X220477Y36361D01*
X220554Y36347D01*
X220629Y36330D01*
X220703Y36309D01*
X220777Y36284D01*
X220849Y36256D01*
X220919Y36224D01*
X220988Y36189D01*
X221055Y36150D01*
X221120Y36108D01*
X221183Y36063D01*
X221244Y36015D01*
X221302Y35964D01*
X221357Y35910D01*
X221410Y35853D01*
X221459Y35794D01*
X221506Y35732D01*
X221550Y35668D01*
X221590Y35602D01*
X221627Y35534D01*
X221661Y35464D01*
X221691Y35393D01*
X221717Y35320D01*
X221740Y35246D01*
X221759Y35171D01*
X221774Y35096D01*
X221786Y35019D01*
X221794Y34942D01*
X221798Y34865D01*
X221798Y34787D01*
X221794Y34710D01*
X221786Y34633D01*
X221774Y34556D01*
X221759Y34481D01*
X221740Y34406D01*
X221717Y34332D01*
X221691Y34259D01*
X221661Y34188D01*
X221627Y34118D01*
X221590Y34050D01*
X221550Y33984D01*
X221506Y33920D01*
X221459Y33858D01*
X221410Y33799D01*
X221357Y33742D01*
X221302Y33688D01*
X221244Y33637D01*
X221183Y33589D01*
X221120Y33544D01*
X221055Y33502D01*
X220988Y33463D01*
X220919Y33428D01*
X220849Y33396D01*
X220777Y33368D01*
X220703Y33343D01*
X220629Y33322D01*
X220554Y33305D01*
X220477Y33291D01*
X220401Y33282D01*
X220323Y33276D01*
X220246Y33274D01*
X218694Y33274D01*
X218694Y38862D01*
X220246Y38862D01*
X220316Y38860D01*
X220385Y38854D01*
X220454Y38844D01*
X220522Y38831D01*
X220590Y38813D01*
X220656Y38792D01*
X220721Y38767D01*
X220785Y38739D01*
X220847Y38707D01*
X220907Y38672D01*
X220965Y38633D01*
X221020Y38591D01*
X221074Y38546D01*
X221124Y38498D01*
X221172Y38448D01*
X221217Y38394D01*
X221259Y38339D01*
X221298Y38281D01*
X221333Y38221D01*
X221365Y38159D01*
X221393Y38095D01*
X221418Y38030D01*
X221439Y37964D01*
X221457Y37896D01*
X221470Y37828D01*
X221480Y37759D01*
X221486Y37690D01*
X221488Y37620D01*
X221486Y37550D01*
X221480Y37481D01*
X221470Y37412D01*
X221457Y37344D01*
X221439Y37276D01*
X221418Y37210D01*
X221393Y37145D01*
X221365Y37081D01*
X221333Y37019D01*
X221298Y36959D01*
X221259Y36901D01*
X221217Y36846D01*
X221172Y36792D01*
X221124Y36742D01*
X221074Y36694D01*
X221020Y36649D01*
X220965Y36607D01*
X220907Y36568D01*
X220847Y36533D01*
X220785Y36501D01*
X220721Y36473D01*
X220656Y36448D01*
X220590Y36427D01*
X220522Y36409D01*
X220454Y36396D01*
X220385Y36386D01*
X220316Y36380D01*
X220246Y36378D01*
X225622Y38862D02*
X225695Y38860D01*
X225768Y38854D01*
X225841Y38845D01*
X225912Y38831D01*
X225984Y38814D01*
X226054Y38794D01*
X226123Y38769D01*
X226190Y38741D01*
X226256Y38710D01*
X226321Y38675D01*
X226383Y38637D01*
X226443Y38595D01*
X226501Y38551D01*
X226557Y38503D01*
X226610Y38453D01*
X226660Y38400D01*
X226708Y38344D01*
X226752Y38286D01*
X226794Y38226D01*
X226832Y38164D01*
X226867Y38099D01*
X226898Y38033D01*
X226926Y37966D01*
X226951Y37897D01*
X226971Y37827D01*
X226988Y37755D01*
X227002Y37684D01*
X227011Y37611D01*
X227017Y37538D01*
X227019Y37465D01*
X225622Y38862D02*
X225538Y38860D01*
X225455Y38854D01*
X225372Y38845D01*
X225290Y38831D01*
X225208Y38814D01*
X225127Y38792D01*
X225047Y38767D01*
X224969Y38739D01*
X224891Y38707D01*
X224816Y38671D01*
X224742Y38632D01*
X224670Y38589D01*
X224600Y38543D01*
X224533Y38494D01*
X224467Y38441D01*
X224405Y38386D01*
X224345Y38328D01*
X224287Y38267D01*
X224233Y38204D01*
X224181Y38138D01*
X224133Y38070D01*
X224088Y37999D01*
X224046Y37927D01*
X224008Y37852D01*
X223973Y37776D01*
X223942Y37699D01*
X223914Y37620D01*
X226553Y36379D02*
X226607Y36432D01*
X226658Y36489D01*
X226706Y36548D01*
X226751Y36609D01*
X226792Y36672D01*
X226831Y36738D01*
X226866Y36805D01*
X226898Y36874D01*
X226926Y36945D01*
X226950Y37016D01*
X226971Y37089D01*
X226988Y37163D01*
X227002Y37238D01*
X227011Y37313D01*
X227017Y37389D01*
X227019Y37465D01*
X226553Y36378D02*
X223915Y33274D01*
X227019Y33274D01*
X192588Y36378D02*
X191657Y36378D01*
X192588Y36378D02*
X192588Y33274D01*
X190726Y33274D01*
X190656Y33276D01*
X190587Y33282D01*
X190518Y33292D01*
X190450Y33305D01*
X190382Y33323D01*
X190316Y33344D01*
X190251Y33369D01*
X190187Y33397D01*
X190125Y33429D01*
X190065Y33464D01*
X190007Y33503D01*
X189952Y33545D01*
X189898Y33590D01*
X189848Y33638D01*
X189800Y33688D01*
X189755Y33742D01*
X189713Y33797D01*
X189674Y33855D01*
X189639Y33915D01*
X189607Y33977D01*
X189579Y34041D01*
X189554Y34106D01*
X189533Y34172D01*
X189515Y34240D01*
X189502Y34308D01*
X189492Y34377D01*
X189486Y34446D01*
X189484Y34516D01*
X189484Y37620D01*
X189486Y37690D01*
X189492Y37759D01*
X189502Y37828D01*
X189515Y37896D01*
X189533Y37964D01*
X189554Y38030D01*
X189579Y38095D01*
X189607Y38159D01*
X189639Y38221D01*
X189674Y38281D01*
X189713Y38339D01*
X189755Y38394D01*
X189800Y38448D01*
X189848Y38498D01*
X189898Y38546D01*
X189952Y38591D01*
X190007Y38633D01*
X190065Y38672D01*
X190125Y38707D01*
X190187Y38739D01*
X190251Y38767D01*
X190316Y38792D01*
X190382Y38813D01*
X190450Y38831D01*
X190518Y38844D01*
X190587Y38854D01*
X190656Y38860D01*
X190726Y38862D01*
X192588Y38862D01*
X195336Y38862D02*
X195336Y33274D01*
X198441Y33274D02*
X195336Y38862D01*
X198441Y38862D02*
X198441Y33274D01*
X201188Y33274D02*
X201188Y38862D01*
X202740Y38862D01*
X202816Y38860D01*
X202892Y38855D01*
X202968Y38845D01*
X203043Y38832D01*
X203117Y38815D01*
X203191Y38795D01*
X203263Y38771D01*
X203334Y38744D01*
X203404Y38713D01*
X203472Y38679D01*
X203538Y38641D01*
X203602Y38600D01*
X203665Y38557D01*
X203725Y38510D01*
X203782Y38460D01*
X203837Y38407D01*
X203890Y38352D01*
X203940Y38295D01*
X203987Y38235D01*
X204030Y38172D01*
X204071Y38108D01*
X204109Y38042D01*
X204143Y37974D01*
X204174Y37904D01*
X204201Y37833D01*
X204225Y37760D01*
X204245Y37687D01*
X204262Y37613D01*
X204275Y37538D01*
X204285Y37462D01*
X204290Y37386D01*
X204292Y37310D01*
X204293Y37310D02*
X204293Y34826D01*
X204292Y34826D02*
X204290Y34747D01*
X204284Y34669D01*
X204274Y34591D01*
X204260Y34514D01*
X204242Y34437D01*
X204221Y34361D01*
X204195Y34287D01*
X204166Y34214D01*
X204133Y34143D01*
X204097Y34073D01*
X204057Y34005D01*
X204014Y33939D01*
X203967Y33876D01*
X203918Y33815D01*
X203865Y33757D01*
X203809Y33701D01*
X203751Y33648D01*
X203690Y33599D01*
X203627Y33552D01*
X203561Y33509D01*
X203493Y33469D01*
X203424Y33433D01*
X203352Y33400D01*
X203279Y33371D01*
X203205Y33345D01*
X203129Y33324D01*
X203052Y33306D01*
X202975Y33292D01*
X202897Y33282D01*
X202819Y33276D01*
X202740Y33274D01*
X201188Y33274D01*
X169757Y38862D02*
X167894Y33274D01*
X171619Y33274D02*
X169757Y38862D01*
X171154Y34671D02*
X168360Y34671D01*
X173691Y33274D02*
X175243Y33274D01*
X175320Y33276D01*
X175398Y33282D01*
X175474Y33291D01*
X175551Y33305D01*
X175626Y33322D01*
X175700Y33343D01*
X175774Y33368D01*
X175846Y33396D01*
X175916Y33428D01*
X175985Y33463D01*
X176052Y33502D01*
X176117Y33544D01*
X176180Y33589D01*
X176241Y33637D01*
X176299Y33688D01*
X176354Y33742D01*
X176407Y33799D01*
X176456Y33858D01*
X176503Y33920D01*
X176547Y33984D01*
X176587Y34050D01*
X176624Y34118D01*
X176658Y34188D01*
X176688Y34259D01*
X176714Y34332D01*
X176737Y34406D01*
X176756Y34481D01*
X176771Y34556D01*
X176783Y34633D01*
X176791Y34710D01*
X176795Y34787D01*
X176795Y34865D01*
X176791Y34942D01*
X176783Y35019D01*
X176771Y35096D01*
X176756Y35171D01*
X176737Y35246D01*
X176714Y35320D01*
X176688Y35393D01*
X176658Y35464D01*
X176624Y35534D01*
X176587Y35602D01*
X176547Y35668D01*
X176503Y35732D01*
X176456Y35794D01*
X176407Y35853D01*
X176354Y35910D01*
X176299Y35964D01*
X176241Y36015D01*
X176180Y36063D01*
X176117Y36108D01*
X176052Y36150D01*
X175985Y36189D01*
X175916Y36224D01*
X175846Y36256D01*
X175774Y36284D01*
X175700Y36309D01*
X175626Y36330D01*
X175551Y36347D01*
X175474Y36361D01*
X175398Y36370D01*
X175320Y36376D01*
X175243Y36378D01*
X175553Y38862D02*
X173691Y38862D01*
X175553Y38862D02*
X175623Y38860D01*
X175692Y38854D01*
X175761Y38844D01*
X175829Y38831D01*
X175897Y38813D01*
X175963Y38792D01*
X176028Y38767D01*
X176092Y38739D01*
X176154Y38707D01*
X176214Y38672D01*
X176272Y38633D01*
X176327Y38591D01*
X176381Y38546D01*
X176431Y38498D01*
X176479Y38448D01*
X176524Y38394D01*
X176566Y38339D01*
X176605Y38281D01*
X176640Y38221D01*
X176672Y38159D01*
X176700Y38095D01*
X176725Y38030D01*
X176746Y37964D01*
X176764Y37896D01*
X176777Y37828D01*
X176787Y37759D01*
X176793Y37690D01*
X176795Y37620D01*
X176793Y37550D01*
X176787Y37481D01*
X176777Y37412D01*
X176764Y37344D01*
X176746Y37276D01*
X176725Y37210D01*
X176700Y37145D01*
X176672Y37081D01*
X176640Y37019D01*
X176605Y36959D01*
X176566Y36901D01*
X176524Y36846D01*
X176479Y36792D01*
X176431Y36742D01*
X176381Y36694D01*
X176327Y36649D01*
X176272Y36607D01*
X176214Y36568D01*
X176154Y36533D01*
X176092Y36501D01*
X176028Y36473D01*
X175963Y36448D01*
X175897Y36427D01*
X175829Y36409D01*
X175761Y36396D01*
X175692Y36386D01*
X175623Y36380D01*
X175553Y36378D01*
X174312Y36378D01*
X143087Y38862D02*
X141224Y33274D01*
X144949Y33274D02*
X143087Y38862D01*
X144484Y34671D02*
X141690Y34671D01*
X148728Y38862D02*
X148801Y38860D01*
X148874Y38854D01*
X148947Y38845D01*
X149018Y38831D01*
X149090Y38814D01*
X149160Y38794D01*
X149229Y38769D01*
X149296Y38741D01*
X149362Y38710D01*
X149427Y38675D01*
X149489Y38637D01*
X149549Y38595D01*
X149607Y38551D01*
X149663Y38503D01*
X149716Y38453D01*
X149766Y38400D01*
X149814Y38344D01*
X149858Y38286D01*
X149900Y38226D01*
X149938Y38164D01*
X149973Y38099D01*
X150004Y38033D01*
X150032Y37966D01*
X150057Y37897D01*
X150077Y37827D01*
X150094Y37755D01*
X150108Y37684D01*
X150117Y37611D01*
X150123Y37538D01*
X150125Y37465D01*
X148728Y38862D02*
X148644Y38860D01*
X148561Y38854D01*
X148478Y38845D01*
X148396Y38831D01*
X148314Y38814D01*
X148233Y38792D01*
X148153Y38767D01*
X148075Y38739D01*
X147997Y38707D01*
X147922Y38671D01*
X147848Y38632D01*
X147776Y38589D01*
X147706Y38543D01*
X147639Y38494D01*
X147573Y38441D01*
X147511Y38386D01*
X147451Y38328D01*
X147393Y38267D01*
X147339Y38204D01*
X147287Y38138D01*
X147239Y38070D01*
X147194Y37999D01*
X147152Y37927D01*
X147114Y37852D01*
X147079Y37776D01*
X147048Y37699D01*
X147020Y37620D01*
X149659Y36379D02*
X149713Y36432D01*
X149764Y36489D01*
X149812Y36548D01*
X149857Y36609D01*
X149898Y36672D01*
X149937Y36738D01*
X149972Y36805D01*
X150004Y36874D01*
X150032Y36945D01*
X150056Y37016D01*
X150077Y37089D01*
X150094Y37163D01*
X150108Y37238D01*
X150117Y37313D01*
X150123Y37389D01*
X150125Y37465D01*
X149660Y36378D02*
X147021Y33274D01*
X150125Y33274D01*
X114554Y33274D02*
X114554Y38862D01*
X117038Y38862D01*
X117038Y36378D02*
X114554Y36378D01*
X119115Y33274D02*
X120667Y33274D01*
X120744Y33276D01*
X120822Y33282D01*
X120898Y33291D01*
X120975Y33305D01*
X121050Y33322D01*
X121124Y33343D01*
X121198Y33368D01*
X121270Y33396D01*
X121340Y33428D01*
X121409Y33463D01*
X121476Y33502D01*
X121541Y33544D01*
X121604Y33589D01*
X121665Y33637D01*
X121723Y33688D01*
X121778Y33742D01*
X121831Y33799D01*
X121880Y33858D01*
X121927Y33920D01*
X121971Y33984D01*
X122011Y34050D01*
X122048Y34118D01*
X122082Y34188D01*
X122112Y34259D01*
X122138Y34332D01*
X122161Y34406D01*
X122180Y34481D01*
X122195Y34556D01*
X122207Y34633D01*
X122215Y34710D01*
X122219Y34787D01*
X122219Y34865D01*
X122215Y34942D01*
X122207Y35019D01*
X122195Y35096D01*
X122180Y35171D01*
X122161Y35246D01*
X122138Y35320D01*
X122112Y35393D01*
X122082Y35464D01*
X122048Y35534D01*
X122011Y35602D01*
X121971Y35668D01*
X121927Y35732D01*
X121880Y35794D01*
X121831Y35853D01*
X121778Y35910D01*
X121723Y35964D01*
X121665Y36015D01*
X121604Y36063D01*
X121541Y36108D01*
X121476Y36150D01*
X121409Y36189D01*
X121340Y36224D01*
X121270Y36256D01*
X121198Y36284D01*
X121124Y36309D01*
X121050Y36330D01*
X120975Y36347D01*
X120898Y36361D01*
X120822Y36370D01*
X120744Y36376D01*
X120667Y36378D01*
X120978Y38862D02*
X119115Y38862D01*
X120978Y38862D02*
X121048Y38860D01*
X121117Y38854D01*
X121186Y38844D01*
X121254Y38831D01*
X121322Y38813D01*
X121388Y38792D01*
X121453Y38767D01*
X121517Y38739D01*
X121579Y38707D01*
X121639Y38672D01*
X121697Y38633D01*
X121752Y38591D01*
X121806Y38546D01*
X121856Y38498D01*
X121904Y38448D01*
X121949Y38394D01*
X121991Y38339D01*
X122030Y38281D01*
X122065Y38221D01*
X122097Y38159D01*
X122125Y38095D01*
X122150Y38030D01*
X122171Y37964D01*
X122189Y37896D01*
X122202Y37828D01*
X122212Y37759D01*
X122218Y37690D01*
X122220Y37620D01*
X122218Y37550D01*
X122212Y37481D01*
X122202Y37412D01*
X122189Y37344D01*
X122171Y37276D01*
X122150Y37210D01*
X122125Y37145D01*
X122097Y37081D01*
X122065Y37019D01*
X122030Y36959D01*
X121991Y36901D01*
X121949Y36846D01*
X121904Y36792D01*
X121856Y36742D01*
X121806Y36694D01*
X121752Y36649D01*
X121697Y36607D01*
X121639Y36568D01*
X121579Y36533D01*
X121517Y36501D01*
X121453Y36473D01*
X121388Y36448D01*
X121322Y36427D01*
X121254Y36409D01*
X121186Y36396D01*
X121117Y36386D01*
X121048Y36380D01*
X120978Y36378D01*
X119736Y36378D01*
X90424Y38862D02*
X90424Y33274D01*
X90424Y38862D02*
X92908Y38862D01*
X92908Y36378D02*
X90424Y36378D01*
X96692Y38862D02*
X96765Y38860D01*
X96838Y38854D01*
X96911Y38845D01*
X96982Y38831D01*
X97054Y38814D01*
X97124Y38794D01*
X97193Y38769D01*
X97260Y38741D01*
X97326Y38710D01*
X97391Y38675D01*
X97453Y38637D01*
X97513Y38595D01*
X97571Y38551D01*
X97627Y38503D01*
X97680Y38453D01*
X97730Y38400D01*
X97778Y38344D01*
X97822Y38286D01*
X97864Y38226D01*
X97902Y38164D01*
X97937Y38099D01*
X97968Y38033D01*
X97996Y37966D01*
X98021Y37897D01*
X98041Y37827D01*
X98058Y37755D01*
X98072Y37684D01*
X98081Y37611D01*
X98087Y37538D01*
X98089Y37465D01*
X96692Y38862D02*
X96608Y38860D01*
X96525Y38854D01*
X96442Y38845D01*
X96360Y38831D01*
X96278Y38814D01*
X96197Y38792D01*
X96117Y38767D01*
X96039Y38739D01*
X95961Y38707D01*
X95886Y38671D01*
X95812Y38632D01*
X95740Y38589D01*
X95670Y38543D01*
X95603Y38494D01*
X95537Y38441D01*
X95475Y38386D01*
X95415Y38328D01*
X95357Y38267D01*
X95303Y38204D01*
X95251Y38138D01*
X95203Y38070D01*
X95158Y37999D01*
X95116Y37927D01*
X95078Y37852D01*
X95043Y37776D01*
X95012Y37699D01*
X94984Y37620D01*
X97623Y36379D02*
X97677Y36432D01*
X97728Y36489D01*
X97776Y36548D01*
X97821Y36609D01*
X97862Y36672D01*
X97901Y36738D01*
X97936Y36805D01*
X97968Y36874D01*
X97996Y36945D01*
X98020Y37016D01*
X98041Y37089D01*
X98058Y37163D01*
X98072Y37238D01*
X98081Y37313D01*
X98087Y37389D01*
X98089Y37465D01*
X97624Y36378D02*
X94985Y33274D01*
X98089Y33274D01*
X65024Y33274D02*
X65024Y38862D01*
X67508Y38862D01*
X67508Y36378D02*
X65024Y36378D01*
X69585Y37620D02*
X71137Y38862D01*
X71137Y33274D01*
X69585Y33274D02*
X72689Y33274D01*
X39624Y33274D02*
X39624Y38862D01*
X42108Y38862D01*
X42108Y36378D02*
X39624Y36378D01*
X44185Y36068D02*
X44187Y36199D01*
X44192Y36329D01*
X44202Y36459D01*
X44215Y36589D01*
X44231Y36719D01*
X44251Y36848D01*
X44275Y36976D01*
X44303Y37103D01*
X44334Y37230D01*
X44369Y37356D01*
X44407Y37481D01*
X44449Y37605D01*
X44494Y37727D01*
X44543Y37848D01*
X44595Y37968D01*
X44651Y38086D01*
X44650Y38086D02*
X44673Y38146D01*
X44699Y38206D01*
X44728Y38263D01*
X44761Y38319D01*
X44797Y38373D01*
X44835Y38425D01*
X44877Y38475D01*
X44921Y38522D01*
X44968Y38567D01*
X45018Y38609D01*
X45069Y38648D01*
X45123Y38684D01*
X45179Y38717D01*
X45236Y38747D01*
X45295Y38774D01*
X45356Y38797D01*
X45417Y38817D01*
X45480Y38833D01*
X45544Y38846D01*
X45608Y38855D01*
X45672Y38860D01*
X45737Y38862D01*
X45802Y38860D01*
X45866Y38855D01*
X45930Y38846D01*
X45994Y38833D01*
X46057Y38817D01*
X46118Y38797D01*
X46179Y38774D01*
X46238Y38747D01*
X46295Y38717D01*
X46351Y38684D01*
X46405Y38648D01*
X46456Y38609D01*
X46506Y38567D01*
X46553Y38522D01*
X46597Y38475D01*
X46639Y38425D01*
X46677Y38373D01*
X46713Y38319D01*
X46746Y38263D01*
X46775Y38206D01*
X46801Y38146D01*
X46824Y38086D01*
X46880Y37968D01*
X46932Y37848D01*
X46981Y37727D01*
X47026Y37605D01*
X47068Y37481D01*
X47106Y37356D01*
X47141Y37230D01*
X47172Y37104D01*
X47200Y36976D01*
X47224Y36848D01*
X47244Y36719D01*
X47260Y36589D01*
X47273Y36459D01*
X47283Y36329D01*
X47288Y36199D01*
X47290Y36068D01*
X44185Y36068D02*
X44187Y35937D01*
X44192Y35807D01*
X44202Y35677D01*
X44215Y35547D01*
X44231Y35417D01*
X44251Y35288D01*
X44275Y35160D01*
X44303Y35033D01*
X44334Y34906D01*
X44369Y34780D01*
X44407Y34655D01*
X44449Y34531D01*
X44494Y34409D01*
X44543Y34288D01*
X44595Y34168D01*
X44651Y34050D01*
X44650Y34050D02*
X44673Y33990D01*
X44699Y33930D01*
X44728Y33873D01*
X44761Y33817D01*
X44797Y33763D01*
X44835Y33711D01*
X44877Y33661D01*
X44921Y33614D01*
X44968Y33569D01*
X45018Y33527D01*
X45069Y33488D01*
X45123Y33452D01*
X45179Y33419D01*
X45236Y33389D01*
X45295Y33362D01*
X45356Y33339D01*
X45417Y33319D01*
X45480Y33303D01*
X45544Y33290D01*
X45608Y33281D01*
X45672Y33276D01*
X45737Y33274D01*
X46823Y34050D02*
X46879Y34168D01*
X46931Y34288D01*
X46980Y34409D01*
X47025Y34531D01*
X47067Y34655D01*
X47105Y34780D01*
X47140Y34906D01*
X47171Y35032D01*
X47199Y35160D01*
X47223Y35288D01*
X47243Y35417D01*
X47259Y35547D01*
X47272Y35677D01*
X47282Y35807D01*
X47287Y35937D01*
X47289Y36068D01*
X46824Y34050D02*
X46801Y33990D01*
X46775Y33930D01*
X46746Y33873D01*
X46713Y33817D01*
X46677Y33763D01*
X46639Y33711D01*
X46597Y33661D01*
X46553Y33614D01*
X46506Y33569D01*
X46456Y33527D01*
X46405Y33488D01*
X46351Y33452D01*
X46295Y33419D01*
X46238Y33389D01*
X46179Y33362D01*
X46118Y33339D01*
X46057Y33319D01*
X45994Y33303D01*
X45930Y33290D01*
X45866Y33281D01*
X45802Y33276D01*
X45737Y33274D01*
X44495Y34516D02*
X46979Y37620D01*
X291084Y33274D02*
X292636Y33274D01*
X292713Y33276D01*
X292791Y33282D01*
X292867Y33291D01*
X292944Y33305D01*
X293019Y33322D01*
X293093Y33343D01*
X293167Y33368D01*
X293239Y33396D01*
X293309Y33428D01*
X293378Y33463D01*
X293445Y33502D01*
X293510Y33544D01*
X293573Y33589D01*
X293634Y33637D01*
X293692Y33688D01*
X293747Y33742D01*
X293800Y33799D01*
X293849Y33858D01*
X293896Y33920D01*
X293940Y33984D01*
X293980Y34050D01*
X294017Y34118D01*
X294051Y34188D01*
X294081Y34259D01*
X294107Y34332D01*
X294130Y34406D01*
X294149Y34481D01*
X294164Y34556D01*
X294176Y34633D01*
X294184Y34710D01*
X294188Y34787D01*
X294188Y34865D01*
X294184Y34942D01*
X294176Y35019D01*
X294164Y35096D01*
X294149Y35171D01*
X294130Y35246D01*
X294107Y35320D01*
X294081Y35393D01*
X294051Y35464D01*
X294017Y35534D01*
X293980Y35602D01*
X293940Y35668D01*
X293896Y35732D01*
X293849Y35794D01*
X293800Y35853D01*
X293747Y35910D01*
X293692Y35964D01*
X293634Y36015D01*
X293573Y36063D01*
X293510Y36108D01*
X293445Y36150D01*
X293378Y36189D01*
X293309Y36224D01*
X293239Y36256D01*
X293167Y36284D01*
X293093Y36309D01*
X293019Y36330D01*
X292944Y36347D01*
X292867Y36361D01*
X292791Y36370D01*
X292713Y36376D01*
X292636Y36378D01*
X292947Y38862D02*
X291084Y38862D01*
X292947Y38862D02*
X293017Y38860D01*
X293086Y38854D01*
X293155Y38844D01*
X293223Y38831D01*
X293291Y38813D01*
X293357Y38792D01*
X293422Y38767D01*
X293486Y38739D01*
X293548Y38707D01*
X293608Y38672D01*
X293666Y38633D01*
X293721Y38591D01*
X293775Y38546D01*
X293825Y38498D01*
X293873Y38448D01*
X293918Y38394D01*
X293960Y38339D01*
X293999Y38281D01*
X294034Y38221D01*
X294066Y38159D01*
X294094Y38095D01*
X294119Y38030D01*
X294140Y37964D01*
X294158Y37896D01*
X294171Y37828D01*
X294181Y37759D01*
X294187Y37690D01*
X294189Y37620D01*
X294187Y37550D01*
X294181Y37481D01*
X294171Y37412D01*
X294158Y37344D01*
X294140Y37276D01*
X294119Y37210D01*
X294094Y37145D01*
X294066Y37081D01*
X294034Y37019D01*
X293999Y36959D01*
X293960Y36901D01*
X293918Y36846D01*
X293873Y36792D01*
X293825Y36742D01*
X293775Y36694D01*
X293721Y36649D01*
X293666Y36607D01*
X293608Y36568D01*
X293548Y36533D01*
X293486Y36501D01*
X293422Y36473D01*
X293357Y36448D01*
X293291Y36427D01*
X293223Y36409D01*
X293155Y36396D01*
X293086Y36386D01*
X293017Y36380D01*
X292947Y36378D01*
X291705Y36378D01*
X296260Y38862D02*
X298123Y33274D01*
X299985Y38862D01*
X302057Y33274D02*
X303609Y33274D01*
X303686Y33276D01*
X303764Y33282D01*
X303840Y33291D01*
X303917Y33305D01*
X303992Y33322D01*
X304066Y33343D01*
X304140Y33368D01*
X304212Y33396D01*
X304282Y33428D01*
X304351Y33463D01*
X304418Y33502D01*
X304483Y33544D01*
X304546Y33589D01*
X304607Y33637D01*
X304665Y33688D01*
X304720Y33742D01*
X304773Y33799D01*
X304822Y33858D01*
X304869Y33920D01*
X304913Y33984D01*
X304953Y34050D01*
X304990Y34118D01*
X305024Y34188D01*
X305054Y34259D01*
X305080Y34332D01*
X305103Y34406D01*
X305122Y34481D01*
X305137Y34556D01*
X305149Y34633D01*
X305157Y34710D01*
X305161Y34787D01*
X305161Y34865D01*
X305157Y34942D01*
X305149Y35019D01*
X305137Y35096D01*
X305122Y35171D01*
X305103Y35246D01*
X305080Y35320D01*
X305054Y35393D01*
X305024Y35464D01*
X304990Y35534D01*
X304953Y35602D01*
X304913Y35668D01*
X304869Y35732D01*
X304822Y35794D01*
X304773Y35853D01*
X304720Y35910D01*
X304665Y35964D01*
X304607Y36015D01*
X304546Y36063D01*
X304483Y36108D01*
X304418Y36150D01*
X304351Y36189D01*
X304282Y36224D01*
X304212Y36256D01*
X304140Y36284D01*
X304066Y36309D01*
X303992Y36330D01*
X303917Y36347D01*
X303840Y36361D01*
X303764Y36370D01*
X303686Y36376D01*
X303609Y36378D01*
X303919Y38862D02*
X302057Y38862D01*
X303919Y38862D02*
X303989Y38860D01*
X304058Y38854D01*
X304127Y38844D01*
X304195Y38831D01*
X304263Y38813D01*
X304329Y38792D01*
X304394Y38767D01*
X304458Y38739D01*
X304520Y38707D01*
X304580Y38672D01*
X304638Y38633D01*
X304693Y38591D01*
X304747Y38546D01*
X304797Y38498D01*
X304845Y38448D01*
X304890Y38394D01*
X304932Y38339D01*
X304971Y38281D01*
X305006Y38221D01*
X305038Y38159D01*
X305066Y38095D01*
X305091Y38030D01*
X305112Y37964D01*
X305130Y37896D01*
X305143Y37828D01*
X305153Y37759D01*
X305159Y37690D01*
X305161Y37620D01*
X305159Y37550D01*
X305153Y37481D01*
X305143Y37412D01*
X305130Y37344D01*
X305112Y37276D01*
X305091Y37210D01*
X305066Y37145D01*
X305038Y37081D01*
X305006Y37019D01*
X304971Y36959D01*
X304932Y36901D01*
X304890Y36846D01*
X304845Y36792D01*
X304797Y36742D01*
X304747Y36694D01*
X304693Y36649D01*
X304638Y36607D01*
X304580Y36568D01*
X304520Y36533D01*
X304458Y36501D01*
X304394Y36473D01*
X304329Y36448D01*
X304263Y36427D01*
X304195Y36409D01*
X304127Y36396D01*
X304058Y36386D01*
X303989Y36380D01*
X303919Y36378D01*
X302678Y36378D01*
X320294Y33274D02*
X322157Y33274D01*
X322227Y33276D01*
X322296Y33282D01*
X322365Y33292D01*
X322433Y33305D01*
X322501Y33323D01*
X322567Y33344D01*
X322632Y33369D01*
X322696Y33397D01*
X322758Y33429D01*
X322818Y33464D01*
X322876Y33503D01*
X322931Y33545D01*
X322985Y33590D01*
X323035Y33638D01*
X323083Y33688D01*
X323128Y33742D01*
X323170Y33797D01*
X323209Y33855D01*
X323244Y33915D01*
X323276Y33977D01*
X323304Y34041D01*
X323329Y34106D01*
X323350Y34172D01*
X323368Y34240D01*
X323381Y34308D01*
X323391Y34377D01*
X323397Y34446D01*
X323399Y34516D01*
X323398Y34516D02*
X323398Y35137D01*
X323399Y35137D02*
X323397Y35207D01*
X323391Y35276D01*
X323381Y35345D01*
X323368Y35413D01*
X323350Y35481D01*
X323329Y35547D01*
X323304Y35612D01*
X323276Y35676D01*
X323244Y35738D01*
X323209Y35798D01*
X323170Y35856D01*
X323128Y35911D01*
X323083Y35965D01*
X323035Y36015D01*
X322985Y36063D01*
X322931Y36108D01*
X322876Y36150D01*
X322818Y36189D01*
X322758Y36224D01*
X322696Y36256D01*
X322632Y36284D01*
X322567Y36309D01*
X322501Y36330D01*
X322433Y36348D01*
X322365Y36361D01*
X322296Y36371D01*
X322227Y36377D01*
X322157Y36379D01*
X322157Y36378D02*
X320294Y36378D01*
X320294Y38862D01*
X323398Y38862D01*
X325470Y38862D02*
X327333Y33274D01*
X329195Y38862D01*
X43917Y42118D02*
X43917Y47706D01*
X45469Y47706D01*
X45546Y47704D01*
X45624Y47698D01*
X45700Y47689D01*
X45777Y47675D01*
X45852Y47658D01*
X45926Y47637D01*
X46000Y47612D01*
X46072Y47584D01*
X46142Y47552D01*
X46211Y47517D01*
X46278Y47478D01*
X46343Y47436D01*
X46406Y47391D01*
X46467Y47343D01*
X46525Y47292D01*
X46580Y47238D01*
X46633Y47181D01*
X46682Y47122D01*
X46729Y47060D01*
X46773Y46996D01*
X46813Y46930D01*
X46850Y46862D01*
X46884Y46792D01*
X46914Y46721D01*
X46940Y46648D01*
X46963Y46574D01*
X46982Y46499D01*
X46997Y46424D01*
X47009Y46347D01*
X47017Y46270D01*
X47021Y46193D01*
X47021Y46115D01*
X47017Y46038D01*
X47009Y45961D01*
X46997Y45884D01*
X46982Y45809D01*
X46963Y45734D01*
X46940Y45660D01*
X46914Y45587D01*
X46884Y45516D01*
X46850Y45446D01*
X46813Y45378D01*
X46773Y45312D01*
X46729Y45248D01*
X46682Y45186D01*
X46633Y45127D01*
X46580Y45070D01*
X46525Y45016D01*
X46467Y44965D01*
X46406Y44917D01*
X46343Y44872D01*
X46278Y44830D01*
X46211Y44791D01*
X46142Y44756D01*
X46072Y44724D01*
X46000Y44696D01*
X45926Y44671D01*
X45852Y44650D01*
X45777Y44633D01*
X45700Y44619D01*
X45624Y44610D01*
X45546Y44604D01*
X45469Y44602D01*
X43917Y44602D01*
X45779Y44602D02*
X47021Y42118D01*
X49561Y42118D02*
X52045Y42118D01*
X49561Y42118D02*
X49561Y47706D01*
X52045Y47706D01*
X51424Y45222D02*
X49561Y45222D01*
X55802Y42118D02*
X55872Y42120D01*
X55941Y42126D01*
X56010Y42136D01*
X56078Y42149D01*
X56146Y42167D01*
X56212Y42188D01*
X56277Y42213D01*
X56341Y42241D01*
X56403Y42273D01*
X56463Y42308D01*
X56521Y42347D01*
X56576Y42389D01*
X56630Y42434D01*
X56680Y42482D01*
X56728Y42532D01*
X56773Y42586D01*
X56815Y42641D01*
X56854Y42699D01*
X56889Y42759D01*
X56921Y42821D01*
X56949Y42885D01*
X56974Y42950D01*
X56995Y43016D01*
X57013Y43084D01*
X57026Y43152D01*
X57036Y43221D01*
X57042Y43290D01*
X57044Y43360D01*
X55802Y42118D02*
X55703Y42120D01*
X55605Y42125D01*
X55507Y42135D01*
X55409Y42148D01*
X55312Y42164D01*
X55215Y42184D01*
X55120Y42208D01*
X55025Y42236D01*
X54931Y42267D01*
X54839Y42301D01*
X54748Y42339D01*
X54658Y42380D01*
X54570Y42425D01*
X54484Y42473D01*
X54400Y42524D01*
X54318Y42578D01*
X54237Y42636D01*
X54159Y42696D01*
X54084Y42759D01*
X54010Y42825D01*
X53940Y42894D01*
X54094Y46464D02*
X54096Y46534D01*
X54102Y46603D01*
X54112Y46672D01*
X54125Y46740D01*
X54143Y46808D01*
X54164Y46874D01*
X54189Y46939D01*
X54217Y47003D01*
X54249Y47065D01*
X54284Y47125D01*
X54323Y47183D01*
X54365Y47238D01*
X54410Y47292D01*
X54458Y47342D01*
X54508Y47390D01*
X54562Y47435D01*
X54617Y47477D01*
X54675Y47516D01*
X54735Y47551D01*
X54797Y47583D01*
X54861Y47611D01*
X54926Y47636D01*
X54992Y47657D01*
X55060Y47675D01*
X55128Y47688D01*
X55197Y47698D01*
X55266Y47704D01*
X55336Y47706D01*
X55430Y47704D01*
X55523Y47698D01*
X55616Y47689D01*
X55709Y47676D01*
X55801Y47659D01*
X55892Y47639D01*
X55983Y47614D01*
X56072Y47587D01*
X56160Y47555D01*
X56247Y47520D01*
X56333Y47482D01*
X56416Y47440D01*
X56498Y47395D01*
X56579Y47347D01*
X56657Y47295D01*
X56733Y47240D01*
X54715Y45378D02*
X54656Y45414D01*
X54600Y45454D01*
X54546Y45497D01*
X54494Y45542D01*
X54445Y45591D01*
X54399Y45642D01*
X54356Y45695D01*
X54315Y45751D01*
X54278Y45809D01*
X54243Y45869D01*
X54213Y45930D01*
X54185Y45993D01*
X54161Y46058D01*
X54141Y46124D01*
X54124Y46191D01*
X54111Y46258D01*
X54102Y46326D01*
X54096Y46395D01*
X54094Y46464D01*
X56422Y44446D02*
X56481Y44410D01*
X56537Y44370D01*
X56591Y44327D01*
X56643Y44282D01*
X56692Y44233D01*
X56738Y44182D01*
X56781Y44129D01*
X56822Y44073D01*
X56859Y44015D01*
X56894Y43955D01*
X56924Y43894D01*
X56952Y43831D01*
X56976Y43766D01*
X56996Y43700D01*
X57013Y43633D01*
X57026Y43566D01*
X57035Y43498D01*
X57041Y43429D01*
X57043Y43360D01*
X56423Y44446D02*
X54715Y45378D01*
X59436Y42118D02*
X61920Y42118D01*
X59436Y42118D02*
X59436Y47706D01*
X61920Y47706D01*
X61299Y45222D02*
X59436Y45222D01*
X65184Y47706D02*
X65184Y42118D01*
X63632Y47706D02*
X66736Y47706D01*
D11*
X312420Y22860D02*
X312420Y10160D01*
D10*
X308098Y148378D02*
X307167Y148378D01*
X308098Y148378D02*
X308098Y145274D01*
X306236Y145274D01*
X306166Y145276D01*
X306097Y145282D01*
X306028Y145292D01*
X305960Y145305D01*
X305892Y145323D01*
X305826Y145344D01*
X305761Y145369D01*
X305697Y145397D01*
X305635Y145429D01*
X305575Y145464D01*
X305517Y145503D01*
X305462Y145545D01*
X305408Y145590D01*
X305358Y145638D01*
X305310Y145688D01*
X305265Y145742D01*
X305223Y145797D01*
X305184Y145855D01*
X305149Y145915D01*
X305117Y145977D01*
X305089Y146041D01*
X305064Y146106D01*
X305043Y146172D01*
X305025Y146240D01*
X305012Y146308D01*
X305002Y146377D01*
X304996Y146446D01*
X304994Y146516D01*
X304994Y149620D01*
X304996Y149690D01*
X305002Y149759D01*
X305012Y149828D01*
X305025Y149896D01*
X305043Y149964D01*
X305064Y150030D01*
X305089Y150095D01*
X305117Y150159D01*
X305149Y150221D01*
X305184Y150281D01*
X305223Y150339D01*
X305265Y150394D01*
X305310Y150448D01*
X305358Y150498D01*
X305408Y150546D01*
X305462Y150591D01*
X305517Y150633D01*
X305575Y150672D01*
X305635Y150707D01*
X305697Y150739D01*
X305761Y150767D01*
X305826Y150792D01*
X305892Y150813D01*
X305960Y150831D01*
X306028Y150844D01*
X306097Y150854D01*
X306166Y150860D01*
X306236Y150862D01*
X308098Y150862D01*
X310846Y150862D02*
X310846Y145274D01*
X313951Y145274D02*
X310846Y150862D01*
X313951Y150862D02*
X313951Y145274D01*
X316698Y145274D02*
X316698Y150862D01*
X318250Y150862D01*
X318326Y150860D01*
X318402Y150855D01*
X318478Y150845D01*
X318553Y150832D01*
X318627Y150815D01*
X318701Y150795D01*
X318773Y150771D01*
X318844Y150744D01*
X318914Y150713D01*
X318982Y150679D01*
X319048Y150641D01*
X319112Y150600D01*
X319175Y150557D01*
X319235Y150510D01*
X319292Y150460D01*
X319347Y150407D01*
X319400Y150352D01*
X319450Y150295D01*
X319497Y150235D01*
X319540Y150172D01*
X319581Y150108D01*
X319619Y150042D01*
X319653Y149974D01*
X319684Y149904D01*
X319711Y149833D01*
X319735Y149760D01*
X319755Y149687D01*
X319772Y149613D01*
X319785Y149538D01*
X319795Y149462D01*
X319800Y149386D01*
X319802Y149310D01*
X319803Y149310D02*
X319803Y146826D01*
X319802Y146826D02*
X319800Y146747D01*
X319794Y146669D01*
X319784Y146591D01*
X319770Y146514D01*
X319752Y146437D01*
X319731Y146361D01*
X319705Y146287D01*
X319676Y146214D01*
X319643Y146143D01*
X319607Y146073D01*
X319567Y146005D01*
X319524Y145939D01*
X319477Y145876D01*
X319428Y145815D01*
X319375Y145757D01*
X319319Y145701D01*
X319261Y145648D01*
X319200Y145599D01*
X319137Y145552D01*
X319071Y145509D01*
X319003Y145469D01*
X318934Y145433D01*
X318862Y145400D01*
X318789Y145371D01*
X318715Y145345D01*
X318639Y145324D01*
X318562Y145306D01*
X318485Y145292D01*
X318407Y145282D01*
X318329Y145276D01*
X318250Y145274D01*
X316698Y145274D01*
X429142Y137706D02*
X429142Y136154D01*
X429142Y137706D02*
X429144Y137783D01*
X429150Y137861D01*
X429159Y137937D01*
X429173Y138014D01*
X429190Y138089D01*
X429211Y138163D01*
X429236Y138237D01*
X429264Y138309D01*
X429296Y138379D01*
X429331Y138448D01*
X429370Y138515D01*
X429412Y138580D01*
X429457Y138643D01*
X429505Y138704D01*
X429556Y138762D01*
X429610Y138817D01*
X429667Y138870D01*
X429726Y138919D01*
X429788Y138966D01*
X429852Y139010D01*
X429918Y139050D01*
X429986Y139087D01*
X430056Y139121D01*
X430127Y139151D01*
X430200Y139177D01*
X430274Y139200D01*
X430349Y139219D01*
X430424Y139234D01*
X430501Y139246D01*
X430578Y139254D01*
X430655Y139258D01*
X430733Y139258D01*
X430810Y139254D01*
X430887Y139246D01*
X430964Y139234D01*
X431039Y139219D01*
X431114Y139200D01*
X431188Y139177D01*
X431261Y139151D01*
X431332Y139121D01*
X431402Y139087D01*
X431470Y139050D01*
X431536Y139010D01*
X431600Y138966D01*
X431662Y138919D01*
X431721Y138870D01*
X431778Y138817D01*
X431832Y138762D01*
X431883Y138704D01*
X431931Y138643D01*
X431976Y138580D01*
X432018Y138515D01*
X432057Y138448D01*
X432092Y138379D01*
X432124Y138309D01*
X432152Y138237D01*
X432177Y138163D01*
X432198Y138089D01*
X432215Y138014D01*
X432229Y137937D01*
X432238Y137861D01*
X432244Y137783D01*
X432246Y137706D01*
X432246Y136154D01*
X426658Y136154D01*
X426658Y137706D01*
X426660Y137776D01*
X426666Y137845D01*
X426676Y137914D01*
X426689Y137982D01*
X426707Y138050D01*
X426728Y138116D01*
X426753Y138181D01*
X426781Y138245D01*
X426813Y138307D01*
X426848Y138367D01*
X426887Y138425D01*
X426929Y138480D01*
X426974Y138534D01*
X427022Y138584D01*
X427072Y138632D01*
X427126Y138677D01*
X427181Y138719D01*
X427239Y138758D01*
X427299Y138793D01*
X427361Y138825D01*
X427425Y138853D01*
X427490Y138878D01*
X427556Y138899D01*
X427624Y138917D01*
X427692Y138930D01*
X427761Y138940D01*
X427830Y138946D01*
X427900Y138948D01*
X427970Y138946D01*
X428039Y138940D01*
X428108Y138930D01*
X428176Y138917D01*
X428244Y138899D01*
X428310Y138878D01*
X428375Y138853D01*
X428439Y138825D01*
X428501Y138793D01*
X428561Y138758D01*
X428619Y138719D01*
X428674Y138677D01*
X428728Y138632D01*
X428778Y138584D01*
X428826Y138534D01*
X428871Y138480D01*
X428913Y138425D01*
X428952Y138367D01*
X428987Y138307D01*
X429019Y138245D01*
X429047Y138181D01*
X429072Y138116D01*
X429093Y138050D01*
X429111Y137982D01*
X429124Y137914D01*
X429134Y137845D01*
X429140Y137776D01*
X429142Y137706D01*
X426658Y142561D02*
X432246Y142561D01*
X426658Y141009D02*
X426658Y144113D01*
X426658Y146312D02*
X432246Y146312D01*
X432246Y149417D02*
X426658Y146312D01*
X426658Y149417D02*
X432246Y149417D01*
X86186Y45222D02*
X84634Y45222D01*
X86186Y45222D02*
X86263Y45220D01*
X86341Y45214D01*
X86417Y45205D01*
X86494Y45191D01*
X86569Y45174D01*
X86643Y45153D01*
X86717Y45128D01*
X86789Y45100D01*
X86859Y45068D01*
X86928Y45033D01*
X86995Y44994D01*
X87060Y44952D01*
X87123Y44907D01*
X87184Y44859D01*
X87242Y44808D01*
X87297Y44754D01*
X87350Y44697D01*
X87399Y44638D01*
X87446Y44576D01*
X87490Y44512D01*
X87530Y44446D01*
X87567Y44378D01*
X87601Y44308D01*
X87631Y44237D01*
X87657Y44164D01*
X87680Y44090D01*
X87699Y44015D01*
X87714Y43940D01*
X87726Y43863D01*
X87734Y43786D01*
X87738Y43709D01*
X87738Y43631D01*
X87734Y43554D01*
X87726Y43477D01*
X87714Y43400D01*
X87699Y43325D01*
X87680Y43250D01*
X87657Y43176D01*
X87631Y43103D01*
X87601Y43032D01*
X87567Y42962D01*
X87530Y42894D01*
X87490Y42828D01*
X87446Y42764D01*
X87399Y42702D01*
X87350Y42643D01*
X87297Y42586D01*
X87242Y42532D01*
X87184Y42481D01*
X87123Y42433D01*
X87060Y42388D01*
X86995Y42346D01*
X86928Y42307D01*
X86859Y42272D01*
X86789Y42240D01*
X86717Y42212D01*
X86643Y42187D01*
X86569Y42166D01*
X86494Y42149D01*
X86417Y42135D01*
X86341Y42126D01*
X86263Y42120D01*
X86186Y42118D01*
X84634Y42118D01*
X84634Y47706D01*
X86186Y47706D01*
X86256Y47704D01*
X86325Y47698D01*
X86394Y47688D01*
X86462Y47675D01*
X86530Y47657D01*
X86596Y47636D01*
X86661Y47611D01*
X86725Y47583D01*
X86787Y47551D01*
X86847Y47516D01*
X86905Y47477D01*
X86960Y47435D01*
X87014Y47390D01*
X87064Y47342D01*
X87112Y47292D01*
X87157Y47238D01*
X87199Y47183D01*
X87238Y47125D01*
X87273Y47065D01*
X87305Y47003D01*
X87333Y46939D01*
X87358Y46874D01*
X87379Y46808D01*
X87397Y46740D01*
X87410Y46672D01*
X87420Y46603D01*
X87426Y46534D01*
X87428Y46464D01*
X87426Y46394D01*
X87420Y46325D01*
X87410Y46256D01*
X87397Y46188D01*
X87379Y46120D01*
X87358Y46054D01*
X87333Y45989D01*
X87305Y45925D01*
X87273Y45863D01*
X87238Y45803D01*
X87199Y45745D01*
X87157Y45690D01*
X87112Y45636D01*
X87064Y45586D01*
X87014Y45538D01*
X86960Y45493D01*
X86905Y45451D01*
X86847Y45412D01*
X86787Y45377D01*
X86725Y45345D01*
X86661Y45317D01*
X86596Y45292D01*
X86530Y45271D01*
X86462Y45253D01*
X86394Y45240D01*
X86325Y45230D01*
X86256Y45224D01*
X86186Y45222D01*
X89855Y46154D02*
X89855Y43670D01*
X89855Y46154D02*
X89857Y46231D01*
X89863Y46309D01*
X89872Y46385D01*
X89886Y46462D01*
X89903Y46537D01*
X89924Y46611D01*
X89949Y46685D01*
X89977Y46757D01*
X90009Y46827D01*
X90044Y46896D01*
X90083Y46963D01*
X90125Y47028D01*
X90170Y47091D01*
X90218Y47152D01*
X90269Y47210D01*
X90323Y47265D01*
X90380Y47318D01*
X90439Y47367D01*
X90501Y47414D01*
X90565Y47458D01*
X90631Y47498D01*
X90699Y47535D01*
X90769Y47569D01*
X90840Y47599D01*
X90913Y47625D01*
X90987Y47648D01*
X91062Y47667D01*
X91137Y47682D01*
X91214Y47694D01*
X91291Y47702D01*
X91368Y47706D01*
X91446Y47706D01*
X91523Y47702D01*
X91600Y47694D01*
X91677Y47682D01*
X91752Y47667D01*
X91827Y47648D01*
X91901Y47625D01*
X91974Y47599D01*
X92045Y47569D01*
X92115Y47535D01*
X92183Y47498D01*
X92249Y47458D01*
X92313Y47414D01*
X92375Y47367D01*
X92434Y47318D01*
X92491Y47265D01*
X92545Y47210D01*
X92596Y47152D01*
X92644Y47091D01*
X92689Y47028D01*
X92731Y46963D01*
X92770Y46896D01*
X92805Y46827D01*
X92837Y46757D01*
X92865Y46685D01*
X92890Y46611D01*
X92911Y46537D01*
X92928Y46462D01*
X92942Y46385D01*
X92951Y46309D01*
X92957Y46231D01*
X92959Y46154D01*
X92959Y43670D01*
X92957Y43593D01*
X92951Y43515D01*
X92942Y43439D01*
X92928Y43362D01*
X92911Y43287D01*
X92890Y43213D01*
X92865Y43139D01*
X92837Y43067D01*
X92805Y42997D01*
X92770Y42928D01*
X92731Y42861D01*
X92689Y42796D01*
X92644Y42733D01*
X92596Y42672D01*
X92545Y42614D01*
X92491Y42559D01*
X92434Y42506D01*
X92375Y42457D01*
X92313Y42410D01*
X92249Y42366D01*
X92183Y42326D01*
X92115Y42289D01*
X92045Y42255D01*
X91974Y42225D01*
X91901Y42199D01*
X91827Y42176D01*
X91752Y42157D01*
X91677Y42142D01*
X91600Y42130D01*
X91523Y42122D01*
X91446Y42118D01*
X91368Y42118D01*
X91291Y42122D01*
X91214Y42130D01*
X91137Y42142D01*
X91062Y42157D01*
X90987Y42176D01*
X90913Y42199D01*
X90840Y42225D01*
X90769Y42255D01*
X90699Y42289D01*
X90631Y42326D01*
X90565Y42366D01*
X90501Y42410D01*
X90439Y42457D01*
X90380Y42506D01*
X90323Y42559D01*
X90269Y42614D01*
X90218Y42672D01*
X90170Y42733D01*
X90125Y42796D01*
X90083Y42861D01*
X90044Y42928D01*
X90009Y42997D01*
X89977Y43067D01*
X89949Y43139D01*
X89924Y43213D01*
X89903Y43287D01*
X89886Y43362D01*
X89872Y43439D01*
X89863Y43515D01*
X89857Y43593D01*
X89855Y43670D01*
X95341Y43670D02*
X95341Y46154D01*
X95343Y46231D01*
X95349Y46309D01*
X95358Y46385D01*
X95372Y46462D01*
X95389Y46537D01*
X95410Y46611D01*
X95435Y46685D01*
X95463Y46757D01*
X95495Y46827D01*
X95530Y46896D01*
X95569Y46963D01*
X95611Y47028D01*
X95656Y47091D01*
X95704Y47152D01*
X95755Y47210D01*
X95809Y47265D01*
X95866Y47318D01*
X95925Y47367D01*
X95987Y47414D01*
X96051Y47458D01*
X96117Y47498D01*
X96185Y47535D01*
X96255Y47569D01*
X96326Y47599D01*
X96399Y47625D01*
X96473Y47648D01*
X96548Y47667D01*
X96623Y47682D01*
X96700Y47694D01*
X96777Y47702D01*
X96854Y47706D01*
X96932Y47706D01*
X97009Y47702D01*
X97086Y47694D01*
X97163Y47682D01*
X97238Y47667D01*
X97313Y47648D01*
X97387Y47625D01*
X97460Y47599D01*
X97531Y47569D01*
X97601Y47535D01*
X97669Y47498D01*
X97735Y47458D01*
X97799Y47414D01*
X97861Y47367D01*
X97920Y47318D01*
X97977Y47265D01*
X98031Y47210D01*
X98082Y47152D01*
X98130Y47091D01*
X98175Y47028D01*
X98217Y46963D01*
X98256Y46896D01*
X98291Y46827D01*
X98323Y46757D01*
X98351Y46685D01*
X98376Y46611D01*
X98397Y46537D01*
X98414Y46462D01*
X98428Y46385D01*
X98437Y46309D01*
X98443Y46231D01*
X98445Y46154D01*
X98445Y43670D01*
X98443Y43593D01*
X98437Y43515D01*
X98428Y43439D01*
X98414Y43362D01*
X98397Y43287D01*
X98376Y43213D01*
X98351Y43139D01*
X98323Y43067D01*
X98291Y42997D01*
X98256Y42928D01*
X98217Y42861D01*
X98175Y42796D01*
X98130Y42733D01*
X98082Y42672D01*
X98031Y42614D01*
X97977Y42559D01*
X97920Y42506D01*
X97861Y42457D01*
X97799Y42410D01*
X97735Y42366D01*
X97669Y42326D01*
X97601Y42289D01*
X97531Y42255D01*
X97460Y42225D01*
X97387Y42199D01*
X97313Y42176D01*
X97238Y42157D01*
X97163Y42142D01*
X97086Y42130D01*
X97009Y42122D01*
X96932Y42118D01*
X96854Y42118D01*
X96777Y42122D01*
X96700Y42130D01*
X96623Y42142D01*
X96548Y42157D01*
X96473Y42176D01*
X96399Y42199D01*
X96326Y42225D01*
X96255Y42255D01*
X96185Y42289D01*
X96117Y42326D01*
X96051Y42366D01*
X95987Y42410D01*
X95925Y42457D01*
X95866Y42506D01*
X95809Y42559D01*
X95755Y42614D01*
X95704Y42672D01*
X95656Y42733D01*
X95611Y42796D01*
X95569Y42861D01*
X95530Y42928D01*
X95495Y42997D01*
X95463Y43067D01*
X95435Y43139D01*
X95410Y43213D01*
X95389Y43287D01*
X95372Y43362D01*
X95358Y43439D01*
X95349Y43515D01*
X95343Y43593D01*
X95341Y43670D01*
X102014Y42118D02*
X102014Y47706D01*
X100462Y47706D02*
X103566Y47706D01*
D11*
X37070Y62710D02*
X36972Y62712D01*
X36874Y62718D01*
X36776Y62727D01*
X36679Y62741D01*
X36582Y62758D01*
X36486Y62779D01*
X36391Y62804D01*
X36297Y62832D01*
X36205Y62865D01*
X36113Y62900D01*
X36023Y62940D01*
X35935Y62982D01*
X35848Y63029D01*
X35764Y63078D01*
X35681Y63131D01*
X35601Y63187D01*
X35522Y63247D01*
X35446Y63309D01*
X35373Y63374D01*
X35302Y63442D01*
X35234Y63513D01*
X35169Y63586D01*
X35107Y63662D01*
X35047Y63741D01*
X34991Y63821D01*
X34938Y63904D01*
X34889Y63988D01*
X34842Y64075D01*
X34800Y64163D01*
X34760Y64253D01*
X34725Y64345D01*
X34692Y64437D01*
X34664Y64531D01*
X34639Y64626D01*
X34618Y64722D01*
X34601Y64819D01*
X34587Y64916D01*
X34578Y65014D01*
X34572Y65112D01*
X34570Y65210D01*
X34570Y120210D01*
X34572Y120308D01*
X34578Y120406D01*
X34587Y120504D01*
X34601Y120601D01*
X34618Y120698D01*
X34639Y120794D01*
X34664Y120889D01*
X34692Y120983D01*
X34725Y121075D01*
X34760Y121167D01*
X34800Y121257D01*
X34842Y121345D01*
X34889Y121432D01*
X34938Y121516D01*
X34991Y121599D01*
X35047Y121679D01*
X35107Y121758D01*
X35169Y121834D01*
X35234Y121907D01*
X35302Y121978D01*
X35373Y122046D01*
X35446Y122111D01*
X35522Y122173D01*
X35601Y122233D01*
X35681Y122289D01*
X35764Y122342D01*
X35848Y122391D01*
X35935Y122438D01*
X36023Y122480D01*
X36113Y122520D01*
X36205Y122555D01*
X36297Y122588D01*
X36391Y122616D01*
X36486Y122641D01*
X36582Y122662D01*
X36679Y122679D01*
X36776Y122693D01*
X36874Y122702D01*
X36972Y122708D01*
X37070Y122710D01*
X67070Y122710D02*
X67168Y122708D01*
X67266Y122702D01*
X67364Y122693D01*
X67461Y122679D01*
X67558Y122662D01*
X67654Y122641D01*
X67749Y122616D01*
X67843Y122588D01*
X67935Y122555D01*
X68027Y122520D01*
X68117Y122480D01*
X68205Y122438D01*
X68292Y122391D01*
X68376Y122342D01*
X68459Y122289D01*
X68539Y122233D01*
X68618Y122173D01*
X68694Y122111D01*
X68767Y122046D01*
X68838Y121978D01*
X68906Y121907D01*
X68971Y121834D01*
X69033Y121758D01*
X69093Y121679D01*
X69149Y121599D01*
X69202Y121516D01*
X69251Y121432D01*
X69298Y121345D01*
X69340Y121257D01*
X69380Y121167D01*
X69415Y121075D01*
X69448Y120983D01*
X69476Y120889D01*
X69501Y120794D01*
X69522Y120698D01*
X69539Y120601D01*
X69553Y120504D01*
X69562Y120406D01*
X69568Y120308D01*
X69570Y120210D01*
X69570Y65210D01*
X69568Y65112D01*
X69562Y65014D01*
X69553Y64916D01*
X69539Y64819D01*
X69522Y64722D01*
X69501Y64626D01*
X69476Y64531D01*
X69448Y64437D01*
X69415Y64345D01*
X69380Y64253D01*
X69340Y64163D01*
X69298Y64075D01*
X69251Y63988D01*
X69202Y63904D01*
X69149Y63821D01*
X69093Y63741D01*
X69033Y63662D01*
X68971Y63586D01*
X68906Y63513D01*
X68838Y63442D01*
X68767Y63374D01*
X68694Y63309D01*
X68618Y63247D01*
X68539Y63187D01*
X68459Y63131D01*
X68376Y63078D01*
X68292Y63029D01*
X68205Y62982D01*
X68117Y62940D01*
X68027Y62900D01*
X67935Y62865D01*
X67843Y62832D01*
X67749Y62804D01*
X67654Y62779D01*
X67558Y62758D01*
X67461Y62741D01*
X67364Y62727D01*
X67266Y62718D01*
X67168Y62712D01*
X67070Y62710D01*
X63070Y62710D01*
X41070Y62710D02*
X37070Y62710D01*
X37070Y122710D02*
X41070Y122710D01*
X63070Y122710D02*
X67070Y122710D01*
X44570Y107710D02*
X44570Y77710D01*
X59570Y77710D02*
X59570Y107710D01*
X59570Y77710D02*
X44570Y77710D01*
X44570Y107710D02*
X59570Y107710D01*
D12*
X413710Y13740D02*
X415460Y15490D01*
X413710Y13740D02*
X412210Y15240D01*
X413960Y16990D01*
X415460Y15490D01*
D13*
X416460Y11240D03*
D10*
X426588Y26824D02*
X432176Y26824D01*
X426588Y26824D02*
X426588Y28376D01*
X426590Y28453D01*
X426596Y28531D01*
X426605Y28607D01*
X426619Y28684D01*
X426636Y28759D01*
X426657Y28833D01*
X426682Y28907D01*
X426710Y28979D01*
X426742Y29049D01*
X426777Y29118D01*
X426816Y29185D01*
X426858Y29250D01*
X426903Y29313D01*
X426951Y29374D01*
X427002Y29432D01*
X427056Y29487D01*
X427113Y29540D01*
X427172Y29589D01*
X427234Y29636D01*
X427298Y29680D01*
X427364Y29720D01*
X427432Y29757D01*
X427502Y29791D01*
X427573Y29821D01*
X427646Y29847D01*
X427720Y29870D01*
X427795Y29889D01*
X427870Y29904D01*
X427947Y29916D01*
X428024Y29924D01*
X428101Y29928D01*
X428179Y29928D01*
X428256Y29924D01*
X428333Y29916D01*
X428410Y29904D01*
X428485Y29889D01*
X428560Y29870D01*
X428634Y29847D01*
X428707Y29821D01*
X428778Y29791D01*
X428848Y29757D01*
X428916Y29720D01*
X428982Y29680D01*
X429046Y29636D01*
X429108Y29589D01*
X429167Y29540D01*
X429224Y29487D01*
X429278Y29432D01*
X429329Y29374D01*
X429377Y29313D01*
X429422Y29250D01*
X429464Y29185D01*
X429503Y29118D01*
X429538Y29049D01*
X429570Y28979D01*
X429598Y28907D01*
X429623Y28833D01*
X429644Y28759D01*
X429661Y28684D01*
X429675Y28607D01*
X429684Y28531D01*
X429690Y28453D01*
X429692Y28376D01*
X429692Y26824D01*
X426588Y31845D02*
X432176Y33086D01*
X428451Y34328D01*
X432176Y35570D01*
X426588Y36812D01*
X426588Y39213D02*
X432176Y39213D01*
X426588Y39213D02*
X426588Y40765D01*
X426590Y40842D01*
X426596Y40920D01*
X426605Y40996D01*
X426619Y41073D01*
X426636Y41148D01*
X426657Y41222D01*
X426682Y41296D01*
X426710Y41368D01*
X426742Y41438D01*
X426777Y41507D01*
X426816Y41574D01*
X426858Y41639D01*
X426903Y41702D01*
X426951Y41763D01*
X427002Y41821D01*
X427056Y41876D01*
X427113Y41929D01*
X427172Y41978D01*
X427234Y42025D01*
X427298Y42069D01*
X427364Y42109D01*
X427432Y42146D01*
X427502Y42180D01*
X427573Y42210D01*
X427646Y42236D01*
X427720Y42259D01*
X427795Y42278D01*
X427870Y42293D01*
X427947Y42305D01*
X428024Y42313D01*
X428101Y42317D01*
X428179Y42317D01*
X428256Y42313D01*
X428333Y42305D01*
X428410Y42293D01*
X428485Y42278D01*
X428560Y42259D01*
X428634Y42236D01*
X428707Y42210D01*
X428778Y42180D01*
X428848Y42146D01*
X428916Y42109D01*
X428982Y42069D01*
X429046Y42025D01*
X429108Y41978D01*
X429167Y41929D01*
X429224Y41876D01*
X429278Y41821D01*
X429329Y41763D01*
X429377Y41702D01*
X429422Y41639D01*
X429464Y41574D01*
X429503Y41507D01*
X429538Y41438D01*
X429570Y41368D01*
X429598Y41296D01*
X429623Y41222D01*
X429644Y41148D01*
X429661Y41073D01*
X429675Y40996D01*
X429684Y40920D01*
X429690Y40842D01*
X429692Y40765D01*
X429692Y39213D01*
X429692Y41076D02*
X432176Y42317D01*
D11*
X392410Y49630D02*
X371410Y49630D01*
X346410Y56630D02*
X346410Y65630D01*
X346410Y109630D02*
X346410Y118630D01*
X371410Y125630D02*
X392410Y125630D01*
X30480Y74930D02*
X30480Y62230D01*
X24130Y55880D01*
X11430Y55880D02*
X5080Y62230D01*
X24130Y55880D02*
X30480Y49530D01*
X30480Y36830D01*
X24130Y30480D01*
X11430Y30480D02*
X5080Y36830D01*
X5080Y49530D01*
X11430Y55880D01*
X30480Y100330D02*
X24130Y106680D01*
X30480Y100330D02*
X30480Y87630D01*
X24130Y81280D01*
X11430Y81280D02*
X5080Y87630D01*
X5080Y100330D01*
X11430Y106680D01*
X24130Y81280D02*
X30480Y74930D01*
X11430Y81280D02*
X5080Y74930D01*
X5080Y62230D01*
X30480Y138430D02*
X30480Y151130D01*
X30480Y138430D02*
X24130Y132080D01*
X11430Y132080D02*
X5080Y138430D01*
X24130Y132080D02*
X30480Y125730D01*
X30480Y113030D01*
X24130Y106680D01*
X11430Y106680D02*
X5080Y113030D01*
X5080Y125730D01*
X11430Y132080D01*
X11430Y157480D02*
X24130Y157480D01*
X30480Y151130D01*
X11430Y157480D02*
X5080Y151130D01*
X5080Y138430D01*
X11430Y30480D02*
X24130Y30480D01*
D14*
X193294Y129540D02*
X210566Y129540D01*
X190754Y111760D02*
X190756Y111660D01*
X190762Y111561D01*
X190772Y111461D01*
X190785Y111363D01*
X190803Y111264D01*
X190824Y111167D01*
X190849Y111071D01*
X190878Y110975D01*
X190911Y110881D01*
X190947Y110788D01*
X190987Y110697D01*
X191031Y110607D01*
X191078Y110519D01*
X191128Y110433D01*
X191182Y110349D01*
X191239Y110267D01*
X191299Y110188D01*
X191363Y110110D01*
X191429Y110036D01*
X191498Y109964D01*
X191570Y109895D01*
X191644Y109829D01*
X191722Y109765D01*
X191801Y109705D01*
X191883Y109648D01*
X191967Y109594D01*
X192053Y109544D01*
X192141Y109497D01*
X192231Y109453D01*
X192322Y109413D01*
X192415Y109377D01*
X192509Y109344D01*
X192605Y109315D01*
X192701Y109290D01*
X192798Y109269D01*
X192897Y109251D01*
X192995Y109238D01*
X193095Y109228D01*
X193194Y109222D01*
X193294Y109220D01*
X210566Y109220D02*
X210666Y109222D01*
X210765Y109228D01*
X210865Y109238D01*
X210963Y109251D01*
X211062Y109269D01*
X211159Y109290D01*
X211255Y109315D01*
X211351Y109344D01*
X211445Y109377D01*
X211538Y109413D01*
X211629Y109453D01*
X211719Y109497D01*
X211807Y109544D01*
X211893Y109594D01*
X211977Y109648D01*
X212059Y109705D01*
X212138Y109765D01*
X212216Y109829D01*
X212290Y109895D01*
X212362Y109964D01*
X212431Y110036D01*
X212497Y110110D01*
X212561Y110188D01*
X212621Y110267D01*
X212678Y110349D01*
X212732Y110433D01*
X212782Y110519D01*
X212829Y110607D01*
X212873Y110697D01*
X212913Y110788D01*
X212949Y110881D01*
X212982Y110975D01*
X213011Y111071D01*
X213036Y111167D01*
X213057Y111264D01*
X213075Y111363D01*
X213088Y111461D01*
X213098Y111561D01*
X213104Y111660D01*
X213106Y111760D01*
X213106Y127000D02*
X213104Y127100D01*
X213098Y127199D01*
X213088Y127299D01*
X213075Y127397D01*
X213057Y127496D01*
X213036Y127593D01*
X213011Y127689D01*
X212982Y127785D01*
X212949Y127879D01*
X212913Y127972D01*
X212873Y128063D01*
X212829Y128153D01*
X212782Y128241D01*
X212732Y128327D01*
X212678Y128411D01*
X212621Y128493D01*
X212561Y128572D01*
X212497Y128650D01*
X212431Y128724D01*
X212362Y128796D01*
X212290Y128865D01*
X212216Y128931D01*
X212138Y128995D01*
X212059Y129055D01*
X211977Y129112D01*
X211893Y129166D01*
X211807Y129216D01*
X211719Y129263D01*
X211629Y129307D01*
X211538Y129347D01*
X211445Y129383D01*
X211351Y129416D01*
X211255Y129445D01*
X211159Y129470D01*
X211062Y129491D01*
X210963Y129509D01*
X210865Y129522D01*
X210765Y129532D01*
X210666Y129538D01*
X210566Y129540D01*
X193294Y129540D02*
X193194Y129538D01*
X193095Y129532D01*
X192995Y129522D01*
X192897Y129509D01*
X192798Y129491D01*
X192701Y129470D01*
X192605Y129445D01*
X192509Y129416D01*
X192415Y129383D01*
X192322Y129347D01*
X192231Y129307D01*
X192141Y129263D01*
X192053Y129216D01*
X191967Y129166D01*
X191883Y129112D01*
X191801Y129055D01*
X191722Y128995D01*
X191644Y128931D01*
X191570Y128865D01*
X191498Y128796D01*
X191429Y128724D01*
X191363Y128650D01*
X191299Y128572D01*
X191239Y128493D01*
X191182Y128411D01*
X191128Y128327D01*
X191078Y128241D01*
X191031Y128153D01*
X190987Y128063D01*
X190947Y127972D01*
X190911Y127879D01*
X190878Y127785D01*
X190849Y127689D01*
X190824Y127593D01*
X190803Y127496D01*
X190785Y127397D01*
X190772Y127299D01*
X190762Y127199D01*
X190756Y127100D01*
X190754Y127000D01*
X190754Y111760D01*
X213106Y111760D02*
X213106Y127000D01*
X210566Y109220D02*
X193294Y109220D01*
D10*
X216154Y114745D02*
X220500Y114745D01*
X220570Y114743D01*
X220639Y114737D01*
X220708Y114727D01*
X220776Y114714D01*
X220844Y114696D01*
X220910Y114675D01*
X220975Y114650D01*
X221039Y114622D01*
X221101Y114590D01*
X221161Y114555D01*
X221219Y114516D01*
X221274Y114474D01*
X221328Y114429D01*
X221378Y114381D01*
X221426Y114331D01*
X221471Y114277D01*
X221513Y114222D01*
X221552Y114164D01*
X221587Y114104D01*
X221619Y114042D01*
X221647Y113978D01*
X221672Y113913D01*
X221693Y113847D01*
X221711Y113779D01*
X221724Y113711D01*
X221734Y113642D01*
X221740Y113573D01*
X221742Y113503D01*
X221742Y112882D01*
X221742Y117553D02*
X216154Y117553D01*
X216154Y119105D01*
X216156Y119182D01*
X216162Y119260D01*
X216171Y119336D01*
X216185Y119413D01*
X216202Y119488D01*
X216223Y119562D01*
X216248Y119636D01*
X216276Y119708D01*
X216308Y119778D01*
X216343Y119847D01*
X216382Y119914D01*
X216424Y119979D01*
X216469Y120042D01*
X216517Y120103D01*
X216568Y120161D01*
X216622Y120216D01*
X216679Y120269D01*
X216738Y120318D01*
X216800Y120365D01*
X216864Y120409D01*
X216930Y120449D01*
X216998Y120486D01*
X217068Y120520D01*
X217139Y120550D01*
X217212Y120576D01*
X217286Y120599D01*
X217361Y120618D01*
X217436Y120633D01*
X217513Y120645D01*
X217590Y120653D01*
X217667Y120657D01*
X217745Y120657D01*
X217822Y120653D01*
X217899Y120645D01*
X217976Y120633D01*
X218051Y120618D01*
X218126Y120599D01*
X218200Y120576D01*
X218273Y120550D01*
X218344Y120520D01*
X218414Y120486D01*
X218482Y120449D01*
X218548Y120409D01*
X218612Y120365D01*
X218674Y120318D01*
X218733Y120269D01*
X218790Y120216D01*
X218844Y120161D01*
X218895Y120103D01*
X218943Y120042D01*
X218988Y119979D01*
X219030Y119914D01*
X219069Y119847D01*
X219104Y119778D01*
X219136Y119708D01*
X219164Y119636D01*
X219189Y119562D01*
X219210Y119488D01*
X219227Y119413D01*
X219241Y119336D01*
X219250Y119260D01*
X219256Y119182D01*
X219258Y119105D01*
X219258Y117553D01*
X217396Y122773D02*
X216154Y124326D01*
X221742Y124326D01*
X221742Y125878D02*
X221742Y122773D01*
D14*
X210566Y101600D02*
X193294Y101600D01*
X190754Y83820D02*
X190756Y83720D01*
X190762Y83621D01*
X190772Y83521D01*
X190785Y83423D01*
X190803Y83324D01*
X190824Y83227D01*
X190849Y83131D01*
X190878Y83035D01*
X190911Y82941D01*
X190947Y82848D01*
X190987Y82757D01*
X191031Y82667D01*
X191078Y82579D01*
X191128Y82493D01*
X191182Y82409D01*
X191239Y82327D01*
X191299Y82248D01*
X191363Y82170D01*
X191429Y82096D01*
X191498Y82024D01*
X191570Y81955D01*
X191644Y81889D01*
X191722Y81825D01*
X191801Y81765D01*
X191883Y81708D01*
X191967Y81654D01*
X192053Y81604D01*
X192141Y81557D01*
X192231Y81513D01*
X192322Y81473D01*
X192415Y81437D01*
X192509Y81404D01*
X192605Y81375D01*
X192701Y81350D01*
X192798Y81329D01*
X192897Y81311D01*
X192995Y81298D01*
X193095Y81288D01*
X193194Y81282D01*
X193294Y81280D01*
X210566Y81280D02*
X210666Y81282D01*
X210765Y81288D01*
X210865Y81298D01*
X210963Y81311D01*
X211062Y81329D01*
X211159Y81350D01*
X211255Y81375D01*
X211351Y81404D01*
X211445Y81437D01*
X211538Y81473D01*
X211629Y81513D01*
X211719Y81557D01*
X211807Y81604D01*
X211893Y81654D01*
X211977Y81708D01*
X212059Y81765D01*
X212138Y81825D01*
X212216Y81889D01*
X212290Y81955D01*
X212362Y82024D01*
X212431Y82096D01*
X212497Y82170D01*
X212561Y82248D01*
X212621Y82327D01*
X212678Y82409D01*
X212732Y82493D01*
X212782Y82579D01*
X212829Y82667D01*
X212873Y82757D01*
X212913Y82848D01*
X212949Y82941D01*
X212982Y83035D01*
X213011Y83131D01*
X213036Y83227D01*
X213057Y83324D01*
X213075Y83423D01*
X213088Y83521D01*
X213098Y83621D01*
X213104Y83720D01*
X213106Y83820D01*
X213106Y99060D02*
X213104Y99160D01*
X213098Y99259D01*
X213088Y99359D01*
X213075Y99457D01*
X213057Y99556D01*
X213036Y99653D01*
X213011Y99749D01*
X212982Y99845D01*
X212949Y99939D01*
X212913Y100032D01*
X212873Y100123D01*
X212829Y100213D01*
X212782Y100301D01*
X212732Y100387D01*
X212678Y100471D01*
X212621Y100553D01*
X212561Y100632D01*
X212497Y100710D01*
X212431Y100784D01*
X212362Y100856D01*
X212290Y100925D01*
X212216Y100991D01*
X212138Y101055D01*
X212059Y101115D01*
X211977Y101172D01*
X211893Y101226D01*
X211807Y101276D01*
X211719Y101323D01*
X211629Y101367D01*
X211538Y101407D01*
X211445Y101443D01*
X211351Y101476D01*
X211255Y101505D01*
X211159Y101530D01*
X211062Y101551D01*
X210963Y101569D01*
X210865Y101582D01*
X210765Y101592D01*
X210666Y101598D01*
X210566Y101600D01*
X193294Y101600D02*
X193194Y101598D01*
X193095Y101592D01*
X192995Y101582D01*
X192897Y101569D01*
X192798Y101551D01*
X192701Y101530D01*
X192605Y101505D01*
X192509Y101476D01*
X192415Y101443D01*
X192322Y101407D01*
X192231Y101367D01*
X192141Y101323D01*
X192053Y101276D01*
X191967Y101226D01*
X191883Y101172D01*
X191801Y101115D01*
X191722Y101055D01*
X191644Y100991D01*
X191570Y100925D01*
X191498Y100856D01*
X191429Y100784D01*
X191363Y100710D01*
X191299Y100632D01*
X191239Y100553D01*
X191182Y100471D01*
X191128Y100387D01*
X191078Y100301D01*
X191031Y100213D01*
X190987Y100123D01*
X190947Y100032D01*
X190911Y99939D01*
X190878Y99845D01*
X190849Y99749D01*
X190824Y99653D01*
X190803Y99556D01*
X190785Y99457D01*
X190772Y99359D01*
X190762Y99259D01*
X190756Y99160D01*
X190754Y99060D01*
X190754Y83820D01*
X213106Y83820D02*
X213106Y99060D01*
X210566Y81280D02*
X193294Y81280D01*
D10*
X216154Y86805D02*
X220500Y86805D01*
X220570Y86803D01*
X220639Y86797D01*
X220708Y86787D01*
X220776Y86774D01*
X220844Y86756D01*
X220910Y86735D01*
X220975Y86710D01*
X221039Y86682D01*
X221101Y86650D01*
X221161Y86615D01*
X221219Y86576D01*
X221274Y86534D01*
X221328Y86489D01*
X221378Y86441D01*
X221426Y86391D01*
X221471Y86337D01*
X221513Y86282D01*
X221552Y86224D01*
X221587Y86164D01*
X221619Y86102D01*
X221647Y86038D01*
X221672Y85973D01*
X221693Y85907D01*
X221711Y85839D01*
X221724Y85771D01*
X221734Y85702D01*
X221740Y85633D01*
X221742Y85563D01*
X221742Y84942D01*
X221742Y89613D02*
X216154Y89613D01*
X216154Y91165D01*
X216156Y91242D01*
X216162Y91320D01*
X216171Y91396D01*
X216185Y91473D01*
X216202Y91548D01*
X216223Y91622D01*
X216248Y91696D01*
X216276Y91768D01*
X216308Y91838D01*
X216343Y91907D01*
X216382Y91974D01*
X216424Y92039D01*
X216469Y92102D01*
X216517Y92163D01*
X216568Y92221D01*
X216622Y92276D01*
X216679Y92329D01*
X216738Y92378D01*
X216800Y92425D01*
X216864Y92469D01*
X216930Y92509D01*
X216998Y92546D01*
X217068Y92580D01*
X217139Y92610D01*
X217212Y92636D01*
X217286Y92659D01*
X217361Y92678D01*
X217436Y92693D01*
X217513Y92705D01*
X217590Y92713D01*
X217667Y92717D01*
X217745Y92717D01*
X217822Y92713D01*
X217899Y92705D01*
X217976Y92693D01*
X218051Y92678D01*
X218126Y92659D01*
X218200Y92636D01*
X218273Y92610D01*
X218344Y92580D01*
X218414Y92546D01*
X218482Y92509D01*
X218548Y92469D01*
X218612Y92425D01*
X218674Y92378D01*
X218733Y92329D01*
X218790Y92276D01*
X218844Y92221D01*
X218895Y92163D01*
X218943Y92102D01*
X218988Y92039D01*
X219030Y91974D01*
X219069Y91907D01*
X219104Y91838D01*
X219136Y91768D01*
X219164Y91696D01*
X219189Y91622D01*
X219210Y91548D01*
X219227Y91473D01*
X219241Y91396D01*
X219250Y91320D01*
X219256Y91242D01*
X219258Y91165D01*
X219258Y89613D01*
X216154Y96541D02*
X216156Y96614D01*
X216162Y96687D01*
X216171Y96760D01*
X216185Y96831D01*
X216202Y96903D01*
X216222Y96973D01*
X216247Y97042D01*
X216275Y97109D01*
X216306Y97175D01*
X216341Y97240D01*
X216379Y97302D01*
X216421Y97362D01*
X216465Y97420D01*
X216513Y97476D01*
X216563Y97529D01*
X216616Y97579D01*
X216672Y97627D01*
X216730Y97671D01*
X216790Y97713D01*
X216853Y97751D01*
X216917Y97786D01*
X216983Y97817D01*
X217050Y97845D01*
X217119Y97870D01*
X217189Y97890D01*
X217261Y97907D01*
X217332Y97921D01*
X217405Y97930D01*
X217478Y97936D01*
X217551Y97938D01*
X216154Y96541D02*
X216156Y96457D01*
X216162Y96374D01*
X216171Y96291D01*
X216185Y96208D01*
X216202Y96127D01*
X216224Y96046D01*
X216249Y95966D01*
X216277Y95888D01*
X216309Y95810D01*
X216345Y95735D01*
X216384Y95661D01*
X216427Y95589D01*
X216473Y95519D01*
X216522Y95452D01*
X216575Y95386D01*
X216630Y95324D01*
X216688Y95264D01*
X216749Y95206D01*
X216812Y95152D01*
X216878Y95100D01*
X216946Y95052D01*
X217017Y95007D01*
X217089Y94965D01*
X217164Y94927D01*
X217240Y94892D01*
X217317Y94861D01*
X217396Y94833D01*
X218637Y97471D02*
X218584Y97525D01*
X218527Y97576D01*
X218468Y97624D01*
X218407Y97669D01*
X218344Y97710D01*
X218278Y97749D01*
X218211Y97784D01*
X218142Y97816D01*
X218071Y97844D01*
X218000Y97868D01*
X217927Y97889D01*
X217853Y97906D01*
X217778Y97920D01*
X217703Y97929D01*
X217627Y97935D01*
X217551Y97937D01*
X218638Y97472D02*
X221742Y94833D01*
X221742Y97938D01*
D11*
X204470Y181610D02*
X191770Y181610D01*
X204470Y181610D02*
X210820Y175260D01*
X210820Y162560D02*
X204470Y156210D01*
X166370Y181610D02*
X160020Y175260D01*
X166370Y181610D02*
X179070Y181610D01*
X185420Y175260D01*
X185420Y162560D02*
X179070Y156210D01*
X166370Y156210D01*
X160020Y162560D01*
X185420Y175260D02*
X191770Y181610D01*
X185420Y162560D02*
X191770Y156210D01*
X204470Y156210D01*
X128270Y181610D02*
X115570Y181610D01*
X128270Y181610D02*
X134620Y175260D01*
X134620Y162560D02*
X128270Y156210D01*
X134620Y175260D02*
X140970Y181610D01*
X153670Y181610D01*
X160020Y175260D01*
X160020Y162560D02*
X153670Y156210D01*
X140970Y156210D01*
X134620Y162560D01*
X90170Y181610D02*
X83820Y175260D01*
X90170Y181610D02*
X102870Y181610D01*
X109220Y175260D01*
X109220Y162560D02*
X102870Y156210D01*
X90170Y156210D01*
X83820Y162560D01*
X109220Y175260D02*
X115570Y181610D01*
X109220Y162560D02*
X115570Y156210D01*
X128270Y156210D01*
X52070Y181610D02*
X39370Y181610D01*
X52070Y181610D02*
X58420Y175260D01*
X58420Y162560D02*
X52070Y156210D01*
X58420Y175260D02*
X64770Y181610D01*
X77470Y181610D01*
X83820Y175260D01*
X83820Y162560D02*
X77470Y156210D01*
X64770Y156210D01*
X58420Y162560D01*
X33020Y162560D02*
X33020Y175260D01*
X39370Y181610D01*
X33020Y162560D02*
X39370Y156210D01*
X52070Y156210D01*
X217170Y181610D02*
X229870Y181610D01*
X236220Y175260D01*
X236220Y162560D02*
X229870Y156210D01*
X210820Y175260D02*
X217170Y181610D01*
X210820Y162560D02*
X217170Y156210D01*
X229870Y156210D01*
X242570Y181610D02*
X255270Y181610D01*
X261620Y175260D01*
X261620Y162560D02*
X255270Y156210D01*
X236220Y175260D02*
X242570Y181610D01*
X236220Y162560D02*
X242570Y156210D01*
X255270Y156210D01*
X267970Y181610D02*
X280670Y181610D01*
X287020Y175260D01*
X287020Y162560D01*
X280670Y156210D01*
X261620Y175260D02*
X267970Y181610D01*
X261620Y162560D02*
X267970Y156210D01*
X280670Y156210D01*
X128270Y3810D02*
X115570Y3810D01*
X109220Y10160D01*
X109220Y22860D02*
X115570Y29210D01*
X153670Y3810D02*
X160020Y10160D01*
X153670Y3810D02*
X140970Y3810D01*
X134620Y10160D01*
X134620Y22860D02*
X140970Y29210D01*
X153670Y29210D01*
X160020Y22860D01*
X134620Y10160D02*
X128270Y3810D01*
X134620Y22860D02*
X128270Y29210D01*
X115570Y29210D01*
X191770Y3810D02*
X204470Y3810D01*
X191770Y3810D02*
X185420Y10160D01*
X185420Y22860D02*
X191770Y29210D01*
X185420Y10160D02*
X179070Y3810D01*
X166370Y3810D01*
X160020Y10160D01*
X160020Y22860D02*
X166370Y29210D01*
X179070Y29210D01*
X185420Y22860D01*
X229870Y3810D02*
X236220Y10160D01*
X229870Y3810D02*
X217170Y3810D01*
X210820Y10160D01*
X210820Y22860D02*
X217170Y29210D01*
X229870Y29210D01*
X236220Y22860D01*
X210820Y10160D02*
X204470Y3810D01*
X210820Y22860D02*
X204470Y29210D01*
X191770Y29210D01*
X267970Y3810D02*
X280670Y3810D01*
X267970Y3810D02*
X261620Y10160D01*
X261620Y22860D02*
X267970Y29210D01*
X261620Y10160D02*
X255270Y3810D01*
X242570Y3810D01*
X236220Y10160D01*
X236220Y22860D02*
X242570Y29210D01*
X255270Y29210D01*
X261620Y22860D01*
X287020Y22860D02*
X287020Y10160D01*
X280670Y3810D01*
X287020Y22860D02*
X280670Y29210D01*
X267970Y29210D01*
X102870Y3810D02*
X90170Y3810D01*
X83820Y10160D01*
X83820Y22860D02*
X90170Y29210D01*
X109220Y10160D02*
X102870Y3810D01*
X109220Y22860D02*
X102870Y29210D01*
X90170Y29210D01*
X77470Y3810D02*
X64770Y3810D01*
X58420Y10160D01*
X58420Y22860D02*
X64770Y29210D01*
X83820Y10160D02*
X77470Y3810D01*
X83820Y22860D02*
X77470Y29210D01*
X64770Y29210D01*
X52070Y3810D02*
X39370Y3810D01*
X33020Y10160D01*
X33020Y22860D01*
X39370Y29210D01*
X58420Y10160D02*
X52070Y3810D01*
X58420Y22860D02*
X52070Y29210D01*
X39370Y29210D01*
X293370Y29210D02*
X306070Y29210D01*
X312420Y22860D01*
X312420Y10160D02*
X306070Y3810D01*
X312420Y22860D02*
X318770Y29210D01*
X331470Y29210D01*
X337820Y22860D01*
X337820Y10160D02*
X331470Y3810D01*
X318770Y3810D01*
X312420Y10160D01*
X287020Y10160D02*
X287020Y22860D01*
X293370Y29210D01*
X287020Y10160D02*
X293370Y3810D01*
X306070Y3810D01*
X337820Y10160D02*
X337820Y22860D01*
X306070Y181610D02*
X293370Y181610D01*
X306070Y181610D02*
X312420Y175260D01*
X312420Y162560D02*
X306070Y156210D01*
X312420Y175260D02*
X318770Y181610D01*
X331470Y181610D01*
X337820Y175260D01*
X337820Y162560D02*
X331470Y156210D01*
X318770Y156210D01*
X312420Y162560D01*
X287020Y162560D02*
X287020Y175260D01*
X293370Y181610D01*
X287020Y162560D02*
X293370Y156210D01*
X306070Y156210D01*
X337820Y162560D02*
X337820Y175260D01*
D12*
X246380Y54840D02*
X244630Y53090D01*
X246380Y54840D02*
X247880Y53340D01*
X246130Y51590D01*
X244630Y53090D01*
D13*
X243630Y57340D03*
D10*
X265924Y55212D02*
X265924Y49624D01*
X268408Y49624D01*
X270679Y49624D02*
X273162Y49624D01*
X270679Y49624D02*
X270679Y55212D01*
X273162Y55212D01*
X272541Y52728D02*
X270679Y52728D01*
X275423Y55212D02*
X275423Y49624D01*
X275423Y55212D02*
X276975Y55212D01*
X277051Y55210D01*
X277127Y55205D01*
X277203Y55195D01*
X277278Y55182D01*
X277352Y55165D01*
X277426Y55145D01*
X277498Y55121D01*
X277569Y55094D01*
X277639Y55063D01*
X277707Y55029D01*
X277773Y54991D01*
X277837Y54950D01*
X277900Y54907D01*
X277960Y54860D01*
X278017Y54810D01*
X278072Y54757D01*
X278125Y54702D01*
X278175Y54645D01*
X278222Y54585D01*
X278265Y54522D01*
X278306Y54458D01*
X278344Y54392D01*
X278378Y54324D01*
X278409Y54254D01*
X278436Y54183D01*
X278460Y54110D01*
X278480Y54037D01*
X278497Y53963D01*
X278510Y53888D01*
X278520Y53812D01*
X278525Y53736D01*
X278527Y53660D01*
X278527Y51176D01*
X278525Y51097D01*
X278519Y51019D01*
X278509Y50941D01*
X278495Y50864D01*
X278477Y50787D01*
X278456Y50711D01*
X278430Y50637D01*
X278401Y50564D01*
X278368Y50493D01*
X278332Y50423D01*
X278292Y50355D01*
X278249Y50289D01*
X278202Y50226D01*
X278153Y50165D01*
X278100Y50107D01*
X278044Y50051D01*
X277986Y49998D01*
X277925Y49949D01*
X277862Y49902D01*
X277796Y49859D01*
X277728Y49819D01*
X277659Y49783D01*
X277587Y49750D01*
X277514Y49721D01*
X277440Y49695D01*
X277364Y49674D01*
X277287Y49656D01*
X277210Y49642D01*
X277132Y49632D01*
X277054Y49626D01*
X276975Y49624D01*
X275423Y49624D01*
D14*
X244856Y81280D02*
X227584Y81280D01*
X247396Y99060D02*
X247394Y99160D01*
X247388Y99259D01*
X247378Y99359D01*
X247365Y99457D01*
X247347Y99556D01*
X247326Y99653D01*
X247301Y99749D01*
X247272Y99845D01*
X247239Y99939D01*
X247203Y100032D01*
X247163Y100123D01*
X247119Y100213D01*
X247072Y100301D01*
X247022Y100387D01*
X246968Y100471D01*
X246911Y100553D01*
X246851Y100632D01*
X246787Y100710D01*
X246721Y100784D01*
X246652Y100856D01*
X246580Y100925D01*
X246506Y100991D01*
X246428Y101055D01*
X246349Y101115D01*
X246267Y101172D01*
X246183Y101226D01*
X246097Y101276D01*
X246009Y101323D01*
X245919Y101367D01*
X245828Y101407D01*
X245735Y101443D01*
X245641Y101476D01*
X245545Y101505D01*
X245449Y101530D01*
X245352Y101551D01*
X245253Y101569D01*
X245155Y101582D01*
X245055Y101592D01*
X244956Y101598D01*
X244856Y101600D01*
X227584Y101600D02*
X227484Y101598D01*
X227385Y101592D01*
X227285Y101582D01*
X227187Y101569D01*
X227088Y101551D01*
X226991Y101530D01*
X226895Y101505D01*
X226799Y101476D01*
X226705Y101443D01*
X226612Y101407D01*
X226521Y101367D01*
X226431Y101323D01*
X226343Y101276D01*
X226257Y101226D01*
X226173Y101172D01*
X226091Y101115D01*
X226012Y101055D01*
X225934Y100991D01*
X225860Y100925D01*
X225788Y100856D01*
X225719Y100784D01*
X225653Y100710D01*
X225589Y100632D01*
X225529Y100553D01*
X225472Y100471D01*
X225418Y100387D01*
X225368Y100301D01*
X225321Y100213D01*
X225277Y100123D01*
X225237Y100032D01*
X225201Y99939D01*
X225168Y99845D01*
X225139Y99749D01*
X225114Y99653D01*
X225093Y99556D01*
X225075Y99457D01*
X225062Y99359D01*
X225052Y99259D01*
X225046Y99160D01*
X225044Y99060D01*
X225044Y83820D02*
X225046Y83720D01*
X225052Y83621D01*
X225062Y83521D01*
X225075Y83423D01*
X225093Y83324D01*
X225114Y83227D01*
X225139Y83131D01*
X225168Y83035D01*
X225201Y82941D01*
X225237Y82848D01*
X225277Y82757D01*
X225321Y82667D01*
X225368Y82579D01*
X225418Y82493D01*
X225472Y82409D01*
X225529Y82327D01*
X225589Y82248D01*
X225653Y82170D01*
X225719Y82096D01*
X225788Y82024D01*
X225860Y81955D01*
X225934Y81889D01*
X226012Y81825D01*
X226091Y81765D01*
X226173Y81708D01*
X226257Y81654D01*
X226343Y81604D01*
X226431Y81557D01*
X226521Y81513D01*
X226612Y81473D01*
X226705Y81437D01*
X226799Y81404D01*
X226895Y81375D01*
X226991Y81350D01*
X227088Y81329D01*
X227187Y81311D01*
X227285Y81298D01*
X227385Y81288D01*
X227484Y81282D01*
X227584Y81280D01*
X244856Y81280D02*
X244956Y81282D01*
X245055Y81288D01*
X245155Y81298D01*
X245253Y81311D01*
X245352Y81329D01*
X245449Y81350D01*
X245545Y81375D01*
X245641Y81404D01*
X245735Y81437D01*
X245828Y81473D01*
X245919Y81513D01*
X246009Y81557D01*
X246097Y81604D01*
X246183Y81654D01*
X246267Y81708D01*
X246349Y81765D01*
X246428Y81825D01*
X246506Y81889D01*
X246580Y81955D01*
X246652Y82024D01*
X246721Y82096D01*
X246787Y82170D01*
X246851Y82248D01*
X246911Y82327D01*
X246968Y82409D01*
X247022Y82493D01*
X247072Y82579D01*
X247119Y82667D01*
X247163Y82757D01*
X247203Y82848D01*
X247239Y82941D01*
X247272Y83035D01*
X247301Y83131D01*
X247326Y83227D01*
X247347Y83324D01*
X247365Y83423D01*
X247378Y83521D01*
X247388Y83621D01*
X247394Y83720D01*
X247396Y83820D01*
X247396Y99060D01*
X225044Y99060D02*
X225044Y83820D01*
X227584Y101600D02*
X244856Y101600D01*
D10*
X250444Y88075D02*
X254790Y88075D01*
X254860Y88073D01*
X254929Y88067D01*
X254998Y88057D01*
X255066Y88044D01*
X255134Y88026D01*
X255200Y88005D01*
X255265Y87980D01*
X255329Y87952D01*
X255391Y87920D01*
X255451Y87885D01*
X255509Y87846D01*
X255564Y87804D01*
X255618Y87759D01*
X255668Y87711D01*
X255716Y87661D01*
X255761Y87607D01*
X255803Y87552D01*
X255842Y87494D01*
X255877Y87434D01*
X255909Y87372D01*
X255937Y87308D01*
X255962Y87243D01*
X255983Y87177D01*
X256001Y87109D01*
X256014Y87041D01*
X256024Y86972D01*
X256030Y86903D01*
X256032Y86833D01*
X256032Y86212D01*
X256032Y90883D02*
X250444Y90883D01*
X250444Y92435D01*
X250446Y92512D01*
X250452Y92590D01*
X250461Y92666D01*
X250475Y92743D01*
X250492Y92818D01*
X250513Y92892D01*
X250538Y92966D01*
X250566Y93038D01*
X250598Y93108D01*
X250633Y93177D01*
X250672Y93244D01*
X250714Y93309D01*
X250759Y93372D01*
X250807Y93433D01*
X250858Y93491D01*
X250912Y93546D01*
X250969Y93599D01*
X251028Y93648D01*
X251090Y93695D01*
X251154Y93739D01*
X251220Y93779D01*
X251288Y93816D01*
X251358Y93850D01*
X251429Y93880D01*
X251502Y93906D01*
X251576Y93929D01*
X251651Y93948D01*
X251726Y93963D01*
X251803Y93975D01*
X251880Y93983D01*
X251957Y93987D01*
X252035Y93987D01*
X252112Y93983D01*
X252189Y93975D01*
X252266Y93963D01*
X252341Y93948D01*
X252416Y93929D01*
X252490Y93906D01*
X252563Y93880D01*
X252634Y93850D01*
X252704Y93816D01*
X252772Y93779D01*
X252838Y93739D01*
X252902Y93695D01*
X252964Y93648D01*
X253023Y93599D01*
X253080Y93546D01*
X253134Y93491D01*
X253185Y93433D01*
X253233Y93372D01*
X253278Y93309D01*
X253320Y93244D01*
X253359Y93177D01*
X253394Y93108D01*
X253426Y93038D01*
X253454Y92966D01*
X253479Y92892D01*
X253500Y92818D01*
X253517Y92743D01*
X253531Y92666D01*
X253540Y92590D01*
X253546Y92512D01*
X253548Y92435D01*
X253548Y90883D01*
X254790Y96103D02*
X250444Y97345D01*
X254790Y96103D02*
X254790Y99208D01*
X253548Y98276D02*
X256032Y98276D01*
D15*
X114412Y82488D02*
X114412Y128012D01*
X185807Y128012D01*
X185807Y82488D01*
X114412Y82488D01*
D16*
X117998Y88250D02*
X118000Y88325D01*
X118006Y88399D01*
X118016Y88473D01*
X118029Y88546D01*
X118047Y88619D01*
X118068Y88690D01*
X118093Y88761D01*
X118122Y88830D01*
X118155Y88897D01*
X118191Y88962D01*
X118230Y89026D01*
X118272Y89087D01*
X118318Y89146D01*
X118367Y89203D01*
X118419Y89256D01*
X118473Y89307D01*
X118530Y89356D01*
X118590Y89400D01*
X118652Y89442D01*
X118716Y89481D01*
X118782Y89516D01*
X118849Y89547D01*
X118919Y89575D01*
X118989Y89599D01*
X119061Y89620D01*
X119134Y89636D01*
X119207Y89649D01*
X119282Y89658D01*
X119356Y89663D01*
X119431Y89664D01*
X119505Y89661D01*
X119580Y89654D01*
X119653Y89643D01*
X119727Y89629D01*
X119799Y89610D01*
X119870Y89588D01*
X119940Y89562D01*
X120009Y89532D01*
X120075Y89499D01*
X120140Y89462D01*
X120203Y89422D01*
X120264Y89378D01*
X120322Y89332D01*
X120378Y89282D01*
X120431Y89230D01*
X120482Y89175D01*
X120529Y89117D01*
X120573Y89057D01*
X120614Y88994D01*
X120652Y88930D01*
X120686Y88864D01*
X120717Y88795D01*
X120744Y88726D01*
X120767Y88655D01*
X120786Y88583D01*
X120802Y88510D01*
X120814Y88436D01*
X120822Y88362D01*
X120826Y88287D01*
X120826Y88213D01*
X120822Y88138D01*
X120814Y88064D01*
X120802Y87990D01*
X120786Y87917D01*
X120767Y87845D01*
X120744Y87774D01*
X120717Y87705D01*
X120686Y87636D01*
X120652Y87570D01*
X120614Y87506D01*
X120573Y87443D01*
X120529Y87383D01*
X120482Y87325D01*
X120431Y87270D01*
X120378Y87218D01*
X120322Y87168D01*
X120264Y87122D01*
X120203Y87078D01*
X120140Y87038D01*
X120075Y87001D01*
X120009Y86968D01*
X119940Y86938D01*
X119870Y86912D01*
X119799Y86890D01*
X119727Y86871D01*
X119653Y86857D01*
X119580Y86846D01*
X119505Y86839D01*
X119431Y86836D01*
X119356Y86837D01*
X119282Y86842D01*
X119207Y86851D01*
X119134Y86864D01*
X119061Y86880D01*
X118989Y86901D01*
X118919Y86925D01*
X118849Y86953D01*
X118782Y86984D01*
X118716Y87019D01*
X118652Y87058D01*
X118590Y87100D01*
X118530Y87144D01*
X118473Y87193D01*
X118419Y87244D01*
X118367Y87297D01*
X118318Y87354D01*
X118272Y87413D01*
X118230Y87474D01*
X118191Y87538D01*
X118155Y87603D01*
X118122Y87670D01*
X118093Y87739D01*
X118068Y87810D01*
X118047Y87881D01*
X118029Y87954D01*
X118016Y88027D01*
X118006Y88101D01*
X118000Y88175D01*
X117998Y88250D01*
D11*
X110210Y120210D02*
X110208Y120308D01*
X110202Y120406D01*
X110193Y120504D01*
X110179Y120601D01*
X110162Y120698D01*
X110141Y120794D01*
X110116Y120889D01*
X110088Y120983D01*
X110055Y121075D01*
X110020Y121167D01*
X109980Y121257D01*
X109938Y121345D01*
X109891Y121432D01*
X109842Y121516D01*
X109789Y121599D01*
X109733Y121679D01*
X109673Y121758D01*
X109611Y121834D01*
X109546Y121907D01*
X109478Y121978D01*
X109407Y122046D01*
X109334Y122111D01*
X109258Y122173D01*
X109179Y122233D01*
X109099Y122289D01*
X109016Y122342D01*
X108932Y122391D01*
X108845Y122438D01*
X108757Y122480D01*
X108667Y122520D01*
X108575Y122555D01*
X108483Y122588D01*
X108389Y122616D01*
X108294Y122641D01*
X108198Y122662D01*
X108101Y122679D01*
X108004Y122693D01*
X107906Y122702D01*
X107808Y122708D01*
X107710Y122710D01*
X110210Y120210D02*
X110210Y65210D01*
X110208Y65112D01*
X110202Y65014D01*
X110193Y64916D01*
X110179Y64819D01*
X110162Y64722D01*
X110141Y64626D01*
X110116Y64531D01*
X110088Y64437D01*
X110055Y64345D01*
X110020Y64253D01*
X109980Y64163D01*
X109938Y64075D01*
X109891Y63988D01*
X109842Y63904D01*
X109789Y63821D01*
X109733Y63741D01*
X109673Y63662D01*
X109611Y63586D01*
X109546Y63513D01*
X109478Y63442D01*
X109407Y63374D01*
X109334Y63309D01*
X109258Y63247D01*
X109179Y63187D01*
X109099Y63131D01*
X109016Y63078D01*
X108932Y63029D01*
X108845Y62982D01*
X108757Y62940D01*
X108667Y62900D01*
X108575Y62865D01*
X108483Y62832D01*
X108389Y62804D01*
X108294Y62779D01*
X108198Y62758D01*
X108101Y62741D01*
X108004Y62727D01*
X107906Y62718D01*
X107808Y62712D01*
X107710Y62710D01*
X77710Y62710D02*
X77612Y62712D01*
X77514Y62718D01*
X77416Y62727D01*
X77319Y62741D01*
X77222Y62758D01*
X77126Y62779D01*
X77031Y62804D01*
X76937Y62832D01*
X76845Y62865D01*
X76753Y62900D01*
X76663Y62940D01*
X76575Y62982D01*
X76488Y63029D01*
X76404Y63078D01*
X76321Y63131D01*
X76241Y63187D01*
X76162Y63247D01*
X76086Y63309D01*
X76013Y63374D01*
X75942Y63442D01*
X75874Y63513D01*
X75809Y63586D01*
X75747Y63662D01*
X75687Y63741D01*
X75631Y63821D01*
X75578Y63904D01*
X75529Y63988D01*
X75482Y64075D01*
X75440Y64163D01*
X75400Y64253D01*
X75365Y64345D01*
X75332Y64437D01*
X75304Y64531D01*
X75279Y64626D01*
X75258Y64722D01*
X75241Y64819D01*
X75227Y64916D01*
X75218Y65014D01*
X75212Y65112D01*
X75210Y65210D01*
X75210Y120210D01*
X75212Y120308D01*
X75218Y120406D01*
X75227Y120504D01*
X75241Y120601D01*
X75258Y120698D01*
X75279Y120794D01*
X75304Y120889D01*
X75332Y120983D01*
X75365Y121075D01*
X75400Y121167D01*
X75440Y121257D01*
X75482Y121345D01*
X75529Y121432D01*
X75578Y121516D01*
X75631Y121599D01*
X75687Y121679D01*
X75747Y121758D01*
X75809Y121834D01*
X75874Y121907D01*
X75942Y121978D01*
X76013Y122046D01*
X76086Y122111D01*
X76162Y122173D01*
X76241Y122233D01*
X76321Y122289D01*
X76404Y122342D01*
X76488Y122391D01*
X76575Y122438D01*
X76663Y122480D01*
X76753Y122520D01*
X76845Y122555D01*
X76937Y122588D01*
X77031Y122616D01*
X77126Y122641D01*
X77222Y122662D01*
X77319Y122679D01*
X77416Y122693D01*
X77514Y122702D01*
X77612Y122708D01*
X77710Y122710D01*
X81710Y122710D01*
X103710Y122710D02*
X107710Y122710D01*
X107710Y62710D02*
X103710Y62710D01*
X81710Y62710D02*
X77710Y62710D01*
X100210Y77710D02*
X100210Y107710D01*
X85210Y107710D02*
X85210Y77710D01*
X85210Y107710D02*
X100210Y107710D01*
X100210Y77710D02*
X85210Y77710D01*
D14*
X227584Y109220D02*
X244856Y109220D01*
X247396Y127000D02*
X247394Y127100D01*
X247388Y127199D01*
X247378Y127299D01*
X247365Y127397D01*
X247347Y127496D01*
X247326Y127593D01*
X247301Y127689D01*
X247272Y127785D01*
X247239Y127879D01*
X247203Y127972D01*
X247163Y128063D01*
X247119Y128153D01*
X247072Y128241D01*
X247022Y128327D01*
X246968Y128411D01*
X246911Y128493D01*
X246851Y128572D01*
X246787Y128650D01*
X246721Y128724D01*
X246652Y128796D01*
X246580Y128865D01*
X246506Y128931D01*
X246428Y128995D01*
X246349Y129055D01*
X246267Y129112D01*
X246183Y129166D01*
X246097Y129216D01*
X246009Y129263D01*
X245919Y129307D01*
X245828Y129347D01*
X245735Y129383D01*
X245641Y129416D01*
X245545Y129445D01*
X245449Y129470D01*
X245352Y129491D01*
X245253Y129509D01*
X245155Y129522D01*
X245055Y129532D01*
X244956Y129538D01*
X244856Y129540D01*
X227584Y129540D02*
X227484Y129538D01*
X227385Y129532D01*
X227285Y129522D01*
X227187Y129509D01*
X227088Y129491D01*
X226991Y129470D01*
X226895Y129445D01*
X226799Y129416D01*
X226705Y129383D01*
X226612Y129347D01*
X226521Y129307D01*
X226431Y129263D01*
X226343Y129216D01*
X226257Y129166D01*
X226173Y129112D01*
X226091Y129055D01*
X226012Y128995D01*
X225934Y128931D01*
X225860Y128865D01*
X225788Y128796D01*
X225719Y128724D01*
X225653Y128650D01*
X225589Y128572D01*
X225529Y128493D01*
X225472Y128411D01*
X225418Y128327D01*
X225368Y128241D01*
X225321Y128153D01*
X225277Y128063D01*
X225237Y127972D01*
X225201Y127879D01*
X225168Y127785D01*
X225139Y127689D01*
X225114Y127593D01*
X225093Y127496D01*
X225075Y127397D01*
X225062Y127299D01*
X225052Y127199D01*
X225046Y127100D01*
X225044Y127000D01*
X225044Y111760D02*
X225046Y111660D01*
X225052Y111561D01*
X225062Y111461D01*
X225075Y111363D01*
X225093Y111264D01*
X225114Y111167D01*
X225139Y111071D01*
X225168Y110975D01*
X225201Y110881D01*
X225237Y110788D01*
X225277Y110697D01*
X225321Y110607D01*
X225368Y110519D01*
X225418Y110433D01*
X225472Y110349D01*
X225529Y110267D01*
X225589Y110188D01*
X225653Y110110D01*
X225719Y110036D01*
X225788Y109964D01*
X225860Y109895D01*
X225934Y109829D01*
X226012Y109765D01*
X226091Y109705D01*
X226173Y109648D01*
X226257Y109594D01*
X226343Y109544D01*
X226431Y109497D01*
X226521Y109453D01*
X226612Y109413D01*
X226705Y109377D01*
X226799Y109344D01*
X226895Y109315D01*
X226991Y109290D01*
X227088Y109269D01*
X227187Y109251D01*
X227285Y109238D01*
X227385Y109228D01*
X227484Y109222D01*
X227584Y109220D01*
X244856Y109220D02*
X244956Y109222D01*
X245055Y109228D01*
X245155Y109238D01*
X245253Y109251D01*
X245352Y109269D01*
X245449Y109290D01*
X245545Y109315D01*
X245641Y109344D01*
X245735Y109377D01*
X245828Y109413D01*
X245919Y109453D01*
X246009Y109497D01*
X246097Y109544D01*
X246183Y109594D01*
X246267Y109648D01*
X246349Y109705D01*
X246428Y109765D01*
X246506Y109829D01*
X246580Y109895D01*
X246652Y109964D01*
X246721Y110036D01*
X246787Y110110D01*
X246851Y110188D01*
X246911Y110267D01*
X246968Y110349D01*
X247022Y110433D01*
X247072Y110519D01*
X247119Y110607D01*
X247163Y110697D01*
X247203Y110788D01*
X247239Y110881D01*
X247272Y110975D01*
X247301Y111071D01*
X247326Y111167D01*
X247347Y111264D01*
X247365Y111363D01*
X247378Y111461D01*
X247388Y111561D01*
X247394Y111660D01*
X247396Y111760D01*
X247396Y127000D01*
X225044Y127000D02*
X225044Y111760D01*
X227584Y129540D02*
X244856Y129540D01*
D10*
X250444Y114745D02*
X254790Y114745D01*
X254860Y114743D01*
X254929Y114737D01*
X254998Y114727D01*
X255066Y114714D01*
X255134Y114696D01*
X255200Y114675D01*
X255265Y114650D01*
X255329Y114622D01*
X255391Y114590D01*
X255451Y114555D01*
X255509Y114516D01*
X255564Y114474D01*
X255618Y114429D01*
X255668Y114381D01*
X255716Y114331D01*
X255761Y114277D01*
X255803Y114222D01*
X255842Y114164D01*
X255877Y114104D01*
X255909Y114042D01*
X255937Y113978D01*
X255962Y113913D01*
X255983Y113847D01*
X256001Y113779D01*
X256014Y113711D01*
X256024Y113642D01*
X256030Y113573D01*
X256032Y113503D01*
X256032Y112882D01*
X256032Y117553D02*
X250444Y117553D01*
X250444Y119105D01*
X250446Y119182D01*
X250452Y119260D01*
X250461Y119336D01*
X250475Y119413D01*
X250492Y119488D01*
X250513Y119562D01*
X250538Y119636D01*
X250566Y119708D01*
X250598Y119778D01*
X250633Y119847D01*
X250672Y119914D01*
X250714Y119979D01*
X250759Y120042D01*
X250807Y120103D01*
X250858Y120161D01*
X250912Y120216D01*
X250969Y120269D01*
X251028Y120318D01*
X251090Y120365D01*
X251154Y120409D01*
X251220Y120449D01*
X251288Y120486D01*
X251358Y120520D01*
X251429Y120550D01*
X251502Y120576D01*
X251576Y120599D01*
X251651Y120618D01*
X251726Y120633D01*
X251803Y120645D01*
X251880Y120653D01*
X251957Y120657D01*
X252035Y120657D01*
X252112Y120653D01*
X252189Y120645D01*
X252266Y120633D01*
X252341Y120618D01*
X252416Y120599D01*
X252490Y120576D01*
X252563Y120550D01*
X252634Y120520D01*
X252704Y120486D01*
X252772Y120449D01*
X252838Y120409D01*
X252902Y120365D01*
X252964Y120318D01*
X253023Y120269D01*
X253080Y120216D01*
X253134Y120161D01*
X253185Y120103D01*
X253233Y120042D01*
X253278Y119979D01*
X253320Y119914D01*
X253359Y119847D01*
X253394Y119778D01*
X253426Y119708D01*
X253454Y119636D01*
X253479Y119562D01*
X253500Y119488D01*
X253517Y119413D01*
X253531Y119336D01*
X253540Y119260D01*
X253546Y119182D01*
X253548Y119105D01*
X253548Y117553D01*
X256032Y122773D02*
X256032Y124636D01*
X256030Y124706D01*
X256024Y124775D01*
X256014Y124844D01*
X256001Y124912D01*
X255983Y124980D01*
X255962Y125046D01*
X255937Y125111D01*
X255909Y125175D01*
X255877Y125237D01*
X255842Y125297D01*
X255803Y125355D01*
X255761Y125410D01*
X255716Y125464D01*
X255668Y125514D01*
X255618Y125562D01*
X255564Y125607D01*
X255509Y125649D01*
X255451Y125688D01*
X255391Y125723D01*
X255329Y125755D01*
X255265Y125783D01*
X255200Y125808D01*
X255134Y125829D01*
X255066Y125847D01*
X254998Y125860D01*
X254929Y125870D01*
X254860Y125876D01*
X254790Y125878D01*
X254169Y125878D01*
X254099Y125876D01*
X254030Y125870D01*
X253961Y125860D01*
X253893Y125847D01*
X253825Y125829D01*
X253759Y125808D01*
X253694Y125783D01*
X253630Y125755D01*
X253568Y125723D01*
X253508Y125688D01*
X253450Y125649D01*
X253395Y125607D01*
X253341Y125562D01*
X253291Y125514D01*
X253243Y125464D01*
X253198Y125410D01*
X253156Y125355D01*
X253117Y125297D01*
X253082Y125237D01*
X253050Y125175D01*
X253022Y125111D01*
X252997Y125046D01*
X252976Y124980D01*
X252958Y124912D01*
X252945Y124844D01*
X252935Y124775D01*
X252929Y124706D01*
X252927Y124636D01*
X252928Y124636D02*
X252928Y122773D01*
X250444Y122773D01*
X250444Y125878D01*
D11*
X358620Y178830D02*
X358622Y178928D01*
X358628Y179026D01*
X358637Y179124D01*
X358651Y179221D01*
X358668Y179318D01*
X358689Y179414D01*
X358714Y179509D01*
X358742Y179603D01*
X358775Y179695D01*
X358810Y179787D01*
X358850Y179877D01*
X358892Y179965D01*
X358939Y180052D01*
X358988Y180136D01*
X359041Y180219D01*
X359097Y180299D01*
X359157Y180378D01*
X359219Y180454D01*
X359284Y180527D01*
X359352Y180598D01*
X359423Y180666D01*
X359496Y180731D01*
X359572Y180793D01*
X359651Y180853D01*
X359731Y180909D01*
X359814Y180962D01*
X359898Y181011D01*
X359985Y181058D01*
X360073Y181100D01*
X360163Y181140D01*
X360255Y181175D01*
X360347Y181208D01*
X360441Y181236D01*
X360536Y181261D01*
X360632Y181282D01*
X360729Y181299D01*
X360826Y181313D01*
X360924Y181322D01*
X361022Y181328D01*
X361120Y181330D01*
X416120Y181330D01*
X416218Y181328D01*
X416316Y181322D01*
X416414Y181313D01*
X416511Y181299D01*
X416608Y181282D01*
X416704Y181261D01*
X416799Y181236D01*
X416893Y181208D01*
X416985Y181175D01*
X417077Y181140D01*
X417167Y181100D01*
X417255Y181058D01*
X417342Y181011D01*
X417426Y180962D01*
X417509Y180909D01*
X417589Y180853D01*
X417668Y180793D01*
X417744Y180731D01*
X417817Y180666D01*
X417888Y180598D01*
X417956Y180527D01*
X418021Y180454D01*
X418083Y180378D01*
X418143Y180299D01*
X418199Y180219D01*
X418252Y180136D01*
X418301Y180052D01*
X418348Y179965D01*
X418390Y179877D01*
X418430Y179787D01*
X418465Y179695D01*
X418498Y179603D01*
X418526Y179509D01*
X418551Y179414D01*
X418572Y179318D01*
X418589Y179221D01*
X418603Y179124D01*
X418612Y179026D01*
X418618Y178928D01*
X418620Y178830D01*
X418620Y148830D02*
X418618Y148732D01*
X418612Y148634D01*
X418603Y148536D01*
X418589Y148439D01*
X418572Y148342D01*
X418551Y148246D01*
X418526Y148151D01*
X418498Y148057D01*
X418465Y147965D01*
X418430Y147873D01*
X418390Y147783D01*
X418348Y147695D01*
X418301Y147608D01*
X418252Y147524D01*
X418199Y147441D01*
X418143Y147361D01*
X418083Y147282D01*
X418021Y147206D01*
X417956Y147133D01*
X417888Y147062D01*
X417817Y146994D01*
X417744Y146929D01*
X417668Y146867D01*
X417589Y146807D01*
X417509Y146751D01*
X417426Y146698D01*
X417342Y146649D01*
X417255Y146602D01*
X417167Y146560D01*
X417077Y146520D01*
X416985Y146485D01*
X416893Y146452D01*
X416799Y146424D01*
X416704Y146399D01*
X416608Y146378D01*
X416511Y146361D01*
X416414Y146347D01*
X416316Y146338D01*
X416218Y146332D01*
X416120Y146330D01*
X361120Y146330D01*
X361022Y146332D01*
X360924Y146338D01*
X360826Y146347D01*
X360729Y146361D01*
X360632Y146378D01*
X360536Y146399D01*
X360441Y146424D01*
X360347Y146452D01*
X360255Y146485D01*
X360163Y146520D01*
X360073Y146560D01*
X359985Y146602D01*
X359898Y146649D01*
X359814Y146698D01*
X359731Y146751D01*
X359651Y146807D01*
X359572Y146867D01*
X359496Y146929D01*
X359423Y146994D01*
X359352Y147062D01*
X359284Y147133D01*
X359219Y147206D01*
X359157Y147282D01*
X359097Y147361D01*
X359041Y147441D01*
X358988Y147524D01*
X358939Y147608D01*
X358892Y147695D01*
X358850Y147783D01*
X358810Y147873D01*
X358775Y147965D01*
X358742Y148057D01*
X358714Y148151D01*
X358689Y148246D01*
X358668Y148342D01*
X358651Y148439D01*
X358637Y148536D01*
X358628Y148634D01*
X358622Y148732D01*
X358620Y148830D01*
X358620Y152830D01*
X358620Y174830D02*
X358620Y178830D01*
X418620Y178830D02*
X418620Y174830D01*
X418620Y152830D02*
X418620Y148830D01*
X403620Y171330D02*
X373620Y171330D01*
X373620Y156330D02*
X403620Y156330D01*
X373620Y156330D02*
X373620Y171330D01*
X403620Y171330D02*
X403620Y156330D01*
M02*
