G04 EAGLE Gerber RS-274X export*
G75*
%MOMM*%
%FSLAX34Y34*%
%LPD*%
%INSilkscreen Top*%
%IPPOS*%
%AMOC8*
5,1,8,0,0,1.08239X$1,22.5*%
G01*
%ADD10C,0.050800*%
%ADD11C,0.203200*%
%ADD12C,0.127000*%
%ADD13C,0.063400*%
%ADD14C,0.250000*%
%ADD15C,0.152400*%
%ADD16C,0.050000*%


D10*
X33274Y150678D02*
X34826Y150678D01*
X34903Y150676D01*
X34981Y150670D01*
X35057Y150661D01*
X35134Y150647D01*
X35209Y150630D01*
X35283Y150609D01*
X35357Y150584D01*
X35429Y150556D01*
X35499Y150524D01*
X35568Y150489D01*
X35635Y150450D01*
X35700Y150408D01*
X35763Y150363D01*
X35824Y150315D01*
X35882Y150264D01*
X35937Y150210D01*
X35990Y150153D01*
X36039Y150094D01*
X36086Y150032D01*
X36130Y149968D01*
X36170Y149902D01*
X36207Y149834D01*
X36241Y149764D01*
X36271Y149693D01*
X36297Y149620D01*
X36320Y149546D01*
X36339Y149471D01*
X36354Y149396D01*
X36366Y149319D01*
X36374Y149242D01*
X36378Y149165D01*
X36378Y149087D01*
X36374Y149010D01*
X36366Y148933D01*
X36354Y148856D01*
X36339Y148781D01*
X36320Y148706D01*
X36297Y148632D01*
X36271Y148559D01*
X36241Y148488D01*
X36207Y148418D01*
X36170Y148350D01*
X36130Y148284D01*
X36086Y148220D01*
X36039Y148158D01*
X35990Y148099D01*
X35937Y148042D01*
X35882Y147988D01*
X35824Y147937D01*
X35763Y147889D01*
X35700Y147844D01*
X35635Y147802D01*
X35568Y147763D01*
X35499Y147728D01*
X35429Y147696D01*
X35357Y147668D01*
X35283Y147643D01*
X35209Y147622D01*
X35134Y147605D01*
X35057Y147591D01*
X34981Y147582D01*
X34903Y147576D01*
X34826Y147574D01*
X33274Y147574D01*
X33274Y153162D01*
X34826Y153162D01*
X34896Y153160D01*
X34965Y153154D01*
X35034Y153144D01*
X35102Y153131D01*
X35170Y153113D01*
X35236Y153092D01*
X35301Y153067D01*
X35365Y153039D01*
X35427Y153007D01*
X35487Y152972D01*
X35545Y152933D01*
X35600Y152891D01*
X35654Y152846D01*
X35704Y152798D01*
X35752Y152748D01*
X35797Y152694D01*
X35839Y152639D01*
X35878Y152581D01*
X35913Y152521D01*
X35945Y152459D01*
X35973Y152395D01*
X35998Y152330D01*
X36019Y152264D01*
X36037Y152196D01*
X36050Y152128D01*
X36060Y152059D01*
X36066Y151990D01*
X36068Y151920D01*
X36066Y151850D01*
X36060Y151781D01*
X36050Y151712D01*
X36037Y151644D01*
X36019Y151576D01*
X35998Y151510D01*
X35973Y151445D01*
X35945Y151381D01*
X35913Y151319D01*
X35878Y151259D01*
X35839Y151201D01*
X35797Y151146D01*
X35752Y151092D01*
X35704Y151042D01*
X35654Y150994D01*
X35600Y150949D01*
X35545Y150907D01*
X35487Y150868D01*
X35427Y150833D01*
X35365Y150801D01*
X35301Y150773D01*
X35236Y150748D01*
X35170Y150727D01*
X35102Y150709D01*
X35034Y150696D01*
X34965Y150686D01*
X34896Y150680D01*
X34826Y150678D01*
X38495Y151610D02*
X38495Y149126D01*
X38495Y151610D02*
X38497Y151687D01*
X38503Y151765D01*
X38512Y151841D01*
X38526Y151918D01*
X38543Y151993D01*
X38564Y152067D01*
X38589Y152141D01*
X38617Y152213D01*
X38649Y152283D01*
X38684Y152352D01*
X38723Y152419D01*
X38765Y152484D01*
X38810Y152547D01*
X38858Y152608D01*
X38909Y152666D01*
X38963Y152721D01*
X39020Y152774D01*
X39079Y152823D01*
X39141Y152870D01*
X39205Y152914D01*
X39271Y152954D01*
X39339Y152991D01*
X39409Y153025D01*
X39480Y153055D01*
X39553Y153081D01*
X39627Y153104D01*
X39702Y153123D01*
X39777Y153138D01*
X39854Y153150D01*
X39931Y153158D01*
X40008Y153162D01*
X40086Y153162D01*
X40163Y153158D01*
X40240Y153150D01*
X40317Y153138D01*
X40392Y153123D01*
X40467Y153104D01*
X40541Y153081D01*
X40614Y153055D01*
X40685Y153025D01*
X40755Y152991D01*
X40823Y152954D01*
X40889Y152914D01*
X40953Y152870D01*
X41015Y152823D01*
X41074Y152774D01*
X41131Y152721D01*
X41185Y152666D01*
X41236Y152608D01*
X41284Y152547D01*
X41329Y152484D01*
X41371Y152419D01*
X41410Y152352D01*
X41445Y152283D01*
X41477Y152213D01*
X41505Y152141D01*
X41530Y152067D01*
X41551Y151993D01*
X41568Y151918D01*
X41582Y151841D01*
X41591Y151765D01*
X41597Y151687D01*
X41599Y151610D01*
X41599Y149126D01*
X41597Y149049D01*
X41591Y148971D01*
X41582Y148895D01*
X41568Y148818D01*
X41551Y148743D01*
X41530Y148669D01*
X41505Y148595D01*
X41477Y148523D01*
X41445Y148453D01*
X41410Y148384D01*
X41371Y148317D01*
X41329Y148252D01*
X41284Y148189D01*
X41236Y148128D01*
X41185Y148070D01*
X41131Y148015D01*
X41074Y147962D01*
X41015Y147913D01*
X40953Y147866D01*
X40889Y147822D01*
X40823Y147782D01*
X40755Y147745D01*
X40685Y147711D01*
X40614Y147681D01*
X40541Y147655D01*
X40467Y147632D01*
X40392Y147613D01*
X40317Y147598D01*
X40240Y147586D01*
X40163Y147578D01*
X40086Y147574D01*
X40008Y147574D01*
X39931Y147578D01*
X39854Y147586D01*
X39777Y147598D01*
X39702Y147613D01*
X39627Y147632D01*
X39553Y147655D01*
X39480Y147681D01*
X39409Y147711D01*
X39339Y147745D01*
X39271Y147782D01*
X39205Y147822D01*
X39141Y147866D01*
X39079Y147913D01*
X39020Y147962D01*
X38963Y148015D01*
X38909Y148070D01*
X38858Y148128D01*
X38810Y148189D01*
X38765Y148252D01*
X38723Y148317D01*
X38684Y148384D01*
X38649Y148453D01*
X38617Y148523D01*
X38589Y148595D01*
X38564Y148669D01*
X38543Y148743D01*
X38526Y148818D01*
X38512Y148895D01*
X38503Y148971D01*
X38497Y149049D01*
X38495Y149126D01*
X43981Y149126D02*
X43981Y151610D01*
X43983Y151687D01*
X43989Y151765D01*
X43998Y151841D01*
X44012Y151918D01*
X44029Y151993D01*
X44050Y152067D01*
X44075Y152141D01*
X44103Y152213D01*
X44135Y152283D01*
X44170Y152352D01*
X44209Y152419D01*
X44251Y152484D01*
X44296Y152547D01*
X44344Y152608D01*
X44395Y152666D01*
X44449Y152721D01*
X44506Y152774D01*
X44565Y152823D01*
X44627Y152870D01*
X44691Y152914D01*
X44757Y152954D01*
X44825Y152991D01*
X44895Y153025D01*
X44966Y153055D01*
X45039Y153081D01*
X45113Y153104D01*
X45188Y153123D01*
X45263Y153138D01*
X45340Y153150D01*
X45417Y153158D01*
X45494Y153162D01*
X45572Y153162D01*
X45649Y153158D01*
X45726Y153150D01*
X45803Y153138D01*
X45878Y153123D01*
X45953Y153104D01*
X46027Y153081D01*
X46100Y153055D01*
X46171Y153025D01*
X46241Y152991D01*
X46309Y152954D01*
X46375Y152914D01*
X46439Y152870D01*
X46501Y152823D01*
X46560Y152774D01*
X46617Y152721D01*
X46671Y152666D01*
X46722Y152608D01*
X46770Y152547D01*
X46815Y152484D01*
X46857Y152419D01*
X46896Y152352D01*
X46931Y152283D01*
X46963Y152213D01*
X46991Y152141D01*
X47016Y152067D01*
X47037Y151993D01*
X47054Y151918D01*
X47068Y151841D01*
X47077Y151765D01*
X47083Y151687D01*
X47085Y151610D01*
X47085Y149126D01*
X47083Y149049D01*
X47077Y148971D01*
X47068Y148895D01*
X47054Y148818D01*
X47037Y148743D01*
X47016Y148669D01*
X46991Y148595D01*
X46963Y148523D01*
X46931Y148453D01*
X46896Y148384D01*
X46857Y148317D01*
X46815Y148252D01*
X46770Y148189D01*
X46722Y148128D01*
X46671Y148070D01*
X46617Y148015D01*
X46560Y147962D01*
X46501Y147913D01*
X46439Y147866D01*
X46375Y147822D01*
X46309Y147782D01*
X46241Y147745D01*
X46171Y147711D01*
X46100Y147681D01*
X46027Y147655D01*
X45953Y147632D01*
X45878Y147613D01*
X45803Y147598D01*
X45726Y147586D01*
X45649Y147578D01*
X45572Y147574D01*
X45494Y147574D01*
X45417Y147578D01*
X45340Y147586D01*
X45263Y147598D01*
X45188Y147613D01*
X45113Y147632D01*
X45039Y147655D01*
X44966Y147681D01*
X44895Y147711D01*
X44825Y147745D01*
X44757Y147782D01*
X44691Y147822D01*
X44627Y147866D01*
X44565Y147913D01*
X44506Y147962D01*
X44449Y148015D01*
X44395Y148070D01*
X44344Y148128D01*
X44296Y148189D01*
X44251Y148252D01*
X44209Y148317D01*
X44170Y148384D01*
X44135Y148453D01*
X44103Y148523D01*
X44075Y148595D01*
X44050Y148669D01*
X44029Y148743D01*
X44012Y148818D01*
X43998Y148895D01*
X43989Y148971D01*
X43983Y149049D01*
X43981Y149126D01*
X50654Y147574D02*
X50654Y153162D01*
X49102Y153162D02*
X52206Y153162D01*
X54688Y152386D02*
X54632Y152268D01*
X54580Y152148D01*
X54531Y152027D01*
X54486Y151905D01*
X54444Y151781D01*
X54406Y151656D01*
X54371Y151530D01*
X54340Y151403D01*
X54312Y151276D01*
X54288Y151148D01*
X54268Y151019D01*
X54252Y150889D01*
X54239Y150759D01*
X54229Y150629D01*
X54224Y150499D01*
X54222Y150368D01*
X54687Y152386D02*
X54710Y152446D01*
X54736Y152506D01*
X54765Y152563D01*
X54798Y152619D01*
X54834Y152673D01*
X54872Y152725D01*
X54914Y152775D01*
X54958Y152822D01*
X55005Y152867D01*
X55055Y152909D01*
X55106Y152948D01*
X55160Y152984D01*
X55216Y153017D01*
X55273Y153047D01*
X55332Y153074D01*
X55393Y153097D01*
X55454Y153117D01*
X55517Y153133D01*
X55581Y153146D01*
X55645Y153155D01*
X55709Y153160D01*
X55774Y153162D01*
X55839Y153160D01*
X55903Y153155D01*
X55967Y153146D01*
X56031Y153133D01*
X56094Y153117D01*
X56155Y153097D01*
X56216Y153074D01*
X56275Y153047D01*
X56332Y153017D01*
X56388Y152984D01*
X56442Y152948D01*
X56493Y152909D01*
X56543Y152867D01*
X56590Y152822D01*
X56634Y152775D01*
X56676Y152725D01*
X56714Y152673D01*
X56750Y152619D01*
X56783Y152563D01*
X56812Y152506D01*
X56838Y152446D01*
X56861Y152386D01*
X56917Y152268D01*
X56969Y152148D01*
X57018Y152027D01*
X57063Y151905D01*
X57105Y151781D01*
X57143Y151656D01*
X57178Y151530D01*
X57209Y151404D01*
X57237Y151276D01*
X57261Y151148D01*
X57281Y151019D01*
X57297Y150889D01*
X57310Y150759D01*
X57320Y150629D01*
X57325Y150499D01*
X57327Y150368D01*
X54222Y150368D02*
X54224Y150237D01*
X54229Y150107D01*
X54239Y149977D01*
X54252Y149847D01*
X54268Y149717D01*
X54288Y149588D01*
X54312Y149460D01*
X54340Y149333D01*
X54371Y149206D01*
X54406Y149080D01*
X54444Y148955D01*
X54486Y148831D01*
X54531Y148709D01*
X54580Y148588D01*
X54632Y148468D01*
X54688Y148350D01*
X54687Y148350D02*
X54710Y148290D01*
X54736Y148230D01*
X54765Y148173D01*
X54798Y148117D01*
X54834Y148063D01*
X54872Y148011D01*
X54914Y147961D01*
X54958Y147914D01*
X55005Y147869D01*
X55055Y147827D01*
X55106Y147788D01*
X55160Y147752D01*
X55216Y147719D01*
X55273Y147689D01*
X55332Y147662D01*
X55393Y147639D01*
X55454Y147619D01*
X55517Y147603D01*
X55581Y147590D01*
X55645Y147581D01*
X55709Y147576D01*
X55774Y147574D01*
X56861Y148350D02*
X56917Y148468D01*
X56969Y148588D01*
X57018Y148709D01*
X57063Y148831D01*
X57105Y148955D01*
X57143Y149080D01*
X57178Y149206D01*
X57209Y149332D01*
X57237Y149460D01*
X57261Y149588D01*
X57281Y149717D01*
X57297Y149847D01*
X57310Y149977D01*
X57320Y150107D01*
X57325Y150237D01*
X57327Y150368D01*
X56861Y148350D02*
X56838Y148290D01*
X56812Y148230D01*
X56783Y148173D01*
X56750Y148117D01*
X56714Y148063D01*
X56676Y148011D01*
X56634Y147961D01*
X56590Y147914D01*
X56543Y147869D01*
X56493Y147827D01*
X56442Y147788D01*
X56388Y147752D01*
X56332Y147719D01*
X56275Y147689D01*
X56216Y147662D01*
X56155Y147639D01*
X56094Y147619D01*
X56031Y147603D01*
X55967Y147590D01*
X55903Y147581D01*
X55839Y147576D01*
X55774Y147574D01*
X54533Y148816D02*
X57016Y151920D01*
X66294Y150678D02*
X67846Y150678D01*
X67923Y150676D01*
X68001Y150670D01*
X68077Y150661D01*
X68154Y150647D01*
X68229Y150630D01*
X68303Y150609D01*
X68377Y150584D01*
X68449Y150556D01*
X68519Y150524D01*
X68588Y150489D01*
X68655Y150450D01*
X68720Y150408D01*
X68783Y150363D01*
X68844Y150315D01*
X68902Y150264D01*
X68957Y150210D01*
X69010Y150153D01*
X69059Y150094D01*
X69106Y150032D01*
X69150Y149968D01*
X69190Y149902D01*
X69227Y149834D01*
X69261Y149764D01*
X69291Y149693D01*
X69317Y149620D01*
X69340Y149546D01*
X69359Y149471D01*
X69374Y149396D01*
X69386Y149319D01*
X69394Y149242D01*
X69398Y149165D01*
X69398Y149087D01*
X69394Y149010D01*
X69386Y148933D01*
X69374Y148856D01*
X69359Y148781D01*
X69340Y148706D01*
X69317Y148632D01*
X69291Y148559D01*
X69261Y148488D01*
X69227Y148418D01*
X69190Y148350D01*
X69150Y148284D01*
X69106Y148220D01*
X69059Y148158D01*
X69010Y148099D01*
X68957Y148042D01*
X68902Y147988D01*
X68844Y147937D01*
X68783Y147889D01*
X68720Y147844D01*
X68655Y147802D01*
X68588Y147763D01*
X68519Y147728D01*
X68449Y147696D01*
X68377Y147668D01*
X68303Y147643D01*
X68229Y147622D01*
X68154Y147605D01*
X68077Y147591D01*
X68001Y147582D01*
X67923Y147576D01*
X67846Y147574D01*
X66294Y147574D01*
X66294Y153162D01*
X67846Y153162D01*
X67916Y153160D01*
X67985Y153154D01*
X68054Y153144D01*
X68122Y153131D01*
X68190Y153113D01*
X68256Y153092D01*
X68321Y153067D01*
X68385Y153039D01*
X68447Y153007D01*
X68507Y152972D01*
X68565Y152933D01*
X68620Y152891D01*
X68674Y152846D01*
X68724Y152798D01*
X68772Y152748D01*
X68817Y152694D01*
X68859Y152639D01*
X68898Y152581D01*
X68933Y152521D01*
X68965Y152459D01*
X68993Y152395D01*
X69018Y152330D01*
X69039Y152264D01*
X69057Y152196D01*
X69070Y152128D01*
X69080Y152059D01*
X69086Y151990D01*
X69088Y151920D01*
X69086Y151850D01*
X69080Y151781D01*
X69070Y151712D01*
X69057Y151644D01*
X69039Y151576D01*
X69018Y151510D01*
X68993Y151445D01*
X68965Y151381D01*
X68933Y151319D01*
X68898Y151259D01*
X68859Y151201D01*
X68817Y151146D01*
X68772Y151092D01*
X68724Y151042D01*
X68674Y150994D01*
X68620Y150949D01*
X68565Y150907D01*
X68507Y150868D01*
X68447Y150833D01*
X68385Y150801D01*
X68321Y150773D01*
X68256Y150748D01*
X68190Y150727D01*
X68122Y150709D01*
X68054Y150696D01*
X67985Y150686D01*
X67916Y150680D01*
X67846Y150678D01*
X71515Y152541D02*
X71515Y153162D01*
X74619Y153162D01*
X73067Y147574D01*
X92964Y150678D02*
X94516Y150678D01*
X94593Y150676D01*
X94671Y150670D01*
X94747Y150661D01*
X94824Y150647D01*
X94899Y150630D01*
X94973Y150609D01*
X95047Y150584D01*
X95119Y150556D01*
X95189Y150524D01*
X95258Y150489D01*
X95325Y150450D01*
X95390Y150408D01*
X95453Y150363D01*
X95514Y150315D01*
X95572Y150264D01*
X95627Y150210D01*
X95680Y150153D01*
X95729Y150094D01*
X95776Y150032D01*
X95820Y149968D01*
X95860Y149902D01*
X95897Y149834D01*
X95931Y149764D01*
X95961Y149693D01*
X95987Y149620D01*
X96010Y149546D01*
X96029Y149471D01*
X96044Y149396D01*
X96056Y149319D01*
X96064Y149242D01*
X96068Y149165D01*
X96068Y149087D01*
X96064Y149010D01*
X96056Y148933D01*
X96044Y148856D01*
X96029Y148781D01*
X96010Y148706D01*
X95987Y148632D01*
X95961Y148559D01*
X95931Y148488D01*
X95897Y148418D01*
X95860Y148350D01*
X95820Y148284D01*
X95776Y148220D01*
X95729Y148158D01*
X95680Y148099D01*
X95627Y148042D01*
X95572Y147988D01*
X95514Y147937D01*
X95453Y147889D01*
X95390Y147844D01*
X95325Y147802D01*
X95258Y147763D01*
X95189Y147728D01*
X95119Y147696D01*
X95047Y147668D01*
X94973Y147643D01*
X94899Y147622D01*
X94824Y147605D01*
X94747Y147591D01*
X94671Y147582D01*
X94593Y147576D01*
X94516Y147574D01*
X92964Y147574D01*
X92964Y153162D01*
X94516Y153162D01*
X94586Y153160D01*
X94655Y153154D01*
X94724Y153144D01*
X94792Y153131D01*
X94860Y153113D01*
X94926Y153092D01*
X94991Y153067D01*
X95055Y153039D01*
X95117Y153007D01*
X95177Y152972D01*
X95235Y152933D01*
X95290Y152891D01*
X95344Y152846D01*
X95394Y152798D01*
X95442Y152748D01*
X95487Y152694D01*
X95529Y152639D01*
X95568Y152581D01*
X95603Y152521D01*
X95635Y152459D01*
X95663Y152395D01*
X95688Y152330D01*
X95709Y152264D01*
X95727Y152196D01*
X95740Y152128D01*
X95750Y152059D01*
X95756Y151990D01*
X95758Y151920D01*
X95756Y151850D01*
X95750Y151781D01*
X95740Y151712D01*
X95727Y151644D01*
X95709Y151576D01*
X95688Y151510D01*
X95663Y151445D01*
X95635Y151381D01*
X95603Y151319D01*
X95568Y151259D01*
X95529Y151201D01*
X95487Y151146D01*
X95442Y151092D01*
X95394Y151042D01*
X95344Y150994D01*
X95290Y150949D01*
X95235Y150907D01*
X95177Y150868D01*
X95117Y150833D01*
X95055Y150801D01*
X94991Y150773D01*
X94926Y150748D01*
X94860Y150727D01*
X94792Y150709D01*
X94724Y150696D01*
X94655Y150686D01*
X94586Y150680D01*
X94516Y150678D01*
X98185Y150678D02*
X100047Y150678D01*
X100047Y150679D02*
X100117Y150677D01*
X100186Y150671D01*
X100255Y150661D01*
X100323Y150648D01*
X100391Y150630D01*
X100457Y150609D01*
X100522Y150584D01*
X100586Y150556D01*
X100648Y150524D01*
X100708Y150489D01*
X100766Y150450D01*
X100821Y150408D01*
X100875Y150363D01*
X100925Y150315D01*
X100973Y150265D01*
X101018Y150211D01*
X101060Y150156D01*
X101099Y150098D01*
X101134Y150038D01*
X101166Y149976D01*
X101194Y149912D01*
X101219Y149847D01*
X101240Y149781D01*
X101258Y149713D01*
X101271Y149645D01*
X101281Y149576D01*
X101287Y149507D01*
X101289Y149437D01*
X101289Y149126D01*
X101287Y149049D01*
X101281Y148971D01*
X101272Y148895D01*
X101258Y148818D01*
X101241Y148743D01*
X101220Y148669D01*
X101195Y148595D01*
X101167Y148523D01*
X101135Y148453D01*
X101100Y148384D01*
X101061Y148317D01*
X101019Y148252D01*
X100974Y148189D01*
X100926Y148128D01*
X100875Y148070D01*
X100821Y148015D01*
X100764Y147962D01*
X100705Y147913D01*
X100643Y147866D01*
X100579Y147822D01*
X100513Y147782D01*
X100445Y147745D01*
X100375Y147711D01*
X100304Y147681D01*
X100231Y147655D01*
X100157Y147632D01*
X100082Y147613D01*
X100007Y147598D01*
X99930Y147586D01*
X99853Y147578D01*
X99776Y147574D01*
X99698Y147574D01*
X99621Y147578D01*
X99544Y147586D01*
X99467Y147598D01*
X99392Y147613D01*
X99317Y147632D01*
X99243Y147655D01*
X99170Y147681D01*
X99099Y147711D01*
X99029Y147745D01*
X98961Y147782D01*
X98895Y147822D01*
X98831Y147866D01*
X98769Y147913D01*
X98710Y147962D01*
X98653Y148015D01*
X98599Y148070D01*
X98548Y148128D01*
X98500Y148189D01*
X98455Y148252D01*
X98413Y148317D01*
X98374Y148384D01*
X98339Y148453D01*
X98307Y148523D01*
X98279Y148595D01*
X98254Y148669D01*
X98233Y148743D01*
X98216Y148818D01*
X98202Y148895D01*
X98193Y148971D01*
X98187Y149049D01*
X98185Y149126D01*
X98185Y150678D01*
X98184Y150678D02*
X98186Y150776D01*
X98192Y150873D01*
X98201Y150970D01*
X98215Y151067D01*
X98232Y151163D01*
X98253Y151258D01*
X98277Y151352D01*
X98306Y151446D01*
X98338Y151538D01*
X98373Y151629D01*
X98412Y151718D01*
X98455Y151806D01*
X98501Y151892D01*
X98550Y151976D01*
X98603Y152058D01*
X98658Y152138D01*
X98717Y152216D01*
X98779Y152291D01*
X98844Y152364D01*
X98912Y152434D01*
X98982Y152502D01*
X99055Y152567D01*
X99130Y152629D01*
X99208Y152688D01*
X99288Y152743D01*
X99370Y152796D01*
X99454Y152845D01*
X99540Y152891D01*
X99628Y152934D01*
X99717Y152973D01*
X99808Y153008D01*
X99900Y153040D01*
X99994Y153069D01*
X100088Y153093D01*
X100183Y153114D01*
X100279Y153131D01*
X100376Y153145D01*
X100473Y153154D01*
X100570Y153160D01*
X100668Y153162D01*
X115824Y150678D02*
X117376Y150678D01*
X117453Y150676D01*
X117531Y150670D01*
X117607Y150661D01*
X117684Y150647D01*
X117759Y150630D01*
X117833Y150609D01*
X117907Y150584D01*
X117979Y150556D01*
X118049Y150524D01*
X118118Y150489D01*
X118185Y150450D01*
X118250Y150408D01*
X118313Y150363D01*
X118374Y150315D01*
X118432Y150264D01*
X118487Y150210D01*
X118540Y150153D01*
X118589Y150094D01*
X118636Y150032D01*
X118680Y149968D01*
X118720Y149902D01*
X118757Y149834D01*
X118791Y149764D01*
X118821Y149693D01*
X118847Y149620D01*
X118870Y149546D01*
X118889Y149471D01*
X118904Y149396D01*
X118916Y149319D01*
X118924Y149242D01*
X118928Y149165D01*
X118928Y149087D01*
X118924Y149010D01*
X118916Y148933D01*
X118904Y148856D01*
X118889Y148781D01*
X118870Y148706D01*
X118847Y148632D01*
X118821Y148559D01*
X118791Y148488D01*
X118757Y148418D01*
X118720Y148350D01*
X118680Y148284D01*
X118636Y148220D01*
X118589Y148158D01*
X118540Y148099D01*
X118487Y148042D01*
X118432Y147988D01*
X118374Y147937D01*
X118313Y147889D01*
X118250Y147844D01*
X118185Y147802D01*
X118118Y147763D01*
X118049Y147728D01*
X117979Y147696D01*
X117907Y147668D01*
X117833Y147643D01*
X117759Y147622D01*
X117684Y147605D01*
X117607Y147591D01*
X117531Y147582D01*
X117453Y147576D01*
X117376Y147574D01*
X115824Y147574D01*
X115824Y153162D01*
X117376Y153162D01*
X117446Y153160D01*
X117515Y153154D01*
X117584Y153144D01*
X117652Y153131D01*
X117720Y153113D01*
X117786Y153092D01*
X117851Y153067D01*
X117915Y153039D01*
X117977Y153007D01*
X118037Y152972D01*
X118095Y152933D01*
X118150Y152891D01*
X118204Y152846D01*
X118254Y152798D01*
X118302Y152748D01*
X118347Y152694D01*
X118389Y152639D01*
X118428Y152581D01*
X118463Y152521D01*
X118495Y152459D01*
X118523Y152395D01*
X118548Y152330D01*
X118569Y152264D01*
X118587Y152196D01*
X118600Y152128D01*
X118610Y152059D01*
X118616Y151990D01*
X118618Y151920D01*
X118616Y151850D01*
X118610Y151781D01*
X118600Y151712D01*
X118587Y151644D01*
X118569Y151576D01*
X118548Y151510D01*
X118523Y151445D01*
X118495Y151381D01*
X118463Y151319D01*
X118428Y151259D01*
X118389Y151201D01*
X118347Y151146D01*
X118302Y151092D01*
X118254Y151042D01*
X118204Y150994D01*
X118150Y150949D01*
X118095Y150907D01*
X118037Y150868D01*
X117977Y150833D01*
X117915Y150801D01*
X117851Y150773D01*
X117786Y150748D01*
X117720Y150727D01*
X117652Y150709D01*
X117584Y150696D01*
X117515Y150686D01*
X117446Y150680D01*
X117376Y150678D01*
X121045Y147574D02*
X122907Y147574D01*
X122977Y147576D01*
X123046Y147582D01*
X123115Y147592D01*
X123183Y147605D01*
X123251Y147623D01*
X123317Y147644D01*
X123382Y147669D01*
X123446Y147697D01*
X123508Y147729D01*
X123568Y147764D01*
X123626Y147803D01*
X123681Y147845D01*
X123735Y147890D01*
X123785Y147938D01*
X123833Y147988D01*
X123878Y148042D01*
X123920Y148097D01*
X123959Y148155D01*
X123994Y148215D01*
X124026Y148277D01*
X124054Y148341D01*
X124079Y148406D01*
X124100Y148472D01*
X124118Y148540D01*
X124131Y148608D01*
X124141Y148677D01*
X124147Y148746D01*
X124149Y148816D01*
X124149Y149437D01*
X124147Y149507D01*
X124141Y149576D01*
X124131Y149645D01*
X124118Y149713D01*
X124100Y149781D01*
X124079Y149847D01*
X124054Y149912D01*
X124026Y149976D01*
X123994Y150038D01*
X123959Y150098D01*
X123920Y150156D01*
X123878Y150211D01*
X123833Y150265D01*
X123785Y150315D01*
X123735Y150363D01*
X123681Y150408D01*
X123626Y150450D01*
X123568Y150489D01*
X123508Y150524D01*
X123446Y150556D01*
X123382Y150584D01*
X123317Y150609D01*
X123251Y150630D01*
X123183Y150648D01*
X123115Y150661D01*
X123046Y150671D01*
X122977Y150677D01*
X122907Y150679D01*
X122907Y150678D02*
X121045Y150678D01*
X121045Y153162D01*
X124149Y153162D01*
X143764Y150678D02*
X145316Y150678D01*
X145393Y150676D01*
X145471Y150670D01*
X145547Y150661D01*
X145624Y150647D01*
X145699Y150630D01*
X145773Y150609D01*
X145847Y150584D01*
X145919Y150556D01*
X145989Y150524D01*
X146058Y150489D01*
X146125Y150450D01*
X146190Y150408D01*
X146253Y150363D01*
X146314Y150315D01*
X146372Y150264D01*
X146427Y150210D01*
X146480Y150153D01*
X146529Y150094D01*
X146576Y150032D01*
X146620Y149968D01*
X146660Y149902D01*
X146697Y149834D01*
X146731Y149764D01*
X146761Y149693D01*
X146787Y149620D01*
X146810Y149546D01*
X146829Y149471D01*
X146844Y149396D01*
X146856Y149319D01*
X146864Y149242D01*
X146868Y149165D01*
X146868Y149087D01*
X146864Y149010D01*
X146856Y148933D01*
X146844Y148856D01*
X146829Y148781D01*
X146810Y148706D01*
X146787Y148632D01*
X146761Y148559D01*
X146731Y148488D01*
X146697Y148418D01*
X146660Y148350D01*
X146620Y148284D01*
X146576Y148220D01*
X146529Y148158D01*
X146480Y148099D01*
X146427Y148042D01*
X146372Y147988D01*
X146314Y147937D01*
X146253Y147889D01*
X146190Y147844D01*
X146125Y147802D01*
X146058Y147763D01*
X145989Y147728D01*
X145919Y147696D01*
X145847Y147668D01*
X145773Y147643D01*
X145699Y147622D01*
X145624Y147605D01*
X145547Y147591D01*
X145471Y147582D01*
X145393Y147576D01*
X145316Y147574D01*
X143764Y147574D01*
X143764Y153162D01*
X145316Y153162D01*
X145386Y153160D01*
X145455Y153154D01*
X145524Y153144D01*
X145592Y153131D01*
X145660Y153113D01*
X145726Y153092D01*
X145791Y153067D01*
X145855Y153039D01*
X145917Y153007D01*
X145977Y152972D01*
X146035Y152933D01*
X146090Y152891D01*
X146144Y152846D01*
X146194Y152798D01*
X146242Y152748D01*
X146287Y152694D01*
X146329Y152639D01*
X146368Y152581D01*
X146403Y152521D01*
X146435Y152459D01*
X146463Y152395D01*
X146488Y152330D01*
X146509Y152264D01*
X146527Y152196D01*
X146540Y152128D01*
X146550Y152059D01*
X146556Y151990D01*
X146558Y151920D01*
X146556Y151850D01*
X146550Y151781D01*
X146540Y151712D01*
X146527Y151644D01*
X146509Y151576D01*
X146488Y151510D01*
X146463Y151445D01*
X146435Y151381D01*
X146403Y151319D01*
X146368Y151259D01*
X146329Y151201D01*
X146287Y151146D01*
X146242Y151092D01*
X146194Y151042D01*
X146144Y150994D01*
X146090Y150949D01*
X146035Y150907D01*
X145977Y150868D01*
X145917Y150833D01*
X145855Y150801D01*
X145791Y150773D01*
X145726Y150748D01*
X145660Y150727D01*
X145592Y150709D01*
X145524Y150696D01*
X145455Y150686D01*
X145386Y150680D01*
X145316Y150678D01*
X148985Y148816D02*
X150226Y153162D01*
X148985Y148816D02*
X152089Y148816D01*
X151158Y150058D02*
X151158Y147574D01*
X167894Y147574D02*
X169757Y153162D01*
X171619Y147574D01*
X171154Y148971D02*
X168360Y148971D01*
X173691Y151920D02*
X175243Y153162D01*
X175243Y147574D01*
X173691Y147574D02*
X176795Y147574D01*
X179177Y148816D02*
X180419Y153162D01*
X179177Y148816D02*
X182282Y148816D01*
X181350Y150058D02*
X181350Y147574D01*
X193294Y147574D02*
X195157Y153162D01*
X197019Y147574D01*
X196554Y148971D02*
X193760Y148971D01*
X199091Y151920D02*
X200643Y153162D01*
X200643Y147574D01*
X199091Y147574D02*
X202195Y147574D01*
X204577Y147574D02*
X206129Y147574D01*
X206206Y147576D01*
X206284Y147582D01*
X206360Y147591D01*
X206437Y147605D01*
X206512Y147622D01*
X206586Y147643D01*
X206660Y147668D01*
X206732Y147696D01*
X206802Y147728D01*
X206871Y147763D01*
X206938Y147802D01*
X207003Y147844D01*
X207066Y147889D01*
X207127Y147937D01*
X207185Y147988D01*
X207240Y148042D01*
X207293Y148099D01*
X207342Y148158D01*
X207389Y148220D01*
X207433Y148284D01*
X207473Y148350D01*
X207510Y148418D01*
X207544Y148488D01*
X207574Y148559D01*
X207600Y148632D01*
X207623Y148706D01*
X207642Y148781D01*
X207657Y148856D01*
X207669Y148933D01*
X207677Y149010D01*
X207681Y149087D01*
X207681Y149165D01*
X207677Y149242D01*
X207669Y149319D01*
X207657Y149396D01*
X207642Y149471D01*
X207623Y149546D01*
X207600Y149620D01*
X207574Y149693D01*
X207544Y149764D01*
X207510Y149834D01*
X207473Y149902D01*
X207433Y149968D01*
X207389Y150032D01*
X207342Y150094D01*
X207293Y150153D01*
X207240Y150210D01*
X207185Y150264D01*
X207127Y150315D01*
X207066Y150363D01*
X207003Y150408D01*
X206938Y150450D01*
X206871Y150489D01*
X206802Y150524D01*
X206732Y150556D01*
X206660Y150584D01*
X206586Y150609D01*
X206512Y150630D01*
X206437Y150647D01*
X206360Y150661D01*
X206284Y150670D01*
X206206Y150676D01*
X206129Y150678D01*
X206440Y153162D02*
X204577Y153162D01*
X206440Y153162D02*
X206510Y153160D01*
X206579Y153154D01*
X206648Y153144D01*
X206716Y153131D01*
X206784Y153113D01*
X206850Y153092D01*
X206915Y153067D01*
X206979Y153039D01*
X207041Y153007D01*
X207101Y152972D01*
X207159Y152933D01*
X207214Y152891D01*
X207268Y152846D01*
X207318Y152798D01*
X207366Y152748D01*
X207411Y152694D01*
X207453Y152639D01*
X207492Y152581D01*
X207527Y152521D01*
X207559Y152459D01*
X207587Y152395D01*
X207612Y152330D01*
X207633Y152264D01*
X207651Y152196D01*
X207664Y152128D01*
X207674Y152059D01*
X207680Y151990D01*
X207682Y151920D01*
X207680Y151850D01*
X207674Y151781D01*
X207664Y151712D01*
X207651Y151644D01*
X207633Y151576D01*
X207612Y151510D01*
X207587Y151445D01*
X207559Y151381D01*
X207527Y151319D01*
X207492Y151259D01*
X207453Y151201D01*
X207411Y151146D01*
X207366Y151092D01*
X207318Y151042D01*
X207268Y150994D01*
X207214Y150949D01*
X207159Y150907D01*
X207101Y150868D01*
X207041Y150833D01*
X206979Y150801D01*
X206915Y150773D01*
X206850Y150748D01*
X206784Y150727D01*
X206716Y150709D01*
X206648Y150696D01*
X206579Y150686D01*
X206510Y150680D01*
X206440Y150678D01*
X205198Y150678D01*
X218694Y147574D02*
X220557Y153162D01*
X222419Y147574D01*
X221954Y148971D02*
X219160Y148971D01*
X224491Y151920D02*
X226043Y153162D01*
X226043Y147574D01*
X224491Y147574D02*
X227595Y147574D01*
X229977Y151920D02*
X231529Y153162D01*
X231529Y147574D01*
X229977Y147574D02*
X233082Y147574D01*
X242824Y147574D02*
X244687Y153162D01*
X246549Y147574D01*
X246084Y148971D02*
X243290Y148971D01*
X248621Y151920D02*
X250173Y153162D01*
X250173Y147574D01*
X248621Y147574D02*
X251725Y147574D01*
X254107Y150368D02*
X254109Y150499D01*
X254114Y150629D01*
X254124Y150759D01*
X254137Y150889D01*
X254153Y151019D01*
X254173Y151148D01*
X254197Y151276D01*
X254225Y151403D01*
X254256Y151530D01*
X254291Y151656D01*
X254329Y151781D01*
X254371Y151905D01*
X254416Y152027D01*
X254465Y152148D01*
X254517Y152268D01*
X254573Y152386D01*
X254572Y152386D02*
X254595Y152446D01*
X254621Y152506D01*
X254650Y152563D01*
X254683Y152619D01*
X254719Y152673D01*
X254757Y152725D01*
X254799Y152775D01*
X254843Y152822D01*
X254890Y152867D01*
X254940Y152909D01*
X254991Y152948D01*
X255045Y152984D01*
X255101Y153017D01*
X255158Y153047D01*
X255217Y153074D01*
X255278Y153097D01*
X255339Y153117D01*
X255402Y153133D01*
X255466Y153146D01*
X255530Y153155D01*
X255594Y153160D01*
X255659Y153162D01*
X255724Y153160D01*
X255788Y153155D01*
X255852Y153146D01*
X255916Y153133D01*
X255979Y153117D01*
X256040Y153097D01*
X256101Y153074D01*
X256160Y153047D01*
X256217Y153017D01*
X256273Y152984D01*
X256327Y152948D01*
X256378Y152909D01*
X256428Y152867D01*
X256475Y152822D01*
X256519Y152775D01*
X256561Y152725D01*
X256599Y152673D01*
X256635Y152619D01*
X256668Y152563D01*
X256697Y152506D01*
X256723Y152446D01*
X256746Y152386D01*
X256802Y152268D01*
X256854Y152148D01*
X256903Y152027D01*
X256948Y151905D01*
X256990Y151781D01*
X257028Y151656D01*
X257063Y151530D01*
X257094Y151404D01*
X257122Y151276D01*
X257146Y151148D01*
X257166Y151019D01*
X257182Y150889D01*
X257195Y150759D01*
X257205Y150629D01*
X257210Y150499D01*
X257212Y150368D01*
X254107Y150368D02*
X254109Y150237D01*
X254114Y150107D01*
X254124Y149977D01*
X254137Y149847D01*
X254153Y149717D01*
X254173Y149588D01*
X254197Y149460D01*
X254225Y149333D01*
X254256Y149206D01*
X254291Y149080D01*
X254329Y148955D01*
X254371Y148831D01*
X254416Y148709D01*
X254465Y148588D01*
X254517Y148468D01*
X254573Y148350D01*
X254572Y148350D02*
X254595Y148290D01*
X254621Y148230D01*
X254650Y148173D01*
X254683Y148117D01*
X254719Y148063D01*
X254757Y148011D01*
X254799Y147961D01*
X254843Y147914D01*
X254890Y147869D01*
X254940Y147827D01*
X254991Y147788D01*
X255045Y147752D01*
X255101Y147719D01*
X255158Y147689D01*
X255217Y147662D01*
X255278Y147639D01*
X255339Y147619D01*
X255402Y147603D01*
X255466Y147590D01*
X255530Y147581D01*
X255594Y147576D01*
X255659Y147574D01*
X256746Y148350D02*
X256802Y148468D01*
X256854Y148588D01*
X256903Y148709D01*
X256948Y148831D01*
X256990Y148955D01*
X257028Y149080D01*
X257063Y149206D01*
X257094Y149332D01*
X257122Y149460D01*
X257146Y149588D01*
X257166Y149717D01*
X257182Y149847D01*
X257195Y149977D01*
X257205Y150107D01*
X257210Y150237D01*
X257212Y150368D01*
X256746Y148350D02*
X256723Y148290D01*
X256697Y148230D01*
X256668Y148173D01*
X256635Y148117D01*
X256599Y148063D01*
X256561Y148011D01*
X256519Y147961D01*
X256475Y147914D01*
X256428Y147869D01*
X256378Y147827D01*
X256327Y147788D01*
X256273Y147752D01*
X256217Y147719D01*
X256160Y147689D01*
X256101Y147662D01*
X256040Y147639D01*
X255979Y147619D01*
X255916Y147603D01*
X255852Y147590D01*
X255788Y147581D01*
X255724Y147576D01*
X255659Y147574D01*
X254418Y148816D02*
X256901Y151920D01*
X268224Y147574D02*
X270087Y153162D01*
X271949Y147574D01*
X271484Y148971D02*
X268690Y148971D01*
X275263Y150058D02*
X277125Y150058D01*
X275263Y150057D02*
X275193Y150059D01*
X275124Y150065D01*
X275055Y150075D01*
X274987Y150088D01*
X274919Y150106D01*
X274853Y150127D01*
X274788Y150152D01*
X274724Y150180D01*
X274662Y150212D01*
X274602Y150247D01*
X274544Y150286D01*
X274489Y150328D01*
X274435Y150373D01*
X274385Y150421D01*
X274337Y150471D01*
X274292Y150525D01*
X274250Y150580D01*
X274211Y150638D01*
X274176Y150698D01*
X274144Y150760D01*
X274116Y150824D01*
X274091Y150889D01*
X274070Y150955D01*
X274052Y151023D01*
X274039Y151091D01*
X274029Y151160D01*
X274023Y151229D01*
X274021Y151299D01*
X274021Y151610D01*
X274023Y151687D01*
X274029Y151765D01*
X274038Y151841D01*
X274052Y151918D01*
X274069Y151993D01*
X274090Y152067D01*
X274115Y152141D01*
X274143Y152213D01*
X274175Y152283D01*
X274210Y152352D01*
X274249Y152419D01*
X274291Y152484D01*
X274336Y152547D01*
X274384Y152608D01*
X274435Y152666D01*
X274489Y152721D01*
X274546Y152774D01*
X274605Y152823D01*
X274667Y152870D01*
X274731Y152914D01*
X274797Y152954D01*
X274865Y152991D01*
X274935Y153025D01*
X275006Y153055D01*
X275079Y153081D01*
X275153Y153104D01*
X275228Y153123D01*
X275303Y153138D01*
X275380Y153150D01*
X275457Y153158D01*
X275534Y153162D01*
X275612Y153162D01*
X275689Y153158D01*
X275766Y153150D01*
X275843Y153138D01*
X275918Y153123D01*
X275993Y153104D01*
X276067Y153081D01*
X276140Y153055D01*
X276211Y153025D01*
X276281Y152991D01*
X276349Y152954D01*
X276415Y152914D01*
X276479Y152870D01*
X276541Y152823D01*
X276600Y152774D01*
X276657Y152721D01*
X276711Y152666D01*
X276762Y152608D01*
X276810Y152547D01*
X276855Y152484D01*
X276897Y152419D01*
X276936Y152352D01*
X276971Y152283D01*
X277003Y152213D01*
X277031Y152141D01*
X277056Y152067D01*
X277077Y151993D01*
X277094Y151918D01*
X277108Y151841D01*
X277117Y151765D01*
X277123Y151687D01*
X277125Y151610D01*
X277125Y150058D01*
X277126Y150058D02*
X277124Y149960D01*
X277118Y149863D01*
X277109Y149766D01*
X277095Y149669D01*
X277078Y149573D01*
X277057Y149478D01*
X277033Y149384D01*
X277004Y149290D01*
X276972Y149198D01*
X276937Y149107D01*
X276898Y149018D01*
X276855Y148930D01*
X276809Y148844D01*
X276760Y148760D01*
X276707Y148678D01*
X276652Y148598D01*
X276593Y148520D01*
X276531Y148445D01*
X276466Y148372D01*
X276398Y148302D01*
X276328Y148234D01*
X276255Y148169D01*
X276180Y148107D01*
X276102Y148048D01*
X276022Y147993D01*
X275940Y147940D01*
X275856Y147891D01*
X275770Y147845D01*
X275682Y147802D01*
X275593Y147763D01*
X275502Y147728D01*
X275410Y147696D01*
X275316Y147667D01*
X275222Y147643D01*
X275127Y147622D01*
X275031Y147605D01*
X274934Y147591D01*
X274837Y147582D01*
X274739Y147576D01*
X274642Y147574D01*
X272627Y37592D02*
X270764Y32004D01*
X274489Y32004D02*
X272627Y37592D01*
X274024Y33401D02*
X271230Y33401D01*
X276561Y33556D02*
X276563Y33633D01*
X276569Y33711D01*
X276578Y33787D01*
X276592Y33864D01*
X276609Y33939D01*
X276630Y34013D01*
X276655Y34087D01*
X276683Y34159D01*
X276715Y34229D01*
X276750Y34298D01*
X276789Y34365D01*
X276831Y34430D01*
X276876Y34493D01*
X276924Y34554D01*
X276975Y34612D01*
X277029Y34667D01*
X277086Y34720D01*
X277145Y34769D01*
X277207Y34816D01*
X277271Y34860D01*
X277337Y34900D01*
X277405Y34937D01*
X277475Y34971D01*
X277546Y35001D01*
X277619Y35027D01*
X277693Y35050D01*
X277768Y35069D01*
X277843Y35084D01*
X277920Y35096D01*
X277997Y35104D01*
X278074Y35108D01*
X278152Y35108D01*
X278229Y35104D01*
X278306Y35096D01*
X278383Y35084D01*
X278458Y35069D01*
X278533Y35050D01*
X278607Y35027D01*
X278680Y35001D01*
X278751Y34971D01*
X278821Y34937D01*
X278889Y34900D01*
X278955Y34860D01*
X279019Y34816D01*
X279081Y34769D01*
X279140Y34720D01*
X279197Y34667D01*
X279251Y34612D01*
X279302Y34554D01*
X279350Y34493D01*
X279395Y34430D01*
X279437Y34365D01*
X279476Y34298D01*
X279511Y34229D01*
X279543Y34159D01*
X279571Y34087D01*
X279596Y34013D01*
X279617Y33939D01*
X279634Y33864D01*
X279648Y33787D01*
X279657Y33711D01*
X279663Y33633D01*
X279665Y33556D01*
X279663Y33479D01*
X279657Y33401D01*
X279648Y33325D01*
X279634Y33248D01*
X279617Y33173D01*
X279596Y33099D01*
X279571Y33025D01*
X279543Y32953D01*
X279511Y32883D01*
X279476Y32814D01*
X279437Y32747D01*
X279395Y32682D01*
X279350Y32619D01*
X279302Y32558D01*
X279251Y32500D01*
X279197Y32445D01*
X279140Y32392D01*
X279081Y32343D01*
X279019Y32296D01*
X278955Y32252D01*
X278889Y32212D01*
X278821Y32175D01*
X278751Y32141D01*
X278680Y32111D01*
X278607Y32085D01*
X278533Y32062D01*
X278458Y32043D01*
X278383Y32028D01*
X278306Y32016D01*
X278229Y32008D01*
X278152Y32004D01*
X278074Y32004D01*
X277997Y32008D01*
X277920Y32016D01*
X277843Y32028D01*
X277768Y32043D01*
X277693Y32062D01*
X277619Y32085D01*
X277546Y32111D01*
X277475Y32141D01*
X277405Y32175D01*
X277337Y32212D01*
X277271Y32252D01*
X277207Y32296D01*
X277145Y32343D01*
X277086Y32392D01*
X277029Y32445D01*
X276975Y32500D01*
X276924Y32558D01*
X276876Y32619D01*
X276831Y32682D01*
X276789Y32747D01*
X276750Y32814D01*
X276715Y32883D01*
X276683Y32953D01*
X276655Y33025D01*
X276630Y33099D01*
X276609Y33173D01*
X276592Y33248D01*
X276578Y33325D01*
X276569Y33401D01*
X276563Y33479D01*
X276561Y33556D01*
X276871Y36350D02*
X276873Y36420D01*
X276879Y36489D01*
X276889Y36558D01*
X276902Y36626D01*
X276920Y36694D01*
X276941Y36760D01*
X276966Y36825D01*
X276994Y36889D01*
X277026Y36951D01*
X277061Y37011D01*
X277100Y37069D01*
X277142Y37124D01*
X277187Y37178D01*
X277235Y37228D01*
X277285Y37276D01*
X277339Y37321D01*
X277394Y37363D01*
X277452Y37402D01*
X277512Y37437D01*
X277574Y37469D01*
X277638Y37497D01*
X277703Y37522D01*
X277769Y37543D01*
X277837Y37561D01*
X277905Y37574D01*
X277974Y37584D01*
X278043Y37590D01*
X278113Y37592D01*
X278183Y37590D01*
X278252Y37584D01*
X278321Y37574D01*
X278389Y37561D01*
X278457Y37543D01*
X278523Y37522D01*
X278588Y37497D01*
X278652Y37469D01*
X278714Y37437D01*
X278774Y37402D01*
X278832Y37363D01*
X278887Y37321D01*
X278941Y37276D01*
X278991Y37228D01*
X279039Y37178D01*
X279084Y37124D01*
X279126Y37069D01*
X279165Y37011D01*
X279200Y36951D01*
X279232Y36889D01*
X279260Y36825D01*
X279285Y36760D01*
X279306Y36694D01*
X279324Y36626D01*
X279337Y36558D01*
X279347Y36489D01*
X279353Y36420D01*
X279355Y36350D01*
X279353Y36280D01*
X279347Y36211D01*
X279337Y36142D01*
X279324Y36074D01*
X279306Y36006D01*
X279285Y35940D01*
X279260Y35875D01*
X279232Y35811D01*
X279200Y35749D01*
X279165Y35689D01*
X279126Y35631D01*
X279084Y35576D01*
X279039Y35522D01*
X278991Y35472D01*
X278941Y35424D01*
X278887Y35379D01*
X278832Y35337D01*
X278774Y35298D01*
X278714Y35263D01*
X278652Y35231D01*
X278588Y35203D01*
X278523Y35178D01*
X278457Y35157D01*
X278389Y35139D01*
X278321Y35126D01*
X278252Y35116D01*
X278183Y35110D01*
X278113Y35108D01*
X278043Y35110D01*
X277974Y35116D01*
X277905Y35126D01*
X277837Y35139D01*
X277769Y35157D01*
X277703Y35178D01*
X277638Y35203D01*
X277574Y35231D01*
X277512Y35263D01*
X277452Y35298D01*
X277394Y35337D01*
X277339Y35379D01*
X277285Y35424D01*
X277235Y35472D01*
X277187Y35522D01*
X277142Y35576D01*
X277100Y35631D01*
X277061Y35689D01*
X277026Y35749D01*
X276994Y35811D01*
X276966Y35875D01*
X276941Y35940D01*
X276920Y36006D01*
X276902Y36074D01*
X276889Y36142D01*
X276879Y36211D01*
X276873Y36280D01*
X276871Y36350D01*
X243106Y32004D02*
X241554Y32004D01*
X243106Y32004D02*
X243183Y32006D01*
X243261Y32012D01*
X243337Y32021D01*
X243414Y32035D01*
X243489Y32052D01*
X243563Y32073D01*
X243637Y32098D01*
X243709Y32126D01*
X243779Y32158D01*
X243848Y32193D01*
X243915Y32232D01*
X243980Y32274D01*
X244043Y32319D01*
X244104Y32367D01*
X244162Y32418D01*
X244217Y32472D01*
X244270Y32529D01*
X244319Y32588D01*
X244366Y32650D01*
X244410Y32714D01*
X244450Y32780D01*
X244487Y32848D01*
X244521Y32918D01*
X244551Y32989D01*
X244577Y33062D01*
X244600Y33136D01*
X244619Y33211D01*
X244634Y33286D01*
X244646Y33363D01*
X244654Y33440D01*
X244658Y33517D01*
X244658Y33595D01*
X244654Y33672D01*
X244646Y33749D01*
X244634Y33826D01*
X244619Y33901D01*
X244600Y33976D01*
X244577Y34050D01*
X244551Y34123D01*
X244521Y34194D01*
X244487Y34264D01*
X244450Y34332D01*
X244410Y34398D01*
X244366Y34462D01*
X244319Y34524D01*
X244270Y34583D01*
X244217Y34640D01*
X244162Y34694D01*
X244104Y34745D01*
X244043Y34793D01*
X243980Y34838D01*
X243915Y34880D01*
X243848Y34919D01*
X243779Y34954D01*
X243709Y34986D01*
X243637Y35014D01*
X243563Y35039D01*
X243489Y35060D01*
X243414Y35077D01*
X243337Y35091D01*
X243261Y35100D01*
X243183Y35106D01*
X243106Y35108D01*
X243417Y37592D02*
X241554Y37592D01*
X243417Y37592D02*
X243487Y37590D01*
X243556Y37584D01*
X243625Y37574D01*
X243693Y37561D01*
X243761Y37543D01*
X243827Y37522D01*
X243892Y37497D01*
X243956Y37469D01*
X244018Y37437D01*
X244078Y37402D01*
X244136Y37363D01*
X244191Y37321D01*
X244245Y37276D01*
X244295Y37228D01*
X244343Y37178D01*
X244388Y37124D01*
X244430Y37069D01*
X244469Y37011D01*
X244504Y36951D01*
X244536Y36889D01*
X244564Y36825D01*
X244589Y36760D01*
X244610Y36694D01*
X244628Y36626D01*
X244641Y36558D01*
X244651Y36489D01*
X244657Y36420D01*
X244659Y36350D01*
X244657Y36280D01*
X244651Y36211D01*
X244641Y36142D01*
X244628Y36074D01*
X244610Y36006D01*
X244589Y35940D01*
X244564Y35875D01*
X244536Y35811D01*
X244504Y35749D01*
X244469Y35689D01*
X244430Y35631D01*
X244388Y35576D01*
X244343Y35522D01*
X244295Y35472D01*
X244245Y35424D01*
X244191Y35379D01*
X244136Y35337D01*
X244078Y35298D01*
X244018Y35263D01*
X243956Y35231D01*
X243892Y35203D01*
X243827Y35178D01*
X243761Y35157D01*
X243693Y35139D01*
X243625Y35126D01*
X243556Y35116D01*
X243487Y35110D01*
X243417Y35108D01*
X242175Y35108D01*
X246730Y37592D02*
X248593Y32004D01*
X250455Y37592D01*
X252527Y32004D02*
X254079Y32004D01*
X254156Y32006D01*
X254234Y32012D01*
X254310Y32021D01*
X254387Y32035D01*
X254462Y32052D01*
X254536Y32073D01*
X254610Y32098D01*
X254682Y32126D01*
X254752Y32158D01*
X254821Y32193D01*
X254888Y32232D01*
X254953Y32274D01*
X255016Y32319D01*
X255077Y32367D01*
X255135Y32418D01*
X255190Y32472D01*
X255243Y32529D01*
X255292Y32588D01*
X255339Y32650D01*
X255383Y32714D01*
X255423Y32780D01*
X255460Y32848D01*
X255494Y32918D01*
X255524Y32989D01*
X255550Y33062D01*
X255573Y33136D01*
X255592Y33211D01*
X255607Y33286D01*
X255619Y33363D01*
X255627Y33440D01*
X255631Y33517D01*
X255631Y33595D01*
X255627Y33672D01*
X255619Y33749D01*
X255607Y33826D01*
X255592Y33901D01*
X255573Y33976D01*
X255550Y34050D01*
X255524Y34123D01*
X255494Y34194D01*
X255460Y34264D01*
X255423Y34332D01*
X255383Y34398D01*
X255339Y34462D01*
X255292Y34524D01*
X255243Y34583D01*
X255190Y34640D01*
X255135Y34694D01*
X255077Y34745D01*
X255016Y34793D01*
X254953Y34838D01*
X254888Y34880D01*
X254821Y34919D01*
X254752Y34954D01*
X254682Y34986D01*
X254610Y35014D01*
X254536Y35039D01*
X254462Y35060D01*
X254387Y35077D01*
X254310Y35091D01*
X254234Y35100D01*
X254156Y35106D01*
X254079Y35108D01*
X254389Y37592D02*
X252527Y37592D01*
X254389Y37592D02*
X254459Y37590D01*
X254528Y37584D01*
X254597Y37574D01*
X254665Y37561D01*
X254733Y37543D01*
X254799Y37522D01*
X254864Y37497D01*
X254928Y37469D01*
X254990Y37437D01*
X255050Y37402D01*
X255108Y37363D01*
X255163Y37321D01*
X255217Y37276D01*
X255267Y37228D01*
X255315Y37178D01*
X255360Y37124D01*
X255402Y37069D01*
X255441Y37011D01*
X255476Y36951D01*
X255508Y36889D01*
X255536Y36825D01*
X255561Y36760D01*
X255582Y36694D01*
X255600Y36626D01*
X255613Y36558D01*
X255623Y36489D01*
X255629Y36420D01*
X255631Y36350D01*
X255629Y36280D01*
X255623Y36211D01*
X255613Y36142D01*
X255600Y36074D01*
X255582Y36006D01*
X255561Y35940D01*
X255536Y35875D01*
X255508Y35811D01*
X255476Y35749D01*
X255441Y35689D01*
X255402Y35631D01*
X255360Y35576D01*
X255315Y35522D01*
X255267Y35472D01*
X255217Y35424D01*
X255163Y35379D01*
X255108Y35337D01*
X255050Y35298D01*
X254990Y35263D01*
X254928Y35231D01*
X254864Y35203D01*
X254799Y35178D01*
X254733Y35157D01*
X254665Y35139D01*
X254597Y35126D01*
X254528Y35116D01*
X254459Y35110D01*
X254389Y35108D01*
X253148Y35108D01*
X220246Y35108D02*
X218694Y35108D01*
X220246Y35108D02*
X220323Y35106D01*
X220401Y35100D01*
X220477Y35091D01*
X220554Y35077D01*
X220629Y35060D01*
X220703Y35039D01*
X220777Y35014D01*
X220849Y34986D01*
X220919Y34954D01*
X220988Y34919D01*
X221055Y34880D01*
X221120Y34838D01*
X221183Y34793D01*
X221244Y34745D01*
X221302Y34694D01*
X221357Y34640D01*
X221410Y34583D01*
X221459Y34524D01*
X221506Y34462D01*
X221550Y34398D01*
X221590Y34332D01*
X221627Y34264D01*
X221661Y34194D01*
X221691Y34123D01*
X221717Y34050D01*
X221740Y33976D01*
X221759Y33901D01*
X221774Y33826D01*
X221786Y33749D01*
X221794Y33672D01*
X221798Y33595D01*
X221798Y33517D01*
X221794Y33440D01*
X221786Y33363D01*
X221774Y33286D01*
X221759Y33211D01*
X221740Y33136D01*
X221717Y33062D01*
X221691Y32989D01*
X221661Y32918D01*
X221627Y32848D01*
X221590Y32780D01*
X221550Y32714D01*
X221506Y32650D01*
X221459Y32588D01*
X221410Y32529D01*
X221357Y32472D01*
X221302Y32418D01*
X221244Y32367D01*
X221183Y32319D01*
X221120Y32274D01*
X221055Y32232D01*
X220988Y32193D01*
X220919Y32158D01*
X220849Y32126D01*
X220777Y32098D01*
X220703Y32073D01*
X220629Y32052D01*
X220554Y32035D01*
X220477Y32021D01*
X220401Y32012D01*
X220323Y32006D01*
X220246Y32004D01*
X218694Y32004D01*
X218694Y37592D01*
X220246Y37592D01*
X220316Y37590D01*
X220385Y37584D01*
X220454Y37574D01*
X220522Y37561D01*
X220590Y37543D01*
X220656Y37522D01*
X220721Y37497D01*
X220785Y37469D01*
X220847Y37437D01*
X220907Y37402D01*
X220965Y37363D01*
X221020Y37321D01*
X221074Y37276D01*
X221124Y37228D01*
X221172Y37178D01*
X221217Y37124D01*
X221259Y37069D01*
X221298Y37011D01*
X221333Y36951D01*
X221365Y36889D01*
X221393Y36825D01*
X221418Y36760D01*
X221439Y36694D01*
X221457Y36626D01*
X221470Y36558D01*
X221480Y36489D01*
X221486Y36420D01*
X221488Y36350D01*
X221486Y36280D01*
X221480Y36211D01*
X221470Y36142D01*
X221457Y36074D01*
X221439Y36006D01*
X221418Y35940D01*
X221393Y35875D01*
X221365Y35811D01*
X221333Y35749D01*
X221298Y35689D01*
X221259Y35631D01*
X221217Y35576D01*
X221172Y35522D01*
X221124Y35472D01*
X221074Y35424D01*
X221020Y35379D01*
X220965Y35337D01*
X220907Y35298D01*
X220847Y35263D01*
X220785Y35231D01*
X220721Y35203D01*
X220656Y35178D01*
X220590Y35157D01*
X220522Y35139D01*
X220454Y35126D01*
X220385Y35116D01*
X220316Y35110D01*
X220246Y35108D01*
X225622Y37592D02*
X225695Y37590D01*
X225768Y37584D01*
X225841Y37575D01*
X225912Y37561D01*
X225984Y37544D01*
X226054Y37524D01*
X226123Y37499D01*
X226190Y37471D01*
X226256Y37440D01*
X226321Y37405D01*
X226383Y37367D01*
X226443Y37325D01*
X226501Y37281D01*
X226557Y37233D01*
X226610Y37183D01*
X226660Y37130D01*
X226708Y37074D01*
X226752Y37016D01*
X226794Y36956D01*
X226832Y36894D01*
X226867Y36829D01*
X226898Y36763D01*
X226926Y36696D01*
X226951Y36627D01*
X226971Y36557D01*
X226988Y36485D01*
X227002Y36414D01*
X227011Y36341D01*
X227017Y36268D01*
X227019Y36195D01*
X225622Y37592D02*
X225538Y37590D01*
X225455Y37584D01*
X225372Y37575D01*
X225290Y37561D01*
X225208Y37544D01*
X225127Y37522D01*
X225047Y37497D01*
X224969Y37469D01*
X224891Y37437D01*
X224816Y37401D01*
X224742Y37362D01*
X224670Y37319D01*
X224600Y37273D01*
X224533Y37224D01*
X224467Y37171D01*
X224405Y37116D01*
X224345Y37058D01*
X224287Y36997D01*
X224233Y36934D01*
X224181Y36868D01*
X224133Y36800D01*
X224088Y36729D01*
X224046Y36657D01*
X224008Y36582D01*
X223973Y36506D01*
X223942Y36429D01*
X223914Y36350D01*
X226553Y35109D02*
X226607Y35162D01*
X226658Y35219D01*
X226706Y35278D01*
X226751Y35339D01*
X226792Y35402D01*
X226831Y35468D01*
X226866Y35535D01*
X226898Y35604D01*
X226926Y35675D01*
X226950Y35746D01*
X226971Y35819D01*
X226988Y35893D01*
X227002Y35968D01*
X227011Y36043D01*
X227017Y36119D01*
X227019Y36195D01*
X226553Y35108D02*
X223915Y32004D01*
X227019Y32004D01*
X192588Y35108D02*
X191657Y35108D01*
X192588Y35108D02*
X192588Y32004D01*
X190726Y32004D01*
X190656Y32006D01*
X190587Y32012D01*
X190518Y32022D01*
X190450Y32035D01*
X190382Y32053D01*
X190316Y32074D01*
X190251Y32099D01*
X190187Y32127D01*
X190125Y32159D01*
X190065Y32194D01*
X190007Y32233D01*
X189952Y32275D01*
X189898Y32320D01*
X189848Y32368D01*
X189800Y32418D01*
X189755Y32472D01*
X189713Y32527D01*
X189674Y32585D01*
X189639Y32645D01*
X189607Y32707D01*
X189579Y32771D01*
X189554Y32836D01*
X189533Y32902D01*
X189515Y32970D01*
X189502Y33038D01*
X189492Y33107D01*
X189486Y33176D01*
X189484Y33246D01*
X189484Y36350D01*
X189486Y36420D01*
X189492Y36489D01*
X189502Y36558D01*
X189515Y36626D01*
X189533Y36694D01*
X189554Y36760D01*
X189579Y36825D01*
X189607Y36889D01*
X189639Y36951D01*
X189674Y37011D01*
X189713Y37069D01*
X189755Y37124D01*
X189800Y37178D01*
X189848Y37228D01*
X189898Y37276D01*
X189952Y37321D01*
X190007Y37363D01*
X190065Y37402D01*
X190125Y37437D01*
X190187Y37469D01*
X190251Y37497D01*
X190316Y37522D01*
X190382Y37543D01*
X190450Y37561D01*
X190518Y37574D01*
X190587Y37584D01*
X190656Y37590D01*
X190726Y37592D01*
X192588Y37592D01*
X195336Y37592D02*
X195336Y32004D01*
X198441Y32004D02*
X195336Y37592D01*
X198441Y37592D02*
X198441Y32004D01*
X201188Y32004D02*
X201188Y37592D01*
X202740Y37592D01*
X202816Y37590D01*
X202892Y37585D01*
X202968Y37575D01*
X203043Y37562D01*
X203117Y37545D01*
X203191Y37525D01*
X203263Y37501D01*
X203334Y37474D01*
X203404Y37443D01*
X203472Y37409D01*
X203538Y37371D01*
X203602Y37330D01*
X203665Y37287D01*
X203725Y37240D01*
X203782Y37190D01*
X203837Y37137D01*
X203890Y37082D01*
X203940Y37025D01*
X203987Y36965D01*
X204030Y36902D01*
X204071Y36838D01*
X204109Y36772D01*
X204143Y36704D01*
X204174Y36634D01*
X204201Y36563D01*
X204225Y36490D01*
X204245Y36417D01*
X204262Y36343D01*
X204275Y36268D01*
X204285Y36192D01*
X204290Y36116D01*
X204292Y36040D01*
X204293Y36040D02*
X204293Y33556D01*
X204292Y33556D02*
X204290Y33477D01*
X204284Y33399D01*
X204274Y33321D01*
X204260Y33244D01*
X204242Y33167D01*
X204221Y33091D01*
X204195Y33017D01*
X204166Y32944D01*
X204133Y32873D01*
X204097Y32803D01*
X204057Y32735D01*
X204014Y32669D01*
X203967Y32606D01*
X203918Y32545D01*
X203865Y32487D01*
X203809Y32431D01*
X203751Y32378D01*
X203690Y32329D01*
X203627Y32282D01*
X203561Y32239D01*
X203493Y32199D01*
X203424Y32163D01*
X203352Y32130D01*
X203279Y32101D01*
X203205Y32075D01*
X203129Y32054D01*
X203052Y32036D01*
X202975Y32022D01*
X202897Y32012D01*
X202819Y32006D01*
X202740Y32004D01*
X201188Y32004D01*
X169757Y37592D02*
X167894Y32004D01*
X171619Y32004D02*
X169757Y37592D01*
X171154Y33401D02*
X168360Y33401D01*
X173691Y32004D02*
X175243Y32004D01*
X175320Y32006D01*
X175398Y32012D01*
X175474Y32021D01*
X175551Y32035D01*
X175626Y32052D01*
X175700Y32073D01*
X175774Y32098D01*
X175846Y32126D01*
X175916Y32158D01*
X175985Y32193D01*
X176052Y32232D01*
X176117Y32274D01*
X176180Y32319D01*
X176241Y32367D01*
X176299Y32418D01*
X176354Y32472D01*
X176407Y32529D01*
X176456Y32588D01*
X176503Y32650D01*
X176547Y32714D01*
X176587Y32780D01*
X176624Y32848D01*
X176658Y32918D01*
X176688Y32989D01*
X176714Y33062D01*
X176737Y33136D01*
X176756Y33211D01*
X176771Y33286D01*
X176783Y33363D01*
X176791Y33440D01*
X176795Y33517D01*
X176795Y33595D01*
X176791Y33672D01*
X176783Y33749D01*
X176771Y33826D01*
X176756Y33901D01*
X176737Y33976D01*
X176714Y34050D01*
X176688Y34123D01*
X176658Y34194D01*
X176624Y34264D01*
X176587Y34332D01*
X176547Y34398D01*
X176503Y34462D01*
X176456Y34524D01*
X176407Y34583D01*
X176354Y34640D01*
X176299Y34694D01*
X176241Y34745D01*
X176180Y34793D01*
X176117Y34838D01*
X176052Y34880D01*
X175985Y34919D01*
X175916Y34954D01*
X175846Y34986D01*
X175774Y35014D01*
X175700Y35039D01*
X175626Y35060D01*
X175551Y35077D01*
X175474Y35091D01*
X175398Y35100D01*
X175320Y35106D01*
X175243Y35108D01*
X175553Y37592D02*
X173691Y37592D01*
X175553Y37592D02*
X175623Y37590D01*
X175692Y37584D01*
X175761Y37574D01*
X175829Y37561D01*
X175897Y37543D01*
X175963Y37522D01*
X176028Y37497D01*
X176092Y37469D01*
X176154Y37437D01*
X176214Y37402D01*
X176272Y37363D01*
X176327Y37321D01*
X176381Y37276D01*
X176431Y37228D01*
X176479Y37178D01*
X176524Y37124D01*
X176566Y37069D01*
X176605Y37011D01*
X176640Y36951D01*
X176672Y36889D01*
X176700Y36825D01*
X176725Y36760D01*
X176746Y36694D01*
X176764Y36626D01*
X176777Y36558D01*
X176787Y36489D01*
X176793Y36420D01*
X176795Y36350D01*
X176793Y36280D01*
X176787Y36211D01*
X176777Y36142D01*
X176764Y36074D01*
X176746Y36006D01*
X176725Y35940D01*
X176700Y35875D01*
X176672Y35811D01*
X176640Y35749D01*
X176605Y35689D01*
X176566Y35631D01*
X176524Y35576D01*
X176479Y35522D01*
X176431Y35472D01*
X176381Y35424D01*
X176327Y35379D01*
X176272Y35337D01*
X176214Y35298D01*
X176154Y35263D01*
X176092Y35231D01*
X176028Y35203D01*
X175963Y35178D01*
X175897Y35157D01*
X175829Y35139D01*
X175761Y35126D01*
X175692Y35116D01*
X175623Y35110D01*
X175553Y35108D01*
X174312Y35108D01*
X144357Y37592D02*
X142494Y32004D01*
X146219Y32004D02*
X144357Y37592D01*
X145754Y33401D02*
X142960Y33401D01*
X149998Y37592D02*
X150071Y37590D01*
X150144Y37584D01*
X150217Y37575D01*
X150288Y37561D01*
X150360Y37544D01*
X150430Y37524D01*
X150499Y37499D01*
X150566Y37471D01*
X150632Y37440D01*
X150697Y37405D01*
X150759Y37367D01*
X150819Y37325D01*
X150877Y37281D01*
X150933Y37233D01*
X150986Y37183D01*
X151036Y37130D01*
X151084Y37074D01*
X151128Y37016D01*
X151170Y36956D01*
X151208Y36894D01*
X151243Y36829D01*
X151274Y36763D01*
X151302Y36696D01*
X151327Y36627D01*
X151347Y36557D01*
X151364Y36485D01*
X151378Y36414D01*
X151387Y36341D01*
X151393Y36268D01*
X151395Y36195D01*
X149998Y37592D02*
X149914Y37590D01*
X149831Y37584D01*
X149748Y37575D01*
X149666Y37561D01*
X149584Y37544D01*
X149503Y37522D01*
X149423Y37497D01*
X149345Y37469D01*
X149267Y37437D01*
X149192Y37401D01*
X149118Y37362D01*
X149046Y37319D01*
X148976Y37273D01*
X148909Y37224D01*
X148843Y37171D01*
X148781Y37116D01*
X148721Y37058D01*
X148663Y36997D01*
X148609Y36934D01*
X148557Y36868D01*
X148509Y36800D01*
X148464Y36729D01*
X148422Y36657D01*
X148384Y36582D01*
X148349Y36506D01*
X148318Y36429D01*
X148290Y36350D01*
X150929Y35109D02*
X150983Y35162D01*
X151034Y35219D01*
X151082Y35278D01*
X151127Y35339D01*
X151168Y35402D01*
X151207Y35468D01*
X151242Y35535D01*
X151274Y35604D01*
X151302Y35675D01*
X151326Y35746D01*
X151347Y35819D01*
X151364Y35893D01*
X151378Y35968D01*
X151387Y36043D01*
X151393Y36119D01*
X151395Y36195D01*
X150930Y35108D02*
X148291Y32004D01*
X151395Y32004D01*
X118364Y32004D02*
X118364Y37592D01*
X120848Y37592D01*
X120848Y35108D02*
X118364Y35108D01*
X122925Y32004D02*
X124477Y32004D01*
X124554Y32006D01*
X124632Y32012D01*
X124708Y32021D01*
X124785Y32035D01*
X124860Y32052D01*
X124934Y32073D01*
X125008Y32098D01*
X125080Y32126D01*
X125150Y32158D01*
X125219Y32193D01*
X125286Y32232D01*
X125351Y32274D01*
X125414Y32319D01*
X125475Y32367D01*
X125533Y32418D01*
X125588Y32472D01*
X125641Y32529D01*
X125690Y32588D01*
X125737Y32650D01*
X125781Y32714D01*
X125821Y32780D01*
X125858Y32848D01*
X125892Y32918D01*
X125922Y32989D01*
X125948Y33062D01*
X125971Y33136D01*
X125990Y33211D01*
X126005Y33286D01*
X126017Y33363D01*
X126025Y33440D01*
X126029Y33517D01*
X126029Y33595D01*
X126025Y33672D01*
X126017Y33749D01*
X126005Y33826D01*
X125990Y33901D01*
X125971Y33976D01*
X125948Y34050D01*
X125922Y34123D01*
X125892Y34194D01*
X125858Y34264D01*
X125821Y34332D01*
X125781Y34398D01*
X125737Y34462D01*
X125690Y34524D01*
X125641Y34583D01*
X125588Y34640D01*
X125533Y34694D01*
X125475Y34745D01*
X125414Y34793D01*
X125351Y34838D01*
X125286Y34880D01*
X125219Y34919D01*
X125150Y34954D01*
X125080Y34986D01*
X125008Y35014D01*
X124934Y35039D01*
X124860Y35060D01*
X124785Y35077D01*
X124708Y35091D01*
X124632Y35100D01*
X124554Y35106D01*
X124477Y35108D01*
X124788Y37592D02*
X122925Y37592D01*
X124788Y37592D02*
X124858Y37590D01*
X124927Y37584D01*
X124996Y37574D01*
X125064Y37561D01*
X125132Y37543D01*
X125198Y37522D01*
X125263Y37497D01*
X125327Y37469D01*
X125389Y37437D01*
X125449Y37402D01*
X125507Y37363D01*
X125562Y37321D01*
X125616Y37276D01*
X125666Y37228D01*
X125714Y37178D01*
X125759Y37124D01*
X125801Y37069D01*
X125840Y37011D01*
X125875Y36951D01*
X125907Y36889D01*
X125935Y36825D01*
X125960Y36760D01*
X125981Y36694D01*
X125999Y36626D01*
X126012Y36558D01*
X126022Y36489D01*
X126028Y36420D01*
X126030Y36350D01*
X126028Y36280D01*
X126022Y36211D01*
X126012Y36142D01*
X125999Y36074D01*
X125981Y36006D01*
X125960Y35940D01*
X125935Y35875D01*
X125907Y35811D01*
X125875Y35749D01*
X125840Y35689D01*
X125801Y35631D01*
X125759Y35576D01*
X125714Y35522D01*
X125666Y35472D01*
X125616Y35424D01*
X125562Y35379D01*
X125507Y35337D01*
X125449Y35298D01*
X125389Y35263D01*
X125327Y35231D01*
X125263Y35203D01*
X125198Y35178D01*
X125132Y35157D01*
X125064Y35139D01*
X124996Y35126D01*
X124927Y35116D01*
X124858Y35110D01*
X124788Y35108D01*
X123546Y35108D01*
X92964Y37592D02*
X92964Y32004D01*
X92964Y37592D02*
X95448Y37592D01*
X95448Y35108D02*
X92964Y35108D01*
X99232Y37592D02*
X99305Y37590D01*
X99378Y37584D01*
X99451Y37575D01*
X99522Y37561D01*
X99594Y37544D01*
X99664Y37524D01*
X99733Y37499D01*
X99800Y37471D01*
X99866Y37440D01*
X99931Y37405D01*
X99993Y37367D01*
X100053Y37325D01*
X100111Y37281D01*
X100167Y37233D01*
X100220Y37183D01*
X100270Y37130D01*
X100318Y37074D01*
X100362Y37016D01*
X100404Y36956D01*
X100442Y36894D01*
X100477Y36829D01*
X100508Y36763D01*
X100536Y36696D01*
X100561Y36627D01*
X100581Y36557D01*
X100598Y36485D01*
X100612Y36414D01*
X100621Y36341D01*
X100627Y36268D01*
X100629Y36195D01*
X99232Y37592D02*
X99148Y37590D01*
X99065Y37584D01*
X98982Y37575D01*
X98900Y37561D01*
X98818Y37544D01*
X98737Y37522D01*
X98657Y37497D01*
X98579Y37469D01*
X98501Y37437D01*
X98426Y37401D01*
X98352Y37362D01*
X98280Y37319D01*
X98210Y37273D01*
X98143Y37224D01*
X98077Y37171D01*
X98015Y37116D01*
X97955Y37058D01*
X97897Y36997D01*
X97843Y36934D01*
X97791Y36868D01*
X97743Y36800D01*
X97698Y36729D01*
X97656Y36657D01*
X97618Y36582D01*
X97583Y36506D01*
X97552Y36429D01*
X97524Y36350D01*
X100163Y35109D02*
X100217Y35162D01*
X100268Y35219D01*
X100316Y35278D01*
X100361Y35339D01*
X100402Y35402D01*
X100441Y35468D01*
X100476Y35535D01*
X100508Y35604D01*
X100536Y35675D01*
X100560Y35746D01*
X100581Y35819D01*
X100598Y35893D01*
X100612Y35968D01*
X100621Y36043D01*
X100627Y36119D01*
X100629Y36195D01*
X100164Y35108D02*
X97525Y32004D01*
X100629Y32004D01*
X65024Y32004D02*
X65024Y37592D01*
X67508Y37592D01*
X67508Y35108D02*
X65024Y35108D01*
X69585Y36350D02*
X71137Y37592D01*
X71137Y32004D01*
X69585Y32004D02*
X72689Y32004D01*
X39624Y32004D02*
X39624Y37592D01*
X42108Y37592D01*
X42108Y35108D02*
X39624Y35108D01*
X44185Y34798D02*
X44187Y34929D01*
X44192Y35059D01*
X44202Y35189D01*
X44215Y35319D01*
X44231Y35449D01*
X44251Y35578D01*
X44275Y35706D01*
X44303Y35833D01*
X44334Y35960D01*
X44369Y36086D01*
X44407Y36211D01*
X44449Y36335D01*
X44494Y36457D01*
X44543Y36578D01*
X44595Y36698D01*
X44651Y36816D01*
X44650Y36816D02*
X44673Y36876D01*
X44699Y36936D01*
X44728Y36993D01*
X44761Y37049D01*
X44797Y37103D01*
X44835Y37155D01*
X44877Y37205D01*
X44921Y37252D01*
X44968Y37297D01*
X45018Y37339D01*
X45069Y37378D01*
X45123Y37414D01*
X45179Y37447D01*
X45236Y37477D01*
X45295Y37504D01*
X45356Y37527D01*
X45417Y37547D01*
X45480Y37563D01*
X45544Y37576D01*
X45608Y37585D01*
X45672Y37590D01*
X45737Y37592D01*
X45802Y37590D01*
X45866Y37585D01*
X45930Y37576D01*
X45994Y37563D01*
X46057Y37547D01*
X46118Y37527D01*
X46179Y37504D01*
X46238Y37477D01*
X46295Y37447D01*
X46351Y37414D01*
X46405Y37378D01*
X46456Y37339D01*
X46506Y37297D01*
X46553Y37252D01*
X46597Y37205D01*
X46639Y37155D01*
X46677Y37103D01*
X46713Y37049D01*
X46746Y36993D01*
X46775Y36936D01*
X46801Y36876D01*
X46824Y36816D01*
X46880Y36698D01*
X46932Y36578D01*
X46981Y36457D01*
X47026Y36335D01*
X47068Y36211D01*
X47106Y36086D01*
X47141Y35960D01*
X47172Y35834D01*
X47200Y35706D01*
X47224Y35578D01*
X47244Y35449D01*
X47260Y35319D01*
X47273Y35189D01*
X47283Y35059D01*
X47288Y34929D01*
X47290Y34798D01*
X44185Y34798D02*
X44187Y34667D01*
X44192Y34537D01*
X44202Y34407D01*
X44215Y34277D01*
X44231Y34147D01*
X44251Y34018D01*
X44275Y33890D01*
X44303Y33763D01*
X44334Y33636D01*
X44369Y33510D01*
X44407Y33385D01*
X44449Y33261D01*
X44494Y33139D01*
X44543Y33018D01*
X44595Y32898D01*
X44651Y32780D01*
X44650Y32780D02*
X44673Y32720D01*
X44699Y32660D01*
X44728Y32603D01*
X44761Y32547D01*
X44797Y32493D01*
X44835Y32441D01*
X44877Y32391D01*
X44921Y32344D01*
X44968Y32299D01*
X45018Y32257D01*
X45069Y32218D01*
X45123Y32182D01*
X45179Y32149D01*
X45236Y32119D01*
X45295Y32092D01*
X45356Y32069D01*
X45417Y32049D01*
X45480Y32033D01*
X45544Y32020D01*
X45608Y32011D01*
X45672Y32006D01*
X45737Y32004D01*
X46823Y32780D02*
X46879Y32898D01*
X46931Y33018D01*
X46980Y33139D01*
X47025Y33261D01*
X47067Y33385D01*
X47105Y33510D01*
X47140Y33636D01*
X47171Y33762D01*
X47199Y33890D01*
X47223Y34018D01*
X47243Y34147D01*
X47259Y34277D01*
X47272Y34407D01*
X47282Y34537D01*
X47287Y34667D01*
X47289Y34798D01*
X46824Y32780D02*
X46801Y32720D01*
X46775Y32660D01*
X46746Y32603D01*
X46713Y32547D01*
X46677Y32493D01*
X46639Y32441D01*
X46597Y32391D01*
X46553Y32344D01*
X46506Y32299D01*
X46456Y32257D01*
X46405Y32218D01*
X46351Y32182D01*
X46295Y32149D01*
X46238Y32119D01*
X46179Y32092D01*
X46118Y32069D01*
X46057Y32049D01*
X45994Y32033D01*
X45930Y32020D01*
X45866Y32011D01*
X45802Y32006D01*
X45737Y32004D01*
X44495Y33246D02*
X46979Y36350D01*
X42926Y126577D02*
X42924Y126647D01*
X42918Y126716D01*
X42908Y126785D01*
X42895Y126853D01*
X42877Y126921D01*
X42856Y126987D01*
X42831Y127052D01*
X42803Y127116D01*
X42771Y127178D01*
X42736Y127238D01*
X42697Y127296D01*
X42655Y127351D01*
X42610Y127405D01*
X42562Y127455D01*
X42512Y127503D01*
X42458Y127548D01*
X42403Y127590D01*
X42345Y127629D01*
X42285Y127664D01*
X42223Y127696D01*
X42159Y127724D01*
X42094Y127749D01*
X42028Y127770D01*
X41960Y127788D01*
X41892Y127801D01*
X41823Y127811D01*
X41754Y127817D01*
X41684Y127819D01*
X42926Y126577D02*
X42924Y126478D01*
X42919Y126380D01*
X42909Y126282D01*
X42896Y126184D01*
X42880Y126087D01*
X42860Y125990D01*
X42836Y125895D01*
X42808Y125800D01*
X42777Y125706D01*
X42743Y125614D01*
X42705Y125523D01*
X42664Y125433D01*
X42619Y125345D01*
X42571Y125259D01*
X42520Y125175D01*
X42466Y125093D01*
X42408Y125012D01*
X42348Y124934D01*
X42285Y124859D01*
X42219Y124785D01*
X42150Y124715D01*
X38580Y124869D02*
X38510Y124871D01*
X38441Y124877D01*
X38372Y124887D01*
X38304Y124900D01*
X38236Y124918D01*
X38170Y124939D01*
X38105Y124964D01*
X38041Y124992D01*
X37979Y125024D01*
X37919Y125059D01*
X37861Y125098D01*
X37806Y125140D01*
X37752Y125185D01*
X37702Y125233D01*
X37654Y125283D01*
X37609Y125337D01*
X37567Y125392D01*
X37528Y125450D01*
X37493Y125510D01*
X37461Y125572D01*
X37433Y125636D01*
X37408Y125701D01*
X37387Y125767D01*
X37369Y125835D01*
X37356Y125903D01*
X37346Y125972D01*
X37340Y126041D01*
X37338Y126111D01*
X37340Y126205D01*
X37346Y126298D01*
X37355Y126391D01*
X37368Y126484D01*
X37385Y126576D01*
X37405Y126667D01*
X37430Y126758D01*
X37457Y126847D01*
X37489Y126935D01*
X37524Y127022D01*
X37562Y127108D01*
X37604Y127191D01*
X37649Y127274D01*
X37697Y127354D01*
X37749Y127432D01*
X37804Y127508D01*
X39666Y125490D02*
X39630Y125431D01*
X39590Y125375D01*
X39547Y125321D01*
X39502Y125269D01*
X39453Y125220D01*
X39402Y125174D01*
X39349Y125131D01*
X39293Y125090D01*
X39235Y125053D01*
X39175Y125018D01*
X39114Y124988D01*
X39051Y124960D01*
X38986Y124936D01*
X38920Y124916D01*
X38853Y124899D01*
X38786Y124886D01*
X38718Y124877D01*
X38649Y124871D01*
X38580Y124869D01*
X40598Y127197D02*
X40634Y127256D01*
X40674Y127312D01*
X40717Y127366D01*
X40762Y127418D01*
X40811Y127467D01*
X40862Y127513D01*
X40915Y127556D01*
X40971Y127597D01*
X41029Y127634D01*
X41089Y127669D01*
X41150Y127699D01*
X41213Y127727D01*
X41278Y127751D01*
X41344Y127771D01*
X41411Y127788D01*
X41478Y127801D01*
X41546Y127810D01*
X41615Y127816D01*
X41684Y127818D01*
X40598Y127198D02*
X39666Y125490D01*
X37338Y129818D02*
X42926Y131059D01*
X39201Y132301D01*
X42926Y133543D01*
X37338Y134785D01*
X37338Y137150D02*
X42926Y137150D01*
X37338Y137150D02*
X37338Y138702D01*
X37340Y138778D01*
X37345Y138854D01*
X37355Y138930D01*
X37368Y139005D01*
X37385Y139079D01*
X37405Y139153D01*
X37429Y139225D01*
X37456Y139296D01*
X37487Y139366D01*
X37521Y139434D01*
X37559Y139500D01*
X37600Y139564D01*
X37643Y139627D01*
X37690Y139687D01*
X37740Y139744D01*
X37793Y139799D01*
X37848Y139852D01*
X37905Y139902D01*
X37965Y139949D01*
X38028Y139992D01*
X38092Y140033D01*
X38158Y140071D01*
X38226Y140105D01*
X38296Y140136D01*
X38367Y140163D01*
X38440Y140187D01*
X38513Y140207D01*
X38587Y140224D01*
X38662Y140237D01*
X38738Y140247D01*
X38814Y140252D01*
X38890Y140254D01*
X41374Y140254D01*
X41450Y140252D01*
X41526Y140247D01*
X41602Y140237D01*
X41677Y140224D01*
X41751Y140207D01*
X41825Y140187D01*
X41897Y140163D01*
X41968Y140136D01*
X42038Y140105D01*
X42106Y140071D01*
X42172Y140033D01*
X42236Y139992D01*
X42299Y139949D01*
X42359Y139902D01*
X42416Y139852D01*
X42471Y139799D01*
X42524Y139744D01*
X42574Y139687D01*
X42621Y139627D01*
X42664Y139564D01*
X42705Y139500D01*
X42743Y139434D01*
X42777Y139366D01*
X42808Y139296D01*
X42835Y139225D01*
X42859Y139153D01*
X42879Y139079D01*
X42896Y139005D01*
X42909Y138930D01*
X42919Y138854D01*
X42924Y138778D01*
X42926Y138702D01*
X42926Y137150D01*
X39822Y102418D02*
X39822Y101487D01*
X39822Y102418D02*
X42926Y102418D01*
X42926Y100556D01*
X42924Y100486D01*
X42918Y100417D01*
X42908Y100348D01*
X42895Y100280D01*
X42877Y100212D01*
X42856Y100146D01*
X42831Y100081D01*
X42803Y100017D01*
X42771Y99955D01*
X42736Y99895D01*
X42697Y99837D01*
X42655Y99782D01*
X42610Y99728D01*
X42562Y99678D01*
X42512Y99630D01*
X42458Y99585D01*
X42403Y99543D01*
X42345Y99504D01*
X42285Y99469D01*
X42223Y99437D01*
X42159Y99409D01*
X42094Y99384D01*
X42028Y99363D01*
X41960Y99345D01*
X41892Y99332D01*
X41823Y99322D01*
X41754Y99316D01*
X41684Y99314D01*
X38580Y99314D01*
X38510Y99316D01*
X38441Y99322D01*
X38372Y99332D01*
X38304Y99345D01*
X38236Y99363D01*
X38170Y99384D01*
X38105Y99409D01*
X38041Y99437D01*
X37979Y99469D01*
X37919Y99504D01*
X37861Y99543D01*
X37806Y99585D01*
X37752Y99630D01*
X37702Y99678D01*
X37654Y99728D01*
X37609Y99782D01*
X37567Y99837D01*
X37528Y99895D01*
X37493Y99955D01*
X37461Y100017D01*
X37433Y100081D01*
X37408Y100146D01*
X37387Y100212D01*
X37369Y100280D01*
X37356Y100348D01*
X37346Y100417D01*
X37340Y100486D01*
X37338Y100556D01*
X37338Y102418D01*
X37338Y105166D02*
X42926Y105166D01*
X42926Y108271D02*
X37338Y105166D01*
X37338Y108271D02*
X42926Y108271D01*
X42926Y111018D02*
X37338Y111018D01*
X37338Y112570D01*
X37340Y112646D01*
X37345Y112722D01*
X37355Y112798D01*
X37368Y112873D01*
X37385Y112947D01*
X37405Y113021D01*
X37429Y113093D01*
X37456Y113164D01*
X37487Y113234D01*
X37521Y113302D01*
X37559Y113368D01*
X37600Y113432D01*
X37643Y113495D01*
X37690Y113555D01*
X37740Y113612D01*
X37793Y113667D01*
X37848Y113720D01*
X37905Y113770D01*
X37965Y113817D01*
X38028Y113860D01*
X38092Y113901D01*
X38158Y113939D01*
X38226Y113973D01*
X38296Y114004D01*
X38367Y114031D01*
X38440Y114055D01*
X38513Y114075D01*
X38587Y114092D01*
X38662Y114105D01*
X38738Y114115D01*
X38814Y114120D01*
X38890Y114122D01*
X38890Y114123D02*
X41374Y114123D01*
X41374Y114122D02*
X41450Y114120D01*
X41526Y114115D01*
X41602Y114105D01*
X41677Y114092D01*
X41751Y114075D01*
X41825Y114055D01*
X41897Y114031D01*
X41968Y114004D01*
X42038Y113973D01*
X42106Y113939D01*
X42172Y113901D01*
X42236Y113860D01*
X42299Y113817D01*
X42359Y113770D01*
X42416Y113720D01*
X42471Y113667D01*
X42524Y113612D01*
X42574Y113555D01*
X42621Y113495D01*
X42664Y113432D01*
X42705Y113368D01*
X42743Y113302D01*
X42777Y113234D01*
X42808Y113164D01*
X42835Y113093D01*
X42859Y113021D01*
X42879Y112947D01*
X42896Y112873D01*
X42909Y112798D01*
X42919Y112722D01*
X42924Y112646D01*
X42926Y112570D01*
X42926Y111018D01*
X41684Y77019D02*
X41754Y77017D01*
X41823Y77011D01*
X41892Y77001D01*
X41960Y76988D01*
X42028Y76970D01*
X42094Y76949D01*
X42159Y76924D01*
X42223Y76896D01*
X42285Y76864D01*
X42345Y76829D01*
X42403Y76790D01*
X42458Y76748D01*
X42512Y76703D01*
X42562Y76655D01*
X42610Y76605D01*
X42655Y76551D01*
X42697Y76496D01*
X42736Y76438D01*
X42771Y76378D01*
X42803Y76316D01*
X42831Y76252D01*
X42856Y76187D01*
X42877Y76121D01*
X42895Y76053D01*
X42908Y75985D01*
X42918Y75916D01*
X42924Y75847D01*
X42926Y75777D01*
X42924Y75678D01*
X42919Y75580D01*
X42909Y75482D01*
X42896Y75384D01*
X42880Y75287D01*
X42860Y75190D01*
X42836Y75095D01*
X42808Y75000D01*
X42777Y74906D01*
X42743Y74814D01*
X42705Y74723D01*
X42664Y74633D01*
X42619Y74545D01*
X42571Y74459D01*
X42520Y74375D01*
X42466Y74293D01*
X42408Y74212D01*
X42348Y74134D01*
X42285Y74059D01*
X42219Y73985D01*
X42150Y73915D01*
X38580Y74069D02*
X38510Y74071D01*
X38441Y74077D01*
X38372Y74087D01*
X38304Y74100D01*
X38236Y74118D01*
X38170Y74139D01*
X38105Y74164D01*
X38041Y74192D01*
X37979Y74224D01*
X37919Y74259D01*
X37861Y74298D01*
X37806Y74340D01*
X37752Y74385D01*
X37702Y74433D01*
X37654Y74483D01*
X37609Y74537D01*
X37567Y74592D01*
X37528Y74650D01*
X37493Y74710D01*
X37461Y74772D01*
X37433Y74836D01*
X37408Y74901D01*
X37387Y74967D01*
X37369Y75035D01*
X37356Y75103D01*
X37346Y75172D01*
X37340Y75241D01*
X37338Y75311D01*
X37340Y75405D01*
X37346Y75498D01*
X37355Y75591D01*
X37368Y75684D01*
X37385Y75776D01*
X37405Y75867D01*
X37430Y75958D01*
X37457Y76047D01*
X37489Y76135D01*
X37524Y76222D01*
X37562Y76308D01*
X37604Y76391D01*
X37649Y76474D01*
X37697Y76554D01*
X37749Y76632D01*
X37804Y76708D01*
X39666Y74690D02*
X39630Y74631D01*
X39590Y74575D01*
X39547Y74521D01*
X39502Y74469D01*
X39453Y74420D01*
X39402Y74374D01*
X39349Y74331D01*
X39293Y74290D01*
X39235Y74253D01*
X39175Y74218D01*
X39114Y74188D01*
X39051Y74160D01*
X38986Y74136D01*
X38920Y74116D01*
X38853Y74099D01*
X38786Y74086D01*
X38718Y74077D01*
X38649Y74071D01*
X38580Y74069D01*
X40598Y76397D02*
X40634Y76456D01*
X40674Y76512D01*
X40717Y76566D01*
X40762Y76618D01*
X40811Y76667D01*
X40862Y76713D01*
X40915Y76756D01*
X40971Y76797D01*
X41029Y76834D01*
X41089Y76869D01*
X41150Y76899D01*
X41213Y76927D01*
X41278Y76951D01*
X41344Y76971D01*
X41411Y76988D01*
X41478Y77001D01*
X41546Y77010D01*
X41615Y77016D01*
X41684Y77018D01*
X40598Y76398D02*
X39666Y74690D01*
X37338Y79018D02*
X42926Y80259D01*
X39201Y81501D01*
X42926Y82743D01*
X37338Y83985D01*
X42926Y87392D02*
X42926Y88634D01*
X42926Y87392D02*
X42924Y87322D01*
X42918Y87253D01*
X42908Y87184D01*
X42895Y87116D01*
X42877Y87048D01*
X42856Y86982D01*
X42831Y86917D01*
X42803Y86853D01*
X42771Y86791D01*
X42736Y86731D01*
X42697Y86673D01*
X42655Y86618D01*
X42610Y86564D01*
X42562Y86514D01*
X42512Y86466D01*
X42458Y86421D01*
X42403Y86379D01*
X42345Y86340D01*
X42285Y86305D01*
X42223Y86273D01*
X42159Y86245D01*
X42094Y86220D01*
X42028Y86199D01*
X41960Y86181D01*
X41892Y86168D01*
X41823Y86158D01*
X41754Y86152D01*
X41684Y86150D01*
X41684Y86151D02*
X38580Y86151D01*
X38580Y86150D02*
X38510Y86152D01*
X38441Y86158D01*
X38372Y86168D01*
X38304Y86181D01*
X38236Y86199D01*
X38170Y86220D01*
X38105Y86245D01*
X38041Y86273D01*
X37979Y86305D01*
X37919Y86340D01*
X37861Y86379D01*
X37806Y86421D01*
X37752Y86466D01*
X37702Y86514D01*
X37654Y86564D01*
X37609Y86618D01*
X37567Y86673D01*
X37528Y86731D01*
X37493Y86791D01*
X37461Y86853D01*
X37433Y86917D01*
X37408Y86982D01*
X37387Y87048D01*
X37369Y87116D01*
X37356Y87184D01*
X37346Y87253D01*
X37340Y87322D01*
X37338Y87392D01*
X37338Y88634D01*
X292354Y32004D02*
X293906Y32004D01*
X293983Y32006D01*
X294061Y32012D01*
X294137Y32021D01*
X294214Y32035D01*
X294289Y32052D01*
X294363Y32073D01*
X294437Y32098D01*
X294509Y32126D01*
X294579Y32158D01*
X294648Y32193D01*
X294715Y32232D01*
X294780Y32274D01*
X294843Y32319D01*
X294904Y32367D01*
X294962Y32418D01*
X295017Y32472D01*
X295070Y32529D01*
X295119Y32588D01*
X295166Y32650D01*
X295210Y32714D01*
X295250Y32780D01*
X295287Y32848D01*
X295321Y32918D01*
X295351Y32989D01*
X295377Y33062D01*
X295400Y33136D01*
X295419Y33211D01*
X295434Y33286D01*
X295446Y33363D01*
X295454Y33440D01*
X295458Y33517D01*
X295458Y33595D01*
X295454Y33672D01*
X295446Y33749D01*
X295434Y33826D01*
X295419Y33901D01*
X295400Y33976D01*
X295377Y34050D01*
X295351Y34123D01*
X295321Y34194D01*
X295287Y34264D01*
X295250Y34332D01*
X295210Y34398D01*
X295166Y34462D01*
X295119Y34524D01*
X295070Y34583D01*
X295017Y34640D01*
X294962Y34694D01*
X294904Y34745D01*
X294843Y34793D01*
X294780Y34838D01*
X294715Y34880D01*
X294648Y34919D01*
X294579Y34954D01*
X294509Y34986D01*
X294437Y35014D01*
X294363Y35039D01*
X294289Y35060D01*
X294214Y35077D01*
X294137Y35091D01*
X294061Y35100D01*
X293983Y35106D01*
X293906Y35108D01*
X294217Y37592D02*
X292354Y37592D01*
X294217Y37592D02*
X294287Y37590D01*
X294356Y37584D01*
X294425Y37574D01*
X294493Y37561D01*
X294561Y37543D01*
X294627Y37522D01*
X294692Y37497D01*
X294756Y37469D01*
X294818Y37437D01*
X294878Y37402D01*
X294936Y37363D01*
X294991Y37321D01*
X295045Y37276D01*
X295095Y37228D01*
X295143Y37178D01*
X295188Y37124D01*
X295230Y37069D01*
X295269Y37011D01*
X295304Y36951D01*
X295336Y36889D01*
X295364Y36825D01*
X295389Y36760D01*
X295410Y36694D01*
X295428Y36626D01*
X295441Y36558D01*
X295451Y36489D01*
X295457Y36420D01*
X295459Y36350D01*
X295457Y36280D01*
X295451Y36211D01*
X295441Y36142D01*
X295428Y36074D01*
X295410Y36006D01*
X295389Y35940D01*
X295364Y35875D01*
X295336Y35811D01*
X295304Y35749D01*
X295269Y35689D01*
X295230Y35631D01*
X295188Y35576D01*
X295143Y35522D01*
X295095Y35472D01*
X295045Y35424D01*
X294991Y35379D01*
X294936Y35337D01*
X294878Y35298D01*
X294818Y35263D01*
X294756Y35231D01*
X294692Y35203D01*
X294627Y35178D01*
X294561Y35157D01*
X294493Y35139D01*
X294425Y35126D01*
X294356Y35116D01*
X294287Y35110D01*
X294217Y35108D01*
X292975Y35108D01*
X297530Y37592D02*
X299393Y32004D01*
X301255Y37592D01*
X303327Y32004D02*
X304879Y32004D01*
X304956Y32006D01*
X305034Y32012D01*
X305110Y32021D01*
X305187Y32035D01*
X305262Y32052D01*
X305336Y32073D01*
X305410Y32098D01*
X305482Y32126D01*
X305552Y32158D01*
X305621Y32193D01*
X305688Y32232D01*
X305753Y32274D01*
X305816Y32319D01*
X305877Y32367D01*
X305935Y32418D01*
X305990Y32472D01*
X306043Y32529D01*
X306092Y32588D01*
X306139Y32650D01*
X306183Y32714D01*
X306223Y32780D01*
X306260Y32848D01*
X306294Y32918D01*
X306324Y32989D01*
X306350Y33062D01*
X306373Y33136D01*
X306392Y33211D01*
X306407Y33286D01*
X306419Y33363D01*
X306427Y33440D01*
X306431Y33517D01*
X306431Y33595D01*
X306427Y33672D01*
X306419Y33749D01*
X306407Y33826D01*
X306392Y33901D01*
X306373Y33976D01*
X306350Y34050D01*
X306324Y34123D01*
X306294Y34194D01*
X306260Y34264D01*
X306223Y34332D01*
X306183Y34398D01*
X306139Y34462D01*
X306092Y34524D01*
X306043Y34583D01*
X305990Y34640D01*
X305935Y34694D01*
X305877Y34745D01*
X305816Y34793D01*
X305753Y34838D01*
X305688Y34880D01*
X305621Y34919D01*
X305552Y34954D01*
X305482Y34986D01*
X305410Y35014D01*
X305336Y35039D01*
X305262Y35060D01*
X305187Y35077D01*
X305110Y35091D01*
X305034Y35100D01*
X304956Y35106D01*
X304879Y35108D01*
X305189Y37592D02*
X303327Y37592D01*
X305189Y37592D02*
X305259Y37590D01*
X305328Y37584D01*
X305397Y37574D01*
X305465Y37561D01*
X305533Y37543D01*
X305599Y37522D01*
X305664Y37497D01*
X305728Y37469D01*
X305790Y37437D01*
X305850Y37402D01*
X305908Y37363D01*
X305963Y37321D01*
X306017Y37276D01*
X306067Y37228D01*
X306115Y37178D01*
X306160Y37124D01*
X306202Y37069D01*
X306241Y37011D01*
X306276Y36951D01*
X306308Y36889D01*
X306336Y36825D01*
X306361Y36760D01*
X306382Y36694D01*
X306400Y36626D01*
X306413Y36558D01*
X306423Y36489D01*
X306429Y36420D01*
X306431Y36350D01*
X306429Y36280D01*
X306423Y36211D01*
X306413Y36142D01*
X306400Y36074D01*
X306382Y36006D01*
X306361Y35940D01*
X306336Y35875D01*
X306308Y35811D01*
X306276Y35749D01*
X306241Y35689D01*
X306202Y35631D01*
X306160Y35576D01*
X306115Y35522D01*
X306067Y35472D01*
X306017Y35424D01*
X305963Y35379D01*
X305908Y35337D01*
X305850Y35298D01*
X305790Y35263D01*
X305728Y35231D01*
X305664Y35203D01*
X305599Y35178D01*
X305533Y35157D01*
X305465Y35139D01*
X305397Y35126D01*
X305328Y35116D01*
X305259Y35110D01*
X305189Y35108D01*
X303948Y35108D01*
X315214Y37592D02*
X317077Y32004D01*
X318939Y37592D01*
X321277Y35108D02*
X322829Y35108D01*
X322906Y35106D01*
X322984Y35100D01*
X323060Y35091D01*
X323137Y35077D01*
X323212Y35060D01*
X323286Y35039D01*
X323360Y35014D01*
X323432Y34986D01*
X323502Y34954D01*
X323571Y34919D01*
X323638Y34880D01*
X323703Y34838D01*
X323766Y34793D01*
X323827Y34745D01*
X323885Y34694D01*
X323940Y34640D01*
X323993Y34583D01*
X324042Y34524D01*
X324089Y34462D01*
X324133Y34398D01*
X324173Y34332D01*
X324210Y34264D01*
X324244Y34194D01*
X324274Y34123D01*
X324300Y34050D01*
X324323Y33976D01*
X324342Y33901D01*
X324357Y33826D01*
X324369Y33749D01*
X324377Y33672D01*
X324381Y33595D01*
X324381Y33517D01*
X324377Y33440D01*
X324369Y33363D01*
X324357Y33286D01*
X324342Y33211D01*
X324323Y33136D01*
X324300Y33062D01*
X324274Y32989D01*
X324244Y32918D01*
X324210Y32848D01*
X324173Y32780D01*
X324133Y32714D01*
X324089Y32650D01*
X324042Y32588D01*
X323993Y32529D01*
X323940Y32472D01*
X323885Y32418D01*
X323827Y32367D01*
X323766Y32319D01*
X323703Y32274D01*
X323638Y32232D01*
X323571Y32193D01*
X323502Y32158D01*
X323432Y32126D01*
X323360Y32098D01*
X323286Y32073D01*
X323212Y32052D01*
X323137Y32035D01*
X323060Y32021D01*
X322984Y32012D01*
X322906Y32006D01*
X322829Y32004D01*
X321277Y32004D01*
X321277Y37592D01*
X322829Y37592D01*
X322899Y37590D01*
X322968Y37584D01*
X323037Y37574D01*
X323105Y37561D01*
X323173Y37543D01*
X323239Y37522D01*
X323304Y37497D01*
X323368Y37469D01*
X323430Y37437D01*
X323490Y37402D01*
X323548Y37363D01*
X323603Y37321D01*
X323657Y37276D01*
X323707Y37228D01*
X323755Y37178D01*
X323800Y37124D01*
X323842Y37069D01*
X323881Y37011D01*
X323916Y36951D01*
X323948Y36889D01*
X323976Y36825D01*
X324001Y36760D01*
X324022Y36694D01*
X324040Y36626D01*
X324053Y36558D01*
X324063Y36489D01*
X324069Y36420D01*
X324071Y36350D01*
X324069Y36280D01*
X324063Y36211D01*
X324053Y36142D01*
X324040Y36074D01*
X324022Y36006D01*
X324001Y35940D01*
X323976Y35875D01*
X323948Y35811D01*
X323916Y35749D01*
X323881Y35689D01*
X323842Y35631D01*
X323800Y35576D01*
X323755Y35522D01*
X323707Y35472D01*
X323657Y35424D01*
X323603Y35379D01*
X323548Y35337D01*
X323490Y35298D01*
X323430Y35263D01*
X323368Y35231D01*
X323304Y35203D01*
X323239Y35178D01*
X323173Y35157D01*
X323105Y35139D01*
X323037Y35126D01*
X322968Y35116D01*
X322899Y35110D01*
X322829Y35108D01*
X326680Y33556D02*
X326680Y37592D01*
X326680Y33556D02*
X326682Y33479D01*
X326688Y33401D01*
X326697Y33325D01*
X326711Y33248D01*
X326728Y33173D01*
X326749Y33099D01*
X326774Y33025D01*
X326802Y32953D01*
X326834Y32883D01*
X326869Y32814D01*
X326908Y32747D01*
X326950Y32682D01*
X326995Y32619D01*
X327043Y32558D01*
X327094Y32500D01*
X327148Y32445D01*
X327205Y32392D01*
X327264Y32343D01*
X327326Y32296D01*
X327390Y32252D01*
X327456Y32212D01*
X327524Y32175D01*
X327594Y32141D01*
X327665Y32111D01*
X327738Y32085D01*
X327812Y32062D01*
X327887Y32043D01*
X327962Y32028D01*
X328039Y32016D01*
X328116Y32008D01*
X328193Y32004D01*
X328271Y32004D01*
X328348Y32008D01*
X328425Y32016D01*
X328502Y32028D01*
X328577Y32043D01*
X328652Y32062D01*
X328726Y32085D01*
X328799Y32111D01*
X328870Y32141D01*
X328940Y32175D01*
X329008Y32212D01*
X329074Y32252D01*
X329138Y32296D01*
X329200Y32343D01*
X329259Y32392D01*
X329316Y32445D01*
X329370Y32500D01*
X329421Y32558D01*
X329469Y32619D01*
X329514Y32682D01*
X329556Y32747D01*
X329595Y32814D01*
X329630Y32883D01*
X329662Y32953D01*
X329690Y33025D01*
X329715Y33099D01*
X329736Y33173D01*
X329753Y33248D01*
X329767Y33325D01*
X329776Y33401D01*
X329782Y33479D01*
X329784Y33556D01*
X329784Y37592D01*
X335271Y33246D02*
X335269Y33176D01*
X335263Y33107D01*
X335253Y33038D01*
X335240Y32970D01*
X335222Y32902D01*
X335201Y32836D01*
X335176Y32771D01*
X335148Y32707D01*
X335116Y32645D01*
X335081Y32585D01*
X335042Y32527D01*
X335000Y32472D01*
X334955Y32418D01*
X334907Y32368D01*
X334857Y32320D01*
X334803Y32275D01*
X334748Y32233D01*
X334690Y32194D01*
X334630Y32159D01*
X334568Y32127D01*
X334504Y32099D01*
X334439Y32074D01*
X334373Y32053D01*
X334305Y32035D01*
X334237Y32022D01*
X334168Y32012D01*
X334099Y32006D01*
X334029Y32004D01*
X333930Y32006D01*
X333832Y32011D01*
X333734Y32021D01*
X333636Y32034D01*
X333539Y32050D01*
X333442Y32070D01*
X333347Y32094D01*
X333252Y32122D01*
X333158Y32153D01*
X333066Y32187D01*
X332975Y32225D01*
X332885Y32266D01*
X332797Y32311D01*
X332711Y32359D01*
X332627Y32410D01*
X332545Y32464D01*
X332464Y32522D01*
X332386Y32582D01*
X332311Y32645D01*
X332237Y32711D01*
X332167Y32780D01*
X332321Y36350D02*
X332323Y36420D01*
X332329Y36489D01*
X332339Y36558D01*
X332352Y36626D01*
X332370Y36694D01*
X332391Y36760D01*
X332416Y36825D01*
X332444Y36889D01*
X332476Y36951D01*
X332511Y37011D01*
X332550Y37069D01*
X332592Y37124D01*
X332637Y37178D01*
X332685Y37228D01*
X332735Y37276D01*
X332789Y37321D01*
X332844Y37363D01*
X332902Y37402D01*
X332962Y37437D01*
X333024Y37469D01*
X333088Y37497D01*
X333153Y37522D01*
X333219Y37543D01*
X333287Y37561D01*
X333355Y37574D01*
X333424Y37584D01*
X333493Y37590D01*
X333563Y37592D01*
X333657Y37590D01*
X333750Y37584D01*
X333843Y37575D01*
X333936Y37562D01*
X334028Y37545D01*
X334119Y37525D01*
X334210Y37500D01*
X334299Y37473D01*
X334387Y37441D01*
X334474Y37406D01*
X334560Y37368D01*
X334643Y37326D01*
X334725Y37281D01*
X334806Y37233D01*
X334884Y37181D01*
X334960Y37126D01*
X332943Y35264D02*
X332884Y35300D01*
X332828Y35340D01*
X332774Y35383D01*
X332722Y35428D01*
X332673Y35477D01*
X332627Y35528D01*
X332584Y35581D01*
X332543Y35637D01*
X332506Y35695D01*
X332471Y35755D01*
X332441Y35816D01*
X332413Y35879D01*
X332389Y35944D01*
X332369Y36010D01*
X332352Y36077D01*
X332339Y36144D01*
X332330Y36212D01*
X332324Y36281D01*
X332322Y36350D01*
X334650Y34332D02*
X334709Y34296D01*
X334765Y34256D01*
X334819Y34213D01*
X334871Y34168D01*
X334920Y34119D01*
X334966Y34068D01*
X335009Y34015D01*
X335050Y33959D01*
X335087Y33901D01*
X335122Y33841D01*
X335152Y33780D01*
X335180Y33717D01*
X335204Y33652D01*
X335224Y33586D01*
X335241Y33519D01*
X335254Y33452D01*
X335263Y33384D01*
X335269Y33315D01*
X335271Y33246D01*
X334650Y34332D02*
X332943Y35264D01*
X103586Y64074D02*
X97998Y64074D01*
X97998Y65626D01*
X98000Y65703D01*
X98006Y65781D01*
X98015Y65857D01*
X98029Y65934D01*
X98046Y66009D01*
X98067Y66083D01*
X98092Y66157D01*
X98120Y66229D01*
X98152Y66299D01*
X98187Y66368D01*
X98226Y66435D01*
X98268Y66500D01*
X98313Y66563D01*
X98361Y66624D01*
X98412Y66682D01*
X98466Y66737D01*
X98523Y66790D01*
X98582Y66839D01*
X98644Y66886D01*
X98708Y66930D01*
X98774Y66970D01*
X98842Y67007D01*
X98912Y67041D01*
X98983Y67071D01*
X99056Y67097D01*
X99130Y67120D01*
X99205Y67139D01*
X99280Y67154D01*
X99357Y67166D01*
X99434Y67174D01*
X99511Y67178D01*
X99589Y67178D01*
X99666Y67174D01*
X99743Y67166D01*
X99820Y67154D01*
X99895Y67139D01*
X99970Y67120D01*
X100044Y67097D01*
X100117Y67071D01*
X100188Y67041D01*
X100258Y67007D01*
X100326Y66970D01*
X100392Y66930D01*
X100456Y66886D01*
X100518Y66839D01*
X100577Y66790D01*
X100634Y66737D01*
X100688Y66682D01*
X100739Y66624D01*
X100787Y66563D01*
X100832Y66500D01*
X100874Y66435D01*
X100913Y66368D01*
X100948Y66299D01*
X100980Y66229D01*
X101008Y66157D01*
X101033Y66083D01*
X101054Y66009D01*
X101071Y65934D01*
X101085Y65857D01*
X101094Y65781D01*
X101100Y65703D01*
X101102Y65626D01*
X101102Y64074D01*
X101102Y65937D02*
X103586Y67178D01*
X103586Y69718D02*
X103586Y72202D01*
X103586Y69718D02*
X97998Y69718D01*
X97998Y72202D01*
X100482Y71581D02*
X100482Y69718D01*
X103586Y75959D02*
X103584Y76029D01*
X103578Y76098D01*
X103568Y76167D01*
X103555Y76235D01*
X103537Y76303D01*
X103516Y76369D01*
X103491Y76434D01*
X103463Y76498D01*
X103431Y76560D01*
X103396Y76620D01*
X103357Y76678D01*
X103315Y76733D01*
X103270Y76787D01*
X103222Y76837D01*
X103172Y76885D01*
X103118Y76930D01*
X103063Y76972D01*
X103005Y77011D01*
X102945Y77046D01*
X102883Y77078D01*
X102819Y77106D01*
X102754Y77131D01*
X102688Y77152D01*
X102620Y77170D01*
X102552Y77183D01*
X102483Y77193D01*
X102414Y77199D01*
X102344Y77201D01*
X103586Y75959D02*
X103584Y75860D01*
X103579Y75762D01*
X103569Y75664D01*
X103556Y75566D01*
X103540Y75469D01*
X103520Y75372D01*
X103496Y75277D01*
X103468Y75182D01*
X103437Y75088D01*
X103403Y74996D01*
X103365Y74905D01*
X103324Y74815D01*
X103279Y74727D01*
X103231Y74641D01*
X103180Y74557D01*
X103126Y74475D01*
X103068Y74394D01*
X103008Y74316D01*
X102945Y74241D01*
X102879Y74167D01*
X102810Y74097D01*
X99240Y74251D02*
X99170Y74253D01*
X99101Y74259D01*
X99032Y74269D01*
X98964Y74282D01*
X98896Y74300D01*
X98830Y74321D01*
X98765Y74346D01*
X98701Y74374D01*
X98639Y74406D01*
X98579Y74441D01*
X98521Y74480D01*
X98466Y74522D01*
X98412Y74567D01*
X98362Y74615D01*
X98314Y74665D01*
X98269Y74719D01*
X98227Y74774D01*
X98188Y74832D01*
X98153Y74892D01*
X98121Y74954D01*
X98093Y75018D01*
X98068Y75083D01*
X98047Y75149D01*
X98029Y75217D01*
X98016Y75285D01*
X98006Y75354D01*
X98000Y75423D01*
X97998Y75493D01*
X98000Y75587D01*
X98006Y75680D01*
X98015Y75773D01*
X98028Y75866D01*
X98045Y75958D01*
X98065Y76049D01*
X98090Y76140D01*
X98117Y76229D01*
X98149Y76317D01*
X98184Y76404D01*
X98222Y76490D01*
X98264Y76573D01*
X98309Y76656D01*
X98357Y76736D01*
X98409Y76814D01*
X98464Y76890D01*
X100326Y74873D02*
X100290Y74814D01*
X100250Y74758D01*
X100207Y74704D01*
X100162Y74652D01*
X100113Y74603D01*
X100062Y74557D01*
X100009Y74514D01*
X99953Y74473D01*
X99895Y74436D01*
X99835Y74401D01*
X99774Y74371D01*
X99711Y74343D01*
X99646Y74319D01*
X99580Y74299D01*
X99513Y74282D01*
X99446Y74269D01*
X99378Y74260D01*
X99309Y74254D01*
X99240Y74252D01*
X101258Y76579D02*
X101294Y76638D01*
X101334Y76694D01*
X101377Y76748D01*
X101422Y76800D01*
X101471Y76849D01*
X101522Y76895D01*
X101575Y76938D01*
X101631Y76979D01*
X101689Y77016D01*
X101749Y77051D01*
X101810Y77081D01*
X101873Y77109D01*
X101938Y77133D01*
X102004Y77153D01*
X102071Y77170D01*
X102138Y77183D01*
X102206Y77192D01*
X102275Y77198D01*
X102344Y77200D01*
X101258Y76580D02*
X100326Y74872D01*
X103586Y79594D02*
X103586Y82077D01*
X103586Y79594D02*
X97998Y79594D01*
X97998Y82077D01*
X100482Y81456D02*
X100482Y79594D01*
X97998Y85341D02*
X103586Y85341D01*
X97998Y83789D02*
X97998Y86893D01*
D11*
X312420Y22860D02*
X312420Y10160D01*
D10*
X308098Y150918D02*
X307167Y150918D01*
X308098Y150918D02*
X308098Y147814D01*
X306236Y147814D01*
X306166Y147816D01*
X306097Y147822D01*
X306028Y147832D01*
X305960Y147845D01*
X305892Y147863D01*
X305826Y147884D01*
X305761Y147909D01*
X305697Y147937D01*
X305635Y147969D01*
X305575Y148004D01*
X305517Y148043D01*
X305462Y148085D01*
X305408Y148130D01*
X305358Y148178D01*
X305310Y148228D01*
X305265Y148282D01*
X305223Y148337D01*
X305184Y148395D01*
X305149Y148455D01*
X305117Y148517D01*
X305089Y148581D01*
X305064Y148646D01*
X305043Y148712D01*
X305025Y148780D01*
X305012Y148848D01*
X305002Y148917D01*
X304996Y148986D01*
X304994Y149056D01*
X304994Y152160D01*
X304996Y152230D01*
X305002Y152299D01*
X305012Y152368D01*
X305025Y152436D01*
X305043Y152504D01*
X305064Y152570D01*
X305089Y152635D01*
X305117Y152699D01*
X305149Y152761D01*
X305184Y152821D01*
X305223Y152879D01*
X305265Y152934D01*
X305310Y152988D01*
X305358Y153038D01*
X305408Y153086D01*
X305462Y153131D01*
X305517Y153173D01*
X305575Y153212D01*
X305635Y153247D01*
X305697Y153279D01*
X305761Y153307D01*
X305826Y153332D01*
X305892Y153353D01*
X305960Y153371D01*
X306028Y153384D01*
X306097Y153394D01*
X306166Y153400D01*
X306236Y153402D01*
X308098Y153402D01*
X310846Y153402D02*
X310846Y147814D01*
X313951Y147814D02*
X310846Y153402D01*
X313951Y153402D02*
X313951Y147814D01*
X316698Y147814D02*
X316698Y153402D01*
X318250Y153402D01*
X318326Y153400D01*
X318402Y153395D01*
X318478Y153385D01*
X318553Y153372D01*
X318627Y153355D01*
X318701Y153335D01*
X318773Y153311D01*
X318844Y153284D01*
X318914Y153253D01*
X318982Y153219D01*
X319048Y153181D01*
X319112Y153140D01*
X319175Y153097D01*
X319235Y153050D01*
X319292Y153000D01*
X319347Y152947D01*
X319400Y152892D01*
X319450Y152835D01*
X319497Y152775D01*
X319540Y152712D01*
X319581Y152648D01*
X319619Y152582D01*
X319653Y152514D01*
X319684Y152444D01*
X319711Y152373D01*
X319735Y152300D01*
X319755Y152227D01*
X319772Y152153D01*
X319785Y152078D01*
X319795Y152002D01*
X319800Y151926D01*
X319802Y151850D01*
X319803Y151850D02*
X319803Y149366D01*
X319802Y149366D02*
X319800Y149287D01*
X319794Y149209D01*
X319784Y149131D01*
X319770Y149054D01*
X319752Y148977D01*
X319731Y148901D01*
X319705Y148827D01*
X319676Y148754D01*
X319643Y148683D01*
X319607Y148613D01*
X319567Y148545D01*
X319524Y148479D01*
X319477Y148416D01*
X319428Y148355D01*
X319375Y148297D01*
X319319Y148241D01*
X319261Y148188D01*
X319200Y148139D01*
X319137Y148092D01*
X319071Y148049D01*
X319003Y148009D01*
X318934Y147973D01*
X318862Y147940D01*
X318789Y147911D01*
X318715Y147885D01*
X318639Y147864D01*
X318562Y147846D01*
X318485Y147832D01*
X318407Y147822D01*
X318329Y147816D01*
X318250Y147814D01*
X316698Y147814D01*
X429706Y131074D02*
X429706Y129804D01*
X429706Y131074D02*
X429708Y131144D01*
X429714Y131214D01*
X429723Y131283D01*
X429737Y131352D01*
X429754Y131420D01*
X429775Y131486D01*
X429799Y131552D01*
X429827Y131616D01*
X429859Y131678D01*
X429894Y131739D01*
X429932Y131798D01*
X429974Y131854D01*
X430018Y131908D01*
X430066Y131960D01*
X430116Y132008D01*
X430169Y132054D01*
X430224Y132097D01*
X430281Y132137D01*
X430341Y132174D01*
X430403Y132207D01*
X430466Y132237D01*
X430531Y132263D01*
X430597Y132286D01*
X430664Y132305D01*
X430733Y132320D01*
X430802Y132332D01*
X430871Y132340D01*
X430941Y132344D01*
X431011Y132344D01*
X431081Y132340D01*
X431150Y132332D01*
X431219Y132320D01*
X431288Y132305D01*
X431355Y132286D01*
X431421Y132263D01*
X431486Y132237D01*
X431549Y132207D01*
X431611Y132174D01*
X431671Y132137D01*
X431728Y132097D01*
X431783Y132054D01*
X431836Y132008D01*
X431886Y131960D01*
X431934Y131908D01*
X431978Y131854D01*
X432020Y131798D01*
X432058Y131739D01*
X432093Y131678D01*
X432125Y131616D01*
X432153Y131552D01*
X432177Y131486D01*
X432198Y131420D01*
X432215Y131352D01*
X432229Y131283D01*
X432238Y131214D01*
X432244Y131144D01*
X432246Y131074D01*
X432246Y129804D01*
X427674Y129804D01*
X427674Y131074D01*
X427676Y131137D01*
X427682Y131199D01*
X427691Y131261D01*
X427705Y131322D01*
X427722Y131382D01*
X427743Y131441D01*
X427767Y131499D01*
X427795Y131555D01*
X427826Y131609D01*
X427861Y131661D01*
X427898Y131711D01*
X427939Y131758D01*
X427983Y131803D01*
X428029Y131846D01*
X428078Y131885D01*
X428129Y131921D01*
X428182Y131954D01*
X428237Y131983D01*
X428294Y132010D01*
X428352Y132032D01*
X428412Y132051D01*
X428473Y132066D01*
X428534Y132078D01*
X428596Y132086D01*
X428659Y132090D01*
X428721Y132090D01*
X428784Y132086D01*
X428846Y132078D01*
X428907Y132066D01*
X428968Y132051D01*
X429028Y132032D01*
X429086Y132010D01*
X429143Y131983D01*
X429198Y131954D01*
X429251Y131921D01*
X429302Y131885D01*
X429351Y131846D01*
X429397Y131803D01*
X429441Y131758D01*
X429482Y131711D01*
X429519Y131661D01*
X429554Y131609D01*
X429585Y131555D01*
X429613Y131499D01*
X429637Y131441D01*
X429658Y131382D01*
X429675Y131322D01*
X429689Y131261D01*
X429698Y131199D01*
X429704Y131137D01*
X429706Y131074D01*
X427674Y135113D02*
X432246Y135113D01*
X427674Y133843D02*
X427674Y136383D01*
X427674Y138262D02*
X432246Y138262D01*
X432246Y140802D02*
X427674Y138262D01*
X427674Y140802D02*
X432246Y140802D01*
X431865Y142910D02*
X431611Y142910D01*
X431611Y143164D01*
X431865Y143164D01*
X431865Y142910D01*
X429833Y142910D02*
X429579Y142910D01*
X429579Y143164D01*
X429833Y143164D01*
X429833Y142910D01*
X432246Y144866D02*
X427674Y146390D01*
X432246Y147914D01*
X431103Y147533D02*
X431103Y145247D01*
X430976Y149692D02*
X430906Y149694D01*
X430836Y149700D01*
X430767Y149709D01*
X430698Y149723D01*
X430630Y149740D01*
X430564Y149761D01*
X430498Y149785D01*
X430434Y149813D01*
X430372Y149845D01*
X430311Y149880D01*
X430252Y149918D01*
X430196Y149960D01*
X430142Y150004D01*
X430090Y150052D01*
X430042Y150102D01*
X429996Y150155D01*
X429953Y150210D01*
X429913Y150267D01*
X429876Y150327D01*
X429843Y150389D01*
X429813Y150452D01*
X429787Y150517D01*
X429764Y150583D01*
X429745Y150650D01*
X429730Y150719D01*
X429718Y150788D01*
X429710Y150857D01*
X429706Y150927D01*
X429706Y150997D01*
X429710Y151067D01*
X429718Y151136D01*
X429730Y151205D01*
X429745Y151274D01*
X429764Y151341D01*
X429787Y151407D01*
X429813Y151472D01*
X429843Y151535D01*
X429876Y151597D01*
X429913Y151657D01*
X429953Y151714D01*
X429996Y151769D01*
X430042Y151822D01*
X430090Y151872D01*
X430142Y151920D01*
X430196Y151964D01*
X430252Y152006D01*
X430311Y152044D01*
X430372Y152079D01*
X430434Y152111D01*
X430498Y152139D01*
X430564Y152163D01*
X430630Y152184D01*
X430698Y152201D01*
X430767Y152215D01*
X430836Y152224D01*
X430906Y152230D01*
X430976Y152232D01*
X431046Y152230D01*
X431116Y152224D01*
X431185Y152215D01*
X431254Y152201D01*
X431322Y152184D01*
X431388Y152163D01*
X431454Y152139D01*
X431518Y152111D01*
X431580Y152079D01*
X431641Y152044D01*
X431700Y152006D01*
X431756Y151964D01*
X431810Y151920D01*
X431862Y151872D01*
X431910Y151822D01*
X431956Y151769D01*
X431999Y151714D01*
X432039Y151657D01*
X432076Y151597D01*
X432109Y151535D01*
X432139Y151472D01*
X432165Y151407D01*
X432188Y151341D01*
X432207Y151274D01*
X432222Y151205D01*
X432234Y151136D01*
X432242Y151067D01*
X432246Y150997D01*
X432246Y150927D01*
X432242Y150857D01*
X432234Y150788D01*
X432222Y150719D01*
X432207Y150650D01*
X432188Y150583D01*
X432165Y150517D01*
X432139Y150452D01*
X432109Y150389D01*
X432076Y150327D01*
X432039Y150267D01*
X431999Y150210D01*
X431956Y150155D01*
X431910Y150102D01*
X431862Y150052D01*
X431810Y150004D01*
X431756Y149960D01*
X431700Y149918D01*
X431641Y149880D01*
X431580Y149845D01*
X431518Y149813D01*
X431454Y149785D01*
X431388Y149761D01*
X431322Y149740D01*
X431254Y149723D01*
X431185Y149709D01*
X431116Y149700D01*
X431046Y149694D01*
X430976Y149692D01*
X428690Y149946D02*
X428627Y149948D01*
X428565Y149954D01*
X428503Y149963D01*
X428442Y149977D01*
X428382Y149994D01*
X428323Y150015D01*
X428265Y150039D01*
X428209Y150067D01*
X428155Y150098D01*
X428103Y150133D01*
X428053Y150170D01*
X428006Y150211D01*
X427961Y150255D01*
X427918Y150301D01*
X427879Y150350D01*
X427843Y150401D01*
X427810Y150454D01*
X427781Y150509D01*
X427754Y150566D01*
X427732Y150624D01*
X427713Y150684D01*
X427698Y150745D01*
X427686Y150806D01*
X427678Y150868D01*
X427674Y150931D01*
X427674Y150993D01*
X427678Y151056D01*
X427686Y151118D01*
X427698Y151179D01*
X427713Y151240D01*
X427732Y151300D01*
X427754Y151358D01*
X427781Y151415D01*
X427810Y151470D01*
X427843Y151523D01*
X427879Y151574D01*
X427918Y151623D01*
X427961Y151669D01*
X428006Y151713D01*
X428053Y151754D01*
X428103Y151791D01*
X428155Y151826D01*
X428209Y151857D01*
X428265Y151885D01*
X428323Y151909D01*
X428382Y151930D01*
X428442Y151947D01*
X428503Y151961D01*
X428565Y151970D01*
X428627Y151976D01*
X428690Y151978D01*
X428753Y151976D01*
X428815Y151970D01*
X428877Y151961D01*
X428938Y151947D01*
X428998Y151930D01*
X429057Y151909D01*
X429115Y151885D01*
X429171Y151857D01*
X429225Y151826D01*
X429277Y151791D01*
X429327Y151754D01*
X429374Y151713D01*
X429419Y151669D01*
X429462Y151623D01*
X429501Y151574D01*
X429537Y151523D01*
X429570Y151470D01*
X429599Y151415D01*
X429626Y151358D01*
X429648Y151300D01*
X429667Y151240D01*
X429682Y151179D01*
X429694Y151118D01*
X429702Y151056D01*
X429706Y150993D01*
X429706Y150931D01*
X429702Y150868D01*
X429694Y150806D01*
X429682Y150745D01*
X429667Y150684D01*
X429648Y150624D01*
X429626Y150566D01*
X429599Y150509D01*
X429570Y150454D01*
X429537Y150401D01*
X429501Y150350D01*
X429462Y150301D01*
X429419Y150255D01*
X429374Y150211D01*
X429327Y150170D01*
X429277Y150133D01*
X429225Y150098D01*
X429171Y150067D01*
X429115Y150039D01*
X429057Y150015D01*
X428998Y149994D01*
X428938Y149977D01*
X428877Y149963D01*
X428815Y149954D01*
X428753Y149948D01*
X428690Y149946D01*
X42926Y50066D02*
X42926Y48514D01*
X42926Y50066D02*
X42924Y50143D01*
X42918Y50221D01*
X42909Y50297D01*
X42895Y50374D01*
X42878Y50449D01*
X42857Y50523D01*
X42832Y50597D01*
X42804Y50669D01*
X42772Y50739D01*
X42737Y50808D01*
X42698Y50875D01*
X42656Y50940D01*
X42611Y51003D01*
X42563Y51064D01*
X42512Y51122D01*
X42458Y51177D01*
X42401Y51230D01*
X42342Y51279D01*
X42280Y51326D01*
X42216Y51370D01*
X42150Y51410D01*
X42082Y51447D01*
X42012Y51481D01*
X41941Y51511D01*
X41868Y51537D01*
X41794Y51560D01*
X41719Y51579D01*
X41644Y51594D01*
X41567Y51606D01*
X41490Y51614D01*
X41413Y51618D01*
X41335Y51618D01*
X41258Y51614D01*
X41181Y51606D01*
X41104Y51594D01*
X41029Y51579D01*
X40954Y51560D01*
X40880Y51537D01*
X40807Y51511D01*
X40736Y51481D01*
X40666Y51447D01*
X40598Y51410D01*
X40532Y51370D01*
X40468Y51326D01*
X40406Y51279D01*
X40347Y51230D01*
X40290Y51177D01*
X40236Y51122D01*
X40185Y51064D01*
X40137Y51003D01*
X40092Y50940D01*
X40050Y50875D01*
X40011Y50808D01*
X39976Y50739D01*
X39944Y50669D01*
X39916Y50597D01*
X39891Y50523D01*
X39870Y50449D01*
X39853Y50374D01*
X39839Y50297D01*
X39830Y50221D01*
X39824Y50143D01*
X39822Y50066D01*
X37338Y50377D02*
X37338Y48514D01*
X37338Y50377D02*
X37340Y50447D01*
X37346Y50516D01*
X37356Y50585D01*
X37369Y50653D01*
X37387Y50721D01*
X37408Y50787D01*
X37433Y50852D01*
X37461Y50916D01*
X37493Y50978D01*
X37528Y51038D01*
X37567Y51096D01*
X37609Y51151D01*
X37654Y51205D01*
X37702Y51255D01*
X37752Y51303D01*
X37806Y51348D01*
X37861Y51390D01*
X37919Y51429D01*
X37979Y51464D01*
X38041Y51496D01*
X38105Y51524D01*
X38170Y51549D01*
X38236Y51570D01*
X38304Y51588D01*
X38372Y51601D01*
X38441Y51611D01*
X38510Y51617D01*
X38580Y51619D01*
X38650Y51617D01*
X38719Y51611D01*
X38788Y51601D01*
X38856Y51588D01*
X38924Y51570D01*
X38990Y51549D01*
X39055Y51524D01*
X39119Y51496D01*
X39181Y51464D01*
X39241Y51429D01*
X39299Y51390D01*
X39354Y51348D01*
X39408Y51303D01*
X39458Y51255D01*
X39506Y51205D01*
X39551Y51151D01*
X39593Y51096D01*
X39632Y51038D01*
X39667Y50978D01*
X39699Y50916D01*
X39727Y50852D01*
X39752Y50787D01*
X39773Y50721D01*
X39791Y50653D01*
X39804Y50585D01*
X39814Y50516D01*
X39820Y50447D01*
X39822Y50377D01*
X39822Y49135D01*
X37338Y53690D02*
X42926Y55553D01*
X37338Y57415D01*
X42926Y59487D02*
X42926Y61039D01*
X42924Y61116D01*
X42918Y61194D01*
X42909Y61270D01*
X42895Y61347D01*
X42878Y61422D01*
X42857Y61496D01*
X42832Y61570D01*
X42804Y61642D01*
X42772Y61712D01*
X42737Y61781D01*
X42698Y61848D01*
X42656Y61913D01*
X42611Y61976D01*
X42563Y62037D01*
X42512Y62095D01*
X42458Y62150D01*
X42401Y62203D01*
X42342Y62252D01*
X42280Y62299D01*
X42216Y62343D01*
X42150Y62383D01*
X42082Y62420D01*
X42012Y62454D01*
X41941Y62484D01*
X41868Y62510D01*
X41794Y62533D01*
X41719Y62552D01*
X41644Y62567D01*
X41567Y62579D01*
X41490Y62587D01*
X41413Y62591D01*
X41335Y62591D01*
X41258Y62587D01*
X41181Y62579D01*
X41104Y62567D01*
X41029Y62552D01*
X40954Y62533D01*
X40880Y62510D01*
X40807Y62484D01*
X40736Y62454D01*
X40666Y62420D01*
X40598Y62383D01*
X40532Y62343D01*
X40468Y62299D01*
X40406Y62252D01*
X40347Y62203D01*
X40290Y62150D01*
X40236Y62095D01*
X40185Y62037D01*
X40137Y61976D01*
X40092Y61913D01*
X40050Y61848D01*
X40011Y61781D01*
X39976Y61712D01*
X39944Y61642D01*
X39916Y61570D01*
X39891Y61496D01*
X39870Y61422D01*
X39853Y61347D01*
X39839Y61270D01*
X39830Y61194D01*
X39824Y61116D01*
X39822Y61039D01*
X37338Y61349D02*
X37338Y59487D01*
X37338Y61349D02*
X37340Y61419D01*
X37346Y61488D01*
X37356Y61557D01*
X37369Y61625D01*
X37387Y61693D01*
X37408Y61759D01*
X37433Y61824D01*
X37461Y61888D01*
X37493Y61950D01*
X37528Y62010D01*
X37567Y62068D01*
X37609Y62123D01*
X37654Y62177D01*
X37702Y62227D01*
X37752Y62275D01*
X37806Y62320D01*
X37861Y62362D01*
X37919Y62401D01*
X37979Y62436D01*
X38041Y62468D01*
X38105Y62496D01*
X38170Y62521D01*
X38236Y62542D01*
X38304Y62560D01*
X38372Y62573D01*
X38441Y62583D01*
X38510Y62589D01*
X38580Y62591D01*
X38650Y62589D01*
X38719Y62583D01*
X38788Y62573D01*
X38856Y62560D01*
X38924Y62542D01*
X38990Y62521D01*
X39055Y62496D01*
X39119Y62468D01*
X39181Y62436D01*
X39241Y62401D01*
X39299Y62362D01*
X39354Y62320D01*
X39408Y62275D01*
X39458Y62227D01*
X39506Y62177D01*
X39551Y62123D01*
X39593Y62068D01*
X39632Y62010D01*
X39667Y61950D01*
X39699Y61888D01*
X39727Y61824D01*
X39752Y61759D01*
X39773Y61693D01*
X39791Y61625D01*
X39804Y61557D01*
X39814Y61488D01*
X39820Y61419D01*
X39822Y61349D01*
X39822Y60108D01*
X67818Y49107D02*
X72164Y49107D01*
X72234Y49105D01*
X72303Y49099D01*
X72372Y49089D01*
X72440Y49076D01*
X72508Y49058D01*
X72574Y49037D01*
X72639Y49012D01*
X72703Y48984D01*
X72765Y48952D01*
X72825Y48917D01*
X72883Y48878D01*
X72938Y48836D01*
X72992Y48791D01*
X73042Y48743D01*
X73090Y48693D01*
X73135Y48639D01*
X73177Y48584D01*
X73216Y48526D01*
X73251Y48466D01*
X73283Y48404D01*
X73311Y48340D01*
X73336Y48275D01*
X73357Y48209D01*
X73375Y48141D01*
X73388Y48073D01*
X73398Y48004D01*
X73404Y47935D01*
X73406Y47865D01*
X73406Y47244D01*
X73406Y51915D02*
X67818Y51915D01*
X67818Y53467D01*
X67820Y53544D01*
X67826Y53622D01*
X67835Y53698D01*
X67849Y53775D01*
X67866Y53850D01*
X67887Y53924D01*
X67912Y53998D01*
X67940Y54070D01*
X67972Y54140D01*
X68007Y54209D01*
X68046Y54276D01*
X68088Y54341D01*
X68133Y54404D01*
X68181Y54465D01*
X68232Y54523D01*
X68286Y54578D01*
X68343Y54631D01*
X68402Y54680D01*
X68464Y54727D01*
X68528Y54771D01*
X68594Y54811D01*
X68662Y54848D01*
X68732Y54882D01*
X68803Y54912D01*
X68876Y54938D01*
X68950Y54961D01*
X69025Y54980D01*
X69100Y54995D01*
X69177Y55007D01*
X69254Y55015D01*
X69331Y55019D01*
X69409Y55019D01*
X69486Y55015D01*
X69563Y55007D01*
X69640Y54995D01*
X69715Y54980D01*
X69790Y54961D01*
X69864Y54938D01*
X69937Y54912D01*
X70008Y54882D01*
X70078Y54848D01*
X70146Y54811D01*
X70212Y54771D01*
X70276Y54727D01*
X70338Y54680D01*
X70397Y54631D01*
X70454Y54578D01*
X70508Y54523D01*
X70559Y54465D01*
X70607Y54404D01*
X70652Y54341D01*
X70694Y54276D01*
X70733Y54209D01*
X70768Y54140D01*
X70800Y54070D01*
X70828Y53998D01*
X70853Y53924D01*
X70874Y53850D01*
X70891Y53775D01*
X70905Y53698D01*
X70914Y53622D01*
X70920Y53544D01*
X70922Y53467D01*
X70922Y51915D01*
X73406Y57135D02*
X73406Y58687D01*
X73404Y58764D01*
X73398Y58842D01*
X73389Y58918D01*
X73375Y58995D01*
X73358Y59070D01*
X73337Y59144D01*
X73312Y59218D01*
X73284Y59290D01*
X73252Y59360D01*
X73217Y59429D01*
X73178Y59496D01*
X73136Y59561D01*
X73091Y59624D01*
X73043Y59685D01*
X72992Y59743D01*
X72938Y59798D01*
X72881Y59851D01*
X72822Y59900D01*
X72760Y59947D01*
X72696Y59991D01*
X72630Y60031D01*
X72562Y60068D01*
X72492Y60102D01*
X72421Y60132D01*
X72348Y60158D01*
X72274Y60181D01*
X72199Y60200D01*
X72124Y60215D01*
X72047Y60227D01*
X71970Y60235D01*
X71893Y60239D01*
X71815Y60239D01*
X71738Y60235D01*
X71661Y60227D01*
X71584Y60215D01*
X71509Y60200D01*
X71434Y60181D01*
X71360Y60158D01*
X71287Y60132D01*
X71216Y60102D01*
X71146Y60068D01*
X71078Y60031D01*
X71012Y59991D01*
X70948Y59947D01*
X70886Y59900D01*
X70827Y59851D01*
X70770Y59798D01*
X70716Y59743D01*
X70665Y59685D01*
X70617Y59624D01*
X70572Y59561D01*
X70530Y59496D01*
X70491Y59429D01*
X70456Y59360D01*
X70424Y59290D01*
X70396Y59218D01*
X70371Y59144D01*
X70350Y59070D01*
X70333Y58995D01*
X70319Y58918D01*
X70310Y58842D01*
X70304Y58764D01*
X70302Y58687D01*
X67818Y58998D02*
X67818Y57135D01*
X67818Y58998D02*
X67820Y59068D01*
X67826Y59137D01*
X67836Y59206D01*
X67849Y59274D01*
X67867Y59342D01*
X67888Y59408D01*
X67913Y59473D01*
X67941Y59537D01*
X67973Y59599D01*
X68008Y59659D01*
X68047Y59717D01*
X68089Y59772D01*
X68134Y59826D01*
X68182Y59876D01*
X68232Y59924D01*
X68286Y59969D01*
X68341Y60011D01*
X68399Y60050D01*
X68459Y60085D01*
X68521Y60117D01*
X68585Y60145D01*
X68650Y60170D01*
X68716Y60191D01*
X68784Y60209D01*
X68852Y60222D01*
X68921Y60232D01*
X68990Y60238D01*
X69060Y60240D01*
X69130Y60238D01*
X69199Y60232D01*
X69268Y60222D01*
X69336Y60209D01*
X69404Y60191D01*
X69470Y60170D01*
X69535Y60145D01*
X69599Y60117D01*
X69661Y60085D01*
X69721Y60050D01*
X69779Y60011D01*
X69834Y59969D01*
X69888Y59924D01*
X69938Y59876D01*
X69986Y59826D01*
X70031Y59772D01*
X70073Y59717D01*
X70112Y59659D01*
X70147Y59599D01*
X70179Y59537D01*
X70207Y59473D01*
X70232Y59408D01*
X70253Y59342D01*
X70271Y59274D01*
X70284Y59206D01*
X70294Y59137D01*
X70300Y59068D01*
X70302Y58998D01*
X70302Y57756D01*
X265684Y50546D02*
X265684Y45974D01*
X267716Y45974D01*
X269646Y45974D02*
X271678Y45974D01*
X269646Y45974D02*
X269646Y50546D01*
X271678Y50546D01*
X271170Y48514D02*
X269646Y48514D01*
X273599Y50546D02*
X273599Y45974D01*
X273599Y50546D02*
X274869Y50546D01*
X274938Y50544D01*
X275006Y50539D01*
X275074Y50529D01*
X275142Y50516D01*
X275209Y50500D01*
X275275Y50480D01*
X275339Y50456D01*
X275402Y50429D01*
X275464Y50398D01*
X275524Y50364D01*
X275582Y50327D01*
X275638Y50287D01*
X275691Y50244D01*
X275742Y50198D01*
X275791Y50149D01*
X275837Y50098D01*
X275880Y50045D01*
X275920Y49989D01*
X275957Y49931D01*
X275991Y49871D01*
X276022Y49809D01*
X276049Y49746D01*
X276073Y49682D01*
X276093Y49616D01*
X276109Y49549D01*
X276122Y49481D01*
X276132Y49413D01*
X276137Y49345D01*
X276139Y49276D01*
X276139Y47244D01*
X276137Y47175D01*
X276132Y47107D01*
X276122Y47039D01*
X276109Y46971D01*
X276093Y46904D01*
X276073Y46838D01*
X276049Y46774D01*
X276022Y46711D01*
X275991Y46649D01*
X275957Y46589D01*
X275920Y46531D01*
X275880Y46475D01*
X275837Y46422D01*
X275791Y46371D01*
X275742Y46322D01*
X275691Y46276D01*
X275638Y46233D01*
X275582Y46193D01*
X275524Y46156D01*
X275464Y46122D01*
X275402Y46091D01*
X275339Y46064D01*
X275275Y46040D01*
X275209Y46020D01*
X275142Y46004D01*
X275074Y45991D01*
X275006Y45981D01*
X274938Y45976D01*
X274869Y45974D01*
X273599Y45974D01*
X278247Y46355D02*
X278247Y46609D01*
X278501Y46609D01*
X278501Y46355D01*
X278247Y46355D01*
X278247Y48387D02*
X278247Y48641D01*
X278501Y48641D01*
X278501Y48387D01*
X278247Y48387D01*
X280685Y48514D02*
X281955Y48514D01*
X282025Y48512D01*
X282095Y48506D01*
X282164Y48497D01*
X282233Y48483D01*
X282301Y48466D01*
X282367Y48445D01*
X282433Y48421D01*
X282497Y48393D01*
X282559Y48361D01*
X282620Y48326D01*
X282679Y48288D01*
X282735Y48246D01*
X282789Y48202D01*
X282841Y48154D01*
X282889Y48104D01*
X282935Y48051D01*
X282978Y47996D01*
X283018Y47939D01*
X283055Y47879D01*
X283088Y47817D01*
X283118Y47754D01*
X283144Y47689D01*
X283167Y47623D01*
X283186Y47556D01*
X283201Y47487D01*
X283213Y47418D01*
X283221Y47349D01*
X283225Y47279D01*
X283225Y47209D01*
X283221Y47139D01*
X283213Y47070D01*
X283201Y47001D01*
X283186Y46932D01*
X283167Y46865D01*
X283144Y46799D01*
X283118Y46734D01*
X283088Y46671D01*
X283055Y46609D01*
X283018Y46549D01*
X282978Y46492D01*
X282935Y46437D01*
X282889Y46384D01*
X282841Y46334D01*
X282789Y46286D01*
X282735Y46242D01*
X282679Y46200D01*
X282620Y46162D01*
X282559Y46127D01*
X282497Y46095D01*
X282433Y46067D01*
X282367Y46043D01*
X282301Y46022D01*
X282233Y46005D01*
X282164Y45991D01*
X282095Y45982D01*
X282025Y45976D01*
X281955Y45974D01*
X280685Y45974D01*
X280685Y50546D01*
X281955Y50546D01*
X282018Y50544D01*
X282080Y50538D01*
X282142Y50529D01*
X282203Y50515D01*
X282263Y50498D01*
X282322Y50477D01*
X282380Y50453D01*
X282436Y50425D01*
X282490Y50394D01*
X282542Y50359D01*
X282592Y50322D01*
X282639Y50281D01*
X282684Y50237D01*
X282727Y50191D01*
X282766Y50142D01*
X282802Y50091D01*
X282835Y50038D01*
X282864Y49983D01*
X282891Y49926D01*
X282913Y49868D01*
X282932Y49808D01*
X282947Y49747D01*
X282959Y49686D01*
X282967Y49624D01*
X282971Y49561D01*
X282971Y49499D01*
X282967Y49436D01*
X282959Y49374D01*
X282947Y49313D01*
X282932Y49252D01*
X282913Y49192D01*
X282891Y49134D01*
X282864Y49077D01*
X282835Y49022D01*
X282802Y48969D01*
X282766Y48918D01*
X282727Y48869D01*
X282684Y48823D01*
X282639Y48779D01*
X282592Y48738D01*
X282542Y48701D01*
X282490Y48666D01*
X282436Y48635D01*
X282380Y48607D01*
X282322Y48583D01*
X282263Y48562D01*
X282203Y48545D01*
X282142Y48531D01*
X282080Y48522D01*
X282018Y48516D01*
X281955Y48514D01*
X285028Y45974D02*
X286552Y45974D01*
X286613Y45976D01*
X286674Y45981D01*
X286735Y45991D01*
X286795Y46004D01*
X286854Y46020D01*
X286912Y46040D01*
X286969Y46064D01*
X287024Y46090D01*
X287078Y46121D01*
X287129Y46154D01*
X287179Y46190D01*
X287226Y46230D01*
X287270Y46272D01*
X287312Y46316D01*
X287352Y46363D01*
X287388Y46413D01*
X287421Y46464D01*
X287452Y46518D01*
X287478Y46573D01*
X287502Y46630D01*
X287522Y46688D01*
X287538Y46747D01*
X287551Y46807D01*
X287561Y46868D01*
X287566Y46929D01*
X287568Y46990D01*
X287568Y47498D01*
X287566Y47559D01*
X287561Y47620D01*
X287551Y47681D01*
X287538Y47741D01*
X287522Y47800D01*
X287502Y47858D01*
X287478Y47915D01*
X287452Y47970D01*
X287421Y48024D01*
X287388Y48075D01*
X287352Y48125D01*
X287312Y48172D01*
X287270Y48216D01*
X287226Y48258D01*
X287179Y48298D01*
X287129Y48334D01*
X287078Y48367D01*
X287024Y48398D01*
X286969Y48424D01*
X286912Y48448D01*
X286854Y48468D01*
X286795Y48484D01*
X286735Y48497D01*
X286674Y48507D01*
X286613Y48512D01*
X286552Y48514D01*
X285028Y48514D01*
X285028Y50546D01*
X287568Y50546D01*
X400058Y25084D02*
X401328Y25084D01*
X401398Y25086D01*
X401468Y25092D01*
X401537Y25101D01*
X401606Y25115D01*
X401674Y25132D01*
X401740Y25153D01*
X401806Y25177D01*
X401870Y25205D01*
X401932Y25237D01*
X401993Y25272D01*
X402052Y25310D01*
X402108Y25352D01*
X402162Y25396D01*
X402214Y25444D01*
X402262Y25494D01*
X402308Y25547D01*
X402351Y25602D01*
X402391Y25659D01*
X402428Y25719D01*
X402461Y25781D01*
X402491Y25844D01*
X402517Y25909D01*
X402540Y25975D01*
X402559Y26042D01*
X402574Y26111D01*
X402586Y26180D01*
X402594Y26249D01*
X402598Y26319D01*
X402598Y26389D01*
X402594Y26459D01*
X402586Y26528D01*
X402574Y26597D01*
X402559Y26666D01*
X402540Y26733D01*
X402517Y26799D01*
X402491Y26864D01*
X402461Y26927D01*
X402428Y26989D01*
X402391Y27049D01*
X402351Y27106D01*
X402308Y27161D01*
X402262Y27214D01*
X402214Y27264D01*
X402162Y27312D01*
X402108Y27356D01*
X402052Y27398D01*
X401993Y27436D01*
X401932Y27471D01*
X401870Y27503D01*
X401806Y27531D01*
X401740Y27555D01*
X401674Y27576D01*
X401606Y27593D01*
X401537Y27607D01*
X401468Y27616D01*
X401398Y27622D01*
X401328Y27624D01*
X401582Y29656D02*
X400058Y29656D01*
X401582Y29656D02*
X401645Y29654D01*
X401707Y29648D01*
X401769Y29639D01*
X401830Y29625D01*
X401890Y29608D01*
X401949Y29587D01*
X402007Y29563D01*
X402063Y29535D01*
X402117Y29504D01*
X402169Y29469D01*
X402219Y29432D01*
X402266Y29391D01*
X402311Y29347D01*
X402354Y29301D01*
X402393Y29252D01*
X402429Y29201D01*
X402462Y29148D01*
X402491Y29093D01*
X402518Y29036D01*
X402540Y28978D01*
X402559Y28918D01*
X402574Y28857D01*
X402586Y28796D01*
X402594Y28734D01*
X402598Y28671D01*
X402598Y28609D01*
X402594Y28546D01*
X402586Y28484D01*
X402574Y28423D01*
X402559Y28362D01*
X402540Y28302D01*
X402518Y28244D01*
X402491Y28187D01*
X402462Y28132D01*
X402429Y28079D01*
X402393Y28028D01*
X402354Y27979D01*
X402311Y27933D01*
X402266Y27889D01*
X402219Y27848D01*
X402169Y27811D01*
X402117Y27776D01*
X402063Y27745D01*
X402007Y27717D01*
X401949Y27693D01*
X401890Y27672D01*
X401830Y27655D01*
X401769Y27641D01*
X401707Y27632D01*
X401645Y27626D01*
X401582Y27624D01*
X400566Y27624D01*
X404376Y29656D02*
X405900Y25084D01*
X407424Y29656D01*
X409202Y25084D02*
X410472Y25084D01*
X410542Y25086D01*
X410612Y25092D01*
X410681Y25101D01*
X410750Y25115D01*
X410818Y25132D01*
X410884Y25153D01*
X410950Y25177D01*
X411014Y25205D01*
X411076Y25237D01*
X411137Y25272D01*
X411196Y25310D01*
X411252Y25352D01*
X411306Y25396D01*
X411358Y25444D01*
X411406Y25494D01*
X411452Y25547D01*
X411495Y25602D01*
X411535Y25659D01*
X411572Y25719D01*
X411605Y25781D01*
X411635Y25844D01*
X411661Y25909D01*
X411684Y25975D01*
X411703Y26042D01*
X411718Y26111D01*
X411730Y26180D01*
X411738Y26249D01*
X411742Y26319D01*
X411742Y26389D01*
X411738Y26459D01*
X411730Y26528D01*
X411718Y26597D01*
X411703Y26666D01*
X411684Y26733D01*
X411661Y26799D01*
X411635Y26864D01*
X411605Y26927D01*
X411572Y26989D01*
X411535Y27049D01*
X411495Y27106D01*
X411452Y27161D01*
X411406Y27214D01*
X411358Y27264D01*
X411306Y27312D01*
X411252Y27356D01*
X411196Y27398D01*
X411137Y27436D01*
X411076Y27471D01*
X411014Y27503D01*
X410950Y27531D01*
X410884Y27555D01*
X410818Y27576D01*
X410750Y27593D01*
X410681Y27607D01*
X410612Y27616D01*
X410542Y27622D01*
X410472Y27624D01*
X410726Y29656D02*
X409202Y29656D01*
X410726Y29656D02*
X410789Y29654D01*
X410851Y29648D01*
X410913Y29639D01*
X410974Y29625D01*
X411034Y29608D01*
X411093Y29587D01*
X411151Y29563D01*
X411207Y29535D01*
X411261Y29504D01*
X411313Y29469D01*
X411363Y29432D01*
X411410Y29391D01*
X411455Y29347D01*
X411498Y29301D01*
X411537Y29252D01*
X411573Y29201D01*
X411606Y29148D01*
X411635Y29093D01*
X411662Y29036D01*
X411684Y28978D01*
X411703Y28918D01*
X411718Y28857D01*
X411730Y28796D01*
X411738Y28734D01*
X411742Y28671D01*
X411742Y28609D01*
X411738Y28546D01*
X411730Y28484D01*
X411718Y28423D01*
X411703Y28362D01*
X411684Y28302D01*
X411662Y28244D01*
X411635Y28187D01*
X411606Y28132D01*
X411573Y28079D01*
X411537Y28028D01*
X411498Y27979D01*
X411455Y27933D01*
X411410Y27889D01*
X411363Y27848D01*
X411313Y27811D01*
X411261Y27776D01*
X411207Y27745D01*
X411151Y27717D01*
X411093Y27693D01*
X411034Y27672D01*
X410974Y27655D01*
X410913Y27641D01*
X410851Y27632D01*
X410789Y27626D01*
X410726Y27624D01*
X409710Y27624D01*
X413698Y25719D02*
X413698Y25465D01*
X413698Y25719D02*
X413952Y25719D01*
X413952Y25465D01*
X413698Y25465D01*
X413698Y27497D02*
X413698Y27751D01*
X413952Y27751D01*
X413952Y27497D01*
X413698Y27497D01*
X416136Y29656D02*
X416136Y25084D01*
X416136Y29656D02*
X417406Y29656D01*
X417476Y29654D01*
X417546Y29648D01*
X417615Y29639D01*
X417684Y29625D01*
X417752Y29608D01*
X417818Y29587D01*
X417884Y29563D01*
X417948Y29535D01*
X418010Y29503D01*
X418071Y29468D01*
X418130Y29430D01*
X418186Y29388D01*
X418240Y29344D01*
X418292Y29296D01*
X418340Y29246D01*
X418386Y29193D01*
X418429Y29138D01*
X418469Y29081D01*
X418506Y29021D01*
X418539Y28959D01*
X418569Y28896D01*
X418595Y28831D01*
X418618Y28765D01*
X418637Y28698D01*
X418652Y28629D01*
X418664Y28560D01*
X418672Y28491D01*
X418676Y28421D01*
X418676Y28351D01*
X418672Y28281D01*
X418664Y28212D01*
X418652Y28143D01*
X418637Y28074D01*
X418618Y28007D01*
X418595Y27941D01*
X418569Y27876D01*
X418539Y27813D01*
X418506Y27751D01*
X418469Y27691D01*
X418429Y27634D01*
X418386Y27579D01*
X418340Y27526D01*
X418292Y27476D01*
X418240Y27428D01*
X418186Y27384D01*
X418130Y27342D01*
X418071Y27304D01*
X418010Y27269D01*
X417948Y27237D01*
X417884Y27209D01*
X417818Y27185D01*
X417752Y27164D01*
X417684Y27147D01*
X417615Y27133D01*
X417546Y27124D01*
X417476Y27118D01*
X417406Y27116D01*
X416136Y27116D01*
X420327Y29656D02*
X421343Y25084D01*
X422359Y28132D01*
X423375Y25084D01*
X424391Y29656D01*
X426456Y29656D02*
X426456Y25084D01*
X426456Y29656D02*
X427726Y29656D01*
X427796Y29654D01*
X427866Y29648D01*
X427935Y29639D01*
X428004Y29625D01*
X428072Y29608D01*
X428138Y29587D01*
X428204Y29563D01*
X428268Y29535D01*
X428330Y29503D01*
X428391Y29468D01*
X428450Y29430D01*
X428506Y29388D01*
X428560Y29344D01*
X428612Y29296D01*
X428660Y29246D01*
X428706Y29193D01*
X428749Y29138D01*
X428789Y29081D01*
X428826Y29021D01*
X428859Y28959D01*
X428889Y28896D01*
X428915Y28831D01*
X428938Y28765D01*
X428957Y28698D01*
X428972Y28629D01*
X428984Y28560D01*
X428992Y28491D01*
X428996Y28421D01*
X428996Y28351D01*
X428992Y28281D01*
X428984Y28212D01*
X428972Y28143D01*
X428957Y28074D01*
X428938Y28007D01*
X428915Y27941D01*
X428889Y27876D01*
X428859Y27813D01*
X428826Y27751D01*
X428789Y27691D01*
X428749Y27634D01*
X428706Y27579D01*
X428660Y27526D01*
X428612Y27476D01*
X428560Y27428D01*
X428506Y27384D01*
X428450Y27342D01*
X428391Y27304D01*
X428330Y27269D01*
X428268Y27237D01*
X428204Y27209D01*
X428138Y27185D01*
X428072Y27164D01*
X428004Y27147D01*
X427935Y27133D01*
X427866Y27124D01*
X427796Y27118D01*
X427726Y27116D01*
X426456Y27116D01*
X427980Y27116D02*
X428996Y25084D01*
D12*
X114300Y82550D02*
X114300Y85090D01*
X114300Y86360D01*
X114300Y87630D02*
X114300Y88900D01*
X120650Y82550D01*
X119380Y82550D01*
X114300Y87630D01*
X114300Y86360D01*
X118110Y82550D01*
X116840Y82550D01*
X115570Y83820D01*
X114300Y85090D01*
X115570Y83820D02*
X115570Y82550D01*
D10*
X16058Y35108D02*
X15127Y35108D01*
X16058Y35108D02*
X16058Y32004D01*
X14196Y32004D01*
X14126Y32006D01*
X14057Y32012D01*
X13988Y32022D01*
X13920Y32035D01*
X13852Y32053D01*
X13786Y32074D01*
X13721Y32099D01*
X13657Y32127D01*
X13595Y32159D01*
X13535Y32194D01*
X13477Y32233D01*
X13422Y32275D01*
X13368Y32320D01*
X13318Y32368D01*
X13270Y32418D01*
X13225Y32472D01*
X13183Y32527D01*
X13144Y32585D01*
X13109Y32645D01*
X13077Y32707D01*
X13049Y32771D01*
X13024Y32836D01*
X13003Y32902D01*
X12985Y32970D01*
X12972Y33038D01*
X12962Y33107D01*
X12956Y33176D01*
X12954Y33246D01*
X12954Y36350D01*
X12956Y36420D01*
X12962Y36489D01*
X12972Y36558D01*
X12985Y36626D01*
X13003Y36694D01*
X13024Y36760D01*
X13049Y36825D01*
X13077Y36889D01*
X13109Y36951D01*
X13144Y37011D01*
X13183Y37069D01*
X13225Y37124D01*
X13270Y37178D01*
X13318Y37228D01*
X13368Y37276D01*
X13422Y37321D01*
X13477Y37363D01*
X13535Y37402D01*
X13595Y37437D01*
X13657Y37469D01*
X13721Y37497D01*
X13786Y37522D01*
X13852Y37543D01*
X13920Y37561D01*
X13988Y37574D01*
X14057Y37584D01*
X14126Y37590D01*
X14196Y37592D01*
X16058Y37592D01*
X18806Y37592D02*
X18806Y32004D01*
X21911Y32004D02*
X18806Y37592D01*
X21911Y37592D02*
X21911Y32004D01*
X24658Y32004D02*
X24658Y37592D01*
X26210Y37592D01*
X26286Y37590D01*
X26362Y37585D01*
X26438Y37575D01*
X26513Y37562D01*
X26587Y37545D01*
X26661Y37525D01*
X26733Y37501D01*
X26804Y37474D01*
X26874Y37443D01*
X26942Y37409D01*
X27008Y37371D01*
X27072Y37330D01*
X27135Y37287D01*
X27195Y37240D01*
X27252Y37190D01*
X27307Y37137D01*
X27360Y37082D01*
X27410Y37025D01*
X27457Y36965D01*
X27500Y36902D01*
X27541Y36838D01*
X27579Y36772D01*
X27613Y36704D01*
X27644Y36634D01*
X27671Y36563D01*
X27695Y36490D01*
X27715Y36417D01*
X27732Y36343D01*
X27745Y36268D01*
X27755Y36192D01*
X27760Y36116D01*
X27762Y36040D01*
X27763Y36040D02*
X27763Y33556D01*
X27762Y33556D02*
X27760Y33477D01*
X27754Y33399D01*
X27744Y33321D01*
X27730Y33244D01*
X27712Y33167D01*
X27691Y33091D01*
X27665Y33017D01*
X27636Y32944D01*
X27603Y32873D01*
X27567Y32803D01*
X27527Y32735D01*
X27484Y32669D01*
X27437Y32606D01*
X27388Y32545D01*
X27335Y32487D01*
X27279Y32431D01*
X27221Y32378D01*
X27160Y32329D01*
X27097Y32282D01*
X27031Y32239D01*
X26963Y32199D01*
X26894Y32163D01*
X26822Y32130D01*
X26749Y32101D01*
X26675Y32075D01*
X26599Y32054D01*
X26522Y32036D01*
X26445Y32022D01*
X26367Y32012D01*
X26289Y32006D01*
X26210Y32004D01*
X24658Y32004D01*
X14446Y147814D02*
X12894Y147814D01*
X14446Y147814D02*
X14523Y147816D01*
X14601Y147822D01*
X14677Y147831D01*
X14754Y147845D01*
X14829Y147862D01*
X14903Y147883D01*
X14977Y147908D01*
X15049Y147936D01*
X15119Y147968D01*
X15188Y148003D01*
X15255Y148042D01*
X15320Y148084D01*
X15383Y148129D01*
X15444Y148177D01*
X15502Y148228D01*
X15557Y148282D01*
X15610Y148339D01*
X15659Y148398D01*
X15706Y148460D01*
X15750Y148524D01*
X15790Y148590D01*
X15827Y148658D01*
X15861Y148728D01*
X15891Y148799D01*
X15917Y148872D01*
X15940Y148946D01*
X15959Y149021D01*
X15974Y149096D01*
X15986Y149173D01*
X15994Y149250D01*
X15998Y149327D01*
X15998Y149405D01*
X15994Y149482D01*
X15986Y149559D01*
X15974Y149636D01*
X15959Y149711D01*
X15940Y149786D01*
X15917Y149860D01*
X15891Y149933D01*
X15861Y150004D01*
X15827Y150074D01*
X15790Y150142D01*
X15750Y150208D01*
X15706Y150272D01*
X15659Y150334D01*
X15610Y150393D01*
X15557Y150450D01*
X15502Y150504D01*
X15444Y150555D01*
X15383Y150603D01*
X15320Y150648D01*
X15255Y150690D01*
X15188Y150729D01*
X15119Y150764D01*
X15049Y150796D01*
X14977Y150824D01*
X14903Y150849D01*
X14829Y150870D01*
X14754Y150887D01*
X14677Y150901D01*
X14601Y150910D01*
X14523Y150916D01*
X14446Y150918D01*
X14757Y153402D02*
X12894Y153402D01*
X14757Y153402D02*
X14827Y153400D01*
X14896Y153394D01*
X14965Y153384D01*
X15033Y153371D01*
X15101Y153353D01*
X15167Y153332D01*
X15232Y153307D01*
X15296Y153279D01*
X15358Y153247D01*
X15418Y153212D01*
X15476Y153173D01*
X15531Y153131D01*
X15585Y153086D01*
X15635Y153038D01*
X15683Y152988D01*
X15728Y152934D01*
X15770Y152879D01*
X15809Y152821D01*
X15844Y152761D01*
X15876Y152699D01*
X15904Y152635D01*
X15929Y152570D01*
X15950Y152504D01*
X15968Y152436D01*
X15981Y152368D01*
X15991Y152299D01*
X15997Y152230D01*
X15999Y152160D01*
X15997Y152090D01*
X15991Y152021D01*
X15981Y151952D01*
X15968Y151884D01*
X15950Y151816D01*
X15929Y151750D01*
X15904Y151685D01*
X15876Y151621D01*
X15844Y151559D01*
X15809Y151499D01*
X15770Y151441D01*
X15728Y151386D01*
X15683Y151332D01*
X15635Y151282D01*
X15585Y151234D01*
X15531Y151189D01*
X15476Y151147D01*
X15418Y151108D01*
X15358Y151073D01*
X15296Y151041D01*
X15232Y151013D01*
X15167Y150988D01*
X15101Y150967D01*
X15033Y150949D01*
X14965Y150936D01*
X14896Y150926D01*
X14827Y150920D01*
X14757Y150918D01*
X13515Y150918D01*
X18070Y153402D02*
X19933Y147814D01*
X21795Y153402D01*
X23867Y147814D02*
X25419Y147814D01*
X25496Y147816D01*
X25574Y147822D01*
X25650Y147831D01*
X25727Y147845D01*
X25802Y147862D01*
X25876Y147883D01*
X25950Y147908D01*
X26022Y147936D01*
X26092Y147968D01*
X26161Y148003D01*
X26228Y148042D01*
X26293Y148084D01*
X26356Y148129D01*
X26417Y148177D01*
X26475Y148228D01*
X26530Y148282D01*
X26583Y148339D01*
X26632Y148398D01*
X26679Y148460D01*
X26723Y148524D01*
X26763Y148590D01*
X26800Y148658D01*
X26834Y148728D01*
X26864Y148799D01*
X26890Y148872D01*
X26913Y148946D01*
X26932Y149021D01*
X26947Y149096D01*
X26959Y149173D01*
X26967Y149250D01*
X26971Y149327D01*
X26971Y149405D01*
X26967Y149482D01*
X26959Y149559D01*
X26947Y149636D01*
X26932Y149711D01*
X26913Y149786D01*
X26890Y149860D01*
X26864Y149933D01*
X26834Y150004D01*
X26800Y150074D01*
X26763Y150142D01*
X26723Y150208D01*
X26679Y150272D01*
X26632Y150334D01*
X26583Y150393D01*
X26530Y150450D01*
X26475Y150504D01*
X26417Y150555D01*
X26356Y150603D01*
X26293Y150648D01*
X26228Y150690D01*
X26161Y150729D01*
X26092Y150764D01*
X26022Y150796D01*
X25950Y150824D01*
X25876Y150849D01*
X25802Y150870D01*
X25727Y150887D01*
X25650Y150901D01*
X25574Y150910D01*
X25496Y150916D01*
X25419Y150918D01*
X25729Y153402D02*
X23867Y153402D01*
X25729Y153402D02*
X25799Y153400D01*
X25868Y153394D01*
X25937Y153384D01*
X26005Y153371D01*
X26073Y153353D01*
X26139Y153332D01*
X26204Y153307D01*
X26268Y153279D01*
X26330Y153247D01*
X26390Y153212D01*
X26448Y153173D01*
X26503Y153131D01*
X26557Y153086D01*
X26607Y153038D01*
X26655Y152988D01*
X26700Y152934D01*
X26742Y152879D01*
X26781Y152821D01*
X26816Y152761D01*
X26848Y152699D01*
X26876Y152635D01*
X26901Y152570D01*
X26922Y152504D01*
X26940Y152436D01*
X26953Y152368D01*
X26963Y152299D01*
X26969Y152230D01*
X26971Y152160D01*
X26969Y152090D01*
X26963Y152021D01*
X26953Y151952D01*
X26940Y151884D01*
X26922Y151816D01*
X26901Y151750D01*
X26876Y151685D01*
X26848Y151621D01*
X26816Y151559D01*
X26781Y151499D01*
X26742Y151441D01*
X26700Y151386D01*
X26655Y151332D01*
X26607Y151282D01*
X26557Y151234D01*
X26503Y151189D01*
X26448Y151147D01*
X26390Y151108D01*
X26330Y151073D01*
X26268Y151041D01*
X26204Y151013D01*
X26139Y150988D01*
X26073Y150967D01*
X26005Y150949D01*
X25937Y150936D01*
X25868Y150926D01*
X25799Y150920D01*
X25729Y150918D01*
X24488Y150918D01*
D11*
X58700Y66480D02*
X58702Y66382D01*
X58708Y66284D01*
X58717Y66186D01*
X58731Y66089D01*
X58748Y65992D01*
X58769Y65896D01*
X58794Y65801D01*
X58822Y65707D01*
X58855Y65615D01*
X58890Y65523D01*
X58930Y65433D01*
X58972Y65345D01*
X59019Y65258D01*
X59068Y65174D01*
X59121Y65091D01*
X59177Y65011D01*
X59237Y64932D01*
X59299Y64856D01*
X59364Y64783D01*
X59432Y64712D01*
X59503Y64644D01*
X59576Y64579D01*
X59652Y64517D01*
X59731Y64457D01*
X59811Y64401D01*
X59894Y64348D01*
X59978Y64299D01*
X60065Y64252D01*
X60153Y64210D01*
X60243Y64170D01*
X60335Y64135D01*
X60427Y64102D01*
X60521Y64074D01*
X60616Y64049D01*
X60712Y64028D01*
X60809Y64011D01*
X60906Y63997D01*
X61004Y63988D01*
X61102Y63982D01*
X61200Y63980D01*
X58700Y66480D02*
X58700Y121480D01*
X58702Y121578D01*
X58708Y121676D01*
X58717Y121774D01*
X58731Y121871D01*
X58748Y121968D01*
X58769Y122064D01*
X58794Y122159D01*
X58822Y122253D01*
X58855Y122345D01*
X58890Y122437D01*
X58930Y122527D01*
X58972Y122615D01*
X59019Y122702D01*
X59068Y122786D01*
X59121Y122869D01*
X59177Y122949D01*
X59237Y123028D01*
X59299Y123104D01*
X59364Y123177D01*
X59432Y123248D01*
X59503Y123316D01*
X59576Y123381D01*
X59652Y123443D01*
X59731Y123503D01*
X59811Y123559D01*
X59894Y123612D01*
X59978Y123661D01*
X60065Y123708D01*
X60153Y123750D01*
X60243Y123790D01*
X60335Y123825D01*
X60427Y123858D01*
X60521Y123886D01*
X60616Y123911D01*
X60712Y123932D01*
X60809Y123949D01*
X60906Y123963D01*
X61004Y123972D01*
X61102Y123978D01*
X61200Y123980D01*
X91200Y123980D02*
X91298Y123978D01*
X91396Y123972D01*
X91494Y123963D01*
X91591Y123949D01*
X91688Y123932D01*
X91784Y123911D01*
X91879Y123886D01*
X91973Y123858D01*
X92065Y123825D01*
X92157Y123790D01*
X92247Y123750D01*
X92335Y123708D01*
X92422Y123661D01*
X92506Y123612D01*
X92589Y123559D01*
X92669Y123503D01*
X92748Y123443D01*
X92824Y123381D01*
X92897Y123316D01*
X92968Y123248D01*
X93036Y123177D01*
X93101Y123104D01*
X93163Y123028D01*
X93223Y122949D01*
X93279Y122869D01*
X93332Y122786D01*
X93381Y122702D01*
X93428Y122615D01*
X93470Y122527D01*
X93510Y122437D01*
X93545Y122345D01*
X93578Y122253D01*
X93606Y122159D01*
X93631Y122064D01*
X93652Y121968D01*
X93669Y121871D01*
X93683Y121774D01*
X93692Y121676D01*
X93698Y121578D01*
X93700Y121480D01*
X93700Y66480D01*
X93698Y66382D01*
X93692Y66284D01*
X93683Y66186D01*
X93669Y66089D01*
X93652Y65992D01*
X93631Y65896D01*
X93606Y65801D01*
X93578Y65707D01*
X93545Y65615D01*
X93510Y65523D01*
X93470Y65433D01*
X93428Y65345D01*
X93381Y65258D01*
X93332Y65174D01*
X93279Y65091D01*
X93223Y65011D01*
X93163Y64932D01*
X93101Y64856D01*
X93036Y64783D01*
X92968Y64712D01*
X92897Y64644D01*
X92824Y64579D01*
X92748Y64517D01*
X92669Y64457D01*
X92589Y64401D01*
X92506Y64348D01*
X92422Y64299D01*
X92335Y64252D01*
X92247Y64210D01*
X92157Y64170D01*
X92065Y64135D01*
X91973Y64102D01*
X91879Y64074D01*
X91784Y64049D01*
X91688Y64028D01*
X91591Y64011D01*
X91494Y63997D01*
X91396Y63988D01*
X91298Y63982D01*
X91200Y63980D01*
X87200Y63980D01*
X65200Y63980D02*
X61200Y63980D01*
X61200Y123980D02*
X65200Y123980D01*
X87200Y123980D02*
X91200Y123980D01*
X68700Y108980D02*
X68700Y78980D01*
X83700Y78980D02*
X83700Y108980D01*
X83700Y78980D02*
X68700Y78980D01*
X68700Y108980D02*
X83700Y108980D01*
D13*
X413710Y13740D02*
X415460Y15490D01*
X413710Y13740D02*
X412210Y15240D01*
X413960Y16990D01*
X415460Y15490D01*
D14*
X416460Y11240D03*
D11*
X392410Y49630D02*
X371410Y49630D01*
X346410Y56630D02*
X346410Y65630D01*
X346410Y109630D02*
X346410Y118630D01*
X371410Y125630D02*
X392410Y125630D01*
D12*
X318690Y108311D02*
X268690Y108311D01*
X268690Y76311D01*
X318690Y76311D01*
X318690Y108311D01*
X312690Y102311D02*
X312692Y102374D01*
X312698Y102436D01*
X312708Y102498D01*
X312721Y102560D01*
X312739Y102620D01*
X312760Y102679D01*
X312785Y102737D01*
X312814Y102793D01*
X312846Y102847D01*
X312881Y102899D01*
X312919Y102948D01*
X312961Y102996D01*
X313005Y103040D01*
X313053Y103082D01*
X313102Y103120D01*
X313154Y103155D01*
X313208Y103187D01*
X313264Y103216D01*
X313322Y103241D01*
X313381Y103262D01*
X313441Y103280D01*
X313503Y103293D01*
X313565Y103303D01*
X313627Y103309D01*
X313690Y103311D01*
X313753Y103309D01*
X313815Y103303D01*
X313877Y103293D01*
X313939Y103280D01*
X313999Y103262D01*
X314058Y103241D01*
X314116Y103216D01*
X314172Y103187D01*
X314226Y103155D01*
X314278Y103120D01*
X314327Y103082D01*
X314375Y103040D01*
X314419Y102996D01*
X314461Y102948D01*
X314499Y102899D01*
X314534Y102847D01*
X314566Y102793D01*
X314595Y102737D01*
X314620Y102679D01*
X314641Y102620D01*
X314659Y102560D01*
X314672Y102498D01*
X314682Y102436D01*
X314688Y102374D01*
X314690Y102311D01*
X314688Y102248D01*
X314682Y102186D01*
X314672Y102124D01*
X314659Y102062D01*
X314641Y102002D01*
X314620Y101943D01*
X314595Y101885D01*
X314566Y101829D01*
X314534Y101775D01*
X314499Y101723D01*
X314461Y101674D01*
X314419Y101626D01*
X314375Y101582D01*
X314327Y101540D01*
X314278Y101502D01*
X314226Y101467D01*
X314172Y101435D01*
X314116Y101406D01*
X314058Y101381D01*
X313999Y101360D01*
X313939Y101342D01*
X313877Y101329D01*
X313815Y101319D01*
X313753Y101313D01*
X313690Y101311D01*
X313627Y101313D01*
X313565Y101319D01*
X313503Y101329D01*
X313441Y101342D01*
X313381Y101360D01*
X313322Y101381D01*
X313264Y101406D01*
X313208Y101435D01*
X313154Y101467D01*
X313102Y101502D01*
X313053Y101540D01*
X313005Y101582D01*
X312961Y101626D01*
X312919Y101674D01*
X312881Y101723D01*
X312846Y101775D01*
X312814Y101829D01*
X312785Y101885D01*
X312760Y101943D01*
X312739Y102002D01*
X312721Y102062D01*
X312708Y102124D01*
X312698Y102186D01*
X312692Y102248D01*
X312690Y102311D01*
D15*
X211836Y129540D02*
X194564Y129540D01*
X192024Y111760D02*
X192026Y111660D01*
X192032Y111561D01*
X192042Y111461D01*
X192055Y111363D01*
X192073Y111264D01*
X192094Y111167D01*
X192119Y111071D01*
X192148Y110975D01*
X192181Y110881D01*
X192217Y110788D01*
X192257Y110697D01*
X192301Y110607D01*
X192348Y110519D01*
X192398Y110433D01*
X192452Y110349D01*
X192509Y110267D01*
X192569Y110188D01*
X192633Y110110D01*
X192699Y110036D01*
X192768Y109964D01*
X192840Y109895D01*
X192914Y109829D01*
X192992Y109765D01*
X193071Y109705D01*
X193153Y109648D01*
X193237Y109594D01*
X193323Y109544D01*
X193411Y109497D01*
X193501Y109453D01*
X193592Y109413D01*
X193685Y109377D01*
X193779Y109344D01*
X193875Y109315D01*
X193971Y109290D01*
X194068Y109269D01*
X194167Y109251D01*
X194265Y109238D01*
X194365Y109228D01*
X194464Y109222D01*
X194564Y109220D01*
X211836Y109220D02*
X211936Y109222D01*
X212035Y109228D01*
X212135Y109238D01*
X212233Y109251D01*
X212332Y109269D01*
X212429Y109290D01*
X212525Y109315D01*
X212621Y109344D01*
X212715Y109377D01*
X212808Y109413D01*
X212899Y109453D01*
X212989Y109497D01*
X213077Y109544D01*
X213163Y109594D01*
X213247Y109648D01*
X213329Y109705D01*
X213408Y109765D01*
X213486Y109829D01*
X213560Y109895D01*
X213632Y109964D01*
X213701Y110036D01*
X213767Y110110D01*
X213831Y110188D01*
X213891Y110267D01*
X213948Y110349D01*
X214002Y110433D01*
X214052Y110519D01*
X214099Y110607D01*
X214143Y110697D01*
X214183Y110788D01*
X214219Y110881D01*
X214252Y110975D01*
X214281Y111071D01*
X214306Y111167D01*
X214327Y111264D01*
X214345Y111363D01*
X214358Y111461D01*
X214368Y111561D01*
X214374Y111660D01*
X214376Y111760D01*
X214376Y127000D02*
X214374Y127100D01*
X214368Y127199D01*
X214358Y127299D01*
X214345Y127397D01*
X214327Y127496D01*
X214306Y127593D01*
X214281Y127689D01*
X214252Y127785D01*
X214219Y127879D01*
X214183Y127972D01*
X214143Y128063D01*
X214099Y128153D01*
X214052Y128241D01*
X214002Y128327D01*
X213948Y128411D01*
X213891Y128493D01*
X213831Y128572D01*
X213767Y128650D01*
X213701Y128724D01*
X213632Y128796D01*
X213560Y128865D01*
X213486Y128931D01*
X213408Y128995D01*
X213329Y129055D01*
X213247Y129112D01*
X213163Y129166D01*
X213077Y129216D01*
X212989Y129263D01*
X212899Y129307D01*
X212808Y129347D01*
X212715Y129383D01*
X212621Y129416D01*
X212525Y129445D01*
X212429Y129470D01*
X212332Y129491D01*
X212233Y129509D01*
X212135Y129522D01*
X212035Y129532D01*
X211936Y129538D01*
X211836Y129540D01*
X194564Y129540D02*
X194464Y129538D01*
X194365Y129532D01*
X194265Y129522D01*
X194167Y129509D01*
X194068Y129491D01*
X193971Y129470D01*
X193875Y129445D01*
X193779Y129416D01*
X193685Y129383D01*
X193592Y129347D01*
X193501Y129307D01*
X193411Y129263D01*
X193323Y129216D01*
X193237Y129166D01*
X193153Y129112D01*
X193071Y129055D01*
X192992Y128995D01*
X192914Y128931D01*
X192840Y128865D01*
X192768Y128796D01*
X192699Y128724D01*
X192633Y128650D01*
X192569Y128572D01*
X192509Y128493D01*
X192452Y128411D01*
X192398Y128327D01*
X192348Y128241D01*
X192301Y128153D01*
X192257Y128063D01*
X192217Y127972D01*
X192181Y127879D01*
X192148Y127785D01*
X192119Y127689D01*
X192094Y127593D01*
X192073Y127496D01*
X192055Y127397D01*
X192042Y127299D01*
X192032Y127199D01*
X192026Y127100D01*
X192024Y127000D01*
X192024Y111760D01*
X214376Y111760D02*
X214376Y127000D01*
X211836Y109220D02*
X194564Y109220D01*
D10*
X217424Y114745D02*
X221770Y114745D01*
X221840Y114743D01*
X221909Y114737D01*
X221978Y114727D01*
X222046Y114714D01*
X222114Y114696D01*
X222180Y114675D01*
X222245Y114650D01*
X222309Y114622D01*
X222371Y114590D01*
X222431Y114555D01*
X222489Y114516D01*
X222544Y114474D01*
X222598Y114429D01*
X222648Y114381D01*
X222696Y114331D01*
X222741Y114277D01*
X222783Y114222D01*
X222822Y114164D01*
X222857Y114104D01*
X222889Y114042D01*
X222917Y113978D01*
X222942Y113913D01*
X222963Y113847D01*
X222981Y113779D01*
X222994Y113711D01*
X223004Y113642D01*
X223010Y113573D01*
X223012Y113503D01*
X223012Y112882D01*
X223012Y117553D02*
X217424Y117553D01*
X217424Y119105D01*
X217426Y119182D01*
X217432Y119260D01*
X217441Y119336D01*
X217455Y119413D01*
X217472Y119488D01*
X217493Y119562D01*
X217518Y119636D01*
X217546Y119708D01*
X217578Y119778D01*
X217613Y119847D01*
X217652Y119914D01*
X217694Y119979D01*
X217739Y120042D01*
X217787Y120103D01*
X217838Y120161D01*
X217892Y120216D01*
X217949Y120269D01*
X218008Y120318D01*
X218070Y120365D01*
X218134Y120409D01*
X218200Y120449D01*
X218268Y120486D01*
X218338Y120520D01*
X218409Y120550D01*
X218482Y120576D01*
X218556Y120599D01*
X218631Y120618D01*
X218706Y120633D01*
X218783Y120645D01*
X218860Y120653D01*
X218937Y120657D01*
X219015Y120657D01*
X219092Y120653D01*
X219169Y120645D01*
X219246Y120633D01*
X219321Y120618D01*
X219396Y120599D01*
X219470Y120576D01*
X219543Y120550D01*
X219614Y120520D01*
X219684Y120486D01*
X219752Y120449D01*
X219818Y120409D01*
X219882Y120365D01*
X219944Y120318D01*
X220003Y120269D01*
X220060Y120216D01*
X220114Y120161D01*
X220165Y120103D01*
X220213Y120042D01*
X220258Y119979D01*
X220300Y119914D01*
X220339Y119847D01*
X220374Y119778D01*
X220406Y119708D01*
X220434Y119636D01*
X220459Y119562D01*
X220480Y119488D01*
X220497Y119413D01*
X220511Y119336D01*
X220520Y119260D01*
X220526Y119182D01*
X220528Y119105D01*
X220528Y117553D01*
X218666Y122773D02*
X217424Y124326D01*
X223012Y124326D01*
X223012Y125878D02*
X223012Y122773D01*
D15*
X211836Y101600D02*
X194564Y101600D01*
X192024Y83820D02*
X192026Y83720D01*
X192032Y83621D01*
X192042Y83521D01*
X192055Y83423D01*
X192073Y83324D01*
X192094Y83227D01*
X192119Y83131D01*
X192148Y83035D01*
X192181Y82941D01*
X192217Y82848D01*
X192257Y82757D01*
X192301Y82667D01*
X192348Y82579D01*
X192398Y82493D01*
X192452Y82409D01*
X192509Y82327D01*
X192569Y82248D01*
X192633Y82170D01*
X192699Y82096D01*
X192768Y82024D01*
X192840Y81955D01*
X192914Y81889D01*
X192992Y81825D01*
X193071Y81765D01*
X193153Y81708D01*
X193237Y81654D01*
X193323Y81604D01*
X193411Y81557D01*
X193501Y81513D01*
X193592Y81473D01*
X193685Y81437D01*
X193779Y81404D01*
X193875Y81375D01*
X193971Y81350D01*
X194068Y81329D01*
X194167Y81311D01*
X194265Y81298D01*
X194365Y81288D01*
X194464Y81282D01*
X194564Y81280D01*
X211836Y81280D02*
X211936Y81282D01*
X212035Y81288D01*
X212135Y81298D01*
X212233Y81311D01*
X212332Y81329D01*
X212429Y81350D01*
X212525Y81375D01*
X212621Y81404D01*
X212715Y81437D01*
X212808Y81473D01*
X212899Y81513D01*
X212989Y81557D01*
X213077Y81604D01*
X213163Y81654D01*
X213247Y81708D01*
X213329Y81765D01*
X213408Y81825D01*
X213486Y81889D01*
X213560Y81955D01*
X213632Y82024D01*
X213701Y82096D01*
X213767Y82170D01*
X213831Y82248D01*
X213891Y82327D01*
X213948Y82409D01*
X214002Y82493D01*
X214052Y82579D01*
X214099Y82667D01*
X214143Y82757D01*
X214183Y82848D01*
X214219Y82941D01*
X214252Y83035D01*
X214281Y83131D01*
X214306Y83227D01*
X214327Y83324D01*
X214345Y83423D01*
X214358Y83521D01*
X214368Y83621D01*
X214374Y83720D01*
X214376Y83820D01*
X214376Y99060D02*
X214374Y99160D01*
X214368Y99259D01*
X214358Y99359D01*
X214345Y99457D01*
X214327Y99556D01*
X214306Y99653D01*
X214281Y99749D01*
X214252Y99845D01*
X214219Y99939D01*
X214183Y100032D01*
X214143Y100123D01*
X214099Y100213D01*
X214052Y100301D01*
X214002Y100387D01*
X213948Y100471D01*
X213891Y100553D01*
X213831Y100632D01*
X213767Y100710D01*
X213701Y100784D01*
X213632Y100856D01*
X213560Y100925D01*
X213486Y100991D01*
X213408Y101055D01*
X213329Y101115D01*
X213247Y101172D01*
X213163Y101226D01*
X213077Y101276D01*
X212989Y101323D01*
X212899Y101367D01*
X212808Y101407D01*
X212715Y101443D01*
X212621Y101476D01*
X212525Y101505D01*
X212429Y101530D01*
X212332Y101551D01*
X212233Y101569D01*
X212135Y101582D01*
X212035Y101592D01*
X211936Y101598D01*
X211836Y101600D01*
X194564Y101600D02*
X194464Y101598D01*
X194365Y101592D01*
X194265Y101582D01*
X194167Y101569D01*
X194068Y101551D01*
X193971Y101530D01*
X193875Y101505D01*
X193779Y101476D01*
X193685Y101443D01*
X193592Y101407D01*
X193501Y101367D01*
X193411Y101323D01*
X193323Y101276D01*
X193237Y101226D01*
X193153Y101172D01*
X193071Y101115D01*
X192992Y101055D01*
X192914Y100991D01*
X192840Y100925D01*
X192768Y100856D01*
X192699Y100784D01*
X192633Y100710D01*
X192569Y100632D01*
X192509Y100553D01*
X192452Y100471D01*
X192398Y100387D01*
X192348Y100301D01*
X192301Y100213D01*
X192257Y100123D01*
X192217Y100032D01*
X192181Y99939D01*
X192148Y99845D01*
X192119Y99749D01*
X192094Y99653D01*
X192073Y99556D01*
X192055Y99457D01*
X192042Y99359D01*
X192032Y99259D01*
X192026Y99160D01*
X192024Y99060D01*
X192024Y83820D01*
X214376Y83820D02*
X214376Y99060D01*
X211836Y81280D02*
X194564Y81280D01*
D10*
X217424Y86805D02*
X221770Y86805D01*
X221840Y86803D01*
X221909Y86797D01*
X221978Y86787D01*
X222046Y86774D01*
X222114Y86756D01*
X222180Y86735D01*
X222245Y86710D01*
X222309Y86682D01*
X222371Y86650D01*
X222431Y86615D01*
X222489Y86576D01*
X222544Y86534D01*
X222598Y86489D01*
X222648Y86441D01*
X222696Y86391D01*
X222741Y86337D01*
X222783Y86282D01*
X222822Y86224D01*
X222857Y86164D01*
X222889Y86102D01*
X222917Y86038D01*
X222942Y85973D01*
X222963Y85907D01*
X222981Y85839D01*
X222994Y85771D01*
X223004Y85702D01*
X223010Y85633D01*
X223012Y85563D01*
X223012Y84942D01*
X223012Y89613D02*
X217424Y89613D01*
X217424Y91165D01*
X217426Y91242D01*
X217432Y91320D01*
X217441Y91396D01*
X217455Y91473D01*
X217472Y91548D01*
X217493Y91622D01*
X217518Y91696D01*
X217546Y91768D01*
X217578Y91838D01*
X217613Y91907D01*
X217652Y91974D01*
X217694Y92039D01*
X217739Y92102D01*
X217787Y92163D01*
X217838Y92221D01*
X217892Y92276D01*
X217949Y92329D01*
X218008Y92378D01*
X218070Y92425D01*
X218134Y92469D01*
X218200Y92509D01*
X218268Y92546D01*
X218338Y92580D01*
X218409Y92610D01*
X218482Y92636D01*
X218556Y92659D01*
X218631Y92678D01*
X218706Y92693D01*
X218783Y92705D01*
X218860Y92713D01*
X218937Y92717D01*
X219015Y92717D01*
X219092Y92713D01*
X219169Y92705D01*
X219246Y92693D01*
X219321Y92678D01*
X219396Y92659D01*
X219470Y92636D01*
X219543Y92610D01*
X219614Y92580D01*
X219684Y92546D01*
X219752Y92509D01*
X219818Y92469D01*
X219882Y92425D01*
X219944Y92378D01*
X220003Y92329D01*
X220060Y92276D01*
X220114Y92221D01*
X220165Y92163D01*
X220213Y92102D01*
X220258Y92039D01*
X220300Y91974D01*
X220339Y91907D01*
X220374Y91838D01*
X220406Y91768D01*
X220434Y91696D01*
X220459Y91622D01*
X220480Y91548D01*
X220497Y91473D01*
X220511Y91396D01*
X220520Y91320D01*
X220526Y91242D01*
X220528Y91165D01*
X220528Y89613D01*
X217424Y96541D02*
X217426Y96614D01*
X217432Y96687D01*
X217441Y96760D01*
X217455Y96831D01*
X217472Y96903D01*
X217492Y96973D01*
X217517Y97042D01*
X217545Y97109D01*
X217576Y97175D01*
X217611Y97240D01*
X217649Y97302D01*
X217691Y97362D01*
X217735Y97420D01*
X217783Y97476D01*
X217833Y97529D01*
X217886Y97579D01*
X217942Y97627D01*
X218000Y97671D01*
X218060Y97713D01*
X218123Y97751D01*
X218187Y97786D01*
X218253Y97817D01*
X218320Y97845D01*
X218389Y97870D01*
X218459Y97890D01*
X218531Y97907D01*
X218602Y97921D01*
X218675Y97930D01*
X218748Y97936D01*
X218821Y97938D01*
X217424Y96541D02*
X217426Y96457D01*
X217432Y96374D01*
X217441Y96291D01*
X217455Y96208D01*
X217472Y96127D01*
X217494Y96046D01*
X217519Y95966D01*
X217547Y95888D01*
X217579Y95810D01*
X217615Y95735D01*
X217654Y95661D01*
X217697Y95589D01*
X217743Y95519D01*
X217792Y95452D01*
X217845Y95386D01*
X217900Y95324D01*
X217958Y95264D01*
X218019Y95206D01*
X218082Y95152D01*
X218148Y95100D01*
X218216Y95052D01*
X218287Y95007D01*
X218359Y94965D01*
X218434Y94927D01*
X218510Y94892D01*
X218587Y94861D01*
X218666Y94833D01*
X219907Y97471D02*
X219854Y97525D01*
X219797Y97576D01*
X219738Y97624D01*
X219677Y97669D01*
X219614Y97710D01*
X219548Y97749D01*
X219481Y97784D01*
X219412Y97816D01*
X219341Y97844D01*
X219270Y97868D01*
X219197Y97889D01*
X219123Y97906D01*
X219048Y97920D01*
X218973Y97929D01*
X218897Y97935D01*
X218821Y97937D01*
X219908Y97472D02*
X223012Y94833D01*
X223012Y97938D01*
D11*
X204470Y181610D02*
X191770Y181610D01*
X204470Y181610D02*
X210820Y175260D01*
X210820Y162560D02*
X204470Y156210D01*
X166370Y181610D02*
X160020Y175260D01*
X166370Y181610D02*
X179070Y181610D01*
X185420Y175260D01*
X185420Y162560D02*
X179070Y156210D01*
X166370Y156210D01*
X160020Y162560D01*
X185420Y175260D02*
X191770Y181610D01*
X185420Y162560D02*
X191770Y156210D01*
X204470Y156210D01*
X128270Y181610D02*
X115570Y181610D01*
X128270Y181610D02*
X134620Y175260D01*
X134620Y162560D02*
X128270Y156210D01*
X134620Y175260D02*
X140970Y181610D01*
X153670Y181610D01*
X160020Y175260D01*
X160020Y162560D02*
X153670Y156210D01*
X140970Y156210D01*
X134620Y162560D01*
X90170Y181610D02*
X83820Y175260D01*
X90170Y181610D02*
X102870Y181610D01*
X109220Y175260D01*
X109220Y162560D02*
X102870Y156210D01*
X90170Y156210D01*
X83820Y162560D01*
X109220Y175260D02*
X115570Y181610D01*
X109220Y162560D02*
X115570Y156210D01*
X128270Y156210D01*
X52070Y181610D02*
X39370Y181610D01*
X52070Y181610D02*
X58420Y175260D01*
X58420Y162560D02*
X52070Y156210D01*
X58420Y175260D02*
X64770Y181610D01*
X77470Y181610D01*
X83820Y175260D01*
X83820Y162560D02*
X77470Y156210D01*
X64770Y156210D01*
X58420Y162560D01*
X33020Y162560D02*
X33020Y175260D01*
X39370Y181610D01*
X33020Y162560D02*
X39370Y156210D01*
X52070Y156210D01*
X217170Y181610D02*
X229870Y181610D01*
X236220Y175260D01*
X236220Y162560D02*
X229870Y156210D01*
X210820Y175260D02*
X217170Y181610D01*
X210820Y162560D02*
X217170Y156210D01*
X229870Y156210D01*
X242570Y181610D02*
X255270Y181610D01*
X261620Y175260D01*
X261620Y162560D02*
X255270Y156210D01*
X236220Y175260D02*
X242570Y181610D01*
X236220Y162560D02*
X242570Y156210D01*
X255270Y156210D01*
X267970Y181610D02*
X280670Y181610D01*
X287020Y175260D01*
X287020Y162560D01*
X280670Y156210D01*
X261620Y175260D02*
X267970Y181610D01*
X261620Y162560D02*
X267970Y156210D01*
X280670Y156210D01*
X128270Y3810D02*
X115570Y3810D01*
X109220Y10160D01*
X109220Y22860D02*
X115570Y29210D01*
X153670Y3810D02*
X160020Y10160D01*
X153670Y3810D02*
X140970Y3810D01*
X134620Y10160D01*
X134620Y22860D02*
X140970Y29210D01*
X153670Y29210D01*
X160020Y22860D01*
X134620Y10160D02*
X128270Y3810D01*
X134620Y22860D02*
X128270Y29210D01*
X115570Y29210D01*
X191770Y3810D02*
X204470Y3810D01*
X191770Y3810D02*
X185420Y10160D01*
X185420Y22860D02*
X191770Y29210D01*
X185420Y10160D02*
X179070Y3810D01*
X166370Y3810D01*
X160020Y10160D01*
X160020Y22860D02*
X166370Y29210D01*
X179070Y29210D01*
X185420Y22860D01*
X229870Y3810D02*
X236220Y10160D01*
X229870Y3810D02*
X217170Y3810D01*
X210820Y10160D01*
X210820Y22860D02*
X217170Y29210D01*
X229870Y29210D01*
X236220Y22860D01*
X210820Y10160D02*
X204470Y3810D01*
X210820Y22860D02*
X204470Y29210D01*
X191770Y29210D01*
X267970Y3810D02*
X280670Y3810D01*
X267970Y3810D02*
X261620Y10160D01*
X261620Y22860D02*
X267970Y29210D01*
X261620Y10160D02*
X255270Y3810D01*
X242570Y3810D01*
X236220Y10160D01*
X236220Y22860D02*
X242570Y29210D01*
X255270Y29210D01*
X261620Y22860D01*
X287020Y22860D02*
X287020Y10160D01*
X280670Y3810D01*
X287020Y22860D02*
X280670Y29210D01*
X267970Y29210D01*
X102870Y3810D02*
X90170Y3810D01*
X83820Y10160D01*
X83820Y22860D02*
X90170Y29210D01*
X109220Y10160D02*
X102870Y3810D01*
X109220Y22860D02*
X102870Y29210D01*
X90170Y29210D01*
X77470Y3810D02*
X64770Y3810D01*
X58420Y10160D01*
X58420Y22860D02*
X64770Y29210D01*
X83820Y10160D02*
X77470Y3810D01*
X83820Y22860D02*
X77470Y29210D01*
X64770Y29210D01*
X52070Y3810D02*
X39370Y3810D01*
X33020Y10160D01*
X33020Y22860D01*
X39370Y29210D01*
X58420Y10160D02*
X52070Y3810D01*
X58420Y22860D02*
X52070Y29210D01*
X39370Y29210D01*
X293370Y29210D02*
X306070Y29210D01*
X312420Y22860D01*
X312420Y10160D02*
X306070Y3810D01*
X312420Y22860D02*
X318770Y29210D01*
X331470Y29210D01*
X337820Y22860D01*
X337820Y10160D02*
X331470Y3810D01*
X318770Y3810D01*
X312420Y10160D01*
X287020Y10160D02*
X287020Y22860D01*
X293370Y29210D01*
X287020Y10160D02*
X293370Y3810D01*
X306070Y3810D01*
X337820Y10160D02*
X337820Y22860D01*
X306070Y181610D02*
X293370Y181610D01*
X306070Y181610D02*
X312420Y175260D01*
X312420Y162560D02*
X306070Y156210D01*
X312420Y175260D02*
X318770Y181610D01*
X331470Y181610D01*
X337820Y175260D01*
X337820Y162560D02*
X331470Y156210D01*
X318770Y156210D01*
X312420Y162560D01*
X287020Y162560D02*
X287020Y175260D01*
X293370Y181610D01*
X287020Y162560D02*
X293370Y156210D01*
X306070Y156210D01*
X337820Y162560D02*
X337820Y175260D01*
D13*
X246380Y49760D02*
X244630Y48010D01*
X246380Y49760D02*
X247880Y48260D01*
X246130Y46510D01*
X244630Y48010D01*
D14*
X243630Y52260D03*
D15*
X244856Y81280D02*
X227584Y81280D01*
X247396Y99060D02*
X247394Y99160D01*
X247388Y99259D01*
X247378Y99359D01*
X247365Y99457D01*
X247347Y99556D01*
X247326Y99653D01*
X247301Y99749D01*
X247272Y99845D01*
X247239Y99939D01*
X247203Y100032D01*
X247163Y100123D01*
X247119Y100213D01*
X247072Y100301D01*
X247022Y100387D01*
X246968Y100471D01*
X246911Y100553D01*
X246851Y100632D01*
X246787Y100710D01*
X246721Y100784D01*
X246652Y100856D01*
X246580Y100925D01*
X246506Y100991D01*
X246428Y101055D01*
X246349Y101115D01*
X246267Y101172D01*
X246183Y101226D01*
X246097Y101276D01*
X246009Y101323D01*
X245919Y101367D01*
X245828Y101407D01*
X245735Y101443D01*
X245641Y101476D01*
X245545Y101505D01*
X245449Y101530D01*
X245352Y101551D01*
X245253Y101569D01*
X245155Y101582D01*
X245055Y101592D01*
X244956Y101598D01*
X244856Y101600D01*
X227584Y101600D02*
X227484Y101598D01*
X227385Y101592D01*
X227285Y101582D01*
X227187Y101569D01*
X227088Y101551D01*
X226991Y101530D01*
X226895Y101505D01*
X226799Y101476D01*
X226705Y101443D01*
X226612Y101407D01*
X226521Y101367D01*
X226431Y101323D01*
X226343Y101276D01*
X226257Y101226D01*
X226173Y101172D01*
X226091Y101115D01*
X226012Y101055D01*
X225934Y100991D01*
X225860Y100925D01*
X225788Y100856D01*
X225719Y100784D01*
X225653Y100710D01*
X225589Y100632D01*
X225529Y100553D01*
X225472Y100471D01*
X225418Y100387D01*
X225368Y100301D01*
X225321Y100213D01*
X225277Y100123D01*
X225237Y100032D01*
X225201Y99939D01*
X225168Y99845D01*
X225139Y99749D01*
X225114Y99653D01*
X225093Y99556D01*
X225075Y99457D01*
X225062Y99359D01*
X225052Y99259D01*
X225046Y99160D01*
X225044Y99060D01*
X225044Y83820D02*
X225046Y83720D01*
X225052Y83621D01*
X225062Y83521D01*
X225075Y83423D01*
X225093Y83324D01*
X225114Y83227D01*
X225139Y83131D01*
X225168Y83035D01*
X225201Y82941D01*
X225237Y82848D01*
X225277Y82757D01*
X225321Y82667D01*
X225368Y82579D01*
X225418Y82493D01*
X225472Y82409D01*
X225529Y82327D01*
X225589Y82248D01*
X225653Y82170D01*
X225719Y82096D01*
X225788Y82024D01*
X225860Y81955D01*
X225934Y81889D01*
X226012Y81825D01*
X226091Y81765D01*
X226173Y81708D01*
X226257Y81654D01*
X226343Y81604D01*
X226431Y81557D01*
X226521Y81513D01*
X226612Y81473D01*
X226705Y81437D01*
X226799Y81404D01*
X226895Y81375D01*
X226991Y81350D01*
X227088Y81329D01*
X227187Y81311D01*
X227285Y81298D01*
X227385Y81288D01*
X227484Y81282D01*
X227584Y81280D01*
X244856Y81280D02*
X244956Y81282D01*
X245055Y81288D01*
X245155Y81298D01*
X245253Y81311D01*
X245352Y81329D01*
X245449Y81350D01*
X245545Y81375D01*
X245641Y81404D01*
X245735Y81437D01*
X245828Y81473D01*
X245919Y81513D01*
X246009Y81557D01*
X246097Y81604D01*
X246183Y81654D01*
X246267Y81708D01*
X246349Y81765D01*
X246428Y81825D01*
X246506Y81889D01*
X246580Y81955D01*
X246652Y82024D01*
X246721Y82096D01*
X246787Y82170D01*
X246851Y82248D01*
X246911Y82327D01*
X246968Y82409D01*
X247022Y82493D01*
X247072Y82579D01*
X247119Y82667D01*
X247163Y82757D01*
X247203Y82848D01*
X247239Y82941D01*
X247272Y83035D01*
X247301Y83131D01*
X247326Y83227D01*
X247347Y83324D01*
X247365Y83423D01*
X247378Y83521D01*
X247388Y83621D01*
X247394Y83720D01*
X247396Y83820D01*
X247396Y99060D01*
X225044Y99060D02*
X225044Y83820D01*
X227584Y101600D02*
X244856Y101600D01*
D10*
X250444Y88075D02*
X254790Y88075D01*
X254860Y88073D01*
X254929Y88067D01*
X254998Y88057D01*
X255066Y88044D01*
X255134Y88026D01*
X255200Y88005D01*
X255265Y87980D01*
X255329Y87952D01*
X255391Y87920D01*
X255451Y87885D01*
X255509Y87846D01*
X255564Y87804D01*
X255618Y87759D01*
X255668Y87711D01*
X255716Y87661D01*
X255761Y87607D01*
X255803Y87552D01*
X255842Y87494D01*
X255877Y87434D01*
X255909Y87372D01*
X255937Y87308D01*
X255962Y87243D01*
X255983Y87177D01*
X256001Y87109D01*
X256014Y87041D01*
X256024Y86972D01*
X256030Y86903D01*
X256032Y86833D01*
X256032Y86212D01*
X256032Y90883D02*
X250444Y90883D01*
X250444Y92435D01*
X250446Y92512D01*
X250452Y92590D01*
X250461Y92666D01*
X250475Y92743D01*
X250492Y92818D01*
X250513Y92892D01*
X250538Y92966D01*
X250566Y93038D01*
X250598Y93108D01*
X250633Y93177D01*
X250672Y93244D01*
X250714Y93309D01*
X250759Y93372D01*
X250807Y93433D01*
X250858Y93491D01*
X250912Y93546D01*
X250969Y93599D01*
X251028Y93648D01*
X251090Y93695D01*
X251154Y93739D01*
X251220Y93779D01*
X251288Y93816D01*
X251358Y93850D01*
X251429Y93880D01*
X251502Y93906D01*
X251576Y93929D01*
X251651Y93948D01*
X251726Y93963D01*
X251803Y93975D01*
X251880Y93983D01*
X251957Y93987D01*
X252035Y93987D01*
X252112Y93983D01*
X252189Y93975D01*
X252266Y93963D01*
X252341Y93948D01*
X252416Y93929D01*
X252490Y93906D01*
X252563Y93880D01*
X252634Y93850D01*
X252704Y93816D01*
X252772Y93779D01*
X252838Y93739D01*
X252902Y93695D01*
X252964Y93648D01*
X253023Y93599D01*
X253080Y93546D01*
X253134Y93491D01*
X253185Y93433D01*
X253233Y93372D01*
X253278Y93309D01*
X253320Y93244D01*
X253359Y93177D01*
X253394Y93108D01*
X253426Y93038D01*
X253454Y92966D01*
X253479Y92892D01*
X253500Y92818D01*
X253517Y92743D01*
X253531Y92666D01*
X253540Y92590D01*
X253546Y92512D01*
X253548Y92435D01*
X253548Y90883D01*
X254790Y96103D02*
X250444Y97345D01*
X254790Y96103D02*
X254790Y99208D01*
X253548Y98276D02*
X256032Y98276D01*
D12*
X114412Y82488D02*
X114412Y128012D01*
X185807Y128012D01*
X185807Y82488D01*
X114412Y82488D01*
D16*
X117998Y88250D02*
X118000Y88325D01*
X118006Y88399D01*
X118016Y88473D01*
X118029Y88546D01*
X118047Y88619D01*
X118068Y88690D01*
X118093Y88761D01*
X118122Y88830D01*
X118155Y88897D01*
X118191Y88962D01*
X118230Y89026D01*
X118272Y89087D01*
X118318Y89146D01*
X118367Y89203D01*
X118419Y89256D01*
X118473Y89307D01*
X118530Y89356D01*
X118590Y89400D01*
X118652Y89442D01*
X118716Y89481D01*
X118782Y89516D01*
X118849Y89547D01*
X118919Y89575D01*
X118989Y89599D01*
X119061Y89620D01*
X119134Y89636D01*
X119207Y89649D01*
X119282Y89658D01*
X119356Y89663D01*
X119431Y89664D01*
X119505Y89661D01*
X119580Y89654D01*
X119653Y89643D01*
X119727Y89629D01*
X119799Y89610D01*
X119870Y89588D01*
X119940Y89562D01*
X120009Y89532D01*
X120075Y89499D01*
X120140Y89462D01*
X120203Y89422D01*
X120264Y89378D01*
X120322Y89332D01*
X120378Y89282D01*
X120431Y89230D01*
X120482Y89175D01*
X120529Y89117D01*
X120573Y89057D01*
X120614Y88994D01*
X120652Y88930D01*
X120686Y88864D01*
X120717Y88795D01*
X120744Y88726D01*
X120767Y88655D01*
X120786Y88583D01*
X120802Y88510D01*
X120814Y88436D01*
X120822Y88362D01*
X120826Y88287D01*
X120826Y88213D01*
X120822Y88138D01*
X120814Y88064D01*
X120802Y87990D01*
X120786Y87917D01*
X120767Y87845D01*
X120744Y87774D01*
X120717Y87705D01*
X120686Y87636D01*
X120652Y87570D01*
X120614Y87506D01*
X120573Y87443D01*
X120529Y87383D01*
X120482Y87325D01*
X120431Y87270D01*
X120378Y87218D01*
X120322Y87168D01*
X120264Y87122D01*
X120203Y87078D01*
X120140Y87038D01*
X120075Y87001D01*
X120009Y86968D01*
X119940Y86938D01*
X119870Y86912D01*
X119799Y86890D01*
X119727Y86871D01*
X119653Y86857D01*
X119580Y86846D01*
X119505Y86839D01*
X119431Y86836D01*
X119356Y86837D01*
X119282Y86842D01*
X119207Y86851D01*
X119134Y86864D01*
X119061Y86880D01*
X118989Y86901D01*
X118919Y86925D01*
X118849Y86953D01*
X118782Y86984D01*
X118716Y87019D01*
X118652Y87058D01*
X118590Y87100D01*
X118530Y87144D01*
X118473Y87193D01*
X118419Y87244D01*
X118367Y87297D01*
X118318Y87354D01*
X118272Y87413D01*
X118230Y87474D01*
X118191Y87538D01*
X118155Y87603D01*
X118122Y87670D01*
X118093Y87739D01*
X118068Y87810D01*
X118047Y87881D01*
X118029Y87954D01*
X118016Y88027D01*
X118006Y88101D01*
X118000Y88175D01*
X117998Y88250D01*
D15*
X227584Y109220D02*
X244856Y109220D01*
X247396Y127000D02*
X247394Y127100D01*
X247388Y127199D01*
X247378Y127299D01*
X247365Y127397D01*
X247347Y127496D01*
X247326Y127593D01*
X247301Y127689D01*
X247272Y127785D01*
X247239Y127879D01*
X247203Y127972D01*
X247163Y128063D01*
X247119Y128153D01*
X247072Y128241D01*
X247022Y128327D01*
X246968Y128411D01*
X246911Y128493D01*
X246851Y128572D01*
X246787Y128650D01*
X246721Y128724D01*
X246652Y128796D01*
X246580Y128865D01*
X246506Y128931D01*
X246428Y128995D01*
X246349Y129055D01*
X246267Y129112D01*
X246183Y129166D01*
X246097Y129216D01*
X246009Y129263D01*
X245919Y129307D01*
X245828Y129347D01*
X245735Y129383D01*
X245641Y129416D01*
X245545Y129445D01*
X245449Y129470D01*
X245352Y129491D01*
X245253Y129509D01*
X245155Y129522D01*
X245055Y129532D01*
X244956Y129538D01*
X244856Y129540D01*
X227584Y129540D02*
X227484Y129538D01*
X227385Y129532D01*
X227285Y129522D01*
X227187Y129509D01*
X227088Y129491D01*
X226991Y129470D01*
X226895Y129445D01*
X226799Y129416D01*
X226705Y129383D01*
X226612Y129347D01*
X226521Y129307D01*
X226431Y129263D01*
X226343Y129216D01*
X226257Y129166D01*
X226173Y129112D01*
X226091Y129055D01*
X226012Y128995D01*
X225934Y128931D01*
X225860Y128865D01*
X225788Y128796D01*
X225719Y128724D01*
X225653Y128650D01*
X225589Y128572D01*
X225529Y128493D01*
X225472Y128411D01*
X225418Y128327D01*
X225368Y128241D01*
X225321Y128153D01*
X225277Y128063D01*
X225237Y127972D01*
X225201Y127879D01*
X225168Y127785D01*
X225139Y127689D01*
X225114Y127593D01*
X225093Y127496D01*
X225075Y127397D01*
X225062Y127299D01*
X225052Y127199D01*
X225046Y127100D01*
X225044Y127000D01*
X225044Y111760D02*
X225046Y111660D01*
X225052Y111561D01*
X225062Y111461D01*
X225075Y111363D01*
X225093Y111264D01*
X225114Y111167D01*
X225139Y111071D01*
X225168Y110975D01*
X225201Y110881D01*
X225237Y110788D01*
X225277Y110697D01*
X225321Y110607D01*
X225368Y110519D01*
X225418Y110433D01*
X225472Y110349D01*
X225529Y110267D01*
X225589Y110188D01*
X225653Y110110D01*
X225719Y110036D01*
X225788Y109964D01*
X225860Y109895D01*
X225934Y109829D01*
X226012Y109765D01*
X226091Y109705D01*
X226173Y109648D01*
X226257Y109594D01*
X226343Y109544D01*
X226431Y109497D01*
X226521Y109453D01*
X226612Y109413D01*
X226705Y109377D01*
X226799Y109344D01*
X226895Y109315D01*
X226991Y109290D01*
X227088Y109269D01*
X227187Y109251D01*
X227285Y109238D01*
X227385Y109228D01*
X227484Y109222D01*
X227584Y109220D01*
X244856Y109220D02*
X244956Y109222D01*
X245055Y109228D01*
X245155Y109238D01*
X245253Y109251D01*
X245352Y109269D01*
X245449Y109290D01*
X245545Y109315D01*
X245641Y109344D01*
X245735Y109377D01*
X245828Y109413D01*
X245919Y109453D01*
X246009Y109497D01*
X246097Y109544D01*
X246183Y109594D01*
X246267Y109648D01*
X246349Y109705D01*
X246428Y109765D01*
X246506Y109829D01*
X246580Y109895D01*
X246652Y109964D01*
X246721Y110036D01*
X246787Y110110D01*
X246851Y110188D01*
X246911Y110267D01*
X246968Y110349D01*
X247022Y110433D01*
X247072Y110519D01*
X247119Y110607D01*
X247163Y110697D01*
X247203Y110788D01*
X247239Y110881D01*
X247272Y110975D01*
X247301Y111071D01*
X247326Y111167D01*
X247347Y111264D01*
X247365Y111363D01*
X247378Y111461D01*
X247388Y111561D01*
X247394Y111660D01*
X247396Y111760D01*
X247396Y127000D01*
X225044Y127000D02*
X225044Y111760D01*
X227584Y129540D02*
X244856Y129540D01*
D10*
X250444Y114745D02*
X254790Y114745D01*
X254860Y114743D01*
X254929Y114737D01*
X254998Y114727D01*
X255066Y114714D01*
X255134Y114696D01*
X255200Y114675D01*
X255265Y114650D01*
X255329Y114622D01*
X255391Y114590D01*
X255451Y114555D01*
X255509Y114516D01*
X255564Y114474D01*
X255618Y114429D01*
X255668Y114381D01*
X255716Y114331D01*
X255761Y114277D01*
X255803Y114222D01*
X255842Y114164D01*
X255877Y114104D01*
X255909Y114042D01*
X255937Y113978D01*
X255962Y113913D01*
X255983Y113847D01*
X256001Y113779D01*
X256014Y113711D01*
X256024Y113642D01*
X256030Y113573D01*
X256032Y113503D01*
X256032Y112882D01*
X256032Y117553D02*
X250444Y117553D01*
X250444Y119105D01*
X250446Y119182D01*
X250452Y119260D01*
X250461Y119336D01*
X250475Y119413D01*
X250492Y119488D01*
X250513Y119562D01*
X250538Y119636D01*
X250566Y119708D01*
X250598Y119778D01*
X250633Y119847D01*
X250672Y119914D01*
X250714Y119979D01*
X250759Y120042D01*
X250807Y120103D01*
X250858Y120161D01*
X250912Y120216D01*
X250969Y120269D01*
X251028Y120318D01*
X251090Y120365D01*
X251154Y120409D01*
X251220Y120449D01*
X251288Y120486D01*
X251358Y120520D01*
X251429Y120550D01*
X251502Y120576D01*
X251576Y120599D01*
X251651Y120618D01*
X251726Y120633D01*
X251803Y120645D01*
X251880Y120653D01*
X251957Y120657D01*
X252035Y120657D01*
X252112Y120653D01*
X252189Y120645D01*
X252266Y120633D01*
X252341Y120618D01*
X252416Y120599D01*
X252490Y120576D01*
X252563Y120550D01*
X252634Y120520D01*
X252704Y120486D01*
X252772Y120449D01*
X252838Y120409D01*
X252902Y120365D01*
X252964Y120318D01*
X253023Y120269D01*
X253080Y120216D01*
X253134Y120161D01*
X253185Y120103D01*
X253233Y120042D01*
X253278Y119979D01*
X253320Y119914D01*
X253359Y119847D01*
X253394Y119778D01*
X253426Y119708D01*
X253454Y119636D01*
X253479Y119562D01*
X253500Y119488D01*
X253517Y119413D01*
X253531Y119336D01*
X253540Y119260D01*
X253546Y119182D01*
X253548Y119105D01*
X253548Y117553D01*
X256032Y122773D02*
X256032Y124636D01*
X256030Y124706D01*
X256024Y124775D01*
X256014Y124844D01*
X256001Y124912D01*
X255983Y124980D01*
X255962Y125046D01*
X255937Y125111D01*
X255909Y125175D01*
X255877Y125237D01*
X255842Y125297D01*
X255803Y125355D01*
X255761Y125410D01*
X255716Y125464D01*
X255668Y125514D01*
X255618Y125562D01*
X255564Y125607D01*
X255509Y125649D01*
X255451Y125688D01*
X255391Y125723D01*
X255329Y125755D01*
X255265Y125783D01*
X255200Y125808D01*
X255134Y125829D01*
X255066Y125847D01*
X254998Y125860D01*
X254929Y125870D01*
X254860Y125876D01*
X254790Y125878D01*
X254169Y125878D01*
X254099Y125876D01*
X254030Y125870D01*
X253961Y125860D01*
X253893Y125847D01*
X253825Y125829D01*
X253759Y125808D01*
X253694Y125783D01*
X253630Y125755D01*
X253568Y125723D01*
X253508Y125688D01*
X253450Y125649D01*
X253395Y125607D01*
X253341Y125562D01*
X253291Y125514D01*
X253243Y125464D01*
X253198Y125410D01*
X253156Y125355D01*
X253117Y125297D01*
X253082Y125237D01*
X253050Y125175D01*
X253022Y125111D01*
X252997Y125046D01*
X252976Y124980D01*
X252958Y124912D01*
X252945Y124844D01*
X252935Y124775D01*
X252929Y124706D01*
X252927Y124636D01*
X252928Y124636D02*
X252928Y122773D01*
X250444Y122773D01*
X250444Y125878D01*
D11*
X358620Y178830D02*
X358622Y178928D01*
X358628Y179026D01*
X358637Y179124D01*
X358651Y179221D01*
X358668Y179318D01*
X358689Y179414D01*
X358714Y179509D01*
X358742Y179603D01*
X358775Y179695D01*
X358810Y179787D01*
X358850Y179877D01*
X358892Y179965D01*
X358939Y180052D01*
X358988Y180136D01*
X359041Y180219D01*
X359097Y180299D01*
X359157Y180378D01*
X359219Y180454D01*
X359284Y180527D01*
X359352Y180598D01*
X359423Y180666D01*
X359496Y180731D01*
X359572Y180793D01*
X359651Y180853D01*
X359731Y180909D01*
X359814Y180962D01*
X359898Y181011D01*
X359985Y181058D01*
X360073Y181100D01*
X360163Y181140D01*
X360255Y181175D01*
X360347Y181208D01*
X360441Y181236D01*
X360536Y181261D01*
X360632Y181282D01*
X360729Y181299D01*
X360826Y181313D01*
X360924Y181322D01*
X361022Y181328D01*
X361120Y181330D01*
X416120Y181330D01*
X416218Y181328D01*
X416316Y181322D01*
X416414Y181313D01*
X416511Y181299D01*
X416608Y181282D01*
X416704Y181261D01*
X416799Y181236D01*
X416893Y181208D01*
X416985Y181175D01*
X417077Y181140D01*
X417167Y181100D01*
X417255Y181058D01*
X417342Y181011D01*
X417426Y180962D01*
X417509Y180909D01*
X417589Y180853D01*
X417668Y180793D01*
X417744Y180731D01*
X417817Y180666D01*
X417888Y180598D01*
X417956Y180527D01*
X418021Y180454D01*
X418083Y180378D01*
X418143Y180299D01*
X418199Y180219D01*
X418252Y180136D01*
X418301Y180052D01*
X418348Y179965D01*
X418390Y179877D01*
X418430Y179787D01*
X418465Y179695D01*
X418498Y179603D01*
X418526Y179509D01*
X418551Y179414D01*
X418572Y179318D01*
X418589Y179221D01*
X418603Y179124D01*
X418612Y179026D01*
X418618Y178928D01*
X418620Y178830D01*
X418620Y148830D02*
X418618Y148732D01*
X418612Y148634D01*
X418603Y148536D01*
X418589Y148439D01*
X418572Y148342D01*
X418551Y148246D01*
X418526Y148151D01*
X418498Y148057D01*
X418465Y147965D01*
X418430Y147873D01*
X418390Y147783D01*
X418348Y147695D01*
X418301Y147608D01*
X418252Y147524D01*
X418199Y147441D01*
X418143Y147361D01*
X418083Y147282D01*
X418021Y147206D01*
X417956Y147133D01*
X417888Y147062D01*
X417817Y146994D01*
X417744Y146929D01*
X417668Y146867D01*
X417589Y146807D01*
X417509Y146751D01*
X417426Y146698D01*
X417342Y146649D01*
X417255Y146602D01*
X417167Y146560D01*
X417077Y146520D01*
X416985Y146485D01*
X416893Y146452D01*
X416799Y146424D01*
X416704Y146399D01*
X416608Y146378D01*
X416511Y146361D01*
X416414Y146347D01*
X416316Y146338D01*
X416218Y146332D01*
X416120Y146330D01*
X361120Y146330D01*
X361022Y146332D01*
X360924Y146338D01*
X360826Y146347D01*
X360729Y146361D01*
X360632Y146378D01*
X360536Y146399D01*
X360441Y146424D01*
X360347Y146452D01*
X360255Y146485D01*
X360163Y146520D01*
X360073Y146560D01*
X359985Y146602D01*
X359898Y146649D01*
X359814Y146698D01*
X359731Y146751D01*
X359651Y146807D01*
X359572Y146867D01*
X359496Y146929D01*
X359423Y146994D01*
X359352Y147062D01*
X359284Y147133D01*
X359219Y147206D01*
X359157Y147282D01*
X359097Y147361D01*
X359041Y147441D01*
X358988Y147524D01*
X358939Y147608D01*
X358892Y147695D01*
X358850Y147783D01*
X358810Y147873D01*
X358775Y147965D01*
X358742Y148057D01*
X358714Y148151D01*
X358689Y148246D01*
X358668Y148342D01*
X358651Y148439D01*
X358637Y148536D01*
X358628Y148634D01*
X358622Y148732D01*
X358620Y148830D01*
X358620Y152830D01*
X358620Y174830D02*
X358620Y178830D01*
X418620Y178830D02*
X418620Y174830D01*
X418620Y152830D02*
X418620Y148830D01*
X403620Y171330D02*
X373620Y171330D01*
X373620Y156330D02*
X403620Y156330D01*
X373620Y156330D02*
X373620Y171330D01*
X403620Y171330D02*
X403620Y156330D01*
X30480Y62230D02*
X30480Y49530D01*
X24130Y43180D01*
X11430Y43180D02*
X5080Y49530D01*
X30480Y87630D02*
X24130Y93980D01*
X30480Y87630D02*
X30480Y74930D01*
X24130Y68580D01*
X11430Y68580D02*
X5080Y74930D01*
X5080Y87630D01*
X11430Y93980D01*
X24130Y68580D02*
X30480Y62230D01*
X11430Y68580D02*
X5080Y62230D01*
X5080Y49530D01*
X30480Y125730D02*
X30480Y138430D01*
X30480Y125730D02*
X24130Y119380D01*
X11430Y119380D02*
X5080Y125730D01*
X24130Y119380D02*
X30480Y113030D01*
X30480Y100330D01*
X24130Y93980D01*
X11430Y93980D02*
X5080Y100330D01*
X5080Y113030D01*
X11430Y119380D01*
X11430Y144780D02*
X24130Y144780D01*
X30480Y138430D01*
X11430Y144780D02*
X5080Y138430D01*
X5080Y125730D01*
X11430Y43180D02*
X24130Y43180D01*
X33020Y175260D02*
X26670Y181610D01*
X13970Y181610D01*
X7620Y175260D01*
X7620Y162560D01*
X13970Y156210D01*
X26670Y156210D01*
X33020Y162560D01*
X33020Y175260D01*
X26670Y29210D02*
X33020Y22860D01*
X26670Y29210D02*
X13970Y29210D01*
X7620Y22860D01*
X7620Y10160D01*
X13970Y3810D01*
X26670Y3810D01*
X33020Y10160D01*
X33020Y22860D01*
M02*
