G04 EAGLE Gerber RS-274X export*
G75*
%MOMM*%
%FSLAX34Y34*%
%LPD*%
%INSoldermask Top*%
%IPPOS*%
%AMOC8*
5,1,8,0,0,1.08239X$1,22.5*%
G01*
%ADD10R,1.803200X2.503200*%
%ADD11R,1.403200X1.403200*%
%ADD12R,1.503200X1.703200*%
%ADD13R,2.703200X0.703200*%
%ADD14R,2.703200X2.203200*%
%ADD15C,1.103200*%
%ADD16R,0.603200X1.703197*%
%ADD17R,0.838200X1.473200*%
%ADD18C,2.082800*%
%ADD19R,0.603200X1.203200*%
%ADD20R,2.503200X1.803200*%
%ADD21C,1.061200*%


D10*
X76200Y62480D03*
X76200Y125480D03*
D11*
X424210Y15240D03*
X403210Y15240D03*
D12*
X381510Y15830D03*
X362510Y15830D03*
D13*
X354410Y87630D03*
X354410Y79630D03*
X354410Y103630D03*
X354410Y95630D03*
D14*
X409410Y132630D03*
X409410Y42630D03*
X354410Y132630D03*
X354410Y42630D03*
D13*
X354410Y71630D03*
D15*
X379410Y65630D03*
X379410Y109630D03*
D16*
X313690Y117312D03*
X293370Y117312D03*
X303690Y117312D03*
X283690Y117312D03*
X273690Y117312D03*
X273690Y67310D03*
X283690Y67310D03*
X293370Y67310D03*
X303690Y67310D03*
X313690Y67310D03*
D17*
X207264Y119380D03*
X199136Y119380D03*
X207264Y91440D03*
X199136Y91440D03*
D18*
X45720Y168910D03*
X71120Y168910D03*
X96520Y168910D03*
X121920Y168910D03*
X147320Y168910D03*
X172720Y168910D03*
X198120Y168910D03*
X223520Y168910D03*
X248920Y168910D03*
X274320Y168910D03*
X274320Y16510D03*
X248920Y16510D03*
X223520Y16510D03*
X198120Y16510D03*
X172720Y16510D03*
X147320Y16510D03*
X121920Y16510D03*
X96520Y16510D03*
X71120Y16510D03*
X45720Y16510D03*
X299720Y16510D03*
X325120Y16510D03*
X299720Y168910D03*
X325120Y168910D03*
D11*
X235880Y48260D03*
X256880Y48260D03*
D12*
X255880Y67310D03*
X236880Y67310D03*
D17*
X232156Y91440D03*
X240284Y91440D03*
D19*
X179828Y76040D03*
X173224Y76040D03*
X166620Y75980D03*
X160016Y76040D03*
X153412Y76040D03*
X146808Y76040D03*
X140204Y76040D03*
X133600Y76040D03*
X126996Y76040D03*
X120392Y76040D03*
X120392Y134460D03*
X126996Y134460D03*
X133600Y134460D03*
X140204Y134460D03*
X146808Y134460D03*
X153412Y134460D03*
X160016Y134460D03*
X166620Y134520D03*
X173224Y134460D03*
X179828Y134460D03*
D17*
X232156Y119380D03*
X240284Y119380D03*
D20*
X357120Y163830D03*
X420120Y163830D03*
D18*
X17780Y132080D03*
X17780Y106680D03*
X17780Y81280D03*
X17780Y55880D03*
X20320Y168910D03*
X20320Y16510D03*
D21*
X384490Y87630D03*
X313370Y87630D03*
X219809Y62230D03*
X401320Y87630D03*
X383540Y135890D03*
X401320Y113030D03*
X414020Y100330D03*
X426720Y87630D03*
X426720Y113030D03*
X426720Y62230D03*
X414020Y74930D03*
X401320Y62230D03*
X383540Y40640D03*
X160020Y90170D03*
X166596Y58528D03*
X59690Y43180D03*
X50800Y80010D03*
X333560Y44260D03*
X111760Y109220D03*
X323850Y55880D03*
X331470Y135890D03*
X188375Y59464D03*
X60960Y101600D03*
X219710Y76200D03*
X124460Y120650D03*
X162391Y148364D03*
X125730Y90170D03*
X60960Y119380D03*
X187680Y90450D03*
X143510Y90170D03*
X198120Y76200D03*
X156210Y50800D03*
X52070Y132080D03*
X334010Y152400D03*
M02*
