G04 EAGLE Gerber RS-274X export*
G75*
%MOMM*%
%FSLAX34Y34*%
%LPD*%
%INSoldermask Bottom*%
%IPPOS*%
%AMOC8*
5,1,8,0,0,1.08239X$1,22.5*%
G01*
%ADD10R,1.703200X1.503200*%
%ADD11R,1.503200X1.703200*%
%ADD12C,1.103200*%
%ADD13R,2.103200X1.103200*%
%ADD14R,2.103200X3.403200*%
%ADD15R,2.003200X1.803200*%
%ADD16C,2.082800*%
%ADD17R,0.838200X1.473200*%
%ADD18C,1.061200*%

G36*
X370898Y56143D02*
X370898Y56143D01*
X370956Y56141D01*
X371038Y56163D01*
X371122Y56175D01*
X371175Y56199D01*
X371231Y56213D01*
X371304Y56256D01*
X371381Y56291D01*
X371426Y56329D01*
X371476Y56359D01*
X371534Y56420D01*
X371598Y56475D01*
X371630Y56523D01*
X371670Y56566D01*
X371709Y56641D01*
X371756Y56711D01*
X371773Y56767D01*
X371800Y56819D01*
X371811Y56887D01*
X371841Y56982D01*
X371844Y57082D01*
X371855Y57150D01*
X371855Y118110D01*
X371848Y118161D01*
X371849Y118181D01*
X371848Y118185D01*
X371849Y118226D01*
X371827Y118308D01*
X371815Y118392D01*
X371792Y118445D01*
X371777Y118501D01*
X371734Y118574D01*
X371699Y118651D01*
X371661Y118696D01*
X371632Y118746D01*
X371570Y118804D01*
X371516Y118868D01*
X371467Y118900D01*
X371424Y118940D01*
X371349Y118979D01*
X371279Y119026D01*
X371223Y119043D01*
X371171Y119070D01*
X371103Y119081D01*
X371008Y119111D01*
X370908Y119114D01*
X370840Y119125D01*
X335280Y119125D01*
X335222Y119117D01*
X335164Y119119D01*
X335082Y119097D01*
X334999Y119085D01*
X334945Y119062D01*
X334889Y119047D01*
X334816Y119004D01*
X334739Y118969D01*
X334694Y118931D01*
X334644Y118902D01*
X334586Y118840D01*
X334522Y118786D01*
X334490Y118737D01*
X334450Y118694D01*
X334411Y118619D01*
X334365Y118549D01*
X334347Y118493D01*
X334320Y118441D01*
X334309Y118373D01*
X334279Y118278D01*
X334276Y118178D01*
X334265Y118110D01*
X334265Y57150D01*
X334273Y57092D01*
X334271Y57034D01*
X334293Y56952D01*
X334305Y56869D01*
X334329Y56815D01*
X334343Y56759D01*
X334386Y56686D01*
X334421Y56609D01*
X334459Y56564D01*
X334489Y56514D01*
X334550Y56456D01*
X334605Y56392D01*
X334653Y56360D01*
X334696Y56320D01*
X334771Y56281D01*
X334841Y56235D01*
X334897Y56217D01*
X334949Y56190D01*
X335017Y56179D01*
X335112Y56149D01*
X335212Y56146D01*
X335280Y56135D01*
X370840Y56135D01*
X370898Y56143D01*
G37*
D10*
X93980Y61570D03*
X93980Y42570D03*
D11*
X192380Y43180D03*
X173380Y43180D03*
D12*
X379410Y65630D03*
X379410Y109630D03*
D13*
X297160Y64630D03*
X297160Y87630D03*
X297160Y110630D03*
D14*
X358160Y87630D03*
D15*
X270510Y138490D03*
X270510Y110490D03*
X270510Y43120D03*
X270510Y71120D03*
D16*
X17780Y144780D03*
X17780Y119380D03*
X17780Y93980D03*
X17780Y68580D03*
X17780Y43180D03*
X45720Y168910D03*
X71120Y168910D03*
X96520Y168910D03*
X121920Y168910D03*
X147320Y168910D03*
X172720Y168910D03*
X198120Y168910D03*
X223520Y168910D03*
X248920Y168910D03*
X274320Y168910D03*
X274320Y16510D03*
X248920Y16510D03*
X223520Y16510D03*
X198120Y16510D03*
X172720Y16510D03*
X147320Y16510D03*
X121920Y16510D03*
X96520Y16510D03*
X71120Y16510D03*
X45720Y16510D03*
X299720Y16510D03*
X325120Y16510D03*
X299720Y168910D03*
X325120Y168910D03*
D17*
X89916Y130810D03*
X98044Y130810D03*
D10*
X200660Y127610D03*
X200660Y108610D03*
D11*
X175870Y131380D03*
X175870Y107380D03*
X156870Y107380D03*
X156870Y131380D03*
D10*
X93980Y83210D03*
X93980Y102210D03*
D11*
X398120Y163830D03*
X379120Y163830D03*
D18*
X384490Y87630D03*
X313370Y87630D03*
X73660Y78740D03*
X219809Y62230D03*
X401320Y87630D03*
X383540Y135890D03*
X401320Y113030D03*
X414020Y100330D03*
X426720Y87630D03*
X426720Y113030D03*
X426720Y62230D03*
X414020Y74930D03*
X401320Y62230D03*
X383540Y40640D03*
X160020Y90170D03*
X166596Y58528D03*
X35240Y128270D03*
X333560Y44260D03*
X111760Y109220D03*
X323850Y55880D03*
X111562Y85090D03*
X331470Y135890D03*
X188375Y59464D03*
X219710Y74930D03*
X124460Y120650D03*
X162391Y148364D03*
X125730Y90170D03*
X73660Y92710D03*
X187680Y90450D03*
X143510Y90170D03*
X198120Y76200D03*
X204090Y59610D03*
X110490Y134620D03*
X73302Y108994D03*
X74930Y139700D03*
X334010Y152400D03*
M02*
