G04 EAGLE Gerber RS-274X export*
G75*
%MOMM*%
%FSLAX34Y34*%
%LPD*%
%INBottom Copper*%
%IPPOS*%
%AMOC8*
5,1,8,0,0,1.08239X$1,22.5*%
G01*
%ADD10R,1.500000X1.300000*%
%ADD11R,1.300000X1.500000*%
%ADD12R,1.900000X0.900000*%
%ADD13R,1.900000X3.200000*%
%ADD14R,1.800000X1.600000*%
%ADD15C,1.879600*%
%ADD16R,0.635000X1.270000*%
%ADD17C,0.406400*%
%ADD18C,0.858000*%
%ADD19C,0.203200*%
%ADD20C,0.254000*%

G36*
X435542Y2549D02*
X435542Y2549D01*
X435600Y2547D01*
X435682Y2569D01*
X435766Y2581D01*
X435819Y2604D01*
X435875Y2619D01*
X435948Y2662D01*
X436025Y2697D01*
X436070Y2735D01*
X436120Y2764D01*
X436178Y2826D01*
X436242Y2880D01*
X436274Y2929D01*
X436314Y2972D01*
X436353Y3047D01*
X436400Y3117D01*
X436417Y3173D01*
X436444Y3225D01*
X436455Y3293D01*
X436485Y3388D01*
X436488Y3488D01*
X436499Y3556D01*
X436499Y182474D01*
X436491Y182532D01*
X436493Y182590D01*
X436471Y182672D01*
X436459Y182756D01*
X436436Y182809D01*
X436421Y182865D01*
X436378Y182938D01*
X436343Y183015D01*
X436305Y183060D01*
X436276Y183110D01*
X436214Y183168D01*
X436160Y183232D01*
X436111Y183264D01*
X436068Y183304D01*
X435993Y183343D01*
X435923Y183390D01*
X435867Y183407D01*
X435815Y183434D01*
X435747Y183445D01*
X435652Y183475D01*
X435552Y183478D01*
X435484Y183489D01*
X3556Y183489D01*
X3498Y183481D01*
X3440Y183483D01*
X3358Y183461D01*
X3274Y183449D01*
X3221Y183426D01*
X3165Y183411D01*
X3092Y183368D01*
X3015Y183333D01*
X2970Y183295D01*
X2920Y183266D01*
X2862Y183204D01*
X2798Y183150D01*
X2766Y183101D01*
X2726Y183058D01*
X2687Y182983D01*
X2640Y182913D01*
X2623Y182857D01*
X2596Y182805D01*
X2585Y182737D01*
X2555Y182642D01*
X2552Y182542D01*
X2541Y182474D01*
X2541Y3556D01*
X2549Y3498D01*
X2547Y3440D01*
X2569Y3358D01*
X2581Y3274D01*
X2604Y3221D01*
X2619Y3165D01*
X2662Y3092D01*
X2697Y3015D01*
X2735Y2970D01*
X2764Y2920D01*
X2826Y2862D01*
X2880Y2798D01*
X2929Y2766D01*
X2972Y2726D01*
X3047Y2687D01*
X3117Y2640D01*
X3173Y2623D01*
X3225Y2596D01*
X3293Y2585D01*
X3388Y2555D01*
X3488Y2552D01*
X3556Y2541D01*
X435484Y2541D01*
X435542Y2549D01*
G37*
%LPC*%
G36*
X175411Y34409D02*
X175411Y34409D01*
X175411Y43434D01*
X175403Y43492D01*
X175404Y43550D01*
X175383Y43632D01*
X175371Y43715D01*
X175347Y43769D01*
X175333Y43825D01*
X175290Y43898D01*
X175255Y43975D01*
X175217Y44019D01*
X175187Y44070D01*
X175126Y44127D01*
X175071Y44192D01*
X175023Y44224D01*
X174980Y44264D01*
X174905Y44303D01*
X174835Y44349D01*
X174779Y44367D01*
X174727Y44394D01*
X174659Y44405D01*
X174564Y44435D01*
X174464Y44438D01*
X174396Y44449D01*
X173379Y44449D01*
X173379Y44451D01*
X174396Y44451D01*
X174454Y44459D01*
X174512Y44458D01*
X174594Y44479D01*
X174677Y44491D01*
X174731Y44515D01*
X174787Y44529D01*
X174860Y44572D01*
X174937Y44607D01*
X174981Y44645D01*
X175032Y44675D01*
X175089Y44736D01*
X175154Y44791D01*
X175186Y44839D01*
X175226Y44882D01*
X175265Y44957D01*
X175311Y45027D01*
X175329Y45083D01*
X175356Y45135D01*
X175367Y45203D01*
X175397Y45298D01*
X175400Y45398D01*
X175411Y45466D01*
X175411Y54491D01*
X180214Y54491D01*
X180861Y54318D01*
X181282Y54074D01*
X181291Y54071D01*
X181299Y54065D01*
X181423Y54017D01*
X181546Y53968D01*
X181556Y53967D01*
X181565Y53963D01*
X181697Y53952D01*
X181828Y53939D01*
X181838Y53941D01*
X181848Y53940D01*
X181978Y53966D01*
X182108Y53990D01*
X182117Y53994D01*
X182127Y53996D01*
X182245Y54057D01*
X182363Y54116D01*
X182370Y54122D01*
X182379Y54127D01*
X182476Y54219D01*
X182573Y54307D01*
X182578Y54316D01*
X182585Y54323D01*
X182652Y54437D01*
X182721Y54550D01*
X182724Y54560D01*
X182729Y54568D01*
X182761Y54696D01*
X182797Y54824D01*
X182797Y54834D01*
X182799Y54844D01*
X182795Y54976D01*
X182793Y55108D01*
X182790Y55118D01*
X182790Y55128D01*
X182749Y55254D01*
X182711Y55380D01*
X182705Y55389D01*
X182702Y55398D01*
X182669Y55445D01*
X182606Y55543D01*
X181544Y58105D01*
X181544Y60823D01*
X182589Y63344D01*
X182644Y63427D01*
X182712Y63517D01*
X182722Y63545D01*
X182739Y63569D01*
X182773Y63677D01*
X182813Y63783D01*
X182816Y63812D01*
X182824Y63840D01*
X182827Y63953D01*
X182837Y64066D01*
X182831Y64095D01*
X182832Y64124D01*
X182803Y64234D01*
X182781Y64345D01*
X182767Y64371D01*
X182760Y64399D01*
X182702Y64497D01*
X182650Y64597D01*
X182630Y64619D01*
X182615Y64644D01*
X182532Y64721D01*
X182454Y64803D01*
X182429Y64818D01*
X182407Y64838D01*
X182306Y64890D01*
X182209Y64947D01*
X182180Y64954D01*
X182154Y64968D01*
X182077Y64981D01*
X181933Y65017D01*
X181871Y65015D01*
X181823Y65023D01*
X164454Y65023D01*
X164367Y65011D01*
X164280Y65008D01*
X164227Y64991D01*
X164172Y64983D01*
X164092Y64948D01*
X164009Y64921D01*
X163970Y64893D01*
X163913Y64867D01*
X163800Y64771D01*
X163736Y64726D01*
X160064Y61054D01*
X160012Y60984D01*
X159952Y60920D01*
X159926Y60871D01*
X159893Y60827D01*
X159862Y60745D01*
X159822Y60667D01*
X159814Y60620D01*
X159792Y60561D01*
X159780Y60414D01*
X159767Y60336D01*
X159767Y57324D01*
X159774Y57272D01*
X159773Y57248D01*
X159779Y57225D01*
X159782Y57150D01*
X159799Y57097D01*
X159807Y57042D01*
X159842Y56963D01*
X159869Y56879D01*
X159897Y56840D01*
X159923Y56783D01*
X160019Y56670D01*
X160064Y56606D01*
X162001Y54669D01*
X162681Y53026D01*
X162735Y52936D01*
X162782Y52841D01*
X162807Y52813D01*
X162826Y52781D01*
X162902Y52709D01*
X162973Y52631D01*
X163005Y52612D01*
X163033Y52586D01*
X163126Y52538D01*
X163216Y52483D01*
X163252Y52473D01*
X163285Y52456D01*
X163389Y52435D01*
X163490Y52408D01*
X163528Y52408D01*
X163564Y52401D01*
X163669Y52410D01*
X163774Y52411D01*
X163810Y52422D01*
X163848Y52425D01*
X163946Y52463D01*
X164046Y52493D01*
X164078Y52514D01*
X164113Y52527D01*
X164197Y52591D01*
X164285Y52648D01*
X164306Y52674D01*
X164340Y52699D01*
X164460Y52860D01*
X164499Y52907D01*
X164847Y53510D01*
X165320Y53983D01*
X165899Y54318D01*
X166546Y54491D01*
X171349Y54491D01*
X171349Y46481D01*
X164339Y46481D01*
X164339Y47472D01*
X164327Y47557D01*
X164325Y47643D01*
X164307Y47697D01*
X164299Y47754D01*
X164264Y47832D01*
X164238Y47914D01*
X164206Y47961D01*
X164183Y48013D01*
X164128Y48079D01*
X164080Y48150D01*
X164036Y48187D01*
X164000Y48230D01*
X163928Y48278D01*
X163862Y48333D01*
X163810Y48356D01*
X163763Y48388D01*
X163681Y48414D01*
X163602Y48449D01*
X163546Y48456D01*
X163492Y48474D01*
X163406Y48476D01*
X163321Y48488D01*
X163265Y48479D01*
X163208Y48481D01*
X163125Y48459D01*
X163039Y48447D01*
X162988Y48423D01*
X162933Y48409D01*
X162859Y48365D01*
X162780Y48330D01*
X162737Y48293D01*
X162688Y48264D01*
X162629Y48201D01*
X162564Y48145D01*
X162538Y48104D01*
X162494Y48056D01*
X162428Y47927D01*
X162386Y47861D01*
X162001Y46931D01*
X160079Y45009D01*
X157569Y43969D01*
X154851Y43969D01*
X152341Y45009D01*
X150419Y46931D01*
X149917Y48144D01*
X149901Y48171D01*
X149891Y48200D01*
X149846Y48264D01*
X149772Y48389D01*
X149725Y48433D01*
X149696Y48474D01*
X143858Y54312D01*
X143788Y54364D01*
X143724Y54424D01*
X143675Y54450D01*
X143631Y54483D01*
X143549Y54514D01*
X143471Y54554D01*
X143424Y54562D01*
X143365Y54584D01*
X143218Y54596D01*
X143140Y54609D01*
X131409Y54609D01*
X129920Y56098D01*
X129920Y58928D01*
X129912Y58986D01*
X129914Y59044D01*
X129892Y59126D01*
X129880Y59210D01*
X129857Y59263D01*
X129842Y59319D01*
X129799Y59392D01*
X129764Y59469D01*
X129726Y59514D01*
X129697Y59564D01*
X129635Y59622D01*
X129581Y59686D01*
X129532Y59718D01*
X129489Y59758D01*
X129414Y59797D01*
X129344Y59844D01*
X129288Y59861D01*
X129236Y59888D01*
X129168Y59899D01*
X129073Y59929D01*
X128973Y59932D01*
X128905Y59943D01*
X121156Y59943D01*
X121098Y59935D01*
X121040Y59937D01*
X120958Y59915D01*
X120874Y59903D01*
X120821Y59880D01*
X120765Y59865D01*
X120692Y59822D01*
X120615Y59787D01*
X120570Y59749D01*
X120520Y59720D01*
X120462Y59658D01*
X120398Y59604D01*
X120366Y59555D01*
X120326Y59512D01*
X120287Y59437D01*
X120240Y59367D01*
X120223Y59311D01*
X120196Y59259D01*
X120185Y59191D01*
X120155Y59096D01*
X120152Y58996D01*
X120141Y58928D01*
X120141Y54948D01*
X118652Y53459D01*
X103548Y53459D01*
X102318Y54689D01*
X102271Y54724D01*
X102231Y54767D01*
X102158Y54809D01*
X102091Y54860D01*
X102036Y54881D01*
X101986Y54910D01*
X101904Y54931D01*
X101825Y54961D01*
X101767Y54966D01*
X101710Y54980D01*
X101626Y54978D01*
X101542Y54985D01*
X101484Y54973D01*
X101426Y54971D01*
X101346Y54945D01*
X101263Y54929D01*
X101211Y54902D01*
X101155Y54884D01*
X101099Y54844D01*
X101011Y54798D01*
X100938Y54729D01*
X100882Y54689D01*
X99652Y53459D01*
X84548Y53459D01*
X83059Y54948D01*
X83059Y58928D01*
X83051Y58986D01*
X83053Y59044D01*
X83031Y59126D01*
X83019Y59210D01*
X82996Y59263D01*
X82981Y59319D01*
X82938Y59392D01*
X82903Y59469D01*
X82865Y59514D01*
X82836Y59564D01*
X82774Y59622D01*
X82720Y59686D01*
X82671Y59718D01*
X82628Y59758D01*
X82553Y59797D01*
X82483Y59844D01*
X82427Y59861D01*
X82375Y59888D01*
X82307Y59899D01*
X82212Y59929D01*
X82112Y59932D01*
X82044Y59943D01*
X67934Y59943D01*
X67847Y59931D01*
X67760Y59928D01*
X67707Y59911D01*
X67652Y59903D01*
X67572Y59868D01*
X67489Y59841D01*
X67450Y59813D01*
X67393Y59787D01*
X67280Y59691D01*
X67216Y59646D01*
X52273Y44703D01*
X23927Y44703D01*
X23840Y44790D01*
X23839Y44791D01*
X23838Y44792D01*
X23730Y44872D01*
X23613Y44960D01*
X23612Y44961D01*
X23611Y44962D01*
X23484Y45010D01*
X23348Y45062D01*
X23346Y45062D01*
X23345Y45062D01*
X23207Y45073D01*
X23064Y45085D01*
X23063Y45085D01*
X23061Y45085D01*
X23046Y45082D01*
X22786Y45029D01*
X22758Y45015D01*
X22734Y45010D01*
X20155Y43941D01*
X15405Y43941D01*
X11017Y45759D01*
X7659Y49117D01*
X5841Y53505D01*
X5841Y58255D01*
X7659Y62643D01*
X11017Y66001D01*
X14979Y67642D01*
X15004Y67657D01*
X15032Y67666D01*
X15126Y67729D01*
X15223Y67787D01*
X15244Y67808D01*
X15268Y67824D01*
X15341Y67911D01*
X15419Y67993D01*
X15432Y68019D01*
X15451Y68042D01*
X15497Y68145D01*
X15549Y68246D01*
X15554Y68275D01*
X15566Y68302D01*
X15582Y68414D01*
X15604Y68525D01*
X15601Y68554D01*
X15605Y68583D01*
X15589Y68695D01*
X15579Y68808D01*
X15569Y68835D01*
X15565Y68865D01*
X15518Y68968D01*
X15477Y69073D01*
X15460Y69097D01*
X15448Y69124D01*
X15374Y69210D01*
X15306Y69300D01*
X15282Y69318D01*
X15263Y69340D01*
X15197Y69382D01*
X15078Y69470D01*
X15019Y69492D01*
X14979Y69518D01*
X11017Y71159D01*
X7659Y74517D01*
X5841Y78905D01*
X5841Y83655D01*
X7659Y88043D01*
X11017Y91401D01*
X15135Y93107D01*
X15170Y93127D01*
X15208Y93140D01*
X15232Y93158D01*
X15259Y93168D01*
X15315Y93213D01*
X15380Y93251D01*
X15408Y93281D01*
X15441Y93304D01*
X15460Y93327D01*
X15482Y93345D01*
X15523Y93403D01*
X15575Y93458D01*
X15594Y93494D01*
X15619Y93525D01*
X15631Y93553D01*
X15647Y93576D01*
X15671Y93643D01*
X15706Y93711D01*
X15713Y93750D01*
X15729Y93787D01*
X15732Y93818D01*
X15742Y93844D01*
X15746Y93915D01*
X15761Y93990D01*
X15757Y94030D01*
X15762Y94070D01*
X15757Y94100D01*
X15758Y94128D01*
X15743Y94197D01*
X15736Y94273D01*
X15722Y94310D01*
X15715Y94350D01*
X15702Y94378D01*
X15696Y94405D01*
X15661Y94468D01*
X15634Y94538D01*
X15610Y94570D01*
X15593Y94606D01*
X15572Y94629D01*
X15559Y94654D01*
X15508Y94705D01*
X15463Y94765D01*
X15431Y94789D01*
X15404Y94819D01*
X15378Y94835D01*
X15358Y94855D01*
X15304Y94884D01*
X15235Y94935D01*
X15197Y94949D01*
X15164Y94971D01*
X15109Y94985D01*
X15060Y95011D01*
X13197Y95616D01*
X11523Y96469D01*
X10002Y97574D01*
X8674Y98902D01*
X7569Y100423D01*
X6716Y102097D01*
X6135Y103884D01*
X6014Y104649D01*
X16764Y104649D01*
X16822Y104657D01*
X16880Y104655D01*
X16962Y104677D01*
X17045Y104689D01*
X17099Y104713D01*
X17155Y104727D01*
X17228Y104770D01*
X17305Y104805D01*
X17349Y104843D01*
X17400Y104873D01*
X17457Y104934D01*
X17522Y104989D01*
X17554Y105037D01*
X17594Y105080D01*
X17633Y105155D01*
X17679Y105225D01*
X17697Y105281D01*
X17724Y105333D01*
X17735Y105401D01*
X17765Y105496D01*
X17768Y105596D01*
X17779Y105664D01*
X17779Y107696D01*
X17771Y107754D01*
X17772Y107812D01*
X17751Y107894D01*
X17739Y107977D01*
X17715Y108031D01*
X17701Y108087D01*
X17658Y108160D01*
X17623Y108237D01*
X17585Y108282D01*
X17555Y108332D01*
X17494Y108390D01*
X17439Y108454D01*
X17391Y108486D01*
X17348Y108526D01*
X17273Y108565D01*
X17203Y108611D01*
X17147Y108629D01*
X17095Y108656D01*
X17027Y108667D01*
X16932Y108697D01*
X16832Y108700D01*
X16764Y108711D01*
X6014Y108711D01*
X6135Y109476D01*
X6716Y111263D01*
X7569Y112937D01*
X8674Y114458D01*
X10002Y115786D01*
X11523Y116891D01*
X13197Y117744D01*
X15060Y118349D01*
X15086Y118362D01*
X15116Y118369D01*
X15151Y118389D01*
X15189Y118401D01*
X15251Y118442D01*
X15316Y118474D01*
X15337Y118494D01*
X15363Y118508D01*
X15392Y118537D01*
X15425Y118559D01*
X15473Y118617D01*
X15527Y118665D01*
X15541Y118689D01*
X15563Y118711D01*
X15582Y118746D01*
X15608Y118777D01*
X15639Y118846D01*
X15676Y118907D01*
X15684Y118934D01*
X15698Y118961D01*
X15707Y119000D01*
X15723Y119037D01*
X15734Y119112D01*
X15753Y119181D01*
X15753Y119208D01*
X15759Y119239D01*
X15757Y119279D01*
X15762Y119318D01*
X15751Y119394D01*
X15751Y119465D01*
X15743Y119491D01*
X15741Y119522D01*
X15727Y119560D01*
X15721Y119600D01*
X15690Y119669D01*
X15670Y119737D01*
X15655Y119761D01*
X15644Y119790D01*
X15621Y119822D01*
X15604Y119859D01*
X15555Y119916D01*
X15517Y119977D01*
X15495Y119995D01*
X15478Y120020D01*
X15446Y120045D01*
X15420Y120075D01*
X15366Y120109D01*
X15303Y120164D01*
X15277Y120176D01*
X15254Y120195D01*
X15183Y120223D01*
X15135Y120253D01*
X11017Y121959D01*
X7659Y125317D01*
X5841Y129705D01*
X5841Y134455D01*
X7659Y138843D01*
X11017Y142201D01*
X15405Y144019D01*
X20155Y144019D01*
X24543Y142201D01*
X26799Y139945D01*
X26846Y139910D01*
X26886Y139867D01*
X26959Y139825D01*
X27026Y139774D01*
X27081Y139753D01*
X27131Y139724D01*
X27213Y139703D01*
X27292Y139673D01*
X27350Y139668D01*
X27407Y139653D01*
X27491Y139656D01*
X27575Y139649D01*
X27633Y139661D01*
X27691Y139663D01*
X27771Y139688D01*
X27854Y139705D01*
X27906Y139732D01*
X27962Y139750D01*
X28018Y139790D01*
X28106Y139836D01*
X28179Y139905D01*
X28235Y139945D01*
X41481Y153191D01*
X128888Y153191D01*
X128917Y153195D01*
X128947Y153192D01*
X129058Y153215D01*
X129170Y153231D01*
X129196Y153243D01*
X129225Y153248D01*
X129326Y153300D01*
X129429Y153347D01*
X129452Y153366D01*
X129478Y153379D01*
X129560Y153457D01*
X129646Y153530D01*
X129662Y153555D01*
X129684Y153575D01*
X129741Y153673D01*
X129804Y153767D01*
X129813Y153795D01*
X129827Y153820D01*
X129855Y153930D01*
X129890Y154038D01*
X129890Y154068D01*
X129898Y154096D01*
X129894Y154209D01*
X129897Y154322D01*
X129889Y154351D01*
X129888Y154380D01*
X129854Y154488D01*
X129825Y154597D01*
X129810Y154623D01*
X129801Y154651D01*
X129756Y154714D01*
X129680Y154842D01*
X129634Y154885D01*
X129606Y154924D01*
X127082Y157448D01*
X127081Y157448D01*
X127080Y157450D01*
X126962Y157538D01*
X126855Y157618D01*
X126854Y157619D01*
X126852Y157620D01*
X126719Y157670D01*
X126590Y157720D01*
X126588Y157720D01*
X126587Y157720D01*
X126442Y157732D01*
X126306Y157743D01*
X126305Y157743D01*
X126303Y157743D01*
X126288Y157740D01*
X126028Y157687D01*
X126000Y157673D01*
X125976Y157668D01*
X124295Y156971D01*
X119545Y156971D01*
X115157Y158789D01*
X111799Y162147D01*
X110158Y166109D01*
X110143Y166134D01*
X110134Y166162D01*
X110071Y166256D01*
X110013Y166353D01*
X109992Y166374D01*
X109976Y166398D01*
X109889Y166471D01*
X109807Y166549D01*
X109781Y166562D01*
X109758Y166581D01*
X109655Y166627D01*
X109554Y166679D01*
X109525Y166685D01*
X109498Y166696D01*
X109386Y166712D01*
X109275Y166734D01*
X109246Y166731D01*
X109217Y166735D01*
X109105Y166719D01*
X108992Y166709D01*
X108965Y166699D01*
X108935Y166695D01*
X108832Y166648D01*
X108727Y166607D01*
X108703Y166590D01*
X108676Y166578D01*
X108590Y166504D01*
X108500Y166436D01*
X108482Y166412D01*
X108460Y166393D01*
X108418Y166327D01*
X108330Y166208D01*
X108308Y166150D01*
X108282Y166109D01*
X106641Y162147D01*
X103283Y158789D01*
X98895Y156971D01*
X94145Y156971D01*
X89757Y158789D01*
X86399Y162147D01*
X84758Y166109D01*
X84743Y166134D01*
X84734Y166162D01*
X84671Y166256D01*
X84613Y166353D01*
X84592Y166374D01*
X84576Y166398D01*
X84489Y166471D01*
X84407Y166549D01*
X84381Y166562D01*
X84358Y166581D01*
X84255Y166627D01*
X84154Y166679D01*
X84125Y166685D01*
X84098Y166696D01*
X83986Y166712D01*
X83875Y166734D01*
X83846Y166731D01*
X83817Y166735D01*
X83705Y166719D01*
X83592Y166709D01*
X83565Y166699D01*
X83535Y166695D01*
X83432Y166648D01*
X83327Y166607D01*
X83303Y166590D01*
X83276Y166578D01*
X83190Y166504D01*
X83100Y166436D01*
X83082Y166412D01*
X83060Y166393D01*
X83018Y166327D01*
X82930Y166208D01*
X82908Y166150D01*
X82882Y166109D01*
X81241Y162147D01*
X77883Y158789D01*
X73495Y156971D01*
X68745Y156971D01*
X64357Y158789D01*
X60999Y162147D01*
X59358Y166109D01*
X59343Y166134D01*
X59334Y166162D01*
X59271Y166256D01*
X59213Y166353D01*
X59192Y166374D01*
X59176Y166398D01*
X59089Y166471D01*
X59007Y166549D01*
X58981Y166562D01*
X58958Y166581D01*
X58855Y166627D01*
X58754Y166679D01*
X58725Y166685D01*
X58698Y166696D01*
X58586Y166712D01*
X58475Y166734D01*
X58446Y166731D01*
X58417Y166735D01*
X58305Y166719D01*
X58192Y166709D01*
X58165Y166699D01*
X58135Y166695D01*
X58032Y166648D01*
X57927Y166607D01*
X57903Y166590D01*
X57876Y166578D01*
X57790Y166504D01*
X57700Y166436D01*
X57682Y166412D01*
X57660Y166393D01*
X57618Y166327D01*
X57530Y166208D01*
X57508Y166150D01*
X57482Y166109D01*
X55841Y162147D01*
X52483Y158789D01*
X48095Y156971D01*
X43345Y156971D01*
X38957Y158789D01*
X35599Y162147D01*
X33958Y166109D01*
X33943Y166134D01*
X33934Y166162D01*
X33871Y166256D01*
X33813Y166353D01*
X33792Y166374D01*
X33776Y166398D01*
X33689Y166471D01*
X33607Y166549D01*
X33581Y166562D01*
X33558Y166581D01*
X33455Y166627D01*
X33354Y166679D01*
X33325Y166685D01*
X33298Y166696D01*
X33186Y166712D01*
X33075Y166734D01*
X33046Y166731D01*
X33017Y166735D01*
X32905Y166719D01*
X32792Y166709D01*
X32765Y166699D01*
X32736Y166695D01*
X32632Y166648D01*
X32527Y166607D01*
X32503Y166590D01*
X32476Y166578D01*
X32390Y166504D01*
X32300Y166436D01*
X32282Y166412D01*
X32260Y166393D01*
X32218Y166327D01*
X32130Y166208D01*
X32108Y166150D01*
X32082Y166109D01*
X30441Y162147D01*
X27083Y158789D01*
X22695Y156971D01*
X17945Y156971D01*
X13557Y158789D01*
X10199Y162147D01*
X8381Y166535D01*
X8381Y171285D01*
X10199Y175673D01*
X13557Y179031D01*
X17945Y180849D01*
X22695Y180849D01*
X27083Y179031D01*
X30441Y175673D01*
X32082Y171711D01*
X32097Y171686D01*
X32106Y171658D01*
X32169Y171564D01*
X32227Y171467D01*
X32248Y171446D01*
X32264Y171422D01*
X32351Y171349D01*
X32433Y171271D01*
X32459Y171258D01*
X32482Y171239D01*
X32585Y171193D01*
X32686Y171141D01*
X32715Y171135D01*
X32742Y171124D01*
X32854Y171108D01*
X32965Y171086D01*
X32994Y171089D01*
X33023Y171085D01*
X33135Y171101D01*
X33248Y171111D01*
X33275Y171121D01*
X33305Y171125D01*
X33408Y171172D01*
X33513Y171213D01*
X33537Y171230D01*
X33564Y171242D01*
X33650Y171316D01*
X33740Y171384D01*
X33758Y171408D01*
X33780Y171427D01*
X33822Y171493D01*
X33910Y171612D01*
X33932Y171670D01*
X33958Y171711D01*
X35599Y175673D01*
X38957Y179031D01*
X43345Y180849D01*
X48095Y180849D01*
X52483Y179031D01*
X55841Y175673D01*
X57482Y171711D01*
X57497Y171686D01*
X57506Y171658D01*
X57569Y171564D01*
X57627Y171467D01*
X57648Y171446D01*
X57664Y171422D01*
X57751Y171349D01*
X57833Y171271D01*
X57859Y171258D01*
X57882Y171239D01*
X57985Y171193D01*
X58086Y171141D01*
X58115Y171135D01*
X58142Y171124D01*
X58254Y171108D01*
X58365Y171086D01*
X58394Y171089D01*
X58423Y171085D01*
X58535Y171101D01*
X58648Y171111D01*
X58675Y171121D01*
X58704Y171125D01*
X58808Y171172D01*
X58913Y171213D01*
X58937Y171230D01*
X58964Y171242D01*
X59050Y171316D01*
X59140Y171384D01*
X59158Y171408D01*
X59180Y171427D01*
X59222Y171493D01*
X59310Y171612D01*
X59332Y171670D01*
X59358Y171711D01*
X60999Y175673D01*
X64357Y179031D01*
X68745Y180849D01*
X73495Y180849D01*
X77883Y179031D01*
X81241Y175673D01*
X82882Y171711D01*
X82897Y171686D01*
X82906Y171658D01*
X82969Y171564D01*
X83027Y171467D01*
X83048Y171446D01*
X83064Y171422D01*
X83151Y171349D01*
X83233Y171271D01*
X83259Y171258D01*
X83282Y171239D01*
X83385Y171193D01*
X83486Y171141D01*
X83515Y171135D01*
X83542Y171124D01*
X83654Y171108D01*
X83765Y171086D01*
X83794Y171089D01*
X83823Y171085D01*
X83935Y171101D01*
X84048Y171111D01*
X84075Y171121D01*
X84104Y171125D01*
X84208Y171172D01*
X84313Y171213D01*
X84337Y171230D01*
X84364Y171242D01*
X84450Y171316D01*
X84540Y171384D01*
X84558Y171408D01*
X84580Y171427D01*
X84622Y171493D01*
X84710Y171612D01*
X84732Y171670D01*
X84758Y171711D01*
X86399Y175673D01*
X89757Y179031D01*
X94145Y180849D01*
X98895Y180849D01*
X103283Y179031D01*
X106641Y175673D01*
X108282Y171711D01*
X108297Y171686D01*
X108306Y171658D01*
X108369Y171564D01*
X108427Y171467D01*
X108448Y171446D01*
X108464Y171422D01*
X108551Y171349D01*
X108633Y171271D01*
X108659Y171258D01*
X108682Y171239D01*
X108785Y171193D01*
X108886Y171141D01*
X108915Y171135D01*
X108942Y171124D01*
X109054Y171108D01*
X109165Y171086D01*
X109194Y171089D01*
X109223Y171085D01*
X109335Y171101D01*
X109448Y171111D01*
X109475Y171121D01*
X109504Y171125D01*
X109608Y171172D01*
X109713Y171213D01*
X109737Y171230D01*
X109764Y171242D01*
X109850Y171316D01*
X109940Y171384D01*
X109958Y171408D01*
X109980Y171427D01*
X110022Y171493D01*
X110110Y171612D01*
X110132Y171670D01*
X110158Y171711D01*
X111799Y175673D01*
X115157Y179031D01*
X119545Y180849D01*
X124295Y180849D01*
X128683Y179031D01*
X132041Y175673D01*
X133682Y171711D01*
X133697Y171686D01*
X133706Y171658D01*
X133769Y171564D01*
X133827Y171467D01*
X133848Y171446D01*
X133864Y171422D01*
X133951Y171349D01*
X134033Y171271D01*
X134059Y171258D01*
X134082Y171239D01*
X134185Y171193D01*
X134286Y171141D01*
X134315Y171135D01*
X134342Y171124D01*
X134454Y171108D01*
X134565Y171086D01*
X134594Y171089D01*
X134623Y171085D01*
X134735Y171101D01*
X134848Y171111D01*
X134875Y171121D01*
X134904Y171125D01*
X135008Y171172D01*
X135113Y171213D01*
X135137Y171230D01*
X135164Y171242D01*
X135250Y171316D01*
X135340Y171384D01*
X135358Y171408D01*
X135380Y171427D01*
X135422Y171493D01*
X135510Y171612D01*
X135532Y171670D01*
X135558Y171711D01*
X137199Y175673D01*
X140557Y179031D01*
X144945Y180849D01*
X149695Y180849D01*
X154083Y179031D01*
X157441Y175673D01*
X159082Y171711D01*
X159097Y171686D01*
X159106Y171658D01*
X159169Y171564D01*
X159227Y171467D01*
X159248Y171446D01*
X159264Y171422D01*
X159351Y171349D01*
X159433Y171271D01*
X159459Y171258D01*
X159482Y171239D01*
X159585Y171193D01*
X159686Y171141D01*
X159715Y171135D01*
X159742Y171124D01*
X159854Y171108D01*
X159965Y171086D01*
X159994Y171089D01*
X160023Y171085D01*
X160135Y171101D01*
X160248Y171111D01*
X160275Y171121D01*
X160304Y171125D01*
X160408Y171172D01*
X160513Y171213D01*
X160537Y171230D01*
X160564Y171242D01*
X160650Y171316D01*
X160740Y171384D01*
X160758Y171408D01*
X160780Y171427D01*
X160822Y171493D01*
X160910Y171612D01*
X160932Y171670D01*
X160958Y171711D01*
X162599Y175673D01*
X165957Y179031D01*
X170345Y180849D01*
X175095Y180849D01*
X179483Y179031D01*
X182841Y175673D01*
X184482Y171711D01*
X184497Y171686D01*
X184506Y171658D01*
X184569Y171564D01*
X184627Y171467D01*
X184648Y171446D01*
X184664Y171422D01*
X184751Y171349D01*
X184833Y171271D01*
X184859Y171258D01*
X184882Y171239D01*
X184985Y171193D01*
X185086Y171141D01*
X185115Y171135D01*
X185142Y171124D01*
X185254Y171108D01*
X185365Y171086D01*
X185394Y171089D01*
X185423Y171085D01*
X185535Y171101D01*
X185648Y171111D01*
X185675Y171121D01*
X185704Y171125D01*
X185808Y171172D01*
X185913Y171213D01*
X185937Y171230D01*
X185964Y171242D01*
X186050Y171316D01*
X186140Y171384D01*
X186158Y171408D01*
X186180Y171427D01*
X186222Y171493D01*
X186310Y171612D01*
X186332Y171670D01*
X186358Y171711D01*
X187999Y175673D01*
X191357Y179031D01*
X195745Y180849D01*
X200495Y180849D01*
X204883Y179031D01*
X208241Y175673D01*
X209882Y171711D01*
X209897Y171686D01*
X209906Y171658D01*
X209969Y171564D01*
X210027Y171467D01*
X210048Y171446D01*
X210064Y171422D01*
X210151Y171349D01*
X210233Y171271D01*
X210259Y171258D01*
X210282Y171239D01*
X210385Y171193D01*
X210486Y171141D01*
X210515Y171135D01*
X210542Y171124D01*
X210654Y171108D01*
X210765Y171086D01*
X210794Y171089D01*
X210823Y171085D01*
X210935Y171101D01*
X211048Y171111D01*
X211075Y171121D01*
X211104Y171125D01*
X211208Y171172D01*
X211313Y171213D01*
X211337Y171230D01*
X211364Y171242D01*
X211450Y171316D01*
X211540Y171384D01*
X211558Y171408D01*
X211580Y171427D01*
X211622Y171493D01*
X211710Y171612D01*
X211732Y171670D01*
X211758Y171711D01*
X213399Y175673D01*
X216757Y179031D01*
X221145Y180849D01*
X225895Y180849D01*
X230283Y179031D01*
X233641Y175673D01*
X235282Y171711D01*
X235297Y171686D01*
X235306Y171658D01*
X235369Y171564D01*
X235427Y171467D01*
X235448Y171446D01*
X235464Y171422D01*
X235551Y171349D01*
X235633Y171271D01*
X235659Y171258D01*
X235682Y171239D01*
X235785Y171193D01*
X235886Y171141D01*
X235915Y171135D01*
X235942Y171124D01*
X236054Y171108D01*
X236165Y171086D01*
X236194Y171089D01*
X236223Y171085D01*
X236335Y171101D01*
X236448Y171111D01*
X236475Y171121D01*
X236504Y171125D01*
X236608Y171172D01*
X236713Y171213D01*
X236737Y171230D01*
X236764Y171242D01*
X236850Y171316D01*
X236940Y171384D01*
X236958Y171408D01*
X236980Y171427D01*
X237022Y171493D01*
X237110Y171612D01*
X237132Y171670D01*
X237158Y171711D01*
X238799Y175673D01*
X242157Y179031D01*
X246545Y180849D01*
X251295Y180849D01*
X255683Y179031D01*
X259041Y175673D01*
X260682Y171711D01*
X260697Y171686D01*
X260706Y171658D01*
X260769Y171564D01*
X260827Y171467D01*
X260848Y171446D01*
X260864Y171422D01*
X260951Y171349D01*
X261033Y171271D01*
X261059Y171258D01*
X261082Y171239D01*
X261185Y171193D01*
X261286Y171141D01*
X261315Y171135D01*
X261342Y171124D01*
X261454Y171108D01*
X261565Y171086D01*
X261594Y171089D01*
X261623Y171085D01*
X261735Y171101D01*
X261848Y171111D01*
X261875Y171121D01*
X261904Y171125D01*
X262008Y171172D01*
X262113Y171213D01*
X262137Y171230D01*
X262164Y171242D01*
X262250Y171316D01*
X262340Y171384D01*
X262358Y171408D01*
X262380Y171427D01*
X262422Y171493D01*
X262510Y171612D01*
X262532Y171670D01*
X262558Y171711D01*
X264199Y175673D01*
X267557Y179031D01*
X271945Y180849D01*
X276695Y180849D01*
X281083Y179031D01*
X284441Y175673D01*
X286147Y171555D01*
X286167Y171520D01*
X286180Y171482D01*
X286198Y171458D01*
X286208Y171431D01*
X286253Y171375D01*
X286291Y171310D01*
X286321Y171282D01*
X286344Y171249D01*
X286367Y171230D01*
X286385Y171208D01*
X286443Y171167D01*
X286498Y171115D01*
X286534Y171096D01*
X286565Y171071D01*
X286593Y171059D01*
X286616Y171043D01*
X286683Y171019D01*
X286751Y170984D01*
X286790Y170977D01*
X286827Y170961D01*
X286858Y170958D01*
X286884Y170948D01*
X286955Y170944D01*
X287030Y170929D01*
X287070Y170933D01*
X287110Y170928D01*
X287140Y170933D01*
X287168Y170932D01*
X287237Y170947D01*
X287313Y170954D01*
X287350Y170968D01*
X287390Y170975D01*
X287418Y170988D01*
X287445Y170994D01*
X287508Y171029D01*
X287578Y171056D01*
X287610Y171080D01*
X287646Y171097D01*
X287669Y171118D01*
X287694Y171131D01*
X287745Y171182D01*
X287805Y171227D01*
X287829Y171259D01*
X287859Y171286D01*
X287875Y171312D01*
X287895Y171332D01*
X287924Y171386D01*
X287975Y171455D01*
X287989Y171493D01*
X288011Y171526D01*
X288025Y171581D01*
X288051Y171630D01*
X288656Y173493D01*
X289509Y175167D01*
X290614Y176688D01*
X291942Y178016D01*
X293463Y179121D01*
X295137Y179974D01*
X296924Y180555D01*
X297689Y180676D01*
X297689Y169926D01*
X297697Y169868D01*
X297695Y169810D01*
X297717Y169728D01*
X297729Y169645D01*
X297753Y169591D01*
X297767Y169535D01*
X297810Y169462D01*
X297845Y169385D01*
X297883Y169341D01*
X297913Y169290D01*
X297974Y169233D01*
X298029Y169168D01*
X298077Y169136D01*
X298120Y169096D01*
X298195Y169057D01*
X298265Y169011D01*
X298321Y168993D01*
X298373Y168966D01*
X298441Y168955D01*
X298536Y168925D01*
X298636Y168922D01*
X298704Y168911D01*
X299721Y168911D01*
X299721Y168909D01*
X298704Y168909D01*
X298646Y168901D01*
X298588Y168902D01*
X298506Y168881D01*
X298423Y168869D01*
X298369Y168845D01*
X298313Y168831D01*
X298240Y168788D01*
X298163Y168753D01*
X298118Y168715D01*
X298068Y168685D01*
X298010Y168624D01*
X297946Y168569D01*
X297914Y168521D01*
X297874Y168478D01*
X297835Y168403D01*
X297789Y168333D01*
X297771Y168277D01*
X297744Y168225D01*
X297733Y168157D01*
X297703Y168062D01*
X297700Y167962D01*
X297689Y167894D01*
X297689Y157144D01*
X296924Y157265D01*
X295137Y157846D01*
X293463Y158699D01*
X291942Y159804D01*
X290614Y161132D01*
X289509Y162653D01*
X288656Y164327D01*
X288051Y166190D01*
X288038Y166216D01*
X288031Y166246D01*
X288011Y166281D01*
X287999Y166319D01*
X287958Y166381D01*
X287926Y166446D01*
X287906Y166467D01*
X287892Y166493D01*
X287863Y166522D01*
X287841Y166555D01*
X287783Y166603D01*
X287735Y166657D01*
X287711Y166671D01*
X287689Y166693D01*
X287654Y166712D01*
X287623Y166738D01*
X287554Y166769D01*
X287493Y166806D01*
X287466Y166814D01*
X287439Y166828D01*
X287400Y166837D01*
X287363Y166853D01*
X287288Y166864D01*
X287219Y166883D01*
X287192Y166883D01*
X287161Y166889D01*
X287121Y166887D01*
X287082Y166892D01*
X287006Y166881D01*
X286935Y166881D01*
X286909Y166873D01*
X286878Y166871D01*
X286840Y166857D01*
X286800Y166851D01*
X286731Y166820D01*
X286663Y166800D01*
X286639Y166785D01*
X286610Y166774D01*
X286578Y166751D01*
X286541Y166734D01*
X286484Y166685D01*
X286423Y166647D01*
X286405Y166625D01*
X286380Y166608D01*
X286355Y166576D01*
X286325Y166550D01*
X286291Y166496D01*
X286236Y166433D01*
X286224Y166407D01*
X286205Y166384D01*
X286177Y166313D01*
X286147Y166265D01*
X284441Y162147D01*
X281083Y158789D01*
X276695Y156971D01*
X271945Y156971D01*
X267557Y158789D01*
X264199Y162147D01*
X262558Y166109D01*
X262543Y166134D01*
X262534Y166162D01*
X262471Y166256D01*
X262413Y166353D01*
X262392Y166374D01*
X262376Y166398D01*
X262289Y166471D01*
X262207Y166549D01*
X262181Y166562D01*
X262158Y166581D01*
X262055Y166627D01*
X261954Y166679D01*
X261925Y166685D01*
X261898Y166696D01*
X261786Y166712D01*
X261675Y166734D01*
X261646Y166731D01*
X261617Y166735D01*
X261505Y166719D01*
X261392Y166709D01*
X261365Y166699D01*
X261335Y166695D01*
X261232Y166648D01*
X261127Y166607D01*
X261103Y166590D01*
X261076Y166578D01*
X260990Y166504D01*
X260900Y166436D01*
X260882Y166412D01*
X260860Y166393D01*
X260818Y166327D01*
X260730Y166208D01*
X260708Y166150D01*
X260682Y166109D01*
X259041Y162147D01*
X255683Y158789D01*
X251295Y156971D01*
X246545Y156971D01*
X242157Y158789D01*
X238799Y162147D01*
X237158Y166109D01*
X237143Y166134D01*
X237134Y166162D01*
X237071Y166256D01*
X237013Y166353D01*
X236992Y166374D01*
X236976Y166398D01*
X236889Y166471D01*
X236807Y166549D01*
X236781Y166562D01*
X236758Y166581D01*
X236655Y166627D01*
X236554Y166679D01*
X236525Y166685D01*
X236498Y166696D01*
X236386Y166712D01*
X236275Y166734D01*
X236246Y166731D01*
X236217Y166735D01*
X236105Y166719D01*
X235992Y166709D01*
X235965Y166699D01*
X235935Y166695D01*
X235832Y166648D01*
X235727Y166607D01*
X235703Y166590D01*
X235676Y166578D01*
X235590Y166504D01*
X235500Y166436D01*
X235482Y166412D01*
X235460Y166393D01*
X235418Y166327D01*
X235330Y166208D01*
X235308Y166150D01*
X235282Y166109D01*
X233641Y162147D01*
X230283Y158789D01*
X225895Y156971D01*
X221145Y156971D01*
X216757Y158789D01*
X213399Y162147D01*
X211758Y166109D01*
X211743Y166134D01*
X211734Y166162D01*
X211671Y166256D01*
X211613Y166353D01*
X211592Y166374D01*
X211576Y166398D01*
X211489Y166471D01*
X211407Y166549D01*
X211381Y166562D01*
X211358Y166581D01*
X211255Y166627D01*
X211154Y166679D01*
X211125Y166685D01*
X211098Y166696D01*
X210986Y166712D01*
X210875Y166734D01*
X210846Y166731D01*
X210817Y166735D01*
X210705Y166719D01*
X210592Y166709D01*
X210565Y166699D01*
X210535Y166695D01*
X210432Y166648D01*
X210327Y166607D01*
X210303Y166590D01*
X210276Y166578D01*
X210190Y166504D01*
X210100Y166436D01*
X210082Y166412D01*
X210060Y166393D01*
X210018Y166327D01*
X209930Y166208D01*
X209908Y166150D01*
X209882Y166109D01*
X208241Y162147D01*
X204883Y158789D01*
X203238Y158107D01*
X203139Y158049D01*
X203037Y157996D01*
X203017Y157977D01*
X202993Y157963D01*
X202914Y157879D01*
X202831Y157800D01*
X202817Y157776D01*
X202798Y157756D01*
X202745Y157654D01*
X202687Y157555D01*
X202680Y157528D01*
X202668Y157504D01*
X202645Y157391D01*
X202617Y157280D01*
X202618Y157252D01*
X202613Y157225D01*
X202622Y157110D01*
X202626Y156995D01*
X202635Y156969D01*
X202637Y156941D01*
X202678Y156834D01*
X202714Y156725D01*
X202728Y156705D01*
X202739Y156676D01*
X202899Y156464D01*
X202908Y156452D01*
X223267Y136093D01*
X223267Y82724D01*
X223274Y82669D01*
X223273Y82629D01*
X223280Y82604D01*
X223282Y82550D01*
X223299Y82497D01*
X223307Y82442D01*
X223342Y82363D01*
X223369Y82279D01*
X223397Y82240D01*
X223423Y82183D01*
X223519Y82070D01*
X223564Y82006D01*
X225501Y80069D01*
X226541Y77559D01*
X226541Y74841D01*
X225501Y72331D01*
X223579Y70409D01*
X221069Y69369D01*
X218351Y69369D01*
X215841Y70409D01*
X213919Y72331D01*
X212879Y74841D01*
X212879Y77559D01*
X213919Y80069D01*
X215856Y82006D01*
X215908Y82076D01*
X215968Y82140D01*
X215994Y82189D01*
X216027Y82233D01*
X216058Y82315D01*
X216098Y82393D01*
X216106Y82440D01*
X216128Y82499D01*
X216133Y82557D01*
X216139Y82578D01*
X216141Y82652D01*
X216153Y82724D01*
X216153Y132726D01*
X216141Y132813D01*
X216138Y132900D01*
X216121Y132953D01*
X216113Y133008D01*
X216078Y133088D01*
X216051Y133171D01*
X216023Y133210D01*
X215997Y133267D01*
X215901Y133380D01*
X215856Y133444D01*
X196944Y152356D01*
X196874Y152408D01*
X196810Y152468D01*
X196761Y152494D01*
X196717Y152527D01*
X196635Y152558D01*
X196557Y152598D01*
X196510Y152606D01*
X196451Y152628D01*
X196304Y152640D01*
X196226Y152653D01*
X169528Y152653D01*
X169414Y152637D01*
X169299Y152627D01*
X169274Y152617D01*
X169246Y152613D01*
X169141Y152567D01*
X169034Y152525D01*
X169012Y152509D01*
X168987Y152497D01*
X168899Y152423D01*
X168807Y152354D01*
X168791Y152331D01*
X168770Y152314D01*
X168706Y152218D01*
X168637Y152126D01*
X168627Y152100D01*
X168612Y152077D01*
X168577Y151967D01*
X168537Y151860D01*
X168535Y151832D01*
X168526Y151806D01*
X168523Y151691D01*
X168514Y151577D01*
X168520Y151552D01*
X168519Y151522D01*
X168586Y151265D01*
X168590Y151249D01*
X169222Y149723D01*
X169222Y147005D01*
X168182Y144495D01*
X166261Y142573D01*
X165550Y142279D01*
X165451Y142220D01*
X165349Y142167D01*
X165329Y142148D01*
X165305Y142134D01*
X165226Y142051D01*
X165143Y141972D01*
X165129Y141948D01*
X165110Y141927D01*
X165057Y141825D01*
X164999Y141726D01*
X164992Y141699D01*
X164979Y141675D01*
X164957Y141562D01*
X164929Y141451D01*
X164930Y141423D01*
X164924Y141396D01*
X164934Y141282D01*
X164938Y141167D01*
X164947Y141140D01*
X164949Y141113D01*
X164990Y141006D01*
X165025Y140896D01*
X165040Y140876D01*
X165051Y140847D01*
X165212Y140635D01*
X165220Y140623D01*
X165652Y140191D01*
X165699Y140156D01*
X165739Y140113D01*
X165812Y140071D01*
X165879Y140020D01*
X165934Y139999D01*
X165984Y139970D01*
X166066Y139949D01*
X166145Y139919D01*
X166203Y139914D01*
X166260Y139900D01*
X166344Y139902D01*
X166428Y139895D01*
X166486Y139907D01*
X166544Y139909D01*
X166624Y139935D01*
X166707Y139951D01*
X166759Y139978D01*
X166815Y139996D01*
X166871Y140036D01*
X166959Y140082D01*
X167032Y140151D01*
X167088Y140191D01*
X168318Y141421D01*
X183422Y141421D01*
X184911Y139932D01*
X184911Y136968D01*
X184919Y136910D01*
X184917Y136852D01*
X184939Y136770D01*
X184951Y136686D01*
X184974Y136633D01*
X184989Y136577D01*
X185032Y136504D01*
X185067Y136427D01*
X185105Y136382D01*
X185134Y136332D01*
X185196Y136274D01*
X185250Y136210D01*
X185299Y136178D01*
X185342Y136138D01*
X185417Y136099D01*
X185487Y136052D01*
X185543Y136035D01*
X185595Y136008D01*
X185663Y135997D01*
X185758Y135967D01*
X185858Y135964D01*
X185926Y135953D01*
X190989Y135953D01*
X191076Y135965D01*
X191163Y135968D01*
X191216Y135985D01*
X191271Y135993D01*
X191350Y136028D01*
X191434Y136055D01*
X191473Y136083D01*
X191530Y136109D01*
X191643Y136205D01*
X191707Y136250D01*
X192108Y136651D01*
X209212Y136651D01*
X210701Y135162D01*
X210701Y120058D01*
X209430Y118786D01*
X209400Y118747D01*
X209364Y118714D01*
X209315Y118634D01*
X209259Y118559D01*
X209241Y118514D01*
X209216Y118472D01*
X209191Y118381D01*
X209157Y118294D01*
X209153Y118245D01*
X209140Y118198D01*
X209142Y118104D01*
X209134Y118010D01*
X209144Y117962D01*
X209144Y117914D01*
X209171Y117824D01*
X209190Y117732D01*
X209212Y117688D01*
X209226Y117641D01*
X209277Y117563D01*
X209321Y117479D01*
X209354Y117444D01*
X209381Y117403D01*
X209438Y117356D01*
X209517Y117273D01*
X209592Y117229D01*
X209640Y117189D01*
X209720Y117143D01*
X210193Y116670D01*
X210528Y116091D01*
X210701Y115444D01*
X210701Y110641D01*
X201676Y110641D01*
X201618Y110633D01*
X201560Y110634D01*
X201478Y110613D01*
X201395Y110601D01*
X201341Y110577D01*
X201285Y110563D01*
X201212Y110520D01*
X201135Y110485D01*
X201091Y110447D01*
X201040Y110417D01*
X200983Y110356D01*
X200918Y110301D01*
X200886Y110253D01*
X200846Y110210D01*
X200807Y110135D01*
X200761Y110065D01*
X200743Y110009D01*
X200716Y109957D01*
X200705Y109889D01*
X200675Y109794D01*
X200672Y109694D01*
X200661Y109626D01*
X200661Y108609D01*
X200659Y108609D01*
X200659Y109626D01*
X200651Y109684D01*
X200652Y109742D01*
X200631Y109824D01*
X200619Y109907D01*
X200595Y109961D01*
X200581Y110017D01*
X200538Y110090D01*
X200503Y110167D01*
X200465Y110211D01*
X200435Y110262D01*
X200374Y110319D01*
X200319Y110384D01*
X200271Y110416D01*
X200228Y110456D01*
X200153Y110495D01*
X200083Y110541D01*
X200027Y110559D01*
X199975Y110586D01*
X199907Y110597D01*
X199812Y110627D01*
X199712Y110630D01*
X199644Y110641D01*
X190619Y110641D01*
X190619Y115444D01*
X190792Y116091D01*
X191127Y116670D01*
X191600Y117143D01*
X191680Y117189D01*
X191718Y117219D01*
X191762Y117242D01*
X191830Y117307D01*
X191904Y117364D01*
X191933Y117404D01*
X191968Y117438D01*
X192015Y117519D01*
X192070Y117595D01*
X192087Y117641D01*
X192112Y117683D01*
X192135Y117774D01*
X192167Y117862D01*
X192170Y117911D01*
X192182Y117958D01*
X192179Y118052D01*
X192185Y118146D01*
X192174Y118194D01*
X192173Y118243D01*
X192144Y118332D01*
X192124Y118424D01*
X192100Y118467D01*
X192085Y118513D01*
X192042Y118574D01*
X191988Y118674D01*
X191927Y118735D01*
X191890Y118786D01*
X190619Y120058D01*
X190619Y125792D01*
X190611Y125850D01*
X190613Y125908D01*
X190591Y125990D01*
X190579Y126074D01*
X190556Y126127D01*
X190541Y126183D01*
X190498Y126256D01*
X190463Y126333D01*
X190425Y126378D01*
X190396Y126428D01*
X190334Y126486D01*
X190280Y126550D01*
X190231Y126582D01*
X190188Y126622D01*
X190113Y126661D01*
X190043Y126708D01*
X189987Y126725D01*
X189935Y126752D01*
X189867Y126763D01*
X189772Y126793D01*
X189672Y126796D01*
X189604Y126807D01*
X185926Y126807D01*
X185868Y126799D01*
X185810Y126801D01*
X185728Y126779D01*
X185644Y126767D01*
X185591Y126744D01*
X185535Y126729D01*
X185462Y126686D01*
X185385Y126651D01*
X185340Y126613D01*
X185290Y126584D01*
X185232Y126522D01*
X185168Y126468D01*
X185136Y126419D01*
X185096Y126376D01*
X185057Y126301D01*
X185010Y126231D01*
X184993Y126175D01*
X184966Y126123D01*
X184955Y126055D01*
X184925Y125960D01*
X184922Y125860D01*
X184911Y125792D01*
X184911Y122828D01*
X183422Y121339D01*
X168318Y121339D01*
X167088Y122569D01*
X167041Y122604D01*
X167001Y122647D01*
X166928Y122689D01*
X166861Y122740D01*
X166806Y122761D01*
X166756Y122790D01*
X166674Y122811D01*
X166595Y122841D01*
X166537Y122846D01*
X166480Y122860D01*
X166396Y122858D01*
X166312Y122865D01*
X166254Y122853D01*
X166196Y122851D01*
X166116Y122825D01*
X166033Y122809D01*
X165981Y122782D01*
X165925Y122764D01*
X165869Y122724D01*
X165781Y122678D01*
X165708Y122609D01*
X165652Y122569D01*
X164422Y121339D01*
X149318Y121339D01*
X147535Y123122D01*
X147488Y123157D01*
X147448Y123200D01*
X147375Y123242D01*
X147308Y123293D01*
X147253Y123314D01*
X147202Y123343D01*
X147121Y123364D01*
X147042Y123394D01*
X146984Y123399D01*
X146927Y123413D01*
X146843Y123411D01*
X146759Y123418D01*
X146701Y123406D01*
X146643Y123404D01*
X146563Y123379D01*
X146480Y123362D01*
X146428Y123335D01*
X146372Y123317D01*
X146316Y123277D01*
X146228Y123231D01*
X146155Y123162D01*
X146099Y123122D01*
X130164Y107187D01*
X118990Y107187D01*
X118988Y107187D01*
X118987Y107187D01*
X118847Y107167D01*
X118708Y107147D01*
X118707Y107147D01*
X118705Y107147D01*
X118580Y107090D01*
X118449Y107031D01*
X118448Y107030D01*
X118446Y107029D01*
X118339Y106938D01*
X118232Y106848D01*
X118231Y106846D01*
X118230Y106845D01*
X118222Y106832D01*
X118074Y106611D01*
X118065Y106582D01*
X118052Y106561D01*
X117551Y105351D01*
X115629Y103429D01*
X113119Y102389D01*
X111817Y102389D01*
X111730Y102377D01*
X111643Y102374D01*
X111590Y102357D01*
X111535Y102349D01*
X111455Y102314D01*
X111372Y102287D01*
X111333Y102259D01*
X111276Y102233D01*
X111163Y102137D01*
X111099Y102092D01*
X104590Y95583D01*
X101614Y92607D01*
X99956Y92607D01*
X99898Y92599D01*
X99840Y92601D01*
X99758Y92579D01*
X99674Y92567D01*
X99621Y92544D01*
X99565Y92529D01*
X99492Y92486D01*
X99415Y92451D01*
X99370Y92413D01*
X99320Y92384D01*
X99262Y92322D01*
X99198Y92268D01*
X99166Y92219D01*
X99126Y92176D01*
X99087Y92101D01*
X99040Y92031D01*
X99023Y91975D01*
X98996Y91923D01*
X98985Y91855D01*
X98955Y91760D01*
X98952Y91660D01*
X98941Y91592D01*
X98941Y89628D01*
X97452Y88139D01*
X88017Y88139D01*
X87930Y88127D01*
X87843Y88124D01*
X87790Y88107D01*
X87735Y88099D01*
X87655Y88064D01*
X87572Y88037D01*
X87533Y88009D01*
X87476Y87983D01*
X87363Y87887D01*
X87299Y87842D01*
X68247Y68790D01*
X68229Y68766D01*
X68207Y68747D01*
X68144Y68653D01*
X68076Y68563D01*
X68065Y68535D01*
X68049Y68511D01*
X68015Y68403D01*
X67975Y68297D01*
X67972Y68268D01*
X67963Y68240D01*
X67960Y68126D01*
X67951Y68014D01*
X67957Y67985D01*
X67956Y67956D01*
X67985Y67846D01*
X68007Y67735D01*
X68020Y67709D01*
X68028Y67681D01*
X68086Y67583D01*
X68138Y67483D01*
X68158Y67461D01*
X68173Y67436D01*
X68256Y67359D01*
X68334Y67277D01*
X68359Y67262D01*
X68380Y67242D01*
X68481Y67190D01*
X68579Y67133D01*
X68607Y67126D01*
X68634Y67112D01*
X68711Y67099D01*
X68854Y67063D01*
X68917Y67065D01*
X68965Y67057D01*
X82044Y67057D01*
X82102Y67065D01*
X82160Y67063D01*
X82242Y67085D01*
X82326Y67097D01*
X82379Y67120D01*
X82435Y67135D01*
X82508Y67178D01*
X82585Y67213D01*
X82630Y67251D01*
X82680Y67280D01*
X82738Y67342D01*
X82802Y67396D01*
X82834Y67445D01*
X82874Y67488D01*
X82913Y67563D01*
X82960Y67633D01*
X82977Y67689D01*
X83004Y67741D01*
X83015Y67809D01*
X83045Y67904D01*
X83048Y68004D01*
X83059Y68072D01*
X83059Y72052D01*
X84548Y73541D01*
X99652Y73541D01*
X100882Y72311D01*
X100929Y72276D01*
X100969Y72233D01*
X101042Y72191D01*
X101109Y72140D01*
X101164Y72119D01*
X101214Y72090D01*
X101296Y72069D01*
X101375Y72039D01*
X101433Y72034D01*
X101490Y72020D01*
X101574Y72022D01*
X101658Y72015D01*
X101716Y72027D01*
X101774Y72029D01*
X101854Y72055D01*
X101937Y72071D01*
X101989Y72098D01*
X102045Y72116D01*
X102101Y72156D01*
X102189Y72202D01*
X102262Y72271D01*
X102318Y72311D01*
X103548Y73541D01*
X118652Y73541D01*
X120141Y72052D01*
X120141Y68072D01*
X120149Y68014D01*
X120147Y67956D01*
X120169Y67874D01*
X120181Y67790D01*
X120204Y67737D01*
X120219Y67681D01*
X120262Y67608D01*
X120297Y67531D01*
X120335Y67486D01*
X120364Y67436D01*
X120426Y67378D01*
X120480Y67314D01*
X120529Y67282D01*
X120572Y67242D01*
X120647Y67203D01*
X120717Y67156D01*
X120773Y67139D01*
X120825Y67112D01*
X120893Y67101D01*
X120988Y67071D01*
X121088Y67068D01*
X121156Y67057D01*
X128905Y67057D01*
X128963Y67065D01*
X129021Y67063D01*
X129103Y67085D01*
X129187Y67097D01*
X129240Y67120D01*
X129296Y67135D01*
X129369Y67178D01*
X129446Y67213D01*
X129491Y67251D01*
X129541Y67280D01*
X129599Y67342D01*
X129663Y67396D01*
X129695Y67445D01*
X129735Y67488D01*
X129774Y67563D01*
X129821Y67633D01*
X129838Y67689D01*
X129865Y67741D01*
X129876Y67809D01*
X129906Y67904D01*
X129909Y68004D01*
X129920Y68072D01*
X129920Y70902D01*
X131409Y72391D01*
X147991Y72391D01*
X149480Y70902D01*
X149480Y59171D01*
X149492Y59084D01*
X149495Y58997D01*
X149512Y58944D01*
X149520Y58889D01*
X149555Y58809D01*
X149582Y58726D01*
X149610Y58687D01*
X149636Y58630D01*
X149732Y58517D01*
X149777Y58453D01*
X150920Y57310D01*
X150944Y57292D01*
X150963Y57270D01*
X151057Y57207D01*
X151147Y57139D01*
X151175Y57129D01*
X151199Y57112D01*
X151307Y57078D01*
X151413Y57038D01*
X151442Y57035D01*
X151470Y57026D01*
X151584Y57024D01*
X151696Y57014D01*
X151725Y57020D01*
X151754Y57019D01*
X151864Y57048D01*
X151975Y57070D01*
X152001Y57084D01*
X152029Y57091D01*
X152127Y57149D01*
X152227Y57201D01*
X152249Y57221D01*
X152274Y57236D01*
X152351Y57319D01*
X152433Y57397D01*
X152448Y57422D01*
X152468Y57444D01*
X152520Y57545D01*
X152577Y57642D01*
X152584Y57671D01*
X152598Y57697D01*
X152611Y57774D01*
X152647Y57918D01*
X152645Y57980D01*
X152653Y58028D01*
X152653Y63703D01*
X161087Y72137D01*
X188606Y72137D01*
X188693Y72149D01*
X188780Y72152D01*
X188833Y72169D01*
X188888Y72177D01*
X188968Y72212D01*
X189051Y72239D01*
X189090Y72267D01*
X189147Y72293D01*
X189260Y72389D01*
X189324Y72434D01*
X190992Y74102D01*
X191044Y74172D01*
X191104Y74236D01*
X191130Y74285D01*
X191163Y74329D01*
X191194Y74411D01*
X191234Y74489D01*
X191242Y74536D01*
X191264Y74595D01*
X191276Y74742D01*
X191289Y74820D01*
X191289Y77559D01*
X192329Y80069D01*
X194251Y81991D01*
X196761Y83031D01*
X199479Y83031D01*
X201989Y81991D01*
X203911Y80069D01*
X204951Y77559D01*
X204951Y74841D01*
X203911Y72331D01*
X201989Y70409D01*
X199479Y69369D01*
X196740Y69369D01*
X196653Y69357D01*
X196566Y69354D01*
X196513Y69337D01*
X196458Y69329D01*
X196378Y69294D01*
X196295Y69267D01*
X196256Y69239D01*
X196199Y69213D01*
X196086Y69117D01*
X196022Y69072D01*
X192942Y65992D01*
X192907Y65946D01*
X192865Y65905D01*
X192822Y65833D01*
X192772Y65765D01*
X192751Y65711D01*
X192721Y65660D01*
X192700Y65579D01*
X192670Y65500D01*
X192666Y65441D01*
X192651Y65385D01*
X192654Y65300D01*
X192647Y65216D01*
X192658Y65159D01*
X192660Y65101D01*
X192686Y65020D01*
X192703Y64938D01*
X192730Y64886D01*
X192748Y64830D01*
X192788Y64774D01*
X192834Y64685D01*
X192902Y64613D01*
X192942Y64557D01*
X194166Y63333D01*
X195206Y60823D01*
X195206Y58443D01*
X195218Y58356D01*
X195221Y58269D01*
X195238Y58216D01*
X195246Y58161D01*
X195281Y58082D01*
X195308Y57998D01*
X195336Y57959D01*
X195362Y57902D01*
X195458Y57789D01*
X195503Y57725D01*
X196191Y57038D01*
X196191Y55506D01*
X196199Y55448D01*
X196197Y55390D01*
X196219Y55308D01*
X196231Y55224D01*
X196254Y55171D01*
X196269Y55115D01*
X196312Y55042D01*
X196347Y54965D01*
X196385Y54920D01*
X196414Y54870D01*
X196476Y54812D01*
X196530Y54748D01*
X196579Y54716D01*
X196622Y54676D01*
X196697Y54637D01*
X196767Y54590D01*
X196823Y54573D01*
X196875Y54546D01*
X196943Y54535D01*
X197038Y54505D01*
X197138Y54502D01*
X197206Y54491D01*
X199932Y54491D01*
X201421Y53002D01*
X201421Y35898D01*
X199932Y34409D01*
X184828Y34409D01*
X183556Y35680D01*
X183517Y35710D01*
X183484Y35746D01*
X183404Y35795D01*
X183329Y35851D01*
X183284Y35869D01*
X183242Y35894D01*
X183151Y35919D01*
X183064Y35953D01*
X183015Y35957D01*
X182968Y35970D01*
X182874Y35968D01*
X182780Y35976D01*
X182732Y35966D01*
X182684Y35966D01*
X182594Y35939D01*
X182502Y35920D01*
X182458Y35898D01*
X182411Y35884D01*
X182333Y35833D01*
X182249Y35789D01*
X182214Y35756D01*
X182173Y35729D01*
X182126Y35672D01*
X182043Y35593D01*
X181999Y35518D01*
X181959Y35470D01*
X181913Y35390D01*
X181440Y34917D01*
X180861Y34582D01*
X180214Y34409D01*
X175411Y34409D01*
G37*
%LPD*%
%LPC*%
G36*
X43345Y4571D02*
X43345Y4571D01*
X38957Y6389D01*
X35599Y9747D01*
X33893Y13865D01*
X33873Y13900D01*
X33860Y13938D01*
X33842Y13962D01*
X33832Y13989D01*
X33787Y14045D01*
X33749Y14110D01*
X33719Y14138D01*
X33696Y14171D01*
X33673Y14190D01*
X33655Y14212D01*
X33597Y14253D01*
X33542Y14305D01*
X33506Y14324D01*
X33475Y14349D01*
X33447Y14361D01*
X33424Y14377D01*
X33357Y14401D01*
X33289Y14436D01*
X33250Y14443D01*
X33213Y14459D01*
X33182Y14462D01*
X33156Y14472D01*
X33085Y14476D01*
X33010Y14491D01*
X32970Y14487D01*
X32930Y14492D01*
X32900Y14487D01*
X32872Y14488D01*
X32803Y14473D01*
X32727Y14466D01*
X32690Y14452D01*
X32650Y14445D01*
X32622Y14432D01*
X32595Y14426D01*
X32532Y14391D01*
X32462Y14364D01*
X32430Y14340D01*
X32394Y14323D01*
X32371Y14302D01*
X32346Y14289D01*
X32295Y14238D01*
X32235Y14193D01*
X32211Y14161D01*
X32181Y14134D01*
X32165Y14108D01*
X32145Y14088D01*
X32116Y14034D01*
X32065Y13965D01*
X32051Y13927D01*
X32029Y13894D01*
X32015Y13839D01*
X31989Y13790D01*
X31384Y11927D01*
X30531Y10253D01*
X29426Y8732D01*
X28098Y7404D01*
X26577Y6299D01*
X24903Y5446D01*
X23116Y4865D01*
X22351Y4744D01*
X22351Y15494D01*
X22343Y15552D01*
X22345Y15610D01*
X22323Y15692D01*
X22311Y15775D01*
X22287Y15829D01*
X22273Y15885D01*
X22230Y15958D01*
X22195Y16035D01*
X22157Y16079D01*
X22127Y16130D01*
X22066Y16187D01*
X22011Y16252D01*
X21963Y16284D01*
X21920Y16324D01*
X21845Y16363D01*
X21775Y16409D01*
X21719Y16427D01*
X21667Y16454D01*
X21599Y16465D01*
X21504Y16495D01*
X21404Y16498D01*
X21336Y16509D01*
X20319Y16509D01*
X20319Y16511D01*
X21336Y16511D01*
X21394Y16519D01*
X21452Y16518D01*
X21534Y16539D01*
X21617Y16551D01*
X21671Y16575D01*
X21727Y16589D01*
X21800Y16632D01*
X21877Y16667D01*
X21922Y16705D01*
X21972Y16735D01*
X22030Y16796D01*
X22094Y16851D01*
X22126Y16899D01*
X22166Y16942D01*
X22205Y17017D01*
X22251Y17087D01*
X22269Y17143D01*
X22296Y17195D01*
X22307Y17263D01*
X22337Y17358D01*
X22340Y17458D01*
X22351Y17526D01*
X22351Y28276D01*
X23116Y28155D01*
X24903Y27574D01*
X26577Y26721D01*
X28098Y25616D01*
X29426Y24288D01*
X30531Y22767D01*
X31384Y21093D01*
X31989Y19230D01*
X32002Y19204D01*
X32009Y19174D01*
X32029Y19139D01*
X32041Y19101D01*
X32082Y19039D01*
X32114Y18974D01*
X32134Y18953D01*
X32148Y18927D01*
X32177Y18898D01*
X32199Y18865D01*
X32257Y18817D01*
X32305Y18763D01*
X32329Y18749D01*
X32351Y18727D01*
X32386Y18708D01*
X32417Y18682D01*
X32486Y18651D01*
X32547Y18614D01*
X32574Y18606D01*
X32601Y18592D01*
X32640Y18583D01*
X32677Y18567D01*
X32752Y18556D01*
X32821Y18537D01*
X32848Y18537D01*
X32879Y18531D01*
X32919Y18533D01*
X32958Y18528D01*
X33034Y18539D01*
X33105Y18539D01*
X33131Y18547D01*
X33162Y18549D01*
X33200Y18563D01*
X33240Y18569D01*
X33309Y18600D01*
X33377Y18620D01*
X33401Y18635D01*
X33430Y18646D01*
X33462Y18669D01*
X33499Y18686D01*
X33556Y18735D01*
X33617Y18773D01*
X33635Y18795D01*
X33660Y18812D01*
X33685Y18844D01*
X33715Y18870D01*
X33749Y18924D01*
X33804Y18987D01*
X33816Y19013D01*
X33835Y19036D01*
X33863Y19107D01*
X33893Y19155D01*
X35599Y23273D01*
X38957Y26631D01*
X43345Y28449D01*
X48095Y28449D01*
X52483Y26631D01*
X55841Y23273D01*
X57482Y19311D01*
X57497Y19286D01*
X57506Y19258D01*
X57569Y19164D01*
X57627Y19067D01*
X57648Y19046D01*
X57664Y19022D01*
X57751Y18949D01*
X57833Y18871D01*
X57859Y18858D01*
X57882Y18839D01*
X57985Y18793D01*
X58086Y18741D01*
X58115Y18735D01*
X58142Y18724D01*
X58254Y18708D01*
X58365Y18686D01*
X58394Y18689D01*
X58423Y18685D01*
X58535Y18701D01*
X58648Y18711D01*
X58675Y18721D01*
X58705Y18725D01*
X58808Y18772D01*
X58913Y18813D01*
X58937Y18830D01*
X58964Y18842D01*
X59050Y18916D01*
X59140Y18984D01*
X59158Y19008D01*
X59180Y19027D01*
X59222Y19093D01*
X59310Y19212D01*
X59332Y19270D01*
X59358Y19311D01*
X60999Y23273D01*
X64357Y26631D01*
X68745Y28449D01*
X73495Y28449D01*
X77883Y26631D01*
X81241Y23273D01*
X82882Y19311D01*
X82897Y19286D01*
X82906Y19258D01*
X82969Y19164D01*
X83027Y19067D01*
X83048Y19046D01*
X83064Y19022D01*
X83151Y18949D01*
X83233Y18871D01*
X83259Y18858D01*
X83282Y18839D01*
X83385Y18793D01*
X83486Y18741D01*
X83515Y18735D01*
X83542Y18724D01*
X83654Y18708D01*
X83765Y18686D01*
X83794Y18689D01*
X83823Y18685D01*
X83935Y18701D01*
X84048Y18711D01*
X84075Y18721D01*
X84105Y18725D01*
X84208Y18772D01*
X84313Y18813D01*
X84337Y18830D01*
X84364Y18842D01*
X84450Y18916D01*
X84540Y18984D01*
X84558Y19008D01*
X84580Y19027D01*
X84622Y19093D01*
X84710Y19212D01*
X84732Y19270D01*
X84758Y19311D01*
X86399Y23273D01*
X89757Y26631D01*
X94145Y28449D01*
X98895Y28449D01*
X103283Y26631D01*
X106641Y23273D01*
X108282Y19311D01*
X108297Y19286D01*
X108306Y19258D01*
X108369Y19164D01*
X108427Y19067D01*
X108448Y19046D01*
X108464Y19022D01*
X108551Y18949D01*
X108633Y18871D01*
X108659Y18858D01*
X108682Y18839D01*
X108785Y18793D01*
X108886Y18741D01*
X108915Y18735D01*
X108942Y18724D01*
X109054Y18708D01*
X109165Y18686D01*
X109194Y18689D01*
X109223Y18685D01*
X109335Y18701D01*
X109448Y18711D01*
X109475Y18721D01*
X109505Y18725D01*
X109608Y18772D01*
X109713Y18813D01*
X109737Y18830D01*
X109764Y18842D01*
X109850Y18916D01*
X109940Y18984D01*
X109958Y19008D01*
X109980Y19027D01*
X110022Y19093D01*
X110110Y19212D01*
X110132Y19270D01*
X110158Y19311D01*
X111799Y23273D01*
X115157Y26631D01*
X119545Y28449D01*
X124295Y28449D01*
X128683Y26631D01*
X132041Y23273D01*
X133682Y19311D01*
X133697Y19286D01*
X133706Y19258D01*
X133769Y19164D01*
X133827Y19067D01*
X133848Y19046D01*
X133864Y19022D01*
X133951Y18949D01*
X134033Y18871D01*
X134059Y18858D01*
X134082Y18839D01*
X134185Y18793D01*
X134286Y18741D01*
X134315Y18735D01*
X134342Y18724D01*
X134454Y18708D01*
X134565Y18686D01*
X134594Y18689D01*
X134623Y18685D01*
X134735Y18701D01*
X134848Y18711D01*
X134875Y18721D01*
X134905Y18725D01*
X135008Y18772D01*
X135113Y18813D01*
X135137Y18830D01*
X135164Y18842D01*
X135250Y18916D01*
X135340Y18984D01*
X135358Y19008D01*
X135380Y19027D01*
X135422Y19093D01*
X135510Y19212D01*
X135532Y19270D01*
X135558Y19311D01*
X137199Y23273D01*
X140557Y26631D01*
X144945Y28449D01*
X149695Y28449D01*
X154083Y26631D01*
X157441Y23273D01*
X159082Y19311D01*
X159097Y19286D01*
X159106Y19258D01*
X159169Y19164D01*
X159227Y19067D01*
X159248Y19046D01*
X159264Y19022D01*
X159351Y18949D01*
X159433Y18871D01*
X159459Y18858D01*
X159482Y18839D01*
X159585Y18793D01*
X159686Y18741D01*
X159715Y18735D01*
X159742Y18724D01*
X159854Y18708D01*
X159965Y18686D01*
X159994Y18689D01*
X160023Y18685D01*
X160135Y18701D01*
X160248Y18711D01*
X160275Y18721D01*
X160305Y18725D01*
X160408Y18772D01*
X160513Y18813D01*
X160537Y18830D01*
X160564Y18842D01*
X160650Y18916D01*
X160740Y18984D01*
X160758Y19008D01*
X160780Y19027D01*
X160822Y19093D01*
X160910Y19212D01*
X160932Y19270D01*
X160958Y19311D01*
X162599Y23273D01*
X165957Y26631D01*
X170345Y28449D01*
X175095Y28449D01*
X179483Y26631D01*
X182841Y23273D01*
X184547Y19155D01*
X184567Y19120D01*
X184580Y19082D01*
X184598Y19058D01*
X184608Y19031D01*
X184653Y18975D01*
X184691Y18910D01*
X184721Y18882D01*
X184744Y18849D01*
X184767Y18830D01*
X184785Y18808D01*
X184843Y18767D01*
X184898Y18715D01*
X184934Y18696D01*
X184965Y18671D01*
X184993Y18659D01*
X185016Y18643D01*
X185083Y18619D01*
X185151Y18584D01*
X185190Y18577D01*
X185227Y18561D01*
X185258Y18558D01*
X185284Y18548D01*
X185355Y18544D01*
X185430Y18529D01*
X185470Y18533D01*
X185510Y18528D01*
X185540Y18533D01*
X185568Y18532D01*
X185637Y18547D01*
X185713Y18554D01*
X185750Y18568D01*
X185790Y18575D01*
X185818Y18588D01*
X185845Y18594D01*
X185908Y18629D01*
X185978Y18656D01*
X186010Y18680D01*
X186046Y18697D01*
X186069Y18718D01*
X186094Y18731D01*
X186145Y18782D01*
X186205Y18827D01*
X186229Y18859D01*
X186259Y18886D01*
X186275Y18912D01*
X186295Y18932D01*
X186324Y18986D01*
X186375Y19055D01*
X186389Y19093D01*
X186411Y19126D01*
X186425Y19181D01*
X186451Y19230D01*
X187056Y21093D01*
X187909Y22767D01*
X189014Y24288D01*
X190342Y25616D01*
X191863Y26721D01*
X193537Y27574D01*
X195324Y28155D01*
X196089Y28276D01*
X196089Y17526D01*
X196097Y17468D01*
X196095Y17410D01*
X196117Y17328D01*
X196129Y17245D01*
X196153Y17191D01*
X196167Y17135D01*
X196210Y17062D01*
X196245Y16985D01*
X196283Y16941D01*
X196313Y16890D01*
X196374Y16833D01*
X196429Y16768D01*
X196477Y16736D01*
X196520Y16696D01*
X196595Y16657D01*
X196665Y16611D01*
X196721Y16593D01*
X196773Y16566D01*
X196841Y16555D01*
X196936Y16525D01*
X197036Y16522D01*
X197104Y16511D01*
X199136Y16511D01*
X199194Y16519D01*
X199252Y16518D01*
X199334Y16539D01*
X199417Y16551D01*
X199471Y16575D01*
X199527Y16589D01*
X199600Y16632D01*
X199677Y16667D01*
X199722Y16705D01*
X199772Y16735D01*
X199830Y16796D01*
X199894Y16851D01*
X199926Y16899D01*
X199966Y16942D01*
X200005Y17017D01*
X200051Y17087D01*
X200069Y17143D01*
X200096Y17195D01*
X200107Y17263D01*
X200137Y17358D01*
X200140Y17458D01*
X200151Y17526D01*
X200151Y28276D01*
X200916Y28155D01*
X202703Y27574D01*
X204377Y26721D01*
X205898Y25616D01*
X207226Y24288D01*
X208331Y22767D01*
X209184Y21093D01*
X209789Y19230D01*
X209802Y19204D01*
X209809Y19174D01*
X209829Y19139D01*
X209841Y19101D01*
X209882Y19039D01*
X209914Y18974D01*
X209934Y18953D01*
X209948Y18927D01*
X209977Y18898D01*
X209999Y18865D01*
X210057Y18817D01*
X210105Y18763D01*
X210129Y18749D01*
X210151Y18727D01*
X210186Y18708D01*
X210217Y18682D01*
X210286Y18651D01*
X210347Y18614D01*
X210374Y18606D01*
X210401Y18592D01*
X210440Y18583D01*
X210477Y18567D01*
X210552Y18556D01*
X210621Y18537D01*
X210648Y18537D01*
X210679Y18531D01*
X210719Y18533D01*
X210758Y18528D01*
X210834Y18539D01*
X210905Y18539D01*
X210931Y18547D01*
X210962Y18549D01*
X211000Y18563D01*
X211040Y18569D01*
X211109Y18600D01*
X211177Y18620D01*
X211201Y18635D01*
X211230Y18646D01*
X211262Y18669D01*
X211299Y18686D01*
X211356Y18735D01*
X211417Y18773D01*
X211435Y18795D01*
X211460Y18812D01*
X211485Y18844D01*
X211515Y18870D01*
X211549Y18924D01*
X211604Y18987D01*
X211616Y19013D01*
X211635Y19036D01*
X211663Y19107D01*
X211693Y19155D01*
X213399Y23273D01*
X216757Y26631D01*
X221145Y28449D01*
X225895Y28449D01*
X230283Y26631D01*
X233641Y23273D01*
X235282Y19311D01*
X235297Y19286D01*
X235306Y19258D01*
X235369Y19164D01*
X235427Y19067D01*
X235448Y19046D01*
X235464Y19022D01*
X235551Y18949D01*
X235633Y18871D01*
X235659Y18858D01*
X235682Y18839D01*
X235785Y18793D01*
X235886Y18741D01*
X235915Y18735D01*
X235942Y18724D01*
X236054Y18708D01*
X236165Y18686D01*
X236194Y18689D01*
X236223Y18685D01*
X236335Y18701D01*
X236448Y18711D01*
X236475Y18721D01*
X236505Y18725D01*
X236608Y18772D01*
X236713Y18813D01*
X236737Y18830D01*
X236764Y18842D01*
X236850Y18916D01*
X236940Y18984D01*
X236958Y19008D01*
X236980Y19027D01*
X237022Y19093D01*
X237110Y19212D01*
X237132Y19270D01*
X237158Y19311D01*
X238799Y23273D01*
X242157Y26631D01*
X246545Y28449D01*
X251295Y28449D01*
X255170Y26843D01*
X255172Y26843D01*
X255173Y26842D01*
X255308Y26808D01*
X255446Y26772D01*
X255447Y26772D01*
X255449Y26772D01*
X255589Y26777D01*
X255730Y26781D01*
X255731Y26781D01*
X255733Y26781D01*
X255866Y26824D01*
X256001Y26867D01*
X256002Y26868D01*
X256004Y26869D01*
X256016Y26877D01*
X256237Y27026D01*
X256257Y27049D01*
X256277Y27063D01*
X263870Y34656D01*
X263887Y34680D01*
X263910Y34699D01*
X263973Y34793D01*
X264040Y34883D01*
X264051Y34911D01*
X264067Y34935D01*
X264101Y35043D01*
X264142Y35149D01*
X264144Y35178D01*
X264153Y35206D01*
X264156Y35320D01*
X264165Y35432D01*
X264159Y35461D01*
X264160Y35490D01*
X264132Y35600D01*
X264109Y35711D01*
X264096Y35737D01*
X264088Y35765D01*
X264031Y35863D01*
X263978Y35963D01*
X263958Y35985D01*
X263943Y36010D01*
X263861Y36087D01*
X263783Y36169D01*
X263757Y36184D01*
X263736Y36204D01*
X263635Y36256D01*
X263537Y36313D01*
X263509Y36320D01*
X263483Y36334D01*
X263405Y36347D01*
X263262Y36383D01*
X263199Y36381D01*
X263152Y36389D01*
X260458Y36389D01*
X258969Y37878D01*
X258969Y55982D01*
X260458Y57471D01*
X275433Y57471D01*
X275520Y57483D01*
X275607Y57486D01*
X275660Y57503D01*
X275715Y57511D01*
X275795Y57546D01*
X275878Y57573D01*
X275917Y57601D01*
X275974Y57627D01*
X276088Y57723D01*
X276151Y57768D01*
X281165Y62782D01*
X281177Y62797D01*
X281192Y62810D01*
X281262Y62911D01*
X281336Y63009D01*
X281343Y63027D01*
X281354Y63043D01*
X281393Y63160D01*
X281437Y63275D01*
X281439Y63294D01*
X281445Y63313D01*
X281450Y63435D01*
X281461Y63558D01*
X281457Y63577D01*
X281458Y63597D01*
X281429Y63716D01*
X281405Y63837D01*
X281396Y63854D01*
X281391Y63873D01*
X281330Y63980D01*
X281274Y64089D01*
X281260Y64103D01*
X281251Y64120D01*
X281163Y64206D01*
X281078Y64295D01*
X281061Y64305D01*
X281047Y64319D01*
X280939Y64377D01*
X280833Y64439D01*
X280814Y64444D01*
X280796Y64453D01*
X280676Y64479D01*
X280557Y64509D01*
X280538Y64508D01*
X280518Y64512D01*
X280445Y64505D01*
X280273Y64500D01*
X280224Y64484D01*
X280184Y64480D01*
X279844Y64389D01*
X272541Y64389D01*
X272541Y72899D01*
X282051Y72899D01*
X282051Y66596D01*
X281960Y66256D01*
X281957Y66236D01*
X281950Y66218D01*
X281940Y66096D01*
X281925Y65974D01*
X281928Y65954D01*
X281927Y65935D01*
X281951Y65814D01*
X281970Y65693D01*
X281979Y65675D01*
X281983Y65656D01*
X282040Y65546D01*
X282092Y65436D01*
X282105Y65421D01*
X282114Y65404D01*
X282198Y65315D01*
X282279Y65222D01*
X282296Y65212D01*
X282309Y65197D01*
X282415Y65135D01*
X282519Y65069D01*
X282538Y65064D01*
X282555Y65054D01*
X282674Y65024D01*
X282792Y64989D01*
X282811Y64988D01*
X282830Y64984D01*
X282953Y64988D01*
X283076Y64987D01*
X283095Y64992D01*
X283114Y64993D01*
X283232Y65031D01*
X283350Y65064D01*
X283366Y65074D01*
X283385Y65080D01*
X283445Y65123D01*
X283591Y65214D01*
X283625Y65252D01*
X283658Y65275D01*
X284610Y66227D01*
X284822Y66439D01*
X284874Y66508D01*
X284934Y66572D01*
X284960Y66622D01*
X284993Y66666D01*
X285024Y66748D01*
X285064Y66826D01*
X285072Y66873D01*
X285094Y66932D01*
X285106Y67079D01*
X285119Y67157D01*
X285119Y70182D01*
X286608Y71671D01*
X307712Y71671D01*
X309201Y70182D01*
X309201Y62017D01*
X309213Y61930D01*
X309216Y61843D01*
X309233Y61790D01*
X309241Y61735D01*
X309276Y61655D01*
X309303Y61572D01*
X309331Y61533D01*
X309357Y61476D01*
X309453Y61363D01*
X309498Y61299D01*
X315286Y55511D01*
X315310Y55493D01*
X315329Y55471D01*
X315423Y55408D01*
X315513Y55340D01*
X315541Y55329D01*
X315565Y55313D01*
X315673Y55279D01*
X315779Y55239D01*
X315808Y55236D01*
X315836Y55227D01*
X315950Y55224D01*
X316062Y55215D01*
X316091Y55221D01*
X316120Y55220D01*
X316230Y55249D01*
X316341Y55271D01*
X316367Y55284D01*
X316395Y55292D01*
X316493Y55350D01*
X316593Y55402D01*
X316615Y55422D01*
X316640Y55437D01*
X316717Y55520D01*
X316799Y55598D01*
X316814Y55623D01*
X316834Y55644D01*
X316886Y55745D01*
X316943Y55843D01*
X316950Y55871D01*
X316964Y55898D01*
X316977Y55975D01*
X317013Y56118D01*
X317011Y56181D01*
X317019Y56229D01*
X317019Y57239D01*
X318059Y59749D01*
X318980Y60670D01*
X319032Y60740D01*
X319092Y60804D01*
X319118Y60853D01*
X319151Y60897D01*
X319182Y60979D01*
X319222Y61057D01*
X319230Y61104D01*
X319252Y61163D01*
X319259Y61243D01*
X319263Y61257D01*
X319265Y61313D01*
X319277Y61388D01*
X319277Y92735D01*
X319265Y92822D01*
X319262Y92909D01*
X319245Y92962D01*
X319237Y93017D01*
X319202Y93097D01*
X319175Y93180D01*
X319147Y93219D01*
X319121Y93276D01*
X319025Y93390D01*
X318980Y93453D01*
X308996Y103437D01*
X308949Y103472D01*
X308909Y103515D01*
X308836Y103557D01*
X308769Y103608D01*
X308714Y103629D01*
X308664Y103658D01*
X308582Y103679D01*
X308503Y103709D01*
X308445Y103714D01*
X308388Y103729D01*
X308304Y103726D01*
X308220Y103733D01*
X308162Y103721D01*
X308104Y103719D01*
X308024Y103693D01*
X307941Y103677D01*
X307889Y103650D01*
X307834Y103632D01*
X307777Y103592D01*
X307772Y103589D01*
X286608Y103589D01*
X285119Y105078D01*
X285119Y116182D01*
X286608Y117671D01*
X291592Y117671D01*
X291650Y117679D01*
X291708Y117677D01*
X291790Y117699D01*
X291874Y117711D01*
X291927Y117734D01*
X291983Y117749D01*
X292056Y117792D01*
X292133Y117827D01*
X292178Y117865D01*
X292228Y117894D01*
X292286Y117956D01*
X292350Y118010D01*
X292382Y118059D01*
X292422Y118102D01*
X292461Y118177D01*
X292508Y118247D01*
X292525Y118303D01*
X292552Y118355D01*
X292563Y118423D01*
X292593Y118518D01*
X292596Y118618D01*
X292607Y118686D01*
X292607Y122145D01*
X292595Y122232D01*
X292592Y122319D01*
X292575Y122372D01*
X292567Y122427D01*
X292532Y122507D01*
X292505Y122590D01*
X292477Y122629D01*
X292451Y122686D01*
X292355Y122799D01*
X292310Y122863D01*
X283784Y131389D01*
X283760Y131407D01*
X283741Y131429D01*
X283647Y131492D01*
X283557Y131560D01*
X283529Y131571D01*
X283505Y131587D01*
X283397Y131621D01*
X283291Y131661D01*
X283262Y131664D01*
X283234Y131673D01*
X283120Y131676D01*
X283008Y131685D01*
X282979Y131679D01*
X282950Y131680D01*
X282840Y131651D01*
X282729Y131629D01*
X282703Y131616D01*
X282675Y131608D01*
X282577Y131550D01*
X282477Y131498D01*
X282455Y131478D01*
X282430Y131463D01*
X282353Y131380D01*
X282271Y131302D01*
X282256Y131277D01*
X282236Y131256D01*
X282184Y131155D01*
X282127Y131057D01*
X282120Y131029D01*
X282106Y131002D01*
X282093Y130925D01*
X282057Y130782D01*
X282059Y130719D01*
X282051Y130671D01*
X282051Y129438D01*
X280562Y127949D01*
X260458Y127949D01*
X258969Y129438D01*
X258969Y147542D01*
X260458Y149031D01*
X280562Y149031D01*
X282051Y147542D01*
X282051Y143358D01*
X282059Y143300D01*
X282057Y143242D01*
X282079Y143160D01*
X282091Y143076D01*
X282114Y143023D01*
X282129Y142967D01*
X282172Y142894D01*
X282207Y142817D01*
X282245Y142772D01*
X282274Y142722D01*
X282336Y142664D01*
X282390Y142600D01*
X282439Y142568D01*
X282482Y142528D01*
X282557Y142489D01*
X282627Y142442D01*
X282683Y142425D01*
X282735Y142398D01*
X282803Y142387D01*
X282898Y142357D01*
X282998Y142354D01*
X283066Y142343D01*
X285764Y142343D01*
X301753Y126354D01*
X301753Y118686D01*
X301761Y118628D01*
X301759Y118570D01*
X301781Y118488D01*
X301793Y118404D01*
X301816Y118351D01*
X301831Y118295D01*
X301874Y118222D01*
X301909Y118145D01*
X301947Y118100D01*
X301976Y118050D01*
X302038Y117992D01*
X302092Y117928D01*
X302141Y117896D01*
X302184Y117856D01*
X302259Y117817D01*
X302329Y117770D01*
X302385Y117753D01*
X302437Y117726D01*
X302505Y117715D01*
X302600Y117685D01*
X302700Y117682D01*
X302768Y117671D01*
X303510Y117671D01*
X303597Y117683D01*
X303684Y117686D01*
X303737Y117703D01*
X303792Y117711D01*
X303872Y117746D01*
X303955Y117773D01*
X303994Y117801D01*
X304051Y117827D01*
X304164Y117923D01*
X304228Y117968D01*
X325296Y139036D01*
X325314Y139061D01*
X325338Y139081D01*
X325380Y139147D01*
X325467Y139263D01*
X325490Y139323D01*
X325516Y139365D01*
X325679Y139759D01*
X327601Y141681D01*
X330111Y142721D01*
X332829Y142721D01*
X335339Y141681D01*
X337261Y139759D01*
X338301Y137249D01*
X338301Y134531D01*
X337261Y132021D01*
X335339Y130099D01*
X332829Y129059D01*
X330111Y129059D01*
X327507Y130138D01*
X327501Y130143D01*
X327446Y130164D01*
X327396Y130193D01*
X327314Y130214D01*
X327235Y130244D01*
X327177Y130249D01*
X327120Y130263D01*
X327036Y130261D01*
X326952Y130268D01*
X326894Y130256D01*
X326836Y130254D01*
X326756Y130228D01*
X326673Y130212D01*
X326621Y130185D01*
X326565Y130167D01*
X326509Y130127D01*
X326421Y130081D01*
X326348Y130012D01*
X326292Y129972D01*
X311561Y115241D01*
X311526Y115195D01*
X311484Y115154D01*
X311441Y115081D01*
X311390Y115014D01*
X311370Y114960D01*
X311340Y114909D01*
X311319Y114827D01*
X311289Y114748D01*
X311284Y114690D01*
X311270Y114634D01*
X311273Y114549D01*
X311266Y114465D01*
X311277Y114408D01*
X311279Y114349D01*
X311305Y114269D01*
X311321Y114186D01*
X311348Y114135D01*
X311366Y114079D01*
X311407Y114023D01*
X311452Y113934D01*
X311521Y113862D01*
X311561Y113806D01*
X325447Y99920D01*
X328423Y96944D01*
X328423Y61388D01*
X328430Y61336D01*
X328429Y61309D01*
X328435Y61286D01*
X328438Y61214D01*
X328455Y61161D01*
X328463Y61106D01*
X328498Y61027D01*
X328525Y60943D01*
X328553Y60904D01*
X328579Y60847D01*
X328675Y60734D01*
X328720Y60670D01*
X329641Y59749D01*
X330681Y57239D01*
X330681Y54521D01*
X329589Y51884D01*
X329581Y51856D01*
X329568Y51830D01*
X329546Y51719D01*
X329518Y51609D01*
X329518Y51580D01*
X329513Y51551D01*
X329522Y51438D01*
X329526Y51325D01*
X329535Y51297D01*
X329537Y51268D01*
X329578Y51162D01*
X329612Y51054D01*
X329629Y51030D01*
X329639Y51002D01*
X329708Y50912D01*
X329771Y50818D01*
X329793Y50799D01*
X329811Y50776D01*
X329902Y50708D01*
X329988Y50635D01*
X330015Y50623D01*
X330039Y50606D01*
X330144Y50566D01*
X330248Y50520D01*
X330277Y50516D01*
X330305Y50505D01*
X330417Y50496D01*
X330530Y50481D01*
X330559Y50485D01*
X330588Y50483D01*
X330664Y50500D01*
X330811Y50521D01*
X330868Y50547D01*
X330915Y50558D01*
X332201Y51091D01*
X334919Y51091D01*
X337429Y50051D01*
X339351Y48129D01*
X340391Y45619D01*
X340391Y42901D01*
X339351Y40391D01*
X338430Y39470D01*
X338378Y39400D01*
X338318Y39336D01*
X338292Y39287D01*
X338259Y39243D01*
X338228Y39161D01*
X338188Y39083D01*
X338180Y39036D01*
X338158Y38977D01*
X338146Y38829D01*
X338133Y38752D01*
X338133Y23056D01*
X336631Y21554D01*
X336630Y21553D01*
X336629Y21552D01*
X336544Y21439D01*
X336460Y21327D01*
X336460Y21326D01*
X336459Y21325D01*
X336410Y21194D01*
X336359Y21062D01*
X336359Y21060D01*
X336358Y21059D01*
X336347Y20915D01*
X336336Y20778D01*
X336336Y20777D01*
X336336Y20775D01*
X336339Y20759D01*
X336350Y20708D01*
X336349Y20699D01*
X336358Y20665D01*
X336391Y20500D01*
X336406Y20472D01*
X336411Y20448D01*
X337059Y18885D01*
X337059Y14135D01*
X335241Y9747D01*
X331883Y6389D01*
X327495Y4571D01*
X322745Y4571D01*
X318357Y6389D01*
X314999Y9747D01*
X313358Y13709D01*
X313343Y13734D01*
X313334Y13762D01*
X313271Y13856D01*
X313213Y13953D01*
X313192Y13974D01*
X313176Y13998D01*
X313089Y14071D01*
X313007Y14149D01*
X312981Y14162D01*
X312958Y14181D01*
X312855Y14227D01*
X312754Y14279D01*
X312725Y14284D01*
X312698Y14296D01*
X312586Y14312D01*
X312475Y14334D01*
X312446Y14331D01*
X312417Y14335D01*
X312305Y14319D01*
X312192Y14309D01*
X312165Y14299D01*
X312135Y14295D01*
X312032Y14248D01*
X311927Y14207D01*
X311903Y14190D01*
X311876Y14178D01*
X311790Y14104D01*
X311700Y14036D01*
X311682Y14012D01*
X311660Y13993D01*
X311618Y13927D01*
X311530Y13808D01*
X311508Y13749D01*
X311482Y13709D01*
X309841Y9747D01*
X306483Y6389D01*
X302095Y4571D01*
X297345Y4571D01*
X292957Y6389D01*
X289599Y9747D01*
X287958Y13709D01*
X287943Y13734D01*
X287934Y13762D01*
X287871Y13856D01*
X287813Y13953D01*
X287792Y13974D01*
X287776Y13998D01*
X287689Y14071D01*
X287607Y14149D01*
X287581Y14162D01*
X287558Y14181D01*
X287455Y14227D01*
X287354Y14279D01*
X287325Y14285D01*
X287298Y14296D01*
X287186Y14312D01*
X287075Y14334D01*
X287046Y14331D01*
X287017Y14335D01*
X286905Y14319D01*
X286792Y14309D01*
X286765Y14299D01*
X286735Y14295D01*
X286632Y14248D01*
X286527Y14207D01*
X286503Y14190D01*
X286476Y14178D01*
X286390Y14104D01*
X286300Y14036D01*
X286282Y14012D01*
X286260Y13993D01*
X286218Y13927D01*
X286130Y13808D01*
X286108Y13750D01*
X286082Y13709D01*
X284441Y9747D01*
X281083Y6389D01*
X276695Y4571D01*
X271945Y4571D01*
X267557Y6389D01*
X264199Y9747D01*
X262558Y13709D01*
X262543Y13734D01*
X262534Y13762D01*
X262471Y13856D01*
X262413Y13953D01*
X262392Y13974D01*
X262376Y13998D01*
X262289Y14071D01*
X262207Y14149D01*
X262181Y14162D01*
X262158Y14181D01*
X262055Y14227D01*
X261954Y14279D01*
X261925Y14285D01*
X261898Y14296D01*
X261786Y14312D01*
X261675Y14334D01*
X261646Y14331D01*
X261617Y14335D01*
X261505Y14319D01*
X261392Y14309D01*
X261365Y14299D01*
X261336Y14295D01*
X261232Y14248D01*
X261127Y14207D01*
X261103Y14190D01*
X261076Y14178D01*
X260990Y14104D01*
X260900Y14036D01*
X260882Y14012D01*
X260860Y13993D01*
X260818Y13927D01*
X260730Y13808D01*
X260708Y13750D01*
X260682Y13709D01*
X259041Y9747D01*
X255683Y6389D01*
X251295Y4571D01*
X246545Y4571D01*
X242157Y6389D01*
X238799Y9747D01*
X237158Y13709D01*
X237143Y13734D01*
X237134Y13762D01*
X237071Y13856D01*
X237013Y13953D01*
X236992Y13974D01*
X236976Y13998D01*
X236889Y14071D01*
X236807Y14149D01*
X236781Y14162D01*
X236758Y14181D01*
X236655Y14227D01*
X236554Y14279D01*
X236525Y14285D01*
X236498Y14296D01*
X236386Y14312D01*
X236275Y14334D01*
X236246Y14331D01*
X236217Y14335D01*
X236105Y14319D01*
X235992Y14309D01*
X235965Y14299D01*
X235936Y14295D01*
X235832Y14248D01*
X235727Y14207D01*
X235703Y14190D01*
X235676Y14178D01*
X235590Y14104D01*
X235500Y14036D01*
X235482Y14012D01*
X235460Y13993D01*
X235418Y13927D01*
X235330Y13808D01*
X235308Y13750D01*
X235282Y13709D01*
X233641Y9747D01*
X230283Y6389D01*
X225895Y4571D01*
X221145Y4571D01*
X216757Y6389D01*
X213399Y9747D01*
X211693Y13865D01*
X211673Y13900D01*
X211660Y13938D01*
X211642Y13962D01*
X211632Y13989D01*
X211587Y14045D01*
X211549Y14110D01*
X211519Y14138D01*
X211496Y14171D01*
X211473Y14190D01*
X211455Y14212D01*
X211397Y14253D01*
X211342Y14305D01*
X211306Y14324D01*
X211275Y14349D01*
X211247Y14361D01*
X211224Y14377D01*
X211157Y14401D01*
X211089Y14436D01*
X211050Y14443D01*
X211013Y14459D01*
X210982Y14462D01*
X210956Y14472D01*
X210885Y14476D01*
X210810Y14491D01*
X210770Y14487D01*
X210730Y14492D01*
X210700Y14487D01*
X210672Y14488D01*
X210603Y14473D01*
X210527Y14466D01*
X210490Y14452D01*
X210450Y14445D01*
X210422Y14432D01*
X210395Y14426D01*
X210332Y14391D01*
X210262Y14364D01*
X210230Y14340D01*
X210194Y14323D01*
X210171Y14302D01*
X210146Y14289D01*
X210095Y14238D01*
X210035Y14193D01*
X210011Y14161D01*
X209981Y14134D01*
X209965Y14108D01*
X209945Y14088D01*
X209916Y14034D01*
X209865Y13965D01*
X209851Y13927D01*
X209829Y13894D01*
X209815Y13839D01*
X209789Y13790D01*
X209184Y11927D01*
X208331Y10253D01*
X207226Y8732D01*
X205898Y7404D01*
X204377Y6299D01*
X202703Y5446D01*
X200916Y4865D01*
X200151Y4744D01*
X200151Y15494D01*
X200143Y15552D01*
X200145Y15610D01*
X200123Y15692D01*
X200111Y15775D01*
X200087Y15829D01*
X200073Y15885D01*
X200030Y15958D01*
X199995Y16035D01*
X199957Y16079D01*
X199927Y16130D01*
X199866Y16187D01*
X199811Y16252D01*
X199763Y16284D01*
X199720Y16324D01*
X199645Y16363D01*
X199575Y16409D01*
X199519Y16427D01*
X199467Y16454D01*
X199399Y16465D01*
X199304Y16495D01*
X199204Y16498D01*
X199136Y16509D01*
X197104Y16509D01*
X197046Y16501D01*
X196988Y16502D01*
X196906Y16481D01*
X196823Y16469D01*
X196769Y16445D01*
X196713Y16431D01*
X196640Y16388D01*
X196563Y16353D01*
X196518Y16315D01*
X196468Y16285D01*
X196410Y16224D01*
X196346Y16169D01*
X196314Y16121D01*
X196274Y16078D01*
X196235Y16003D01*
X196189Y15933D01*
X196171Y15877D01*
X196144Y15825D01*
X196133Y15757D01*
X196103Y15662D01*
X196100Y15562D01*
X196089Y15494D01*
X196089Y4744D01*
X195324Y4865D01*
X193537Y5446D01*
X191863Y6299D01*
X190342Y7404D01*
X189014Y8732D01*
X187909Y10253D01*
X187056Y11927D01*
X186451Y13790D01*
X186438Y13816D01*
X186431Y13846D01*
X186411Y13881D01*
X186399Y13919D01*
X186358Y13981D01*
X186326Y14046D01*
X186306Y14067D01*
X186292Y14093D01*
X186263Y14122D01*
X186241Y14155D01*
X186183Y14203D01*
X186135Y14257D01*
X186111Y14271D01*
X186089Y14293D01*
X186054Y14312D01*
X186023Y14338D01*
X185954Y14369D01*
X185893Y14406D01*
X185866Y14414D01*
X185839Y14428D01*
X185800Y14437D01*
X185763Y14453D01*
X185688Y14464D01*
X185619Y14483D01*
X185592Y14483D01*
X185561Y14489D01*
X185521Y14487D01*
X185482Y14492D01*
X185406Y14481D01*
X185335Y14481D01*
X185309Y14473D01*
X185278Y14471D01*
X185240Y14457D01*
X185200Y14451D01*
X185131Y14420D01*
X185063Y14400D01*
X185039Y14385D01*
X185010Y14374D01*
X184978Y14351D01*
X184941Y14334D01*
X184884Y14285D01*
X184823Y14247D01*
X184805Y14225D01*
X184780Y14208D01*
X184755Y14176D01*
X184725Y14150D01*
X184691Y14096D01*
X184636Y14033D01*
X184624Y14007D01*
X184605Y13984D01*
X184577Y13913D01*
X184547Y13865D01*
X182841Y9747D01*
X179483Y6389D01*
X175095Y4571D01*
X170345Y4571D01*
X165957Y6389D01*
X162599Y9747D01*
X160958Y13709D01*
X160943Y13734D01*
X160934Y13762D01*
X160871Y13856D01*
X160813Y13953D01*
X160792Y13974D01*
X160776Y13998D01*
X160689Y14071D01*
X160607Y14149D01*
X160581Y14162D01*
X160558Y14181D01*
X160455Y14227D01*
X160354Y14279D01*
X160325Y14285D01*
X160298Y14296D01*
X160186Y14312D01*
X160075Y14334D01*
X160046Y14331D01*
X160017Y14335D01*
X159905Y14319D01*
X159792Y14309D01*
X159765Y14299D01*
X159736Y14295D01*
X159632Y14248D01*
X159527Y14207D01*
X159503Y14190D01*
X159476Y14178D01*
X159390Y14104D01*
X159300Y14036D01*
X159282Y14012D01*
X159260Y13993D01*
X159218Y13927D01*
X159130Y13808D01*
X159108Y13750D01*
X159082Y13709D01*
X157441Y9747D01*
X154083Y6389D01*
X149695Y4571D01*
X144945Y4571D01*
X140557Y6389D01*
X137199Y9747D01*
X135558Y13709D01*
X135543Y13734D01*
X135534Y13762D01*
X135471Y13856D01*
X135413Y13953D01*
X135392Y13974D01*
X135376Y13998D01*
X135289Y14071D01*
X135207Y14149D01*
X135181Y14162D01*
X135158Y14181D01*
X135055Y14227D01*
X134954Y14279D01*
X134925Y14285D01*
X134898Y14296D01*
X134786Y14312D01*
X134675Y14334D01*
X134646Y14331D01*
X134617Y14335D01*
X134505Y14319D01*
X134392Y14309D01*
X134365Y14299D01*
X134336Y14295D01*
X134232Y14248D01*
X134127Y14207D01*
X134103Y14190D01*
X134076Y14178D01*
X133990Y14104D01*
X133900Y14036D01*
X133882Y14012D01*
X133860Y13993D01*
X133818Y13927D01*
X133730Y13808D01*
X133708Y13750D01*
X133682Y13709D01*
X132041Y9747D01*
X128683Y6389D01*
X124295Y4571D01*
X119545Y4571D01*
X115157Y6389D01*
X111799Y9747D01*
X110158Y13709D01*
X110143Y13734D01*
X110134Y13762D01*
X110071Y13856D01*
X110013Y13953D01*
X109992Y13974D01*
X109976Y13998D01*
X109889Y14071D01*
X109807Y14149D01*
X109781Y14162D01*
X109758Y14181D01*
X109655Y14227D01*
X109554Y14279D01*
X109525Y14285D01*
X109498Y14296D01*
X109386Y14312D01*
X109275Y14334D01*
X109246Y14331D01*
X109217Y14335D01*
X109105Y14319D01*
X108992Y14309D01*
X108965Y14299D01*
X108936Y14295D01*
X108832Y14248D01*
X108727Y14207D01*
X108703Y14190D01*
X108676Y14178D01*
X108590Y14104D01*
X108500Y14036D01*
X108482Y14012D01*
X108460Y13993D01*
X108418Y13927D01*
X108330Y13808D01*
X108308Y13750D01*
X108282Y13709D01*
X106641Y9747D01*
X103283Y6389D01*
X98895Y4571D01*
X94145Y4571D01*
X89757Y6389D01*
X86399Y9747D01*
X84758Y13709D01*
X84743Y13734D01*
X84734Y13762D01*
X84671Y13856D01*
X84613Y13953D01*
X84592Y13974D01*
X84576Y13998D01*
X84489Y14071D01*
X84407Y14149D01*
X84381Y14162D01*
X84358Y14181D01*
X84255Y14227D01*
X84154Y14279D01*
X84125Y14285D01*
X84098Y14296D01*
X83986Y14312D01*
X83875Y14334D01*
X83846Y14331D01*
X83817Y14335D01*
X83705Y14319D01*
X83592Y14309D01*
X83565Y14299D01*
X83536Y14295D01*
X83432Y14248D01*
X83327Y14207D01*
X83303Y14190D01*
X83276Y14178D01*
X83190Y14104D01*
X83100Y14036D01*
X83082Y14012D01*
X83060Y13993D01*
X83018Y13927D01*
X82930Y13808D01*
X82908Y13750D01*
X82882Y13709D01*
X81241Y9747D01*
X77883Y6389D01*
X73495Y4571D01*
X68745Y4571D01*
X64357Y6389D01*
X60999Y9747D01*
X59358Y13709D01*
X59343Y13734D01*
X59334Y13762D01*
X59271Y13856D01*
X59213Y13953D01*
X59192Y13974D01*
X59176Y13998D01*
X59089Y14071D01*
X59007Y14149D01*
X58981Y14162D01*
X58958Y14181D01*
X58855Y14227D01*
X58754Y14279D01*
X58725Y14285D01*
X58698Y14296D01*
X58586Y14312D01*
X58475Y14334D01*
X58446Y14331D01*
X58417Y14335D01*
X58305Y14319D01*
X58192Y14309D01*
X58165Y14299D01*
X58136Y14295D01*
X58032Y14248D01*
X57927Y14207D01*
X57903Y14190D01*
X57876Y14178D01*
X57790Y14104D01*
X57700Y14036D01*
X57682Y14012D01*
X57660Y13993D01*
X57618Y13927D01*
X57530Y13808D01*
X57508Y13750D01*
X57482Y13709D01*
X55841Y9747D01*
X52483Y6389D01*
X48095Y4571D01*
X43345Y4571D01*
G37*
%LPD*%
G36*
X46642Y60465D02*
X46642Y60465D01*
X46729Y60468D01*
X46782Y60485D01*
X46837Y60493D01*
X46917Y60528D01*
X47000Y60555D01*
X47039Y60583D01*
X47096Y60609D01*
X47210Y60705D01*
X47273Y60750D01*
X77397Y90874D01*
X77415Y90898D01*
X77437Y90917D01*
X77500Y91011D01*
X77568Y91101D01*
X77579Y91129D01*
X77595Y91153D01*
X77629Y91261D01*
X77669Y91367D01*
X77672Y91396D01*
X77681Y91424D01*
X77684Y91538D01*
X77693Y91650D01*
X77687Y91679D01*
X77688Y91708D01*
X77659Y91818D01*
X77637Y91929D01*
X77624Y91955D01*
X77616Y91983D01*
X77558Y92081D01*
X77506Y92181D01*
X77486Y92203D01*
X77471Y92228D01*
X77388Y92305D01*
X77310Y92387D01*
X77285Y92402D01*
X77264Y92422D01*
X77163Y92474D01*
X77065Y92531D01*
X77037Y92538D01*
X77010Y92552D01*
X76933Y92565D01*
X76790Y92601D01*
X76727Y92599D01*
X76679Y92607D01*
X63486Y92607D01*
X61621Y94472D01*
X61551Y94524D01*
X61488Y94584D01*
X61438Y94610D01*
X61394Y94643D01*
X61312Y94674D01*
X61234Y94714D01*
X61187Y94722D01*
X61128Y94744D01*
X60981Y94756D01*
X60903Y94769D01*
X59601Y94769D01*
X57091Y95809D01*
X56224Y96676D01*
X56200Y96694D01*
X56181Y96716D01*
X56129Y96751D01*
X56105Y96774D01*
X56070Y96792D01*
X55997Y96847D01*
X55969Y96857D01*
X55945Y96874D01*
X55853Y96903D01*
X55851Y96903D01*
X55850Y96904D01*
X55837Y96908D01*
X55731Y96948D01*
X55702Y96951D01*
X55674Y96959D01*
X55560Y96962D01*
X55448Y96972D01*
X55419Y96966D01*
X55390Y96967D01*
X55280Y96938D01*
X55169Y96916D01*
X55143Y96902D01*
X55115Y96895D01*
X55017Y96837D01*
X54917Y96785D01*
X54895Y96765D01*
X54870Y96750D01*
X54793Y96667D01*
X54711Y96589D01*
X54696Y96564D01*
X54676Y96542D01*
X54624Y96441D01*
X54567Y96344D01*
X54560Y96315D01*
X54546Y96289D01*
X54533Y96212D01*
X54520Y96161D01*
X54505Y96112D01*
X54504Y96098D01*
X54497Y96068D01*
X54499Y96006D01*
X54491Y95958D01*
X54491Y90346D01*
X54318Y89699D01*
X53983Y89120D01*
X53510Y88647D01*
X52931Y88312D01*
X52284Y88139D01*
X46481Y88139D01*
X46481Y96164D01*
X46473Y96222D01*
X46474Y96280D01*
X46453Y96362D01*
X46441Y96445D01*
X46417Y96499D01*
X46403Y96555D01*
X46360Y96628D01*
X46325Y96705D01*
X46287Y96749D01*
X46257Y96800D01*
X46196Y96857D01*
X46141Y96922D01*
X46093Y96954D01*
X46050Y96994D01*
X45975Y97033D01*
X45905Y97079D01*
X45849Y97097D01*
X45797Y97124D01*
X45729Y97135D01*
X45634Y97165D01*
X45534Y97168D01*
X45466Y97179D01*
X43434Y97179D01*
X43376Y97171D01*
X43318Y97172D01*
X43236Y97151D01*
X43153Y97139D01*
X43099Y97115D01*
X43043Y97101D01*
X42970Y97058D01*
X42893Y97023D01*
X42848Y96985D01*
X42798Y96955D01*
X42740Y96894D01*
X42676Y96839D01*
X42644Y96791D01*
X42604Y96748D01*
X42565Y96673D01*
X42519Y96603D01*
X42501Y96547D01*
X42474Y96495D01*
X42463Y96427D01*
X42433Y96332D01*
X42430Y96232D01*
X42419Y96164D01*
X42419Y88139D01*
X36616Y88139D01*
X35969Y88312D01*
X35390Y88647D01*
X34917Y89120D01*
X34582Y89699D01*
X34409Y90346D01*
X34409Y90428D01*
X34405Y90457D01*
X34408Y90487D01*
X34385Y90598D01*
X34369Y90710D01*
X34357Y90736D01*
X34352Y90765D01*
X34300Y90866D01*
X34253Y90969D01*
X34234Y90992D01*
X34221Y91018D01*
X34143Y91100D01*
X34070Y91186D01*
X34045Y91202D01*
X34025Y91224D01*
X33927Y91281D01*
X33833Y91344D01*
X33805Y91353D01*
X33780Y91367D01*
X33670Y91395D01*
X33562Y91430D01*
X33532Y91430D01*
X33504Y91438D01*
X33391Y91434D01*
X33278Y91437D01*
X33249Y91429D01*
X33220Y91428D01*
X33112Y91394D01*
X33003Y91365D01*
X32977Y91350D01*
X32949Y91341D01*
X32886Y91295D01*
X32758Y91220D01*
X32715Y91174D01*
X32676Y91146D01*
X28870Y87340D01*
X28869Y87339D01*
X28868Y87338D01*
X28782Y87223D01*
X28700Y87113D01*
X28699Y87112D01*
X28698Y87110D01*
X28647Y86975D01*
X28598Y86848D01*
X28598Y86846D01*
X28598Y86845D01*
X28586Y86700D01*
X28575Y86564D01*
X28575Y86563D01*
X28575Y86561D01*
X28579Y86546D01*
X28631Y86286D01*
X28645Y86258D01*
X28650Y86234D01*
X29719Y83655D01*
X29719Y78905D01*
X27901Y74517D01*
X24543Y71159D01*
X20581Y69518D01*
X20556Y69503D01*
X20528Y69494D01*
X20434Y69431D01*
X20337Y69373D01*
X20316Y69352D01*
X20292Y69336D01*
X20219Y69249D01*
X20141Y69167D01*
X20128Y69141D01*
X20109Y69118D01*
X20063Y69015D01*
X20011Y68914D01*
X20005Y68885D01*
X19994Y68858D01*
X19978Y68746D01*
X19956Y68635D01*
X19959Y68606D01*
X19955Y68577D01*
X19971Y68465D01*
X19981Y68352D01*
X19991Y68325D01*
X19995Y68296D01*
X20042Y68192D01*
X20083Y68087D01*
X20100Y68063D01*
X20112Y68036D01*
X20186Y67950D01*
X20254Y67860D01*
X20278Y67842D01*
X20297Y67820D01*
X20363Y67778D01*
X20482Y67690D01*
X20540Y67668D01*
X20581Y67642D01*
X24543Y66001D01*
X27901Y62643D01*
X28549Y61079D01*
X28550Y61078D01*
X28550Y61077D01*
X28621Y60956D01*
X28693Y60835D01*
X28694Y60834D01*
X28695Y60832D01*
X28799Y60735D01*
X28900Y60639D01*
X28901Y60639D01*
X28902Y60638D01*
X29028Y60573D01*
X29153Y60509D01*
X29154Y60509D01*
X29156Y60508D01*
X29170Y60506D01*
X29432Y60454D01*
X29462Y60457D01*
X29487Y60453D01*
X46555Y60453D01*
X46642Y60465D01*
G37*
%LPC*%
G36*
X332651Y145569D02*
X332651Y145569D01*
X330141Y146609D01*
X328219Y148531D01*
X327179Y151041D01*
X327179Y153759D01*
X327988Y155712D01*
X328001Y155762D01*
X328023Y155810D01*
X328037Y155900D01*
X328059Y155987D01*
X328058Y156039D01*
X328065Y156091D01*
X328054Y156181D01*
X328051Y156271D01*
X328035Y156321D01*
X328028Y156373D01*
X327992Y156456D01*
X327964Y156542D01*
X327935Y156585D01*
X327914Y156633D01*
X327856Y156703D01*
X327806Y156778D01*
X327766Y156812D01*
X327733Y156852D01*
X327658Y156903D01*
X327589Y156961D01*
X327541Y156982D01*
X327497Y157012D01*
X327411Y157040D01*
X327329Y157077D01*
X327277Y157084D01*
X327227Y157100D01*
X327155Y157101D01*
X327151Y157101D01*
X327151Y166879D01*
X336886Y166879D01*
X336765Y166114D01*
X336184Y164327D01*
X335507Y162998D01*
X335466Y162879D01*
X335422Y162762D01*
X335420Y162745D01*
X335415Y162729D01*
X335408Y162603D01*
X335398Y162479D01*
X335401Y162462D01*
X335400Y162445D01*
X335429Y162323D01*
X335454Y162200D01*
X335462Y162185D01*
X335466Y162169D01*
X335527Y162059D01*
X335585Y161948D01*
X335597Y161936D01*
X335605Y161921D01*
X335694Y161833D01*
X335781Y161742D01*
X335795Y161733D01*
X335807Y161721D01*
X335918Y161661D01*
X336026Y161598D01*
X336042Y161594D01*
X336057Y161586D01*
X336181Y161559D01*
X336301Y161528D01*
X336318Y161529D01*
X336335Y161525D01*
X336460Y161533D01*
X336586Y161537D01*
X336602Y161542D01*
X336619Y161543D01*
X336736Y161586D01*
X336856Y161625D01*
X336869Y161634D01*
X336886Y161640D01*
X337116Y161807D01*
X337122Y161814D01*
X337129Y161819D01*
X340316Y165006D01*
X342697Y167387D01*
X369064Y167387D01*
X369122Y167395D01*
X369180Y167393D01*
X369262Y167415D01*
X369346Y167427D01*
X369399Y167450D01*
X369455Y167465D01*
X369528Y167508D01*
X369605Y167543D01*
X369650Y167581D01*
X369700Y167610D01*
X369758Y167672D01*
X369822Y167726D01*
X369854Y167775D01*
X369894Y167818D01*
X369933Y167893D01*
X369980Y167963D01*
X369997Y168019D01*
X370024Y168071D01*
X370035Y168139D01*
X370065Y168234D01*
X370068Y168334D01*
X370079Y168402D01*
X370079Y172382D01*
X371568Y173871D01*
X386672Y173871D01*
X387944Y172600D01*
X387982Y172570D01*
X388015Y172534D01*
X388096Y172485D01*
X388171Y172429D01*
X388216Y172411D01*
X388258Y172386D01*
X388348Y172361D01*
X388436Y172328D01*
X388485Y172323D01*
X388532Y172311D01*
X388626Y172312D01*
X388720Y172304D01*
X388767Y172314D01*
X388816Y172314D01*
X388906Y172341D01*
X388998Y172360D01*
X389042Y172382D01*
X389088Y172396D01*
X389167Y172448D01*
X389251Y172491D01*
X389286Y172524D01*
X389327Y172551D01*
X389374Y172608D01*
X389457Y172687D01*
X389501Y172762D01*
X389541Y172810D01*
X389587Y172890D01*
X390060Y173363D01*
X390639Y173698D01*
X391286Y173871D01*
X396089Y173871D01*
X396089Y164846D01*
X396097Y164788D01*
X396095Y164730D01*
X396117Y164648D01*
X396129Y164565D01*
X396153Y164511D01*
X396167Y164455D01*
X396210Y164382D01*
X396245Y164305D01*
X396283Y164261D01*
X396313Y164210D01*
X396374Y164153D01*
X396429Y164088D01*
X396477Y164056D01*
X396520Y164016D01*
X396595Y163977D01*
X396665Y163931D01*
X396721Y163913D01*
X396773Y163886D01*
X396841Y163875D01*
X396936Y163845D01*
X397036Y163842D01*
X397104Y163831D01*
X398121Y163831D01*
X398121Y163829D01*
X397104Y163829D01*
X397046Y163821D01*
X396988Y163822D01*
X396906Y163801D01*
X396823Y163789D01*
X396769Y163765D01*
X396713Y163751D01*
X396640Y163708D01*
X396563Y163673D01*
X396518Y163635D01*
X396468Y163605D01*
X396410Y163544D01*
X396346Y163489D01*
X396314Y163441D01*
X396274Y163398D01*
X396235Y163323D01*
X396189Y163253D01*
X396171Y163197D01*
X396144Y163145D01*
X396133Y163077D01*
X396103Y162982D01*
X396100Y162882D01*
X396089Y162814D01*
X396089Y153789D01*
X391286Y153789D01*
X390639Y153962D01*
X390060Y154297D01*
X389587Y154770D01*
X389541Y154850D01*
X389511Y154889D01*
X389488Y154932D01*
X389423Y155000D01*
X389365Y155074D01*
X389326Y155103D01*
X389292Y155138D01*
X389211Y155185D01*
X389135Y155240D01*
X389089Y155257D01*
X389047Y155282D01*
X388956Y155305D01*
X388868Y155337D01*
X388819Y155340D01*
X388772Y155352D01*
X388678Y155349D01*
X388584Y155355D01*
X388536Y155344D01*
X388487Y155343D01*
X388398Y155314D01*
X388306Y155294D01*
X388263Y155270D01*
X388217Y155255D01*
X388156Y155212D01*
X388056Y155158D01*
X387995Y155097D01*
X387944Y155060D01*
X386672Y153789D01*
X371568Y153789D01*
X370079Y155278D01*
X370079Y159258D01*
X370071Y159316D01*
X370073Y159374D01*
X370051Y159456D01*
X370039Y159540D01*
X370016Y159593D01*
X370001Y159649D01*
X369958Y159722D01*
X369923Y159799D01*
X369885Y159844D01*
X369856Y159894D01*
X369794Y159952D01*
X369740Y160016D01*
X369691Y160048D01*
X369648Y160088D01*
X369573Y160127D01*
X369503Y160174D01*
X369447Y160191D01*
X369395Y160218D01*
X369327Y160229D01*
X369232Y160259D01*
X369132Y160262D01*
X369064Y160273D01*
X346064Y160273D01*
X345977Y160261D01*
X345890Y160258D01*
X345837Y160241D01*
X345782Y160233D01*
X345702Y160198D01*
X345619Y160171D01*
X345580Y160143D01*
X345523Y160117D01*
X345410Y160021D01*
X345346Y159976D01*
X340819Y155449D01*
X340818Y155448D01*
X340817Y155447D01*
X340728Y155328D01*
X340648Y155222D01*
X340648Y155220D01*
X340647Y155219D01*
X340596Y155085D01*
X340547Y154956D01*
X340547Y154955D01*
X340546Y154953D01*
X340535Y154814D01*
X340523Y154673D01*
X340524Y154671D01*
X340523Y154670D01*
X340527Y154655D01*
X340579Y154394D01*
X340593Y154367D01*
X340599Y154343D01*
X340841Y153759D01*
X340841Y151041D01*
X339801Y148531D01*
X337879Y146609D01*
X335369Y145569D01*
X332651Y145569D01*
G37*
%LPD*%
%LPC*%
G36*
X124371Y83339D02*
X124371Y83339D01*
X121861Y84379D01*
X119939Y86301D01*
X118899Y88811D01*
X118899Y91529D01*
X119939Y94039D01*
X121861Y95961D01*
X124371Y97001D01*
X127110Y97001D01*
X127197Y97013D01*
X127284Y97016D01*
X127337Y97033D01*
X127392Y97041D01*
X127472Y97076D01*
X127555Y97103D01*
X127594Y97131D01*
X127651Y97157D01*
X127764Y97253D01*
X127828Y97298D01*
X141467Y110937D01*
X146814Y110937D01*
X146872Y110945D01*
X146930Y110943D01*
X147012Y110965D01*
X147096Y110977D01*
X147149Y111000D01*
X147205Y111015D01*
X147278Y111058D01*
X147355Y111093D01*
X147400Y111131D01*
X147450Y111160D01*
X147508Y111222D01*
X147572Y111276D01*
X147604Y111325D01*
X147644Y111368D01*
X147683Y111443D01*
X147730Y111513D01*
X147747Y111569D01*
X147774Y111621D01*
X147785Y111689D01*
X147815Y111784D01*
X147818Y111884D01*
X147829Y111952D01*
X147829Y115932D01*
X149318Y117421D01*
X164422Y117421D01*
X165694Y116150D01*
X165733Y116120D01*
X165766Y116084D01*
X165846Y116035D01*
X165921Y115979D01*
X165966Y115961D01*
X166008Y115936D01*
X166099Y115911D01*
X166186Y115877D01*
X166235Y115873D01*
X166282Y115860D01*
X166376Y115862D01*
X166470Y115854D01*
X166518Y115864D01*
X166566Y115864D01*
X166656Y115891D01*
X166748Y115910D01*
X166792Y115932D01*
X166839Y115946D01*
X166917Y115997D01*
X167001Y116041D01*
X167036Y116074D01*
X167077Y116101D01*
X167124Y116158D01*
X167207Y116237D01*
X167251Y116312D01*
X167291Y116360D01*
X167337Y116440D01*
X167810Y116913D01*
X168389Y117248D01*
X169036Y117421D01*
X173839Y117421D01*
X173839Y108396D01*
X173847Y108338D01*
X173845Y108280D01*
X173867Y108198D01*
X173879Y108115D01*
X173903Y108061D01*
X173917Y108005D01*
X173960Y107932D01*
X173995Y107855D01*
X174033Y107811D01*
X174063Y107760D01*
X174124Y107703D01*
X174179Y107638D01*
X174227Y107606D01*
X174270Y107566D01*
X174345Y107527D01*
X174415Y107481D01*
X174471Y107463D01*
X174523Y107436D01*
X174591Y107425D01*
X174686Y107395D01*
X174786Y107392D01*
X174854Y107381D01*
X175871Y107381D01*
X175871Y107379D01*
X174854Y107379D01*
X174796Y107371D01*
X174738Y107372D01*
X174656Y107351D01*
X174573Y107339D01*
X174519Y107315D01*
X174463Y107301D01*
X174390Y107258D01*
X174313Y107223D01*
X174268Y107185D01*
X174218Y107155D01*
X174160Y107094D01*
X174096Y107039D01*
X174064Y106991D01*
X174024Y106948D01*
X173985Y106873D01*
X173939Y106803D01*
X173921Y106747D01*
X173894Y106695D01*
X173883Y106627D01*
X173853Y106532D01*
X173850Y106432D01*
X173839Y106364D01*
X173839Y97339D01*
X169036Y97339D01*
X168389Y97512D01*
X167810Y97847D01*
X167337Y98320D01*
X167291Y98400D01*
X167261Y98438D01*
X167238Y98482D01*
X167173Y98550D01*
X167116Y98624D01*
X167076Y98653D01*
X167042Y98688D01*
X166961Y98735D01*
X166885Y98790D01*
X166839Y98807D01*
X166797Y98832D01*
X166706Y98855D01*
X166618Y98887D01*
X166569Y98890D01*
X166522Y98902D01*
X166428Y98899D01*
X166334Y98905D01*
X166286Y98894D01*
X166237Y98893D01*
X166148Y98864D01*
X166056Y98844D01*
X166013Y98820D01*
X165967Y98805D01*
X165906Y98762D01*
X165806Y98708D01*
X165745Y98647D01*
X165694Y98610D01*
X164422Y97339D01*
X149318Y97339D01*
X147829Y98828D01*
X147829Y102808D01*
X147821Y102866D01*
X147823Y102924D01*
X147801Y103006D01*
X147789Y103090D01*
X147766Y103143D01*
X147751Y103199D01*
X147708Y103272D01*
X147673Y103349D01*
X147635Y103394D01*
X147606Y103444D01*
X147544Y103502D01*
X147490Y103566D01*
X147441Y103598D01*
X147398Y103638D01*
X147323Y103677D01*
X147253Y103724D01*
X147197Y103741D01*
X147145Y103768D01*
X147077Y103779D01*
X146982Y103809D01*
X146882Y103812D01*
X146814Y103823D01*
X144834Y103823D01*
X144747Y103811D01*
X144660Y103808D01*
X144607Y103791D01*
X144552Y103783D01*
X144472Y103748D01*
X144389Y103721D01*
X144350Y103693D01*
X144293Y103667D01*
X144180Y103571D01*
X144116Y103526D01*
X132858Y92268D01*
X132806Y92198D01*
X132746Y92134D01*
X132720Y92085D01*
X132687Y92041D01*
X132656Y91959D01*
X132616Y91881D01*
X132608Y91834D01*
X132586Y91775D01*
X132574Y91628D01*
X132561Y91550D01*
X132561Y88811D01*
X131521Y86301D01*
X129599Y84379D01*
X127089Y83339D01*
X124371Y83339D01*
G37*
%LPD*%
%LPC*%
G36*
X152197Y76453D02*
X152197Y76453D01*
X145608Y83042D01*
X145538Y83094D01*
X145474Y83154D01*
X145425Y83180D01*
X145381Y83213D01*
X145299Y83244D01*
X145221Y83284D01*
X145174Y83292D01*
X145115Y83314D01*
X144968Y83326D01*
X144890Y83339D01*
X142151Y83339D01*
X139641Y84379D01*
X137719Y86301D01*
X136679Y88811D01*
X136679Y91529D01*
X137719Y94039D01*
X139641Y95961D01*
X142151Y97001D01*
X144869Y97001D01*
X147379Y95961D01*
X149301Y94039D01*
X150341Y91529D01*
X150341Y88790D01*
X150348Y88739D01*
X150347Y88721D01*
X150353Y88699D01*
X150356Y88616D01*
X150373Y88563D01*
X150381Y88508D01*
X150416Y88428D01*
X150443Y88345D01*
X150471Y88306D01*
X150497Y88249D01*
X150593Y88136D01*
X150638Y88072D01*
X154846Y83864D01*
X154916Y83812D01*
X154980Y83752D01*
X155029Y83726D01*
X155073Y83693D01*
X155155Y83662D01*
X155233Y83622D01*
X155280Y83614D01*
X155339Y83592D01*
X155486Y83580D01*
X155564Y83567D01*
X175345Y83567D01*
X175432Y83579D01*
X175519Y83582D01*
X175572Y83599D01*
X175627Y83607D01*
X175707Y83642D01*
X175790Y83669D01*
X175829Y83697D01*
X175886Y83723D01*
X175999Y83819D01*
X176063Y83864D01*
X180551Y88352D01*
X180604Y88422D01*
X180664Y88486D01*
X180689Y88535D01*
X180722Y88580D01*
X180753Y88661D01*
X180793Y88739D01*
X180801Y88787D01*
X180824Y88845D01*
X180836Y88993D01*
X180849Y89070D01*
X180849Y91809D01*
X181889Y94320D01*
X183175Y95606D01*
X183193Y95630D01*
X183215Y95649D01*
X183278Y95743D01*
X183346Y95833D01*
X183356Y95861D01*
X183373Y95885D01*
X183407Y95993D01*
X183447Y96099D01*
X183450Y96128D01*
X183458Y96156D01*
X183461Y96270D01*
X183471Y96382D01*
X183465Y96411D01*
X183466Y96440D01*
X183437Y96550D01*
X183415Y96661D01*
X183401Y96687D01*
X183394Y96715D01*
X183336Y96813D01*
X183284Y96913D01*
X183264Y96935D01*
X183249Y96960D01*
X183166Y97037D01*
X183088Y97119D01*
X183063Y97134D01*
X183041Y97154D01*
X182941Y97206D01*
X182843Y97263D01*
X182814Y97270D01*
X182788Y97284D01*
X182711Y97297D01*
X182567Y97333D01*
X182505Y97331D01*
X182457Y97339D01*
X177901Y97339D01*
X177901Y105349D01*
X184911Y105349D01*
X184911Y99546D01*
X184738Y98899D01*
X184507Y98501D01*
X184472Y98412D01*
X184428Y98327D01*
X184419Y98281D01*
X184401Y98237D01*
X184391Y98142D01*
X184373Y98048D01*
X184377Y98001D01*
X184372Y97954D01*
X184389Y97860D01*
X184397Y97765D01*
X184414Y97721D01*
X184423Y97675D01*
X184465Y97589D01*
X184499Y97500D01*
X184528Y97462D01*
X184549Y97420D01*
X184613Y97349D01*
X184671Y97273D01*
X184709Y97245D01*
X184741Y97210D01*
X184822Y97160D01*
X184899Y97103D01*
X184943Y97086D01*
X184983Y97062D01*
X185075Y97036D01*
X185165Y97002D01*
X185212Y96999D01*
X185257Y96986D01*
X185353Y96987D01*
X185448Y96980D01*
X185489Y96989D01*
X185542Y96990D01*
X185702Y97038D01*
X185775Y97055D01*
X186321Y97281D01*
X189038Y97281D01*
X191549Y96241D01*
X193470Y94320D01*
X194510Y91809D01*
X194510Y89092D01*
X193470Y86581D01*
X191549Y84660D01*
X189038Y83620D01*
X186299Y83620D01*
X186213Y83607D01*
X186125Y83605D01*
X186073Y83588D01*
X186018Y83580D01*
X185938Y83544D01*
X185855Y83517D01*
X185816Y83489D01*
X185758Y83464D01*
X185645Y83368D01*
X185581Y83322D01*
X178712Y76453D01*
X152197Y76453D01*
G37*
%LPD*%
%LPC*%
G36*
X378010Y102589D02*
X378010Y102589D01*
X375422Y103661D01*
X373441Y105642D01*
X373125Y106404D01*
X373125Y107614D01*
X373121Y107644D01*
X373123Y107675D01*
X373106Y107752D01*
X373085Y107895D01*
X373059Y107954D01*
X373048Y108002D01*
X372909Y108337D01*
X372909Y110923D01*
X373048Y111258D01*
X373056Y111288D01*
X373070Y111315D01*
X373083Y111393D01*
X373119Y111533D01*
X373117Y111598D01*
X373125Y111646D01*
X373125Y112856D01*
X373441Y113618D01*
X375422Y115599D01*
X378010Y116671D01*
X380810Y116671D01*
X383398Y115599D01*
X385379Y113618D01*
X386451Y111030D01*
X386451Y108230D01*
X385379Y105642D01*
X383398Y103661D01*
X380810Y102589D01*
X378010Y102589D01*
G37*
%LPD*%
%LPC*%
G36*
X378010Y58589D02*
X378010Y58589D01*
X375422Y59661D01*
X373441Y61642D01*
X373125Y62404D01*
X373125Y63614D01*
X373121Y63644D01*
X373123Y63675D01*
X373106Y63752D01*
X373085Y63895D01*
X373059Y63954D01*
X373048Y64002D01*
X372909Y64337D01*
X372909Y66923D01*
X373048Y67258D01*
X373056Y67288D01*
X373070Y67315D01*
X373083Y67393D01*
X373119Y67533D01*
X373117Y67598D01*
X373125Y67646D01*
X373125Y68856D01*
X373441Y69618D01*
X375422Y71599D01*
X378010Y72671D01*
X380810Y72671D01*
X383398Y71599D01*
X385379Y69618D01*
X386451Y67030D01*
X386451Y64230D01*
X385379Y61642D01*
X383398Y59661D01*
X380810Y58589D01*
X378010Y58589D01*
G37*
%LPD*%
%LPC*%
G36*
X272541Y76961D02*
X272541Y76961D01*
X272541Y85471D01*
X279844Y85471D01*
X280491Y85298D01*
X281070Y84963D01*
X281543Y84490D01*
X281878Y83911D01*
X282051Y83264D01*
X282051Y76961D01*
X272541Y76961D01*
G37*
%LPD*%
%LPC*%
G36*
X272541Y112521D02*
X272541Y112521D01*
X272541Y121031D01*
X279844Y121031D01*
X280491Y120858D01*
X281070Y120523D01*
X281543Y120050D01*
X281878Y119471D01*
X282051Y118824D01*
X282051Y112521D01*
X272541Y112521D01*
G37*
%LPD*%
%LPC*%
G36*
X272541Y108459D02*
X272541Y108459D01*
X282051Y108459D01*
X282051Y102156D01*
X281878Y101509D01*
X281543Y100930D01*
X281070Y100457D01*
X280491Y100122D01*
X279844Y99949D01*
X272541Y99949D01*
X272541Y108459D01*
G37*
%LPD*%
%LPC*%
G36*
X258969Y76961D02*
X258969Y76961D01*
X258969Y83264D01*
X259142Y83911D01*
X259477Y84490D01*
X259950Y84963D01*
X260529Y85298D01*
X261176Y85471D01*
X268479Y85471D01*
X268479Y76961D01*
X258969Y76961D01*
G37*
%LPD*%
%LPC*%
G36*
X258969Y112521D02*
X258969Y112521D01*
X258969Y118824D01*
X259142Y119471D01*
X259477Y120050D01*
X259950Y120523D01*
X260529Y120858D01*
X261176Y121031D01*
X268479Y121031D01*
X268479Y112521D01*
X258969Y112521D01*
G37*
%LPD*%
%LPC*%
G36*
X261176Y99949D02*
X261176Y99949D01*
X260529Y100122D01*
X259950Y100457D01*
X259477Y100930D01*
X259142Y101509D01*
X258969Y102156D01*
X258969Y108459D01*
X268479Y108459D01*
X268479Y99949D01*
X261176Y99949D01*
G37*
%LPD*%
%LPC*%
G36*
X261176Y64389D02*
X261176Y64389D01*
X260529Y64562D01*
X259950Y64897D01*
X259477Y65370D01*
X259142Y65949D01*
X258969Y66596D01*
X258969Y72899D01*
X268479Y72899D01*
X268479Y64389D01*
X261176Y64389D01*
G37*
%LPD*%
%LPC*%
G36*
X301751Y170941D02*
X301751Y170941D01*
X301751Y180676D01*
X302516Y180555D01*
X304303Y179974D01*
X305977Y179121D01*
X307498Y178016D01*
X308826Y176688D01*
X309931Y175167D01*
X310784Y173493D01*
X311365Y171706D01*
X311417Y171374D01*
X311454Y171255D01*
X311487Y171133D01*
X311496Y171119D01*
X311501Y171103D01*
X311569Y170997D01*
X311603Y170941D01*
X301751Y170941D01*
G37*
%LPD*%
%LPC*%
G36*
X301751Y166879D02*
X301751Y166879D01*
X311607Y166879D01*
X311598Y166865D01*
X311524Y166764D01*
X311519Y166749D01*
X311508Y166734D01*
X311420Y166464D01*
X311420Y166454D01*
X311417Y166446D01*
X311365Y166114D01*
X310784Y164327D01*
X309931Y162653D01*
X308826Y161132D01*
X307498Y159804D01*
X305977Y158699D01*
X304303Y157846D01*
X302516Y157265D01*
X301751Y157144D01*
X301751Y166879D01*
G37*
%LPD*%
%LPC*%
G36*
X313233Y170941D02*
X313233Y170941D01*
X313242Y170954D01*
X313316Y171056D01*
X313321Y171071D01*
X313331Y171086D01*
X313420Y171356D01*
X313420Y171365D01*
X313423Y171374D01*
X313475Y171706D01*
X314056Y173493D01*
X314909Y175167D01*
X316014Y176688D01*
X317342Y178016D01*
X318863Y179121D01*
X320537Y179974D01*
X322324Y180555D01*
X323089Y180676D01*
X323089Y170941D01*
X313233Y170941D01*
G37*
%LPD*%
%LPC*%
G36*
X322324Y157265D02*
X322324Y157265D01*
X320537Y157846D01*
X318863Y158699D01*
X317342Y159804D01*
X316014Y161132D01*
X314909Y162653D01*
X314056Y164327D01*
X313475Y166114D01*
X313423Y166446D01*
X313386Y166566D01*
X313353Y166687D01*
X313344Y166701D01*
X313339Y166718D01*
X313271Y166822D01*
X313237Y166879D01*
X323089Y166879D01*
X323089Y157144D01*
X322324Y157265D01*
G37*
%LPD*%
%LPC*%
G36*
X327151Y170941D02*
X327151Y170941D01*
X327151Y180676D01*
X327916Y180555D01*
X329703Y179974D01*
X331377Y179121D01*
X332898Y178016D01*
X334226Y176688D01*
X335331Y175167D01*
X336184Y173493D01*
X336765Y171706D01*
X336886Y170941D01*
X327151Y170941D01*
G37*
%LPD*%
%LPC*%
G36*
X8554Y18541D02*
X8554Y18541D01*
X8675Y19306D01*
X9256Y21093D01*
X10109Y22767D01*
X11214Y24288D01*
X12542Y25616D01*
X14063Y26721D01*
X15737Y27574D01*
X17524Y28155D01*
X18289Y28276D01*
X18289Y18541D01*
X8554Y18541D01*
G37*
%LPD*%
%LPC*%
G36*
X17524Y4865D02*
X17524Y4865D01*
X15737Y5446D01*
X14063Y6299D01*
X12542Y7404D01*
X11214Y8732D01*
X10109Y10253D01*
X9256Y11927D01*
X8675Y13714D01*
X8554Y14479D01*
X18289Y14479D01*
X18289Y4744D01*
X17524Y4865D01*
G37*
%LPD*%
%LPC*%
G36*
X400151Y165861D02*
X400151Y165861D01*
X400151Y173871D01*
X404954Y173871D01*
X405601Y173698D01*
X406180Y173363D01*
X406653Y172890D01*
X406988Y172311D01*
X407161Y171664D01*
X407161Y165861D01*
X400151Y165861D01*
G37*
%LPD*%
%LPC*%
G36*
X177901Y109411D02*
X177901Y109411D01*
X177901Y117421D01*
X182704Y117421D01*
X183351Y117248D01*
X183930Y116913D01*
X184403Y116440D01*
X184738Y115861D01*
X184911Y115214D01*
X184911Y109411D01*
X177901Y109411D01*
G37*
%LPD*%
%LPC*%
G36*
X400151Y153789D02*
X400151Y153789D01*
X400151Y161799D01*
X407161Y161799D01*
X407161Y155996D01*
X406988Y155349D01*
X406653Y154770D01*
X406180Y154297D01*
X405601Y153962D01*
X404954Y153789D01*
X400151Y153789D01*
G37*
%LPD*%
%LPC*%
G36*
X202691Y99569D02*
X202691Y99569D01*
X202691Y106579D01*
X210701Y106579D01*
X210701Y101776D01*
X210528Y101129D01*
X210193Y100550D01*
X209720Y100077D01*
X209141Y99742D01*
X208494Y99569D01*
X202691Y99569D01*
G37*
%LPD*%
%LPC*%
G36*
X192826Y99569D02*
X192826Y99569D01*
X192179Y99742D01*
X191600Y100077D01*
X191127Y100550D01*
X190792Y101129D01*
X190619Y101776D01*
X190619Y106579D01*
X198629Y106579D01*
X198629Y99569D01*
X192826Y99569D01*
G37*
%LPD*%
%LPC*%
G36*
X166546Y34409D02*
X166546Y34409D01*
X165899Y34582D01*
X165320Y34917D01*
X164847Y35390D01*
X164512Y35969D01*
X164339Y36616D01*
X164339Y42419D01*
X171349Y42419D01*
X171349Y34409D01*
X166546Y34409D01*
G37*
%LPD*%
%LPC*%
G36*
X299191Y89661D02*
X299191Y89661D01*
X299191Y94671D01*
X306994Y94671D01*
X307641Y94498D01*
X308220Y94163D01*
X308693Y93690D01*
X309028Y93111D01*
X309201Y92464D01*
X309201Y89661D01*
X299191Y89661D01*
G37*
%LPD*%
%LPC*%
G36*
X285119Y89661D02*
X285119Y89661D01*
X285119Y92464D01*
X285292Y93111D01*
X285627Y93690D01*
X286100Y94163D01*
X286679Y94498D01*
X287326Y94671D01*
X295129Y94671D01*
X295129Y89661D01*
X285119Y89661D01*
G37*
%LPD*%
%LPC*%
G36*
X299191Y80589D02*
X299191Y80589D01*
X299191Y85599D01*
X309201Y85599D01*
X309201Y82796D01*
X309028Y82149D01*
X308693Y81570D01*
X308220Y81097D01*
X307641Y80762D01*
X306994Y80589D01*
X299191Y80589D01*
G37*
%LPD*%
%LPC*%
G36*
X287326Y80589D02*
X287326Y80589D01*
X286679Y80762D01*
X286100Y81097D01*
X285627Y81570D01*
X285292Y82149D01*
X285119Y82796D01*
X285119Y85599D01*
X295129Y85599D01*
X295129Y80589D01*
X287326Y80589D01*
G37*
%LPD*%
%LPC*%
G36*
X325119Y168909D02*
X325119Y168909D01*
X325119Y168911D01*
X325121Y168911D01*
X325121Y168909D01*
X325119Y168909D01*
G37*
%LPD*%
%LPC*%
G36*
X270509Y110489D02*
X270509Y110489D01*
X270509Y110491D01*
X270511Y110491D01*
X270511Y110489D01*
X270509Y110489D01*
G37*
%LPD*%
%LPC*%
G36*
X297159Y87629D02*
X297159Y87629D01*
X297159Y87631D01*
X297161Y87631D01*
X297161Y87629D01*
X297159Y87629D01*
G37*
%LPD*%
%LPC*%
G36*
X270509Y74929D02*
X270509Y74929D01*
X270509Y74931D01*
X270511Y74931D01*
X270511Y74929D01*
X270509Y74929D01*
G37*
%LPD*%
D10*
X88900Y116180D03*
X88900Y97180D03*
D11*
X192380Y44450D03*
X173380Y44450D03*
D12*
X297160Y64630D03*
X297160Y87630D03*
X297160Y110630D03*
D13*
X358160Y87630D03*
D14*
X270510Y138490D03*
X270510Y110490D03*
X270510Y46930D03*
X270510Y74930D03*
D15*
X45720Y168910D03*
X71120Y168910D03*
X96520Y168910D03*
X121920Y168910D03*
X147320Y168910D03*
X172720Y168910D03*
X198120Y168910D03*
X223520Y168910D03*
X248920Y168910D03*
X274320Y168910D03*
X274320Y16510D03*
X248920Y16510D03*
X223520Y16510D03*
X198120Y16510D03*
X172720Y16510D03*
X147320Y16510D03*
X121920Y16510D03*
X96520Y16510D03*
X71120Y16510D03*
X45720Y16510D03*
X299720Y16510D03*
X325120Y16510D03*
X299720Y168910D03*
X325120Y168910D03*
D10*
X200660Y127610D03*
X200660Y108610D03*
D11*
X175870Y131380D03*
X175870Y107380D03*
X156870Y107380D03*
X156870Y131380D03*
X398120Y163830D03*
X379120Y163830D03*
D15*
X17780Y132080D03*
X17780Y106680D03*
X17780Y81280D03*
X17780Y55880D03*
D11*
X111100Y63500D03*
X92100Y63500D03*
D16*
X143764Y63500D03*
X135636Y63500D03*
D10*
X44450Y97180D03*
X44450Y116180D03*
D15*
X20320Y168910D03*
X20320Y16510D03*
D17*
X358160Y87630D02*
X384490Y87630D01*
D18*
X384490Y87630D03*
X313370Y87630D03*
D17*
X300650Y88900D02*
X297160Y87630D01*
X298450Y88900D02*
X300650Y88900D01*
X298450Y87630D02*
X313370Y87630D01*
X297160Y87630D02*
X294178Y87630D01*
X272730Y109078D01*
D18*
X219809Y62230D03*
X401320Y87630D03*
X383540Y135890D03*
X401320Y113030D03*
X414020Y100330D03*
X426720Y87630D03*
X426720Y113030D03*
X426720Y62230D03*
X414020Y74930D03*
X401320Y62230D03*
X383540Y40640D03*
D17*
X383540Y130810D02*
X383540Y135890D01*
X383540Y130810D02*
X401320Y113030D01*
X383540Y44450D02*
X383540Y40640D01*
X383540Y44450D02*
X401320Y62230D01*
X401320Y87630D02*
X384490Y87630D01*
X401320Y113030D02*
X414020Y100330D01*
X426720Y113030D01*
X414020Y100330D02*
X426720Y87630D01*
X414020Y100330D02*
X401320Y87630D01*
X414020Y74930D01*
X426720Y87630D01*
X414020Y74930D02*
X426720Y62230D01*
X414020Y74930D02*
X401320Y62230D01*
X199430Y107380D02*
X175870Y107380D01*
D19*
X199430Y107380D02*
X200660Y108610D01*
D17*
X217337Y62230D02*
X219809Y62230D01*
X217337Y62230D02*
X208308Y71259D01*
X208308Y100962D02*
X200660Y108610D01*
X208308Y100962D02*
X208308Y71259D01*
D18*
X160020Y90170D03*
D17*
X175870Y106020D01*
D19*
X175870Y107380D01*
D17*
X398120Y150470D02*
X398120Y163830D01*
X398120Y150470D02*
X383540Y135890D01*
X334010Y177800D02*
X325120Y168910D01*
X334010Y177800D02*
X395580Y177800D01*
X398120Y175260D02*
X398120Y163830D01*
X398120Y175260D02*
X395580Y177800D01*
D18*
X166596Y58528D03*
D17*
X173380Y51744D01*
X173380Y44450D01*
X293370Y87630D02*
X313370Y87630D01*
X293370Y87630D02*
X281940Y76200D01*
X298450Y87630D02*
X298450Y88900D01*
X299720Y168910D02*
X325120Y168910D01*
X271780Y76200D02*
X270510Y74930D01*
X271780Y76200D02*
X281940Y76200D01*
X272730Y108270D02*
X270510Y110490D01*
X272730Y109078D02*
X272730Y108270D01*
X270510Y74930D02*
X257810Y62230D01*
X219809Y62230D01*
D18*
X59690Y43180D03*
D19*
X169344Y40414D02*
X173380Y44450D01*
D17*
X169344Y40414D02*
X62456Y40414D01*
X59690Y43180D01*
D19*
X49530Y92100D02*
X44450Y97180D01*
X49530Y92100D02*
X49530Y81280D01*
X50800Y80010D01*
D18*
X50800Y80010D03*
X333560Y44260D03*
D17*
X333560Y24950D01*
X325120Y16510D01*
X320070Y44260D02*
X299700Y64630D01*
X297160Y64630D01*
X320070Y44260D02*
X333560Y44260D01*
X289480Y64630D02*
X271780Y46930D01*
X270510Y46930D01*
X289480Y64630D02*
X297160Y64630D01*
D18*
X111760Y109220D03*
X323850Y55880D03*
D17*
X323850Y95050D02*
X308270Y110630D01*
X323850Y95050D02*
X323850Y55880D01*
X252190Y16510D02*
X248920Y16510D01*
X267684Y32004D02*
X284226Y32004D01*
X299720Y16510D01*
X267684Y32004D02*
X252190Y16510D01*
X297180Y110630D02*
X297180Y124460D01*
X297180Y110630D02*
X297160Y110630D01*
X297180Y124460D02*
X283870Y137770D01*
X156870Y131380D02*
X147890Y131380D01*
X128270Y111760D01*
X114300Y111760D02*
X111760Y109220D01*
X114300Y111760D02*
X128270Y111760D01*
X156870Y131380D02*
X175870Y131380D01*
X196890Y131380D01*
D19*
X200660Y127610D01*
X327180Y135890D02*
X331470Y135890D01*
X327180Y135890D02*
X301920Y110630D01*
X297160Y110630D01*
D18*
X331470Y135890D03*
D17*
X308270Y110630D02*
X297160Y110630D01*
D18*
X188375Y59464D03*
D20*
X192380Y55459D01*
X192380Y44450D01*
D17*
X271230Y137770D02*
X270510Y138490D01*
X271230Y137770D02*
X283870Y137770D01*
X88900Y97180D02*
X88900Y95910D01*
X99720Y97180D02*
X111760Y109220D01*
X99720Y97180D02*
X88900Y97180D01*
X48870Y55880D02*
X17780Y55880D01*
X48870Y55880D02*
X88900Y95910D01*
D19*
X25400Y48260D02*
X17780Y55880D01*
X66040Y63500D02*
X92100Y63500D01*
X66040Y63500D02*
X50800Y48260D01*
X25400Y48260D01*
D17*
X65380Y97180D02*
X88900Y97180D01*
X65380Y97180D02*
X60960Y101600D01*
D18*
X60960Y101600D03*
D19*
X219710Y76200D02*
X219710Y134620D01*
D18*
X219710Y76200D03*
D19*
X219710Y134620D02*
X198120Y156210D01*
X133350Y156210D01*
X121920Y167640D01*
X121920Y168910D01*
D18*
X124460Y120650D03*
D19*
X48235Y143510D02*
X31750Y127025D01*
X31750Y95250D01*
X124460Y120650D02*
X124460Y133350D01*
X114300Y143510D01*
X48235Y143510D01*
X31750Y95250D02*
X17780Y81280D01*
D18*
X162391Y148364D03*
D19*
X161121Y149634D01*
X42954Y149634D01*
X25400Y132080D02*
X17780Y132080D01*
X25400Y132080D02*
X42954Y149634D01*
X142940Y107380D02*
X156870Y107380D01*
D18*
X125730Y90170D03*
D19*
X142940Y107380D01*
D18*
X60960Y119380D03*
D19*
X85700Y119380D02*
X88900Y116180D01*
X85700Y119380D02*
X60960Y119380D01*
D18*
X187680Y90450D03*
D19*
X177239Y80010D01*
X153670Y80010D02*
X143510Y90170D01*
X153670Y80010D02*
X177239Y80010D01*
D18*
X143510Y90170D03*
D19*
X162560Y68580D02*
X156210Y62230D01*
D18*
X198120Y76200D03*
D19*
X190500Y68580D01*
X162560Y68580D01*
D18*
X156210Y50800D03*
D19*
X156210Y62230D01*
X156210Y50800D02*
X152400Y50800D01*
X143764Y59436D01*
X143764Y63500D01*
D18*
X52070Y132080D03*
D19*
X49530Y129540D01*
X49530Y121260D01*
X44450Y116180D01*
D18*
X334010Y152400D03*
D19*
X334010Y153670D02*
X344170Y163830D01*
X334010Y153670D02*
X334010Y152400D01*
X344170Y163830D02*
X379120Y163830D01*
X135636Y63500D02*
X111100Y63500D01*
M02*
